<?xml version="1.0" standalone="no"?>
<!DOCTYPE svg PUBLIC "-//W3C//DTD SVG 1.1//EN" "http://www.w3.org/Graphics/SVG/1.1/DTD/svg11.dtd" >
<svg xmlns="http://www.w3.org/2000/svg" xmlns:xlink="http://www.w3.org/1999/xlink" version="1.1" viewBox="-10 0 1010 1000">
  <g transform="matrix(1 0 0 -1 0 800)">
   <path fill="currentColor"
d="M279.8 758zM234.8 762c2.74023 2.45215 6.38672 -4.24414 9 -4c8.07129 0.755859 14.8193 1.22266 24 1c29.0566 -0.703125 63.04 -6.47461 99 -10c52 -5 81 -7 133 -13c23 -3 37 -4 59 -11c27 -9 42 -15 66 -30c15 -9 24 -15 32 -30c7 -12 6 -21 5 -34
c-1 -15 -5 -22 -10 -36c-4 -13 -6 -22 -13 -34s-14 -17 -22 -29c-12 -19 -18 -29 -28 -50c-7 -15 -11 -24 -14 -39s-4 -23 -3 -38c0 -6 2 -11 7 -15c10 -8 17 -13 29 -16c17 -4 28 -1 46 -3c13 -2 21 -4 34 -8c15 -5 23 -8 36 -17c12 -9 20 -14 27 -28c13 -25 17 -41 23 -69
c2 -10 -1 -16 -3 -27c-2 -10 -1 -16 -6 -25c-7 -13 -9 -22 -22 -30c-40 -23 -64 -36 -108 -47c-50 -12 -81 -14 -132 -11c-40 3 -64 9 -100 26c-26 13 -42 24 -57 49c-38 62 -54 101 -76 170c-18 55 -17 90 -25 147c-7 50 -9 78 -11 128
c-1.29297 33.626 -6.74609 67.7441 -7 95c-0.138672 14.8926 -5.78027 25.6328 8 38z" />
  </g>

</svg>
