<?xml version="1.0" standalone="no"?>
<!DOCTYPE svg PUBLIC "-//W3C//DTD SVG 1.1//EN" "http://www.w3.org/Graphics/SVG/1.1/DTD/svg11.dtd" >
<svg xmlns="http://www.w3.org/2000/svg" xmlns:xlink="http://www.w3.org/1999/xlink" version="1.1" viewBox="-10 0 1010 1000">
  <g transform="matrix(1 0 0 -1 0 800)">
   <path fill="currentColor"
d="M230.043 754c1.0498 4.83105 81.0586 -1.33789 135 -4c43.0518 -2.125 66 -3 109 -9c23 -3 36 -7 59 -13c18 -5 28 -10 46 -16c22 -8 36 -10 57 -20c23 -11 35 -18 55 -33c16 -12 25 -19 38 -35c10 -11 13 -19 20 -32c8 -15 13 -24 17 -41c5 -21 6 -34 6 -55
c0 -17 1 -27 -4 -44c-9 -32 -16 -50 -30 -80c-8 -18 -15 -26 -25 -43c-5 -9 -8 -15 -14 -23c-14 -18 -22 -27 -37 -43c-11 -12 -18 -18 -31 -28c-51 -37 -79 -59 -132 -92c-17 -11 -27 -16 -46 -21c-29 -7 -46 -10 -75 -10c-19 0 -32 0 -47 10c-18 12 -23 26 -34 45
c-10 17 -14 28 -20 47c-8 25 -11 40 -16 65c-7 33 -10 51 -14 84c-4 35 -3 55 -5 90c-4 53 -8.28125 83.9844 -11 137c-2 39 1.44043 55.9893 1 95c-0.293945 26.0029 -7.74023 42.583 -2 69z" />
  </g>

</svg>
