<?xml version="1.0" standalone="no"?>
<!DOCTYPE svg PUBLIC "-//W3C//DTD SVG 1.1//EN" "http://www.w3.org/Graphics/SVG/1.1/DTD/svg11.dtd" >
<svg xmlns="http://www.w3.org/2000/svg" xmlns:xlink="http://www.w3.org/1999/xlink" version="1.1" viewBox="-10 0 1010 1000">
  <g transform="matrix(1 0 0 -1 0 800)">
   <path fill="currentColor"
d="M385.254 627c14 6 60 -2 96 -10c17 -4 25 -11 40 -19c18 -10 31 -13 45 -28c13 -13 14 -25 21 -42c9 -23 6 -39 20 -59c9 -13 19 -25 34 -20c26 8 34 27 52 47c19 21 26 37 42 60c18 25 25 40 45 64c6 7 14 20 20 13c10 -13 4 -25 2 -41c-4 -31 -9 -48 -16 -78
c-9 -35 -14 -54 -25 -88c-16 -48 -27 -74 -44 -122c-9 -25 -11 -39 -20 -64c-14 -36 -19 -58 -39 -92c-11 -19 -16 -42 -38 -40c-24 2 -31 24 -43 46c-20 38 -23 63 -36 103c-13 38 -11 64 -31 98c-14 24 -26 44 -54 45c-34 1 -51 -20 -77 -42c-28 -25 -35 -46 -58 -76
c-21 -28 -31 -45 -55 -71c-19 -21 -28 -43 -55 -50c-13 -4 -18 17 -17 31c2 27 15 40 24 66c8 24 11 39 21 62c26 60 43 93 71 152c16 35 26 54 43 89c12 26 18.2129 60.0908 32 66z" />
  </g>

</svg>
