<?xml version="1.0" standalone="no"?>
<!DOCTYPE svg PUBLIC "-//W3C//DTD SVG 1.1//EN" "http://www.w3.org/Graphics/SVG/1.1/DTD/svg11.dtd" >
<svg xmlns="http://www.w3.org/2000/svg" xmlns:xlink="http://www.w3.org/1999/xlink" version="1.1" viewBox="-10 0 1010 1000">
  <g transform="matrix(1 0 0 -1 0 800)">
   <path fill="currentColor"
d="M250.252 495c7 34 13 53 24 86c7 22 13 34 23 55c13 27 17.3594 44.4727 36 68c11.4395 14.4404 20.1611 46.8828 33 51c23.9004 7.66504 40.9453 -1.66309 68 -2c19.998 -0.249023 32 3 52 2c25 -1 38 -3 63 -6c26 -4 41 -6 67 -12c23 -5 37 -9 59 -17
c16 -6 27 -8 39 -20c14 -14 18 -25 26 -43c6 -14 8 -23 10 -38s2 -24 1 -39c-2 -17 -3 -28 -9 -44c-6 -18 -13 -27 -22 -45c-8 -16 -10 -28 -21 -42c-11 -15 -22 -20 -36 -32c-15 -12 -22 -21 -40 -30c-23 -11 -37 -17 -63 -21c-20 -3 -31 1 -51 5c-16 3 -28 0 -40 12
c-7 7 -2 16 1 25s9 12 14 20c8 12 15 18 20 32c6 18 11 29 9 47c-3 20 -10 31 -22 48c-12 18 -21 26 -38 40c-16 13 -25 21 -44 29c-8 3 -17 5 -22 -2c-9 -13 -4 -24 -7 -39c-4 -18 -7 -27 -10 -45c-3 -20 -3 -31 -4 -51c-1 -22 -1 -35 -1 -57c0 -15 1 -23 1 -38
c-1 -45 0 -70 -3 -115c-1 -16 -3 -25 -8 -40c-2 -6 -5 -12 -11 -13c-11 -1 -18 3 -26 10c-13 12 -19 21 -27 37c-14 26 -20 42 -29 70c-7 22 -8 35 -11 58c-3 24 -3 37 -3 61c0 14 -1 22 2 35z" />
  </g>

</svg>
