<?xml version="1.0" standalone="no"?>
<!DOCTYPE svg PUBLIC "-//W3C//DTD SVG 1.1//EN" "http://www.w3.org/Graphics/SVG/1.1/DTD/svg11.dtd" >
<svg xmlns="http://www.w3.org/2000/svg" xmlns:xlink="http://www.w3.org/1999/xlink" version="1.1" viewBox="-10 0 1010 1000">
  <g transform="matrix(1 0 0 -1 0 800)">
   <path fill="currentColor"
d="M216.098 760c-8.99219 11.1064 3.77148 -47.9834 5 -71c1.72754 -32.3418 11 -49 17 -81c3 -15 2 -24 5 -40c4 -23 6 -36 12 -59c7 -27 12 -41 21 -68c10 -28 15 -45 27 -72c16 -35 22 -56 44 -87c17 -24 30 -35 54 -52c21 -15 35 -20 60 -27c26 -7 41 -8 68 -9
c24 -1 39 0 62 5c21 5 31 10 50 21c24 14 37 23 58 42c17 15 26 25 38 44s16 32 22 54c7 23 8 37 11 60c6 49 10 77 12 127c3 63 9 99 1 162c-2 19 -10 33 -26 42c-14 8 -25 1 -40 -5c-13 -5 -20 -11 -28 -23c-11 -16 -10 -30 -19 -47s-18 -24 -26 -41
c-7 -15 -7 -25 -12 -41c-2 -7 -3 -12 -6 -19c-9 -25 -11.7969 -42.1152 -25 -65c-15 -26 -16 -37 -33 -62c-8 -11 -17.9893 -26.043 -31 -29c-22 -5 -36 0 -56 11c-19 11 -27 23 -39 41c-17 26 -22 43 -34 71c-20 46 -24 75 -49 118c-15 27 -29 39 -52 59
c-14 13 -23.873 17.2744 -41 25c-19 8.57129 -47.1289 12.4551 -50 16z" />
  </g>

</svg>
