<?xml version="1.0" standalone="no"?>
<!DOCTYPE svg PUBLIC "-//W3C//DTD SVG 1.1//EN" "http://www.w3.org/Graphics/SVG/1.1/DTD/svg11.dtd" >
<svg xmlns="http://www.w3.org/2000/svg" xmlns:xlink="http://www.w3.org/1999/xlink" version="1.1" viewBox="-10 0 1010 1000">
  <g transform="matrix(1 0 0 -1 0 800)">
   <path fill="currentColor"
d="M227.93 755c-11 -17 4 -31 6 -51c3 -23 4 -35 7 -58c5 -46 6 -72 13 -118c5 -35 10 -54 17 -88c8 -43 11 -68 21 -111c5 -24 8 -38 18 -61c10 -25 12 -44 33 -61c16 -13 32 -15 52 -10c30 7 45 19 70 38c20 15 27 28 43 48c23 28 36 43 57 72c22 31 31 51 52 82
c24 36 40 55 63 91c17 27 23 43 38 71c12 24 19 37 30 61s19 37 25 62c3 11 6 21 -2 29s-19 6 -29 2c-18 -7 -27 -15 -39 -30c-18 -23 -23 -39 -35 -66c-15 -33 -19 -53 -34 -86c-17 -39 -25 -62 -47 -99c-12 -19 -19 -33 -39 -43c-19 -9 -37 -13 -55 -2
c-26 16 -29 37 -45 63c-17 28 -24 45 -37 74c-14 31 -18.1719 48.9307 -31 81c-8 20 -17 32 -31 48c-15 18 -22.1523 23.7686 -42 37c-15 10 -23 17 -41 23c-14 4 -30 14 -38 2z" />
  </g>

</svg>
