<?xml version="1.0" standalone="no"?>
<!DOCTYPE svg PUBLIC "-//W3C//DTD SVG 1.1//EN" "http://www.w3.org/Graphics/SVG/1.1/DTD/svg11.dtd" >
<svg xmlns="http://www.w3.org/2000/svg" xmlns:xlink="http://www.w3.org/1999/xlink" version="1.1" viewBox="-10 0 1010 1000">
  <g transform="matrix(1 0 0 -1 0 800)">
   <path fill="currentColor"
d="M280.925 372c30 51 63 71 90 124c49 97 40 172 104 260c20 28 68 30 88 2c63 -87 48 -162 96 -258c30 -59 72 -77 102 -136c34 -67 51 -109 58 -184c2 -27 -10 -54 -36 -60c-42 -9 -75 -2 -106 28c-26 25 -9 55 -16 90c-4 23 -1 39 -12 60c-11 22 -21 35 -42 48
c-26 15 -44 18 -74 20c-31 2 -50 1 -80 -8c-23 -7 -38 -14 -54 -32c-15 -18 -18 -33 -22 -56c-4 -18 5 -29 2 -48s-9 -29 -18 -46c-9 -16 -13 -27 -28 -38c-18 -13 -31 -16 -52 -20c-36 -7 -63 -28 -94 -8c-19 13 12 34 20 56c5 15 8 23 14 38c8 20 11 32 20 52
c13 31 25 47 36 78c5 14 -3 25 4 38z" />
  </g>

</svg>
