<?xml version="1.0" standalone="no"?>
<!DOCTYPE svg PUBLIC "-//W3C//DTD SVG 1.1//EN" "http://www.w3.org/Graphics/SVG/1.1/DTD/svg11.dtd" >
<svg xmlns="http://www.w3.org/2000/svg" xmlns:xlink="http://www.w3.org/1999/xlink" version="1.1" viewBox="-10 0 1010 1000">
  <g transform="matrix(1 0 0 -1 0 800)">
   <path fill="currentColor"
d="M233.318 760c1.10742 7.56836 162 -5.82031 265 -6c54.0371 -0.09375 85 -2 137 -12s84 -13 131 -38c11 -6 5 -20 1 -31c-5 -13 -12 -20 -24 -26c-17 -10 -30 -11 -49 -14c-23 -4 -37 -1 -60 -5c-32 -6 -52 -4 -80 -20c-22 -12 -32 -26 -43 -49c-11 -22 -9 -38 -10 -62
c-1 -18 -1 -28 5 -45c7 -20 12 -33 28 -48c17 -16 30 -23 52 -29c29 -8 47 -1 77 -6c20 -3 34 -3 50 -14c23 -17 34 -30 47 -56c11 -23 14 -39 11 -64s-9 -40 -24 -61c-13 -17 -25 -24 -44 -33c-26 -13 -42 -19 -70 -23c-52 -8 -82 -16 -135 -9c-48 7 -76 16 -117 43
c-32 22 -44 43 -63 77c-27 50 -38 81 -53 136c-14 50 -14.6592 81.0479 -22 132c-7.59082 52.6846 -12.1484 54.5967 -13 131c-0.500977 45.0039 -7.87988 57.6768 3 132z" />
  </g>

</svg>
