<?xml version="1.0" standalone="no"?>
<!DOCTYPE svg PUBLIC "-//W3C//DTD SVG 1.1//EN" "http://www.w3.org/Graphics/SVG/1.1/DTD/svg11.dtd" >
<svg xmlns="http://www.w3.org/2000/svg" xmlns:xlink="http://www.w3.org/1999/xlink" version="1.1" viewBox="-10 0 1010 1000">
  <g transform="matrix(1 0 0 -1 0 800)">
   <path fill="currentColor"
d="M229.727 758c2.19629 -80.6475 -4.00879 -91.0713 3 -132c8.44531 -49.3223 2 -79 8 -129s10 -78 24 -127c15 -52 24 -82 48 -131c15 -32 25 -51 51 -75c26 -25 46 -34 79 -47c20 -8 33 -6 54 -6c53 -1 83 -2 136 4c39 4 62 6 98 21c20 8 40 16 40 38
c-1 26 -20 38 -42 51c-23 13 -41 10 -67 13s-42 -4 -68 3c-36 10 -64 10 -88 38c-15 17 -6 37 5 58c8 15 20 16 36 22c17 6 28 6 46 8c16 2 24 2 40 3c28 2 44 0 72 4c13 2 21 5 32 12c13 9 21 15 28 29c6 12 7 21 2 33c-7 17 -17 25 -32 35c-13 9 -22 10 -37 12
c-33 4 -52 3 -85 4c-13 1 -22 -4 -34 1c-32 14 -51 22 -76 46c-8 8 -5 17 -2 28c4 14 9 23 20 32c14 11 26 11 42 16c13 4 21 5 35 6c27 2 43 -4 69 2c31 7 49 13 76 31c9 6 8 16 12 26c5 12 9 19 12 32c2 8 1 12 1 20c0 6 6 15 0 16c-51 7 -81 2 -133 3c-54 1 -84 2 -138 2
c-52 0 -82.2393 0.980469 -134 -4c-51.3936 -4.94531 -133.54 21.8369 -133 2z" />
  </g>

</svg>
