<?xml version="1.0" standalone="no"?>
<!DOCTYPE svg PUBLIC "-//W3C//DTD SVG 1.1//EN" "http://www.w3.org/Graphics/SVG/1.1/DTD/svg11.dtd" >
<svg xmlns="http://www.w3.org/2000/svg" xmlns:xlink="http://www.w3.org/1999/xlink" version="1.1" viewBox="-10 0 1010 1000">
  <g transform="matrix(1 0 0 -1 0 800)">
   <path fill="currentColor"
d="M229.556 756c0.46875 12.2695 83.792 -3.9873 137 -3c53 0.983398 83 -1 136 -3c52 -2 81 -2 133 -8c32 -4 50 -7 81 -17c22 -7 39 -9 53 -28c8 -11 1 -23 -7 -35c-10 -14 -20 -19 -36 -25c-21 -7 -34 -6 -56 -8c-28 -3 -44 -1 -72 -4c-24 -3 -39 -1 -60 -12
c-18 -10 -27 -21 -36 -39c-5 -9 -3 -17 2 -27c8 -15 15 -23 30 -31c18 -10 31 -9 51 -12c18 -3 29 -2 47 -4c17 -2 26 -3 43 -5c15 -2 25 0 39 -5c19 -7 34 -8 45 -26s12 -35 5 -55c-5 -15 -18 -19 -33 -26c-14 -7 -24 -7 -40 -9c-30 -4 -49 2 -78 -7
c-38 -11 -60 -20 -91 -44c-13 -10 -11 -22 -15 -38c-5 -21 -4 -34 -8 -55c-5 -24 -3 -39 -14 -60c-10 -20 -21 -29 -39 -41c-15 -10 -26 -10 -43 -13c-20 -3 -33 -8 -53 -3c-15 4 -21 14 -32 24c-10 10 -17 16 -23 29c-16 38 -23 60 -32 100c-8 38 -7 61 -12 100
c-3 25 -6 39 -9 64c-4 38 -6.01172 58.999 -9 97c-3.62109 46.0293 1.58496 24.4297 -5 114c-2.58594 35.165 -2.02246 35.9189 1 115z" />
  </g>

</svg>
