<?xml version="1.0" standalone="no"?>
<!DOCTYPE svg PUBLIC "-//W3C//DTD SVG 1.1//EN" "http://www.w3.org/Graphics/SVG/1.1/DTD/svg11.dtd" >
<svg xmlns="http://www.w3.org/2000/svg" xmlns:xlink="http://www.w3.org/1999/xlink" version="1.1" viewBox="-10 0 1010 1000">
  <g transform="matrix(1 0 0 -1 0 800)">
   <path fill="currentColor"
d="M229.867 729c-0.101562 55.2861 73.0674 19.2344 135 24c51.8857 3.99219 82 0 134 -5c38 -4 61 -6 96 -19c13 -5 23 -11 25 -25c2 -12 -8 -18 -18 -25c-20 -14 -36 -16 -57 -28c-20 -12 -31 -20 -50 -34c-23 -17 -38 -24 -57 -45c-25 -29 -38 -47 -55 -81
c-11 -22 -15 -36 -17 -60c-2 -37 2 -58 7 -95c2 -13 6 -21 12 -32c9 -17 11 -30 27 -41c22 -15 39 -17 66 -22c21 -4 34 -4 56 -2c23 2 37 0 58 10c17 8 26 16 34 33c9 19 11 33 5 53c-5 16 -14 26 -30 32c-19 7 -32 -4 -53 -1c-12 2 -16 9 -27 14c-16 7 -28 5 -43 15
c-22 15 -32 29 -50 49c-7 8 -21 14 -14 22c17 20 34 23 59 30c16 5 26 -1 43 -1c26 0 41 4 67 2c32 -3 49 -7 80 -15c13 -4 21 -7 32 -15c16 -11 26 -18 37 -33c14 -20 19 -33 28 -56c5 -15 5 -24 7 -39s4 -23 3 -38c-1 -18 -2 -28 -6 -46c-3 -16 -5 -25 -12 -40
s-12 -25 -23 -37c-10 -12 -19 -16 -32 -24c-16 -9 -25 -13 -42 -20c-15 -6 -24 -10 -39 -13c-25 -5 -39 -8 -64 -8c-42 -1 -66 -5 -107 5c-32 8 -47 21 -74 40c-17 12 -26 20 -38 38c-17 26 -22 43 -34 71c-13 30 -22 47 -30 79c-13 49 -16.083 76.9863 -24 127
c-6.54199 41.334 -7.41797 54.7588 -12 105c-3.19824 35.0732 0.0166016 49.7959 -2 78c-1.44043 20.1514 -0.856445 -4.77734 -1 73z" />
  </g>

</svg>
