<?xml version="1.0" standalone="no"?>
<!DOCTYPE svg PUBLIC "-//W3C//DTD SVG 1.1//EN" "http://www.w3.org/Graphics/SVG/1.1/DTD/svg11.dtd" >
<svg xmlns="http://www.w3.org/2000/svg" xmlns:xlink="http://www.w3.org/1999/xlink" version="1.1" viewBox="-10 0 1010 1000">
  <g transform="matrix(1 0 0 -1 0 800)">
   <path fill="currentColor"
d="M245.772 754c-7 -48 0 -76 -1 -124c-1 -50 -2 -79 -5 -129c-3 -53 -5 -84 -10 -137c-5 -52 -6 -82 -16 -133c-5 -25 -13 -37 -23 -61c-6 -14 -15 -20 -16 -35c0 -8 6 -12 13 -16c9 -6 15 -7 27 -9c16 -2 25 -2 41 -1s26 -1 41 5c14 6 23 11 32 23c11 14 14 24 18 41
c6 25 -1 41 8 65c6 17 14 27 29 37c22 14 37 16 62 21c16 3 26 2 42 1c28 -2 45 0 72 -9c14 -4 20 -12 29 -23c11 -14 14 -24 19 -41c5 -19 2 -31 7 -51c6 -23 6 -39 20 -57c9 -11 21 -15 34 -12c16 4 26 14 32 29c14 38 13 63 16 103c4 49 -4 77 3 127c6 47 11 74 30 118
c4 11 16 9 26 14c12 7 28 4 32 17c16 54 21 87 15 143c-4 36 -16 55 -38 84c-9 11 -20 9 -35 9c-23 -1 -38 0 -58 -12c-15 -9 -18 -21 -27 -37c-13 -23 -20 -36 -28 -61c-7 -20 -3 -34 -11 -54c-10 -24 -17 -37 -35 -56c-12 -13 -21 -17 -38 -22c-26 -8 -42 -8 -69 -10
c-18 -1 -27 -2 -45 2c-20 5 -31 10 -48 21c-12 7 -18 13 -25 25c-7 13 -7 23 -9 37c-3 16 -1 25 -4 41c-8 34 -9 55 -24 87c-6 13 -14 17 -27 25c-14 8 -23 11 -39 15c-6 2 -16 7 -17 0z" />
  </g>

</svg>
