<?xml version="1.0" standalone="no"?>
<!DOCTYPE svg PUBLIC "-//W3C//DTD SVG 1.1//EN" "http://www.w3.org/Graphics/SVG/1.1/DTD/svg11.dtd" >
<svg xmlns="http://www.w3.org/2000/svg" xmlns:xlink="http://www.w3.org/1999/xlink" version="1.1" viewBox="-10 0 1010 1000">
  <g transform="matrix(1 0 0 -1 0 800)">
   <path fill="currentColor"
d="M234.888 756c9.75781 -4.02539 38.25 -2.58203 78 -3c41.0098 -0.430664 63 2 104 0c43 -2 66 -5 109 -8c39 -3 62 -2 101 -8c30 -4 47 -7 75 -17c15 -5 26 -8 34 -22c6 -11 3 -21 -3 -33c-6 -11 -13 -15 -24 -20c-18 -8 -30 -9 -49 -12c-24 -4 -41 5 -63 -8
c-25 -14 -34 -31 -47 -56c-14 -26 -18 -44 -21 -73c-5 -49 -2 -77 0 -127c1 -18 -1 -30 6 -47c12 -29 18 -49 42 -69c17 -14 34 -17 56 -13c33 6 49 21 78 39c22 13 26 33 51 40c11 3 17 -9 22 -19c8 -17 12 -29 10 -47c-2 -28 -5 -44 -20 -68c-12 -20 -24 -29 -45 -39
c-34 -16 -56 -18 -93 -25c-32 -6 -50 -8 -82 -9c-53 -1 -83 -1 -136 3c-41 3 -64 2 -104 14c-29 9 -45 18 -69 38c-17 14 -25 26 -32 47c-8 26 -9 43 -5 70c3 25 9 39 22 60c8 13 14 22 29 25s26 -2 38 -13s12 -22 16 -37c6 -22 -3 -40 11 -57s32 -28 52 -21
c21 8 20 29 28 50c7 20 9 33 10 54c3 60 4 93 2 153c-1 17 -2.08984 27.5361 -8 44c-14 39 -30 56 -71 82c-13.1914 8.36523 -24 0 -40 4c-21 5 -34 7 -51 19c-13 9 -17 20 -24 34c-6 13 -9.05176 49.1416 -9 35c0.180664 -48.8662 -23.7207 58.8613 22 40z" />
  </g>

</svg>
