<?xml version="1.0" standalone="no"?>
<!DOCTYPE svg PUBLIC "-//W3C//DTD SVG 1.1//EN" "http://www.w3.org/Graphics/SVG/1.1/DTD/svg11.dtd" >
<svg xmlns="http://www.w3.org/2000/svg" xmlns:xlink="http://www.w3.org/1999/xlink" version="1.1" viewBox="-10 0 1010 1000">
  <g transform="matrix(1 0 0 -1 0 800)">
   <path fill="currentColor"
d="M283.048 644c-4.65527 21.5254 38.9668 26.1758 60 30c11 2 19 3 29 0c12 -4 20 -8 26 -18c6 -11 0 -20 4 -32s8 -20 17 -29c12 -12 21 -18 36 -26c13 -6 21 -6 35 -9c12 -3 20 -4 32 -5c16 -1 24 0 40 0c20 0 31 -1 51 1s31 5 51 10c19 5 30 7 47 14c14 5 25 5 35 17
c12 14 8 27 15 45c2 6 2 14 8 14c8 0 11 -8 15 -15c20 -34 31 -53 46 -89c6 -15 7 -25 7 -41c0 -10 0 -17 -6 -25c-12 -15 -21 -23 -39 -30c-17 -7 -29 0 -47 -4c-19 -4 -32 -5 -47 -16s-19 -22 -28 -38c-10 -16 -15 -26 -20 -44c-4 -13 -3 -21 -4 -35c-3 -29 -3 -46 -7 -75
c-5 -35 -4 -56 -18 -89c-11 -25 -25 -34 -45 -53c-14 -13 -23 -18 -40 -28c-9 -6 -15 -9 -26 -11c-18 -4 -29 -4 -47 -5c-23 -2 -36 -3 -59 -3c-46 -1 -71 -2 -117 0c-21 1 -34 0 -54 6c-23 6 -36 11 -55 24c-9 6 -16 13 -15 24c1 15 8 25 20 34c13 10 24 9 41 12
c11 2 19 -5 29 0c11 6 13 15 20 26c6 10 6 18 13 28c8 11 14 17 25 25c12 9 20 15 34 19c19 5 30 3 49 3c17 0 26 -5 43 -2c12 2 19 7 29 13c15 9 25 13 36 27s14 25 18 42c3 15 4 24 0 40c-3 13 -7 21 -17 31c-18 19 -28 31 -51 41c-17 8 -30 -2 -48 3c-26 7 -41 11 -63 27
c-14 10 -20 20 -26 36c-14 35 -15.2666 57.3701 -24 94c-4.91797 20.626 -1.86523 7.62988 -8 36z" />
  </g>

</svg>
