<?xml version="1.0" standalone="no"?>
<!DOCTYPE svg PUBLIC "-//W3C//DTD SVG 1.1//EN" "http://www.w3.org/Graphics/SVG/1.1/DTD/svg11.dtd" >
<svg xmlns="http://www.w3.org/2000/svg" xmlns:xlink="http://www.w3.org/1999/xlink" version="1.1" viewBox="-10 0 1010 1000">
  <g transform="matrix(1 0 0 -1 0 800)">
   <path fill="currentColor"
d="M201.5 758c-0.244141 4.06348 60.9482 -9.58008 92 -31c18.9512 -13.0723 21 -29 28 -51c6 -16 0 -27 4 -44c4 -18 2 -33 17 -43c12 -8 24 1 37 7c19 9 27 18 43 31c13 11 17 20 30 31c17 14 27 23 46 34c23 13 35 22 61 26c20 3 33 -1 52 -9c9 -4 10 -13 14 -21
c4 -9 6 -15 8 -24c2 -10 1 -15 0 -25s-1 -17 -6 -26c-8 -15 -17 -21 -28 -34c-10 -12 -15 -19 -25 -31c-15 -16 -26 -23 -39 -41c-10 -14 -14 -23 -19 -40c-3 -12 -4 -20 0 -31c7 -18 13 -27 27 -41c12 -12 21 -16 36 -22c23 -9 38 -8 61 -16c25 -9 39 -15 63 -29
c19 -11 29 -20 46 -35c13 -11 23 -16 32 -31c11 -18 13 -31 16 -52c2 -16 1 -25 -3 -41c-2 -10 -3 -18 -12 -23c-15 -9 -27 -11 -44 -11c-26 0 -40 5 -65 11c-29 7 -46 11 -73 22c-29 11 -44 23 -73 35c-33 14 -51 23 -85 33c-24 7 -39 17 -62 10c-28 -9 -46 -21 -59 -48
c-18 -37 -1 -67 -17 -105c-5 -13 -19 -16 -33 -14s-22 9 -29 21c-12 21 -12 36 -16 59c-6 40 -7 63 -10 104c-5 63 -10.041 97.999 -12 161c-1.89746 61.0459 3.46777 13.1709 5 106c0.277344 16.7744 5.16992 17.835 -2 94c-0.179688 1.90918 -1.34375 35.1699 -4 96
c-0.255859 5.87891 0.335938 -0.818359 -2 38z" />
  </g>

</svg>
