<?xml version="1.0" standalone="no"?>
<!DOCTYPE svg PUBLIC "-//W3C//DTD SVG 1.1//EN" "http://www.w3.org/Graphics/SVG/1.1/DTD/svg11.dtd" >
<svg xmlns="http://www.w3.org/2000/svg" xmlns:xlink="http://www.w3.org/1999/xlink" version="1.1" viewBox="-10 0 1010 1000">
  <g transform="matrix(1 0 0 -1 0 800)">
   <path fill="currentColor"
d="M203.125 755c29 0 46 -3 75 -6c11 -1 17 -2 27 -6s16 -8 24 -15c9 -8 14 -13 20 -24s7 -18 8 -30c1 -11 -1 -17 -3 -28c-3 -14 -8 -22 -11 -36c-4 -18 -5 -29 -9 -47c-3 -16 -7 -24 -8 -40c-3 -39 -1 -61 -3 -100c-1 -25 -4 -38 -4 -63c0 -20 5 -32 5 -52
c0 -16 -3 -26 -3 -42c0 -13 4 -20 5 -32c1 -10 -4 -18 2 -27c8 -12 16 -19 31 -22s23 5 38 6c14 1 23 2 36 -2c14 -4 18 -15 31 -20c15 -6 25 -6 41 -9c14 -3 22 -4 36 -6c20 -2 31 -7 51 -4c19 3 29 10 47 17c24 9 37 17 62 22c16 3 26 2 43 0c14 -2 23 -1 35 -10
c11 -9 16 -17 18 -31c2 -13 1 -24 -8 -32c-13 -12 -26 -11 -43 -16c-23 -7 -36 -10 -59 -14c-28 -4 -44 -6 -72 -7c-26 -1 -41 -1 -67 0c-42 1 -66 -3 -107 4c-20 3 -29 12 -46 22c-19 11 -29 18 -45 33c-17 17 -26 28 -39 48c-16 24 -22 40 -34 66c-13 29 -23 46 -31 77
c-13 50 -15 79 -22 130c-9 66 -16 104 -21 170c-3 35 2 54 2 89c0 12 0 18 -1 30c0 3 -4 7 -1 7z" />
  </g>

</svg>
