<?xml version="1.0" standalone="no"?>
<!DOCTYPE svg PUBLIC "-//W3C//DTD SVG 1.1//EN" "http://www.w3.org/Graphics/SVG/1.1/DTD/svg11.dtd" >
<svg xmlns="http://www.w3.org/2000/svg" xmlns:xlink="http://www.w3.org/1999/xlink" version="1.1" viewBox="-10 0 1010 1000">
  <g transform="matrix(1 0 0 -1 0 800)">
   <path fill="currentColor"
d="M222.324 412c-1 -19 -2 -29 -1 -48c1 -17 2 -27 4 -44c2 -19 2 -29 7 -48c5 -20 8 -32 17 -51c10 -21 15 -34 30 -52c10 -12 16 -26 32 -25c20 2 27 16 40 31c15 18 20 30 29 51c11 25 15 39 22 66c7 30 10 48 14 78c5 35 -2 56 8 90c4 15 10 30 26 30
c22 1 30 -18 49 -28c13 -7 20 -14 35 -16s24 0 38 6c13 5 15 16 28 22c14 6 24 12 38 7s14 -17 22 -30c9 -15 12 -24 19 -40c6 -13 9 -20 14 -33c7 -19 11 -29 17 -48c7 -21 8 -34 15 -55c6 -19 8 -30 18 -48c3 -5 6 -8 12 -7c5 1 7 6 9 11c4 11 4 18 5 30c3 30 3 47 4 77
c2 54 9 84 4 138c-6 71 -10 112 -32 181c-8 24 -20 39 -42 50c-16 8 -28 -3 -46 -7c-29 -7 -44 -16 -74 -21c-25 -4 -40 -7 -64 -1c-22 5 -31 18 -51 29c-21 12 -31 21 -53 31c-19 9 -31 13 -52 17c-23 5 -39 18 -59 7c-18 -9 -12 -29 -18 -48c-10 -31 -14 -49 -23 -80
c-8 -27 -13 -43 -19 -70c-7 -31 -11 -49 -15 -81c-3 -25 -3 -40 -5 -65c0 -2 -2 -4 -2 -6z" />
  </g>

</svg>
