<?xml version="1.0" standalone="no"?>
<!DOCTYPE svg PUBLIC "-//W3C//DTD SVG 1.1//EN" "http://www.w3.org/Graphics/SVG/1.1/DTD/svg11.dtd" >
<svg xmlns="http://www.w3.org/2000/svg" xmlns:xlink="http://www.w3.org/1999/xlink" version="1.1" viewBox="-10 0 1010 1000">
  <g transform="matrix(1 0 0 -1 0 800)">
   <path fill="currentColor"
d="M478 748c23.667 -0.749023 -46.7655 -19.2812 -68 -47c-12.0711 -15.7572 -5 -30 -6 -49c-1 -10 2 -16 2 -26c1 -18 1 -28 1 -46v-99c0 -44 2 -70 2 -114c0 -36 -3 -56 -3 -91c0 -64 -19 -104 4 -164c19 -49 54 -65 96 -96c24 -18 43 -19 72 -26c32 -7 51 -10 84 -10
c56 0 89 -2 143 12c37 10 62 18 85 48c35 45 32 83 56 134c9 18 24 24 28 44c7 38 3 61 -1 100c-6 57 -13 89 -26 144c-11 48 -17 75 -37 120c-16 36 -24 60 -54 86c-46 40 -80 54 -136 80c-19 9 -32 6 -53 8c-15 1 -24 1 -39 0c-48 -2 -77 4 -124 -6
c-38 -8 -62 -15 -92 -41c-12 -11 3.08591 -56.6886 -2 -41c-1.45038 4.47404 8.49489 -27.859 22 -35c15.937 -8.42687 28 -6 46 -7c20 -1 31 2 51 2c19 0 30 -2 49 -2s29 2 48 2c23 0 37 0 60 -2c14 -1 22 -3 36 -6c31 -7 54 -3 80 -21s34 -38 46 -67c10 -25 8 -41 11 -68
c1 -8 0 -13 -2 -21c-14 -46 -20 -73 -41 -117c-8 -17 -18 -24 -32 -36c-18 -15 -29 -24 -51 -32c-33 -12 -53 -22 -89 -20s-59 9 -88 31c-20 15 -22 32 -29 56c-6 21 -3 35 -3 57c0 23 1 35 4 58c3 24 4 37 10 60c10 36 17 55 30 90c5 14 31.0554 31.1694 16 36
c-56.952 18.2732 -120.479 -5.24661 -162 15c-44.0791 21.4941 7.64062 108.531 56 107z" />
  </g>

</svg>
