<?xml version="1.0" standalone="no"?>
<!DOCTYPE svg PUBLIC "-//W3C//DTD SVG 1.1//EN" "http://www.w3.org/Graphics/SVG/1.1/DTD/svg11.dtd" >
<svg xmlns="http://www.w3.org/2000/svg" xmlns:xlink="http://www.w3.org/1999/xlink" version="1.1" viewBox="-10 0 1010 1000">
  <g transform="matrix(1 0 0 -1 0 800)">
   <path fill="currentColor"
d="M443.654 496c-12 -15 -12.0498 -52.9502 -26 -88c-6.55273 -16.4639 -5 -27 -10 -44c-9 -30 -12 -47 -25 -76c-11 -25 -15 -44 -37 -60c-18 -13 -38 -18 -55 -6c-26 19 -26 43 -38 73c-14 34 -21 54 -27 90c-4 26 -1 41 0 67c1 30 -1 48 3 78c5 31 6 50 20 78
c22 43 37 68 73 100c21 19 41 16 67 25c25 8 38 15 64 18c36 5 57 3 94 2c32 -1 51 -1 82 -8c20 -5 29 -13 47 -22c20 -10 33 -12 51 -25c12 -9 15 -17 23 -29c11 -16 23 -23 26 -43c3 -25 -4 -39 -11 -63c-5 -18 -8 -28 -18 -43c-16 -24 -27 -37 -49 -56
c-23 -20 -36 -40 -66 -42c-26 -2 -37 18 -57 34c-15 13 -19 25 -32 40c-19 22 -28 36 -49 56c-17 16 -25 29 -47 38c-18 7 -33 10 -49 0c-15 -9 -14 -25 -20 -42c-7 -20 -10 -31 -12 -53c-1 -14 -6 -27 5 -36c10 -8 20 11 32 8c19 -4 30 -11 44 -25c10 -10 9 -21 15 -34
s11 -20 18 -33c13 -25 23 -39 34 -65c17 -39 23 -62 38 -102c10 -27 16 -41 28 -68c7 -16 10 -26 21 -40c5 -6 13 -14 19 -9c12 11 11 23 14 39c4 21 5 34 4 55c-1 26 -2 41 -9 66c-7 28 -13 42 -27 68c-21 39 -33 62 -60 97c-18 23 -31.8779 27.1348 -54 47
c-16.1699 14.5205 -35.541 43.5742 -44 33z" />
  </g>

</svg>
