<?xml version="1.0" standalone="no"?>
<!DOCTYPE svg PUBLIC "-//W3C//DTD SVG 1.1//EN" "http://www.w3.org/Graphics/SVG/1.1/DTD/svg11.dtd" >
<svg xmlns="http://www.w3.org/2000/svg" xmlns:xlink="http://www.w3.org/1999/xlink" version="1.1" viewBox="-10 0 1010 1000">
  <g transform="matrix(1 0 0 -1 0 800)">
   <path fill="currentColor"
d="M262.005 654c1.26562 -35.8262 1.78906 -59.8477 1 -99c-0.685547 -33.9932 1 -52 1 -86c0 -36 -2 -56 -1 -92c1 -29 2 -46 5 -75c3 -33 6 -51 10 -84c3 -25 2 -40 7 -65c7 -36 4 -60 22 -92c6 -10 19 -6 30 -1c13 6 20 14 26 28c11 25 13 41 17 69c5 31 -2 50 6 81
c4 14 10 24 23 29c19 8 33 8 53 1c22 -8 30 -23 49 -36c16 -11 26 -16 42 -27c19 -13 30 -20 49 -34c15 -11 22 -19 38 -29c20 -13 30 -26 54 -29c16 -2 30 6 37 19c10 18 8 33 2 53c-8 30 -17 47 -37 70c-25 27 -45 35 -76 55c-35 24 -57 35 -93 57c-34 21 -58 27 -88 53
c-21 18 -30 33 -39 59c-7 19 -6 33 -1 52c4 15 10 23 22 33c10 8 20 13 32 9s14 -15 19 -26c7 -16 11 -27 9 -44c-1 -13 -20 -17 -16 -30c4 -14 16 -17 30 -20c23 -5 37 -3 60 -1c30 2 48 2 77 11c32 10 49 18 79 35c12 7 27 11 25 25c-8 47 -27 69 -49 112
c-15 30 -23 48 -44 73c-14 17 -26 23 -44 34c-16 10 -25 19 -43 19c-34 0 -53 -10 -86 -20c-25 -8 -37 -15 -61 -25s-36 -17 -61 -27c-21 -8 -35 -10 -56 -19c-12 -5 -30.4717 -2.66699 -30 -16z" />
  </g>

</svg>
