<?xml version="1.0" standalone="no"?>
<!DOCTYPE svg PUBLIC "-//W3C//DTD SVG 1.1//EN" "http://www.w3.org/Graphics/SVG/1.1/DTD/svg11.dtd" >
<svg xmlns="http://www.w3.org/2000/svg" xmlns:xlink="http://www.w3.org/1999/xlink" version="1.1" viewBox="-10 0 1010 1000">
  <g transform="matrix(1 0 0 -1 0 800)">
   <path fill="currentColor"
d="M318.616 652c-43 -5.68164 -98.8633 20.8555 -111 5c-14.9795 -19.5693 -5.90723 -51.4502 -3 -82c10.5059 -110.377 15.2051 -84.5029 30 -145c5.12891 -20.9688 11 -31 20 -50c10 -22 11.9141 -38.0918 29 -54c29 -27 51.001 -50 86 -59
c26.4346 -6.79785 38 -13 72 -14c33.5273 -0.986328 47.9854 -1 82 -1c24 0 35.0098 -6.80078 59 -8c20 -1 32 3 51 -3c17 -6 29 -11 37 -27c7 -13 8 -28 -3 -37c-24 -18 -44 -17 -73 -21c-36 -5 -56 1 -92 0c-31 -1 -50 1 -80 -6c-35 -8 -56 -13 -88 -30
c-8 -4 -15 -14 -9 -21c19 -20 35 -27 61 -36c23 -8 37 -4 61 -6c25 -2 39 -4 64 -3c58 2 92 -1 149 12c39 9 61 21 93 45c22 16 35 30 44 56c7 22 1 38 -5 60c-6 23 -10 38 -24 57c-13 18 -25 26 -45 37c-28 16 -45 24 -77 31c-28 6 -45 1 -74 3c-30 2 -46 1 -76 5
c-29 4 -45 9 -73 16c-20 5 -33 4 -51 15c-22 13 -32 24 -48 44c-6 8 -8 15 -5 24c11 31 17 50 40 74c16 16 33 15 54 23c29 12 46 18 76 29c23 8 36 12 59 20c24 8 37 12 61 19c20 6 48 -8 53 13c4 19 -27 16 -46 18c-36 5 -57 0 -94 0c-29 0 -46 -1 -75 -1
c-23 0 -36 5 -58 0c-14 -3 -27 -6 -31 -19c-3 -10 9 -15 18 -20c13 -7 22 -6 36 -10c18 -5 29 -7 47 -12c20 -6 30 -12 51 -17c26 -6 41 -4 67 -10c41 -9 64 -18 105 -27c24 -6 38 -8 63 -11c19 -2 35 -17 48 -3c12 14 -4 28 -11 45c-13 32 -21 51 -39 80
c-17 27 -29 43 -52 65c-22 21 -33 39 -62 45c-33 6 -51 -9 -84 -17c-34 -9 -54 -14 -87 -26c-30 -11 -45.6426 -21.8574 -76 -34c-25 -10 -36.9404 -27.4248 -64 -31z" />
  </g>

</svg>
