<?xml version="1.0" standalone="no"?>
<!DOCTYPE svg PUBLIC "-//W3C//DTD SVG 1.1//EN" "http://www.w3.org/Graphics/SVG/1.1/DTD/svg11.dtd" >
<svg xmlns="http://www.w3.org/2000/svg" xmlns:xlink="http://www.w3.org/1999/xlink" version="1.1" viewBox="-10 0 1010 1000">
  <g transform="matrix(1 0 0 -1 0 800)">
   <path fill="currentColor"
d="M401 577v-36c0 0 -1 -23 -1 -37c0 0 -6 -29 -10 -48c0 0 -7 -35 -12 -57c0 0 -7 -34 -12 -55c0 0 -9 -63 -14 -103c0 0 4 -29 7 -48c0 0 5 -23 9 -38c0 0 28 -24 46 -40l45 -10c0 0 24 2 40 3c0 0 20 5 32 9c0 0 16 5 27 9c0 0 23 20 37 32c0 0 22 38 36 63
c0 0 5 57 8 94c0 0 -7 42 -12 69c0 0 -9 33 -15 54c0 0 -5 49 -8 81c0 0 -2 42 -3 57c0 0 10 37 35 56c-3.32798 -0.86371 74.7053 19.488 69 18c0 0 24 -2 40 -4c0 0 25 10 41 16c0 0 4 18 7 30c0 0 -14 20 -23 33c0 0 -59 10 -97 16c0 0 -62 5 -101 8c0 0 -54 5 -88 9
c0 0 -27 -1 -45 -1c0 0 -11 -4 -18 -2c0 0 -35 1 -57 -3c0 0 -70 5 -115 9c0 0 -20 -1 -32 -1l-10 -25c0 0 13 -34 21 -56c0 0 26 -18 43 -29c0 0 35 -5 57 -8c0 0 29 -12 47 -19c0 0 10 -15 17 -25c0 0 5 -13 9 -21z" />
  </g>

</svg>
