<?xml version="1.0" standalone="no"?>
<!DOCTYPE svg PUBLIC "-//W3C//DTD SVG 1.1//EN" "http://www.w3.org/Graphics/SVG/1.1/DTD/svg11.dtd" >
<svg xmlns="http://www.w3.org/2000/svg" xmlns:xlink="http://www.w3.org/1999/xlink" version="1.1" viewBox="-10 0 1010 1000">
  <g transform="matrix(1 0 0 -1 0 800)">
   <path fill="currentColor"
d="M219.37 754zM216.37 760c10 -20 16 -31 25 -51c17 -36 24 -58 42 -94c14 -29 23 -45 41 -72c12 -17 14 -37 35 -40c16 -2 19 17 27 31c11 19 1 43 21 52c14 6 13 -21 20 -34c13 -25 4.02344 -62.7803 33 -66c36 -4 49 25 75 49c24 22 32.7344 43.4014 53 69
c19 24 26 41 47 62c32 33 52 52 90 77c16 10 30 19 48 12c13 -5 11 -19 9 -33c-3 -26 -9 -40 -20 -64c-19 -39 -33 -59 -56 -95c-35 -55 -53 -88 -94 -139s-61 -85 -116 -120c-22 -14 -45 -9 -65 6c-22 17 -17 41 -28 67s0 61 -28 67c-23 5 -11.0234 -34.1426 -15 -58
c-3 -18 5 -45 -4 -61c-4 -8 -14.3809 11.8398 -18 21c-32 81 -41 130 -66 213c-11 36 -16 57 -26 93c-11 40 -16 62 -27 102c-1 3 -4 8 -3 6z" />
  </g>

</svg>
