<?xml version="1.0" standalone="no"?>
<!DOCTYPE svg PUBLIC "-//W3C//DTD SVG 1.1//EN" "http://www.w3.org/Graphics/SVG/1.1/DTD/svg11.dtd" >
<svg xmlns="http://www.w3.org/2000/svg" xmlns:xlink="http://www.w3.org/1999/xlink" version="1.1" viewBox="-10 0 1010 1000">
  <g transform="matrix(1 0 0 -1 0 800)">
   <path fill="currentColor"
d="M418 756c10.2349 -24.6424 21 -37 37 -58c29 -38 45 -59 79 -94c17 -18 29 -26 50 -39c11 -7 18 -7 30 -12s18 -10 31 -12c20 -4 32 -5 53 -3c15 1 22 6 36 11c18 7 28 12 46 19c24 9 37 16 63 21c10 2 26 6 25 -4c-2 -25 -15 -37 -29 -58c-22 -33 -45 -45 -64 -80
c-14 -25 -16 -42 -20 -71c-2 -15 1 -25 5 -39c7 -24 11 -37 25 -58s26 -29 43 -47c28 -28 45 -43 73 -70c16 -16 28 -23 41 -42c17 -25 27 -40 33 -69c2 -7 -9 -8 -16 -8c-22 -1 -35 -1 -56 5c-49 15 -74 30 -122 48s-74 32 -125 43c-30 6 -48 7 -79 1
c-46 -8 -72 -17 -115 -36c-23 -10 -33 -23 -54 -37c-17 -11 -26 -18 -44 -27c-8 -4 -22 -17 -23 -8c-3 17 8 27 18 41c16 21 31 27 48 47c23 28 36 44 53 77c16 32 24 51 31 86c7 37 7 59 5 96c-3 63 -6 99 -17 161c-12 64 -22.7343 99.0765 -41 162
c-6.33041 21.8076 -25.9563 68.3408 -20 54z" />
  </g>

</svg>
