<?xml version="1.0" standalone="no"?>
<!DOCTYPE svg PUBLIC "-//W3C//DTD SVG 1.1//EN" "http://www.w3.org/Graphics/SVG/1.1/DTD/svg11.dtd" >
<svg xmlns="http://www.w3.org/2000/svg" xmlns:xlink="http://www.w3.org/1999/xlink" version="1.1" viewBox="-10 0 1010 1000">
  <g transform="matrix(1 0 0 -1 0 800)">
   <path fill="currentColor"
d="M418 757c-13.749 35.0566 23 -52 40 -86c13 -27 20 -43 36 -69c14 -23 22 -37 39 -57s29 -31 50 -47c14 -11 23 -17 41 -22c23 -7 37 -13 60 -9c30 5 47 15 73 30c25 14 35 29 59 45c19 13 58 51 51 29c-12 -41 -40 -53 -68 -86c-26 -32 -43 -48 -69 -80
c-29 -35 -45 -55 -73 -90c-30 -38 -43 -64 -75 -100c-29 -33 -49 -50 -83 -78c-41 -34 -65 -51 -109 -81c-16 -11 -25 -19 -45 -23c-6 -1 -2 10 1 15c23 32 41 46 64 78c27 37 45 56 64 97c15 34 17 55 21 92c4 45 4 71 -1 116c-11 86 -15.9144 136.079 -40 219
c-12.9013 44.4162 -13.2486 48.9896 -36 107z" />
  </g>

</svg>
