<?xml version="1.0" standalone="no"?>
<!DOCTYPE svg PUBLIC "-//W3C//DTD SVG 1.1//EN" "http://www.w3.org/Graphics/SVG/1.1/DTD/svg11.dtd" >
<svg xmlns="http://www.w3.org/2000/svg" xmlns:xlink="http://www.w3.org/1999/xlink" version="1.1" viewBox="-10 0 1010 1000">
  <g transform="matrix(1 0 0 -1 0 800)">
   <path fill="currentColor"
d="M211 653c-60.2803 1.8457 92.8486 16.9697 155 20c40.0645 1.95312 66 5 106 5c41 0 63 -2 104 -7c42 -5 67 -7 108 -17c40 -10 65 -15 101 -35c34 -18 66 -24 77 -61c12 -40 -8 -66 -26 -104c-12 -24 -28 -31 -48 -50c-21 -20 -35 -30 -57 -49c-19 -16 -27 -28 -48 -42
c-40 -27 -66 -35 -107 -61c-33 -21 -53 -32 -83 -58c-23 -20 -56 -30 -52 -60c4 -29 37 -27 64 -38c24 -10 40 -10 65 -14c40 -6 63 -5 103 -11c59 -9 92 -12 150 -26c19 -5 58 -6 45 -21c-21 -23 -47 -13 -79 -17c-42 -5 -66 -5 -109 -6c-80 -1 -126 -1 -206 1
c-42 1 -67 -3 -108 7c-40 10 -77 6 -97 43c-14 26 18 44 37 67c19 24 36 31 59 51c40 34 63 52 103 86c23 20 38 30 59 52c39 42 81 56 93 112c10 45 -15 75 -44 111c-31 38 -57 53.0001 -101 71c-98.0742 40.1211 -166 47.9994 -264 51z" />
  </g>

</svg>
