<?xml version="1.0" encoding="UTF-8"?>
<!DOCTYPE svg PUBLIC "-//W3C//DTD SVG 1.1//EN" "http://www.w3.org/Graphics/SVG/1.1/DTD/svg11.dtd">
<svg xmlns="http://www.w3.org/2000/svg" version="1.1" width="800px" height="800px" style="shape-rendering:geometricPrecision; text-rendering:geometricPrecision; image-rendering:optimizeQuality; fill-rule:evenodd; clip-rule:evenodd" xmlns:xlink="http://www.w3.org/1999/xlink">
<g><path style="opacity:1" fill="#fefefe" d="M -0.5,-0.5 C 266.167,-0.5 532.833,-0.5 799.5,-0.5C 799.5,266.167 799.5,532.833 799.5,799.5C 532.833,799.5 266.167,799.5 -0.5,799.5C -0.5,532.833 -0.5,266.167 -0.5,-0.5 Z"/></g>
<g><path style="opacity:1" fill="#000000" d="M 721.5,42.5 C 736.734,41.0375 751.068,43.8709 764.5,51C 774.084,58.8409 779.751,68.8409 781.5,81C 778.468,102.63 773.301,123.797 766,144.5C 754.217,173.399 741.884,202.066 729,230.5C 673.9,338.721 615.233,444.721 553,548.5C 525.472,594.234 495.472,638.234 463,680.5C 454.377,691.46 444.211,700.627 432.5,708C 411.063,718.922 388.73,721.922 365.5,717C 357.271,713.887 349.271,710.22 341.5,706C 335.919,700.271 332.419,693.438 331,685.5C 329.407,665.58 332.073,646.246 339,627.5C 349.011,598.812 360.677,570.812 374,543.5C 470.918,381.999 567.585,220.332 664,58.5C 682.627,50.8873 701.794,45.554 721.5,42.5 Z"/></g>
</svg>
