<?xml version="1.0" encoding="UTF-8"?>
<!DOCTYPE svg PUBLIC "-//W3C//DTD SVG 1.1//EN" "http://www.w3.org/Graphics/SVG/1.1/DTD/svg11.dtd">
<svg xmlns="http://www.w3.org/2000/svg" version="1.1" width="800px" height="800px" style="shape-rendering:geometricPrecision; text-rendering:geometricPrecision; image-rendering:optimizeQuality; fill-rule:evenodd; clip-rule:evenodd" xmlns:xlink="http://www.w3.org/1999/xlink">
<g><path style="opacity:1" fill="#fefefe" d="M -0.5,-0.5 C 266.167,-0.5 532.833,-0.5 799.5,-0.5C 799.5,266.167 799.5,532.833 799.5,799.5C 532.833,799.5 266.167,799.5 -0.5,799.5C -0.5,532.833 -0.5,266.167 -0.5,-0.5 Z"/></g>
<g><path style="opacity:1" fill="#000000" d="M 405.5,37.5 C 417.738,39.6533 430.071,41.4866 442.5,43C 453.833,47 465.167,51 476.5,55C 486.67,61.2525 497.003,67.2525 507.5,73C 517.02,81.3545 526.687,89.5211 536.5,97.5C 543.667,107.167 550.833,116.833 558,126.5C 561.117,139.139 564.617,151.639 568.5,164C 566.306,178.071 564.473,192.238 563,206.5C 557,222.5 551,238.5 545,254.5C 534.333,272.5 523.667,290.5 513,308.5C 481.717,350.118 450.05,391.451 418,432.5C 401.174,455.484 384.841,478.817 369,502.5C 364.667,510.5 360.333,518.5 356,526.5C 354.415,531.413 353.748,536.413 354,541.5C 355.5,544.333 357.667,546.5 360.5,548C 380.163,555.666 400.497,560.666 421.5,563C 462.765,567.992 504.098,572.326 545.5,576C 577.799,580.193 609.466,587.193 640.5,597C 656.99,603.988 671.49,613.821 684,626.5C 686.38,630.916 687.88,635.582 688.5,640.5C 687.847,644.987 686.18,649.154 683.5,653C 685.167,652.667 686.833,652.333 688.5,652C 685.42,654.29 682.253,656.457 679,658.5C 678.586,658.043 678.086,657.709 677.5,657.5C 660.325,665.201 642.325,670.034 623.5,672C 586.971,676.501 550.304,679.168 513.5,680C 430.044,682.713 346.71,683.38 263.5,682C 223.643,681.446 183.976,678.446 144.5,673C 124.481,669.582 105.481,663.249 87.5,654C 84.212,649.923 81.0453,645.756 78,641.5C 71.8461,624.293 69.8461,606.626 72,588.5C 76.3271,555.519 87.6604,525.186 106,497.5C 117.102,482.495 129.268,468.328 142.5,455C 160.938,437.627 179.938,420.96 199.5,405C 244.833,373.667 290.167,342.333 335.5,311C 364.777,290.728 391.277,267.228 415,240.5C 419.667,232.5 424.333,224.5 429,216.5C 438.938,168.77 419.771,148.603 371.5,156C 326.097,171.69 286.097,196.024 251.5,229C 242.5,232 233.5,235 224.5,238C 216.243,239.237 208.076,240.737 200,242.5C 193.581,241.687 187.081,241.187 180.5,241C 175.167,238.667 169.833,236.333 164.5,234C 145.196,214.626 138.03,191.459 143,164.5C 150.675,142.48 163.509,123.98 181.5,109C 204.131,90.51 229.131,75.8433 256.5,65C 304.684,46.8615 354.35,37.6949 405.5,37.5 Z"/></g>
</svg>
