<?xml version="1.0" encoding="UTF-8"?>
<!DOCTYPE svg PUBLIC "-//W3C//DTD SVG 1.1//EN" "http://www.w3.org/Graphics/SVG/1.1/DTD/svg11.dtd">
<svg xmlns="http://www.w3.org/2000/svg" version="1.1" width="800px" height="800px" style="shape-rendering:geometricPrecision; text-rendering:geometricPrecision; image-rendering:optimizeQuality; fill-rule:evenodd; clip-rule:evenodd" xmlns:xlink="http://www.w3.org/1999/xlink">
<g><path style="opacity:1" fill="#fefefe" d="M -0.5,-0.5 C 266.167,-0.5 532.833,-0.5 799.5,-0.5C 799.5,266.167 799.5,532.833 799.5,799.5C 532.833,799.5 266.167,799.5 -0.5,799.5C -0.5,532.833 -0.5,266.167 -0.5,-0.5 Z"/></g>
<g><path style="opacity:1" fill="#000000" d="M 411.5,15.5 C 435.756,17.2923 460.089,18.7923 484.5,20C 505.5,23 526.5,26 547.5,29C 565.123,33.8225 582.79,38.4892 600.5,43C 614.044,49.9388 627.711,56.6055 641.5,63C 649.976,71.3982 658.642,79.5648 667.5,87.5C 672.662,97.8244 677.829,108.158 683,118.5C 683.177,130.742 683.677,142.909 684.5,155C 680.949,167.371 677.782,179.871 675,192.5C 668.082,203.334 661.415,214.334 655,225.5C 645.167,235.333 635.333,245.167 625.5,255C 612.328,263.419 599.328,272.085 586.5,281C 554.263,294.785 522.263,309.118 490.5,324C 483.054,329.812 475.887,335.978 469,342.5C 468.333,348.833 468.333,355.167 469,361.5C 474.833,366.667 480.667,371.833 486.5,377C 516.723,388.944 547.056,400.611 577.5,412C 588.664,419.417 599.998,426.583 611.5,433.5C 619.482,442.65 627.649,451.65 636,460.5C 640.139,470.582 644.472,480.582 649,490.5C 649.178,502.409 649.678,514.242 650.5,526C 647.282,537.707 644.449,549.54 642,561.5C 637.058,572.384 632.391,583.384 628,594.5C 621.084,604.663 614.417,614.997 608,625.5C 598.652,634.681 589.486,644.014 580.5,653.5C 569.356,662.144 558.356,670.977 547.5,680C 534.338,687.08 521.338,694.413 508.5,702C 493.42,707.804 478.42,713.804 463.5,720C 408.587,734.798 352.754,742.298 296,742.5C 246.9,742.784 198.067,738.95 149.5,731C 131.794,728.046 115.627,721.546 101,711.5C 98,707.5 95,703.5 92,699.5C 84.2551,686.799 85.4218,674.966 95.5,664C 113.163,650.671 132.83,641.337 154.5,636C 165.833,633.333 177.167,630.667 188.5,628C 234.758,621.749 281.091,616.082 327.5,611C 352.642,607.81 377.309,602.477 401.5,595C 416.934,589.761 430.934,582.095 443.5,572C 456.101,560.968 461.601,547.135 460,530.5C 454.338,516.169 444.505,505.669 430.5,499C 415.361,490.509 399.361,484.176 382.5,480C 342.686,471.92 302.686,464.92 262.5,459C 231.758,452.756 203.092,441.423 176.5,425C 173.631,421.796 170.465,418.963 167,416.5C 165,413.833 163,411.167 161,408.5C 159.445,403.618 159.112,398.618 160,393.5C 162.333,390.167 164.667,386.833 167,383.5C 171.833,379.333 176.667,375.167 181.5,371C 197.328,362.587 212.994,353.92 228.5,345C 285.591,317.121 342.924,289.788 400.5,263C 425.808,250.656 449.808,236.323 472.5,220C 476.714,215.454 480.547,210.621 484,205.5C 484.667,201.833 484.667,198.167 484,194.5C 479.833,191.667 475.667,188.833 471.5,186C 451.476,180.663 431.142,176.996 410.5,175C 353.839,173.2 297.172,171.533 240.5,170C 210.747,168.425 181.414,164.092 152.5,157C 143.167,153.333 133.833,149.667 124.5,146C 119.276,141.141 113.776,136.641 108,132.5C 105.06,126.954 102.394,121.287 100,115.5C 99.3619,108.792 99.6953,102.126 101,95.5C 103.806,88.7495 106.806,82.0829 110,75.5C 114.721,69.7794 119.054,63.7794 123,57.5C 131.167,50 139.333,42.5 147.5,35C 208.633,26.9482 269.966,20.9482 331.5,17C 358.336,16.8322 385.003,16.3322 411.5,15.5 Z"/></g>
</svg>
