<?xml version="1.0" standalone="no"?>
<!DOCTYPE svg PUBLIC "-//W3C//DTD SVG 20010904//EN"
 "http://www.w3.org/TR/2001/REC-SVG-20010904/DTD/svg10.dtd">
<svg version="1.0" xmlns="http://www.w3.org/2000/svg"
 width="800.000000pt" height="800.000000pt" viewBox="0 0 800.000000 800.000000"
 preserveAspectRatio="xMidYMid meet">

<g transform="translate(0.000000,800.000000) scale(0.100000,-0.100000)"
fill="#000000" stroke="none">
<path d="M4085 7476 c-217 -62 -473 -306 -715 -681 -399 -617 -558 -897 -787
-1383 -378 -800 -739 -1987 -1118 -3670 -130 -572 -134 -595 -117 -616 206
-261 369 -401 544 -470 l103 -41 85 10 c81 9 89 13 161 65 76 55 115 101 268
314 66 91 96 148 203 381 74 162 123 292 249 661 118 346 213 556 281 620 65
63 146 98 270 118 96 16 161 17 630 10 380 -5 553 -3 633 5 454 49 825 136
954 223 l54 37 169 -362 c279 -599 623 -1278 756 -1494 212 -343 336 -486 469
-540 44 -18 76 -23 143 -23 113 0 183 26 271 100 55 46 74 70 115 150 48 93
49 98 64 245 14 143 14 160 -6 360 -40 391 -188 956 -424 1625 -215 609 -518
1224 -895 1820 -247 391 -524 755 -1170 1536 -196 236 -639 764 -701 834 -156
176 -290 222 -489 166z m371 -1902 c27 -9 66 -33 87 -53 101 -95 239 -335 475
-826 82 -170 191 -395 242 -500 75 -156 437 -942 457 -995 4 -10 -2 -8 -18 6
-97 84 -805 287 -1194 343 -505 72 -703 69 -900 -17 -118 -51 -196 -119 -251
-217 -51 -91 -51 -93 22 175 29 107 71 267 94 355 149 575 338 1117 486 1393
94 175 214 295 332 333 72 23 106 23 168 3z m1312 -2454 c-2 -7 -10 1 -17 16
-12 27 -11 28 4 12 10 -9 16 -21 13 -28z"/>
</g>
</svg>
