<?xml version="1.0" encoding="UTF-8"?>
<!DOCTYPE svg PUBLIC "-//W3C//DTD SVG 1.1//EN" "http://www.w3.org/Graphics/SVG/1.1/DTD/svg11.dtd">
<svg xmlns="http://www.w3.org/2000/svg" version="1.1" width="800px" height="800px" style="shape-rendering:geometricPrecision; text-rendering:geometricPrecision; image-rendering:optimizeQuality; fill-rule:evenodd; clip-rule:evenodd" xmlns:xlink="http://www.w3.org/1999/xlink">
<g><path style="opacity:1" fill="#fefefe" d="M -0.5,-0.5 C 43.8333,-0.5 88.1667,-0.5 132.5,-0.5C 131.779,153.585 134.946,307.585 142,461.5C 144.333,489.5 146.667,517.5 149,545.5C 151.574,562.281 154.574,578.947 158,595.5C 161.394,599.898 164.394,604.565 167,609.5C 181.891,622.958 198.391,625.125 216.5,616C 226.017,609.482 233.85,601.316 240,591.5C 253.512,556.447 261.178,520.113 263,482.5C 264.59,436.837 265.923,391.17 267,345.5C 268.586,296.725 276.586,249.059 291,202.5C 296.333,191.167 301.667,179.833 307,168.5C 314.381,159.574 321.881,150.74 329.5,142C 376.738,102.706 425.738,100.372 476.5,135C 489.552,144.379 501.718,154.879 513,166.5C 520.668,176.494 527.334,187.161 533,198.5C 536.915,211.321 537.582,224.321 535,237.5C 532.393,242.38 530.06,247.38 528,252.5C 510.126,271.692 488.626,285.192 463.5,293C 440.128,299.592 417.128,307.259 394.5,316C 388.474,319.583 382.974,323.749 378,328.5C 376.682,331.43 376.015,334.43 376,337.5C 379.783,340.316 383.283,343.483 386.5,347C 406.169,356.112 426.502,363.446 447.5,369C 455.991,373.078 464.324,377.412 472.5,382C 477.027,386.892 481.193,392.059 485,397.5C 485.667,404.833 485.667,412.167 485,419.5C 481.078,426.342 477.412,433.342 474,440.5C 464.864,450.637 455.364,460.47 445.5,470C 416.573,494.256 388.24,519.256 360.5,545C 346.782,554.381 334.615,565.548 324,578.5C 316.781,589.34 318.615,598.173 329.5,605C 333.5,606.333 337.5,607.667 341.5,609C 361.5,609.667 381.5,609.667 401.5,609C 444.318,604.481 486.985,598.814 529.5,592C 545.79,587.511 562.123,583.177 578.5,579C 592.047,572.393 605.713,566.06 619.5,560C 630.5,552.167 641.5,544.333 652.5,536.5C 660.812,526.353 669.312,516.353 678,506.5C 683.745,494.677 689.745,483.01 696,471.5C 698.843,459.13 701.843,446.796 705,434.5C 705.483,423.916 706.317,413.416 707.5,403C 704.605,394.31 702.105,385.477 700,376.5C 694.833,370.167 689.667,363.833 684.5,357.5C 677.004,353.586 669.671,349.42 662.5,345C 644.79,340.489 627.123,335.823 609.5,331C 603.624,328.479 598.124,325.312 593,321.5C 591.816,317.551 591.482,313.551 592,309.5C 600.35,300.476 609.85,292.976 620.5,287C 640.47,278.356 659.136,267.69 676.5,255C 682.681,248.652 689.014,242.485 695.5,236.5C 699.084,230.331 702.917,224.331 707,218.5C 709.47,211.422 712.137,204.422 715,197.5C 715.184,189.921 715.684,182.421 716.5,175C 711.242,141.986 697.742,112.82 676,87.5C 669.167,80.6667 662.333,73.8333 655.5,67C 645.558,60.7236 635.892,54.0569 626.5,47C 609.759,41.5308 593.092,35.8641 576.5,30C 551.481,25.7746 526.481,21.4412 501.5,17C 378.959,5.25202 256.293,-0.581311 133.5,-0.5C 355.5,-0.5 577.5,-0.5 799.5,-0.5C 799.5,266.167 799.5,532.833 799.5,799.5C 532.833,799.5 266.167,799.5 -0.5,799.5C -0.5,532.833 -0.5,266.167 -0.5,-0.5 Z"/></g>
<g><path style="opacity:1" fill="#000000" d="M 132.5,-0.5 C 132.833,-0.5 133.167,-0.5 133.5,-0.5C 256.293,-0.581311 378.959,5.25202 501.5,17C 526.481,21.4412 551.481,25.7746 576.5,30C 593.092,35.8641 609.759,41.5308 626.5,47C 635.892,54.0569 645.558,60.7236 655.5,67C 662.333,73.8333 669.167,80.6667 676,87.5C 697.742,112.82 711.242,141.986 716.5,175C 715.684,182.421 715.184,189.921 715,197.5C 712.137,204.422 709.47,211.422 707,218.5C 702.917,224.331 699.084,230.331 695.5,236.5C 689.014,242.485 682.681,248.652 676.5,255C 659.136,267.69 640.47,278.356 620.5,287C 609.85,292.976 600.35,300.476 592,309.5C 591.482,313.551 591.816,317.551 593,321.5C 598.124,325.312 603.624,328.479 609.5,331C 627.123,335.823 644.79,340.489 662.5,345C 669.671,349.42 677.004,353.586 684.5,357.5C 689.667,363.833 694.833,370.167 700,376.5C 702.105,385.477 704.605,394.31 707.5,403C 706.317,413.416 705.483,423.916 705,434.5C 701.843,446.796 698.843,459.13 696,471.5C 689.745,483.01 683.745,494.677 678,506.5C 669.312,516.353 660.812,526.353 652.5,536.5C 641.5,544.333 630.5,552.167 619.5,560C 605.713,566.06 592.047,572.393 578.5,579C 562.123,583.177 545.79,587.511 529.5,592C 486.985,598.814 444.318,604.481 401.5,609C 381.5,609.667 361.5,609.667 341.5,609C 337.5,607.667 333.5,606.333 329.5,605C 318.615,598.173 316.781,589.34 324,578.5C 334.615,565.548 346.782,554.381 360.5,545C 388.24,519.256 416.573,494.256 445.5,470C 455.364,460.47 464.864,450.637 474,440.5C 477.412,433.342 481.078,426.342 485,419.5C 485.667,412.167 485.667,404.833 485,397.5C 481.193,392.059 477.027,386.892 472.5,382C 464.324,377.412 455.991,373.078 447.5,369C 426.502,363.446 406.169,356.112 386.5,347C 383.283,343.483 379.783,340.316 376,337.5C 376.015,334.43 376.682,331.43 378,328.5C 382.974,323.749 388.474,319.583 394.5,316C 417.128,307.259 440.128,299.592 463.5,293C 488.626,285.192 510.126,271.692 528,252.5C 530.06,247.38 532.393,242.38 535,237.5C 537.582,224.321 536.915,211.321 533,198.5C 527.334,187.161 520.668,176.494 513,166.5C 501.718,154.879 489.552,144.379 476.5,135C 425.738,100.372 376.738,102.706 329.5,142C 321.881,150.74 314.381,159.574 307,168.5C 301.667,179.833 296.333,191.167 291,202.5C 276.586,249.059 268.586,296.725 267,345.5C 265.923,391.17 264.59,436.837 263,482.5C 261.178,520.113 253.512,556.447 240,591.5C 233.85,601.316 226.017,609.482 216.5,616C 198.391,625.125 181.891,622.958 167,609.5C 164.394,604.565 161.394,599.898 158,595.5C 154.574,578.947 151.574,562.281 149,545.5C 146.667,517.5 144.333,489.5 142,461.5C 134.946,307.585 131.779,153.585 132.5,-0.5 Z"/></g>
</svg>
