<?xml version="1.0" encoding="UTF-8"?>
<!DOCTYPE svg PUBLIC "-//W3C//DTD SVG 1.1//EN" "http://www.w3.org/Graphics/SVG/1.1/DTD/svg11.dtd">
<svg xmlns="http://www.w3.org/2000/svg" version="1.1" width="800px" height="800px" style="shape-rendering:geometricPrecision; text-rendering:geometricPrecision; image-rendering:optimizeQuality; fill-rule:evenodd; clip-rule:evenodd" xmlns:xlink="http://www.w3.org/1999/xlink">
<g><path style="opacity:1" fill="#fefefe" d="M -0.5,-0.5 C 132.5,-0.5 265.5,-0.5 398.5,-0.5C 385.348,0.989519 372.014,2.15619 358.5,3C 346.5,6 334.5,9 322.5,12C 312.5,17 302.5,22 292.5,27C 284.167,33.3333 275.833,39.6667 267.5,46C 260.214,54.7417 253.047,63.575 246,72.5C 228.446,106.163 215.446,141.496 207,178.5C 192.86,237.484 184.693,297.318 182.5,358C 184.521,394.917 193.354,430.084 209,463.5C 243.149,530.979 291.982,585.145 355.5,626C 390.67,645.834 428.336,657.834 468.5,662C 482.408,662.176 496.242,662.676 510,663.5C 544.286,659.888 578.453,655.054 612.5,649C 634.085,644.036 654.418,636.036 673.5,625C 679.36,619.14 685.194,613.306 691,607.5C 695.418,599.982 694.584,592.982 688.5,586.5C 677.07,581.137 665.07,577.304 652.5,575C 604.729,567.988 556.729,563.322 508.5,561C 473.628,557.71 440.961,547.376 410.5,530C 394.136,517.643 378.969,503.809 365,488.5C 303.94,399.513 294.273,305.179 336,205.5C 344.43,187.135 355.93,170.969 370.5,157C 381.873,147.144 394.873,140.144 409.5,136C 441.754,127.2 474.421,125.2 507.5,130C 521.677,132.338 533.844,138.505 544,148.5C 550.586,160.605 551.919,173.272 548,186.5C 544.365,201.24 538.865,215.24 531.5,228.5C 541.212,246.046 554.545,260.213 571.5,271C 587.002,277.892 602.002,276.558 616.5,267C 631.442,255.61 642.942,241.443 651,224.5C 668.465,178.96 669.798,132.96 655,86.5C 644.726,67.8949 631.226,52.0615 614.5,39C 591.52,27.5099 567.52,18.8432 542.5,13C 495.02,4.85043 447.354,0.350425 399.5,-0.5C 532.833,-0.5 666.167,-0.5 799.5,-0.5C 799.5,266.167 799.5,532.833 799.5,799.5C 532.833,799.5 266.167,799.5 -0.5,799.5C -0.5,532.833 -0.5,266.167 -0.5,-0.5 Z"/></g>
<g><path style="opacity:1" fill="#000000" d="M 398.5,-0.5 C 398.833,-0.5 399.167,-0.5 399.5,-0.5C 447.354,0.350425 495.02,4.85043 542.5,13C 567.52,18.8432 591.52,27.5099 614.5,39C 631.226,52.0615 644.726,67.8949 655,86.5C 669.798,132.96 668.465,178.96 651,224.5C 642.942,241.443 631.442,255.61 616.5,267C 602.002,276.558 587.002,277.892 571.5,271C 554.545,260.213 541.212,246.046 531.5,228.5C 538.865,215.24 544.365,201.24 548,186.5C 551.919,173.272 550.586,160.605 544,148.5C 533.844,138.505 521.677,132.338 507.5,130C 474.421,125.2 441.754,127.2 409.5,136C 394.873,140.144 381.873,147.144 370.5,157C 355.93,170.969 344.43,187.135 336,205.5C 294.273,305.179 303.94,399.513 365,488.5C 378.969,503.809 394.136,517.643 410.5,530C 440.961,547.376 473.628,557.71 508.5,561C 556.729,563.322 604.729,567.988 652.5,575C 665.07,577.304 677.07,581.137 688.5,586.5C 694.584,592.982 695.418,599.982 691,607.5C 685.194,613.306 679.36,619.14 673.5,625C 654.418,636.036 634.085,644.036 612.5,649C 578.453,655.054 544.286,659.888 510,663.5C 496.242,662.676 482.408,662.176 468.5,662C 428.336,657.834 390.67,645.834 355.5,626C 291.982,585.145 243.149,530.979 209,463.5C 193.354,430.084 184.521,394.917 182.5,358C 184.693,297.318 192.86,237.484 207,178.5C 215.446,141.496 228.446,106.163 246,72.5C 253.047,63.575 260.214,54.7417 267.5,46C 275.833,39.6667 284.167,33.3333 292.5,27C 302.5,22 312.5,17 322.5,12C 334.5,9 346.5,6 358.5,3C 372.014,2.15619 385.348,0.989519 398.5,-0.5 Z"/></g>
</svg>
