<?xml version="1.0" encoding="UTF-8"?>
<!DOCTYPE svg PUBLIC "-//W3C//DTD SVG 1.1//EN" "http://www.w3.org/Graphics/SVG/1.1/DTD/svg11.dtd">
<svg xmlns="http://www.w3.org/2000/svg" version="1.1" width="800px" height="800px" style="shape-rendering:geometricPrecision; text-rendering:geometricPrecision; image-rendering:optimizeQuality; fill-rule:evenodd; clip-rule:evenodd" xmlns:xlink="http://www.w3.org/1999/xlink">
<g><path style="opacity:1" fill="#fefefe" d="M -0.5,-0.5 C 266.167,-0.5 532.833,-0.5 799.5,-0.5C 799.5,266.167 799.5,532.833 799.5,799.5C 532.833,799.5 266.167,799.5 -0.5,799.5C -0.5,532.833 -0.5,266.167 -0.5,-0.5 Z"/></g>
<g><path style="opacity:1" fill="#000000" d="M 210.5,94.5 C 280.311,93.2336 349.977,95.7336 419.5,102C 447.327,105.766 474.994,110.432 502.5,116C 583.309,134.8 651.142,174.967 706,236.5C 725.911,259.434 742.244,284.767 755,312.5C 766.851,343.022 766.851,373.355 755,403.5C 741.873,426.638 725.04,446.805 704.5,464C 666.829,493.189 626.162,517.855 582.5,538C 510.818,570.006 437.151,596.673 361.5,618C 342.775,622.845 323.775,625.178 304.5,625C 297.515,623.116 290.848,620.45 284.5,617C 281.216,613.478 281.05,609.645 284,605.5C 286.263,602.114 289.097,599.281 292.5,597C 305.926,590.233 318.26,581.899 329.5,572C 354,548.833 377.833,525 401,500.5C 423.376,474.459 445.376,448.126 467,421.5C 479.517,404.638 490.85,386.972 501,368.5C 509.717,350.819 513.05,332.153 511,312.5C 509,307.833 507,303.167 505,298.5C 496.807,288.495 487.307,279.995 476.5,273C 439.448,250.201 399.448,234.868 356.5,227C 343.716,224.776 330.883,222.943 318,221.5C 310.825,222.613 303.658,223.779 296.5,225C 289.198,228.651 281.864,232.318 274.5,236C 264.18,245.819 255.68,256.985 249,269.5C 241.35,285.116 235.683,301.449 232,318.5C 229.667,332.833 227.333,347.167 225,361.5C 222.108,410.139 219.774,458.806 218,507.5C 215.972,549.142 211.305,590.476 204,631.5C 201.788,644.242 197.121,655.909 190,666.5C 185.153,670.928 180.32,671.095 175.5,667C 166.165,656.309 159.332,644.142 155,630.5C 144.05,601.699 136.383,572.033 132,541.5C 119.667,427.843 113.667,313.843 114,199.5C 113.5,166.168 113.333,132.835 113.5,99.5C 145.992,97.9406 178.325,96.2739 210.5,94.5 Z"/></g>
</svg>
