<?xml version="1.0" encoding="UTF-8"?>
<!DOCTYPE svg PUBLIC "-//W3C//DTD SVG 1.1//EN" "http://www.w3.org/Graphics/SVG/1.1/DTD/svg11.dtd">
<svg xmlns="http://www.w3.org/2000/svg" version="1.1" width="800px" height="800px" style="shape-rendering:geometricPrecision; text-rendering:geometricPrecision; image-rendering:optimizeQuality; fill-rule:evenodd; clip-rule:evenodd" xmlns:xlink="http://www.w3.org/1999/xlink">
<g><path style="opacity:1" fill="#fefefe" d="M -0.5,-0.5 C 266.167,-0.5 532.833,-0.5 799.5,-0.5C 799.5,266.167 799.5,532.833 799.5,799.5C 532.833,799.5 266.167,799.5 -0.5,799.5C -0.5,532.833 -0.5,266.167 -0.5,-0.5 Z"/></g>
<g><path style="opacity:1" fill="#000000" d="M 526.5,76.5 C 559.08,76.642 590.413,83.142 620.5,96C 629.339,101.254 638.339,106.254 647.5,111C 653.833,116.167 660.167,121.333 666.5,126.5C 670.812,131.98 675.312,137.313 680,142.5C 681.778,148.504 683.945,154.338 686.5,160C 685.306,165.735 684.472,171.568 684,177.5C 681.11,190.383 673.777,199.716 662,205.5C 658.927,204.142 655.76,202.975 652.5,202C 634.046,184.939 612.379,173.939 587.5,169C 532.987,155.354 483.987,166.02 440.5,201C 435.289,206.542 430.456,212.375 426,218.5C 419.558,230.506 420.558,241.84 429,252.5C 432.131,256.633 435.631,260.466 439.5,264C 460.082,279.904 481.748,294.237 504.5,307C 533.377,321.605 562.377,335.938 591.5,350C 602.664,357.417 613.998,364.583 625.5,371.5C 630.973,379.473 636.64,387.306 642.5,395C 640.97,403.403 639.803,411.903 639,420.5C 630.982,429.017 623.148,437.684 615.5,446.5C 601.995,455.085 588.662,463.918 575.5,473C 543.67,491.081 512.003,509.414 480.5,528C 464.164,537.499 448.164,547.499 432.5,558C 413.55,575.08 411.383,594.247 426,615.5C 430.833,620.333 435.667,625.167 440.5,630C 463.643,640.695 487.976,647.029 513.5,649C 553.809,651.973 594.142,652.307 634.5,650C 643.751,642.205 654.084,636.205 665.5,632C 669.5,631.333 673.5,631.333 677.5,632C 688.555,639.58 692.722,649.746 690,662.5C 687.804,667.42 685.804,672.42 684,677.5C 668.358,698.477 649.525,715.977 627.5,730C 617.915,734.598 608.582,739.598 599.5,745C 589.5,748.333 579.5,751.667 569.5,755C 533.445,759.948 497.445,759.614 461.5,754C 449.833,749.667 438.167,745.333 426.5,741C 415.833,734.667 405.167,728.333 394.5,722C 385.167,714 375.833,706 366.5,698C 355.667,685.167 344.833,672.333 334,659.5C 327.918,649 321.584,638.666 315,628.5C 309.446,616.057 304.446,603.391 300,590.5C 298.668,579.526 298.334,568.526 299,557.5C 301.463,549.11 304.13,540.776 307,532.5C 312.667,524.833 318.333,517.167 324,509.5C 346.34,487.739 371.84,470.572 400.5,458C 419.985,450.505 439.985,444.838 460.5,441C 466.833,438.667 473.167,436.333 479.5,434C 481.5,431.333 483.5,428.667 485.5,426C 481.788,420.621 477.121,416.287 471.5,413C 454.002,403.919 436.002,395.919 417.5,389C 385.186,373.422 356.686,352.589 332,326.5C 325.333,319.167 318.667,311.833 312,304.5C 306.333,294.5 300.667,284.5 295,274.5C 292.516,265.233 290.35,255.9 288.5,246.5C 289.62,238.16 290.787,229.827 292,221.5C 297.078,211.01 302.411,200.677 308,190.5C 356.471,131.824 418.304,94.991 493.5,80C 504.684,79.1522 515.684,77.9856 526.5,76.5 Z"/></g>
</svg>
