<?xml version="1.0" encoding="UTF-8"?>
<!DOCTYPE svg PUBLIC "-//W3C//DTD SVG 1.1//EN" "http://www.w3.org/Graphics/SVG/1.1/DTD/svg11.dtd">
<svg xmlns="http://www.w3.org/2000/svg" version="1.1" width="800px" height="800px" style="shape-rendering:geometricPrecision; text-rendering:geometricPrecision; image-rendering:optimizeQuality; fill-rule:evenodd; clip-rule:evenodd" xmlns:xlink="http://www.w3.org/1999/xlink">
<g><path style="opacity:1" fill="#fefefe" d="M -0.5,-0.5 C 266.167,-0.5 532.833,-0.5 799.5,-0.5C 799.5,266.167 799.5,532.833 799.5,799.5C 532.833,799.5 266.167,799.5 -0.5,799.5C -0.5,532.833 -0.5,266.167 -0.5,-0.5 Z"/></g>
<g><path style="opacity:1" fill="#000000" d="M 517.5,1.5 C 565.871,1.69597 614.204,3.19597 662.5,6C 691.332,8.30504 719.665,13.305 747.5,21C 759.737,26.2474 769.903,34.0807 778,44.5C 779.099,47.8637 780.599,51.0304 782.5,54C 781.38,67.3729 775.713,78.3729 765.5,87C 748.675,99.7272 729.675,107.394 708.5,110C 696.539,111.709 684.539,113.042 672.5,114C 616.148,114.046 559.815,114.713 503.5,116C 497.139,118.263 491.306,121.429 486,125.5C 482.214,131.812 480.714,138.645 481.5,146C 483.416,173.515 496.416,193.848 520.5,207C 536.174,213.669 552.508,217.669 569.5,219C 577.5,220 585.5,221 593.5,222C 629.312,222.223 664.978,224.557 700.5,229C 719.315,232.605 737.315,238.605 754.5,247C 764.732,253.9 772.899,262.733 779,273.5C 779.212,276.758 779.712,279.924 780.5,283C 773.389,299.781 761.722,312.448 745.5,321C 733.847,326.248 721.847,330.582 709.5,334C 676.08,339.772 642.414,342.105 608.5,341C 581.933,341.556 556.266,346.556 531.5,356C 518.563,360.939 508.73,369.439 502,381.5C 497.147,390.726 493.48,400.393 491,410.5C 488.343,425.411 486.343,440.411 485,455.5C 485.019,488.868 484.019,522.202 482,555.5C 479.908,580.2 473.908,603.867 464,626.5C 447.565,655.134 423.065,666.634 390.5,661C 365.806,654.491 342.139,645.324 319.5,633.5C 318.228,490.128 320.061,346.794 325,203.5C 326.967,158.395 330.3,113.395 335,68.5C 337.823,58.8726 340.49,49.2059 343,39.5C 346.167,35.6667 349.333,31.8333 352.5,28C 365.967,20.3815 380.3,15.0482 395.5,12C 436.039,5.11051 476.705,1.61051 517.5,1.5 Z"/></g>
</svg>
