<?xml version="1.0" encoding="UTF-8"?>
<!DOCTYPE svg PUBLIC "-//W3C//DTD SVG 1.1//EN" "http://www.w3.org/Graphics/SVG/1.1/DTD/svg11.dtd">
<svg xmlns="http://www.w3.org/2000/svg" version="1.1" width="800px" height="800px" style="shape-rendering:geometricPrecision; text-rendering:geometricPrecision; image-rendering:optimizeQuality; fill-rule:evenodd; clip-rule:evenodd" xmlns:xlink="http://www.w3.org/1999/xlink">
<g><path style="opacity:1" fill="#fefefe" d="M -0.5,-0.5 C 266.167,-0.5 532.833,-0.5 799.5,-0.5C 799.5,266.167 799.5,532.833 799.5,799.5C 532.833,799.5 266.167,799.5 -0.5,799.5C -0.5,532.833 -0.5,266.167 -0.5,-0.5 Z"/></g>
<g><path style="opacity:1" fill="#000000" d="M 518.5,109.5 C 575.297,108.163 631.631,112.663 687.5,123C 702.226,127.131 716.893,131.464 731.5,136C 742.167,142 752.833,148 763.5,154C 770.885,161.929 778.385,169.763 786,177.5C 789.667,186.833 793.333,196.167 797,205.5C 800.297,235.089 796.297,263.756 785,291.5C 775.054,310.442 759.887,323.275 739.5,330C 731.489,330.743 723.489,331.577 715.5,332.5C 696.727,330.119 679.06,324.285 662.5,315C 654.75,310.041 646.917,305.208 639,300.5C 637.733,288.16 636.399,275.826 635,263.5C 631.864,253.759 628.531,244.092 625,234.5C 619.167,228 613.333,221.5 607.5,215C 599.5,211.333 591.5,207.667 583.5,204C 520.46,196.563 460.794,207.563 404.5,237C 373.71,257.457 347.877,282.957 327,313.5C 306.517,343.8 290.851,376.467 280,411.5C 268.45,449.266 271.783,485.6 290,520.5C 296.167,528 302.333,535.5 308.5,543C 347.027,572.972 390.694,591.305 439.5,598C 475.513,602.013 511.179,600.013 546.5,592C 568.884,585.095 590.551,576.428 611.5,566C 615.548,562.284 619.882,558.95 624.5,556C 636.035,542.623 635.035,530.29 621.5,519C 606.328,509.052 589.661,503.052 571.5,501C 545.179,499.908 518.846,499.242 492.5,499C 477.133,498.035 461.799,496.702 446.5,495C 439.854,493.696 435.187,490.03 432.5,484C 435.178,476.305 439.845,469.972 446.5,465C 458.372,455.809 471.706,449.475 486.5,446C 514.014,441.776 541.681,440.443 569.5,442C 607.767,444.489 645.767,449.156 683.5,456C 698.576,461.136 713.576,466.47 728.5,472C 737.333,478.833 746.167,485.667 755,492.5C 758.704,502.072 762.537,511.572 766.5,521C 763.962,532.054 761.795,543.221 760,554.5C 753.667,566.5 747.333,578.5 741,590.5C 732.962,598.87 725.295,607.536 718,616.5C 706.59,625.454 695.09,634.288 683.5,643C 670.167,649.333 656.833,655.667 643.5,662C 587.884,679.379 530.884,687.879 472.5,687.5C 414.46,686.975 356.793,682.142 299.5,673C 280.087,665.529 260.754,657.863 241.5,650C 227.908,638.953 214.408,627.786 201,616.5C 192,600.5 183,584.5 174,568.5C 169.667,547.833 165.333,527.167 161,506.5C 160.828,482.594 160.328,458.761 159.5,435C 162.287,413.251 164.787,391.418 167,369.5C 171.667,350.833 176.333,332.167 181,313.5C 187.862,297.915 194.528,282.248 201,266.5C 209.915,253.672 218.581,240.672 227,227.5C 237.833,216.667 248.667,205.833 259.5,195C 271.345,186.577 283.012,177.91 294.5,169C 336.963,144.403 382.296,127.736 430.5,119C 445.243,117.561 459.909,115.561 474.5,113C 489.325,111.886 503.991,110.719 518.5,109.5 Z"/></g>
</svg>
