<?xml version="1.0" encoding="UTF-8"?>
<!DOCTYPE svg PUBLIC "-//W3C//DTD SVG 1.1//EN" "http://www.w3.org/Graphics/SVG/1.1/DTD/svg11.dtd">
<svg xmlns="http://www.w3.org/2000/svg" version="1.1" width="800px" height="800px" style="shape-rendering:geometricPrecision; text-rendering:geometricPrecision; image-rendering:optimizeQuality; fill-rule:evenodd; clip-rule:evenodd" xmlns:xlink="http://www.w3.org/1999/xlink">
<g><path style="opacity:1" fill="#fefefe" d="M -0.5,-0.5 C 266.167,-0.5 532.833,-0.5 799.5,-0.5C 799.5,266.167 799.5,532.833 799.5,799.5C 532.833,799.5 266.167,799.5 -0.5,799.5C -0.5,532.833 -0.5,266.167 -0.5,-0.5 Z"/></g>
<g><path style="opacity:1" fill="#000000" d="M 642.5,17.5 C 647.356,19.6199 652.356,21.4532 657.5,23C 661.332,25.7503 665.332,28.2503 669.5,30.5C 673.858,35.6901 678.024,41.0234 682,46.5C 684.798,56.5598 687.798,66.5598 691,76.5C 698.987,138.242 701.987,200.242 700,262.5C 698.532,366.474 692.198,470.141 681,573.5C 678.35,595.408 673.35,616.741 666,637.5C 658.441,648.113 648.108,653.447 635,653.5C 586.765,645.598 556.765,617.931 545,570.5C 539.356,545.157 536.689,519.49 537,493.5C 535.369,471.045 531.369,449.045 525,427.5C 521.368,417.723 515.868,409.223 508.5,402C 475.052,378.977 438.386,371.977 398.5,381C 379.978,385.758 363.645,394.425 349.5,407C 339.886,417.296 332.72,429.129 328,442.5C 318.965,470.075 314.298,498.408 314,527.5C 312.025,553.716 306.358,579.049 297,603.5C 293.581,608.668 290.415,614.002 287.5,619.5C 283.015,623.485 278.682,627.651 274.5,632C 269.494,633.445 264.661,635.279 260,637.5C 255.333,632.167 250.667,626.833 246,621.5C 240.074,607.387 234.74,593.054 230,578.5C 214.645,506.034 202.645,433.034 194,359.5C 186.545,290.829 181.378,221.995 178.5,153C 177.995,122.951 180.161,93.1172 185,63.5C 188.724,53.719 192.724,44.0523 197,34.5C 202.253,31.1237 207.42,27.6237 212.5,24C 218.762,22.749 224.929,21.249 231,19.5C 237.747,20.6258 244.581,21.4592 251.5,22C 258.5,24.3333 265.5,26.6667 272.5,29C 280,33.9178 287.667,38.5845 295.5,43C 303.022,49.3564 310.689,55.5231 318.5,61.5C 320.368,108.145 325.201,154.479 333,200.5C 335.427,216.548 340.761,231.548 349,245.5C 353.907,251.078 359.407,255.911 365.5,260C 398.291,274.632 432.624,280.298 468.5,277C 499.821,275.314 522.321,260.481 536,232.5C 544.232,212.68 548.898,192.013 550,170.5C 551.164,148.368 553.497,126.368 557,104.5C 565.071,69.4751 584.238,42.6418 614.5,24C 619.167,22.3333 623.833,20.6667 628.5,19C 633.351,18.8255 638.018,18.3255 642.5,17.5 Z"/></g>
</svg>
