<?xml version="1.0" encoding="UTF-8"?>
<!DOCTYPE svg PUBLIC "-//W3C//DTD SVG 1.1//EN" "http://www.w3.org/Graphics/SVG/1.1/DTD/svg11.dtd">
<svg xmlns="http://www.w3.org/2000/svg" version="1.1" width="800px" height="800px" style="shape-rendering:geometricPrecision; text-rendering:geometricPrecision; image-rendering:optimizeQuality; fill-rule:evenodd; clip-rule:evenodd" xmlns:xlink="http://www.w3.org/1999/xlink">
<g><path style="opacity:1" fill="#fefefe" d="M -0.5,-0.5 C 266.167,-0.5 532.833,-0.5 799.5,-0.5C 799.5,266.167 799.5,532.833 799.5,799.5C 532.833,799.5 266.167,799.5 -0.5,799.5C -0.5,532.833 -0.5,266.167 -0.5,-0.5 Z"/></g>
<g><path style="opacity:1" fill="#000000" d="M 335.5,99.5 C 403.507,99.1834 471.507,99.6834 539.5,101C 579.576,102.842 619.576,105.842 659.5,110C 669.5,112 679.5,114 689.5,116C 699.004,118.822 706.837,123.989 713,131.5C 718.066,140.054 719.733,149.054 718,158.5C 713.304,170.421 705.47,179.588 694.5,186C 677.31,196.512 658.977,204.512 639.5,210C 623.933,214.745 608.266,219.079 592.5,223C 581.398,227.05 570.398,231.383 559.5,236C 552.015,242.241 544.348,248.241 536.5,254C 528.944,263.889 521.778,274.056 515,284.5C 510.667,295.167 506.333,305.833 502,316.5C 499,329.833 496,343.167 493,356.5C 488.364,410.733 486.698,465.066 488,519.5C 488.948,533.205 490.281,546.872 492,560.5C 496.115,572.615 504.281,580.781 516.5,585C 526.928,588.607 537.595,591.274 548.5,593C 577.787,595.542 607.12,597.542 636.5,599C 656.515,601.803 676.181,606.136 695.5,612C 707.398,616.576 716.898,624.076 724,634.5C 728.118,644.751 727.118,654.418 721,663.5C 716.144,669.02 710.644,673.853 704.5,678C 683.665,684.466 662.332,688.466 640.5,690C 595.22,692.895 549.887,694.395 504.5,694.5C 411.706,694.262 319.04,690.762 226.5,684C 198.758,681.481 171.425,676.815 144.5,670C 126.197,661.891 122.363,649.391 133,632.5C 141.833,619.667 152.667,608.833 165.5,600C 231.832,599.5 298.166,599.333 364.5,599.5C 361.153,561.582 359.32,523.582 359,485.5C 358.47,414.159 357.47,342.825 356,271.5C 355.052,257.795 353.719,244.128 352,230.5C 349.766,219.594 343.266,212.427 332.5,209C 314.579,203.534 296.245,200.201 277.5,199C 242.724,199.198 208.39,195.531 174.5,188C 160.074,184.542 147.908,177.375 138,166.5C 127.168,152.221 128.001,138.387 140.5,125C 144.5,122.333 148.5,119.667 152.5,117C 160.108,114.848 167.774,112.848 175.5,111C 192.116,108.626 208.783,106.626 225.5,105C 262.311,102.923 298.978,101.089 335.5,99.5 Z"/></g>
</svg>
