<?xml version="1.0" encoding="UTF-8"?>
<!DOCTYPE svg PUBLIC "-//W3C//DTD SVG 1.1//EN" "http://www.w3.org/Graphics/SVG/1.1/DTD/svg11.dtd">
<svg xmlns="http://www.w3.org/2000/svg" version="1.1" width="800px" height="800px" style="shape-rendering:geometricPrecision; text-rendering:geometricPrecision; image-rendering:optimizeQuality; fill-rule:evenodd; clip-rule:evenodd" xmlns:xlink="http://www.w3.org/1999/xlink">
<g><path style="opacity:1" fill="#fefefe" d="M -0.5,-0.5 C 37.5,-0.5 75.5,-0.5 113.5,-0.5C 107.344,9.13845 101.177,18.8051 95,28.5C 73.0543,71.0354 85.221,97.8687 131.5,109C 141.426,110.859 151.426,112.193 161.5,113C 189.239,112.955 216.906,114.288 244.5,117C 265.416,120.413 284.75,127.746 302.5,139C 306.667,143.167 310.833,147.333 315,151.5C 327.003,174.842 335.003,199.509 339,225.5C 342.314,248.758 344.981,272.091 347,295.5C 351.442,365.434 353.442,435.434 353,505.5C 352.073,516.173 351.073,526.84 350,537.5C 345.107,548.059 337.274,555.559 326.5,560C 313.508,564.333 300.175,566.999 286.5,568C 246.835,570.021 207.168,572.021 167.5,574C 146.751,575.521 126.751,580.188 107.5,588C 102.747,590.458 98.2471,593.292 94,596.5C 88.324,603.844 83.6573,611.844 80,620.5C 77.4723,637.636 82.9723,651.803 96.5,663C 107.761,669.15 119.761,673.15 132.5,675C 159.912,680.257 187.579,683.257 215.5,684C 254.833,684.667 294.167,684.667 333.5,684C 368.723,682.297 403.057,675.963 436.5,665C 449.374,658.805 460.541,650.305 470,639.5C 475.881,627.105 479.881,614.105 482,600.5C 484.621,579.018 486.121,557.518 486.5,536C 485.516,505.89 484.35,475.724 483,445.5C 479.313,396.857 475.979,348.191 473,299.5C 472.333,268.167 472.333,236.833 473,205.5C 474.209,189.362 477.542,173.695 483,158.5C 485.783,154.049 488.95,149.883 492.5,146C 504.734,136.718 518.4,130.385 533.5,127C 544.4,124.461 555.4,122.461 566.5,121C 596.041,120.049 625.375,117.049 654.5,112C 676.384,107.889 695.717,98.7225 712.5,84.5C 713.759,80.6247 715.092,76.7914 716.5,73C 708.087,69.8624 699.754,66.5291 691.5,63C 644.944,52.4915 597.944,44.4915 550.5,39C 405.177,24.0463 259.843,10.8796 114.5,-0.5C 342.833,-0.5 571.167,-0.5 799.5,-0.5C 799.5,266.167 799.5,532.833 799.5,799.5C 532.833,799.5 266.167,799.5 -0.5,799.5C -0.5,532.833 -0.5,266.167 -0.5,-0.5 Z"/></g>
<g><path style="opacity:1" fill="#000000" d="M 113.5,-0.5 C 113.833,-0.5 114.167,-0.5 114.5,-0.5C 259.843,10.8796 405.177,24.0463 550.5,39C 597.944,44.4915 644.944,52.4915 691.5,63C 699.754,66.5291 708.087,69.8624 716.5,73C 715.092,76.7914 713.759,80.6247 712.5,84.5C 695.717,98.7225 676.384,107.889 654.5,112C 625.375,117.049 596.041,120.049 566.5,121C 555.4,122.461 544.4,124.461 533.5,127C 518.4,130.385 504.734,136.718 492.5,146C 488.95,149.883 485.783,154.049 483,158.5C 477.542,173.695 474.209,189.362 473,205.5C 472.333,236.833 472.333,268.167 473,299.5C 475.979,348.191 479.313,396.857 483,445.5C 484.35,475.724 485.516,505.89 486.5,536C 486.121,557.518 484.621,579.018 482,600.5C 479.881,614.105 475.881,627.105 470,639.5C 460.541,650.305 449.374,658.805 436.5,665C 403.057,675.963 368.723,682.297 333.5,684C 294.167,684.667 254.833,684.667 215.5,684C 187.579,683.257 159.912,680.257 132.5,675C 119.761,673.15 107.761,669.15 96.5,663C 82.9723,651.803 77.4723,637.636 80,620.5C 83.6573,611.844 88.324,603.844 94,596.5C 98.2471,593.292 102.747,590.458 107.5,588C 126.751,580.188 146.751,575.521 167.5,574C 207.168,572.021 246.835,570.021 286.5,568C 300.175,566.999 313.508,564.333 326.5,560C 337.274,555.559 345.107,548.059 350,537.5C 351.073,526.84 352.073,516.173 353,505.5C 353.442,435.434 351.442,365.434 347,295.5C 344.981,272.091 342.314,248.758 339,225.5C 335.003,199.509 327.003,174.842 315,151.5C 310.833,147.333 306.667,143.167 302.5,139C 284.75,127.746 265.416,120.413 244.5,117C 216.906,114.288 189.239,112.955 161.5,113C 151.426,112.193 141.426,110.859 131.5,109C 85.221,97.8687 73.0543,71.0354 95,28.5C 101.177,18.8051 107.344,9.13845 113.5,-0.5 Z"/></g>
</svg>
