<?xml version="1.0" encoding="UTF-8"?>
<!DOCTYPE svg PUBLIC "-//W3C//DTD SVG 1.1//EN" "http://www.w3.org/Graphics/SVG/1.1/DTD/svg11.dtd">
<svg xmlns="http://www.w3.org/2000/svg" version="1.1" width="800px" height="800px" style="shape-rendering:geometricPrecision; text-rendering:geometricPrecision; image-rendering:optimizeQuality; fill-rule:evenodd; clip-rule:evenodd" xmlns:xlink="http://www.w3.org/1999/xlink">
<g><path style="opacity:1" fill="#fefefe" d="M -0.5,-0.5 C 266.167,-0.5 532.833,-0.5 799.5,-0.5C 799.5,208.833 799.5,418.167 799.5,627.5C 797.701,621.705 796.201,615.705 795,609.5C 791.081,603.33 787.414,596.997 784,590.5C 770.86,574.694 756.36,560.194 740.5,547C 704.22,519.186 666.22,493.852 626.5,471C 612.833,461.333 599.167,451.667 585.5,442C 576.667,432.5 567.833,423 559,413.5C 553.728,403.289 548.728,392.956 544,382.5C 543.333,372.167 543.333,361.833 544,351.5C 547.471,342.088 551.137,332.754 555,323.5C 561.714,315.788 568.047,307.788 574,299.5C 604.039,272.795 632.039,244.128 658,213.5C 668.853,198.967 678.519,183.634 687,167.5C 688.845,160.455 690.845,153.455 693,146.5C 697.74,123.942 692.574,103.942 677.5,86.5C 667.85,79.5607 657.016,75.894 645,75.5C 619.032,76.4503 594.532,82.9503 571.5,95C 545.646,110.089 520.646,126.423 496.5,144C 462.334,174.841 427,204.175 390.5,232C 379.113,239.695 367.113,246.362 354.5,252C 345.114,254.55 337.947,251.717 333,243.5C 329.202,234.773 326.202,225.773 324,216.5C 322.535,203.847 321.201,191.181 320,178.5C 321.036,145.9 318.703,113.567 313,81.5C 299.617,34.0638 268.451,12.8971 219.5,18C 181.584,25.4172 145.751,38.5839 112,57.5C 111.667,56.5 111.333,55.5 111,54.5C 106.544,199.839 106.544,345.173 111,490.5C 112.258,550.003 118.258,609.003 129,667.5C 133,679.5 137,691.5 141,703.5C 146.258,707.547 151.425,711.713 156.5,716C 172.734,722.768 189.567,726.602 207,727.5C 218.51,726.034 230.01,724.2 241.5,722C 252.837,717.775 263.837,712.775 274.5,707C 289.004,695.492 300.171,681.325 308,664.5C 310.136,657.758 312.469,651.091 315,644.5C 318.333,621.167 321.667,597.833 325,574.5C 328.468,569.066 332.301,563.899 336.5,559C 349.809,552.176 363.809,550.509 378.5,554C 389.167,557 399.833,560 410.5,563C 422.751,568.528 435.084,573.861 447.5,579C 491.571,603.036 536.238,626.036 581.5,648C 614.407,662.525 648.407,673.858 683.5,682C 707.175,685.284 730.842,685.284 754.5,682C 781.865,674.375 796.865,656.541 799.5,628.5C 799.5,685.5 799.5,742.5 799.5,799.5C 532.833,799.5 266.167,799.5 -0.5,799.5C -0.5,532.833 -0.5,266.167 -0.5,-0.5 Z"/></g>
<g><path style="opacity:1" fill="#000000" d="M 799.5,627.5 C 799.5,627.833 799.5,628.167 799.5,628.5C 796.865,656.541 781.865,674.375 754.5,682C 730.842,685.284 707.175,685.284 683.5,682C 648.407,673.858 614.407,662.525 581.5,648C 536.238,626.036 491.571,603.036 447.5,579C 435.084,573.861 422.751,568.528 410.5,563C 399.833,560 389.167,557 378.5,554C 363.809,550.509 349.809,552.176 336.5,559C 332.301,563.899 328.468,569.066 325,574.5C 321.667,597.833 318.333,621.167 315,644.5C 312.469,651.091 310.136,657.758 308,664.5C 300.171,681.325 289.004,695.492 274.5,707C 263.837,712.775 252.837,717.775 241.5,722C 230.01,724.2 218.51,726.034 207,727.5C 189.567,726.602 172.734,722.768 156.5,716C 151.425,711.713 146.258,707.547 141,703.5C 137,691.5 133,679.5 129,667.5C 118.258,609.003 112.258,550.003 111,490.5C 106.544,345.173 106.544,199.839 111,54.5C 111.333,55.5 111.667,56.5 112,57.5C 145.751,38.5839 181.584,25.4172 219.5,18C 268.451,12.8971 299.617,34.0638 313,81.5C 318.703,113.567 321.036,145.9 320,178.5C 321.201,191.181 322.535,203.847 324,216.5C 326.202,225.773 329.202,234.773 333,243.5C 337.947,251.717 345.114,254.55 354.5,252C 367.113,246.362 379.113,239.695 390.5,232C 427,204.175 462.334,174.841 496.5,144C 520.646,126.423 545.646,110.089 571.5,95C 594.532,82.9503 619.032,76.4503 645,75.5C 657.016,75.894 667.85,79.5607 677.5,86.5C 692.574,103.942 697.74,123.942 693,146.5C 690.845,153.455 688.845,160.455 687,167.5C 678.519,183.634 668.853,198.967 658,213.5C 632.039,244.128 604.039,272.795 574,299.5C 568.047,307.788 561.714,315.788 555,323.5C 551.137,332.754 547.471,342.088 544,351.5C 543.333,361.833 543.333,372.167 544,382.5C 548.728,392.956 553.728,403.289 559,413.5C 567.833,423 576.667,432.5 585.5,442C 599.167,451.667 612.833,461.333 626.5,471C 666.22,493.852 704.22,519.186 740.5,547C 756.36,560.194 770.86,574.694 784,590.5C 787.414,596.997 791.081,603.33 795,609.5C 796.201,615.705 797.701,621.705 799.5,627.5 Z"/></g>
</svg>
