<?xml version="1.0" encoding="UTF-8"?>
<!DOCTYPE svg PUBLIC "-//W3C//DTD SVG 1.1//EN" "http://www.w3.org/Graphics/SVG/1.1/DTD/svg11.dtd">
<svg xmlns="http://www.w3.org/2000/svg" version="1.1" width="800px" height="800px" style="shape-rendering:geometricPrecision; text-rendering:geometricPrecision; image-rendering:optimizeQuality; fill-rule:evenodd; clip-rule:evenodd" xmlns:xlink="http://www.w3.org/1999/xlink">
<g><path style="opacity:1" fill="#fefefe" d="M -0.5,-0.5 C 266.167,-0.5 532.833,-0.5 799.5,-0.5C 799.5,266.167 799.5,532.833 799.5,799.5C 532.833,799.5 266.167,799.5 -0.5,799.5C -0.5,532.833 -0.5,266.167 -0.5,-0.5 Z"/></g>
<g><path style="opacity:1" fill="#000000" d="M 259.5,120.5 C 269.889,120.049 279.055,123.049 287,129.5C 298.905,148.431 305.905,169.098 308,191.5C 310.437,206.749 312.104,222.082 313,237.5C 313.985,267.404 315.152,297.237 316.5,327C 313.77,388.776 313.937,450.61 317,512.5C 317.75,537.183 322.083,561.183 330,584.5C 332.708,588.104 336.208,590.604 340.5,592C 358.7,594.931 377.034,596.598 395.5,597C 462.852,597.556 530.186,596.723 597.5,594.5C 625.169,595.595 652.836,596.762 680.5,598C 707.258,598.868 732.925,604.535 757.5,615C 768.834,623.335 776.167,634.335 779.5,648C 778.4,658.311 774.067,666.977 766.5,674C 759.942,678.446 752.942,682.113 745.5,685C 728.317,688.836 710.984,691.836 693.5,694C 640.9,697.937 588.233,700.271 535.5,701C 454.819,701.952 374.152,701.286 293.5,699C 265.685,697.776 238.019,695.109 210.5,691C 206.79,690.105 203.123,689.105 199.5,688C 193.427,682.031 189.26,674.865 187,666.5C 179.51,636.228 174.177,605.562 171,574.5C 167.409,520.533 164.409,466.533 162,412.5C 161.025,334.93 159.858,257.43 158.5,180C 183.23,157.124 210.897,138.457 241.5,124C 247.603,122.682 253.603,121.516 259.5,120.5 Z"/></g>
</svg>
