<?xml version="1.0" encoding="UTF-8"?>
<!DOCTYPE svg PUBLIC "-//W3C//DTD SVG 1.1//EN" "http://www.w3.org/Graphics/SVG/1.1/DTD/svg11.dtd">
<svg xmlns="http://www.w3.org/2000/svg" version="1.1" width="800px" height="800px" style="shape-rendering:geometricPrecision; text-rendering:geometricPrecision; image-rendering:optimizeQuality; fill-rule:evenodd; clip-rule:evenodd" xmlns:xlink="http://www.w3.org/1999/xlink">
<g><path style="opacity:1" fill="#fefefe" d="M -0.5,-0.5 C 266.167,-0.5 532.833,-0.5 799.5,-0.5C 799.5,266.167 799.5,532.833 799.5,799.5C 532.833,799.5 266.167,799.5 -0.5,799.5C -0.5,532.833 -0.5,266.167 -0.5,-0.5 Z"/></g>
<g><path style="opacity:1" fill="#000000" d="M 664.5,12.5 C 683.722,14.3612 699.555,22.6945 712,37.5C 719.822,59.6057 725.489,82.2724 729,105.5C 731,124.167 733,142.833 735,161.5C 741.682,298.063 741.016,434.73 733,571.5C 730.31,603.399 725.977,635.065 720,666.5C 716.667,675.167 713.333,683.833 710,692.5C 706.5,696 703,699.5 699.5,703C 688.493,708.126 676.993,711.292 665,712.5C 638.222,710.404 620.888,696.404 613,670.5C 610.531,662.758 607.864,655.092 605,647.5C 596.169,607.848 589.502,567.848 585,527.5C 580.821,475.278 574.821,423.278 567,371.5C 564.589,358.78 561.923,346.114 559,333.5C 556.54,324.412 552.373,316.245 546.5,309C 544.167,308.333 541.833,308.333 539.5,309C 534.412,312.083 529.912,315.917 526,320.5C 515.92,334.321 506.587,348.655 498,363.5C 479.942,401.288 460.608,438.288 440,474.5C 433.833,480.667 427.667,486.833 421.5,493C 415.521,494.452 409.688,496.285 404,498.5C 398.333,494.833 392.667,491.167 387,487.5C 382,478.5 377,469.5 372,460.5C 362.263,431.881 353.929,402.881 347,373.5C 340.839,353.677 333.505,334.343 325,315.5C 322.548,309.917 318.714,305.584 313.5,302.5C 308.405,305.332 305.238,309.665 304,315.5C 299.721,329.95 296.387,344.617 294,359.5C 285.948,435.788 278.281,512.122 271,588.5C 267.29,621.006 259.957,652.673 249,683.5C 236.17,710.164 215.337,719.997 186.5,713C 167.104,706.97 149.437,697.804 133.5,685.5C 131.518,478.826 130.018,272.159 129,65.5C 150.134,48.3874 173.301,34.554 198.5,24C 205.085,22.359 211.585,20.5257 218,18.5C 234.257,17.9286 248.424,22.9286 260.5,33.5C 271.226,44.7229 281.393,56.3896 291,68.5C 319.259,112.12 345.925,156.787 371,202.5C 379.124,212.959 387.624,223.126 396.5,233C 404,237.918 411.667,242.584 419.5,247C 428.167,247.667 436.833,247.667 445.5,247C 453.288,243.606 460.955,239.939 468.5,236C 476.636,226.863 485.136,218.03 494,209.5C 517.939,171.232 542.272,133.232 567,95.5C 582.944,72.8075 600.444,51.3075 619.5,31C 625.684,25.1566 632.684,20.49 640.5,17C 648.468,14.5178 656.468,13.0178 664.5,12.5 Z"/></g>
</svg>
