<?xml version="1.0" encoding="UTF-8"?>
<!DOCTYPE svg PUBLIC "-//W3C//DTD SVG 1.1//EN" "http://www.w3.org/Graphics/SVG/1.1/DTD/svg11.dtd">
<svg xmlns="http://www.w3.org/2000/svg" version="1.1" width="800px" height="800px" style="shape-rendering:geometricPrecision; text-rendering:geometricPrecision; image-rendering:optimizeQuality; fill-rule:evenodd; clip-rule:evenodd" xmlns:xlink="http://www.w3.org/1999/xlink">
<g><path style="opacity:1" fill="#fefefe" d="M -0.5,-0.5 C 266.167,-0.5 532.833,-0.5 799.5,-0.5C 799.5,266.167 799.5,532.833 799.5,799.5C 532.833,799.5 266.167,799.5 -0.5,799.5C -0.5,532.833 -0.5,266.167 -0.5,-0.5 Z"/></g>
<g><path style="opacity:1" fill="#000000" d="M 268.5,66.5 C 296.321,65.2741 321.987,72.1075 345.5,87C 358.084,96.2466 370.084,106.247 381.5,117C 404.443,140.271 426.276,164.437 447,189.5C 477.65,230.798 507.317,272.798 536,315.5C 551.608,337.043 567.942,358.043 585,378.5C 596.6,391.105 609.1,402.605 622.5,413C 633.008,418.186 641.842,416.019 649,406.5C 653.889,399.172 657.222,391.172 659,382.5C 661.522,370.284 663.188,357.951 664,345.5C 664.869,315.117 666.535,284.784 669,254.5C 671.412,243.108 674.078,231.775 677,220.5C 693.16,179.003 720.993,168.503 760.5,189C 769.632,197.419 776.132,207.586 780,219.5C 782.511,228.546 785.178,237.546 788,246.5C 792.12,271.364 795.12,296.364 797,321.5C 797.667,378.833 797.667,436.167 797,493.5C 795.629,523.516 793.962,553.516 792,583.5C 790.479,605.107 786.145,626.107 779,646.5C 765.16,671.119 743.994,682.785 715.5,681.5C 700.559,681.798 686.559,678.298 673.5,671C 649.981,656.494 628.481,639.327 609,619.5C 577.785,585.963 548.452,550.963 521,514.5C 490.757,470.033 458.09,427.366 423,386.5C 407.1,368.598 389.933,352.098 371.5,337C 365.998,333.415 360.331,330.081 354.5,327C 349.644,326.259 344.811,325.426 340,324.5C 336.558,326.138 333.058,327.638 329.5,329C 321.171,339.492 315.338,351.325 312,364.5C 306.846,385.91 303.179,407.577 301,429.5C 298.923,477.163 296.923,524.83 295,572.5C 293.324,605.559 287.657,637.892 278,669.5C 266.178,702.674 242.678,716.84 207.5,712C 180.792,707.816 155.792,698.816 132.5,685C 140.487,555.652 151.321,426.485 165,297.5C 171.401,248.092 180.068,199.092 191,150.5C 195.864,136.908 200.531,123.241 205,109.5C 220.101,86.2362 241.268,71.9028 268.5,66.5 Z"/></g>
</svg>
