<?xml version="1.0" encoding="UTF-8"?>
<!DOCTYPE svg PUBLIC "-//W3C//DTD SVG 1.1//EN" "http://www.w3.org/Graphics/SVG/1.1/DTD/svg11.dtd">
<svg xmlns="http://www.w3.org/2000/svg" version="1.1" width="800px" height="800px" style="shape-rendering:geometricPrecision; text-rendering:geometricPrecision; image-rendering:optimizeQuality; fill-rule:evenodd; clip-rule:evenodd" xmlns:xlink="http://www.w3.org/1999/xlink">
<g><path style="opacity:1" fill="#fefefe" d="M -0.5,-0.5 C 266.167,-0.5 532.833,-0.5 799.5,-0.5C 799.5,266.167 799.5,532.833 799.5,799.5C 532.833,799.5 266.167,799.5 -0.5,799.5C -0.5,532.833 -0.5,266.167 -0.5,-0.5 Z"/></g>
<g><path style="opacity:1" fill="#000000" d="M 399.5,94.5 C 436.338,97.5012 472.005,105.668 506.5,119C 538.733,134.706 566.899,155.872 591,182.5C 627.106,228.706 653.773,280.04 671,336.5C 682.149,373.093 689.482,410.426 693,448.5C 697.867,505.509 688.534,560.175 665,612.5C 639.248,659.215 599.748,685.715 546.5,692C 531.401,693.115 516.401,692.448 501.5,690C 480.302,681.064 469.469,665.231 469,642.5C 472.566,633.268 479.066,627.101 488.5,624C 496.706,617.462 503.872,609.962 510,601.5C 526.539,572.423 539.206,541.756 548,509.5C 564.985,438.086 551.651,373.086 508,314.5C 486.738,292.276 461.904,275.109 433.5,263C 403.574,249.481 372.241,243.815 339.5,246C 266.906,256.035 220.406,296.202 200,366.5C 185.417,417.373 191.751,465.373 219,510.5C 232.5,526.667 247.333,541.5 263.5,555C 291.819,575.161 320.486,594.827 349.5,614C 359.022,618.593 368.355,623.427 377.5,628.5C 379.817,631.317 382.317,633.984 385,636.5C 386.409,645.413 386.076,654.413 384,663.5C 378.121,676.258 371.955,688.925 365.5,701.5C 357.625,703.117 349.791,704.783 342,706.5C 320.294,700.624 298.46,695.124 276.5,690C 258.246,682.471 239.913,675.138 221.5,668C 206.663,659.081 191.663,650.414 176.5,642C 165.833,632.667 155.167,623.333 144.5,614C 135.544,601.922 126.711,589.755 118,577.5C 82.3183,495.51 77.985,411.843 105,326.5C 118.902,285.359 138.568,247.359 164,212.5C 206.899,159.777 261.066,123.61 326.5,104C 338.5,101.667 350.5,99.3333 362.5,97C 375.013,96.5279 387.347,95.6946 399.5,94.5 Z"/></g>
</svg>
