<?xml version="1.0" encoding="UTF-8"?>
<!DOCTYPE svg PUBLIC "-//W3C//DTD SVG 1.1//EN" "http://www.w3.org/Graphics/SVG/1.1/DTD/svg11.dtd">
<svg xmlns="http://www.w3.org/2000/svg" version="1.1" width="800px" height="800px" style="shape-rendering:geometricPrecision; text-rendering:geometricPrecision; image-rendering:optimizeQuality; fill-rule:evenodd; clip-rule:evenodd" xmlns:xlink="http://www.w3.org/1999/xlink">
<g><path style="opacity:1" fill="#fefefe" d="M -0.5,-0.5 C 266.167,-0.5 532.833,-0.5 799.5,-0.5C 799.5,266.167 799.5,532.833 799.5,799.5C 532.833,799.5 266.167,799.5 -0.5,799.5C -0.5,532.833 -0.5,266.167 -0.5,-0.5 Z"/></g>
<g><path style="opacity:1" fill="#000000" d="M 274.5,0.5 C 324.591,-0.799093 374.257,3.03424 423.5,12C 510.056,31.6732 581.89,75.1732 639,142.5C 651.654,158.853 662.32,176.52 671,195.5C 672.842,203.87 674.842,212.203 677,220.5C 677.667,228.833 677.667,237.167 677,245.5C 674.844,253.124 672.844,260.79 671,268.5C 666.747,275.337 662.747,282.337 659,289.5C 653.167,295.833 647.333,302.167 641.5,308.5C 617.254,326.791 590.587,340.625 561.5,350C 521.171,359.714 480.338,366.547 439,370.5C 412.427,373.587 385.927,374.42 359.5,373C 345.811,372.313 333.477,367.979 322.5,360C 309.937,346.945 309.77,333.778 322,320.5C 340.805,303.68 362.638,292.513 387.5,287C 408.969,282.173 430.302,276.84 451.5,271C 480.817,258.532 491.65,236.698 484,205.5C 470.068,163.567 441.568,137.734 398.5,128C 378.867,124.033 359.034,121.867 339,121.5C 323.707,121.292 308.874,123.792 294.5,129C 284.845,134.101 278.345,141.934 275,152.5C 260.553,202.403 249.553,253.07 242,304.5C 239.749,341.805 239.083,379.139 240,416.5C 244.225,502.852 253.058,588.686 266.5,674C 251.101,684.395 235.435,694.395 219.5,704C 212.422,706.47 205.422,709.137 198.5,712C 162.27,719.635 136.77,706.468 122,672.5C 109.553,628.267 101.22,583.267 97,537.5C 89.4691,418.932 87.1358,300.265 90,181.5C 91.6287,144.955 95.2953,108.621 101,72.5C 103.988,59.1666 109.821,47.3332 118.5,37C 124.5,33 130.5,29 136.5,25C 166.424,13.4366 197.424,6.43661 229.5,4C 244.679,3.15642 259.679,1.98976 274.5,0.5 Z"/></g>
</svg>
