<?xml version="1.0" encoding="UTF-8"?>
<!DOCTYPE svg PUBLIC "-//W3C//DTD SVG 1.1//EN" "http://www.w3.org/Graphics/SVG/1.1/DTD/svg11.dtd">
<svg xmlns="http://www.w3.org/2000/svg" version="1.1" width="800px" height="800px" style="shape-rendering:geometricPrecision; text-rendering:geometricPrecision; image-rendering:optimizeQuality; fill-rule:evenodd; clip-rule:evenodd" xmlns:xlink="http://www.w3.org/1999/xlink">
<g><path style="opacity:1" fill="#fefefe" d="M -0.5,-0.5 C 266.167,-0.5 532.833,-0.5 799.5,-0.5C 799.5,266.167 799.5,532.833 799.5,799.5C 532.833,799.5 266.167,799.5 -0.5,799.5C -0.5,532.833 -0.5,266.167 -0.5,-0.5 Z"/></g>
<g><path style="opacity:1" fill="#000000" d="M 411.5,51.5 C 429.497,52.0269 447.497,52.5269 465.5,53C 482.481,55.5212 499.481,57.8545 516.5,60C 533.545,64.8447 550.545,69.8447 567.5,75C 580.5,81.3333 593.5,87.6667 606.5,94C 619.618,103.45 632.451,113.283 645,123.5C 655.333,135.833 665.667,148.167 676,160.5C 683.667,173.833 691.333,187.167 699,200.5C 704.333,215.167 709.667,229.833 715,244.5C 717.597,260.349 720.097,276.183 722.5,292C 719.737,305.409 717.237,318.909 715,332.5C 709,345.167 703,357.833 697,370.5C 678.458,391.929 661.125,414.262 645,437.5C 641.538,448.335 639.205,459.335 638,470.5C 640.333,478.833 642.667,487.167 645,495.5C 652.716,504.427 660.549,513.261 668.5,522C 699.883,541.053 729.883,562.053 758.5,585C 763.333,591.167 768.167,597.333 773,603.5C 774.273,608.432 775.773,613.265 777.5,618C 775.833,624.692 772.5,630.359 767.5,635C 764.947,635.761 762.447,636.594 760,637.5C 757.246,635.873 754.412,634.373 751.5,633C 744.5,626 737.5,619 730.5,612C 716.172,602.167 701.505,592.834 686.5,584C 652.835,567.891 618.835,552.558 584.5,538C 535.042,515.372 490.876,485.205 452,447.5C 448.045,441.877 443.712,436.543 439,431.5C 438.43,427.24 437.597,423.074 436.5,419C 440.773,416.577 445.273,414.743 450,413.5C 468.951,414.016 487.784,415.85 506.5,419C 529.114,422.137 551.447,420.803 573.5,415C 580.342,411.078 587.342,407.412 594.5,404C 600.762,398.282 606.929,392.449 613,386.5C 616.667,378.833 620.333,371.167 624,363.5C 625.156,353.519 625.489,343.519 625,333.5C 623.128,324.471 621.128,315.471 619,306.5C 598.438,263.862 570.938,226.362 536.5,194C 526.659,187.58 516.993,180.913 507.5,174C 493.912,168.471 480.246,163.137 466.5,158C 451.507,156.137 436.507,154.304 421.5,152.5C 406.149,153.836 390.815,155.336 375.5,157C 361.5,161.333 347.5,165.667 333.5,170C 322.167,177.333 310.833,184.667 299.5,192C 290.881,202.074 282.381,212.241 274,222.5C 267.808,234.747 261.808,247.08 256,259.5C 244.756,302.12 239.756,345.453 241,389.5C 242.645,430.411 251.978,469.411 269,506.5C 278.803,517.304 288.97,527.804 299.5,538C 313.5,546.333 327.5,554.667 341.5,563C 360.833,569 380.167,575 399.5,581C 421.556,584.847 443.556,589.014 465.5,593.5C 480.447,590.674 495.447,588.174 510.5,586C 518.5,585.333 526.5,585.333 534.5,586C 538.71,587.636 543.044,588.803 547.5,589.5C 548.337,593.176 549.67,596.676 551.5,600C 548.947,604.987 546.781,610.154 545,615.5C 538.793,621.375 532.293,626.875 525.5,632C 506.366,642.823 486.032,650.49 464.5,655C 426.537,663.203 388.204,668.703 349.5,671.5C 335.834,670.976 322.168,670.476 308.5,670C 293.5,667 278.5,664 263.5,661C 249.899,655.532 236.566,649.532 223.5,643C 215.123,635.621 206.456,628.621 197.5,622C 188.333,610.833 179.167,599.667 170,588.5C 148.043,549.906 134.043,508.573 128,464.5C 123.627,414.528 124.627,364.528 131,314.5C 136.617,272.647 146.95,231.98 162,192.5C 168.333,181.5 174.667,170.5 181,159.5C 190.05,149.239 199.216,139.072 208.5,129C 219.167,120.667 229.833,112.333 240.5,104C 279.746,81.0474 321.746,65.3808 366.5,57C 381.655,55.215 396.655,53.3817 411.5,51.5 Z"/></g>
</svg>
