<?xml version="1.0" standalone="no"?>
<!DOCTYPE svg PUBLIC "-//W3C//DTD SVG 20010904//EN"
 "http://www.w3.org/TR/2001/REC-SVG-20010904/DTD/svg10.dtd">
<svg version="1.0" xmlns="http://www.w3.org/2000/svg"
 width="800.000000pt" height="800.000000pt" viewBox="0 0 800.000000 800.000000"
 preserveAspectRatio="xMidYMid meet">

<g transform="translate(0.000000,800.000000) scale(0.100000,-0.100000)"
fill="#000000" stroke="none">
<path d="M1140 4569 l0 -3426 99 -66 c177 -118 383 -207 511 -221 203 -24 337
7 450 103 60 51 70 65 117 171 108 239 173 580 214 1115 23 310 48 1020 49
1410 1 393 26 1121 50 1435 22 302 70 633 129 890 31 138 51 201 95 300 50
109 65 134 124 193 112 113 255 185 464 233 153 34 405 35 599 0 309 -56 455
-118 566 -244 126 -141 165 -274 143 -486 -17 -165 -56 -316 -110 -432 -166
-355 -351 -554 -660 -709 -232 -117 -366 -248 -406 -398 -33 -126 39 -299 220
-532 81 -104 276 -339 419 -505 315 -365 1052 -1116 1412 -1441 93 -84 328
-267 455 -356 243 -169 379 -222 570 -223 151 0 245 37 291 114 32 54 39 87
39 171 0 159 -37 269 -202 600 -120 239 -205 377 -437 705 -289 408 -457 662
-518 784 -69 137 -136 302 -158 386 -33 124 0 299 89 486 59 123 218 387 328
541 271 386 341 512 390 708 107 424 29 933 -207 1356 -127 227 -341 432 -571
547 -219 108 -438 147 -979 172 -344 16 -1403 32 -2538 39 l-1037 6 0 -3426z"/>
</g>
</svg>
