<?xml version="1.0" standalone="no"?>
<!DOCTYPE svg PUBLIC "-//W3C//DTD SVG 20010904//EN"
 "http://www.w3.org/TR/2001/REC-SVG-20010904/DTD/svg10.dtd">
<svg version="1.0" xmlns="http://www.w3.org/2000/svg"
 width="800.000000pt" height="800.000000pt" viewBox="0 0 800.000000 800.000000"
 preserveAspectRatio="xMidYMid meet">

<g transform="translate(0.000000,800.000000) scale(0.100000,-0.100000)"
fill="#000000" stroke="none">
<path d="M4770 7869 c-822 -19 -1380 -105 -1850 -285 -180 -68 -244 -99 -392
-185 -146 -86 -204 -127 -328 -234 -132 -113 -168 -152 -284 -300 -117 -150
-145 -193 -233 -365 -135 -261 -211 -486 -248 -735 -24 -160 -25 -179 -15
-330 l10 -160 56 -136 c49 -121 65 -148 147 -252 75 -95 114 -133 212 -209 66
-51 172 -121 235 -156 588 -322 1211 -591 2130 -917 379 -135 551 -216 805
-380 93 -60 200 -163 232 -221 l22 -41 -40 -55 c-39 -52 -48 -58 -187 -122
-392 -177 -1346 -404 -2645 -627 l-488 -84 -139 -133 c-202 -193 -290 -326
-290 -440 0 -166 91 -246 370 -325 233 -65 606 -95 1300 -104 708 -9 1021 16
1645 133 915 171 1725 485 2150 834 139 114 142 116 225 250 78 124 88 146
125 275 l40 140 -11 160 c-10 158 -11 162 -69 324 -52 144 -71 184 -164 335
-222 359 -493 630 -903 904 -339 227 -879 480 -1453 682 -326 115 -638 251
-862 376 -126 71 -178 107 -256 178 -83 75 -104 101 -138 167 -43 86 -45 103
-25 196 12 56 21 71 86 143 138 153 318 239 650 311 l145 31 295 -6 c330 -6
518 -26 1045 -111 154 -25 422 -68 595 -95 173 -28 428 -70 565 -94 405 -72
435 -76 571 -75 169 0 208 7 274 48 46 29 59 44 82 95 75 165 2 450 -189 741
-91 140 -201 248 -358 353 -368 245 -862 400 -1520 474 -222 25 -575 35 -925
27z"/>
</g>
</svg>
