<?xml version="1.0" standalone="no"?>
<!DOCTYPE svg PUBLIC "-//W3C//DTD SVG 20010904//EN"
 "http://www.w3.org/TR/2001/REC-SVG-20010904/DTD/svg10.dtd">
<svg version="1.0" xmlns="http://www.w3.org/2000/svg"
 width="800.000000pt" height="800.000000pt" viewBox="0 0 800.000000 800.000000"
 preserveAspectRatio="xMidYMid meet">

<g transform="translate(0.000000,800.000000) scale(0.100000,-0.100000)"
fill="#000000" stroke="none">
<path d="M1066 7885 c-106 -159 -122 -189 -172 -332 -44 -122 -46 -132 -41
-214 6 -121 39 -191 126 -270 73 -66 166 -115 281 -148 117 -33 394 -59 690
-65 500 -11 764 -63 990 -197 36 -21 84 -55 108 -76 38 -33 46 -48 64 -118 29
-115 20 -243 -33 -435 -68 -253 -288 -770 -485 -1143 -214 -407 -1247 -2235
-1494 -2648 -210 -349 -236 -405 -247 -525 -16 -189 83 -355 248 -416 116 -42
206 -66 350 -92 230 -42 439 -51 1104 -51 665 1 595 -3 1055 66 268 40 462
102 660 211 109 61 176 128 249 256 142 244 224 659 271 1357 17 256 19 408
20 1300 0 918 2 1033 20 1255 40 493 64 645 130 817 60 157 194 268 405 336
200 64 332 84 607 92 409 11 623 43 774 117 153 75 203 125 262 258 56 125 72
206 57 279 -9 46 -17 60 -44 78 -19 13 -43 23 -55 23 -12 0 -129 11 -261 25
-132 14 -406 37 -610 50 -203 14 -525 36 -715 50 -712 51 -1410 96 -2111 135
-398 23 -1040 62 -1427 88 l-703 47 -73 -110z"/>
</g>
</svg>
