<?xml version="1.0" standalone="no"?>
<!DOCTYPE svg PUBLIC "-//W3C//DTD SVG 20010904//EN"
 "http://www.w3.org/TR/2001/REC-SVG-20010904/DTD/svg10.dtd">
<svg version="1.0" xmlns="http://www.w3.org/2000/svg"
 width="800.000000pt" height="800.000000pt" viewBox="0 0 800.000000 800.000000"
 preserveAspectRatio="xMidYMid meet">

<g transform="translate(0.000000,800.000000) scale(0.100000,-0.100000)"
fill="#000000" stroke="none">
<path d="M6190 7846 c-136 -39 -236 -136 -294 -286 -56 -144 -119 -446 -140
-670 -32 -329 -56 -1049 -56 -1645 0 -389 -24 -826 -70 -1280 -23 -222 -98
-571 -152 -706 -80 -199 -244 -382 -423 -471 -100 -50 -167 -61 -346 -56 -163
5 -165 5 -304 51 -120 40 -158 58 -260 125 -254 166 -410 356 -506 614 -79
214 -138 531 -168 903 -37 457 -40 526 -46 1130 -6 711 -22 1024 -75 1520 -32
292 -124 565 -221 652 -104 94 -219 108 -414 50 -107 -31 -204 -79 -322 -159
-86 -57 -218 -150 -230 -162 -2 -1 -28 -121 -58 -266 l-55 -264 35 -530 c72
-1079 173 -1904 316 -2595 88 -426 197 -794 329 -1115 79 -192 103 -239 195
-380 99 -153 111 -167 219 -260 138 -119 106 -96 366 -256 236 -146 377 -217
575 -290 328 -120 476 -150 761 -158 423 -10 685 64 1038 296 231 152 451 406
590 680 144 285 262 773 347 1442 74 582 112 1997 74 2720 -36 688 -127 1098
-274 1236 -20 19 -76 56 -126 83 -82 45 -97 50 -175 55 -56 3 -100 1 -130 -8z"/>
</g>
</svg>
