<?xml version="1.0" standalone="no"?>
<!DOCTYPE svg PUBLIC "-//W3C//DTD SVG 20010904//EN"
 "http://www.w3.org/TR/2001/REC-SVG-20010904/DTD/svg10.dtd">
<svg version="1.0" xmlns="http://www.w3.org/2000/svg"
 width="800.000000pt" height="800.000000pt" viewBox="0 0 800.000000 800.000000"
 preserveAspectRatio="xMidYMid meet">

<g transform="translate(0.000000,800.000000) scale(0.100000,-0.100000)"
fill="#000000" stroke="none">
<path d="M1239 6960 c-67 -35 -122 -99 -154 -181 -60 -152 -60 -529 1 -914
l25 -160 253 -460 c140 -253 334 -608 431 -790 390 -726 1054 -1884 1420
-2475 485 -783 642 -1016 854 -1263 196 -228 445 -378 686 -412 113 -16 298 3
400 41 502 189 769 455 1146 1144 128 234 292 612 459 1060 107 286 332 1009
404 1297 174 693 218 923 241 1258 22 323 20 408 -14 560 -41 182 -83 286
-151 366 -70 82 -171 148 -265 172 -92 23 -245 22 -377 -3 -347 -65 -596 -277
-798 -679 -100 -201 -175 -451 -365 -1231 -57 -234 -126 -500 -154 -591 -28
-91 -70 -235 -95 -320 -75 -258 -160 -492 -218 -602 -17 -32 -56 -80 -85 -108
-54 -49 -55 -49 -122 -49 -75 0 -88 6 -170 84 -53 51 -189 242 -231 326 -12
25 -56 104 -97 175 -172 298 -313 568 -658 1263 -414 833 -515 1014 -734 1322
-348 489 -791 893 -1206 1103 -198 100 -324 120 -426 67z"/>
</g>
</svg>
