<?xml version="1.0" standalone="no"?>
<!DOCTYPE svg PUBLIC "-//W3C//DTD SVG 20010904//EN"
 "http://www.w3.org/TR/2001/REC-SVG-20010904/DTD/svg10.dtd">
<svg version="1.0" xmlns="http://www.w3.org/2000/svg"
 width="800.000000pt" height="800.000000pt" viewBox="0 0 800.000000 800.000000"
 preserveAspectRatio="xMidYMid meet">

<g transform="translate(0.000000,800.000000) scale(0.100000,-0.100000)"
fill="#000000" stroke="none">
<path d="M6455 7661 c-253 -56 -462 -247 -612 -561 -71 -146 -113 -257 -293
-770 -202 -574 -294 -774 -433 -943 -46 -56 -120 -97 -175 -97 -64 0 -131 60
-229 205 -43 65 -115 198 -370 685 -330 628 -387 724 -492 818 l-79 72 -75 0
-74 0 -70 -78 c-63 -69 -77 -93 -131 -220 -34 -79 -82 -209 -108 -290 -79
-250 -240 -629 -345 -809 -123 -211 -310 -383 -417 -383 -45 0 -95 33 -125 82
-32 53 -268 632 -407 998 -43 113 -111 275 -152 360 -215 447 -385 658 -616
766 -87 41 -99 44 -178 44 -79 0 -90 -3 -162 -40 -69 -35 -83 -47 -133 -117
-71 -100 -145 -283 -197 -493 l-38 -155 301 -2060 302 -2060 68 -135 c37 -74
99 -179 138 -233 59 -81 84 -106 147 -146 68 -45 82 -50 150 -56 73 -6 78 -5
160 33 153 71 284 199 474 462 113 156 213 334 411 729 263 528 352 685 533
951 100 147 205 281 316 404 63 68 96 96 148 122 93 47 145 47 203 0 35 -29
48 -51 77 -128 20 -51 44 -120 53 -153 10 -33 39 -114 65 -180 118 -296 243
-536 503 -969 248 -414 438 -802 506 -1036 12 -41 38 -119 59 -173 33 -89 42
-102 87 -137 31 -24 73 -44 110 -54 56 -14 64 -14 141 5 54 14 113 39 175 75
79 45 110 71 192 161 95 104 102 115 191 299 80 163 105 229 179 465 110 352
221 836 321 1409 95 542 253 1672 296 2115 68 703 76 912 39 1025 -31 92 -80
154 -143 179 -74 29 -193 34 -291 12z"/>
</g>
</svg>
