<?xml version="1.0" standalone="no"?>
<!DOCTYPE svg PUBLIC "-//W3C//DTD SVG 20010904//EN"
 "http://www.w3.org/TR/2001/REC-SVG-20010904/DTD/svg10.dtd">
<svg version="1.0" xmlns="http://www.w3.org/2000/svg"
 width="800.000000pt" height="800.000000pt" viewBox="0 0 800.000000 800.000000"
 preserveAspectRatio="xMidYMid meet">

<g transform="translate(0.000000,800.000000) scale(0.100000,-0.100000)"
fill="#000000" stroke="none">
<path d="M7225 7744 c-233 -25 -456 -139 -682 -352 -187 -175 -350 -385 -646
-832 -438 -662 -709 -982 -994 -1171 -69 -46 -99 -60 -165 -74 -175 -38 -300
8 -449 162 -41 43 -241 272 -444 508 -684 797 -1007 1138 -1295 1369 -138 111
-191 146 -325 216 -157 83 -162 85 -300 110 -139 25 -141 25 -270 9 -168 -20
-288 -66 -388 -148 -57 -47 -75 -70 -113 -143 -36 -72 -47 -106 -59 -190 l-16
-103 41 -135 c35 -117 53 -156 137 -300 114 -195 321 -463 538 -695 402 -428
1062 -1078 1554 -1530 262 -240 286 -265 318 -329 34 -67 35 -72 28 -145 -5
-57 -16 -93 -42 -146 -41 -82 -67 -113 -313 -380 -279 -302 -492 -546 -1120
-1280 -465 -545 -578 -682 -601 -734 l-30 -64 40 -197 c39 -193 42 -201 110
-336 l70 -139 92 -72 92 -73 133 0 c132 0 132 0 266 47 253 90 577 301 807
526 142 140 309 331 466 532 60 77 152 192 205 255 125 151 249 311 335 435
168 240 264 315 406 315 68 0 75 -2 158 -52 77 -46 147 -112 686 -648 330
-328 661 -648 735 -711 292 -249 512 -375 750 -428 l115 -26 105 16 c153 24
258 68 351 149 99 85 189 219 247 365 l44 110 -2 132 -1 131 -62 139 c-53 119
-78 159 -177 288 -121 159 -185 221 -610 596 -491 432 -738 680 -942 940 -139
180 -187 350 -136 489 25 68 103 191 223 350 107 141 298 431 625 945 532 835
758 1245 871 1583 58 174 58 174 59 300 1 124 1 129 -32 204 -22 50 -52 96
-85 131 -45 47 -59 55 -124 73 -67 17 -84 18 -184 8z"/>
</g>
</svg>
