<?xml version="1.0" standalone="no"?>
<!DOCTYPE svg PUBLIC "-//W3C//DTD SVG 20010904//EN"
 "http://www.w3.org/TR/2001/REC-SVG-20010904/DTD/svg10.dtd">
<svg version="1.0" xmlns="http://www.w3.org/2000/svg"
 width="800.000000pt" height="800.000000pt" viewBox="0 0 800.000000 800.000000"
 preserveAspectRatio="xMidYMid meet">

<g transform="translate(0.000000,800.000000) scale(0.100000,-0.100000)"
fill="#000000" stroke="none">
<path d="M7275 7399 c-44 -4 -107 -14 -140 -22 -67 -16 -186 -82 -273 -152
-125 -100 -267 -294 -376 -512 -82 -165 -297 -516 -375 -613 -113 -140 -274
-297 -377 -367 -125 -85 -224 -123 -339 -130 -126 -8 -152 7 -335 192 -251
255 -530 478 -1119 900 -222 158 -669 437 -791 492 -265 120 -373 149 -480
128 -185 -37 -270 -199 -270 -512 0 -206 101 -416 334 -692 177 -209 489 -491
976 -881 695 -555 1033 -937 1070 -1208 10 -71 8 -90 -10 -160 -41 -162 -145
-370 -276 -553 -227 -317 -634 -755 -946 -1018 -121 -102 -153 -124 -246 -165
-105 -47 -108 -48 -197 -44 -84 3 -97 6 -195 54 -126 61 -202 126 -304 264
-81 108 -200 333 -250 472 -64 176 -134 303 -261 469 -77 102 -248 220 -370
255 l-71 20 -62 -20 c-52 -18 -69 -30 -107 -76 -84 -102 -138 -346 -150 -680
l-6 -175 306 -370 c169 -203 394 -485 500 -625 354 -469 601 -722 835 -857
101 -59 127 -69 220 -88 l105 -21 97 41 c89 38 106 50 225 161 482 448 1447
1701 2575 3344 984 1433 1415 2149 1560 2591 l54 164 -20 81 c-25 94 -72 162
-151 215 -122 82 -222 109 -360 98z"/>
</g>
</svg>
