<?xml version="1.0" standalone="no"?>
<!DOCTYPE svg PUBLIC "-//W3C//DTD SVG 20010904//EN"
 "http://www.w3.org/TR/2001/REC-SVG-20010904/DTD/svg10.dtd">
<svg version="1.0" xmlns="http://www.w3.org/2000/svg"
 width="800.000000pt" height="800.000000pt" viewBox="0 0 800.000000 800.000000"
 preserveAspectRatio="xMidYMid meet">

<g transform="translate(0.000000,800.000000) scale(0.100000,-0.100000)"
fill="#000000" stroke="none">
<path d="M6065 7903 c-375 -7 -850 -28 -1170 -53 -1564 -123 -1581 -124 -2360
-124 -592 1 -725 3 -932 20 l-242 20 -65 -146 c-131 -291 -206 -546 -206 -700
0 -194 49 -278 198 -338 126 -51 268 -72 488 -72 390 -2 802 40 1609 161 415
62 990 107 1234 96 224 -10 332 -56 394 -165 39 -70 41 -139 7 -242 -27 -85
-81 -160 -269 -380 -317 -371 -597 -664 -1697 -1775 -940 -948 -1654 -1651
-1959 -1926 -224 -202 -336 -315 -360 -364 -27 -55 -25 -170 5 -245 39 -99 85
-162 159 -219 193 -150 642 -236 1471 -281 468 -25 1698 -28 2145 -5 1018 53
1432 131 1655 313 103 84 150 201 120 297 -44 145 -246 295 -490 363 -370 104
-628 133 -1340 147 -338 7 -553 27 -710 66 -143 35 -224 70 -272 117 -37 35
-38 39 -38 104 0 61 5 78 46 160 143 285 612 896 1415 1843 1352 1596 1510
1785 1855 2230 269 348 330 442 380 589 31 89 31 150 1 215 -87 187 -319 275
-767 290 -107 3 -245 5 -305 4z"/>
</g>
</svg>
