<svg id="svg" version="1.1" xmlns="http://www.w3.org/2000/svg" xmlns:xlink="http://www.w3.org/1999/xlink" width="400" height="400" viewBox="0, 0, 400,400"><g id="svgg"><path id="path0" d="M221.600 1.549 C 219.290 1.907,217.220 2.313,217.000 2.451 C 216.780 2.589,215.520 3.004,214.200 3.373 C 212.880 3.742,211.233 4.304,210.540 4.622 C 209.846 4.940,209.070 5.200,208.814 5.200 C 208.559 5.200,207.416 5.634,206.275 6.165 C 205.134 6.696,202.975 7.681,201.479 8.354 C 198.503 9.692,188.978 15.383,188.000 16.407 C 187.890 16.522,186.094 17.873,184.008 19.408 C 181.923 20.944,179.925 22.470,179.568 22.800 C 179.212 23.130,178.488 23.747,177.960 24.170 C 163.521 35.756,138.226 64.032,125.518 82.793 C 125.142 83.347,123.828 85.150,122.597 86.800 C 119.262 91.270,112.660 101.267,105.427 112.800 C 99.644 122.022,93.982 135.139,92.824 142.000 C 91.736 148.445,92.350 151.742,95.285 155.208 C 95.568 155.543,96.947 156.493,98.348 157.320 L 100.897 158.823 107.719 158.822 C 114.131 158.820,120.500 158.239,121.400 157.573 C 121.620 157.411,124.230 156.978,127.200 156.612 C 130.170 156.245,132.913 155.778,133.295 155.573 C 134.213 155.080,145.015 155.091,145.905 155.586 C 146.287 155.798,148.040 156.245,149.800 156.579 C 157.834 158.103,171.104 168.151,173.599 174.600 C 173.769 175.040,174.574 176.750,175.387 178.400 C 181.938 191.688,184.239 206.317,183.894 232.473 C 183.528 260.152,178.882 279.100,169.226 292.295 C 168.222 293.667,166.860 295.531,166.200 296.437 C 161.788 302.494,146.238 312.000,140.739 312.000 C 140.201 312.000,139.589 312.162,139.380 312.359 C 138.680 313.020,130.816 314.000,126.208 314.000 C 123.599 314.000,121.541 314.171,121.400 314.400 C 121.260 314.626,119.311 314.800,116.921 314.800 C 111.844 314.800,102.695 315.851,100.940 316.636 C 100.246 316.946,99.377 317.200,99.007 317.200 C 97.582 317.200,87.972 320.927,85.600 322.399 C 85.270 322.604,83.641 323.593,81.979 324.596 C 70.264 331.671,62.282 347.893,61.457 366.300 L 61.256 370.800 112.328 370.808 C 162.924 370.817,201.955 370.286,203.295 369.571 C 203.677 369.367,205.567 369.205,207.495 369.212 C 215.835 369.239,260.674 367.895,261.400 367.596 C 261.840 367.414,269.940 366.967,279.400 366.601 C 288.860 366.236,296.960 365.785,297.400 365.600 C 297.840 365.415,303.330 364.956,309.600 364.580 C 315.870 364.204,321.171 363.740,321.380 363.548 C 321.589 363.357,322.669 363.202,323.780 363.204 C 326.883 363.209,339.698 361.983,340.600 361.594 C 341.040 361.404,344.629 360.962,348.575 360.611 C 352.522 360.260,355.942 359.821,356.175 359.635 C 356.409 359.448,358.850 358.983,361.600 358.600 C 364.350 358.217,366.780 357.769,367.000 357.605 C 367.220 357.441,368.390 357.188,369.600 357.043 C 372.615 356.681,376.111 355.935,376.630 355.543 C 376.866 355.365,378.383 354.940,380.000 354.600 C 381.617 354.260,383.134 353.829,383.370 353.643 C 383.607 353.457,384.520 353.185,385.400 353.039 C 388.049 352.601,396.363 348.358,396.646 347.300 C 396.778 346.805,397.031 346.400,397.208 346.400 C 399.407 346.400,399.597 335.793,397.434 333.800 C 397.195 333.580,396.730 332.873,396.400 332.228 C 396.070 331.584,394.945 330.119,393.900 328.972 C 392.855 327.826,392.000 326.688,392.000 326.444 C 392.000 326.200,391.794 326.000,391.541 326.000 C 391.289 326.000,390.314 325.370,389.374 324.600 C 388.434 323.830,387.489 323.200,387.273 323.200 C 387.058 323.200,385.855 322.660,384.600 322.000 C 383.345 321.340,381.988 320.800,381.583 320.800 C 381.178 320.800,380.756 320.652,380.645 320.472 C 380.533 320.292,379.038 319.801,377.321 319.382 C 375.604 318.963,374.110 318.508,374.000 318.370 C 373.692 317.984,368.070 316.800,366.546 316.800 C 365.800 316.800,364.877 316.627,364.495 316.415 C 363.609 315.924,349.825 314.798,344.724 314.799 C 342.570 314.800,340.737 314.622,340.600 314.400 C 340.457 314.169,338.315 314.000,335.534 314.000 C 331.001 314.000,326.482 313.287,325.400 312.401 C 325.180 312.221,323.922 311.793,322.604 311.450 C 321.287 311.107,320.147 310.640,320.071 310.413 C 319.995 310.186,319.705 310.000,319.427 310.000 C 319.148 310.000,318.218 309.504,317.360 308.898 C 316.502 308.291,315.261 307.526,314.602 307.198 C 312.842 306.320,303.374 296.978,302.510 295.267 C 302.103 294.460,301.237 292.990,300.586 292.000 C 299.035 289.641,297.945 287.657,296.194 284.000 C 295.403 282.350,294.316 280.145,293.778 279.100 C 293.240 278.055,292.800 277.020,292.800 276.801 C 292.800 276.582,292.260 275.259,291.600 273.862 C 290.940 272.465,290.399 271.070,290.398 270.761 C 290.396 270.453,290.145 269.721,289.840 269.136 C 289.535 268.551,288.985 266.841,288.618 265.336 C 288.251 263.831,287.706 262.060,287.406 261.400 C 287.105 260.740,286.651 259.300,286.396 258.200 C 286.142 257.100,285.777 255.840,285.587 255.400 C 285.396 254.960,284.948 252.620,284.591 250.200 C 284.234 247.780,283.794 245.517,283.613 245.172 C 283.431 244.827,282.972 242.217,282.592 239.372 C 282.211 236.527,281.753 233.840,281.574 233.400 C 281.394 232.960,280.956 229.810,280.599 226.400 C 280.243 222.990,279.783 219.889,279.578 219.509 C 279.372 219.128,278.918 214.448,278.568 209.109 C 278.219 203.769,277.748 199.056,277.523 198.636 C 277.105 197.857,276.719 179.942,276.179 136.400 C 276.025 123.970,275.767 113.620,275.605 113.400 C 275.444 113.180,275.000 108.230,274.619 102.400 C 274.238 96.570,273.774 91.440,273.589 91.000 C 273.403 90.560,272.954 85.970,272.590 80.800 C 272.227 75.630,271.776 71.040,271.588 70.600 C 271.400 70.160,270.955 67.910,270.600 65.600 C 270.245 63.290,269.795 61.040,269.600 60.600 C 269.405 60.160,268.945 57.910,268.577 55.600 C 268.210 53.290,267.771 51.220,267.602 51.000 C 267.434 50.780,266.977 48.890,266.587 46.800 C 266.197 44.710,265.745 42.820,265.584 42.600 C 265.423 42.380,265.169 41.390,265.021 40.400 C 264.725 38.424,264.204 36.736,263.416 35.200 C 263.134 34.650,262.677 33.480,262.399 32.600 C 262.122 31.720,261.751 30.816,261.574 30.590 C 261.397 30.365,260.955 29.285,260.591 28.190 C 259.604 25.214,254.915 16.046,253.550 14.421 C 252.893 13.639,252.006 12.580,251.578 12.066 C 251.150 11.552,250.800 10.980,250.800 10.795 C 250.800 10.610,250.350 10.104,249.800 9.671 C 249.250 9.239,248.800 8.706,248.800 8.488 C 248.800 8.270,248.170 7.792,247.400 7.427 C 246.630 7.061,246.000 6.599,246.000 6.400 C 246.000 6.201,245.386 5.746,244.636 5.390 C 243.886 5.035,242.958 4.396,242.574 3.972 C 242.190 3.547,241.589 3.199,241.238 3.198 C 240.887 3.196,240.083 2.925,239.451 2.596 C 235.872 0.729,229.358 0.347,221.600 1.549 " stroke="none" fill="#040404" fill-rule="evenodd"></path><path id="path1" d="M0.000 200.000 L 0.000 400.000 200.000 400.000 L 400.000 400.000 400.000 200.000 L 400.000 0.000 200.000 0.000 L 0.000 0.000 0.000 200.000 M235.754 0.881 C 236.659 1.145,237.490 1.476,237.600 1.616 C 237.710 1.756,238.682 2.089,239.761 2.356 C 240.839 2.624,242.365 3.373,243.152 4.021 C 243.939 4.669,244.811 5.200,245.091 5.200 C 245.371 5.200,245.600 5.354,245.600 5.542 C 245.600 5.730,246.365 6.375,247.300 6.976 C 248.235 7.576,249.540 8.789,250.200 9.670 C 250.860 10.552,251.805 11.682,252.300 12.182 C 252.795 12.683,253.200 13.265,253.200 13.476 C 253.200 13.688,253.636 14.270,254.168 14.770 C 254.700 15.270,255.365 16.246,255.645 16.940 C 255.925 17.633,256.260 18.290,256.388 18.400 C 256.517 18.510,256.972 19.410,257.400 20.400 C 257.828 21.390,258.278 22.290,258.400 22.400 C 258.522 22.510,258.952 23.410,259.354 24.400 C 259.757 25.390,260.314 26.650,260.592 27.200 C 260.869 27.750,261.323 28.920,261.601 29.800 C 261.878 30.680,262.249 31.584,262.426 31.810 C 262.603 32.035,263.040 33.115,263.397 34.210 C 263.753 35.304,264.296 36.740,264.603 37.400 C 264.911 38.060,265.377 39.860,265.639 41.400 C 265.902 42.940,266.234 44.290,266.378 44.400 C 266.522 44.510,266.969 46.400,267.371 48.600 C 267.773 50.800,268.232 52.780,268.391 53.000 C 268.551 53.220,268.987 55.380,269.360 57.800 C 269.734 60.220,270.200 62.560,270.395 63.000 C 270.924 64.192,272.000 71.210,272.000 73.470 C 272.000 74.553,272.157 75.611,272.350 75.820 C 272.542 76.029,273.011 80.700,273.392 86.200 C 273.772 91.700,274.230 96.560,274.409 97.000 C 275.074 98.639,276.012 116.529,276.006 127.476 C 276.003 133.678,276.154 138.848,276.342 138.964 C 276.529 139.080,276.801 150.206,276.946 163.687 C 277.195 186.923,277.825 204.400,278.413 204.400 C 278.560 204.400,278.798 206.605,278.943 209.300 C 279.276 215.499,279.969 221.962,280.411 223.000 C 280.599 223.440,281.047 226.590,281.407 230.000 C 281.767 233.410,282.213 236.560,282.398 237.000 C 282.583 237.440,283.034 239.870,283.400 242.400 C 283.766 244.930,284.220 247.360,284.410 247.800 C 284.599 248.240,285.055 250.490,285.423 252.800 C 285.790 255.110,286.235 257.180,286.410 257.400 C 286.585 257.620,287.024 258.943,287.385 260.339 C 287.747 261.736,288.199 263.176,288.390 263.539 C 288.582 263.903,289.042 265.370,289.412 266.800 C 289.783 268.230,290.222 269.580,290.388 269.800 C 290.554 270.020,290.816 270.740,290.970 271.400 C 291.123 272.060,291.789 273.770,292.449 275.200 C 293.108 276.630,293.979 278.520,294.383 279.400 C 296.796 284.648,299.118 289.090,300.915 291.892 C 301.512 292.823,302.000 293.768,302.000 293.992 C 302.000 294.216,302.136 294.400,302.302 294.400 C 302.469 294.400,302.835 294.921,303.117 295.558 C 303.670 296.807,313.304 306.400,314.005 306.400 C 314.239 306.400,315.675 307.274,317.196 308.343 C 318.718 309.411,320.826 310.519,321.881 310.805 C 322.937 311.090,323.980 311.457,324.200 311.619 C 324.420 311.781,325.770 312.231,327.200 312.620 C 328.630 313.008,329.980 313.454,330.200 313.612 C 330.420 313.769,334.650 314.015,339.600 314.158 C 349.930 314.457,359.434 315.116,360.600 315.614 C 361.040 315.802,362.930 316.065,364.800 316.198 C 368.264 316.445,371.876 317.115,372.603 317.644 C 372.825 317.806,374.253 318.227,375.776 318.580 C 377.299 318.933,378.737 319.381,378.972 319.575 C 379.208 319.769,380.120 320.055,381.000 320.209 C 381.880 320.363,383.320 320.896,384.200 321.394 C 385.080 321.891,386.250 322.435,386.800 322.603 C 388.715 323.187,394.004 328.126,396.235 331.413 C 399.834 336.716,400.533 341.591,398.240 345.376 C 397.448 346.684,396.800 347.889,396.800 348.055 C 396.800 348.571,387.090 353.148,385.400 353.429 C 384.520 353.575,383.260 353.926,382.600 354.209 C 381.940 354.491,379.960 355.039,378.200 355.426 C 376.440 355.812,374.787 356.292,374.527 356.491 C 374.267 356.690,372.107 357.115,369.727 357.436 C 367.347 357.758,365.040 358.187,364.600 358.390 C 364.160 358.593,361.550 359.065,358.800 359.438 C 356.050 359.811,353.710 360.238,353.600 360.387 C 353.490 360.536,349.800 360.971,345.400 361.354 C 341.000 361.736,337.040 362.202,336.600 362.388 C 335.709 362.766,328.427 363.439,320.800 363.847 C 318.050 363.994,315.710 364.236,315.600 364.385 C 315.380 364.682,295.706 366.016,291.695 366.006 C 290.317 366.003,288.877 366.167,288.495 366.371 C 287.762 366.762,259.773 368.020,252.100 368.008 C 249.625 368.003,247.600 368.145,247.600 368.323 C 247.600 368.618,228.171 369.245,199.800 369.864 C 192.531 370.023,188.403 370.265,188.039 370.555 C 187.633 370.876,169.880 371.039,124.139 371.140 L 60.800 371.279 60.822 368.740 C 61.017 345.775,70.828 329.040,89.213 320.312 C 91.310 319.316,93.650 318.368,94.413 318.205 C 95.176 318.041,95.980 317.775,96.200 317.612 C 96.801 317.168,101.802 316.000,103.102 316.000 C 103.728 316.000,104.411 315.842,104.620 315.648 C 105.294 315.023,112.356 314.426,122.300 314.153 C 127.635 314.006,132.000 313.759,132.000 313.604 C 132.000 313.450,134.250 312.987,137.000 312.576 C 139.750 312.166,142.000 311.702,142.000 311.547 C 142.000 311.391,142.585 311.141,143.300 310.991 C 145.281 310.575,151.420 308.183,152.000 307.601 C 152.633 306.965,157.229 304.000,157.580 304.000 C 157.811 304.000,158.000 303.859,158.000 303.686 C 158.000 303.513,159.485 302.152,161.300 300.661 C 163.115 299.169,165.011 297.375,165.512 296.674 C 166.014 295.974,167.289 294.230,168.344 292.800 C 175.635 282.925,180.101 269.863,182.566 251.200 C 183.815 241.750,184.428 220.476,183.600 215.371 C 183.383 214.035,182.942 210.447,182.621 207.397 C 181.469 196.459,179.186 187.637,175.325 179.200 C 173.153 174.455,172.729 173.727,170.474 170.882 C 167.509 167.143,167.195 166.805,165.007 165.000 C 163.941 164.120,162.737 163.084,162.332 162.698 C 161.927 162.311,160.046 161.192,158.152 160.209 C 156.259 159.226,154.505 158.261,154.255 158.064 C 154.005 157.867,152.540 157.478,151.000 157.200 C 149.460 156.922,147.947 156.493,147.637 156.247 C 146.840 155.614,131.652 155.636,130.360 156.273 C 129.832 156.533,127.060 157.053,124.200 157.428 C 121.340 157.803,118.820 158.240,118.600 158.400 C 117.806 158.977,114.581 159.224,107.735 159.232 L 100.761 159.239 98.028 157.520 C 93.784 154.848,92.291 152.610,92.081 148.600 C 91.879 144.758,92.523 139.036,93.369 137.159 C 93.706 136.412,94.604 134.180,95.363 132.200 C 99.467 121.507,103.457 114.461,116.655 94.600 C 120.425 88.926,120.778 88.438,128.800 77.796 C 130.230 75.899,131.670 73.946,132.000 73.457 C 132.330 72.967,133.680 71.164,135.000 69.449 C 136.320 67.734,137.665 65.942,137.989 65.466 C 142.539 58.772,166.110 33.656,174.200 26.881 C 176.180 25.222,177.980 23.668,178.200 23.426 C 178.549 23.043,184.209 18.757,189.000 15.248 C 189.880 14.604,192.310 13.057,194.400 11.811 C 196.490 10.565,198.470 9.382,198.800 9.183 C 199.130 8.983,200.210 8.467,201.200 8.036 C 202.190 7.605,204.170 6.735,205.600 6.102 C 207.030 5.469,209.100 4.709,210.200 4.413 C 211.300 4.118,212.380 3.746,212.600 3.586 C 213.195 3.155,217.395 2.000,218.367 2.000 C 218.831 2.000,219.523 1.819,219.905 1.597 C 221.728 0.541,232.865 0.037,235.754 0.881 " stroke="none" fill="#fbfbfb" fill-rule="evenodd"></path><path id="path2" d="M223.300 1.076 C 223.685 1.176,224.315 1.176,224.700 1.076 C 225.085 0.975,224.770 0.893,224.000 0.893 C 223.230 0.893,222.915 0.975,223.300 1.076 M124.900 157.076 C 125.285 157.176,125.915 157.176,126.300 157.076 C 126.685 156.975,126.370 156.893,125.600 156.893 C 124.830 156.893,124.515 156.975,124.900 157.076 M102.311 159.093 C 103.251 159.178,104.691 159.177,105.511 159.091 C 106.330 159.005,105.560 158.936,103.800 158.937 C 102.040 158.939,101.370 159.009,102.311 159.093 M109.715 159.096 C 110.988 159.176,112.968 159.175,114.115 159.094 C 115.262 159.014,114.220 158.949,111.800 158.950 C 109.380 158.951,108.442 159.016,109.715 159.096 M108.705 315.083 C 109.202 315.179,109.922 315.175,110.305 315.075 C 110.687 314.975,110.280 314.896,109.400 314.901 C 108.520 314.905,108.207 314.987,108.705 315.083 M352.100 315.087 C 352.705 315.178,353.695 315.178,354.300 315.087 C 354.905 314.995,354.410 314.920,353.200 314.920 C 351.990 314.920,351.495 314.995,352.100 315.087 M370.900 357.076 C 371.285 357.176,371.915 357.176,372.300 357.076 C 372.685 356.975,372.370 356.893,371.600 356.893 C 370.830 356.893,370.515 356.975,370.900 357.076 M346.105 361.087 C 346.714 361.179,347.614 361.177,348.105 361.082 C 348.597 360.987,348.100 360.911,347.000 360.914 C 345.900 360.917,345.497 360.995,346.105 361.087 M329.305 363.087 C 329.914 363.179,330.814 363.177,331.305 363.082 C 331.797 362.987,331.300 362.911,330.200 362.914 C 329.100 362.917,328.697 362.995,329.305 363.087 M304.900 365.091 C 305.725 365.178,307.075 365.178,307.900 365.091 C 308.725 365.005,308.050 364.934,306.400 364.934 C 304.750 364.934,304.075 365.005,304.900 365.091 M272.915 367.096 C 274.188 367.176,276.168 367.175,277.315 367.094 C 278.462 367.014,277.420 366.949,275.000 366.950 C 272.580 366.951,271.642 367.016,272.915 367.096 M222.900 369.098 C 224.825 369.171,227.975 369.171,229.900 369.098 C 231.825 369.025,230.250 368.965,226.400 368.965 C 222.550 368.965,220.975 369.025,222.900 369.098 M60.928 370.200 C 61.011 370.996,61.306 371.000,116.605 371.002 L 172.200 371.004 116.729 370.901 C 64.339 370.803,61.247 370.758,61.052 370.099 C 60.893 369.558,60.865 369.581,60.928 370.200 " stroke="none" fill="#848484" fill-rule="evenodd"></path><path id="path3" d="M221.200 1.200 L 219.800 1.495 221.076 1.547 C 221.778 1.576,222.464 1.420,222.600 1.200 C 222.736 0.980,222.792 0.824,222.724 0.853 C 222.656 0.882,221.970 1.038,221.200 1.200 M155.188 45.500 L 152.600 48.200 155.300 45.612 C 156.785 44.188,158.000 42.973,158.000 42.912 C 158.000 42.617,157.593 42.992,155.188 45.500 M266.400 45.576 C 266.400 46.223,266.542 46.841,266.716 46.948 C 266.890 47.056,266.961 46.527,266.873 45.772 C 266.676 44.091,266.400 43.977,266.400 45.576 M272.334 78.118 C 272.407 79.483,272.587 80.727,272.734 80.882 C 272.880 81.036,272.940 80.046,272.866 78.682 C 272.793 77.317,272.613 76.073,272.466 75.918 C 272.320 75.764,272.260 76.754,272.334 78.118 M274.454 99.676 C 274.425 101.148,274.535 102.436,274.700 102.539 C 274.865 102.641,274.948 101.797,274.884 100.662 C 274.694 97.253,274.512 96.837,274.454 99.676 M276.486 152.676 C 276.439 160.198,276.535 166.436,276.700 166.539 C 276.865 166.641,276.954 162.647,276.898 157.662 C 276.707 140.619,276.573 138.999,276.486 152.676 M128.800 156.293 C 126.831 156.524,126.475 157.052,128.413 156.867 C 129.289 156.784,130.105 156.555,130.226 156.358 C 130.348 156.161,130.392 156.029,130.324 156.064 C 130.256 156.099,129.570 156.202,128.800 156.293 M147.941 156.501 C 148.143 156.703,148.733 156.801,149.254 156.719 C 150.055 156.593,149.998 156.537,148.887 156.352 C 148.093 156.221,147.719 156.279,147.941 156.501 M117.200 158.400 L 115.800 158.695 117.076 158.747 C 117.778 158.776,118.464 158.620,118.600 158.400 C 118.736 158.180,118.792 158.024,118.724 158.053 C 118.656 158.082,117.970 158.238,117.200 158.400 M278.460 207.276 C 278.427 208.968,278.535 210.437,278.700 210.539 C 278.865 210.642,278.949 209.707,278.887 208.463 C 278.692 204.556,278.522 204.085,278.460 207.276 M280.432 224.676 C 280.414 225.598,280.542 226.441,280.716 226.548 C 280.890 226.656,280.967 226.082,280.887 225.272 C 280.669 223.058,280.467 222.795,280.432 224.676 M183.714 235.800 C 183.717 236.900,183.795 237.303,183.887 236.695 C 183.979 236.086,183.977 235.186,183.882 234.695 C 183.787 234.203,183.711 234.700,183.714 235.800 M282.501 238.600 C 282.505 239.480,282.587 239.793,282.683 239.295 C 282.779 238.798,282.775 238.078,282.675 237.695 C 282.575 237.313,282.496 237.720,282.501 238.600 M183.331 245.000 C 183.333 246.540,183.405 247.121,183.492 246.291 C 183.579 245.461,183.577 244.201,183.489 243.491 C 183.400 242.781,183.329 243.460,183.331 245.000 M284.328 249.032 C 284.416 249.788,284.611 250.483,284.761 250.576 C 284.910 250.668,284.961 250.125,284.872 249.368 C 284.784 248.612,284.589 247.917,284.439 247.824 C 284.290 247.732,284.239 248.275,284.328 249.032 M181.050 260.050 C 180.717 261.717,181.040 262.040,181.400 260.400 C 181.552 259.709,181.593 259.059,181.491 258.958 C 181.389 258.856,181.191 259.347,181.050 260.050 M179.029 269.429 C 178.881 270.015,178.838 270.572,178.932 270.666 C 179.027 270.760,179.224 270.358,179.371 269.771 C 179.519 269.185,179.562 268.628,179.468 268.534 C 179.373 268.440,179.176 268.842,179.029 269.429 M314.400 306.546 C 314.400 306.656,314.940 307.130,315.600 307.600 C 316.260 308.070,316.800 308.364,316.800 308.254 C 316.800 308.144,316.260 307.670,315.600 307.200 C 314.940 306.730,314.400 306.436,314.400 306.546 M133.200 313.200 L 131.800 313.495 133.076 313.547 C 133.778 313.576,134.464 313.420,134.600 313.200 C 134.736 312.980,134.792 312.824,134.724 312.853 C 134.656 312.882,133.970 313.038,133.200 313.200 M106.200 315.200 L 104.600 315.486 106.076 315.543 C 106.888 315.574,107.664 315.420,107.800 315.200 C 107.936 314.980,107.992 314.826,107.924 314.857 C 107.856 314.888,107.080 315.042,106.200 315.200 M355.518 315.266 C 355.673 315.413,356.917 315.593,358.282 315.666 C 359.646 315.740,360.636 315.680,360.482 315.534 C 360.327 315.387,359.083 315.207,357.718 315.134 C 356.354 315.060,355.364 315.120,355.518 315.266 M97.400 317.085 C 96.175 317.380,95.798 317.928,96.976 317.703 C 97.546 317.594,98.110 317.346,98.230 317.152 C 98.349 316.959,98.392 316.821,98.324 316.846 C 98.256 316.872,97.840 316.979,97.400 317.085 M396.000 348.272 C 395.113 349.210,395.097 349.278,395.853 348.876 C 396.322 348.626,396.811 348.147,396.940 347.811 C 397.254 346.994,397.168 347.036,396.000 348.272 M381.000 354.400 L 379.800 354.705 380.876 354.753 C 381.468 354.779,382.064 354.620,382.200 354.400 C 382.336 354.180,382.392 354.021,382.324 354.047 C 382.256 354.073,381.660 354.232,381.000 354.400 M363.200 358.293 C 361.231 358.524,360.875 359.052,362.813 358.867 C 363.689 358.784,364.505 358.555,364.626 358.358 C 364.748 358.161,364.792 358.029,364.724 358.064 C 364.656 358.099,363.970 358.202,363.200 358.293 M349.062 360.700 C 348.960 360.865,349.714 360.946,350.738 360.880 C 353.659 360.693,354.014 360.497,351.524 360.446 C 350.272 360.421,349.164 360.535,349.062 360.700 M61.301 362.200 C 61.305 363.080,61.387 363.393,61.483 362.895 C 61.579 362.398,61.575 361.678,61.475 361.295 C 61.375 360.913,61.296 361.320,61.301 362.200 M334.200 362.400 L 331.800 362.666 334.076 362.733 C 335.328 362.770,336.464 362.620,336.600 362.400 C 336.736 362.180,336.792 362.030,336.724 362.067 C 336.656 362.104,335.520 362.254,334.200 362.400 M309.461 364.700 C 309.358 364.865,310.293 364.949,311.537 364.887 C 315.444 364.692,315.915 364.522,312.724 364.460 C 311.032 364.427,309.563 364.535,309.461 364.700 M60.924 367.400 C 60.926 368.720,61.001 369.212,61.090 368.493 C 61.179 367.774,61.177 366.694,61.086 366.093 C 60.995 365.492,60.922 366.080,60.924 367.400 M284.206 366.299 C 281.789 366.371,279.682 366.557,279.524 366.714 C 279.366 366.872,281.253 366.944,283.718 366.875 C 286.183 366.807,288.371 366.582,288.580 366.375 C 288.789 366.169,288.879 366.038,288.780 366.085 C 288.681 366.132,286.622 366.228,284.206 366.299 M233.461 368.700 C 233.358 368.865,235.463 368.953,238.137 368.896 C 246.966 368.706,247.900 368.555,240.724 368.477 C 236.832 368.435,233.563 368.535,233.461 368.700 M180.400 370.400 L 172.600 370.626 180.276 370.713 C 185.059 370.767,188.046 370.649,188.200 370.400 C 188.336 370.180,188.392 370.039,188.324 370.087 C 188.256 370.135,184.690 370.276,180.400 370.400 " stroke="none" fill="#ababab" fill-rule="evenodd"></path><path id="path4" d="M225.462 0.700 C 225.360 0.865,227.402 1.000,230.000 1.000 C 232.598 1.000,234.640 0.865,234.538 0.700 C 234.436 0.535,232.394 0.400,230.000 0.400 C 227.606 0.400,225.564 0.535,225.462 0.700 M260.832 28.824 C 260.814 29.166,261.080 29.796,261.422 30.224 C 262.034 30.988,262.038 30.987,261.676 30.200 C 261.474 29.760,261.208 29.130,261.086 28.800 C 260.893 28.282,260.859 28.285,260.832 28.824 M262.867 34.020 C 263.101 34.692,263.367 35.167,263.457 35.076 C 263.656 34.878,262.901 32.800,262.631 32.800 C 262.527 32.800,262.633 33.349,262.867 34.020 M265.049 40.200 C 265.168 41.300,265.417 42.357,265.601 42.548 C 265.786 42.740,265.787 42.200,265.603 41.348 C 264.992 38.515,264.831 38.180,265.049 40.200 M154.388 46.700 L 151.800 49.400 154.500 46.812 C 155.985 45.388,157.200 44.173,157.200 44.112 C 157.200 43.817,156.793 44.192,154.388 46.700 M269.051 57.800 C 269.171 59.120,269.411 60.349,269.585 60.531 C 269.759 60.713,269.738 59.903,269.538 58.731 C 268.982 55.476,268.812 55.151,269.051 57.800 M271.051 67.800 C 271.171 69.120,271.411 70.349,271.585 70.531 C 271.759 70.713,271.738 69.903,271.538 68.731 C 270.982 65.476,270.812 65.151,271.051 67.800 M272.864 84.304 C 273.370 90.277,273.502 90.778,273.310 86.000 C 273.209 83.470,273.000 81.267,272.847 81.104 C 272.693 80.941,272.701 82.381,272.864 84.304 M274.917 105.000 C 274.910 106.320,275.032 108.750,275.188 110.400 L 275.471 113.400 275.483 111.000 C 275.490 109.680,275.368 107.250,275.212 105.600 L 274.929 102.600 274.917 105.000 M92.446 151.051 C 92.421 151.519,92.715 152.149,93.100 152.451 C 93.709 152.928,93.740 152.922,93.343 152.400 C 93.092 152.070,92.798 151.440,92.689 151.000 C 92.503 150.240,92.490 150.243,92.446 151.051 M133.461 155.500 C 133.358 155.665,135.192 155.753,137.537 155.695 C 145.119 155.508,145.941 155.350,139.724 155.274 C 136.382 155.233,133.563 155.335,133.461 155.500 M123.000 157.091 C 121.284 157.335,120.920 157.872,122.604 157.675 C 123.376 157.585,124.106 157.351,124.227 157.156 C 124.348 156.960,124.392 156.827,124.324 156.860 C 124.256 156.893,123.660 156.997,123.000 157.091 M276.969 182.306 C 277.035 194.791,277.161 198.113,277.584 198.506 C 278.014 198.904,278.053 198.888,277.787 198.422 C 277.605 198.104,277.328 190.814,277.171 182.222 L 276.886 166.600 276.969 182.306 M278.835 213.033 C 278.854 214.335,279.016 216.300,279.194 217.400 C 279.413 218.749,279.449 218.032,279.305 215.200 C 279.073 210.611,278.779 209.258,278.835 213.033 M280.888 228.000 C 280.878 228.770,281.010 230.300,281.182 231.400 C 281.434 233.018,281.497 233.133,281.512 232.000 C 281.522 231.230,281.390 229.700,281.218 228.600 C 280.966 226.982,280.903 226.867,280.888 228.000 M183.720 241.200 C 183.720 242.410,183.795 242.905,183.887 242.300 C 183.978 241.695,183.978 240.705,183.887 240.100 C 183.795 239.495,183.720 239.990,183.720 241.200 M282.870 241.000 C 282.857 241.440,282.995 242.520,283.177 243.400 C 283.455 244.745,283.508 244.809,283.507 243.800 C 283.505 242.399,282.908 239.770,282.870 241.000 M286.849 260.009 C 287.454 261.800,287.795 262.148,287.428 260.600 C 287.271 259.940,286.971 259.224,286.761 259.009 C 286.550 258.794,286.590 259.244,286.849 260.009 M292.832 276.824 C 292.814 277.166,293.080 277.796,293.422 278.224 C 294.034 278.988,294.038 278.987,293.676 278.200 C 293.474 277.760,293.208 277.130,293.086 276.800 C 292.893 276.282,292.859 276.285,292.832 276.824 M298.800 289.089 C 298.800 289.321,299.171 289.936,299.624 290.456 L 300.447 291.400 299.745 290.200 C 298.820 288.621,298.800 288.597,298.800 289.089 M164.175 298.500 L 163.000 299.800 164.300 298.625 C 165.512 297.530,165.784 297.200,165.475 297.200 C 165.406 297.200,164.821 297.785,164.175 298.500 M312.800 305.746 C 312.800 305.856,313.340 306.330,314.000 306.800 C 314.660 307.270,315.200 307.564,315.200 307.454 C 315.200 307.344,314.660 306.870,314.000 306.400 C 313.340 305.930,312.800 305.636,312.800 305.746 M137.045 312.728 C 136.933 312.908,137.373 312.977,138.021 312.882 C 138.670 312.787,139.200 312.640,139.200 312.555 C 139.200 312.250,137.243 312.407,137.045 312.728 M111.060 314.700 C 110.958 314.865,112.432 314.952,114.337 314.893 C 120.728 314.695,121.438 314.545,116.324 314.472 C 113.532 314.432,111.163 314.535,111.060 314.700 M342.400 314.665 C 346.765 314.958,351.111 314.975,350.940 314.700 C 350.837 314.535,348.468 314.432,345.676 314.472 C 342.884 314.512,341.410 314.599,342.400 314.665 M365.200 316.625 C 366.603 316.935,369.118 316.990,368.943 316.707 C 368.838 316.538,367.818 316.421,366.676 316.446 C 365.534 316.472,364.870 316.552,365.200 316.625 M374.000 318.555 C 374.000 318.640,374.530 318.787,375.179 318.882 C 375.827 318.977,376.267 318.908,376.155 318.728 C 375.957 318.407,374.000 318.250,374.000 318.555 M399.331 341.000 C 399.333 342.540,399.405 343.121,399.492 342.291 C 399.579 341.461,399.577 340.201,399.489 339.491 C 399.400 338.781,399.329 339.460,399.331 341.000 M383.445 353.528 C 383.333 353.708,383.773 353.777,384.421 353.682 C 385.070 353.587,385.600 353.440,385.600 353.355 C 385.600 353.050,383.643 353.207,383.445 353.528 M368.600 357.200 L 367.000 357.486 368.476 357.543 C 369.288 357.574,370.064 357.420,370.200 357.200 C 370.336 356.980,370.392 356.826,370.324 356.857 C 370.256 356.888,369.480 357.042,368.600 357.200 M357.600 359.200 L 356.200 359.495 357.476 359.547 C 358.178 359.576,358.864 359.420,359.000 359.200 C 359.136 358.980,359.192 358.824,359.124 358.853 C 359.056 358.882,358.370 359.038,357.600 359.200 M342.800 361.200 L 340.600 361.470 342.676 361.535 C 343.818 361.571,344.864 361.420,345.000 361.200 C 345.136 360.980,345.192 360.829,345.124 360.865 C 345.056 360.901,344.010 361.052,342.800 361.200 M325.001 363.099 C 323.242 363.175,321.675 363.364,321.519 363.519 C 321.364 363.673,322.713 363.742,324.518 363.671 C 326.323 363.600,327.971 363.375,328.180 363.171 C 328.389 362.967,328.479 362.836,328.380 362.880 C 328.281 362.925,326.761 363.023,325.001 363.099 M61.309 366.800 C 61.309 367.790,61.387 368.195,61.482 367.700 C 61.578 367.205,61.578 366.395,61.482 365.900 C 61.387 365.405,61.309 365.810,61.309 366.800 M297.461 365.500 C 297.358 365.665,298.293 365.749,299.537 365.687 C 303.444 365.492,303.915 365.322,300.724 365.260 C 299.032 365.227,297.563 365.335,297.461 365.500 M266.206 367.099 C 263.789 367.171,261.682 367.357,261.524 367.514 C 261.366 367.672,263.253 367.744,265.718 367.675 C 268.183 367.607,270.371 367.382,270.580 367.175 C 270.789 366.969,270.879 366.838,270.780 366.885 C 270.681 366.932,268.622 367.028,266.206 367.099 M203.461 369.500 C 203.358 369.665,205.733 369.753,208.737 369.696 C 218.818 369.505,219.860 369.360,211.724 369.279 C 207.282 369.236,203.563 369.335,203.461 369.500 " stroke="none" fill="#747474" fill-rule="evenodd"></path></g></svg>