<svg id="svg" version="1.1" xmlns="http://www.w3.org/2000/svg" xmlns:xlink="http://www.w3.org/1999/xlink" width="400" height="400" viewBox="0, 0, 400,400"><g id="svgg"><path id="path0" d="M184.000 1.632 C 178.830 2.030,173.970 2.447,173.200 2.558 C 172.430 2.669,168.290 3.068,164.000 3.445 C 159.710 3.821,156.110 4.249,156.000 4.395 C 155.890 4.540,153.460 4.887,150.600 5.164 C 147.740 5.442,144.680 5.848,143.800 6.068 C 142.920 6.288,140.310 6.872,138.000 7.367 C 135.690 7.862,133.530 8.376,133.200 8.511 C 132.641 8.739,131.266 9.042,120.900 11.219 C 118.755 11.670,116.640 12.200,116.200 12.396 C 115.760 12.593,114.770 12.865,114.000 13.001 C 112.594 13.249,105.244 15.654,103.000 16.600 C 102.340 16.878,101.080 17.330,100.200 17.605 C 99.320 17.880,98.420 18.237,98.200 18.399 C 97.980 18.561,96.810 19.012,95.600 19.400 C 94.390 19.788,93.220 20.243,93.000 20.410 C 92.608 20.709,88.806 22.813,86.764 23.862 C 81.038 26.804,69.472 39.446,67.183 45.266 C 62.269 57.760,61.320 63.154,61.749 76.138 C 62.053 85.346,64.634 99.550,66.413 101.800 C 66.586 102.020,67.048 103.010,67.439 104.000 C 68.192 105.909,71.575 111.229,74.870 115.687 C 77.496 119.240,84.712 124.915,89.603 127.274 C 93.520 129.164,95.635 130.004,98.000 130.608 C 99.430 130.973,100.804 131.440,101.054 131.646 C 101.818 132.277,114.235 132.121,115.295 131.466 C 115.793 131.159,117.074 130.675,118.141 130.390 C 120.092 129.870,127.727 126.221,128.816 125.288 C 130.152 124.144,133.049 122.125,133.700 121.884 C 134.085 121.742,134.400 121.439,134.400 121.213 C 134.400 120.986,134.625 120.800,134.900 120.799 C 135.175 120.799,136.715 119.449,138.323 117.799 C 139.930 116.150,141.415 114.800,141.623 114.800 C 141.830 114.800,142.000 114.656,142.000 114.481 C 142.000 114.305,142.675 113.433,143.500 112.543 C 147.816 107.886,152.400 102.060,152.400 101.232 C 152.400 101.010,152.760 100.635,153.200 100.400 C 153.640 100.165,154.000 99.668,154.000 99.296 C 154.000 98.547,168.128 84.400,168.877 84.400 C 169.136 84.400,169.720 84.069,170.174 83.665 C 170.628 83.260,171.630 82.691,172.400 82.399 C 173.170 82.107,174.084 81.628,174.431 81.335 C 174.778 81.041,176.128 80.608,177.431 80.372 C 178.734 80.136,180.113 79.776,180.495 79.571 C 181.377 79.100,188.680 79.082,188.970 79.551 C 189.089 79.744,190.038 80.116,191.078 80.378 C 196.271 81.686,201.371 85.151,208.593 92.279 C 211.387 95.036,215.944 101.773,218.655 107.153 C 223.535 116.838,223.886 129.826,219.593 141.819 C 218.497 144.882,217.600 147.519,217.600 147.680 C 217.600 147.841,215.921 151.444,213.869 155.686 C 207.935 167.954,196.086 184.602,183.645 198.152 C 182.190 199.736,179.389 202.825,177.420 205.016 C 173.074 209.853,167.035 215.874,158.788 223.590 C 155.385 226.775,149.073 232.858,144.762 237.109 C 140.451 241.360,136.550 245.100,136.092 245.421 C 135.635 245.741,132.521 249.017,129.173 252.702 C 125.824 256.386,122.886 259.581,122.642 259.801 C 121.338 260.985,111.745 271.903,105.950 278.800 C 99.210 286.822,89.223 300.077,85.600 305.811 C 84.390 307.726,82.606 310.487,81.636 311.946 C 79.797 314.712,72.761 328.291,70.830 332.800 C 66.206 343.598,65.599 345.291,64.448 350.600 C 62.880 357.826,62.135 362.224,61.803 366.200 C 61.657 367.960,61.449 369.715,61.341 370.100 C 61.002 371.316,198.408 370.850,200.711 369.627 C 201.090 369.426,210.748 368.972,222.174 368.618 C 233.600 368.265,243.140 367.827,243.374 367.645 C 243.608 367.464,250.190 367.005,258.000 366.627 C 265.810 366.248,272.560 365.782,273.000 365.592 C 273.440 365.401,277.400 364.941,281.800 364.568 C 286.200 364.196,289.980 363.757,290.200 363.593 C 290.420 363.429,292.220 363.174,294.200 363.025 C 298.246 362.722,302.398 362.040,303.000 361.579 C 303.220 361.411,305.108 360.980,307.197 360.620 C 309.285 360.261,311.166 359.794,311.377 359.583 C 311.587 359.373,312.161 359.200,312.652 359.200 C 313.203 359.200,314.316 358.399,315.569 357.100 L 317.595 355.000 315.697 353.258 C 314.654 352.299,313.251 350.994,312.580 350.358 C 311.908 349.721,311.098 349.199,310.780 349.198 C 310.461 349.196,309.750 348.961,309.200 348.676 C 308.650 348.390,307.300 347.917,306.200 347.624 C 305.100 347.331,303.818 346.857,303.351 346.570 C 302.884 346.283,301.354 345.751,299.951 345.388 C 298.548 345.025,297.207 344.569,296.971 344.374 C 296.735 344.179,295.385 343.726,293.971 343.367 C 292.557 343.008,291.220 342.585,291.000 342.426 C 290.780 342.268,289.160 341.797,287.400 341.380 C 285.640 340.962,284.110 340.512,284.000 340.379 C 283.890 340.247,282.450 339.817,280.800 339.425 C 279.150 339.033,277.620 338.575,277.400 338.408 C 277.180 338.241,276.010 337.883,274.800 337.613 C 271.593 336.896,252.583 327.428,251.900 326.207 C 251.713 325.873,251.344 325.593,251.080 325.584 C 250.816 325.575,249.977 325.035,249.215 324.384 C 248.453 323.733,247.642 323.200,247.411 323.200 C 247.181 323.200,246.768 322.840,246.493 322.400 C 246.218 321.960,245.726 321.600,245.400 321.600 C 245.074 321.600,244.582 321.240,244.307 320.800 C 244.032 320.360,243.602 320.000,243.350 320.000 C 243.099 320.000,242.243 319.235,241.447 318.300 C 240.652 317.365,239.731 316.285,239.401 315.900 C 239.070 315.515,238.799 315.065,238.798 314.900 C 238.797 314.735,237.792 313.342,236.564 311.805 C 234.180 308.818,233.228 306.989,232.397 303.800 C 232.110 302.700,231.746 301.620,231.586 301.400 C 229.454 298.456,229.416 279.927,231.536 277.026 C 231.707 276.792,232.178 275.250,232.583 273.600 C 232.987 271.950,233.451 270.420,233.613 270.200 C 233.775 269.980,234.036 269.170,234.193 268.400 C 234.350 267.630,234.949 266.190,235.524 265.200 C 236.100 264.210,236.912 262.770,237.329 262.000 C 238.113 260.556,239.097 258.834,239.805 257.667 C 240.028 257.300,240.916 255.740,241.777 254.200 C 242.639 252.660,243.675 250.950,244.079 250.400 C 245.916 247.899,246.254 247.475,247.100 246.619 C 247.595 246.118,248.000 245.565,248.000 245.389 C 248.000 245.214,249.080 243.764,250.400 242.168 C 251.720 240.573,252.800 239.168,252.800 239.048 C 252.800 238.927,253.166 238.417,253.613 237.914 C 255.988 235.245,260.800 229.141,260.800 228.797 C 260.800 228.579,260.970 228.400,261.178 228.400 C 261.386 228.400,262.061 227.700,262.678 226.844 C 263.885 225.171,270.751 217.135,273.018 214.741 C 273.778 213.939,274.400 213.164,274.400 213.020 C 274.400 212.875,275.390 211.517,276.600 210.000 C 277.810 208.483,278.800 207.096,278.800 206.918 C 278.800 206.739,279.160 206.368,279.600 206.093 C 280.040 205.818,280.400 205.405,280.400 205.175 C 280.400 204.945,281.390 203.517,282.600 202.000 C 283.810 200.483,284.800 199.072,284.800 198.864 C 284.800 198.656,285.055 198.388,285.366 198.268 C 285.677 198.149,286.172 197.612,286.466 197.074 C 286.760 196.537,287.675 195.082,288.500 193.841 C 289.325 192.600,290.000 191.479,290.000 191.350 C 290.000 191.221,290.540 190.316,291.200 189.338 C 291.860 188.360,292.400 187.475,292.400 187.371 C 292.400 187.267,293.300 185.822,294.400 184.161 C 295.500 182.500,296.400 181.007,296.400 180.842 C 296.400 180.677,296.935 179.835,297.589 178.971 C 298.243 178.107,298.783 177.166,298.789 176.879 C 298.795 176.593,299.148 175.693,299.574 174.879 C 300.000 174.066,300.796 172.410,301.343 171.200 C 301.890 169.990,302.891 167.785,303.569 166.299 C 304.246 164.813,304.806 163.373,304.812 163.099 C 304.819 162.825,305.268 161.880,305.810 161.000 C 306.352 160.120,306.798 159.040,306.800 158.600 C 306.803 158.160,307.042 157.345,307.333 156.789 C 307.623 156.233,308.085 154.883,308.360 153.789 C 308.635 152.695,309.102 151.260,309.399 150.600 C 309.695 149.940,310.238 148.320,310.606 147.000 C 310.974 145.680,311.439 144.401,311.640 144.157 C 311.840 143.913,312.275 141.753,312.607 139.357 C 312.939 136.961,313.328 134.730,313.471 134.400 C 314.350 132.379,315.161 123.991,315.180 116.724 C 315.193 111.682,315.351 108.754,315.619 108.588 C 315.881 108.426,315.900 108.154,315.669 107.864 C 315.466 107.609,314.980 103.980,314.590 99.800 C 314.200 95.620,313.745 92.020,313.580 91.800 C 313.415 91.580,312.978 90.140,312.608 88.600 C 312.238 87.060,311.704 85.260,311.422 84.600 C 311.139 83.940,310.678 82.230,310.397 80.800 C 310.116 79.370,309.732 78.029,309.543 77.820 C 309.354 77.611,309.200 77.183,309.200 76.869 C 309.200 76.327,308.154 73.948,305.563 68.600 C 304.923 67.280,304.396 66.020,304.392 65.800 C 304.382 65.288,299.688 55.914,299.295 55.621 C 299.133 55.499,298.692 54.770,298.317 54.000 C 297.941 53.230,297.316 52.060,296.929 51.400 C 294.157 46.676,292.675 44.356,291.435 42.796 C 290.650 41.808,290.006 40.781,290.004 40.514 C 290.002 40.247,289.640 39.835,289.200 39.600 C 288.760 39.365,288.400 38.997,288.400 38.782 C 288.400 36.998,268.791 17.241,265.696 15.907 C 265.093 15.647,263.848 14.932,262.928 14.317 C 262.008 13.703,261.127 13.200,260.969 13.200 C 260.812 13.200,259.674 12.527,258.441 11.705 C 257.209 10.882,255.300 9.892,254.200 9.503 C 253.100 9.115,251.480 8.453,250.600 8.034 C 246.261 5.966,244.466 5.249,243.000 5.000 C 242.120 4.851,241.220 4.591,241.000 4.423 C 240.780 4.256,239.000 3.807,237.044 3.428 C 235.088 3.048,233.198 2.585,232.844 2.399 C 229.834 0.820,200.498 0.359,184.000 1.632 " stroke="none" fill="#040404" fill-rule="evenodd"></path><path id="path1" d="M0.000 200.000 L 0.000 400.000 200.000 400.000 L 400.000 400.000 400.000 200.000 L 400.000 0.000 200.000 0.000 L 0.000 0.000 0.000 200.000 M222.800 0.825 C 225.550 1.064,228.113 1.426,228.495 1.630 C 228.877 1.833,229.892 2.000,230.752 2.000 C 232.543 2.000,238.402 3.135,239.000 3.597 C 239.220 3.768,240.724 4.140,242.343 4.425 C 243.962 4.710,245.507 5.164,245.776 5.433 C 246.045 5.702,247.061 6.193,248.033 6.523 C 249.005 6.853,250.341 7.386,251.000 7.708 C 254.309 9.323,255.832 10.002,256.142 10.001 C 256.330 10.000,257.284 10.540,258.262 11.200 C 259.240 11.860,260.211 12.400,260.420 12.400 C 260.629 12.400,261.132 12.715,261.537 13.100 C 262.254 13.780,263.742 14.683,266.200 15.929 C 266.860 16.263,269.401 18.396,271.847 20.668 C 274.293 22.941,276.498 24.800,276.747 24.800 C 276.996 24.800,277.200 25.028,277.200 25.307 C 277.200 25.585,279.279 27.880,281.820 30.407 C 284.361 32.933,286.830 35.630,287.307 36.400 C 287.784 37.170,288.312 37.980,288.480 38.200 C 291.183 41.744,293.600 45.211,293.600 45.546 C 293.600 45.780,293.918 46.142,294.307 46.350 C 294.695 46.558,295.261 47.419,295.563 48.264 C 295.865 49.109,296.239 49.890,296.394 50.000 C 296.672 50.197,299.229 54.788,301.129 58.500 C 301.664 59.545,302.259 60.400,302.451 60.400 C 302.643 60.400,302.800 60.681,302.800 61.025 C 302.800 61.620,303.481 63.236,305.992 68.600 C 306.610 69.920,307.352 71.630,307.641 72.400 C 307.930 73.170,308.383 74.022,308.649 74.294 C 309.104 74.761,310.000 78.159,310.000 79.420 C 310.000 79.739,310.146 80.000,310.325 80.000 C 310.503 80.000,310.979 81.485,311.383 83.300 C 311.787 85.115,312.257 86.782,312.427 87.003 C 312.928 87.655,314.000 92.712,314.000 94.425 C 314.000 95.291,314.148 96.000,314.328 96.000 C 315.971 96.000,316.025 127.198,314.389 131.000 C 314.200 131.440,313.738 134.140,313.363 137.000 C 312.988 139.860,312.544 142.380,312.376 142.600 C 312.209 142.820,311.769 144.170,311.400 145.600 C 311.031 147.030,310.581 148.380,310.400 148.600 C 310.219 148.820,309.769 150.170,309.400 151.600 C 309.031 153.030,308.578 154.382,308.394 154.605 C 308.210 154.828,307.855 155.908,307.606 157.005 C 307.357 158.102,306.815 159.720,306.401 160.600 C 304.071 165.552,303.222 167.514,302.981 168.500 C 302.834 169.105,302.582 169.600,302.421 169.600 C 302.260 169.600,301.887 170.365,301.592 171.300 C 301.297 172.235,300.638 173.736,300.128 174.635 C 299.618 175.534,299.200 176.481,299.200 176.739 C 299.200 176.996,298.660 177.952,298.000 178.863 C 297.340 179.775,296.800 180.763,296.800 181.060 C 296.800 181.357,296.622 181.600,296.405 181.600 C 296.188 181.600,295.729 182.185,295.384 182.900 C 294.343 185.058,293.407 186.635,291.458 189.515 C 290.436 191.024,289.600 192.404,289.600 192.582 C 289.600 192.759,288.970 193.781,288.200 194.853 C 287.430 195.925,286.800 196.891,286.800 197.001 C 286.800 197.110,286.519 197.515,286.176 197.900 C 284.924 199.306,280.800 204.717,280.800 204.955 C 280.800 205.090,280.519 205.515,280.176 205.900 C 278.841 207.399,274.800 212.725,274.800 212.986 C 274.800 213.138,274.080 213.954,273.200 214.800 C 272.320 215.646,271.600 216.456,271.600 216.601 C 271.600 216.746,269.935 218.758,267.900 221.071 C 265.865 223.385,263.930 225.686,263.600 226.184 C 263.270 226.682,262.676 227.430,262.280 227.845 C 260.729 229.470,255.200 236.310,255.200 236.604 C 255.200 236.776,254.830 237.295,254.377 237.758 C 253.924 238.221,252.227 240.310,250.605 242.400 C 248.984 244.490,247.284 246.611,246.829 247.114 C 246.373 247.617,246.000 248.123,246.000 248.238 C 246.000 248.354,245.370 249.273,244.600 250.282 C 243.830 251.290,243.200 252.350,243.200 252.638 C 243.200 252.925,242.975 253.304,242.700 253.480 C 242.224 253.785,241.462 255.042,239.597 258.600 C 239.136 259.480,238.235 261.100,237.595 262.200 C 236.476 264.124,235.313 266.465,234.215 269.000 C 233.929 269.660,233.569 270.920,233.414 271.800 C 233.260 272.680,232.897 273.940,232.608 274.600 C 232.319 275.260,231.760 277.150,231.367 278.800 C 230.974 280.450,230.505 281.971,230.326 282.180 C 229.894 282.684,229.904 296.693,230.336 296.961 C 230.521 297.075,230.997 298.391,231.393 299.884 C 231.790 301.378,232.247 302.780,232.409 303.000 C 232.571 303.220,233.012 304.480,233.390 305.800 C 233.767 307.120,234.329 308.344,234.638 308.520 C 234.947 308.696,235.200 309.026,235.200 309.253 C 235.200 309.480,235.830 310.434,236.600 311.374 C 237.370 312.314,238.000 313.289,238.000 313.541 C 238.000 313.794,238.184 314.000,238.410 314.000 C 238.635 314.000,238.993 314.455,239.204 315.010 C 239.415 315.566,239.861 316.125,240.194 316.253 C 240.527 316.381,240.800 316.715,240.800 316.996 C 240.800 317.533,243.769 320.400,244.326 320.400 C 244.504 320.400,244.998 320.716,245.425 321.101 C 245.851 321.487,247.730 322.912,249.600 324.269 C 251.470 325.625,253.291 326.996,253.646 327.314 C 254.002 327.632,255.127 328.211,256.146 328.601 C 257.166 328.990,258.000 329.429,258.000 329.575 C 258.000 329.722,258.900 330.166,260.000 330.561 C 261.100 330.957,262.000 331.407,262.000 331.561 C 262.000 331.716,262.900 332.166,264.000 332.561 C 265.100 332.957,266.000 333.407,266.000 333.561 C 266.000 333.716,266.900 334.166,268.000 334.561 C 269.100 334.957,270.000 335.421,270.000 335.593 C 270.000 335.764,270.855 336.120,271.900 336.382 C 272.945 336.645,274.340 337.098,275.000 337.389 C 275.660 337.680,277.550 338.241,279.200 338.635 C 280.850 339.030,282.382 339.484,282.603 339.645 C 282.825 339.806,284.253 340.227,285.776 340.580 C 287.299 340.933,288.737 341.367,288.972 341.545 C 289.208 341.723,290.480 342.098,291.800 342.379 C 293.120 342.660,294.650 343.130,295.200 343.425 C 295.750 343.720,297.280 344.256,298.600 344.618 C 299.920 344.980,301.180 345.409,301.400 345.572 C 301.620 345.735,302.880 346.193,304.200 346.589 C 305.520 346.986,306.780 347.437,307.000 347.593 C 307.220 347.749,308.300 348.111,309.400 348.399 C 310.766 348.756,311.880 349.409,312.915 350.461 C 313.748 351.307,314.558 352.005,314.715 352.011 C 314.872 352.017,315.689 352.662,316.531 353.445 L 318.062 354.868 315.931 357.166 C 314.015 359.232,313.588 359.493,311.700 359.761 C 310.545 359.924,309.600 360.193,309.600 360.359 C 309.600 360.525,307.755 360.981,305.500 361.373 C 303.245 361.765,301.179 362.265,300.909 362.484 C 300.639 362.704,297.399 363.143,293.709 363.460 C 290.019 363.777,286.640 364.191,286.200 364.381 C 285.212 364.807,271.988 366.004,268.300 366.002 C 266.815 366.001,265.600 366.143,265.600 366.319 C 265.600 366.494,259.255 366.956,251.500 367.345 C 243.745 367.734,237.040 368.206,236.600 368.392 C 236.160 368.579,225.360 369.043,212.600 369.425 C 199.240 369.824,189.187 370.284,188.899 370.509 C 188.022 371.193,60.800 371.448,60.800 370.766 C 60.800 368.650,62.634 357.210,64.162 349.800 C 65.071 345.392,65.515 344.045,67.592 339.400 C 67.985 338.520,68.972 336.217,69.785 334.283 C 71.440 330.346,78.556 315.948,79.613 314.400 C 80.395 313.253,84.580 306.816,87.415 302.400 C 88.474 300.750,90.074 298.462,90.970 297.316 C 91.867 296.170,94.310 292.961,96.400 290.186 C 100.087 285.288,105.107 279.116,109.399 274.200 C 110.552 272.880,112.798 270.270,114.390 268.400 C 115.983 266.530,118.481 263.726,119.943 262.169 C 121.404 260.612,124.208 257.552,126.173 255.369 C 131.713 249.215,144.007 237.124,163.562 218.600 C 169.838 212.655,170.138 212.348,178.579 203.200 C 201.727 178.113,213.345 160.067,220.423 138.200 C 222.102 133.010,222.547 123.369,221.418 116.600 C 219.660 106.053,210.249 92.464,199.489 84.940 C 197.680 83.674,196.110 82.524,196.000 82.384 C 195.890 82.244,194.910 81.909,193.823 81.640 C 192.735 81.370,191.029 80.778,190.032 80.324 C 187.994 79.395,179.230 79.410,178.296 80.344 C 178.045 80.595,177.498 80.800,177.081 80.800 C 176.108 80.800,169.600 83.968,169.600 84.442 C 169.600 84.639,169.353 84.800,169.052 84.800 C 168.344 84.800,156.572 96.184,155.000 98.389 C 154.340 99.315,152.765 101.478,151.500 103.197 C 150.235 104.915,149.200 106.456,149.200 106.621 C 149.200 106.785,148.390 107.685,147.400 108.620 C 146.410 109.556,145.600 110.482,145.600 110.680 C 145.600 111.239,135.766 120.891,134.542 121.532 C 133.942 121.846,132.335 122.980,130.972 124.052 C 129.608 125.123,128.292 126.000,128.046 126.000 C 127.801 126.000,127.599 126.135,127.599 126.300 C 127.598 126.465,126.743 126.947,125.699 127.371 C 124.654 127.794,123.710 128.254,123.600 128.391 C 123.274 128.799,120.526 130.000,119.920 130.000 C 119.612 130.000,119.189 130.154,118.980 130.342 C 118.112 131.124,114.266 132.000,111.705 132.000 C 110.103 132.000,108.760 132.200,108.480 132.480 C 108.107 132.853,108.000 132.853,108.000 132.480 C 108.000 132.148,107.047 132.002,104.900 132.005 C 101.756 132.010,96.000 130.925,96.000 130.327 C 96.000 130.147,95.708 130.000,95.350 130.000 C 92.365 130.000,79.094 121.600,75.805 117.628 C 65.705 105.433,61.541 92.667,61.442 73.600 C 61.379 61.402,62.091 57.438,66.353 46.257 C 70.404 35.631,85.413 22.163,97.400 18.398 C 98.280 18.122,99.180 17.768,99.400 17.612 C 99.620 17.456,102.050 16.560,104.800 15.619 C 107.550 14.679,110.340 13.682,111.000 13.403 C 111.660 13.124,113.460 12.671,115.000 12.395 C 116.540 12.120,117.980 11.763,118.200 11.603 C 118.420 11.443,120.310 11.002,122.400 10.624 C 124.490 10.246,126.560 9.771,127.000 9.570 C 127.440 9.368,129.510 8.851,131.600 8.419 C 141.539 6.368,144.230 5.773,144.600 5.547 C 144.820 5.412,148.330 4.976,152.400 4.578 C 156.470 4.180,159.890 3.738,160.000 3.595 C 160.244 3.278,168.458 2.500,175.000 2.174 C 177.640 2.043,180.070 1.822,180.400 1.683 C 182.876 0.641,213.538 0.021,222.800 0.825 " stroke="none" fill="#fbfbfb" fill-rule="evenodd"></path><path id="path2" d="M182.100 1.491 C 182.925 1.578,184.275 1.578,185.100 1.491 C 185.925 1.405,185.250 1.334,183.600 1.334 C 181.950 1.334,181.275 1.405,182.100 1.491 M224.400 1.427 C 225.744 1.727,228.711 1.780,228.538 1.500 C 228.436 1.335,227.328 1.221,226.076 1.246 C 224.824 1.272,224.070 1.353,224.400 1.427 M162.000 3.200 L 159.800 3.470 161.876 3.535 C 163.018 3.571,164.064 3.420,164.200 3.200 C 164.336 2.980,164.392 2.829,164.324 2.865 C 164.256 2.901,163.210 3.052,162.000 3.200 M145.500 5.482 C 145.995 5.578,146.805 5.578,147.300 5.482 C 147.795 5.387,147.390 5.309,146.400 5.309 C 145.410 5.309,145.005 5.387,145.500 5.482 M128.000 9.200 C 127.176 9.464,127.141 9.526,127.800 9.554 C 128.240 9.573,128.870 9.413,129.200 9.200 C 129.901 8.747,129.414 8.747,128.000 9.200 M119.600 11.088 C 118.133 11.351,117.762 11.896,119.192 11.686 C 119.862 11.588,120.508 11.349,120.629 11.154 C 120.749 10.959,120.792 10.825,120.724 10.854 C 120.656 10.884,120.150 10.990,119.600 11.088 M61.361 72.000 C 61.361 75.410,61.422 76.805,61.497 75.100 C 61.572 73.395,61.572 70.605,61.497 68.900 C 61.422 67.195,61.361 68.590,61.361 72.000 M177.000 80.400 L 175.800 80.705 176.876 80.753 C 177.468 80.779,178.064 80.620,178.200 80.400 C 178.336 80.180,178.392 80.021,178.324 80.047 C 178.256 80.073,177.660 80.232,177.000 80.400 M61.693 82.400 C 61.693 83.170,61.775 83.485,61.876 83.100 C 61.976 82.715,61.976 82.085,61.876 81.700 C 61.775 81.315,61.693 81.630,61.693 82.400 M207.983 92.100 C 208.964 93.145,209.819 94.000,209.883 94.000 C 210.184 94.000,209.866 93.641,208.100 91.983 L 206.200 90.200 207.983 92.100 M314.446 97.876 C 314.421 99.018,314.538 100.038,314.707 100.143 C 314.876 100.247,314.957 99.583,314.886 98.666 C 314.679 95.975,314.496 95.647,314.446 97.876 M152.400 101.600 C 151.930 102.260,151.636 102.800,151.746 102.800 C 151.856 102.800,152.330 102.260,152.800 101.600 C 153.270 100.940,153.564 100.400,153.454 100.400 C 153.344 100.400,152.870 100.940,152.400 101.600 M143.600 112.600 C 142.628 113.590,141.923 114.400,142.033 114.400 C 142.143 114.400,143.028 113.590,144.000 112.600 C 144.972 111.610,145.677 110.800,145.567 110.800 C 145.457 110.800,144.572 111.610,143.600 112.600 M138.000 118.200 C 136.361 119.850,135.110 121.200,135.220 121.200 C 135.330 121.200,136.761 119.850,138.400 118.200 C 140.039 116.550,141.290 115.200,141.180 115.200 C 141.070 115.200,139.639 116.550,138.000 118.200 M129.322 125.029 L 128.200 126.058 129.500 125.154 C 130.215 124.657,130.800 124.193,130.800 124.125 C 130.800 123.809,130.358 124.080,129.322 125.029 M314.501 129.400 C 314.505 130.280,314.587 130.593,314.683 130.095 C 314.779 129.598,314.775 128.878,314.675 128.495 C 314.575 128.113,314.496 128.520,314.501 129.400 M312.617 139.700 C 312.287 140.746,312.157 142.750,312.430 142.581 C 312.587 142.484,312.784 141.684,312.868 140.803 C 313.021 139.206,312.917 138.750,312.617 139.700 M292.400 187.600 C 291.930 188.260,291.636 188.800,291.746 188.800 C 291.856 188.800,292.330 188.260,292.800 187.600 C 293.270 186.940,293.564 186.400,293.454 186.400 C 293.344 186.400,292.870 186.940,292.400 187.600 M184.975 196.100 L 183.800 197.400 185.100 196.225 C 185.815 195.579,186.400 194.994,186.400 194.925 C 186.400 194.616,186.070 194.888,184.975 196.100 M172.181 210.100 L 170.600 211.800 172.300 210.219 C 173.881 208.748,174.184 208.400,173.881 208.400 C 173.816 208.400,173.051 209.165,172.181 210.100 M166.181 216.100 L 164.600 217.800 166.300 216.219 C 167.235 215.349,168.000 214.584,168.000 214.519 C 168.000 214.216,167.652 214.519,166.181 216.100 M270.175 218.100 L 269.000 219.400 270.300 218.225 C 271.512 217.130,271.784 216.800,271.475 216.800 C 271.406 216.800,270.821 217.385,270.175 218.100 M158.175 223.700 L 157.000 225.000 158.300 223.825 C 159.512 222.730,159.784 222.400,159.475 222.400 C 159.406 222.400,158.821 222.985,158.175 223.700 M259.447 230.801 C 258.651 231.682,258.000 232.528,258.000 232.681 C 258.000 232.835,258.135 232.789,258.301 232.580 C 258.467 232.371,259.222 231.525,259.980 230.700 C 260.737 229.875,261.253 229.200,261.125 229.200 C 260.997 229.200,260.242 229.921,259.447 230.801 M148.175 233.300 L 147.000 234.600 148.300 233.425 C 149.512 232.330,149.784 232.000,149.475 232.000 C 149.406 232.000,148.821 232.585,148.175 233.300 M135.791 245.300 L 132.600 248.600 135.900 245.409 C 137.715 243.655,139.200 242.170,139.200 242.109 C 139.200 241.818,138.754 242.235,135.791 245.300 M245.123 249.100 C 244.418 249.921,243.890 250.800,244.101 250.800 C 244.183 250.800,244.649 250.260,245.137 249.600 C 246.101 248.296,246.092 247.972,245.123 249.100 M130.975 250.100 L 129.800 251.400 131.100 250.225 C 132.312 249.130,132.584 248.800,132.275 248.800 C 132.206 248.800,131.621 249.385,130.975 250.100 M117.978 264.300 L 116.600 265.800 118.100 264.422 C 119.496 263.138,119.784 262.800,119.478 262.800 C 119.412 262.800,118.737 263.475,117.978 264.300 M230.352 281.113 C 230.221 281.907,230.279 282.281,230.501 282.059 C 230.703 281.857,230.801 281.267,230.719 280.746 C 230.593 279.945,230.537 280.002,230.352 281.113 M307.445 360.728 C 307.333 360.908,307.773 360.977,308.421 360.882 C 309.070 360.787,309.600 360.640,309.600 360.555 C 309.600 360.250,307.643 360.407,307.445 360.728 M284.000 364.297 C 282.790 364.379,281.673 364.571,281.519 364.723 C 281.364 364.875,282.264 364.939,283.519 364.865 C 284.773 364.790,285.971 364.565,286.180 364.365 C 286.389 364.164,286.479 364.033,286.380 364.074 C 286.281 364.115,285.210 364.215,284.000 364.297 M259.913 366.695 C 261.076 366.776,262.876 366.776,263.913 366.693 C 264.951 366.611,264.000 366.545,261.800 366.546 C 259.600 366.547,258.751 366.614,259.913 366.695 M230.600 368.400 L 224.600 368.633 230.476 368.716 C 234.056 368.767,236.449 368.644,236.600 368.400 C 236.736 368.180,236.792 368.038,236.724 368.084 C 236.656 368.130,233.900 368.272,230.600 368.400 M60.893 370.000 C 60.893 370.770,60.975 371.085,61.076 370.700 C 61.176 370.315,61.176 369.685,61.076 369.300 C 60.975 368.915,60.893 369.230,60.893 370.000 M159.461 370.700 C 159.292 370.973,170.640 370.966,183.800 370.686 C 186.660 370.625,182.396 370.535,174.324 370.487 C 166.252 370.439,159.564 370.535,159.461 370.700 " stroke="none" fill="#9f9f9f" fill-rule="evenodd"></path><path id="path3" d="M188.500 1.091 C 189.325 1.178,190.675 1.178,191.500 1.091 C 192.325 1.005,191.650 0.934,190.000 0.934 C 188.350 0.934,187.675 1.005,188.500 1.091 M221.305 1.087 C 221.914 1.179,222.814 1.177,223.305 1.082 C 223.797 0.987,223.300 0.911,222.200 0.914 C 221.100 0.917,220.697 0.995,221.305 1.087 M165.100 3.082 C 165.595 3.178,166.405 3.178,166.900 3.082 C 167.395 2.987,166.990 2.909,166.000 2.909 C 165.010 2.909,164.605 2.987,165.100 3.082 M149.500 5.082 C 149.995 5.178,150.805 5.178,151.300 5.082 C 151.795 4.987,151.390 4.909,150.400 4.909 C 149.410 4.909,149.005 4.987,149.500 5.082 M139.000 6.800 L 137.800 7.105 138.876 7.153 C 139.468 7.179,140.064 7.020,140.200 6.800 C 140.336 6.580,140.392 6.421,140.324 6.447 C 140.256 6.473,139.660 6.632,139.000 6.800 M314.909 102.000 C 314.909 102.990,314.987 103.395,315.082 102.900 C 315.178 102.405,315.178 101.595,315.082 101.100 C 314.987 100.605,314.909 101.010,314.909 102.000 M314.893 126.800 C 314.893 127.570,314.975 127.885,315.076 127.500 C 315.176 127.115,315.176 126.485,315.076 126.100 C 314.975 125.715,314.893 126.030,314.893 126.800 M312.893 138.000 C 312.893 138.770,312.975 139.085,313.076 138.700 C 313.176 138.315,313.176 137.685,313.076 137.300 C 312.975 136.915,312.893 137.230,312.893 138.000 M295.700 363.087 C 296.305 363.178,297.295 363.178,297.900 363.087 C 298.505 362.995,298.010 362.920,296.800 362.920 C 295.590 362.920,295.095 362.995,295.700 363.087 M278.100 365.087 C 278.705 365.178,279.695 365.178,280.300 365.087 C 280.905 364.995,280.410 364.920,279.200 364.920 C 277.990 364.920,277.495 364.995,278.100 365.087 M252.912 367.095 C 253.964 367.177,255.584 367.176,256.512 367.092 C 257.440 367.008,256.580 366.941,254.600 366.942 C 252.620 366.943,251.860 367.012,252.912 367.095 M218.600 368.800 L 212.600 369.033 218.476 369.116 C 222.056 369.167,224.449 369.044,224.600 368.800 C 224.736 368.580,224.792 368.438,224.724 368.484 C 224.656 368.530,221.900 368.672,218.600 368.800 M85.731 371.100 C 99.333 371.158,121.473 371.158,134.931 371.100 C 148.389 371.042,137.260 370.994,110.200 370.994 C 83.140 370.994,72.129 371.042,85.731 371.100 " stroke="none" fill="#7c7c7c" fill-rule="evenodd"></path><path id="path4" d="M193.062 0.700 C 192.960 0.865,199.052 1.000,206.600 1.000 C 214.148 1.000,220.240 0.865,220.138 0.700 C 219.896 0.308,193.304 0.308,193.062 0.700 M167.861 2.700 C 167.758 2.865,168.693 2.949,169.937 2.887 C 173.844 2.692,174.315 2.522,171.124 2.460 C 169.432 2.427,167.963 2.535,167.861 2.700 M153.305 4.687 C 153.914 4.779,154.814 4.777,155.305 4.682 C 155.797 4.587,155.300 4.511,154.200 4.514 C 153.100 4.517,152.697 4.595,153.305 4.687 M294.655 47.400 C 295.580 48.979,295.600 49.003,295.600 48.511 C 295.600 48.279,295.229 47.664,294.776 47.144 L 293.953 46.200 294.655 47.400 M182.700 79.495 C 183.855 79.576,185.745 79.576,186.900 79.495 C 188.055 79.414,187.110 79.348,184.800 79.348 C 182.490 79.348,181.545 79.414,182.700 79.495 M315.193 105.719 L 315.385 107.800 315.518 106.046 C 315.591 105.081,315.505 104.144,315.326 103.965 C 315.147 103.785,315.087 104.575,315.193 105.719 M315.370 117.200 C 315.370 121.930,315.428 123.865,315.498 121.500 C 315.569 119.135,315.569 115.265,315.498 112.900 C 315.428 110.535,315.370 112.470,315.370 117.200 M222.493 123.600 C 222.493 124.370,222.575 124.685,222.676 124.300 C 222.776 123.915,222.776 123.285,222.676 122.900 C 222.575 122.515,222.493 122.830,222.493 123.600 M313.152 135.513 C 313.021 136.307,313.079 136.681,313.301 136.459 C 313.503 136.257,313.601 135.667,313.519 135.146 C 313.393 134.345,313.337 134.402,313.152 135.513 M300.867 171.980 C 300.633 172.651,300.527 173.200,300.631 173.200 C 300.901 173.200,301.656 171.122,301.457 170.924 C 301.367 170.833,301.101 171.308,300.867 171.980 M179.775 202.100 L 178.600 203.400 179.900 202.225 C 181.112 201.130,181.384 200.800,181.075 200.800 C 181.006 200.800,180.421 201.385,179.775 202.100 M171.385 211.300 L 169.400 213.400 171.500 211.415 C 172.655 210.323,173.600 209.378,173.600 209.315 C 173.600 209.017,173.229 209.349,171.385 211.300 M167.578 215.100 L 166.200 216.600 167.700 215.222 C 169.096 213.938,169.384 213.600,169.078 213.600 C 169.012 213.600,168.337 214.275,167.578 215.100 M161.375 220.900 L 160.200 222.200 161.500 221.025 C 162.712 219.930,162.984 219.600,162.675 219.600 C 162.606 219.600,162.021 220.185,161.375 220.900 M263.200 226.000 C 262.730 226.660,262.436 227.200,262.546 227.200 C 262.656 227.200,263.130 226.660,263.600 226.000 C 264.070 225.340,264.364 224.800,264.254 224.800 C 264.144 224.800,263.670 225.340,263.200 226.000 M153.578 228.300 L 152.200 229.800 153.700 228.422 C 155.096 227.138,155.384 226.800,155.078 226.800 C 155.012 226.800,154.337 227.475,153.578 228.300 M255.523 235.500 C 254.818 236.321,254.290 237.200,254.501 237.200 C 254.583 237.200,255.049 236.660,255.537 236.000 C 256.501 234.696,256.492 234.372,255.523 235.500 M139.591 241.900 L 136.200 245.400 139.700 242.009 C 142.951 238.859,143.382 238.400,143.091 238.400 C 143.031 238.400,141.456 239.975,139.591 241.900 M125.775 256.100 L 124.600 257.400 125.900 256.225 C 127.112 255.130,127.384 254.800,127.075 254.800 C 127.006 254.800,126.421 255.385,125.775 256.100 M117.178 265.500 L 115.800 267.000 117.300 265.622 C 118.696 264.338,118.984 264.000,118.678 264.000 C 118.612 264.000,117.937 264.675,117.178 265.500 M284.000 340.555 C 284.000 340.640,284.530 340.787,285.179 340.882 C 285.827 340.977,286.267 340.908,286.155 340.728 C 285.957 340.407,284.000 340.250,284.000 340.555 M311.452 359.516 C 311.344 359.690,311.873 359.761,312.628 359.673 C 313.383 359.585,314.000 359.442,314.000 359.356 C 314.000 359.055,311.645 359.203,311.452 359.516 M292.400 363.200 L 290.200 363.470 292.276 363.535 C 293.418 363.571,294.464 363.420,294.600 363.200 C 294.736 362.980,294.792 362.829,294.724 362.865 C 294.656 362.901,293.610 363.052,292.400 363.200 M274.105 365.487 C 274.714 365.579,275.614 365.577,276.105 365.482 C 276.597 365.387,276.100 365.311,275.000 365.314 C 273.900 365.317,273.497 365.395,274.105 365.487 M247.403 367.099 C 245.425 367.173,243.678 367.361,243.521 367.517 C 243.364 367.673,244.893 367.743,246.918 367.673 C 248.943 367.603,250.771 367.378,250.980 367.173 C 251.189 366.968,251.279 366.837,251.180 366.882 C 251.081 366.927,249.381 367.025,247.403 367.099 M206.600 369.200 L 200.600 369.433 206.476 369.516 C 210.056 369.567,212.449 369.444,212.600 369.200 C 212.736 368.980,212.792 368.838,212.724 368.884 C 212.656 368.930,209.900 369.072,206.600 369.200 " stroke="none" fill="#747474" fill-rule="evenodd"></path></g></svg>