<svg id="svg" version="1.1" xmlns="http://www.w3.org/2000/svg" xmlns:xlink="http://www.w3.org/1999/xlink" width="400" height="400" viewBox="0, 0, 400,400"><g id="svgg"><path id="path0" d="M183.800 10.400 C 183.664 10.620,181.949 10.800,179.989 10.800 C 176.278 10.800,168.388 11.768,167.000 12.393 C 166.560 12.592,163.950 13.068,161.200 13.452 C 158.450 13.836,156.110 14.255,156.000 14.384 C 155.890 14.513,154.180 15.031,152.200 15.535 C 146.329 17.031,141.841 18.251,141.200 18.527 C 140.870 18.669,139.520 19.046,138.200 19.364 C 136.075 19.878,133.163 20.943,129.400 22.583 C 128.740 22.870,127.480 23.334,126.600 23.613 C 125.720 23.893,124.640 24.341,124.200 24.610 C 123.760 24.879,122.545 25.341,121.500 25.637 C 120.455 25.933,119.600 26.296,119.600 26.444 C 119.600 26.592,119.105 26.837,118.500 26.987 C 117.546 27.225,108.579 32.430,103.501 35.694 C 102.566 36.295,101.530 36.914,101.200 37.069 C 100.870 37.224,98.964 38.711,96.964 40.375 C 94.965 42.039,92.651 43.940,91.824 44.600 C 90.996 45.260,90.112 45.983,89.860 46.207 C 89.607 46.430,88.748 47.150,87.952 47.807 C 87.155 48.463,85.363 50.350,83.971 52.000 C 82.578 53.650,79.891 56.800,78.000 59.000 C 75.823 61.533,73.265 65.200,71.023 69.000 C 69.077 72.300,66.991 75.810,66.389 76.800 C 65.787 77.790,64.841 79.770,64.287 81.200 C 63.733 82.630,62.111 86.770,60.683 90.400 C 59.187 94.203,57.819 98.441,57.455 100.400 C 57.107 102.270,56.465 105.510,56.027 107.600 C 55.302 111.056,55.270 111.906,55.671 116.991 L 56.113 122.583 59.481 126.232 L 62.850 129.881 65.725 130.387 C 67.306 130.666,69.407 131.164,70.394 131.494 C 72.302 132.134,77.830 132.230,78.571 131.637 C 78.807 131.448,80.980 131.174,83.400 131.027 C 87.870 130.756,91.866 130.119,92.611 129.559 C 92.837 129.389,94.367 128.948,96.011 128.578 C 97.655 128.209,99.185 127.759,99.411 127.578 C 99.637 127.398,101.167 126.961,102.811 126.608 C 104.455 126.255,106.116 125.792,106.503 125.578 C 106.890 125.364,109.320 124.912,111.903 124.572 C 114.486 124.233,116.960 123.797,117.400 123.603 C 122.131 121.519,146.372 121.513,151.000 123.595 C 151.440 123.793,152.607 124.078,153.593 124.228 C 155.079 124.455,160.520 127.199,166.109 130.540 C 169.365 132.487,176.458 140.686,179.095 145.551 C 182.768 152.328,182.925 152.686,184.633 158.160 L 186.117 162.921 185.881 168.560 C 185.630 174.569,183.694 180.849,181.120 184.011 C 177.671 188.247,174.617 191.289,172.200 192.895 C 167.303 196.148,164.614 197.978,164.117 198.395 C 163.851 198.618,163.536 198.800,163.418 198.800 C 163.299 198.800,160.791 199.970,157.845 201.400 C 154.899 202.830,152.379 204.000,152.246 204.000 C 152.112 204.000,150.273 205.341,148.159 206.981 C 146.045 208.620,144.184 210.015,144.024 210.081 C 143.331 210.364,140.097 217.145,140.227 218.041 C 140.304 218.568,140.479 219.884,140.617 220.964 C 140.923 223.353,144.741 227.485,149.400 230.467 C 150.940 231.452,153.261 232.948,154.558 233.789 C 156.814 235.254,158.528 236.197,165.200 239.645 C 167.117 240.636,169.388 242.316,171.491 244.298 L 174.783 247.400 175.025 250.600 L 175.267 253.800 172.803 256.686 C 171.448 258.273,169.768 259.917,169.070 260.339 C 166.236 262.052,158.425 265.956,155.800 266.972 C 154.260 267.568,152.460 268.292,151.800 268.581 C 151.140 268.869,149.955 269.311,149.167 269.562 C 148.379 269.812,147.039 270.372,146.190 270.805 C 145.340 271.238,144.050 271.704,143.322 271.841 C 142.595 271.977,142.000 272.214,142.000 272.367 C 142.000 272.521,140.695 272.977,139.100 273.382 C 137.505 273.787,136.020 274.252,135.800 274.416 C 135.580 274.580,134.230 275.031,132.800 275.420 C 131.370 275.808,130.020 276.251,129.800 276.406 C 129.580 276.560,128.140 277.016,126.600 277.418 C 125.060 277.821,123.710 278.255,123.600 278.383 C 123.490 278.511,122.500 278.913,121.400 279.276 C 119.333 279.958,115.393 281.526,112.600 282.778 C 111.720 283.173,110.550 283.631,110.000 283.797 C 109.450 283.962,108.820 284.232,108.600 284.397 C 108.380 284.561,107.480 284.920,106.600 285.193 C 104.520 285.840,85.430 295.372,81.575 297.689 C 79.939 298.672,76.710 300.534,74.400 301.828 C 72.090 303.121,68.700 305.263,66.868 306.589 C 65.035 307.915,63.146 309.270,62.671 309.600 C 60.129 311.364,53.756 316.233,47.158 321.450 L 39.717 327.336 41.558 328.729 C 42.571 329.495,43.950 330.589,44.622 331.161 C 45.294 331.732,46.447 332.650,47.185 333.200 C 47.923 333.750,48.993 334.593,49.563 335.074 C 52.661 337.686,55.319 339.619,58.000 341.209 C 59.650 342.188,61.180 343.140,61.400 343.324 C 61.620 343.509,62.520 344.087,63.400 344.609 C 67.076 346.790,67.886 347.282,69.600 348.377 C 70.590 349.009,74.010 350.861,77.200 352.492 C 80.390 354.123,84.980 356.471,87.400 357.708 C 89.820 358.946,93.510 360.604,95.600 361.391 C 97.690 362.179,100.120 363.160,101.000 363.571 C 101.880 363.981,103.050 364.446,103.600 364.603 C 104.150 364.760,105.140 365.126,105.800 365.417 C 109.741 367.149,113.905 368.593,122.400 371.174 C 124.710 371.875,127.590 372.784,128.800 373.192 C 130.010 373.601,132.170 374.248,133.600 374.630 C 135.030 375.012,136.380 375.454,136.600 375.611 C 136.820 375.768,138.429 376.210,140.176 376.593 C 141.923 376.975,143.633 377.437,143.976 377.618 C 144.319 377.799,146.130 378.322,148.000 378.780 C 154.497 380.371,156.215 380.821,158.846 381.625 C 161.443 382.418,162.931 382.700,174.200 384.536 C 177.280 385.038,180.070 385.565,180.400 385.709 C 181.247 386.077,191.920 387.496,201.600 388.527 C 206.110 389.007,210.070 389.574,210.400 389.787 C 211.950 390.786,253.231 390.516,254.236 389.500 C 254.400 389.335,255.888 389.200,257.544 389.200 C 260.867 389.200,269.741 388.147,271.000 387.604 C 271.440 387.414,274.410 386.962,277.600 386.599 C 280.790 386.236,283.717 385.770,284.105 385.563 C 284.493 385.356,286.099 384.916,287.675 384.584 C 289.251 384.253,290.734 383.834,290.970 383.653 C 291.207 383.472,292.930 383.005,294.800 382.615 C 296.670 382.225,298.380 381.766,298.600 381.595 C 298.820 381.424,300.530 380.976,302.400 380.600 C 304.270 380.224,305.980 379.772,306.200 379.596 C 306.420 379.420,307.680 378.977,309.000 378.613 C 310.320 378.249,311.760 377.793,312.200 377.600 C 312.640 377.407,314.080 376.958,315.400 376.603 C 316.720 376.247,318.340 375.710,319.000 375.411 C 319.660 375.111,320.920 374.741,321.800 374.588 C 322.680 374.435,323.760 374.091,324.200 373.824 C 324.640 373.557,325.990 373.027,327.200 372.646 C 328.410 372.266,330.163 371.605,331.096 371.177 C 332.028 370.750,333.021 370.400,333.302 370.400 C 333.582 370.400,334.439 370.068,335.206 369.661 C 335.973 369.255,337.140 368.797,337.800 368.644 C 338.460 368.491,340.890 367.453,343.200 366.337 C 345.510 365.220,348.480 363.808,349.800 363.197 C 359.281 358.809,368.800 353.786,368.800 353.170 C 368.800 352.967,369.046 352.800,369.346 352.800 C 369.646 352.800,370.375 352.420,370.965 351.956 C 371.555 351.492,372.656 350.811,373.412 350.444 C 374.982 349.680,382.800 342.133,382.800 341.382 C 382.800 341.109,383.056 340.787,383.370 340.667 C 383.683 340.547,384.236 339.824,384.598 339.061 C 384.960 338.297,385.604 337.358,386.028 336.974 C 386.453 336.590,386.801 335.899,386.802 335.438 C 386.804 334.977,387.075 334.083,387.404 333.451 C 389.611 329.220,389.724 314.999,387.582 311.105 C 387.372 310.723,387.197 310.093,387.194 309.705 C 387.187 308.887,386.086 305.596,385.621 305.003 C 385.447 304.781,385.078 303.880,384.802 303.000 C 383.767 299.706,379.682 291.200,379.134 291.200 C 378.950 291.200,378.800 291.042,378.800 290.849 C 378.800 289.358,375.223 283.678,370.502 277.670 C 369.348 276.201,368.403 274.807,368.402 274.572 C 368.401 274.337,367.995 273.776,367.500 273.326 C 367.005 272.876,364.895 270.549,362.812 268.154 C 358.736 263.470,348.780 254.105,347.291 253.555 C 346.791 253.370,346.277 252.945,346.148 252.610 C 346.020 252.274,345.727 252.000,345.498 252.000 C 345.270 252.000,344.314 251.370,343.374 250.600 C 342.434 249.830,341.514 249.200,341.329 249.200 C 341.144 249.200,340.768 248.840,340.493 248.400 C 340.218 247.960,339.735 247.600,339.419 247.600 C 339.104 247.600,338.610 247.270,338.323 246.866 C 338.035 246.463,336.945 245.809,335.900 245.412 C 334.855 245.016,334.000 244.531,334.000 244.336 C 334.000 244.140,333.557 243.812,333.016 243.606 C 332.475 243.400,330.720 242.475,329.116 241.549 C 326.624 240.111,313.312 233.200,309.300 231.261 C 308.585 230.916,308.000 230.493,308.000 230.322 C 308.000 230.151,307.415 229.729,306.700 229.384 C 303.800 227.986,302.790 227.223,299.545 223.984 C 290.514 214.966,290.892 209.126,301.161 199.009 C 302.943 197.255,304.401 195.635,304.402 195.409 C 304.404 195.065,307.550 190.823,309.303 188.800 C 309.590 188.470,310.065 187.480,310.361 186.600 C 310.657 185.720,311.117 184.730,311.383 184.400 C 311.650 184.070,312.108 183.170,312.400 182.400 C 312.692 181.630,313.143 180.730,313.401 180.400 C 313.659 180.070,314.099 178.720,314.379 177.400 C 314.659 176.080,315.223 174.255,315.633 173.345 C 316.043 172.435,316.572 170.365,316.809 168.745 C 317.046 167.125,317.399 165.440,317.593 165.000 C 318.175 163.686,318.731 159.327,319.020 153.800 C 319.170 150.940,319.461 148.391,319.666 148.136 C 319.900 147.844,319.883 147.575,319.619 147.412 C 319.365 147.255,319.202 145.312,319.205 142.476 C 319.210 137.262,318.121 124.155,317.599 123.156 C 317.415 122.802,316.952 120.912,316.572 118.956 C 316.193 117.000,315.744 115.220,315.577 115.000 C 315.409 114.780,315.156 113.880,315.015 113.000 C 314.646 110.695,313.923 107.865,313.585 107.400 C 313.425 107.180,312.998 105.686,312.637 104.079 C 312.276 102.473,311.823 100.853,311.630 100.479 C 311.436 100.106,311.052 98.990,310.776 98.000 C 310.500 97.010,310.059 95.840,309.797 95.400 C 309.536 94.960,309.092 93.880,308.811 93.000 C 308.530 92.120,307.873 90.450,307.350 89.288 C 306.828 88.127,306.400 87.032,306.400 86.856 C 306.400 86.680,305.050 83.883,303.400 80.640 C 301.750 77.396,300.400 74.574,300.400 74.368 C 300.400 74.162,299.860 73.248,299.200 72.337 C 298.540 71.425,298.000 70.536,298.000 70.359 C 298.000 70.183,297.190 68.880,296.200 67.463 C 295.210 66.047,294.400 64.771,294.400 64.628 C 294.400 64.116,291.048 59.682,289.206 57.758 C 288.763 57.295,288.400 56.786,288.400 56.628 C 288.400 55.011,270.968 37.643,267.388 35.693 C 266.954 35.457,265.345 34.260,263.811 33.032 C 262.276 31.804,260.811 30.800,260.553 30.800 C 260.296 30.800,259.982 30.530,259.855 30.200 C 259.729 29.870,259.419 29.600,259.166 29.600 C 258.914 29.600,257.849 28.970,256.800 28.200 C 255.751 27.430,254.692 26.800,254.446 26.800 C 254.201 26.800,254.000 26.633,254.000 26.429 C 254.000 26.003,254.036 26.023,245.000 21.441 C 241.260 19.544,237.142 17.713,235.849 17.372 C 234.556 17.031,233.116 16.510,232.649 16.215 C 232.182 15.920,231.170 15.550,230.400 15.394 C 229.630 15.237,228.210 14.754,227.245 14.320 C 226.280 13.885,224.300 13.357,222.845 13.145 C 221.390 12.933,219.840 12.598,219.400 12.400 C 218.960 12.202,216.620 11.736,214.200 11.364 C 211.780 10.992,209.629 10.533,209.420 10.344 C 208.871 9.847,184.108 9.902,183.800 10.400 " stroke="none" fill="#040404" fill-rule="evenodd"></path><path id="path1" d="M0.000 200.000 L 0.000 400.000 200.000 400.000 L 400.000 400.000 400.000 200.000 L 400.000 0.000 200.000 0.000 L 0.000 0.000 0.000 200.000 M212.200 10.626 C 214.400 10.967,216.560 11.411,217.000 11.613 C 217.440 11.814,219.576 12.232,221.747 12.542 C 223.918 12.851,225.808 13.276,225.947 13.486 C 226.086 13.695,227.505 14.201,229.100 14.610 C 230.695 15.020,232.000 15.473,232.000 15.618 C 232.000 15.763,233.215 16.207,234.700 16.605 C 236.185 17.002,237.490 17.442,237.600 17.581 C 237.710 17.720,238.589 18.088,239.553 18.398 C 240.517 18.709,241.507 19.164,241.753 19.410 C 241.999 19.656,243.055 20.184,244.100 20.583 C 245.145 20.982,246.000 21.429,246.000 21.575 C 246.000 21.722,246.900 22.166,248.000 22.561 C 249.100 22.957,250.002 23.397,250.004 23.540 C 250.006 23.683,250.816 24.155,251.804 24.590 C 252.792 25.024,253.600 25.525,253.600 25.702 C 253.600 25.880,253.915 26.138,254.300 26.276 C 254.685 26.414,255.834 27.128,256.854 27.863 C 257.873 28.598,258.908 29.200,259.154 29.200 C 259.399 29.200,259.600 29.384,259.600 29.610 C 259.600 29.835,260.027 30.182,260.548 30.380 C 261.069 30.578,262.507 31.564,263.742 32.570 C 264.978 33.577,266.170 34.400,266.391 34.400 C 266.612 34.400,267.018 34.760,267.293 35.200 C 267.568 35.640,268.006 36.000,268.267 36.000 C 268.528 36.000,269.096 36.450,269.529 37.000 C 269.961 37.550,270.451 38.000,270.616 38.000 C 270.782 38.000,271.686 38.630,272.626 39.400 C 273.566 40.170,274.529 40.800,274.767 40.800 C 275.005 40.800,275.200 41.029,275.200 41.308 C 275.200 41.588,276.838 43.433,278.840 45.408 C 282.459 48.979,285.906 52.800,288.200 55.783 C 288.860 56.641,289.715 57.671,290.100 58.072 C 290.485 58.472,290.800 58.949,290.800 59.130 C 290.800 59.312,291.267 59.897,291.838 60.430 C 292.409 60.964,293.148 61.923,293.481 62.562 C 293.813 63.202,294.426 64.091,294.843 64.538 C 295.259 64.985,295.600 65.555,295.600 65.804 C 295.600 66.053,296.135 66.965,296.789 67.829 C 297.443 68.693,297.983 69.625,297.989 69.900 C 297.995 70.175,298.180 70.400,298.400 70.400 C 298.620 70.400,298.800 70.608,298.800 70.862 C 298.800 71.116,299.220 71.881,299.732 72.562 C 300.245 73.243,301.001 74.745,301.411 75.900 C 301.822 77.055,302.284 78.000,302.439 78.000 C 302.593 78.000,303.043 78.900,303.439 80.000 C 303.834 81.100,304.278 82.000,304.425 82.000 C 304.571 82.000,305.014 82.855,305.409 83.900 C 305.804 84.945,306.241 85.890,306.380 86.000 C 306.519 86.110,306.888 87.010,307.200 88.000 C 307.511 88.990,308.159 90.610,308.640 91.600 C 309.121 92.590,309.638 93.985,309.789 94.700 C 309.940 95.415,310.190 96.000,310.344 96.000 C 310.611 96.000,311.262 97.984,311.852 100.600 C 312.001 101.260,312.243 101.890,312.388 102.000 C 312.534 102.110,312.982 103.640,313.383 105.400 C 313.784 107.160,314.266 108.796,314.453 109.037 C 314.640 109.277,315.070 110.987,315.409 112.837 C 315.748 114.686,316.199 116.560,316.410 117.000 C 317.006 118.237,318.000 123.458,318.000 125.346 C 318.000 126.278,318.152 127.211,318.339 127.420 C 319.904 129.176,319.976 159.922,318.421 162.689 C 318.201 163.080,317.737 165.283,317.389 167.585 C 317.041 169.887,316.605 171.957,316.421 172.185 C 316.237 172.413,315.770 173.770,315.384 175.200 C 314.997 176.630,314.528 177.971,314.341 178.180 C 314.153 178.389,314.000 178.851,314.000 179.206 C 314.000 179.561,313.101 181.640,312.003 183.826 C 310.905 186.012,310.005 187.960,310.003 188.156 C 310.001 188.351,309.010 189.737,307.800 191.234 C 306.590 192.732,305.600 194.146,305.600 194.378 C 305.600 194.609,303.473 197.021,300.874 199.739 C 298.275 202.457,295.843 205.323,295.470 206.108 C 295.098 206.893,294.570 207.610,294.296 207.701 C 293.671 207.910,293.592 215.885,294.211 216.315 C 294.437 216.472,294.974 217.398,295.405 218.373 C 296.555 220.979,302.747 227.070,305.803 228.600 C 306.681 229.040,307.506 229.543,307.635 229.719 C 307.943 230.135,308.926 230.657,318.201 235.327 C 322.490 237.486,326.000 239.392,326.000 239.563 C 326.000 239.733,326.739 240.116,327.643 240.414 C 328.546 240.712,329.361 241.153,329.453 241.394 C 329.546 241.635,330.516 242.180,331.611 242.604 C 332.705 243.029,333.600 243.490,333.600 243.628 C 333.600 243.767,334.759 244.469,336.175 245.188 C 337.592 245.906,339.078 246.788,339.477 247.147 C 340.528 248.092,344.678 251.297,345.760 252.000 C 348.047 253.485,349.243 254.478,353.833 258.700 C 356.523 261.175,358.921 263.200,359.162 263.200 C 359.403 263.200,359.600 263.392,359.600 263.628 C 359.600 264.006,362.330 267.229,367.842 273.354 C 368.809 274.429,369.600 275.475,369.600 275.677 C 369.600 275.879,370.500 277.157,371.600 278.517 C 372.700 279.876,373.600 281.210,373.600 281.480 C 373.600 281.751,373.960 282.165,374.400 282.400 C 374.840 282.635,375.200 283.070,375.200 283.365 C 375.200 283.660,375.499 284.149,375.865 284.451 C 376.230 284.753,376.943 285.900,377.449 287.000 C 378.390 289.046,380.033 292.041,380.411 292.400 C 380.527 292.510,380.972 293.410,381.400 294.400 C 381.827 295.390,382.387 296.332,382.643 296.494 C 382.899 296.656,383.228 297.424,383.374 298.200 C 383.519 298.975,384.060 300.463,384.577 301.505 C 385.093 302.547,385.638 303.985,385.789 304.700 C 385.940 305.415,386.190 306.000,386.344 306.000 C 386.674 306.000,387.473 308.714,387.817 311.000 C 387.949 311.880,388.213 312.960,388.403 313.400 C 389.958 317.007,389.933 331.600,388.372 331.600 C 388.227 331.600,387.882 332.673,387.603 333.984 C 387.325 335.296,386.760 336.674,386.349 337.046 C 385.937 337.419,385.600 337.902,385.600 338.120 C 385.600 339.513,375.754 349.726,373.000 351.189 C 372.340 351.540,371.039 352.316,370.108 352.913 C 369.177 353.511,368.232 354.000,368.008 354.000 C 367.784 354.000,367.600 354.162,367.600 354.361 C 367.600 354.983,349.928 363.878,345.200 365.634 C 344.430 365.920,343.710 366.260,343.600 366.388 C 343.490 366.517,342.590 366.972,341.600 367.400 C 340.610 367.828,339.710 368.278,339.600 368.400 C 339.490 368.522,338.320 368.952,337.000 369.356 C 335.680 369.759,334.420 370.220,334.200 370.379 C 333.980 370.538,332.720 370.993,331.400 371.389 C 330.080 371.786,328.798 372.268,328.551 372.461 C 328.305 372.654,327.135 373.099,325.951 373.450 C 324.768 373.800,323.710 374.204,323.600 374.347 C 323.490 374.489,322.050 374.942,320.400 375.352 C 318.750 375.762,317.208 376.251,316.972 376.438 C 316.737 376.625,315.299 377.067,313.776 377.420 C 312.253 377.773,310.825 378.212,310.603 378.395 C 310.382 378.579,309.030 379.031,307.600 379.400 C 306.170 379.769,304.820 380.207,304.600 380.374 C 304.380 380.540,302.670 380.995,300.800 381.385 C 298.930 381.775,297.220 382.234,297.000 382.405 C 296.780 382.576,295.070 383.025,293.200 383.403 C 291.330 383.781,289.710 384.214,289.600 384.367 C 289.350 384.713,283.339 386.000,281.971 386.000 C 281.415 386.000,280.789 386.160,280.580 386.357 C 280.371 386.553,277.680 387.012,274.600 387.377 C 271.520 387.742,268.640 388.202,268.200 388.398 C 266.937 388.962,261.189 389.531,253.800 389.823 C 250.060 389.971,246.791 390.260,246.536 390.465 C 245.962 390.926,214.733 390.926,214.421 390.464 C 214.299 390.284,210.510 389.812,206.000 389.414 C 201.490 389.016,197.620 388.559,197.400 388.399 C 197.180 388.239,195.470 387.991,193.600 387.849 C 189.437 387.531,184.011 386.826,183.200 386.496 C 182.644 386.271,179.440 385.726,166.418 383.644 C 163.679 383.206,161.069 382.667,160.618 382.445 C 160.168 382.223,158.360 381.739,156.600 381.369 C 154.840 381.000,153.220 380.563,153.000 380.400 C 152.780 380.237,151.160 379.790,149.400 379.407 C 147.640 379.023,145.892 378.548,145.516 378.349 C 145.140 378.151,143.430 377.702,141.716 377.351 C 140.002 377.000,138.420 376.577,138.200 376.411 C 137.980 376.245,136.450 375.790,134.800 375.400 C 133.150 375.010,131.620 374.555,131.400 374.390 C 131.016 374.101,128.522 373.333,122.300 371.586 C 120.705 371.138,119.130 370.628,118.800 370.452 C 118.470 370.276,116.940 369.798,115.400 369.391 C 113.860 368.983,112.510 368.541,112.400 368.408 C 112.290 368.275,111.390 367.921,110.400 367.620 C 109.410 367.320,108.240 366.859,107.800 366.597 C 107.360 366.336,106.280 365.893,105.400 365.613 C 104.520 365.334,103.260 364.866,102.600 364.572 C 101.294 363.992,97.929 362.662,95.414 361.731 C 94.541 361.409,92.871 360.707,91.702 360.172 C 90.533 359.637,89.414 359.200,89.217 359.200 C 89.019 359.200,88.614 358.975,88.317 358.700 C 88.020 358.425,84.363 356.490,80.189 354.400 C 76.015 352.310,72.540 350.465,72.467 350.300 C 72.393 350.135,72.157 350.000,71.942 350.000 C 71.727 350.000,69.571 348.785,67.152 347.300 C 64.732 345.815,61.368 343.758,59.676 342.728 C 57.984 341.698,56.420 340.707,56.200 340.525 C 55.980 340.343,55.277 339.858,54.637 339.447 C 53.998 339.036,50.266 336.129,46.344 332.988 L 39.213 327.276 42.507 324.642 C 44.318 323.193,46.250 321.660,46.800 321.234 C 47.738 320.508,52.351 316.836,54.261 315.295 C 54.734 314.913,56.513 313.610,58.215 312.400 C 59.916 311.190,62.949 308.971,64.954 307.469 C 66.959 305.967,69.917 303.987,71.527 303.069 C 73.137 302.151,74.757 301.219,75.127 300.997 C 82.260 296.723,103.230 285.928,106.942 284.618 C 109.559 283.695,113.705 282.015,114.800 281.434 C 115.350 281.142,116.520 280.677,117.400 280.399 C 118.280 280.122,119.180 279.763,119.400 279.601 C 119.620 279.439,120.790 278.996,122.000 278.618 C 123.210 278.239,124.767 277.675,125.460 277.365 C 126.154 277.054,126.910 276.800,127.141 276.800 C 127.643 276.800,136.259 274.064,137.400 273.542 C 137.840 273.341,139.100 272.925,140.200 272.618 C 141.996 272.116,145.266 270.870,148.600 269.417 C 149.260 269.130,150.520 268.670,151.400 268.395 C 152.280 268.120,153.198 267.739,153.441 267.548 C 153.684 267.356,154.854 266.885,156.041 266.500 C 157.228 266.115,159.758 264.945,161.662 263.900 C 163.565 262.855,165.298 262.000,165.513 262.000 C 165.727 262.000,166.102 261.760,166.345 261.466 C 166.589 261.172,167.511 260.693,168.394 260.402 C 169.277 260.110,170.000 259.754,170.000 259.610 C 170.000 259.466,171.065 258.083,172.366 256.537 L 174.733 253.726 174.513 250.523 L 174.294 247.321 170.977 244.260 C 169.153 242.577,167.479 241.200,167.259 241.200 C 167.038 241.200,166.617 240.975,166.324 240.700 C 166.030 240.425,163.883 239.252,161.552 238.092 C 159.221 236.933,156.433 235.421,155.357 234.731 C 148.278 230.196,146.255 228.701,143.440 225.928 L 140.281 222.815 140.082 219.717 C 139.642 212.866,144.863 207.262,157.288 201.249 C 160.526 199.682,163.268 198.400,163.380 198.400 C 163.492 198.400,164.933 197.455,166.582 196.300 C 168.231 195.145,170.756 193.390,172.192 192.400 C 174.999 190.465,181.686 183.244,182.194 181.600 C 182.364 181.050,183.103 179.140,183.838 177.355 C 185.466 173.398,186.357 164.585,185.390 162.001 C 185.102 161.231,184.235 158.620,183.465 156.200 C 182.541 153.298,181.032 149.935,179.032 146.320 C 177.364 143.307,176.000 140.765,176.000 140.672 C 176.000 138.971,164.996 130.085,159.400 127.267 C 158.740 126.935,158.110 126.559,158.000 126.431 C 157.470 125.819,155.171 124.800,154.318 124.800 C 153.791 124.800,153.189 124.642,152.980 124.450 C 152.771 124.257,150.800 123.788,148.600 123.407 C 146.400 123.026,144.429 122.553,144.220 122.357 C 143.728 121.895,127.081 121.889,126.580 122.350 C 126.371 122.543,123.770 123.002,120.800 123.372 C 117.830 123.741,115.040 124.196,114.600 124.383 C 114.160 124.569,111.820 125.025,109.400 125.396 C 106.980 125.766,104.809 126.227,104.576 126.421 C 104.343 126.614,102.723 127.081,100.976 127.459 C 99.229 127.837,97.710 128.263,97.600 128.404 C 97.490 128.546,96.050 128.975,94.400 129.359 C 92.750 129.742,90.860 130.290,90.200 130.575 C 89.540 130.861,85.535 131.328,81.300 131.613 C 77.016 131.901,73.600 132.301,73.600 132.515 C 73.600 132.753,73.410 132.748,73.100 132.502 C 72.825 132.285,70.845 131.796,68.701 131.417 C 66.556 131.037,64.701 130.563,64.577 130.363 C 64.454 130.163,63.929 130.000,63.411 130.000 C 62.417 130.000,56.629 124.204,55.998 122.577 C 55.108 120.284,54.650 111.360,55.299 108.964 C 55.651 107.664,56.151 105.250,56.410 103.600 C 57.353 97.608,63.133 81.556,66.256 76.260 C 66.885 75.194,67.732 73.754,68.138 73.060 C 72.662 65.336,74.920 61.937,77.523 58.934 C 79.215 56.981,81.725 54.021,83.100 52.357 C 85.514 49.434,98.630 38.132,101.924 36.136 C 102.736 35.644,104.030 34.870,104.800 34.417 C 106.562 33.378,107.368 32.875,109.465 31.500 C 110.389 30.895,111.229 30.400,111.332 30.400 C 111.435 30.400,112.663 29.679,114.060 28.798 C 116.953 26.972,116.621 27.130,121.400 25.319 C 123.380 24.568,125.540 23.716,126.200 23.424 C 126.860 23.133,128.120 22.666,129.000 22.387 C 129.880 22.107,130.960 21.652,131.400 21.374 C 131.840 21.096,133.010 20.637,134.000 20.354 C 134.990 20.071,135.890 19.725,136.000 19.585 C 136.110 19.446,137.730 18.951,139.600 18.485 C 141.470 18.019,144.530 17.258,146.400 16.793 C 148.270 16.328,150.090 15.794,150.444 15.605 C 150.798 15.417,152.598 14.959,154.444 14.588 C 156.290 14.217,158.160 13.765,158.600 13.583 C 159.040 13.401,161.560 12.946,164.200 12.572 C 166.840 12.197,169.180 11.760,169.400 11.600 C 171.550 10.037,203.678 9.306,212.200 10.626 " stroke="none" fill="#fbfbfb" fill-rule="evenodd"></path><path id="path2" d="M212.400 10.955 C 212.400 11.040,212.930 11.187,213.579 11.282 C 214.227 11.377,214.667 11.308,214.555 11.128 C 214.357 10.807,212.400 10.650,212.400 10.955 M222.900 13.076 C 223.285 13.176,223.915 13.176,224.300 13.076 C 224.685 12.975,224.370 12.893,223.600 12.893 C 222.830 12.893,222.515 12.975,222.900 13.076 M121.300 123.076 C 121.685 123.176,122.315 123.176,122.700 123.076 C 123.085 122.975,122.770 122.893,122.000 122.893 C 121.230 122.893,120.915 122.975,121.300 123.076 M109.300 125.076 C 109.685 125.176,110.315 125.176,110.700 125.076 C 111.085 124.975,110.770 124.893,110.000 124.893 C 109.230 124.893,108.915 124.975,109.300 125.076 M84.691 131.089 C 85.401 131.177,86.661 131.179,87.491 131.092 C 88.321 131.005,87.740 130.933,86.200 130.931 C 84.660 130.929,83.981 131.000,84.691 131.089 M318.793 133.319 L 318.985 135.400 319.118 133.646 C 319.191 132.681,319.105 131.744,318.926 131.565 C 318.747 131.385,318.687 132.175,318.793 133.319 M318.934 157.200 C 318.934 158.850,319.005 159.525,319.091 158.700 C 319.178 157.875,319.178 156.525,319.091 155.700 C 319.005 154.875,318.934 155.550,318.934 157.200 M316.901 169.000 C 316.905 169.880,316.987 170.193,317.083 169.695 C 317.179 169.198,317.175 168.478,317.075 168.095 C 316.975 167.713,316.896 168.120,316.901 169.000 M388.893 317.200 C 388.893 317.970,388.975 318.285,389.076 317.900 C 389.176 317.515,389.176 316.885,389.076 316.500 C 388.975 316.115,388.893 316.430,388.893 317.200 M186.900 387.076 C 187.285 387.176,187.915 387.176,188.300 387.076 C 188.685 386.975,188.370 386.893,187.600 386.893 C 186.830 386.893,186.515 386.975,186.900 387.076 M275.300 387.076 C 275.685 387.176,276.315 387.176,276.700 387.076 C 277.085 386.975,276.770 386.893,276.000 386.893 C 275.230 386.893,274.915 386.975,275.300 387.076 M202.905 389.087 C 203.514 389.179,204.414 389.177,204.905 389.082 C 205.397 388.987,204.900 388.911,203.800 388.914 C 202.700 388.917,202.297 388.995,202.905 389.087 M262.900 389.076 C 263.285 389.176,263.915 389.176,264.300 389.076 C 264.685 388.975,264.370 388.893,263.600 388.893 C 262.830 388.893,262.515 388.975,262.900 389.076 " stroke="none" fill="#848484" fill-rule="evenodd"></path><path id="path3" d="M171.000 11.091 C 170.340 11.185,169.651 11.406,169.468 11.583 C 169.285 11.760,169.877 11.769,170.784 11.603 C 172.127 11.357,173.807 10.657,172.567 10.860 C 172.365 10.893,171.660 10.997,171.000 11.091 M159.300 13.476 C 159.685 13.576,160.315 13.576,160.700 13.476 C 161.085 13.375,160.770 13.293,160.000 13.293 C 159.230 13.293,158.915 13.375,159.300 13.476 M286.364 53.933 C 286.580 54.336,287.071 54.921,287.455 55.233 C 287.887 55.584,287.790 55.304,287.201 54.500 C 286.151 53.065,285.757 52.798,286.364 53.933 M57.029 99.829 C 56.881 100.415,56.838 100.972,56.932 101.066 C 57.027 101.160,57.224 100.758,57.371 100.171 C 57.519 99.585,57.562 99.028,57.468 98.934 C 57.373 98.840,57.176 99.242,57.029 99.829 M55.029 109.829 C 54.881 110.415,54.838 110.972,54.932 111.066 C 55.027 111.160,55.224 110.758,55.371 110.171 C 55.519 109.585,55.562 109.028,55.468 108.934 C 55.373 108.840,55.176 109.242,55.029 109.829 M54.893 114.000 C 54.893 114.770,54.975 115.085,55.076 114.700 C 55.176 114.315,55.176 113.685,55.076 113.300 C 54.975 112.915,54.893 113.230,54.893 114.000 M55.301 117.400 C 55.305 118.280,55.387 118.593,55.483 118.095 C 55.579 117.598,55.575 116.878,55.475 116.495 C 55.375 116.113,55.296 116.520,55.301 117.400 M125.200 122.293 C 123.231 122.524,122.875 123.052,124.813 122.867 C 125.689 122.784,126.505 122.555,126.626 122.358 C 126.748 122.161,126.792 122.029,126.724 122.064 C 126.656 122.099,125.970 122.202,125.200 122.293 M144.400 122.555 C 144.400 122.640,144.930 122.787,145.579 122.882 C 146.227 122.977,146.667 122.908,146.555 122.728 C 146.357 122.407,144.400 122.250,144.400 122.555 M113.200 124.293 C 111.231 124.524,110.875 125.052,112.813 124.867 C 113.689 124.784,114.505 124.555,114.626 124.358 C 114.748 124.161,114.792 124.029,114.724 124.064 C 114.656 124.099,113.970 124.202,113.200 124.293 M153.141 124.501 C 153.343 124.703,153.933 124.801,154.454 124.719 C 155.255 124.593,155.198 124.537,154.087 124.352 C 153.293 124.221,152.919 124.279,153.141 124.501 M318.393 129.319 L 318.585 131.400 318.718 129.646 C 318.791 128.681,318.705 127.744,318.526 127.565 C 318.347 127.385,318.287 128.175,318.393 129.319 M64.833 130.544 C 64.925 130.623,65.540 130.808,66.200 130.956 C 67.076 131.152,67.238 131.115,66.800 130.818 C 66.260 130.453,64.432 130.198,64.833 130.544 M318.368 161.300 C 318.249 162.160,318.310 162.650,318.512 162.448 C 318.705 162.255,318.798 161.581,318.719 160.949 C 318.587 159.891,318.559 159.919,318.368 161.300 M185.693 166.000 C 185.693 166.770,185.775 167.085,185.876 166.700 C 185.976 166.315,185.976 165.685,185.876 165.300 C 185.775 164.915,185.693 165.230,185.693 166.000 M185.301 172.600 C 185.305 173.480,185.387 173.793,185.483 173.295 C 185.579 172.798,185.575 172.078,185.475 171.695 C 185.375 171.313,185.296 171.720,185.301 172.600 M309.123 189.100 C 308.418 189.921,307.890 190.800,308.101 190.800 C 308.183 190.800,308.649 190.260,309.137 189.600 C 310.101 188.296,310.092 187.972,309.123 189.100 M304.175 195.868 C 303.559 196.676,303.259 197.211,303.509 197.056 C 304.021 196.740,305.753 194.400,305.475 194.400 C 305.376 194.400,304.791 195.061,304.175 195.868 M388.368 314.700 C 388.559 316.081,388.587 316.109,388.719 315.051 C 388.798 314.419,388.705 313.745,388.512 313.552 C 388.310 313.350,388.249 313.840,388.368 314.700 M384.175 339.868 C 383.559 340.676,383.259 341.211,383.509 341.056 C 384.021 340.740,385.753 338.400,385.475 338.400 C 385.376 338.400,384.791 339.061,384.175 339.868 M118.606 370.410 C 118.706 370.572,119.235 370.790,119.782 370.894 C 120.329 370.999,120.694 370.952,120.594 370.790 C 120.494 370.628,119.965 370.410,119.418 370.306 C 118.871 370.201,118.506 370.248,118.606 370.410 M321.445 374.728 C 321.333 374.908,321.773 374.977,322.421 374.882 C 323.070 374.787,323.600 374.640,323.600 374.555 C 323.600 374.250,321.643 374.407,321.445 374.728 M138.206 376.410 C 138.306 376.572,138.835 376.790,139.382 376.894 C 139.929 376.999,140.294 376.952,140.194 376.790 C 140.094 376.628,139.565 376.410,139.018 376.306 C 138.471 376.201,138.106 376.248,138.206 376.410 M153.006 380.410 C 153.106 380.572,153.635 380.790,154.182 380.894 C 154.729 380.999,155.094 380.952,154.994 380.790 C 154.894 380.628,154.365 380.410,153.818 380.306 C 153.271 380.201,152.906 380.248,153.006 380.410 M171.633 384.543 C 171.725 384.622,172.520 384.797,173.400 384.932 C 174.490 385.099,174.809 385.055,174.400 384.795 C 173.853 384.446,171.245 384.209,171.633 384.543 M287.445 384.728 C 287.333 384.908,287.773 384.977,288.421 384.882 C 289.070 384.787,289.600 384.640,289.600 384.555 C 289.600 384.250,287.643 384.407,287.445 384.728 M279.200 386.293 C 277.231 386.524,276.875 387.052,278.813 386.867 C 279.689 386.784,280.505 386.555,280.626 386.358 C 280.748 386.161,280.792 386.029,280.724 386.064 C 280.656 386.099,279.970 386.202,279.200 386.293 M183.200 386.558 C 183.200 386.645,183.905 386.783,184.766 386.865 C 185.628 386.948,186.247 386.876,186.143 386.707 C 185.953 386.400,183.200 386.260,183.200 386.558 M197.519 388.463 C 197.674 388.608,198.736 388.788,199.881 388.863 C 201.025 388.938,201.835 388.882,201.681 388.737 C 201.526 388.592,200.464 388.412,199.319 388.337 C 198.175 388.262,197.365 388.318,197.519 388.463 M266.800 388.293 C 264.831 388.524,264.475 389.052,266.413 388.867 C 267.289 388.784,268.105 388.555,268.226 388.358 C 268.348 388.161,268.392 388.029,268.324 388.064 C 268.256 388.099,267.570 388.202,266.800 388.293 M246.315 390.219 C 246.194 390.339,238.932 390.427,230.177 390.414 C 221.422 390.402,214.348 390.481,214.458 390.591 C 214.876 391.010,246.118 390.842,246.541 390.419 C 246.772 390.188,246.864 390.000,246.747 390.000 C 246.629 390.000,246.435 390.098,246.315 390.219 " stroke="none" fill="#a5a5a5" fill-rule="evenodd"></path><path id="path4" d="M209.424 10.439 C 209.517 10.589,210.212 10.784,210.968 10.872 C 211.725 10.961,212.268 10.910,212.176 10.761 C 212.083 10.611,211.388 10.416,210.632 10.328 C 209.875 10.239,209.332 10.290,209.424 10.439 M175.060 10.700 C 174.958 10.865,176.252 10.951,177.937 10.892 C 183.311 10.701,183.927 10.536,179.524 10.467 C 177.172 10.430,175.163 10.535,175.060 10.700 M165.600 12.400 L 164.200 12.695 165.476 12.747 C 166.178 12.776,166.864 12.620,167.000 12.400 C 167.136 12.180,167.192 12.024,167.124 12.053 C 167.056 12.082,166.370 12.238,165.600 12.400 M219.424 12.439 C 219.517 12.589,220.212 12.784,220.968 12.872 C 221.725 12.961,222.268 12.910,222.176 12.761 C 222.083 12.611,221.388 12.416,220.632 12.328 C 219.875 12.239,219.332 12.290,219.424 12.439 M264.800 33.746 C 264.800 33.856,265.340 34.330,266.000 34.800 C 266.660 35.270,267.200 35.564,267.200 35.454 C 267.200 35.344,266.660 34.870,266.000 34.400 C 265.340 33.930,264.800 33.636,264.800 33.746 M311.200 99.376 C 311.200 99.913,311.347 100.444,311.528 100.555 C 311.708 100.667,311.777 100.227,311.682 99.579 C 311.472 98.149,311.200 98.035,311.200 99.376 M119.200 123.093 C 117.231 123.324,116.875 123.852,118.813 123.667 C 119.689 123.584,120.505 123.355,120.626 123.158 C 120.748 122.961,120.792 122.829,120.724 122.864 C 120.656 122.899,119.970 123.002,119.200 123.093 M148.741 123.301 C 148.943 123.503,149.533 123.601,150.054 123.519 C 150.855 123.393,150.798 123.337,149.687 123.152 C 148.893 123.021,148.519 123.079,148.741 123.301 M58.800 125.800 C 59.546 126.570,60.247 127.200,60.357 127.200 C 60.467 127.200,59.946 126.570,59.200 125.800 C 58.454 125.030,57.753 124.400,57.643 124.400 C 57.533 124.400,58.054 125.030,58.800 125.800 M79.900 131.489 C 80.615 131.578,81.785 131.578,82.500 131.489 C 83.215 131.401,82.630 131.328,81.200 131.328 C 79.770 131.328,79.185 131.401,79.900 131.489 M319.199 141.319 L 319.397 147.400 319.510 141.631 C 319.572 138.459,319.483 135.722,319.311 135.550 C 319.140 135.378,319.089 137.974,319.199 141.319 M319.196 151.282 C 319.088 152.977,319.144 154.219,319.320 154.042 C 319.495 153.865,319.584 152.479,319.516 150.960 L 319.392 148.200 319.196 151.282 M317.293 166.400 C 317.293 167.170,317.375 167.485,317.476 167.100 C 317.576 166.715,317.576 166.085,317.476 165.700 C 317.375 165.315,317.293 165.630,317.293 166.400 M185.701 169.800 C 185.705 170.680,185.787 170.993,185.883 170.495 C 185.979 169.998,185.975 169.278,185.875 168.895 C 185.775 168.513,185.696 168.920,185.701 169.800 M305.944 193.100 C 304.793 194.489,304.306 195.200,304.504 195.200 C 304.614 195.200,305.186 194.570,305.773 193.800 C 306.863 192.371,306.995 191.832,305.944 193.100 M293.340 212.000 C 293.340 213.870,293.409 214.635,293.493 213.700 C 293.577 212.765,293.577 211.235,293.493 210.300 C 293.409 209.365,293.340 210.130,293.340 212.000 M170.800 243.725 C 170.800 243.794,171.385 244.379,172.100 245.025 L 173.400 246.200 172.225 244.900 C 171.130 243.688,170.800 243.416,170.800 243.725 M174.914 252.200 C 174.917 253.300,174.995 253.703,175.087 253.095 C 175.179 252.486,175.177 251.586,175.082 251.095 C 174.987 250.603,174.911 251.100,174.914 252.200 M369.200 276.000 C 369.670 276.660,370.144 277.200,370.254 277.200 C 370.364 277.200,370.070 276.660,369.600 276.000 C 369.130 275.340,368.656 274.800,368.546 274.800 C 368.436 274.800,368.730 275.340,369.200 276.000 M387.293 309.600 C 387.293 310.370,387.375 310.685,387.476 310.300 C 387.576 309.915,387.576 309.285,387.476 308.900 C 387.375 308.515,387.293 308.830,387.293 309.600 M389.198 323.481 C 389.089 326.386,389.141 328.621,389.313 328.449 C 389.485 328.276,389.574 325.899,389.511 323.167 L 389.397 318.200 389.198 323.481 M385.944 337.100 C 384.793 338.489,384.306 339.200,384.504 339.200 C 384.614 339.200,385.186 338.570,385.773 337.800 C 386.863 336.371,386.995 335.832,385.944 337.100 M371.800 351.435 L 370.600 352.466 371.900 351.606 C 372.615 351.133,373.200 350.668,373.200 350.573 C 373.200 350.273,373.031 350.378,371.800 351.435 M165.200 383.205 C 165.530 383.416,166.325 383.591,166.967 383.594 C 168.514 383.602,168.177 383.371,166.200 383.068 C 165.110 382.901,164.791 382.945,165.200 383.205 M177.600 385.356 C 177.600 385.442,178.217 385.585,178.972 385.673 C 179.727 385.761,180.256 385.690,180.148 385.516 C 179.955 385.203,177.600 385.055,177.600 385.356 M189.165 387.326 C 189.344 387.505,190.281 387.591,191.246 387.518 L 193.000 387.385 190.919 387.193 C 189.775 387.087,188.985 387.147,189.165 387.326 M273.000 387.094 C 272.120 387.182,271.270 387.381,271.110 387.536 C 270.951 387.692,271.581 387.751,272.510 387.669 C 273.440 387.586,274.371 387.356,274.580 387.159 C 274.789 386.962,274.879 386.830,274.780 386.867 C 274.681 386.904,273.880 387.006,273.000 387.094 M205.963 389.324 C 206.142 389.503,207.169 389.590,208.244 389.518 L 210.200 389.387 207.919 389.194 C 206.664 389.087,205.784 389.146,205.963 389.324 M258.200 389.200 L 254.200 389.445 258.076 389.523 C 260.317 389.567,262.057 389.431,262.200 389.200 C 262.336 388.980,262.392 388.835,262.324 388.877 C 262.256 388.920,260.400 389.065,258.200 389.200 " stroke="none" fill="#747474" fill-rule="evenodd"></path></g></svg>