<svg id="svg" version="1.1" xmlns="http://www.w3.org/2000/svg" xmlns:xlink="http://www.w3.org/1999/xlink" width="400" height="400" viewBox="0, 0, 400,400"><g id="svgg"><path id="path0" d="M350.996 1.464 C 348.451 1.720,346.150 2.101,345.884 2.312 C 345.618 2.523,344.410 2.927,343.200 3.211 C 341.314 3.653,340.031 4.264,335.246 7.001 C 325.681 12.471,320.488 25.305,319.386 46.200 C 318.725 58.715,313.966 70.481,307.654 75.203 C 307.074 75.637,306.368 76.187,306.085 76.426 C 303.048 78.986,299.830 81.055,296.734 82.438 C 294.680 83.355,292.820 84.241,292.600 84.406 C 292.380 84.572,289.950 85.465,287.200 86.392 C 284.450 87.318,281.660 88.307,281.000 88.590 C 280.340 88.872,278.270 89.319,276.400 89.581 C 274.530 89.844,272.640 90.214,272.200 90.403 C 270.644 91.073,266.113 91.560,258.889 91.834 C 254.868 91.986,251.483 92.266,251.366 92.456 C 251.078 92.922,219.776 92.899,218.895 92.432 C 218.513 92.230,214.601 91.764,210.203 91.398 C 205.804 91.032,202.114 90.604,202.003 90.447 C 201.891 90.291,199.532 89.856,196.760 89.480 C 193.987 89.105,191.197 88.548,190.560 88.243 C 189.922 87.938,188.185 87.455,186.700 87.171 C 185.215 86.886,184.000 86.526,184.000 86.371 C 184.000 86.216,183.325 85.964,182.500 85.811 C 181.675 85.658,180.190 85.135,179.200 84.649 C 178.210 84.163,176.635 83.520,175.700 83.219 C 174.765 82.918,174.000 82.521,174.000 82.336 C 174.000 82.151,173.814 82.000,173.588 82.000 C 171.043 82.000,162.897 74.631,161.981 71.500 C 161.675 70.455,161.313 69.600,161.176 69.600 C 160.575 69.600,160.041 66.163,159.778 60.605 C 159.606 56.974,159.296 54.292,158.992 53.805 C 158.716 53.362,158.272 52.054,158.005 50.899 C 157.738 49.743,157.343 48.688,157.127 48.555 C 156.911 48.421,156.402 47.539,155.997 46.594 C 154.932 44.109,147.891 36.800,146.563 36.800 C 146.426 36.800,145.119 36.222,143.657 35.516 C 140.960 34.212,135.366 32.819,132.780 32.807 C 131.999 32.803,131.173 32.613,130.944 32.384 C 130.252 31.692,119.580 31.322,117.016 31.900 C 110.549 33.359,110.679 33.302,107.249 36.200 C 100.434 41.958,94.207 53.223,90.995 65.600 C 87.705 78.280,84.540 96.015,83.393 108.200 C 83.041 111.940,82.580 116.240,82.370 117.756 C 82.159 119.272,81.720 125.392,81.394 131.356 C 81.068 137.320,80.628 145.170,80.417 148.800 C 79.609 162.664,79.547 184.688,80.315 184.934 C 80.692 185.054,82.530 185.706,84.400 186.382 C 86.270 187.058,88.700 187.890,89.800 188.230 C 90.900 188.571,92.340 189.088,93.000 189.380 C 93.660 189.671,96.090 190.490,98.400 191.200 C 100.710 191.910,103.890 192.920,105.467 193.445 C 107.044 193.970,108.574 194.401,108.867 194.402 C 109.160 194.404,109.871 194.651,110.447 194.951 C 111.022 195.252,113.182 195.807,115.247 196.185 C 117.311 196.564,119.180 197.020,119.400 197.198 C 119.620 197.377,121.690 197.823,124.000 198.189 C 126.310 198.555,128.632 199.068,129.161 199.328 C 130.561 200.016,148.070 199.991,148.300 199.300 C 148.392 199.025,148.947 198.797,149.533 198.793 C 150.120 198.790,151.320 198.341,152.200 197.795 C 153.080 197.250,154.295 196.583,154.900 196.314 C 155.505 196.045,156.000 195.663,156.000 195.466 C 156.000 195.269,156.630 194.249,157.400 193.200 C 158.376 191.871,158.800 190.865,158.800 189.880 C 158.800 189.103,158.941 188.407,159.114 188.333 C 159.287 188.260,159.729 186.002,160.095 183.315 C 160.462 180.629,161.020 178.019,161.336 177.515 C 161.652 177.012,162.132 175.903,162.402 175.052 C 163.057 172.990,167.792 168.039,170.494 166.592 C 175.567 163.874,177.803 162.797,179.634 162.189 C 180.710 161.831,181.679 161.396,181.786 161.222 C 181.894 161.048,183.426 160.578,185.191 160.178 C 186.956 159.777,188.400 159.334,188.400 159.193 C 188.400 159.052,190.155 158.614,192.300 158.220 C 194.445 157.826,196.560 157.355,197.000 157.174 C 198.248 156.660,206.973 155.600,209.955 155.600 C 211.570 155.600,212.839 155.401,213.140 155.100 C 213.821 154.419,251.987 154.369,252.839 155.048 C 253.147 155.294,255.560 155.824,258.200 156.226 C 260.840 156.627,263.090 157.071,263.200 157.211 C 263.310 157.351,264.584 157.658,266.032 157.893 C 267.480 158.128,269.910 158.894,271.432 159.594 C 275.577 161.501,277.175 162.229,279.621 163.323 C 285.690 166.039,299.118 179.389,302.925 186.491 C 308.743 197.347,309.311 198.614,312.018 206.741 C 313.888 212.358,315.161 217.025,315.823 220.691 C 316.370 223.721,317.081 227.640,317.403 229.400 C 318.645 236.190,319.271 246.379,319.602 265.200 C 320.109 293.967,323.408 325.469,326.773 333.673 C 326.982 334.183,327.868 336.850,328.742 339.600 C 334.116 356.515,343.778 367.039,355.600 368.854 C 358.643 369.322,365.789 368.043,366.520 366.900 C 366.696 366.625,367.065 366.400,367.341 366.400 C 367.617 366.400,368.553 365.883,369.421 365.250 C 370.290 364.618,371.405 363.976,371.900 363.824 C 372.395 363.671,372.800 363.307,372.800 363.016 C 372.800 362.724,373.070 362.382,373.400 362.255 C 373.730 362.129,374.000 361.819,374.000 361.566 C 374.000 361.314,374.630 360.249,375.400 359.200 C 376.170 358.151,376.800 357.111,376.800 356.889 C 376.800 356.667,377.070 356.382,377.400 356.255 C 377.730 356.129,378.000 355.806,378.000 355.538 C 378.000 355.271,378.336 354.680,378.747 354.226 C 379.157 353.772,379.822 352.500,380.223 351.400 C 380.624 350.300,381.173 349.040,381.442 348.600 C 381.711 348.160,382.155 347.035,382.429 346.100 C 382.703 345.165,383.059 344.400,383.220 344.400 C 383.381 344.400,383.633 343.905,383.780 343.300 C 383.927 342.695,384.376 341.480,384.779 340.600 C 385.181 339.720,385.830 337.380,386.220 335.400 C 386.610 333.420,387.054 331.620,387.207 331.400 C 387.360 331.180,387.810 329.380,388.207 327.400 C 388.604 325.420,389.071 323.613,389.244 323.384 C 389.417 323.155,389.875 320.635,390.261 317.784 C 390.647 314.933,391.085 312.510,391.234 312.400 C 391.383 312.290,391.821 309.770,392.206 306.800 C 392.591 303.830,393.062 301.203,393.251 300.962 C 393.440 300.721,393.881 297.211,394.231 293.162 C 394.581 289.113,395.017 285.440,395.200 285.000 C 395.706 283.785,396.805 269.994,396.802 264.900 C 396.801 262.425,396.946 260.400,397.125 260.400 C 397.508 260.400,398.295 238.661,398.664 217.885 C 398.808 209.792,399.077 203.076,399.263 202.961 C 399.705 202.688,399.703 163.311,399.260 163.037 C 399.073 162.921,398.802 156.026,398.658 147.713 C 398.348 129.842,397.668 113.322,397.195 112.200 C 397.009 111.760,396.752 108.520,396.623 105.000 C 396.321 96.748,395.631 88.020,395.198 87.000 C 395.012 86.560,394.563 82.510,394.200 78.000 C 393.837 73.490,393.380 69.440,393.184 69.000 C 392.988 68.560,392.542 65.770,392.192 62.800 C 391.842 59.830,391.399 57.040,391.208 56.600 C 391.017 56.160,390.582 53.485,390.242 50.655 C 389.902 47.825,389.455 45.305,389.250 45.055 C 389.045 44.805,388.554 43.070,388.160 41.200 C 387.766 39.330,387.327 37.710,387.185 37.600 C 387.043 37.490,386.600 35.960,386.202 34.200 C 385.803 32.440,385.325 30.829,385.139 30.620 C 384.952 30.411,384.800 29.922,384.800 29.534 C 384.800 28.864,384.575 28.277,382.681 24.000 C 382.242 23.010,381.576 21.480,381.200 20.600 C 380.824 19.720,380.130 18.190,379.657 17.200 C 379.185 16.210,378.798 15.258,378.799 15.084 C 378.800 14.911,377.630 13.343,376.200 11.600 C 374.770 9.857,373.600 8.288,373.600 8.112 C 373.600 7.936,373.240 7.568,372.800 7.293 C 372.360 7.018,372.000 6.525,372.000 6.197 C 372.000 5.868,371.794 5.600,371.541 5.600 C 371.289 5.600,370.134 4.970,368.974 4.200 C 367.814 3.430,366.670 2.800,366.432 2.800 C 366.194 2.800,366.000 2.641,366.000 2.447 C 366.000 1.326,357.759 0.786,350.996 1.464 " stroke="none" fill="#040404" fill-rule="evenodd"></path><path id="path1" d="M0.000 200.000 L 0.000 400.000 200.000 400.000 L 400.000 400.000 400.000 200.000 L 400.000 0.000 200.000 0.000 L 0.000 0.000 0.000 200.000 M365.125 1.627 C 365.666 2.052,366.276 2.400,366.482 2.400 C 366.688 2.400,367.608 2.915,368.528 3.545 C 369.448 4.175,370.605 4.817,371.100 4.972 C 371.595 5.127,372.000 5.422,372.000 5.627 C 372.000 5.832,372.281 6.315,372.624 6.700 C 372.967 7.085,374.235 8.660,375.442 10.200 C 376.649 11.740,377.951 13.360,378.337 13.800 C 378.722 14.240,379.283 15.365,379.583 16.300 C 379.883 17.235,380.279 18.000,380.464 18.000 C 380.649 18.000,380.800 18.264,380.800 18.586 C 380.800 18.909,381.097 19.854,381.461 20.686 C 382.549 23.177,383.672 25.702,384.448 27.400 C 384.850 28.280,385.384 30.080,385.636 31.400 C 385.888 32.720,386.218 33.890,386.370 34.000 C 386.522 34.110,386.981 35.730,387.390 37.600 C 387.800 39.470,388.271 41.182,388.436 41.403 C 388.904 42.030,390.000 47.090,390.000 48.625 C 390.000 49.381,390.151 50.000,390.335 50.000 C 390.519 50.000,390.982 52.745,391.364 56.100 C 391.747 59.455,392.213 62.560,392.402 63.000 C 392.850 64.045,393.524 69.199,393.855 74.100 C 394.000 76.245,394.240 78.000,394.388 78.000 C 394.537 78.000,394.992 82.005,395.399 86.900 C 395.807 91.795,396.258 95.890,396.401 96.000 C 396.544 96.110,396.973 103.040,397.355 111.400 C 397.737 119.760,398.201 126.960,398.386 127.400 C 399.718 130.564,399.731 238.570,398.400 239.600 C 398.258 239.710,397.850 247.869,397.494 257.731 C 397.138 267.593,396.682 275.873,396.481 276.131 C 396.280 276.389,395.795 280.470,395.403 285.200 C 395.011 289.930,394.535 293.971,394.345 294.180 C 394.155 294.389,394.001 295.199,394.002 295.980 C 394.005 297.886,392.820 305.997,392.392 307.000 C 392.204 307.440,391.758 310.050,391.400 312.800 C 391.042 315.550,390.599 318.160,390.416 318.600 C 390.232 319.040,389.763 321.245,389.374 323.500 C 388.985 325.755,388.546 327.600,388.400 327.600 C 388.254 327.600,387.804 329.400,387.400 331.600 C 386.996 333.800,386.533 335.600,386.371 335.600 C 386.208 335.600,385.952 336.545,385.801 337.700 C 385.651 338.855,385.094 340.734,384.564 341.875 C 384.034 343.017,383.600 344.051,383.600 344.174 C 383.600 344.297,383.072 345.523,382.426 346.899 C 381.780 348.275,381.131 349.895,380.983 350.500 C 380.834 351.105,380.572 351.600,380.400 351.600 C 380.228 351.600,379.966 352.080,379.819 352.666 C 379.672 353.252,379.195 354.197,378.759 354.766 C 377.218 356.774,374.382 361.016,373.721 362.300 C 373.353 363.015,372.873 363.600,372.654 363.600 C 372.435 363.600,370.954 364.500,369.362 365.600 C 367.771 366.700,366.310 367.600,366.115 367.600 C 365.920 367.600,365.536 367.825,365.262 368.100 C 364.059 369.308,354.232 369.543,352.600 368.404 C 352.380 368.250,351.300 367.886,350.200 367.596 C 348.584 367.169,345.395 365.410,344.400 364.396 C 344.290 364.284,343.467 363.718,342.572 363.138 C 341.677 362.558,340.327 361.331,339.572 360.411 C 338.817 359.491,337.513 357.987,336.674 357.069 C 332.575 352.587,326.551 336.691,324.368 324.600 C 323.932 322.180,323.406 319.660,323.199 319.000 C 322.993 318.340,322.632 315.730,322.397 313.200 C 322.162 310.670,321.710 306.710,321.391 304.400 C 320.343 296.792,319.516 282.052,319.203 265.400 C 318.857 246.985,318.237 235.459,317.384 231.600 C 317.068 230.170,316.545 227.380,316.222 225.400 C 314.987 217.828,314.215 214.742,311.532 206.647 C 308.909 198.734,308.119 196.957,303.158 187.800 C 299.351 180.774,283.454 164.000,280.602 164.000 C 280.472 164.000,279.249 163.489,277.883 162.865 C 276.517 162.241,274.770 161.486,274.000 161.188 C 273.230 160.889,272.510 160.536,272.400 160.402 C 272.290 160.268,271.300 159.825,270.200 159.416 C 269.100 159.008,268.110 158.557,268.000 158.415 C 267.890 158.272,265.640 157.825,263.000 157.420 C 260.360 157.015,258.110 156.565,258.000 156.418 C 256.544 154.485,206.389 154.435,202.928 156.364 C 202.528 156.587,200.056 157.048,197.436 157.389 C 194.816 157.729,192.476 158.161,192.236 158.349 C 191.996 158.537,190.450 159.002,188.800 159.382 C 187.150 159.763,185.260 160.304,184.600 160.585 C 183.940 160.865,182.545 161.338,181.500 161.635 C 180.455 161.932,179.600 162.296,179.600 162.444 C 179.600 162.592,179.105 162.834,178.500 162.981 C 176.991 163.348,171.600 166.023,171.600 166.404 C 171.600 166.574,171.119 166.834,170.532 166.981 C 169.146 167.329,163.819 172.496,163.157 174.134 C 162.876 174.830,162.536 175.490,162.403 175.600 C 161.970 175.957,160.800 180.060,160.800 181.222 C 160.800 181.844,160.647 182.447,160.460 182.563 C 160.273 182.679,159.890 184.707,159.610 187.071 C 158.964 192.527,157.170 195.439,153.200 197.480 C 152.430 197.876,151.620 198.405,151.400 198.655 C 149.777 200.502,127.573 200.302,123.400 198.403 C 122.960 198.203,121.070 197.751,119.200 197.400 C 117.330 197.049,115.440 196.608,115.000 196.422 C 114.560 196.235,112.760 195.723,111.000 195.284 C 109.240 194.845,106.270 194.002,104.400 193.411 C 102.530 192.820,99.740 191.971,98.200 191.523 C 96.660 191.076,95.220 190.568,95.000 190.394 C 94.780 190.220,93.790 189.864,92.800 189.603 C 91.810 189.342,90.460 188.888,89.800 188.594 C 89.140 188.300,86.620 187.394,84.200 186.581 C 81.780 185.768,79.670 184.986,79.511 184.843 C 78.896 184.288,80.684 126.568,81.414 123.425 C 81.519 122.971,81.968 118.659,82.411 113.841 C 83.283 104.348,84.494 94.927,85.373 90.800 C 85.677 89.370,86.140 86.580,86.403 84.600 C 86.665 82.620,87.206 79.650,87.604 78.000 C 88.003 76.350,88.805 72.840,89.387 70.200 C 90.721 64.153,93.155 56.870,95.401 52.200 C 95.719 51.540,96.157 50.512,96.374 49.915 C 98.825 43.183,108.382 33.417,113.542 32.373 C 115.245 32.029,116.880 31.598,117.176 31.415 C 117.862 30.991,126.825 31.127,127.381 31.570 C 127.611 31.754,129.240 32.025,131.000 32.174 C 135.015 32.512,138.754 33.201,139.033 33.654 C 139.151 33.844,139.758 34.000,140.383 34.000 C 141.008 34.000,142.545 34.540,143.800 35.200 C 145.055 35.860,146.323 36.400,146.618 36.400 C 146.913 36.400,147.390 36.731,147.677 37.137 C 147.965 37.542,148.567 38.068,149.016 38.306 C 150.399 39.039,154.969 43.939,155.539 45.299 C 155.836 46.007,156.421 47.068,156.839 47.655 C 157.258 48.243,157.600 48.931,157.600 49.184 C 157.600 49.437,157.995 50.489,158.477 51.522 C 159.184 53.036,159.439 54.679,159.796 60.000 C 160.039 63.630,160.437 67.061,160.680 67.624 C 160.923 68.187,161.348 69.402,161.624 70.324 C 161.901 71.246,162.266 72.000,162.436 72.000 C 162.607 72.000,162.867 72.405,163.015 72.900 C 163.339 73.987,167.967 78.800,168.688 78.800 C 168.970 78.800,169.200 78.961,169.200 79.158 C 169.200 79.355,169.875 79.864,170.700 80.288 C 171.525 80.712,172.740 81.362,173.400 81.732 C 175.033 82.648,178.655 84.192,180.600 84.802 C 181.480 85.078,182.385 85.450,182.611 85.627 C 182.837 85.805,184.367 86.252,186.011 86.622 C 187.655 86.991,189.199 87.453,189.442 87.648 C 189.685 87.843,191.755 88.290,194.042 88.641 C 196.329 88.993,198.560 89.432,199.000 89.618 C 199.920 90.006,204.973 90.650,210.200 91.044 C 212.180 91.193,213.927 91.512,214.083 91.753 C 214.472 92.356,246.045 92.577,253.400 92.028 C 265.883 91.096,268.738 90.812,271.800 90.194 C 273.560 89.839,276.176 89.318,277.614 89.038 C 280.097 88.553,286.344 86.542,289.060 85.352 C 289.754 85.048,290.516 84.800,290.755 84.800 C 290.993 84.800,292.226 84.272,293.494 83.626 C 294.762 82.980,296.878 81.957,298.195 81.352 C 302.723 79.272,308.059 74.758,311.664 69.956 C 316.484 63.535,318.352 57.259,318.974 45.400 C 320.189 22.211,325.638 11.460,340.000 3.909 C 340.770 3.504,342.660 2.888,344.200 2.539 C 345.740 2.190,347.180 1.791,347.400 1.652 C 349.311 0.447,363.599 0.427,365.125 1.627 " stroke="none" fill="#fbfbfb" fill-rule="evenodd"></path><path id="path2" d="M347.452 1.516 C 347.344 1.690,347.918 1.770,348.728 1.693 C 351.202 1.459,351.493 1.295,349.524 1.246 C 348.492 1.221,347.559 1.342,347.452 1.516 M329.578 11.500 L 328.200 13.000 329.700 11.622 C 331.096 10.338,331.384 10.000,331.078 10.000 C 331.012 10.000,330.337 10.675,329.578 11.500 M117.930 31.230 C 117.419 31.359,119.340 31.471,122.200 31.479 C 127.679 31.496,127.643 31.310,122.130 31.114 C 120.332 31.049,118.442 31.102,117.930 31.230 M319.314 41.000 C 319.317 42.100,319.395 42.503,319.487 41.895 C 319.579 41.286,319.577 40.386,319.482 39.895 C 319.387 39.403,319.311 39.900,319.314 41.000 M318.924 46.600 C 318.926 47.920,319.001 48.412,319.090 47.693 C 319.179 46.974,319.177 45.894,319.086 45.293 C 318.995 44.692,318.922 45.280,318.924 46.600 M390.400 51.376 C 390.400 52.133,390.538 52.838,390.707 52.943 C 390.876 53.047,390.948 52.428,390.865 51.566 C 390.681 49.632,390.400 49.518,390.400 51.376 M392.501 64.600 C 392.505 65.480,392.587 65.793,392.683 65.295 C 392.779 64.798,392.775 64.078,392.675 63.695 C 392.575 63.313,392.496 63.720,392.501 64.600 M394.446 80.076 C 394.421 81.328,394.535 82.436,394.700 82.538 C 394.865 82.640,394.946 81.886,394.880 80.862 C 394.693 77.941,394.497 77.586,394.446 80.076 M276.200 89.200 L 275.000 89.505 276.076 89.553 C 276.668 89.579,277.264 89.420,277.400 89.200 C 277.536 88.980,277.592 88.821,277.524 88.847 C 277.456 88.873,276.860 89.032,276.200 89.200 M196.705 89.483 C 197.202 89.579,197.922 89.575,198.305 89.475 C 198.687 89.375,198.280 89.296,197.400 89.301 C 196.520 89.305,196.207 89.387,196.705 89.483 M209.561 91.323 C 209.740 91.500,210.856 91.588,212.043 91.517 L 214.200 91.389 211.718 91.194 C 210.354 91.087,209.383 91.145,209.561 91.323 M263.200 91.200 L 259.400 91.447 263.076 91.523 C 265.183 91.567,266.858 91.429,267.000 91.200 C 267.136 90.980,267.192 90.834,267.124 90.877 C 267.056 90.919,265.290 91.064,263.200 91.200 M396.548 100.000 C 396.548 102.310,396.614 103.255,396.695 102.100 C 396.776 100.945,396.776 99.055,396.695 97.900 C 396.614 96.745,396.548 97.690,396.548 100.000 M83.293 105.200 C 83.293 105.970,83.375 106.285,83.476 105.900 C 83.576 105.515,83.576 104.885,83.476 104.500 C 83.375 104.115,83.293 104.430,83.293 105.200 M81.314 125.400 C 81.317 126.500,81.395 126.903,81.487 126.295 C 81.579 125.686,81.577 124.786,81.482 124.295 C 81.387 123.803,81.311 124.300,81.314 125.400 M398.399 136.319 L 398.599 145.400 398.707 136.628 C 398.767 131.803,398.677 127.717,398.508 127.547 C 398.339 127.378,398.290 131.325,398.399 136.319 M80.924 130.600 C 80.926 131.920,81.001 132.412,81.090 131.693 C 81.179 130.974,81.177 129.894,81.086 129.293 C 80.995 128.692,80.922 129.280,80.924 130.600 M80.509 138.400 C 80.509 139.390,80.587 139.795,80.682 139.300 C 80.778 138.805,80.778 137.995,80.682 137.500 C 80.587 137.005,80.509 137.410,80.509 138.400 M80.093 146.800 C 80.093 147.570,80.175 147.885,80.276 147.500 C 80.376 147.115,80.376 146.485,80.276 146.100 C 80.175 145.715,80.093 146.030,80.093 146.800 M226.725 154.699 C 230.093 154.766,235.493 154.766,238.725 154.699 C 241.956 154.632,239.200 154.577,232.600 154.577 C 226.000 154.577,223.356 154.632,226.725 154.699 M200.705 156.683 C 201.202 156.779,201.922 156.775,202.305 156.675 C 202.687 156.575,202.280 156.496,201.400 156.501 C 200.520 156.505,200.207 156.587,200.705 156.683 M258.000 156.556 C 258.000 156.642,258.617 156.785,259.372 156.873 C 260.127 156.961,260.656 156.890,260.548 156.716 C 260.355 156.403,258.000 156.255,258.000 156.556 M79.746 161.400 C 79.747 163.600,79.814 164.449,79.895 163.287 C 79.976 162.124,79.976 160.324,79.893 159.287 C 79.811 158.249,79.745 159.200,79.746 161.400 M165.988 170.300 L 163.400 173.000 166.100 170.412 C 167.585 168.988,168.800 167.773,168.800 167.712 C 168.800 167.417,168.393 167.792,165.988 170.300 M79.342 181.400 C 79.341 183.380,79.408 184.240,79.492 183.312 C 79.576 182.384,79.577 180.764,79.495 179.712 C 79.412 178.660,79.343 179.420,79.342 181.400 M160.617 179.700 C 160.287 180.746,160.157 182.750,160.430 182.581 C 160.587 182.484,160.784 181.684,160.868 180.803 C 161.021 179.206,160.917 178.750,160.617 179.700 M123.468 198.396 C 123.858 198.748,127.010 199.277,126.665 198.932 C 126.537 198.804,125.690 198.563,124.784 198.397 C 123.877 198.231,123.285 198.231,123.468 198.396 M398.580 221.309 C 398.472 221.589,398.433 225.864,398.493 230.809 L 398.602 239.800 398.801 230.300 C 398.996 221.001,398.978 220.271,398.580 221.309 M318.493 244.800 C 318.493 245.570,318.575 245.885,318.676 245.500 C 318.776 245.115,318.776 244.485,318.676 244.100 C 318.575 243.715,318.493 244.030,318.493 244.800 M318.909 250.800 C 318.909 251.790,318.987 252.195,319.082 251.700 C 319.178 251.205,319.178 250.395,319.082 249.900 C 318.987 249.405,318.909 249.810,318.909 250.800 M319.379 266.600 C 319.379 273.860,319.433 276.886,319.499 273.325 C 319.565 269.764,319.566 263.824,319.499 260.125 C 319.433 256.426,319.379 259.340,319.379 266.600 M396.610 271.700 C 396.316 272.587,396.191 276.371,396.465 276.081 C 396.719 275.811,397.118 271.198,396.887 271.199 C 396.826 271.200,396.700 271.425,396.610 271.700 M394.610 289.700 C 394.316 290.587,394.191 294.371,394.465 294.081 C 394.719 293.811,395.118 289.198,394.887 289.199 C 394.826 289.200,394.700 289.425,394.610 289.700 M320.493 295.600 C 320.493 296.370,320.575 296.685,320.676 296.300 C 320.776 295.915,320.776 295.285,320.676 294.900 C 320.575 294.515,320.493 294.830,320.493 295.600 M321.293 303.200 C 321.293 303.970,321.375 304.285,321.476 303.900 C 321.576 303.515,321.576 302.885,321.476 302.500 C 321.375 302.115,321.293 302.430,321.293 303.200 M392.501 305.400 C 392.505 306.280,392.587 306.593,392.683 306.095 C 392.779 305.598,392.775 304.878,392.675 304.495 C 392.575 304.113,392.496 304.520,392.501 305.400 M390.617 315.700 C 390.287 316.746,390.157 318.750,390.430 318.581 C 390.587 318.484,390.784 317.684,390.868 316.803 C 391.021 315.206,390.917 314.750,390.617 315.700 M388.554 325.777 C 388.432 326.094,388.403 326.679,388.489 327.077 C 388.587 327.528,388.724 327.312,388.854 326.500 C 389.071 325.138,388.930 324.796,388.554 325.777 M386.554 333.777 C 386.432 334.094,386.403 334.679,386.489 335.077 C 386.587 335.528,386.724 335.312,386.854 334.500 C 387.071 333.138,386.930 332.796,386.554 333.777 M361.700 368.687 C 362.305 368.778,363.295 368.778,363.900 368.687 C 364.505 368.595,364.010 368.520,362.800 368.520 C 361.590 368.520,361.095 368.595,361.700 368.687 " stroke="none" fill="#9f9f9f" fill-rule="evenodd"></path><path id="path3" d="M353.600 0.824 C 352.390 0.947,354.370 1.051,358.000 1.056 C 364.460 1.065,364.783 0.925,358.800 0.708 C 357.150 0.649,354.810 0.701,353.600 0.824 M343.400 2.800 C 342.381 3.238,343.432 3.238,344.800 2.800 C 345.604 2.543,345.643 2.477,345.000 2.468 C 344.560 2.462,343.840 2.611,343.400 2.800 M132.105 32.687 C 132.714 32.779,133.614 32.777,134.105 32.682 C 134.597 32.587,134.100 32.511,133.000 32.514 C 131.900 32.517,131.497 32.595,132.105 32.687 M319.309 45.200 C 319.309 46.190,319.387 46.595,319.482 46.100 C 319.578 45.605,319.578 44.795,319.482 44.300 C 319.387 43.805,319.309 44.210,319.309 45.200 M390.731 54.510 C 390.814 55.440,391.003 56.330,391.151 56.490 C 391.298 56.649,391.351 56.019,391.269 55.090 C 391.186 54.160,390.997 53.270,390.849 53.110 C 390.702 52.951,390.649 53.581,390.731 54.510 M392.893 67.600 C 392.893 68.370,392.975 68.685,393.076 68.300 C 393.176 67.915,393.176 67.285,393.076 66.900 C 392.975 66.515,392.893 66.830,392.893 67.600 M162.764 73.533 C 162.980 73.936,163.471 74.521,163.855 74.833 C 164.287 75.184,164.190 74.904,163.601 74.100 C 162.551 72.665,162.157 72.398,162.764 73.533 M308.175 74.500 L 307.000 75.800 308.300 74.625 C 309.015 73.979,309.600 73.394,309.600 73.325 C 309.600 73.016,309.270 73.288,308.175 74.500 M167.167 78.145 C 167.700 78.801,169.200 79.793,169.200 79.489 C 169.200 79.413,168.615 78.922,167.900 78.399 C 167.096 77.810,166.816 77.713,167.167 78.145 M394.920 84.800 C 394.920 86.010,394.995 86.505,395.087 85.900 C 395.178 85.295,395.178 84.305,395.087 83.700 C 394.995 83.095,394.920 83.590,394.920 84.800 M179.200 84.686 C 179.530 84.808,180.160 85.074,180.600 85.276 C 181.387 85.638,181.388 85.634,180.624 85.022 C 180.196 84.680,179.566 84.414,179.224 84.432 C 178.685 84.459,178.682 84.493,179.200 84.686 M184.033 86.547 C 184.125 86.628,184.920 86.804,185.800 86.938 C 186.915 87.107,187.158 87.071,186.600 86.819 C 185.832 86.471,183.690 86.244,184.033 86.547 M279.000 88.691 C 278.340 88.785,277.649 89.007,277.465 89.186 C 277.281 89.364,277.986 89.350,279.032 89.154 C 280.078 88.959,281.024 88.709,281.134 88.600 C 281.342 88.391,281.000 88.406,279.000 88.691 M193.700 89.076 C 194.085 89.176,194.715 89.176,195.100 89.076 C 195.485 88.975,195.170 88.893,194.400 88.893 C 193.630 88.893,193.315 88.975,193.700 89.076 M202.705 90.683 C 203.202 90.779,203.922 90.775,204.305 90.675 C 204.687 90.575,204.280 90.496,203.400 90.501 C 202.520 90.505,202.207 90.587,202.705 90.683 M268.600 90.691 C 267.940 90.785,267.251 91.006,267.069 91.182 C 266.790 91.451,269.513 91.122,271.600 90.633 C 272.437 90.437,270.060 90.483,268.600 90.691 M206.100 91.087 C 206.705 91.178,207.695 91.178,208.300 91.087 C 208.905 90.995,208.410 90.920,207.200 90.920 C 205.990 90.920,205.495 90.995,206.100 91.087 M227.100 92.700 C 231.555 92.764,238.845 92.764,243.300 92.700 C 247.755 92.635,244.110 92.582,235.200 92.582 C 226.290 92.582,222.645 92.635,227.100 92.700 M396.864 108.076 C 396.829 110.208,396.935 112.037,397.100 112.140 C 397.265 112.242,397.351 111.038,397.291 109.463 C 397.104 104.590,396.931 104.026,396.864 108.076 M82.893 111.200 C 82.893 111.970,82.975 112.285,83.076 111.900 C 83.176 111.515,83.176 110.885,83.076 110.500 C 82.975 110.115,82.893 110.430,82.893 111.200 M82.493 114.800 C 82.493 115.570,82.575 115.885,82.676 115.500 C 82.776 115.115,82.776 114.485,82.676 114.100 C 82.575 113.715,82.493 114.030,82.493 114.800 M81.301 129.400 C 81.305 130.280,81.387 130.593,81.483 130.095 C 81.579 129.598,81.575 128.878,81.475 128.495 C 81.375 128.113,81.296 128.520,81.301 129.400 M80.928 136.400 C 80.928 137.830,81.001 138.415,81.089 137.700 C 81.178 136.985,81.178 135.815,81.089 135.100 C 81.001 134.385,80.928 134.970,80.928 136.400 M80.524 143.000 C 80.526 144.320,80.601 144.812,80.690 144.093 C 80.779 143.374,80.777 142.294,80.686 141.693 C 80.595 141.092,80.522 141.680,80.524 143.000 M398.970 154.200 C 398.971 159.040,399.029 160.965,399.099 158.478 C 399.169 155.991,399.169 152.031,399.098 149.678 C 399.028 147.325,398.970 149.360,398.970 154.200 M80.101 150.200 C 80.105 151.080,80.187 151.393,80.283 150.895 C 80.379 150.398,80.375 149.678,80.275 149.295 C 80.175 148.913,80.096 149.320,80.101 150.200 M216.800 154.800 L 213.000 155.047 216.676 155.123 C 218.783 155.167,220.458 155.029,220.600 154.800 C 220.736 154.580,220.792 154.434,220.724 154.477 C 220.656 154.519,218.890 154.664,216.800 154.800 M247.113 155.095 C 248.276 155.176,250.076 155.176,251.113 155.093 C 252.151 155.011,251.200 154.945,249.000 154.946 C 246.800 154.947,245.951 155.014,247.113 155.095 M197.700 157.076 C 198.085 157.176,198.715 157.176,199.100 157.076 C 199.485 156.975,199.170 156.893,198.400 156.893 C 197.630 156.893,197.315 156.975,197.700 157.076 M261.300 157.076 C 261.685 157.176,262.315 157.176,262.700 157.076 C 263.085 156.975,262.770 156.893,262.000 156.893 C 261.230 156.893,260.915 156.975,261.300 157.076 M189.400 158.800 L 188.200 159.105 189.276 159.153 C 189.868 159.179,190.464 159.020,190.600 158.800 C 190.736 158.580,190.792 158.421,190.724 158.447 C 190.656 158.473,190.060 158.632,189.400 158.800 M79.750 171.800 C 79.751 174.220,79.816 175.158,79.896 173.885 C 79.976 172.612,79.975 170.632,79.894 169.485 C 79.814 168.338,79.749 169.380,79.750 171.800 M158.901 189.800 C 158.905 190.680,158.987 190.993,159.083 190.495 C 159.179 189.998,159.175 189.278,159.075 188.895 C 158.975 188.513,158.896 188.920,158.901 189.800 M149.600 198.800 L 148.200 199.095 149.476 199.147 C 150.178 199.176,150.864 199.020,151.000 198.800 C 151.136 198.580,151.192 198.424,151.124 198.453 C 151.056 198.482,150.370 198.638,149.600 198.800 M398.799 212.081 C 398.690 217.075,398.739 221.022,398.908 220.853 C 399.077 220.683,399.167 216.597,399.107 211.772 L 398.999 203.000 398.799 212.081 M318.509 241.200 C 318.509 242.190,318.587 242.595,318.682 242.100 C 318.778 241.605,318.778 240.795,318.682 240.300 C 318.587 239.805,318.509 240.210,318.509 241.200 M318.914 246.200 C 318.917 247.300,318.995 247.703,319.087 247.095 C 319.179 246.486,319.177 245.586,319.082 245.095 C 318.987 244.603,318.911 245.100,318.914 246.200 M319.293 251.600 C 319.293 252.370,319.375 252.685,319.476 252.300 C 319.576 251.915,319.576 251.285,319.476 250.900 C 319.375 250.515,319.293 250.830,319.293 251.600 M396.958 265.800 C 396.958 268.880,397.021 270.087,397.097 268.482 C 397.173 266.878,397.173 264.358,397.096 262.882 C 397.019 261.407,396.957 262.720,396.958 265.800 M394.920 287.200 C 394.920 288.410,394.995 288.905,395.087 288.300 C 395.178 287.695,395.178 286.705,395.087 286.100 C 394.995 285.495,394.920 285.990,394.920 287.200 M320.509 292.400 C 320.509 293.390,320.587 293.795,320.682 293.300 C 320.778 292.805,320.778 291.995,320.682 291.500 C 320.587 291.005,320.509 291.410,320.509 292.400 M320.909 297.200 C 320.909 298.190,320.987 298.595,321.082 298.100 C 321.178 297.605,321.178 296.795,321.082 296.300 C 320.987 295.805,320.909 296.210,320.909 297.200 M392.893 302.400 C 392.893 303.170,392.975 303.485,393.076 303.100 C 393.176 302.715,393.176 302.085,393.076 301.700 C 392.975 301.315,392.893 301.630,392.893 302.400 M390.901 313.800 C 390.905 314.680,390.987 314.993,391.083 314.495 C 391.179 313.998,391.175 313.278,391.075 312.895 C 390.975 312.513,390.896 312.920,390.901 313.800 M322.893 315.600 C 322.893 316.370,322.975 316.685,323.076 316.300 C 323.176 315.915,323.176 315.285,323.076 314.900 C 322.975 314.515,322.893 314.830,322.893 315.600 M360.340 368.594 C 360.233 368.700,358.937 368.813,357.458 368.845 C 355.980 368.878,354.864 368.997,354.979 369.112 C 355.338 369.471,360.171 369.189,360.575 368.785 C 360.787 368.573,360.864 368.400,360.747 368.400 C 360.629 368.400,360.446 368.487,360.340 368.594 " stroke="none" fill="#7c7c7c" fill-rule="evenodd"></path><path id="path4" d="M79.693 166.400 C 79.693 167.170,79.775 167.485,79.876 167.100 C 79.976 166.715,79.976 166.085,79.876 165.700 C 79.775 165.315,79.693 165.630,79.693 166.400 " stroke="none" fill="#848484" fill-rule="evenodd"></path></g></svg>