<svg id="svg" version="1.1" xmlns="http://www.w3.org/2000/svg" xmlns:xlink="http://www.w3.org/1999/xlink" width="400" height="400" viewBox="0, 0, 400,400"><g id="svgg"><path id="path0" d="M221.469 23.476 C 217.768 23.738,214.528 24.121,214.269 24.327 C 214.011 24.533,211.910 25.024,209.600 25.420 C 207.290 25.815,205.040 26.357,204.600 26.625 C 204.160 26.892,203.080 27.334,202.200 27.608 C 201.320 27.881,200.420 28.230,200.200 28.383 C 199.980 28.537,198.900 28.986,197.800 29.381 C 191.958 31.480,181.116 37.715,172.703 43.814 C 169.167 46.377,159.195 56.290,157.226 59.200 C 156.258 60.630,154.641 62.912,153.633 64.271 C 148.873 70.687,146.915 73.734,141.603 83.000 C 141.225 83.660,139.979 85.780,138.836 87.710 C 137.173 90.518,132.608 100.252,126.225 114.600 C 125.597 116.011,118.714 133.307,116.595 138.800 C 115.788 140.890,114.890 143.140,114.599 143.800 C 114.307 144.460,113.345 147.160,112.459 149.800 C 111.574 152.440,109.384 158.830,107.593 164.000 C 103.630 175.441,100.569 184.972,96.548 198.400 C 95.988 200.270,95.106 203.150,94.587 204.800 C 91.501 214.622,90.766 217.184,85.987 234.800 C 83.099 245.444,82.923 246.085,81.604 250.800 C 80.225 255.729,79.290 259.446,75.567 274.800 C 74.260 280.190,72.928 285.590,72.607 286.800 C 72.286 288.010,71.126 292.690,70.028 297.200 C 68.146 304.935,67.356 308.460,65.586 317.000 C 65.176 318.980,64.285 323.120,63.605 326.200 C 62.925 329.280,62.023 333.420,61.600 335.400 C 61.177 337.380,60.275 341.520,59.595 344.600 C 58.916 347.680,58.128 351.370,57.845 352.801 L 57.331 355.402 63.365 354.926 C 69.985 354.404,72.375 354.065,73.032 353.552 C 73.269 353.367,74.889 353.012,76.632 352.763 C 78.374 352.513,80.160 352.087,80.600 351.815 C 81.040 351.544,82.120 351.092,83.000 350.811 C 83.880 350.530,85.500 349.900,86.600 349.411 C 87.700 348.921,89.139 348.389,89.798 348.228 C 90.457 348.067,91.246 347.725,91.551 347.468 C 92.148 346.965,94.361 345.759,97.100 344.445 C 98.035 343.996,98.800 343.478,98.800 343.295 C 98.800 343.111,99.467 342.719,100.283 342.424 C 101.099 342.130,102.969 341.013,104.439 339.944 C 105.909 338.875,107.305 338.000,107.542 338.000 C 107.778 338.000,108.165 337.640,108.400 337.200 C 108.635 336.760,108.997 336.400,109.204 336.400 C 109.774 336.400,116.400 331.576,116.400 331.161 C 116.400 330.963,116.623 330.800,116.896 330.800 C 117.168 330.800,117.843 330.353,118.396 329.808 C 120.375 327.852,125.126 324.000,125.559 324.000 C 125.801 324.000,126.000 323.772,126.000 323.493 C 126.000 323.215,128.081 320.920,130.625 318.393 C 133.169 315.867,136.544 312.270,138.125 310.400 C 139.706 308.530,141.315 306.765,141.700 306.477 C 142.085 306.190,142.400 305.780,142.400 305.566 C 142.400 305.352,142.940 304.597,143.599 303.889 C 146.116 301.185,149.170 297.514,150.852 295.173 C 151.813 293.834,153.552 291.537,154.716 290.069 C 155.879 288.601,157.139 286.979,157.516 286.465 C 157.892 285.951,158.605 285.120,159.100 284.619 C 159.595 284.118,160.000 283.573,160.000 283.408 C 160.000 283.242,160.630 282.249,161.400 281.200 C 162.170 280.151,162.800 279.092,162.800 278.846 C 162.800 278.601,162.986 278.400,163.213 278.400 C 163.439 278.400,163.738 278.085,163.876 277.700 C 164.014 277.315,164.728 276.166,165.463 275.146 C 166.198 274.127,166.800 273.092,166.800 272.846 C 166.800 272.601,166.986 272.400,167.213 272.400 C 167.439 272.400,167.738 272.085,167.876 271.700 C 168.015 271.315,168.999 269.788,170.064 268.306 C 171.129 266.824,172.000 265.501,172.000 265.364 C 172.000 265.228,172.540 264.316,173.200 263.338 C 173.860 262.360,174.400 261.466,174.400 261.352 C 174.400 261.238,174.940 260.359,175.600 259.400 C 176.260 258.441,176.800 257.491,176.800 257.290 C 176.800 257.089,177.160 256.598,177.600 256.200 C 178.040 255.802,178.400 255.311,178.400 255.110 C 178.400 254.909,178.940 253.959,179.600 253.000 C 180.260 252.041,180.800 251.063,180.800 250.828 C 180.800 250.593,180.978 250.400,181.195 250.400 C 181.412 250.400,181.858 249.815,182.185 249.100 C 182.513 248.385,183.501 246.630,184.381 245.200 C 185.260 243.770,186.206 242.150,186.482 241.600 C 186.757 241.050,187.212 240.456,187.492 240.280 C 187.771 240.104,188.000 239.771,188.000 239.540 C 188.000 239.310,188.623 238.103,189.384 236.860 C 190.720 234.678,192.198 231.938,195.457 225.600 C 196.305 223.950,197.225 222.456,197.500 222.280 C 197.775 222.104,198.000 221.674,198.000 221.324 C 198.000 220.974,199.149 218.328,200.553 215.444 C 203.782 208.812,204.250 207.722,204.603 206.000 C 204.761 205.230,205.230 203.846,205.644 202.924 C 206.059 202.002,206.600 200.292,206.846 199.124 C 207.092 197.956,207.427 196.820,207.589 196.600 C 208.110 195.897,208.781 191.497,208.841 188.400 C 208.961 182.134,206.730 178.800,202.415 178.800 C 201.087 178.800,200.000 178.647,200.000 178.459 C 200.000 178.271,198.065 177.994,195.700 177.842 C 182.762 177.013,182.099 172.042,193.490 161.276 C 196.445 158.484,199.183 156.080,199.575 155.933 C 199.968 155.787,200.398 155.382,200.532 155.033 C 200.666 154.685,201.040 154.400,201.365 154.400 C 201.689 154.400,202.192 154.085,202.482 153.700 C 202.772 153.315,203.458 152.738,204.005 152.417 C 206.075 151.205,212.619 148.017,213.054 148.008 C 213.304 148.004,214.021 147.734,214.648 147.409 C 215.274 147.084,216.780 146.624,217.994 146.388 C 219.207 146.152,220.632 145.743,221.161 145.479 C 222.466 144.828,233.927 144.826,235.239 145.476 C 235.768 145.738,237.156 146.144,238.324 146.377 C 239.492 146.611,241.237 147.161,242.202 147.601 C 243.167 148.040,244.125 148.400,244.332 148.400 C 248.920 148.400,263.421 160.424,269.698 169.433 C 275.807 178.202,279.807 184.441,281.988 188.600 C 290.527 204.891,290.923 205.675,292.390 209.200 C 293.076 210.850,293.982 213.010,294.403 214.000 C 294.824 214.990,296.714 219.760,298.604 224.600 C 300.493 229.440,302.211 233.816,302.422 234.325 C 302.633 234.834,303.418 236.904,304.167 238.925 C 308.682 251.108,309.600 253.635,309.600 253.870 C 309.600 255.088,322.439 291.820,325.514 299.400 C 341.063 337.727,358.848 358.583,372.880 354.943 C 374.032 354.645,375.256 354.400,375.601 354.400 C 376.375 354.400,380.400 350.386,380.400 349.614 C 380.400 349.305,380.736 348.321,381.148 347.426 C 382.294 344.933,382.729 343.564,382.998 341.600 C 383.134 340.610,383.400 339.440,383.589 339.000 C 385.257 335.122,385.264 303.051,383.599 299.000 C 383.418 298.560,382.974 294.690,382.612 290.400 C 382.250 286.110,381.795 282.240,381.602 281.800 C 381.409 281.360,380.961 278.039,380.608 274.420 C 380.254 270.801,379.819 267.651,379.641 267.420 C 379.462 267.189,379.006 264.660,378.626 261.800 C 378.246 258.940,377.783 256.309,377.597 255.953 C 377.411 255.597,376.964 253.171,376.603 250.562 C 376.242 247.953,375.798 245.634,375.616 245.409 C 375.434 245.184,374.980 243.110,374.607 240.800 C 374.234 238.490,373.773 236.301,373.583 235.935 C 373.392 235.569,372.954 233.589,372.608 231.535 C 372.262 229.481,371.818 227.440,371.620 227.000 C 371.422 226.560,370.955 224.400,370.583 222.200 C 370.211 220.000,369.764 218.020,369.590 217.800 C 369.416 217.580,368.964 215.690,368.587 213.600 C 368.209 211.510,367.759 209.620,367.587 209.400 C 367.414 209.180,366.964 207.290,366.587 205.200 C 366.209 203.110,365.758 201.220,365.586 201.000 C 365.413 200.780,365.154 199.880,365.009 199.000 C 364.582 196.394,363.870 193.429,363.568 193.000 C 363.414 192.780,362.982 191.160,362.609 189.400 C 362.236 187.640,361.695 185.660,361.407 185.000 C 361.119 184.340,360.756 182.990,360.600 182.000 C 360.444 181.010,360.081 179.660,359.793 179.000 C 359.505 178.340,358.964 176.360,358.591 174.600 C 358.218 172.840,357.772 171.220,357.599 171.000 C 357.427 170.780,356.969 169.430,356.580 168.000 C 356.192 166.570,355.737 165.218,355.569 164.997 C 355.400 164.775,354.973 163.347,354.620 161.824 C 354.267 160.301,353.819 158.863,353.625 158.628 C 353.430 158.392,352.976 157.057,352.615 155.661 C 352.253 154.264,351.802 152.824,351.612 152.461 C 351.422 152.097,350.953 150.720,350.570 149.400 C 350.187 148.080,349.656 146.640,349.391 146.200 C 349.125 145.760,348.676 144.500,348.392 143.400 C 348.108 142.300,347.721 141.198,347.532 140.951 C 347.342 140.705,346.907 139.535,346.564 138.351 C 346.221 137.168,345.605 135.480,345.196 134.600 C 344.787 133.720,344.331 132.331,344.184 131.514 C 344.037 130.697,343.665 129.820,343.358 129.565 C 343.051 129.310,342.800 128.949,342.800 128.761 C 342.800 128.573,342.284 127.291,341.653 125.910 C 341.022 124.530,340.107 122.500,339.619 121.400 C 339.131 120.300,338.370 118.590,337.929 117.600 C 336.780 115.025,332.180 105.874,330.460 102.743 C 329.657 101.281,328.306 98.761,327.458 97.143 C 326.610 95.524,325.665 93.916,325.358 93.569 C 325.051 93.221,324.800 92.804,324.800 92.641 C 324.800 92.478,324.297 91.592,323.683 90.672 C 323.068 89.752,322.345 88.550,322.076 88.000 C 321.807 87.450,321.053 86.190,320.400 85.200 C 319.747 84.210,319.093 83.130,318.945 82.800 C 318.798 82.470,318.075 81.345,317.339 80.299 C 316.603 79.254,316.000 78.279,316.000 78.133 C 316.000 77.987,315.727 77.582,315.392 77.234 C 314.018 75.800,310.000 70.459,310.000 70.065 C 310.000 69.831,309.775 69.496,309.500 69.320 C 309.225 69.144,308.520 68.303,307.933 67.451 C 305.770 64.312,284.548 43.600,283.494 43.600 C 283.253 43.600,281.783 42.638,280.228 41.461 C 278.672 40.285,277.085 39.211,276.700 39.074 C 276.315 38.937,276.000 38.639,276.000 38.413 C 276.000 38.186,275.752 38.000,275.449 38.000 C 275.146 38.000,274.677 37.734,274.408 37.410 C 274.138 37.085,272.811 36.264,271.459 35.586 C 270.107 34.907,268.100 33.862,267.000 33.263 C 265.900 32.664,264.460 31.881,263.800 31.523 C 262.227 30.669,259.762 29.600,259.366 29.600 C 259.194 29.600,258.321 29.254,257.426 28.832 C 256.532 28.410,254.904 27.768,253.810 27.406 C 252.715 27.044,251.635 26.609,251.410 26.438 C 251.184 26.267,249.020 25.800,246.600 25.399 C 244.180 24.998,242.090 24.504,241.955 24.300 C 241.424 23.498,228.502 22.979,221.469 23.476 " stroke="none" fill="#040404" fill-rule="evenodd"></path><path id="path1" d="M0.000 200.000 L 0.000 400.000 200.000 400.000 L 400.000 400.000 400.000 200.000 L 400.000 0.000 200.000 0.000 L 0.000 0.000 0.000 200.000 M234.541 23.019 C 237.543 23.178,240.000 23.443,240.000 23.609 C 240.000 23.774,240.855 24.027,241.900 24.171 C 244.769 24.568,248.103 25.242,249.000 25.609 C 249.440 25.788,250.426 26.043,251.190 26.176 C 251.955 26.308,253.305 26.760,254.190 27.181 C 255.076 27.601,256.745 28.248,257.900 28.618 C 259.055 28.989,260.000 29.431,260.000 29.602 C 260.000 29.772,260.669 30.036,261.486 30.190 C 262.304 30.343,263.429 30.789,263.986 31.180 C 264.544 31.571,265.810 32.284,266.800 32.765 C 269.140 33.902,271.297 35.074,271.800 35.482 C 272.020 35.660,272.650 36.033,273.200 36.311 C 274.394 36.915,276.725 38.501,277.700 39.374 C 278.085 39.718,278.509 40.000,278.642 40.000 C 278.776 40.000,279.567 40.540,280.400 41.200 C 281.233 41.860,282.069 42.402,282.258 42.405 C 282.823 42.414,284.633 43.943,290.420 49.300 C 293.450 52.105,296.125 54.400,296.365 54.400 C 296.604 54.400,296.800 54.628,296.800 54.906 C 296.800 55.185,298.975 57.570,301.633 60.206 C 305.922 64.461,310.000 69.122,310.000 69.770 C 310.000 69.896,310.281 70.315,310.624 70.700 C 312.341 72.627,316.000 77.565,316.000 77.955 C 316.000 78.200,316.176 78.400,316.392 78.400 C 316.607 78.400,317.192 79.135,317.692 80.034 C 318.191 80.933,318.907 82.222,319.281 82.899 C 319.656 83.576,320.106 84.236,320.281 84.365 C 320.457 84.494,320.958 85.320,321.396 86.200 C 321.834 87.080,322.305 87.890,322.442 88.000 C 322.580 88.110,323.122 88.980,323.646 89.934 C 324.171 90.888,324.907 92.222,325.281 92.899 C 325.656 93.576,326.111 94.236,326.292 94.365 C 326.474 94.494,326.972 95.410,327.400 96.400 C 327.828 97.390,328.275 98.290,328.393 98.400 C 328.511 98.510,328.966 99.320,329.404 100.200 C 329.842 101.080,330.315 101.890,330.455 102.000 C 330.595 102.110,331.007 102.830,331.370 103.600 C 331.938 104.805,333.537 107.832,335.068 110.600 C 336.053 112.381,337.578 115.866,337.824 116.900 C 337.969 117.505,338.233 118.000,338.411 118.000 C 338.590 118.000,339.047 118.945,339.427 120.100 C 339.807 121.255,340.237 122.290,340.382 122.400 C 340.527 122.510,340.879 123.230,341.165 124.000 C 341.451 124.770,342.227 126.570,342.891 128.000 C 344.556 131.588,344.696 131.930,345.418 134.200 C 345.768 135.300,346.288 136.740,346.574 137.400 C 346.861 138.060,347.338 139.455,347.635 140.500 C 347.932 141.545,348.315 142.400,348.487 142.400 C 348.659 142.400,348.800 142.649,348.800 142.954 C 348.800 143.644,350.081 147.728,350.382 148.000 C 350.717 148.301,351.517 150.805,351.820 152.500 C 351.968 153.325,352.214 154.000,352.367 154.000 C 352.521 154.000,352.980 155.305,353.390 156.900 C 353.799 158.495,354.252 159.890,354.397 160.000 C 354.543 160.110,354.984 161.550,355.379 163.200 C 355.773 164.850,356.220 166.290,356.373 166.400 C 356.525 166.510,356.982 167.860,357.388 169.400 C 357.795 170.940,358.251 172.290,358.402 172.400 C 358.552 172.510,358.996 174.265,359.387 176.300 C 359.779 178.335,360.257 180.000,360.450 180.000 C 360.642 180.000,360.800 180.303,360.800 180.674 C 360.800 181.552,361.949 186.367,362.404 187.400 C 362.598 187.840,363.056 189.550,363.421 191.200 C 363.787 192.850,364.311 194.740,364.585 195.400 C 364.860 196.060,365.312 197.950,365.589 199.600 C 365.866 201.250,366.236 202.780,366.411 203.000 C 366.585 203.220,366.847 204.120,366.993 205.000 C 367.540 208.307,368.142 211.013,368.417 211.400 C 368.573 211.620,369.021 213.645,369.412 215.900 C 369.802 218.155,370.248 220.000,370.403 220.000 C 370.557 220.000,370.998 221.935,371.384 224.300 C 371.769 226.665,372.217 228.780,372.378 229.000 C 372.540 229.220,373.000 231.380,373.401 233.800 C 373.802 236.220,374.249 238.290,374.395 238.400 C 374.541 238.510,374.984 240.490,375.380 242.800 C 375.775 245.110,376.229 247.180,376.388 247.400 C 376.548 247.620,376.999 250.230,377.391 253.200 C 377.783 256.170,378.234 258.780,378.393 259.000 C 378.553 259.220,379.012 261.740,379.413 264.600 C 379.814 267.460,380.261 269.890,380.407 270.000 C 380.552 270.110,380.999 273.710,381.400 278.000 C 381.801 282.290,382.255 285.890,382.409 286.000 C 382.562 286.110,383.010 289.980,383.404 294.600 C 383.798 299.220,384.297 303.227,384.512 303.504 C 385.471 304.735,385.501 335.246,384.546 336.447 C 384.304 336.751,383.882 338.530,383.607 340.400 C 383.333 342.270,382.889 344.160,382.620 344.600 C 382.352 345.040,381.800 346.518,381.395 347.884 C 379.328 354.851,370.394 357.834,362.919 354.051 C 361.995 353.583,361.058 353.200,360.838 353.200 C 359.836 353.200,352.819 347.316,350.470 344.506 C 347.370 340.798,340.800 332.071,340.800 331.662 C 340.800 331.503,340.162 330.389,339.382 329.187 C 337.713 326.613,331.869 314.795,328.608 307.400 C 327.347 304.540,325.983 301.480,325.576 300.600 C 325.170 299.720,324.083 296.930,323.161 294.400 C 322.239 291.870,320.959 288.360,320.317 286.600 C 319.675 284.840,318.805 282.410,318.384 281.200 C 317.964 279.990,317.070 277.470,316.399 275.600 C 315.727 273.730,314.018 268.690,312.601 264.400 C 311.183 260.110,309.825 256.060,309.583 255.400 C 309.341 254.740,308.815 253.120,308.415 251.800 C 307.780 249.705,306.432 246.002,303.609 238.600 C 300.657 230.860,299.576 228.100,296.719 221.000 C 294.949 216.600,293.015 211.732,292.421 210.183 C 291.443 207.627,289.790 204.336,281.987 189.400 C 278.458 182.646,269.947 169.900,265.132 164.160 C 261.612 159.963,250.927 151.200,249.330 151.200 C 249.070 151.200,248.619 150.967,248.329 150.683 C 248.038 150.399,247.170 149.920,246.400 149.620 C 245.630 149.319,244.280 148.761,243.400 148.378 C 242.520 147.995,240.990 147.464,240.000 147.197 C 239.010 146.930,237.840 146.567,237.400 146.389 C 233.392 144.773,222.586 144.786,219.000 146.410 C 218.560 146.609,217.120 147.048,215.800 147.386 C 204.695 150.224,184.406 167.588,185.783 173.075 C 186.374 175.429,189.624 177.200,193.354 177.200 C 194.123 177.200,194.852 177.360,194.973 177.556 C 195.093 177.751,197.399 178.043,200.096 178.204 L 205.000 178.497 206.500 179.949 C 207.324 180.747,207.999 181.597,208.000 181.839 C 208.000 182.080,208.300 182.879,208.667 183.614 C 209.614 185.513,209.455 192.191,208.405 194.600 C 208.213 195.040,207.761 196.795,207.401 198.500 C 207.040 200.205,206.614 201.600,206.453 201.600 C 206.292 201.600,205.824 202.950,205.413 204.600 C 205.002 206.250,204.536 207.600,204.378 207.600 C 204.219 207.600,203.975 208.208,203.835 208.952 C 203.532 210.567,191.287 234.999,190.491 235.577 C 190.322 235.700,189.964 236.250,189.696 236.800 C 189.428 237.350,188.489 238.970,187.609 240.400 C 186.729 241.830,185.735 243.585,185.399 244.300 C 185.064 245.015,184.612 245.600,184.395 245.600 C 184.178 245.600,184.000 245.809,184.000 246.065 C 184.000 246.512,182.994 248.229,180.133 252.668 C 179.400 253.805,178.800 254.930,178.800 255.168 C 178.800 255.406,178.622 255.600,178.405 255.600 C 178.188 255.600,177.729 256.185,177.384 256.900 C 176.343 259.058,175.407 260.635,173.458 263.515 C 172.436 265.024,171.600 266.372,171.600 266.511 C 171.600 266.650,170.745 267.938,169.700 269.375 C 167.882 271.873,165.750 275.028,163.600 278.403 C 161.140 282.264,158.718 285.600,158.375 285.600 C 158.169 285.600,158.000 285.811,158.000 286.070 C 158.000 286.328,156.920 287.855,155.600 289.463 C 154.280 291.072,153.200 292.564,153.200 292.780 C 153.200 292.995,152.840 293.365,152.400 293.600 C 151.960 293.835,151.600 294.211,151.600 294.435 C 151.600 294.908,147.712 299.839,146.454 300.962 C 145.984 301.381,145.600 301.902,145.600 302.119 C 145.600 302.336,145.061 303.073,144.401 303.757 C 143.742 304.441,141.738 306.710,139.948 308.800 C 135.225 314.315,126.077 323.503,121.000 327.832 C 118.580 329.896,116.260 331.903,115.845 332.292 C 115.430 332.681,114.670 333.270,114.157 333.600 C 112.622 334.586,107.555 338.086,105.208 339.779 C 104.002 340.649,102.285 341.750,101.393 342.224 C 99.063 343.463,97.829 344.171,97.600 344.400 C 96.894 345.104,89.932 348.582,88.000 349.195 C 87.010 349.509,85.364 350.178,84.342 350.683 C 83.320 351.187,82.235 351.600,81.931 351.600 C 81.627 351.600,81.023 351.840,80.589 352.132 C 80.155 352.425,77.820 352.991,75.400 353.390 C 72.980 353.789,70.782 354.286,70.515 354.494 C 70.068 354.844,57.191 356.028,56.847 355.751 C 56.763 355.683,56.994 354.407,57.359 352.914 C 57.725 351.421,58.647 347.230,59.409 343.600 C 60.170 339.970,61.146 335.380,61.578 333.400 C 62.603 328.693,64.159 321.516,65.372 315.900 C 67.589 305.632,70.020 295.178,71.394 290.000 C 71.715 288.790,72.616 285.100,73.397 281.800 C 74.177 278.500,75.078 274.810,75.400 273.600 C 75.722 272.390,76.627 268.700,77.412 265.400 C 78.859 259.314,80.425 253.270,81.402 250.000 C 81.697 249.010,82.511 246.040,83.211 243.400 C 83.910 240.760,84.818 237.430,85.229 236.000 C 85.639 234.570,86.531 231.330,87.211 228.800 C 89.720 219.456,91.255 214.102,93.401 207.200 C 93.914 205.550,94.900 202.310,95.592 200.000 C 96.285 197.690,97.091 195.080,97.385 194.200 C 97.679 193.320,98.593 190.350,99.417 187.600 C 101.194 181.668,103.972 173.254,108.397 160.400 C 110.177 155.230,112.182 149.380,112.852 147.400 C 113.522 145.420,114.497 142.810,115.018 141.600 C 115.540 140.390,116.606 137.690,117.388 135.600 C 118.170 133.510,119.067 131.260,119.381 130.600 C 119.696 129.940,120.401 128.230,120.949 126.800 C 124.321 117.997,125.286 115.641,127.626 110.500 C 128.052 109.565,128.744 108.035,129.164 107.100 C 129.584 106.165,130.373 104.410,130.916 103.200 C 131.460 101.990,132.958 98.660,134.246 95.800 C 135.533 92.940,137.265 89.520,138.096 88.200 C 138.926 86.880,139.729 85.530,139.881 85.200 C 141.265 82.200,148.655 70.413,152.104 65.707 C 154.517 62.415,155.605 60.890,157.364 58.338 C 159.491 55.253,170.100 45.151,174.233 42.275 C 175.755 41.216,178.127 39.547,179.505 38.567 C 180.882 37.586,184.302 35.601,187.105 34.155 C 189.907 32.710,192.380 31.394,192.600 31.231 C 192.820 31.068,193.630 30.705,194.400 30.424 C 195.170 30.144,196.340 29.669,197.000 29.370 C 203.235 26.540,204.696 26.075,212.000 24.603 C 214.530 24.093,216.600 23.629,216.600 23.573 C 216.600 23.415,228.138 22.507,228.641 22.625 C 228.883 22.683,231.538 22.860,234.541 23.019 " stroke="none" fill="#fbfbfb" fill-rule="evenodd"></path><path id="path2" d="M211.845 24.728 C 211.733 24.908,212.173 24.977,212.821 24.882 C 213.470 24.787,214.000 24.640,214.000 24.555 C 214.000 24.250,212.043 24.407,211.845 24.728 M242.000 24.556 C 242.000 24.642,242.617 24.785,243.372 24.873 C 244.127 24.961,244.656 24.890,244.548 24.716 C 244.355 24.403,242.000 24.255,242.000 24.556 M280.800 41.746 C 280.800 41.856,281.340 42.330,282.000 42.800 C 282.660 43.270,283.200 43.564,283.200 43.454 C 283.200 43.344,282.660 42.870,282.000 42.400 C 281.340 41.930,280.800 41.636,280.800 41.746 M163.600 51.800 C 162.628 52.790,161.923 53.600,162.033 53.600 C 162.143 53.600,163.028 52.790,164.000 51.800 C 164.972 50.810,165.677 50.000,165.567 50.000 C 165.457 50.000,164.572 50.810,163.600 51.800 M310.975 71.732 C 311.591 72.539,312.176 73.200,312.275 73.200 C 312.553 73.200,310.821 70.860,310.309 70.544 C 310.059 70.389,310.359 70.924,310.975 71.732 M316.799 79.500 C 317.322 80.215,317.813 80.800,317.889 80.800 C 318.193 80.800,317.201 79.300,316.545 78.767 C 316.113 78.416,316.210 78.696,316.799 79.500 M196.786 158.300 L 194.600 160.600 196.900 158.414 C 198.165 157.211,199.200 156.176,199.200 156.114 C 199.200 155.817,198.818 156.163,196.786 158.300 M200.600 178.638 C 202.474 178.939,205.109 178.977,204.938 178.700 C 204.836 178.535,203.638 178.425,202.276 178.454 C 200.914 178.484,200.160 178.567,200.600 178.638 M375.152 244.087 C 375.337 245.198,375.393 245.255,375.519 244.454 C 375.601 243.933,375.503 243.343,375.301 243.141 C 375.079 242.919,375.021 243.293,375.152 244.087 M377.152 254.487 C 377.337 255.598,377.393 255.655,377.519 254.854 C 377.601 254.333,377.503 253.743,377.301 253.541 C 377.079 253.319,377.021 253.693,377.152 254.487 M379.293 266.000 C 379.293 266.770,379.375 267.085,379.476 266.700 C 379.576 266.315,379.576 265.685,379.476 265.300 C 379.375 264.915,379.293 265.230,379.293 266.000 M381.193 279.719 L 381.385 281.800 381.518 280.046 C 381.591 279.081,381.505 278.144,381.326 277.965 C 381.147 277.785,381.087 278.575,381.193 279.719 M383.320 296.800 C 383.320 298.010,383.395 298.505,383.487 297.900 C 383.578 297.295,383.578 296.305,383.487 295.700 C 383.395 295.095,383.320 295.590,383.320 296.800 M146.760 300.300 C 145.419 301.734,143.783 303.835,144.658 303.000 C 145.611 302.090,148.489 298.800,148.332 298.800 C 148.239 298.800,147.531 299.475,146.760 300.300 M131.194 317.900 L 125.800 323.400 131.300 318.006 C 134.325 315.039,136.800 312.564,136.800 312.506 C 136.800 312.219,136.206 312.791,131.194 317.900 M113.800 333.435 L 112.600 334.466 113.900 333.606 C 114.615 333.133,115.200 332.668,115.200 332.573 C 115.200 332.273,115.031 332.378,113.800 333.435 M383.293 340.400 C 383.293 341.170,383.375 341.485,383.476 341.100 C 383.576 340.715,383.576 340.085,383.476 339.700 C 383.375 339.315,383.293 339.630,383.293 340.400 M57.294 355.005 C 57.354 355.805,62.082 356.027,62.882 355.268 C 63.037 355.120,61.977 355.061,60.528 355.137 C 58.647 355.234,57.798 355.121,57.564 354.742 C 57.329 354.362,57.252 354.437,57.294 355.005 M368.000 355.356 C 368.000 355.442,368.617 355.585,369.372 355.673 C 370.127 355.761,370.656 355.690,370.548 355.516 C 370.355 355.203,368.000 355.055,368.000 355.356 " stroke="none" fill="#747474" fill-rule="evenodd"></path><path id="path3" d="M219.400 23.200 L 216.600 23.459 219.200 23.523 C 220.630 23.559,222.070 23.413,222.400 23.200 C 222.730 22.987,222.820 22.841,222.600 22.877 C 222.380 22.912,220.940 23.058,219.400 23.200 M235.511 23.493 C 236.451 23.578,237.891 23.577,238.711 23.491 C 239.530 23.405,238.760 23.336,237.000 23.337 C 235.240 23.339,234.570 23.409,235.511 23.493 M208.600 25.200 L 207.400 25.505 208.476 25.553 C 209.068 25.579,209.664 25.420,209.800 25.200 C 209.936 24.980,209.992 24.821,209.924 24.847 C 209.856 24.873,209.260 25.032,208.600 25.200 M169.775 45.700 L 168.600 47.000 169.900 45.825 C 171.112 44.730,171.384 44.400,171.075 44.400 C 171.006 44.400,170.421 44.985,169.775 45.700 M161.591 53.500 L 158.200 57.000 161.700 53.609 C 163.625 51.744,165.200 50.169,165.200 50.109 C 165.200 49.818,164.741 50.249,161.591 53.500 M308.364 67.933 C 308.580 68.336,309.071 68.921,309.455 69.233 C 309.887 69.584,309.790 69.304,309.201 68.500 C 308.151 67.065,307.757 66.798,308.364 67.933 M314.364 75.933 C 314.580 76.336,315.071 76.921,315.455 77.233 C 315.887 77.584,315.790 77.304,315.201 76.500 C 314.151 75.065,313.757 74.798,314.364 75.933 M201.600 154.449 C 200.206 155.671,200.205 155.672,201.488 154.819 C 202.196 154.348,202.882 153.791,203.012 153.581 C 203.397 152.957,203.077 153.154,201.600 154.449 M358.400 173.376 C 358.400 173.913,358.547 174.444,358.728 174.555 C 358.908 174.667,358.977 174.227,358.882 173.579 C 358.672 172.149,358.400 172.035,358.400 173.376 M191.165 177.326 C 191.344 177.505,192.281 177.591,193.246 177.518 L 195.000 177.385 192.919 177.193 C 191.775 177.087,190.985 177.147,191.165 177.326 M360.400 180.976 C 360.400 181.513,360.547 182.044,360.728 182.155 C 360.908 182.267,360.977 181.827,360.882 181.179 C 360.672 179.749,360.400 179.635,360.400 180.976 M370.400 220.976 C 370.400 221.513,370.547 222.044,370.728 222.155 C 370.908 222.267,370.977 221.827,370.882 221.179 C 370.672 219.749,370.400 219.635,370.400 220.976 M374.400 239.576 C 374.400 240.223,374.542 240.841,374.716 240.948 C 374.890 241.056,374.961 240.527,374.873 239.772 C 374.676 238.091,374.400 237.977,374.400 239.576 M376.335 248.836 C 376.417 249.699,376.604 250.479,376.750 250.569 C 376.895 250.659,376.947 250.027,376.865 249.164 C 376.783 248.301,376.596 247.521,376.450 247.431 C 376.305 247.341,376.253 247.973,376.335 248.836 M79.029 258.229 C 78.881 258.815,78.838 259.372,78.932 259.466 C 79.027 259.560,79.224 259.158,79.371 258.571 C 79.519 257.985,79.562 257.428,79.468 257.334 C 79.373 257.240,79.176 257.642,79.029 258.229 M378.400 260.576 C 378.400 261.333,378.538 262.038,378.707 262.143 C 378.876 262.247,378.948 261.628,378.865 260.766 C 378.681 258.832,378.400 258.718,378.400 260.576 M174.400 261.600 C 173.930 262.260,173.636 262.800,173.746 262.800 C 173.856 262.800,174.330 262.260,174.800 261.600 C 175.270 260.940,175.564 260.400,175.454 260.400 C 175.344 260.400,174.870 260.940,174.400 261.600 M380.446 271.876 C 380.421 273.018,380.538 274.038,380.707 274.143 C 380.876 274.247,380.957 273.583,380.886 272.666 C 380.679 269.975,380.496 269.647,380.446 271.876 M75.029 274.629 C 74.881 275.215,74.838 275.772,74.932 275.866 C 75.027 275.960,75.224 275.558,75.371 274.971 C 75.519 274.385,75.562 273.828,75.468 273.734 C 75.373 273.640,75.176 274.042,75.029 274.629 M382.446 287.876 C 382.421 289.018,382.538 290.038,382.707 290.143 C 382.876 290.247,382.957 289.583,382.886 288.666 C 382.679 285.975,382.496 285.647,382.446 287.876 M157.123 287.100 C 156.418 287.921,155.890 288.800,156.101 288.800 C 156.183 288.800,156.649 288.260,157.137 287.600 C 158.101 286.296,158.092 285.972,157.123 287.100 M384.393 305.319 L 384.585 307.400 384.718 305.646 C 384.791 304.681,384.705 303.744,384.526 303.565 C 384.347 303.385,384.287 304.175,384.393 305.319 M141.427 306.705 C 140.246 308.078,139.980 308.518,140.763 307.800 C 141.950 306.713,143.839 304.393,143.527 304.405 C 143.457 304.408,142.512 305.443,141.427 306.705 M63.029 326.229 C 62.881 326.815,62.838 327.372,62.932 327.466 C 63.027 327.560,63.224 327.158,63.371 326.571 C 63.519 325.985,63.562 325.428,63.468 325.334 C 63.373 325.240,63.176 325.642,63.029 326.229 M118.867 329.500 L 117.365 331.000 118.782 329.801 C 119.562 329.142,120.371 328.467,120.580 328.301 C 120.789 328.135,120.827 328.000,120.665 328.000 C 120.502 328.000,119.693 328.675,118.867 329.500 M61.029 335.429 C 60.881 336.015,60.838 336.572,60.932 336.666 C 61.027 336.760,61.224 336.358,61.371 335.771 C 61.519 335.185,61.562 334.628,61.468 334.534 C 61.373 334.440,61.176 334.842,61.029 335.429 M109.400 336.635 L 108.200 337.666 109.500 336.806 C 110.215 336.333,110.800 335.868,110.800 335.773 C 110.800 335.473,110.631 335.578,109.400 336.635 M79.000 352.291 C 77.284 352.535,76.920 353.072,78.604 352.875 C 79.376 352.785,80.106 352.551,80.227 352.356 C 80.348 352.160,80.392 352.027,80.324 352.060 C 80.256 352.093,79.660 352.197,79.000 352.291 " stroke="none" fill="#a2a2a2" fill-rule="evenodd"></path><path id="path4" d="M223.900 23.089 C 224.615 23.178,225.785 23.178,226.500 23.089 C 227.215 23.001,226.630 22.928,225.200 22.928 C 223.770 22.928,223.185 23.001,223.900 23.089 M229.891 23.089 C 230.601 23.177,231.861 23.179,232.691 23.092 C 233.521 23.005,232.940 22.933,231.400 22.931 C 229.860 22.929,229.181 23.000,229.891 23.089 M225.717 145.097 C 227.211 145.174,229.551 145.174,230.917 145.096 C 232.282 145.018,231.060 144.955,228.200 144.955 C 225.340 144.956,224.222 145.020,225.717 145.097 M208.934 189.600 C 208.934 191.250,209.005 191.925,209.091 191.100 C 209.178 190.275,209.178 188.925,209.091 188.100 C 209.005 187.275,208.934 187.950,208.934 189.600 M368.752 214.487 C 368.937 215.598,368.993 215.655,369.119 214.854 C 369.201 214.333,369.103 213.743,368.901 213.541 C 368.679 213.319,368.621 213.693,368.752 214.487 M370.800 223.376 C 370.800 223.913,370.947 224.444,371.128 224.555 C 371.308 224.667,371.377 224.227,371.282 223.579 C 371.072 222.149,370.800 222.035,370.800 223.376 M372.752 232.487 C 372.937 233.598,372.993 233.655,373.119 232.854 C 373.201 232.333,373.103 231.743,372.901 231.541 C 372.679 231.319,372.621 231.693,372.752 232.487 M376.893 252.000 C 376.893 252.770,376.975 253.085,377.076 252.700 C 377.176 252.315,377.176 251.685,377.076 251.300 C 376.975 250.915,376.893 251.230,376.893 252.000 M378.800 263.376 C 378.800 263.913,378.947 264.444,379.128 264.555 C 379.308 264.667,379.377 264.227,379.282 263.579 C 379.072 262.149,378.800 262.035,378.800 263.376 M380.909 276.000 C 380.909 276.990,380.987 277.395,381.082 276.900 C 381.178 276.405,381.178 275.595,381.082 275.100 C 380.987 274.605,380.909 275.010,380.909 276.000 M382.846 292.276 C 382.821 293.418,382.938 294.438,383.107 294.543 C 383.276 294.647,383.357 293.983,383.286 293.066 C 383.079 290.375,382.896 290.047,382.846 292.276 M384.799 314.519 L 384.998 321.800 385.109 314.830 C 385.170 310.996,385.080 307.720,384.910 307.549 C 384.739 307.378,384.690 310.515,384.799 314.519 M384.960 328.600 C 384.961 331.900,385.022 333.197,385.098 331.482 C 385.173 329.767,385.172 327.067,385.097 325.482 C 385.021 323.897,384.959 325.300,384.960 328.600 M382.893 342.800 C 382.893 343.570,382.975 343.885,383.076 343.500 C 383.176 343.115,383.176 342.485,383.076 342.100 C 382.975 341.715,382.893 342.030,382.893 342.800 M64.291 355.089 C 65.001 355.177,66.261 355.179,67.091 355.092 C 67.921 355.005,67.340 354.933,65.800 354.931 C 64.260 354.929,63.581 355.000,64.291 355.089 " stroke="none" fill="#7c7c7c" fill-rule="evenodd"></path></g></svg>