<svg id="svg" version="1.1" xmlns="http://www.w3.org/2000/svg" xmlns:xlink="http://www.w3.org/1999/xlink" width="400" height="400" viewBox="0, 0, 400,400"><g id="svgg"><path id="path0" d="M281.600 13.251 C 269.708 13.504,265.669 13.772,264.200 14.408 C 263.760 14.598,260.250 15.046,256.400 15.403 C 252.550 15.759,249.130 16.163,248.800 16.298 C 248.470 16.434,245.725 16.963,242.700 17.473 C 239.675 17.983,234.725 18.817,231.700 19.327 C 228.675 19.837,225.930 20.355,225.600 20.479 C 225.270 20.602,223.290 21.021,221.200 21.411 C 219.110 21.800,217.220 22.246,217.000 22.402 C 216.780 22.558,214.980 23.010,213.000 23.407 C 211.020 23.804,209.220 24.254,209.000 24.407 C 208.780 24.560,206.980 25.009,205.000 25.404 C 203.020 25.800,201.229 26.276,201.020 26.462 C 200.811 26.648,200.351 26.800,199.997 26.800 C 199.421 26.800,192.893 29.219,189.800 30.578 C 189.140 30.868,187.880 31.334,187.000 31.613 C 186.120 31.893,185.040 32.344,184.600 32.616 C 184.160 32.888,183.080 33.334,182.200 33.608 C 181.320 33.881,180.420 34.230,180.200 34.383 C 179.980 34.537,178.914 34.990,177.831 35.391 C 176.748 35.791,174.678 36.779,173.231 37.586 C 171.784 38.393,168.260 40.211,165.400 41.627 C 162.540 43.042,160.140 44.335,160.067 44.500 C 159.993 44.665,159.720 44.800,159.460 44.800 C 159.200 44.800,157.010 46.157,154.594 47.816 C 152.177 49.475,148.400 52.040,146.200 53.516 C 144.000 54.992,142.020 56.329,141.800 56.488 C 127.129 67.059,107.422 92.080,100.596 108.800 C 95.040 122.410,94.443 124.089,93.803 127.895 C 93.442 130.043,92.900 132.970,92.600 134.400 C 89.189 150.628,88.304 166.217,89.581 187.602 C 90.516 203.264,90.685 204.675,94.205 226.200 C 94.565 228.400,95.126 232.000,95.452 234.200 C 95.778 236.400,96.476 240.000,97.002 242.200 C 99.398 252.213,101.368 260.531,103.019 267.600 C 104.497 273.930,105.931 279.491,106.578 281.400 C 106.876 282.280,107.784 285.250,108.597 288.000 C 109.410 290.750,110.403 294.080,110.803 295.400 C 111.204 296.720,112.015 299.420,112.606 301.400 C 113.196 303.380,114.094 306.350,114.600 308.000 C 115.106 309.650,116.009 312.620,116.606 314.600 C 117.203 316.580,118.853 321.620,120.272 325.800 C 121.691 329.980,124.013 336.820,125.433 341.000 C 126.852 345.180,129.148 351.930,130.535 356.000 L 133.057 363.400 135.729 363.518 C 137.198 363.583,138.400 363.471,138.400 363.270 C 138.400 363.068,140.785 362.776,143.700 362.620 C 148.792 362.349,151.692 361.922,153.400 361.191 C 153.840 361.002,155.730 360.541,157.600 360.165 C 159.470 359.789,161.171 359.328,161.380 359.141 C 161.589 358.953,162.088 358.800,162.488 358.800 C 162.888 358.800,163.887 358.387,164.708 357.882 C 165.529 357.377,168.180 355.992,170.600 354.804 C 173.813 353.227,175.546 352.088,177.026 350.581 C 178.140 349.445,179.253 348.445,179.499 348.358 C 180.310 348.072,184.800 343.539,184.800 343.006 C 184.800 342.720,185.070 342.382,185.400 342.255 C 185.730 342.129,186.000 341.819,186.000 341.566 C 186.000 341.314,186.630 340.249,187.400 339.200 C 188.170 338.151,188.800 337.092,188.800 336.846 C 188.800 336.601,188.972 336.400,189.181 336.400 C 189.391 336.400,189.857 335.778,190.218 335.018 C 190.579 334.259,191.117 333.435,191.415 333.187 C 191.713 332.940,192.175 331.762,192.442 330.569 C 192.709 329.376,193.055 328.400,193.212 328.400 C 193.368 328.400,193.724 327.545,194.002 326.500 C 194.280 325.455,194.723 324.240,194.985 323.800 C 195.782 322.464,196.800 318.932,196.800 317.505 C 196.800 316.765,196.959 315.989,197.153 315.780 C 197.347 315.571,197.820 312.880,198.205 309.800 C 198.589 306.720,199.061 304.029,199.252 303.820 C 199.443 303.611,199.602 300.011,199.605 295.820 C 199.611 286.202,200.629 266.289,201.164 265.327 C 201.386 264.927,201.849 262.273,202.194 259.428 C 202.539 256.584,202.985 254.059,203.185 253.818 C 203.386 253.576,203.850 252.033,204.218 250.389 C 204.585 248.745,205.046 247.229,205.243 247.020 C 205.439 246.811,205.600 246.336,205.600 245.965 C 205.600 245.594,206.230 244.374,207.000 243.255 C 207.770 242.135,208.400 241.035,208.400 240.810 C 208.400 240.189,213.119 235.600,213.757 235.600 C 214.064 235.600,214.414 235.341,214.535 235.024 C 214.661 234.697,215.803 234.243,217.188 233.970 C 218.525 233.707,219.716 233.336,219.833 233.146 C 220.111 232.697,223.887 232.694,224.165 233.143 C 224.281 233.331,225.507 233.714,226.888 233.992 C 228.270 234.271,230.071 234.927,230.891 235.449 C 231.712 235.972,232.481 236.400,232.600 236.400 C 232.805 236.400,234.143 237.214,237.800 239.564 C 245.922 244.784,252.671 253.366,258.858 266.344 C 261.632 272.162,262.247 274.552,264.971 290.113 C 265.317 292.091,265.762 298.470,265.988 304.713 C 266.823 327.737,268.142 334.068,273.276 339.686 C 275.071 341.650,279.337 342.559,280.884 341.307 C 281.168 341.078,282.468 340.556,283.774 340.148 C 285.080 339.741,286.520 339.095,286.974 338.714 C 287.428 338.333,289.420 336.686,291.400 335.054 C 295.525 331.653,300.072 327.071,304.752 321.600 C 306.540 319.510,308.542 317.241,309.201 316.557 C 309.861 315.873,310.400 315.184,310.400 315.025 C 310.400 314.866,311.750 313.145,313.400 311.200 C 315.050 309.255,316.400 307.539,316.400 307.386 C 316.400 307.233,316.862 306.634,317.427 306.054 C 317.991 305.474,320.156 302.930,322.237 300.400 C 324.318 297.870,326.466 295.316,327.010 294.726 C 327.555 294.135,328.000 293.517,328.000 293.353 C 328.000 293.189,328.990 291.763,330.200 290.183 C 331.410 288.603,332.400 287.191,332.400 287.044 C 332.400 286.897,333.266 285.657,334.324 284.289 C 335.382 282.920,336.367 281.485,336.511 281.100 C 336.656 280.715,336.961 280.400,337.187 280.400 C 337.414 280.400,337.602 280.175,337.604 279.900 C 337.607 279.625,338.325 278.500,339.200 277.400 C 340.075 276.300,340.793 275.218,340.796 274.996 C 340.798 274.774,341.160 274.368,341.600 274.093 C 342.040 273.818,342.400 273.401,342.400 273.166 C 342.400 272.931,343.182 271.718,344.139 270.470 C 345.095 269.221,346.112 267.750,346.399 267.200 C 346.686 266.650,347.679 265.210,348.605 264.000 C 349.531 262.790,350.398 261.485,350.532 261.100 C 350.666 260.715,350.961 260.400,351.187 260.400 C 351.414 260.400,351.602 260.175,351.604 259.900 C 351.606 259.625,352.236 258.610,353.004 257.644 C 353.772 256.678,354.400 255.637,354.400 255.331 C 354.400 255.025,354.670 254.671,355.000 254.545 C 355.330 254.418,355.600 254.139,355.600 253.925 C 355.600 253.535,356.943 251.354,360.297 246.297 C 361.283 244.810,362.399 243.010,362.777 242.297 C 363.154 241.584,363.916 240.190,364.470 239.200 C 365.023 238.210,365.819 236.770,366.238 236.000 C 366.657 235.230,367.135 234.540,367.300 234.467 C 367.465 234.393,367.600 234.160,367.600 233.947 C 367.600 233.735,368.203 232.620,368.939 231.468 C 369.676 230.317,370.412 228.661,370.575 227.787 C 370.738 226.914,371.011 226.020,371.181 225.800 C 371.351 225.580,371.810 224.050,372.200 222.400 C 372.590 220.750,373.020 219.220,373.155 219.000 C 374.234 217.239,374.423 202.387,373.375 201.685 C 373.141 201.528,372.630 200.365,372.238 199.101 C 371.846 197.836,371.394 196.720,371.232 196.620 C 371.070 196.520,370.609 195.350,370.206 194.019 C 369.803 192.689,369.322 191.600,369.137 191.600 C 368.952 191.600,368.800 191.309,368.800 190.954 C 368.800 190.598,367.720 189.089,366.400 187.600 C 365.080 186.111,364.000 184.698,364.000 184.461 C 364.000 184.223,363.642 183.836,363.204 183.602 C 362.766 183.368,362.152 182.687,361.840 182.088 C 361.183 180.831,357.638 177.200,357.068 177.200 C 356.857 177.200,356.305 176.829,355.842 176.376 C 354.208 174.778,347.622 169.600,347.223 169.600 C 347.000 169.600,346.524 169.150,346.163 168.600 C 345.803 168.050,345.330 167.600,345.112 167.600 C 344.894 167.600,343.249 166.768,341.458 165.752 C 337.937 163.754,335.797 162.558,333.600 161.362 C 332.830 160.943,332.110 160.510,332.000 160.400 C 331.279 159.680,323.663 155.848,321.700 155.218 C 320.765 154.918,320.000 154.521,320.000 154.336 C 320.000 154.151,319.722 154.000,319.383 154.000 C 319.044 154.000,317.612 153.460,316.200 152.800 C 314.788 152.140,313.536 151.600,313.418 151.600 C 313.299 151.600,312.077 151.072,310.701 150.426 C 309.325 149.780,307.705 149.131,307.100 148.983 C 306.495 148.834,306.000 148.577,306.000 148.411 C 306.000 148.245,304.965 147.790,303.700 147.400 C 302.435 147.009,301.220 146.559,301.000 146.398 C 300.780 146.237,299.610 145.796,298.400 145.418 C 297.190 145.039,295.660 144.493,295.000 144.203 C 294.340 143.913,292.990 143.442,292.000 143.157 C 291.010 142.872,290.110 142.513,290.000 142.359 C 289.890 142.205,288.720 141.766,287.400 141.383 C 286.080 141.000,284.640 140.459,284.200 140.182 C 283.760 139.905,282.770 139.550,282.000 139.393 C 281.230 139.236,280.150 138.875,279.600 138.591 C 279.050 138.306,277.520 137.592,276.200 137.002 C 274.880 136.412,272.720 135.419,271.400 134.793 C 270.080 134.168,268.325 133.428,267.500 133.148 C 266.675 132.868,266.000 132.515,266.000 132.363 C 266.000 132.211,265.505 131.967,264.900 131.821 C 264.295 131.675,259.750 129.547,254.800 127.093 C 246.024 122.741,242.113 120.431,237.575 116.921 C 236.351 115.974,235.216 115.200,235.052 115.200 C 233.824 115.200,226.483 106.814,226.020 104.882 C 225.745 103.735,225.358 102.697,225.160 102.575 C 223.895 101.793,227.318 94.400,228.945 94.400 C 229.168 94.400,230.351 93.623,231.575 92.674 C 233.781 90.962,237.520 89.006,240.600 87.952 C 241.480 87.651,242.290 87.299,242.400 87.171 C 242.890 86.601,248.470 85.598,251.146 85.599 C 256.859 85.601,261.704 88.671,263.619 93.500 C 264.120 94.765,264.672 95.987,264.844 96.215 C 265.233 96.731,265.869 101.838,266.362 108.400 C 267.205 119.632,269.948 124.638,276.082 126.142 C 281.004 127.349,293.841 126.763,295.770 125.243 C 296.007 125.057,296.920 124.780,297.800 124.628 C 299.576 124.321,302.091 123.528,302.400 123.177 C 302.510 123.052,303.680 122.618,305.000 122.212 C 306.320 121.806,307.760 121.250,308.200 120.976 C 308.640 120.702,309.630 120.357,310.400 120.207 C 311.553 119.984,326.756 112.847,328.800 111.569 C 329.130 111.363,329.850 110.975,330.400 110.706 C 330.950 110.438,332.336 109.629,333.481 108.909 C 334.625 108.189,335.750 107.600,335.981 107.600 C 336.211 107.600,336.400 107.459,336.400 107.288 C 336.400 107.116,336.895 106.761,337.500 106.498 C 338.105 106.236,339.680 105.381,341.000 104.599 C 342.320 103.816,343.993 102.906,344.717 102.575 C 345.442 102.245,346.136 101.710,346.260 101.387 C 346.384 101.064,346.659 100.800,346.872 100.800 C 347.085 100.800,348.501 99.855,350.020 98.700 C 351.538 97.545,353.820 95.880,355.090 95.000 C 358.438 92.681,367.325 83.879,369.089 81.135 C 369.920 79.843,371.436 77.636,372.459 76.230 C 373.594 74.669,374.425 73.037,374.594 72.037 C 374.746 71.137,375.000 70.400,375.158 70.400 C 375.316 70.400,375.770 69.149,376.167 67.619 C 377.493 62.506,376.767 51.610,375.100 51.601 C 374.935 51.601,374.800 51.322,374.800 50.983 C 374.800 49.708,371.836 44.141,370.700 43.283 C 370.315 42.993,370.000 42.575,370.000 42.355 C 370.000 42.135,369.100 40.843,368.000 39.483 C 366.900 38.124,366.000 36.784,366.000 36.506 C 366.000 36.228,365.796 36.000,365.547 36.000 C 365.297 36.000,363.002 34.155,360.447 31.900 C 356.430 28.356,355.095 27.452,350.600 25.233 C 347.740 23.821,344.922 22.336,344.338 21.933 C 343.754 21.530,343.061 21.200,342.799 21.200 C 342.536 21.200,341.754 20.940,341.060 20.622 C 340.367 20.304,338.720 19.743,337.400 19.374 C 336.080 19.005,334.820 18.573,334.600 18.414 C 334.380 18.254,333.300 17.892,332.200 17.608 C 331.100 17.324,329.840 16.876,329.400 16.612 C 328.960 16.348,325.720 15.804,322.200 15.404 C 318.680 15.003,315.576 14.502,315.301 14.290 C 314.430 13.616,294.018 12.987,281.600 13.251 " stroke="none" fill="#040404" fill-rule="evenodd"></path><path id="path1" d="M0.000 200.000 L 0.000 400.000 200.000 400.000 L 400.000 400.000 400.000 200.000 L 400.000 0.000 200.000 0.000 L 0.000 0.000 0.000 200.000 M303.200 13.016 C 308.150 13.166,312.380 13.425,312.600 13.593 C 312.820 13.760,315.700 14.214,319.000 14.601 C 322.300 14.988,325.171 15.461,325.380 15.652 C 325.589 15.843,326.399 16.003,327.180 16.006 C 328.507 16.011,331.161 16.736,333.000 17.595 C 333.440 17.801,334.880 18.268,336.200 18.633 C 337.520 18.998,338.780 19.427,339.000 19.586 C 339.220 19.746,340.300 20.109,341.400 20.394 C 342.500 20.679,343.580 21.126,343.800 21.388 C 344.020 21.650,345.055 22.189,346.100 22.586 C 347.145 22.984,348.000 23.429,348.000 23.575 C 348.000 23.722,348.900 24.166,350.000 24.561 C 351.100 24.957,352.000 25.413,352.000 25.576 C 352.000 25.739,352.761 26.123,353.691 26.430 C 354.621 26.737,356.164 27.711,357.119 28.594 C 358.073 29.477,360.423 31.550,362.339 33.200 C 365.626 36.030,370.000 41.039,370.000 41.974 C 370.000 42.208,370.162 42.400,370.360 42.400 C 370.675 42.400,371.190 43.088,372.756 45.600 C 372.961 45.930,373.611 47.280,374.199 48.600 C 374.787 49.920,375.701 51.900,376.231 53.000 C 377.555 55.753,377.722 67.600,376.436 67.600 C 376.284 67.600,375.817 68.995,375.397 70.700 C 374.834 72.987,374.224 74.323,373.071 75.793 C 372.212 76.890,371.354 78.195,371.165 78.693 C 370.975 79.192,370.679 79.600,370.508 79.600 C 370.336 79.600,369.940 80.176,369.628 80.881 C 368.516 83.395,355.896 95.600,354.410 95.600 C 354.200 95.600,353.835 95.960,353.600 96.400 C 353.365 96.840,352.953 97.201,352.686 97.202 C 352.281 97.204,348.256 100.133,345.988 102.076 C 345.651 102.364,344.751 102.926,343.988 103.324 C 343.224 103.722,341.700 104.565,340.600 105.199 C 336.828 107.370,334.998 108.376,333.332 109.192 C 332.414 109.642,331.604 110.142,331.532 110.305 C 331.339 110.736,328.831 112.000,328.168 112.000 C 327.855 112.000,327.600 112.140,327.600 112.312 C 327.600 112.484,326.700 112.973,325.600 113.400 C 324.500 113.827,323.600 114.277,323.600 114.400 C 323.600 114.523,322.700 114.973,321.600 115.400 C 320.500 115.827,319.600 116.277,319.600 116.400 C 319.600 116.523,318.700 116.973,317.600 117.400 C 316.500 117.827,315.600 118.292,315.600 118.433 C 315.600 118.575,314.565 119.010,313.300 119.400 C 312.035 119.791,310.820 120.241,310.600 120.402 C 310.380 120.563,309.210 121.006,308.000 121.388 C 306.790 121.769,305.068 122.423,304.174 122.840 C 303.279 123.258,302.317 123.600,302.035 123.600 C 301.754 123.600,301.046 123.858,300.462 124.172 C 299.878 124.487,297.960 125.056,296.200 125.437 C 294.440 125.817,292.747 126.325,292.439 126.564 C 291.653 127.175,277.120 127.158,276.362 126.546 C 276.053 126.297,275.170 125.960,274.400 125.799 C 269.953 124.865,266.587 118.398,266.176 110.000 C 265.654 99.350,263.892 93.012,260.478 89.500 C 259.461 88.455,258.469 87.600,258.273 87.600 C 258.077 87.600,257.020 87.150,255.925 86.600 C 253.598 85.431,248.821 85.202,246.660 86.157 C 245.967 86.463,244.500 86.939,243.400 87.214 C 242.300 87.490,240.860 88.019,240.200 88.391 C 239.540 88.762,238.235 89.305,237.300 89.597 C 236.365 89.889,235.600 90.279,235.600 90.464 C 235.600 90.649,235.344 90.800,235.031 90.800 C 234.717 90.800,233.636 91.430,232.627 92.200 C 231.618 92.970,230.624 93.600,230.416 93.600 C 230.209 93.600,229.896 93.825,229.720 94.100 C 229.544 94.375,229.052 94.792,228.626 95.027 C 225.754 96.613,224.702 101.673,226.448 105.505 C 227.326 107.433,235.648 116.000,236.642 116.000 C 236.776 116.000,237.567 116.540,238.400 117.200 C 239.233 117.860,240.108 118.400,240.343 118.400 C 240.579 118.400,240.965 118.760,241.200 119.200 C 241.435 119.640,241.830 120.000,242.076 120.000 C 242.323 120.000,243.081 120.413,243.762 120.917 C 244.882 121.747,260.919 129.808,265.800 131.995 C 266.900 132.488,269.240 133.568,271.000 134.394 C 272.760 135.221,275.055 136.215,276.100 136.603 C 277.145 136.991,278.000 137.427,278.000 137.571 C 278.000 137.716,278.830 138.056,279.845 138.328 C 280.860 138.599,282.435 139.159,283.345 139.571 C 284.255 139.984,285.794 140.534,286.764 140.793 C 287.734 141.053,288.904 141.507,289.364 141.803 C 289.824 142.099,290.884 142.466,291.720 142.619 C 292.555 142.771,293.455 143.112,293.720 143.376 C 293.984 143.640,295.100 144.080,296.200 144.354 C 297.300 144.628,298.563 145.087,299.006 145.374 C 299.449 145.660,300.439 146.022,301.206 146.178 C 301.973 146.334,303.500 146.883,304.600 147.399 C 308.474 149.216,311.016 150.304,312.500 150.781 C 313.325 151.045,314.000 151.428,314.000 151.631 C 314.000 151.834,314.320 152.000,314.710 152.000 C 315.101 152.000,316.496 152.534,317.810 153.187 C 319.125 153.841,320.330 154.381,320.490 154.387 C 320.649 154.394,321.959 154.940,323.400 155.600 C 324.841 156.260,326.286 156.800,326.610 156.800 C 326.935 156.800,327.200 156.972,327.200 157.181 C 327.200 157.391,327.965 157.938,328.900 158.397 C 329.835 158.857,331.500 159.756,332.600 160.395 C 333.700 161.035,335.365 161.921,336.300 162.365 C 337.235 162.809,338.000 163.329,338.000 163.522 C 338.000 163.714,338.720 164.110,339.600 164.400 C 340.480 164.690,341.200 165.071,341.200 165.245 C 341.200 165.420,342.007 165.920,342.993 166.356 C 344.475 167.011,347.165 168.753,348.000 169.598 C 348.576 170.180,354.415 174.800,354.576 174.800 C 354.679 174.800,355.206 175.205,355.747 175.700 C 356.287 176.195,357.212 176.960,357.802 177.400 C 358.391 177.840,359.082 178.437,359.337 178.728 C 359.592 179.018,360.205 179.635,360.700 180.100 C 361.195 180.564,361.600 181.103,361.600 181.298 C 361.600 181.492,362.045 182.135,362.588 182.726 C 366.912 187.428,369.118 190.369,369.622 192.100 C 369.926 193.145,370.299 194.000,370.450 194.000 C 370.602 194.000,371.042 195.035,371.428 196.300 C 371.815 197.565,372.268 198.781,372.434 199.003 C 373.555 200.495,373.989 203.292,373.994 209.076 C 373.998 212.877,374.157 215.250,374.419 215.412 C 374.706 215.589,374.709 215.828,374.430 216.163 C 374.206 216.434,373.752 217.821,373.421 219.246 C 373.091 220.670,372.566 222.368,372.254 223.018 C 371.943 223.668,371.455 225.415,371.171 226.900 C 370.886 228.385,370.515 229.600,370.345 229.600 C 370.176 229.600,369.663 230.365,369.206 231.300 C 368.377 232.994,367.384 234.804,365.199 238.600 C 364.565 239.700,363.722 241.230,363.324 242.000 C 362.926 242.770,362.375 243.544,362.100 243.720 C 361.825 243.896,361.600 244.239,361.600 244.482 C 361.600 244.725,361.150 245.514,360.600 246.235 C 360.051 246.956,359.425 248.008,359.210 248.573 C 358.996 249.138,358.635 249.600,358.410 249.600 C 358.184 249.600,358.000 249.799,358.000 250.042 C 358.000 250.285,357.460 251.284,356.800 252.262 C 356.140 253.240,355.600 254.151,355.600 254.287 C 355.600 254.423,354.700 255.768,353.600 257.276 C 352.500 258.783,351.600 260.136,351.600 260.281 C 351.600 260.426,350.638 261.817,349.461 263.372 C 348.285 264.928,347.211 266.515,347.074 266.900 C 346.937 267.285,346.639 267.600,346.413 267.600 C 346.186 267.600,345.998 267.825,345.996 268.100 C 345.993 268.375,345.275 269.500,344.400 270.600 C 343.525 271.700,342.807 272.735,342.804 272.900 C 342.802 273.065,342.518 273.515,342.173 273.900 C 341.086 275.114,337.600 279.952,337.600 280.247 C 337.600 280.402,336.520 281.925,335.200 283.632 C 333.880 285.338,332.800 286.929,332.800 287.167 C 332.800 287.405,332.614 287.600,332.387 287.600 C 332.161 287.600,331.857 287.906,331.714 288.280 C 331.344 289.244,327.888 293.998,326.644 295.254 C 326.070 295.834,325.600 296.437,325.600 296.594 C 325.600 296.751,324.160 298.554,322.400 300.600 C 320.640 302.646,319.200 304.439,319.200 304.585 C 319.200 304.731,318.752 305.335,318.205 305.926 C 316.430 307.844,310.800 314.750,310.800 315.010 C 310.800 315.149,310.080 315.954,309.200 316.800 C 308.320 317.646,307.600 318.463,307.600 318.616 C 307.600 318.989,302.621 324.606,298.627 328.739 C 295.211 332.273,289.105 337.600,288.470 337.600 C 288.262 337.600,287.808 338.033,287.462 338.562 C 287.044 339.199,286.285 339.617,285.216 339.797 C 284.327 339.947,283.600 340.206,283.600 340.372 C 283.600 340.538,282.835 340.911,281.900 341.202 C 271.494 344.440,266.873 335.783,266.006 311.427 C 265.474 296.495,264.661 288.192,263.032 281.084 C 261.016 272.291,260.516 270.686,258.401 266.215 C 253.325 255.490,248.025 248.123,241.647 242.927 C 237.896 239.870,237.069 239.304,233.800 237.551 C 232.920 237.079,232.110 236.582,232.000 236.446 C 231.541 235.882,229.217 234.800,228.462 234.800 C 228.014 234.800,227.546 234.636,227.422 234.436 C 226.446 232.857,217.923 233.146,215.546 234.838 C 214.958 235.257,214.300 235.600,214.084 235.600 C 213.413 235.600,208.800 240.276,208.800 240.956 C 208.800 241.310,208.614 241.600,208.387 241.600 C 208.161 241.600,207.858 241.915,207.715 242.300 C 207.573 242.685,207.051 243.630,206.555 244.400 C 206.059 245.170,205.530 246.520,205.379 247.400 C 205.229 248.280,204.871 249.540,204.585 250.200 C 203.933 251.702,202.800 256.357,202.800 257.531 C 202.800 258.015,202.633 258.723,202.429 259.105 C 201.912 260.071,200.800 269.991,200.800 273.633 C 200.800 275.287,200.620 276.820,200.400 277.040 C 200.162 277.278,199.913 282.345,199.783 289.620 C 199.573 301.383,199.034 309.369,198.396 310.200 C 198.227 310.420,197.862 312.580,197.585 315.000 C 197.308 317.420,196.867 319.760,196.604 320.200 C 196.341 320.640,195.792 322.080,195.382 323.400 C 194.972 324.720,194.412 326.240,194.136 326.778 C 193.860 327.316,193.412 328.621,193.141 329.678 C 192.870 330.735,192.503 331.600,192.324 331.600 C 192.146 331.600,192.000 331.874,192.000 332.210 C 192.000 332.791,191.041 334.346,187.703 339.173 C 186.876 340.368,185.840 341.998,185.400 342.795 C 184.960 343.591,183.340 345.367,181.800 346.741 C 180.260 348.115,178.100 350.085,177.000 351.119 C 175.668 352.372,173.264 353.856,169.800 355.563 C 166.940 356.972,164.330 358.347,164.000 358.618 C 163.670 358.889,162.095 359.339,160.500 359.619 C 158.905 359.899,157.600 360.249,157.600 360.397 C 157.600 360.545,155.800 360.996,153.600 361.400 C 151.400 361.804,149.600 362.250,149.600 362.393 C 149.600 362.535,146.135 362.877,141.900 363.154 C 137.665 363.431,133.895 363.743,133.521 363.849 C 133.001 363.996,132.702 363.593,132.237 362.120 C 131.904 361.064,130.632 357.320,129.411 353.800 C 127.229 347.509,123.935 337.832,119.270 324.000 C 117.971 320.150,116.235 314.750,115.412 312.000 C 113.906 306.966,113.041 304.103,111.638 299.500 C 110.312 295.152,108.374 288.721,107.329 285.200 C 106.774 283.330,105.989 280.720,105.585 279.400 C 105.180 278.080,104.280 274.570,103.584 271.600 C 102.889 268.630,102.047 265.120,101.714 263.800 C 101.381 262.480,100.788 259.960,100.396 258.200 C 99.685 255.010,98.812 251.372,97.758 247.200 C 96.583 242.548,94.854 233.589,94.209 228.810 C 93.839 226.066,93.458 223.693,93.362 223.538 C 93.265 223.382,92.832 220.767,92.398 217.727 C 91.964 214.687,91.348 210.750,91.028 208.979 C 90.707 207.207,90.250 202.707,90.011 198.979 C 89.772 195.250,89.367 190.220,89.110 187.800 C 87.853 175.965,89.291 145.043,91.409 138.372 C 91.533 137.981,91.977 135.712,92.394 133.330 C 93.555 126.713,94.699 121.756,95.359 120.480 C 95.687 119.845,96.305 118.443,96.733 117.363 C 101.164 106.177,102.496 103.266,105.273 98.706 C 106.443 96.784,108.548 93.274,109.951 90.906 C 111.354 88.538,114.954 83.569,117.951 79.865 C 120.948 76.161,123.742 72.651,124.161 72.065 C 125.044 70.827,139.668 57.623,141.657 56.267 C 142.396 55.763,144.440 54.358,146.200 53.145 C 147.960 51.931,150.570 50.149,152.000 49.185 C 153.430 48.220,154.690 47.324,154.800 47.194 C 155.468 46.404,161.350 43.253,172.200 37.872 C 179.636 34.184,181.142 33.517,186.800 31.403 C 188.890 30.623,190.917 29.805,191.305 29.586 C 191.692 29.367,192.862 28.906,193.905 28.561 C 194.947 28.217,196.520 27.605,197.400 27.202 C 198.280 26.798,199.810 26.343,200.800 26.189 C 201.790 26.035,202.780 25.767,203.000 25.593 C 203.220 25.418,205.020 24.962,207.000 24.579 C 208.980 24.195,210.780 23.745,211.000 23.579 C 211.220 23.412,213.020 22.962,215.000 22.579 C 216.980 22.195,218.799 21.728,219.042 21.540 C 219.285 21.352,221.355 20.910,223.642 20.559 C 225.929 20.207,228.160 19.769,228.600 19.584 C 229.040 19.400,231.740 18.931,234.600 18.542 C 237.460 18.154,239.890 17.724,240.000 17.587 C 240.235 17.296,249.238 15.999,251.020 16.000 C 251.691 16.000,252.411 15.842,252.620 15.649 C 252.829 15.457,256.240 14.995,260.200 14.623 C 264.160 14.251,267.760 13.741,268.200 13.490 C 268.894 13.092,291.604 12.342,293.600 12.650 C 293.930 12.701,298.250 12.866,303.200 13.016 " stroke="none" fill="#fbfbfb" fill-rule="evenodd"></path><path id="path2" d="M303.118 13.276 C 303.273 13.428,305.507 13.608,308.082 13.676 C 310.656 13.744,312.636 13.676,312.482 13.524 C 312.327 13.372,310.093 13.192,307.518 13.124 C 304.944 13.056,302.964 13.124,303.118 13.276 M269.305 13.487 C 269.914 13.579,270.814 13.577,271.305 13.482 C 271.797 13.387,271.300 13.311,270.200 13.314 C 269.100 13.317,268.697 13.395,269.305 13.487 M253.500 15.482 C 253.995 15.578,254.805 15.578,255.300 15.482 C 255.795 15.387,255.390 15.309,254.400 15.309 C 253.410 15.309,253.005 15.387,253.500 15.482 M322.700 15.482 C 323.195 15.578,324.005 15.578,324.500 15.482 C 324.995 15.387,324.590 15.309,323.600 15.309 C 322.610 15.309,322.205 15.387,322.700 15.482 M241.400 17.200 L 239.800 17.486 241.276 17.543 C 242.088 17.574,242.864 17.420,243.000 17.200 C 243.136 16.980,243.192 16.826,243.124 16.857 C 243.056 16.888,242.280 17.042,241.400 17.200 M229.300 19.476 C 229.685 19.576,230.315 19.576,230.700 19.476 C 231.085 19.375,230.770 19.293,230.000 19.293 C 229.230 19.293,228.915 19.375,229.300 19.476 M368.364 39.933 C 368.580 40.336,369.071 40.921,369.455 41.233 C 369.887 41.584,369.790 41.304,369.201 40.500 C 368.151 39.065,367.757 38.798,368.364 39.933 M132.175 64.500 L 131.000 65.800 132.300 64.625 C 133.512 63.530,133.784 63.200,133.475 63.200 C 133.406 63.200,132.821 63.785,132.175 64.500 M374.454 72.769 C 374.425 73.301,374.092 74.111,373.715 74.569 C 373.047 75.379,373.053 75.378,373.950 74.554 C 374.572 73.982,374.811 73.399,374.689 72.754 L 374.509 71.800 374.454 72.769 M245.000 86.400 L 243.800 86.705 244.876 86.753 C 245.468 86.779,246.064 86.620,246.200 86.400 C 246.336 86.180,246.392 86.021,246.324 86.047 C 246.256 86.073,245.660 86.232,245.000 86.400 M266.093 110.400 C 266.093 111.170,266.175 111.485,266.276 111.100 C 266.376 110.715,266.376 110.085,266.276 109.700 C 266.175 109.315,266.093 109.630,266.093 110.400 M299.000 124.400 L 297.800 124.705 298.876 124.753 C 299.468 124.779,300.064 124.620,300.200 124.400 C 300.336 124.180,300.392 124.021,300.324 124.047 C 300.256 124.073,299.660 124.232,299.000 124.400 M89.693 149.200 C 89.693 149.970,89.775 150.285,89.876 149.900 C 89.976 149.515,89.976 148.885,89.876 148.500 C 89.775 148.115,89.693 148.430,89.693 149.200 M89.320 156.000 C 89.320 157.210,89.395 157.705,89.487 157.100 C 89.578 156.495,89.578 155.505,89.487 154.900 C 89.395 154.295,89.320 154.790,89.320 156.000 M88.920 161.600 C 88.920 162.810,88.995 163.305,89.087 162.700 C 89.178 162.095,89.178 161.105,89.087 160.500 C 88.995 159.895,88.920 160.390,88.920 161.600 M88.501 169.000 C 88.505 169.880,88.587 170.193,88.683 169.695 C 88.779 169.198,88.775 168.478,88.675 168.095 C 88.575 167.713,88.496 168.120,88.501 169.000 M348.767 170.545 C 349.300 171.201,350.800 172.193,350.800 171.889 C 350.800 171.813,350.215 171.322,349.500 170.799 C 348.696 170.210,348.416 170.113,348.767 170.545 M88.501 177.800 C 88.505 178.680,88.587 178.993,88.683 178.495 C 88.779 177.998,88.775 177.278,88.675 176.895 C 88.575 176.513,88.496 176.920,88.501 177.800 M88.914 184.200 C 88.917 185.300,88.995 185.703,89.087 185.095 C 89.179 184.486,89.177 183.586,89.082 183.095 C 88.987 182.603,88.911 183.100,88.914 184.200 M89.309 188.800 C 89.309 189.790,89.387 190.195,89.482 189.700 C 89.578 189.205,89.578 188.395,89.482 187.900 C 89.387 187.405,89.309 187.810,89.309 188.800 M370.554 227.777 C 370.432 228.094,370.403 228.679,370.489 229.077 C 370.587 229.528,370.724 229.312,370.854 228.500 C 371.071 227.138,370.930 226.796,370.554 227.777 M96.856 243.600 C 96.856 243.930,97.011 244.560,97.200 245.000 C 97.417 245.504,97.544 245.578,97.544 245.200 C 97.544 244.870,97.389 244.240,97.200 243.800 C 96.983 243.296,96.856 243.222,96.856 243.600 M98.856 252.000 C 98.856 252.330,99.011 252.960,99.200 253.400 C 99.417 253.904,99.544 253.978,99.544 253.600 C 99.544 253.270,99.389 252.640,99.200 252.200 C 98.983 251.696,98.856 251.622,98.856 252.000 M202.501 257.400 C 202.505 258.280,202.587 258.593,202.683 258.095 C 202.779 257.598,202.775 256.878,202.675 256.495 C 202.575 256.113,202.496 256.520,202.501 257.400 M350.400 261.600 C 349.930 262.260,349.636 262.800,349.746 262.800 C 349.856 262.800,350.330 262.260,350.800 261.600 C 351.270 260.940,351.564 260.400,351.454 260.400 C 351.344 260.400,350.870 260.940,350.400 261.600 M200.571 269.332 C 200.459 269.624,200.421 271.469,200.487 273.432 L 200.607 277.000 200.803 272.899 C 200.998 268.832,200.964 268.307,200.571 269.332 M336.175 281.868 C 335.559 282.676,335.259 283.211,335.509 283.056 C 336.021 282.740,337.753 280.400,337.475 280.400 C 337.376 280.400,336.791 281.061,336.175 281.868 M265.314 295.800 C 265.317 296.900,265.395 297.303,265.487 296.695 C 265.579 296.086,265.577 295.186,265.482 294.695 C 265.387 294.203,265.311 294.700,265.314 295.800 M265.709 304.400 C 265.709 305.390,265.787 305.795,265.882 305.300 C 265.978 304.805,265.978 303.995,265.882 303.500 C 265.787 303.005,265.709 303.410,265.709 304.400 M315.960 308.100 C 314.276 310.132,313.465 311.512,314.961 309.800 C 316.284 308.285,317.699 306.400,317.512 306.400 C 317.434 306.400,316.735 307.165,315.960 308.100 M198.617 307.300 C 198.287 308.346,198.157 310.350,198.430 310.181 C 198.587 310.084,198.784 309.284,198.868 308.403 C 199.021 306.806,198.917 306.350,198.617 307.300 M266.114 316.200 C 266.117 317.300,266.195 317.703,266.287 317.095 C 266.379 316.486,266.377 315.586,266.282 315.095 C 266.187 314.603,266.111 315.100,266.114 316.200 M305.651 320.591 C 304.743 321.576,304.000 322.506,304.000 322.658 C 304.000 322.809,304.059 322.858,304.132 322.767 C 304.204 322.675,305.037 321.745,305.983 320.700 C 306.928 319.655,307.612 318.800,307.502 318.800 C 307.392 318.800,306.559 319.606,305.651 320.591 M184.370 343.900 C 184.036 344.285,182.511 345.764,180.981 347.187 C 179.452 348.610,178.560 349.517,179.000 349.201 C 180.162 348.368,184.544 344.300,184.920 343.706 C 185.381 342.977,185.079 343.084,184.370 343.900 M155.445 360.728 C 155.333 360.908,155.773 360.977,156.421 360.882 C 157.070 360.787,157.600 360.640,157.600 360.555 C 157.600 360.250,155.643 360.407,155.445 360.728 M145.300 362.691 C 146.125 362.778,147.475 362.778,148.300 362.691 C 149.125 362.605,148.450 362.534,146.800 362.534 C 145.150 362.534,144.475 362.605,145.300 362.691 " stroke="none" fill="#9c9c9c" fill-rule="evenodd"></path><path id="path3" d="M282.600 12.810 C 272.207 13.021,272.211 13.021,287.320 13.099 C 295.637 13.143,302.657 13.299,302.920 13.448 C 303.249 13.632,303.274 13.580,303.000 13.283 C 302.473 12.710,295.523 12.549,282.600 12.810 M260.400 14.628 L 256.600 15.143 260.200 14.936 C 262.180 14.821,263.971 14.564,264.180 14.364 C 264.389 14.164,264.479 14.025,264.380 14.056 C 264.281 14.087,262.490 14.344,260.400 14.628 M315.566 14.526 C 315.747 14.707,316.593 14.793,317.447 14.719 L 319.000 14.583 317.119 14.390 C 316.084 14.284,315.385 14.345,315.566 14.526 M319.700 15.076 C 320.085 15.176,320.715 15.176,321.100 15.076 C 321.485 14.975,321.170 14.893,320.400 14.893 C 319.630 14.893,319.315 14.975,319.700 15.076 M247.200 16.400 L 245.800 16.695 247.076 16.747 C 247.778 16.776,248.464 16.620,248.600 16.400 C 248.736 16.180,248.792 16.024,248.724 16.053 C 248.656 16.082,247.970 16.238,247.200 16.400 M243.700 17.076 C 244.085 17.176,244.715 17.176,245.100 17.076 C 245.485 16.975,245.170 16.893,244.400 16.893 C 243.630 16.893,243.315 16.975,243.700 17.076 M233.000 18.800 C 231.639 19.044,231.579 19.092,232.600 19.120 C 233.260 19.139,234.520 19.005,235.400 18.823 C 237.493 18.390,235.402 18.370,233.000 18.800 M335.400 18.800 C 335.840 18.989,336.470 19.144,336.800 19.144 C 337.178 19.144,337.104 19.017,336.600 18.800 C 336.160 18.611,335.530 18.456,335.200 18.456 C 334.822 18.456,334.896 18.583,335.400 18.800 M223.700 20.676 C 224.085 20.776,224.715 20.776,225.100 20.676 C 225.485 20.575,225.170 20.493,224.400 20.493 C 223.630 20.493,223.315 20.575,223.700 20.676 M341.400 20.800 C 341.840 20.989,342.470 21.144,342.800 21.144 C 343.178 21.144,343.104 21.017,342.600 20.800 C 342.160 20.611,341.530 20.456,341.200 20.456 C 340.822 20.456,340.896 20.583,341.400 20.800 M178.800 34.634 C 177.490 35.170,177.477 35.192,178.600 34.975 C 179.260 34.848,179.971 34.576,180.180 34.372 C 180.659 33.903,180.521 33.929,178.800 34.634 M376.824 60.149 C 376.852 63.179,376.967 65.567,377.079 65.455 C 377.338 65.196,377.234 55.101,376.970 54.837 C 376.861 54.728,376.796 57.119,376.824 60.149 M133.375 63.700 L 132.200 65.000 133.500 63.825 C 134.712 62.730,134.984 62.400,134.675 62.400 C 134.606 62.400,134.021 62.985,133.375 63.700 M362.563 88.388 C 359.683 91.233,357.613 93.401,357.963 93.207 C 358.653 92.823,368.313 83.195,367.994 83.208 C 367.887 83.212,365.443 85.544,362.563 88.388 M227.729 95.300 C 227.284 95.795,226.776 96.470,226.601 96.800 C 226.263 97.437,226.355 97.350,227.976 95.500 C 228.506 94.895,228.849 94.400,228.739 94.400 C 228.629 94.400,228.175 94.805,227.729 95.300 M225.067 99.867 C 224.703 100.231,224.728 102.309,225.100 102.538 C 225.265 102.640,225.400 102.021,225.400 101.162 C 225.400 100.303,225.385 99.600,225.367 99.600 C 225.348 99.600,225.213 99.720,225.067 99.867 M266.101 107.400 C 266.105 108.280,266.187 108.593,266.283 108.095 C 266.379 107.598,266.375 106.878,266.275 106.495 C 266.175 106.113,266.096 106.520,266.101 107.400 M266.406 113.033 C 266.409 113.675,266.584 114.470,266.795 114.800 C 267.055 115.209,267.099 114.890,266.932 113.800 C 266.629 111.823,266.398 111.486,266.406 113.033 M238.800 117.746 C 238.800 117.856,239.340 118.330,240.000 118.800 C 240.660 119.270,241.200 119.564,241.200 119.454 C 241.200 119.344,240.660 118.870,240.000 118.400 C 239.340 117.930,238.800 117.636,238.800 117.746 M284.400 126.800 L 278.200 127.032 284.276 127.116 C 287.989 127.167,290.449 127.044,290.600 126.800 C 290.736 126.580,290.792 126.438,290.724 126.484 C 290.656 126.530,287.810 126.673,284.400 126.800 M279.776 138.578 C 280.204 138.920,280.834 139.186,281.176 139.168 C 281.715 139.141,281.718 139.107,281.200 138.914 C 280.870 138.792,280.240 138.526,279.800 138.324 C 279.013 137.962,279.012 137.966,279.776 138.578 M285.400 140.800 C 285.840 140.989,286.470 141.144,286.800 141.144 C 287.178 141.144,287.104 141.017,286.600 140.800 C 286.160 140.611,285.530 140.456,285.200 140.456 C 284.822 140.456,284.896 140.583,285.400 140.800 M290.400 142.627 C 292.183 143.327,293.355 143.595,292.978 143.218 C 292.757 142.997,291.951 142.720,291.188 142.604 C 290.424 142.487,290.070 142.498,290.400 142.627 M301.800 146.800 C 302.240 146.989,302.870 147.144,303.200 147.144 C 303.578 147.144,303.504 147.017,303.000 146.800 C 302.560 146.611,301.930 146.456,301.600 146.456 C 301.222 146.456,301.296 146.583,301.800 146.800 M311.200 150.686 C 311.530 150.808,312.160 151.074,312.600 151.276 C 313.387 151.638,313.388 151.634,312.624 151.022 C 312.196 150.680,311.566 150.414,311.224 150.432 C 310.685 150.459,310.682 150.493,311.200 150.686 M89.693 152.000 C 89.693 152.770,89.775 153.085,89.876 152.700 C 89.976 152.315,89.976 151.685,89.876 151.300 C 89.775 150.915,89.693 151.230,89.693 152.000 M324.800 156.534 C 324.800 156.637,325.381 156.924,326.091 157.172 C 326.801 157.419,327.206 157.457,326.991 157.256 C 326.535 156.829,324.800 156.258,324.800 156.534 M89.301 160.200 C 89.305 161.080,89.387 161.393,89.483 160.895 C 89.579 160.398,89.575 159.678,89.475 159.295 C 89.375 158.913,89.296 159.320,89.301 160.200 M88.924 167.000 C 88.926 168.320,89.001 168.812,89.090 168.093 C 89.179 167.374,89.177 166.294,89.086 165.693 C 88.995 165.092,88.922 165.680,88.924 167.000 M88.528 173.600 C 88.528 175.030,88.601 175.615,88.689 174.900 C 88.778 174.185,88.778 173.015,88.689 172.300 C 88.601 171.585,88.528 172.170,88.528 173.600 M353.167 174.145 C 353.700 174.801,355.200 175.793,355.200 175.489 C 355.200 175.413,354.615 174.922,353.900 174.399 C 353.096 173.810,352.816 173.713,353.167 174.145 M88.920 179.600 C 88.920 180.810,88.995 181.305,89.087 180.700 C 89.178 180.095,89.178 179.105,89.087 178.500 C 88.995 177.895,88.920 178.390,88.920 179.600 M89.293 185.200 C 89.293 185.970,89.375 186.285,89.476 185.900 C 89.576 185.515,89.576 184.885,89.476 184.500 C 89.375 184.115,89.293 184.430,89.293 185.200 M90.093 198.800 C 90.093 199.570,90.175 199.885,90.276 199.500 C 90.376 199.115,90.376 198.485,90.276 198.100 C 90.175 197.715,90.093 198.030,90.093 198.800 M90.493 204.000 C 90.493 204.770,90.575 205.085,90.676 204.700 C 90.776 204.315,90.776 203.685,90.676 203.300 C 90.575 202.915,90.493 203.230,90.493 204.000 M219.862 233.100 C 219.760 233.265,220.722 233.400,222.000 233.400 C 223.278 233.400,224.240 233.265,224.138 233.100 C 224.036 232.935,223.074 232.800,222.000 232.800 C 220.926 232.800,219.964 232.935,219.862 233.100 M212.200 236.650 C 211.481 237.262,211.334 237.505,211.833 237.257 C 212.566 236.893,213.941 235.576,213.549 235.614 C 213.467 235.622,212.860 236.088,212.200 236.650 M201.015 265.700 C 200.703 266.674,200.565 269.195,200.839 268.900 C 200.993 268.735,201.186 267.835,201.270 266.900 C 201.420 265.210,201.321 264.743,201.015 265.700 M265.714 300.200 C 265.717 301.300,265.795 301.703,265.887 301.095 C 265.979 300.486,265.977 299.586,265.882 299.095 C 265.787 298.603,265.711 299.100,265.714 300.200 M320.175 302.707 C 318.468 304.786,318.029 305.696,319.551 304.000 C 320.717 302.700,321.778 301.191,321.514 301.207 C 321.451 301.211,320.849 301.886,320.175 302.707 M199.017 304.100 C 198.687 305.146,198.557 307.150,198.830 306.981 C 198.987 306.884,199.184 306.084,199.268 305.203 C 199.421 303.606,199.317 303.150,199.017 304.100 M266.114 311.800 C 266.117 312.900,266.195 313.303,266.287 312.695 C 266.379 312.086,266.377 311.186,266.282 310.695 C 266.187 310.203,266.111 310.700,266.114 311.800 M196.959 316.162 C 196.841 316.471,196.807 317.326,196.883 318.062 C 197.006 319.235,197.047 319.166,197.215 317.500 C 197.411 315.552,197.339 315.174,196.959 316.162 M266.509 320.000 C 266.509 320.990,266.587 321.395,266.682 320.900 C 266.778 320.405,266.778 319.595,266.682 319.100 C 266.587 318.605,266.509 319.010,266.509 320.000 M297.393 329.700 L 293.000 334.200 297.500 329.807 C 299.975 327.391,302.000 325.366,302.000 325.307 C 302.000 325.018,301.474 325.520,297.393 329.700 M139.491 363.089 C 140.201 363.177,141.461 363.179,142.291 363.092 C 143.121 363.005,142.540 362.933,141.000 362.931 C 139.460 362.929,138.781 363.000,139.491 363.089 " stroke="none" fill="#7c7c7c" fill-rule="evenodd"></path><path id="path4" d="" stroke="none" fill="#848484" fill-rule="evenodd"></path></g></svg>