<svg id="svg" version="1.1" xmlns="http://www.w3.org/2000/svg" xmlns:xlink="http://www.w3.org/1999/xlink" width="400" height="400" viewBox="0, 0, 400,400"><g id="svgg"><path id="path0" d="M237.604 13.916 C 235.516 13.980,233.635 14.205,233.424 14.416 C 233.213 14.627,231.681 14.805,230.020 14.810 C 227.293 14.820,221.065 15.647,215.200 16.779 C 213.990 17.012,211.920 17.409,210.600 17.662 C 209.280 17.914,208.020 18.248,207.800 18.405 C 207.580 18.562,206.050 19.000,204.400 19.378 C 202.750 19.757,201.130 20.170,200.800 20.298 C 200.470 20.426,198.940 20.937,197.400 21.433 C 192.883 22.890,189.854 23.982,189.045 24.444 C 188.629 24.682,187.381 25.146,186.272 25.475 C 176.943 28.246,153.666 42.659,142.201 52.764 C 134.986 59.124,128.950 64.997,121.405 73.000 C 117.702 76.928,108.424 88.942,103.798 95.800 C 101.424 99.320,98.989 102.920,98.387 103.800 C 97.785 104.680,95.983 107.650,94.382 110.400 C 92.781 113.150,90.702 116.683,89.762 118.251 C 87.318 122.324,79.436 139.972,78.261 144.000 C 77.715 145.870,76.793 149.020,76.211 151.000 C 75.629 152.980,74.713 156.108,74.175 157.952 C 73.315 160.894,69.287 180.265,68.633 184.600 C 65.556 204.990,66.447 245.317,70.581 272.800 C 71.127 276.430,72.119 283.000,72.784 287.400 C 73.450 291.800,74.632 298.460,75.410 302.200 C 76.188 305.940,77.175 310.800,77.602 313.000 C 79.629 323.439,79.845 324.371,86.356 350.783 L 88.669 360.165 90.634 360.720 C 95.547 362.106,98.252 362.787,98.867 362.793 C 99.233 362.797,99.593 362.937,99.667 363.104 C 99.740 363.271,101.420 363.823,103.400 364.330 C 109.614 365.922,113.778 367.059,114.400 367.334 C 114.730 367.480,116.620 367.977,118.600 368.437 C 120.580 368.898,124.090 369.727,126.400 370.278 C 128.710 370.830,132.400 371.685,134.600 372.178 C 136.800 372.671,138.870 373.186,139.200 373.322 C 140.088 373.688,147.515 375.166,153.000 376.068 C 155.640 376.502,158.071 376.998,158.401 377.170 C 158.732 377.342,161.162 377.804,163.801 378.196 C 166.441 378.588,168.780 379.047,169.000 379.216 C 169.220 379.385,171.920 379.824,175.000 380.191 C 178.080 380.557,180.960 381.017,181.400 381.212 C 181.840 381.407,184.720 381.854,187.800 382.205 C 190.880 382.557,193.731 383.025,194.135 383.247 C 194.539 383.469,199.489 383.941,205.135 384.296 C 210.781 384.652,215.494 385.080,215.610 385.249 C 216.635 386.747,272.248 386.710,275.800 385.209 C 276.240 385.023,279.800 384.583,283.712 384.231 C 287.623 383.880,291.133 383.424,291.512 383.218 C 291.890 383.013,294.450 382.556,297.200 382.202 C 299.950 381.849,302.560 381.406,303.000 381.219 C 303.440 381.032,305.780 380.575,308.200 380.204 C 310.620 379.834,312.780 379.383,313.000 379.203 C 313.220 379.023,315.020 378.562,317.000 378.179 C 318.980 377.795,320.782 377.342,321.004 377.172 C 321.226 377.001,323.026 376.560,325.004 376.191 C 326.982 375.823,328.780 375.378,329.000 375.203 C 329.220 375.029,330.570 374.577,332.000 374.199 C 333.430 373.821,335.140 373.283,335.800 373.004 C 336.460 372.724,337.946 372.276,339.101 372.007 C 340.257 371.739,341.303 371.358,341.425 371.160 C 341.547 370.962,341.990 370.800,342.410 370.800 C 342.830 370.800,343.854 370.503,344.686 370.139 C 348.654 368.406,349.904 367.844,351.200 367.209 C 351.970 366.831,353.455 366.275,354.500 365.974 C 355.545 365.672,356.400 365.293,356.400 365.131 C 356.400 364.970,357.165 364.468,358.100 364.017 C 359.035 363.566,360.700 362.667,361.800 362.020 C 362.900 361.373,364.415 360.548,365.167 360.188 C 367.884 358.886,376.800 350.204,376.800 348.860 C 376.800 348.654,377.070 348.382,377.400 348.255 C 377.730 348.129,378.000 347.777,378.000 347.475 C 378.000 347.172,378.335 346.621,378.744 346.251 C 379.153 345.881,379.808 344.368,380.201 342.889 C 380.593 341.410,381.089 339.977,381.302 339.704 C 381.900 338.941,381.671 330.886,381.023 329.861 C 380.723 329.387,380.350 328.370,380.194 327.600 C 380.037 326.830,379.570 325.445,379.155 324.522 C 378.740 323.599,378.400 322.638,378.400 322.387 C 378.400 322.136,377.888 321.181,377.262 320.265 C 376.637 319.349,375.175 317.189,374.014 315.464 C 372.157 312.706,365.666 305.600,365.003 305.600 C 364.868 305.600,363.517 304.610,362.000 303.400 C 360.483 302.190,359.064 301.200,358.845 301.200 C 358.627 301.200,356.877 300.385,354.957 299.389 C 353.037 298.393,350.641 297.388,349.633 297.155 C 348.625 296.923,347.440 296.585,347.000 296.403 C 345.251 295.682,340.476 294.798,338.333 294.799 C 336.933 294.800,336.006 294.618,335.908 294.323 C 335.683 293.649,317.325 293.604,315.963 294.274 C 315.433 294.534,312.579 295.041,309.621 295.399 C 306.663 295.757,304.053 296.174,303.821 296.325 C 303.589 296.476,301.420 296.985,299.000 297.456 C 296.580 297.926,292.890 298.776,290.800 299.344 C 288.710 299.912,285.470 300.787,283.600 301.288 C 281.730 301.790,279.976 302.345,279.703 302.522 C 279.429 302.699,276.819 303.118,273.903 303.454 C 270.986 303.790,268.287 304.230,267.905 304.432 C 267.079 304.870,249.467 304.934,249.034 304.500 C 248.869 304.335,246.851 303.990,244.549 303.734 C 242.247 303.478,239.967 303.011,239.482 302.696 C 238.997 302.381,237.610 301.799,236.400 301.402 C 235.190 301.006,234.110 300.573,234.000 300.439 C 233.890 300.305,233.080 299.952,232.200 299.654 C 231.320 299.356,229.430 298.356,228.000 297.430 C 226.570 296.505,224.901 295.502,224.292 295.202 C 222.912 294.522,211.600 283.040,211.600 282.319 C 211.600 282.030,211.240 281.568,210.800 281.293 C 210.360 281.018,210.000 280.616,210.000 280.400 C 210.000 280.184,209.401 279.222,208.668 278.262 C 207.364 276.554,202.365 266.776,201.786 264.800 C 201.624 264.250,201.370 263.710,201.221 263.600 C 201.072 263.490,200.622 262.320,200.220 261.000 C 199.818 259.680,199.346 258.416,199.171 258.190 C 198.995 257.965,198.558 256.885,198.199 255.790 C 197.840 254.696,197.306 253.260,197.013 252.600 C 196.719 251.940,196.262 250.320,195.996 249.000 C 195.731 247.680,195.372 246.420,195.200 246.200 C 195.028 245.980,194.588 244.360,194.223 242.600 C 193.857 240.840,193.414 239.129,193.237 238.799 C 193.061 238.468,192.596 236.038,192.204 233.399 C 191.812 230.759,191.345 228.413,191.166 228.184 C 190.988 227.956,190.549 224.446,190.190 220.384 C 189.832 216.323,189.373 212.687,189.169 212.305 C 188.700 211.424,188.680 186.291,189.148 185.780 C 189.339 185.571,189.812 182.700,190.199 179.400 C 190.586 176.100,191.032 173.220,191.190 173.000 C 191.348 172.780,191.800 170.350,192.195 167.600 C 192.590 164.850,193.029 162.510,193.172 162.400 C 193.314 162.290,193.769 160.445,194.183 158.300 C 194.598 156.155,195.059 154.400,195.209 154.400 C 195.358 154.400,195.803 153.005,196.197 151.300 C 196.590 149.595,197.048 148.020,197.213 147.800 C 197.379 147.580,197.831 146.230,198.220 144.800 C 198.608 143.370,199.055 142.020,199.214 141.800 C 199.373 141.580,199.808 140.320,200.180 139.000 C 201.399 134.675,207.643 121.932,210.318 118.311 C 211.175 117.150,212.164 115.644,212.516 114.963 C 214.541 111.044,224.569 101.559,228.800 99.561 C 230.010 98.989,231.810 98.133,232.800 97.659 C 237.950 95.192,252.580 94.908,257.400 97.182 C 257.840 97.390,259.363 97.845,260.785 98.193 C 262.206 98.542,263.466 98.965,263.585 99.133 C 263.800 99.440,266.493 100.533,271.000 102.143 C 272.320 102.614,273.490 103.099,273.600 103.219 C 273.710 103.340,274.970 103.776,276.400 104.189 C 277.830 104.602,279.191 105.083,279.425 105.257 C 279.658 105.431,281.278 105.925,283.025 106.355 C 284.771 106.785,287.190 107.407,288.400 107.736 C 289.610 108.065,291.950 108.459,293.600 108.612 C 295.250 108.764,296.828 109.073,297.107 109.299 C 298.350 110.305,323.994 110.218,324.331 109.206 C 324.406 108.983,325.451 108.800,326.654 108.800 C 328.870 108.800,334.087 107.845,335.215 107.233 C 335.554 107.049,336.634 106.765,337.615 106.601 C 338.597 106.437,340.120 105.975,341.000 105.574 C 341.880 105.173,343.590 104.538,344.800 104.162 C 346.010 103.786,347.180 103.352,347.400 103.198 C 347.620 103.044,348.790 102.578,350.000 102.163 C 351.210 101.747,352.290 101.291,352.400 101.150 C 352.510 101.009,353.410 100.614,354.400 100.273 C 356.920 99.402,360.400 97.600,360.400 97.164 C 360.400 96.964,360.601 96.800,360.846 96.800 C 361.092 96.800,362.151 96.170,363.200 95.400 C 364.249 94.630,365.226 94.000,365.371 94.000 C 366.079 94.000,370.388 89.180,371.092 87.600 C 373.788 81.548,372.137 72.991,367.382 68.383 C 366.622 67.646,366.000 66.897,366.000 66.717 C 366.000 65.448,350.619 51.600,349.210 51.600 C 348.988 51.600,348.582 51.240,348.307 50.800 C 348.032 50.360,347.642 50.000,347.440 50.000 C 347.238 50.000,346.119 49.280,344.954 48.400 C 343.788 47.520,342.647 46.800,342.417 46.800 C 342.188 46.800,342.000 46.620,342.000 46.400 C 342.000 46.180,341.801 46.000,341.558 46.000 C 341.315 46.000,340.316 45.460,339.338 44.800 C 338.360 44.140,337.453 43.600,337.321 43.600 C 337.190 43.600,336.134 42.970,334.974 42.200 C 333.814 41.430,332.670 40.800,332.432 40.800 C 332.194 40.800,332.000 40.620,332.000 40.400 C 332.000 40.180,331.792 40.000,331.538 40.000 C 331.284 40.000,330.519 39.577,329.838 39.060 C 329.157 38.543,327.790 37.739,326.800 37.274 C 325.810 36.809,323.740 35.695,322.200 34.799 C 320.660 33.902,319.085 33.065,318.700 32.938 C 318.315 32.811,318.000 32.548,318.000 32.353 C 318.000 32.159,317.755 32.000,317.456 32.000 C 317.157 32.000,316.302 31.590,315.556 31.090 C 314.810 30.589,313.390 29.931,312.400 29.626 C 311.410 29.322,310.240 28.866,309.800 28.613 C 309.360 28.360,308.100 27.823,307.000 27.420 C 305.900 27.017,304.816 26.545,304.590 26.370 C 304.365 26.195,303.285 25.749,302.190 25.379 C 301.096 25.009,300.110 24.581,300.000 24.428 C 299.890 24.276,298.540 23.818,297.000 23.412 C 295.460 23.005,294.110 22.555,294.000 22.412 C 293.890 22.268,292.540 21.818,291.000 21.412 C 289.460 21.005,288.110 20.537,287.999 20.373 C 287.780 20.046,282.116 18.800,280.850 18.800 C 280.419 18.800,280.007 18.650,279.933 18.466 C 279.860 18.282,277.837 17.831,275.439 17.464 C 273.040 17.097,270.880 16.647,270.639 16.465 C 270.397 16.284,267.005 15.803,263.100 15.396 C 259.195 14.990,256.000 14.517,256.000 14.346 C 256.000 14.010,243.822 13.726,237.604 13.916 " stroke="none" fill="#040404" fill-rule="evenodd"></path><path id="path1" d="M0.000 200.000 L 0.000 400.000 200.000 400.000 L 400.000 400.000 400.000 200.000 L 400.000 0.000 200.000 0.000 L 0.000 0.000 0.000 200.000 M259.800 14.643 C 263.320 15.001,266.371 15.454,266.580 15.647 C 266.789 15.841,267.573 16.000,268.323 16.000 C 270.034 16.000,276.863 17.210,277.400 17.608 C 277.620 17.772,279.420 18.124,281.400 18.392 C 283.380 18.660,285.532 19.136,286.182 19.450 C 286.832 19.764,288.452 20.302,289.782 20.646 C 291.112 20.990,292.380 21.419,292.600 21.600 C 292.820 21.781,294.170 22.231,295.600 22.600 C 297.030 22.969,298.380 23.404,298.600 23.567 C 298.820 23.729,299.900 24.189,301.000 24.587 C 302.100 24.986,303.180 25.443,303.400 25.603 C 303.620 25.763,304.745 26.202,305.900 26.579 C 307.055 26.956,308.000 27.407,308.000 27.582 C 308.000 27.757,308.581 28.016,309.290 28.158 C 311.140 28.528,313.537 29.643,318.600 32.489 C 319.700 33.107,321.365 33.964,322.300 34.392 C 323.235 34.821,324.000 35.322,324.000 35.507 C 324.000 35.691,324.900 36.166,326.000 36.561 C 327.100 36.957,328.000 37.442,328.000 37.640 C 328.000 37.838,328.225 38.005,328.500 38.011 C 328.775 38.017,329.707 38.557,330.571 39.211 C 331.435 39.865,332.303 40.400,332.499 40.400 C 332.695 40.400,333.641 40.940,334.600 41.600 C 335.559 42.260,336.500 42.800,336.691 42.800 C 336.881 42.800,337.389 43.071,337.819 43.402 C 339.591 44.766,342.233 46.386,342.697 46.393 C 342.970 46.397,343.418 46.760,343.693 47.200 C 343.968 47.640,344.331 48.000,344.501 48.000 C 344.788 48.000,349.559 51.110,350.000 51.585 C 350.345 51.956,354.013 54.400,354.226 54.400 C 354.337 54.400,356.198 56.200,358.361 58.400 C 360.525 60.600,362.498 62.400,362.747 62.400 C 362.996 62.400,363.200 62.606,363.200 62.857 C 363.200 63.108,363.734 63.873,364.388 64.557 C 367.220 67.521,369.543 70.390,369.814 71.261 C 369.976 71.777,370.224 72.290,370.365 72.400 C 370.506 72.510,370.972 73.410,371.400 74.400 C 371.828 75.390,372.308 76.294,372.466 76.409 C 372.954 76.764,372.984 83.896,372.501 84.479 C 372.258 84.771,371.834 85.908,371.559 87.005 C 371.156 88.615,370.582 89.463,368.586 91.400 C 365.703 94.198,359.092 98.819,357.141 99.401 C 356.172 99.690,352.869 101.154,350.400 102.388 C 349.630 102.773,348.054 103.312,346.899 103.584 C 345.743 103.857,344.705 104.230,344.591 104.414 C 344.478 104.597,343.354 105.047,342.093 105.414 C 340.832 105.780,339.710 106.214,339.600 106.378 C 339.490 106.542,337.690 107.002,335.600 107.400 C 333.510 107.798,331.696 108.282,331.569 108.475 C 331.266 108.933,319.292 109.989,314.324 109.995 C 311.969 109.998,310.342 110.171,310.178 110.435 C 309.985 110.748,309.788 110.748,309.475 110.435 C 309.225 110.185,307.502 110.003,305.420 110.006 C 301.556 110.012,290.334 108.851,290.000 108.411 C 289.890 108.266,288.180 107.814,286.200 107.407 C 284.220 107.000,282.330 106.525,282.000 106.351 C 281.670 106.177,280.320 105.740,279.000 105.380 C 277.680 105.019,276.420 104.589,276.200 104.423 C 275.980 104.257,274.585 103.782,273.100 103.366 C 271.615 102.950,270.400 102.492,270.400 102.348 C 270.400 102.204,269.905 101.963,269.300 101.812 C 268.254 101.551,263.980 99.820,261.400 98.614 C 260.740 98.305,259.210 97.857,258.000 97.618 C 256.790 97.380,254.562 96.806,253.050 96.343 C 250.040 95.423,239.470 95.369,238.334 96.268 C 238.040 96.501,237.001 96.813,236.025 96.962 C 235.048 97.111,233.608 97.570,232.825 97.982 C 232.041 98.394,230.546 99.061,229.501 99.465 C 228.457 99.869,227.602 100.335,227.601 100.500 C 227.601 100.665,227.375 100.800,227.100 100.800 C 225.628 100.800,214.083 112.278,213.188 114.631 C 212.986 115.164,212.635 115.600,212.410 115.600 C 212.184 115.600,212.000 115.801,212.000 116.046 C 212.000 116.292,211.370 117.351,210.600 118.400 C 209.830 119.449,209.200 120.499,209.200 120.734 C 209.200 120.968,208.970 121.304,208.689 121.480 C 208.407 121.656,207.827 122.610,207.400 123.600 C 206.972 124.590,206.522 125.490,206.400 125.600 C 206.278 125.710,205.828 126.610,205.400 127.600 C 204.972 128.590,204.522 129.490,204.400 129.600 C 204.278 129.710,203.828 130.610,203.400 131.600 C 202.972 132.590,202.500 133.490,202.351 133.600 C 202.202 133.710,201.770 134.880,201.391 136.200 C 201.013 137.520,200.573 138.780,200.414 139.000 C 200.255 139.220,199.808 140.570,199.420 142.000 C 199.031 143.430,198.575 144.780,198.406 145.000 C 198.237 145.220,197.762 146.750,197.352 148.400 C 196.942 150.050,196.497 151.490,196.364 151.600 C 196.231 151.710,195.800 153.150,195.406 154.800 C 195.013 156.450,194.543 157.990,194.362 158.221 C 194.180 158.453,193.728 160.613,193.357 163.021 C 192.985 165.430,192.545 167.490,192.379 167.600 C 192.213 167.710,191.753 170.410,191.356 173.600 C 190.959 176.790,190.522 179.490,190.385 179.600 C 188.805 180.869,188.841 217.952,190.426 220.895 C 190.632 221.277,190.800 222.054,190.800 222.622 C 190.800 224.309,192.019 232.534,192.397 233.400 C 192.590 233.840,193.056 236.045,193.435 238.300 C 193.813 240.555,194.244 242.400,194.393 242.400 C 194.542 242.400,194.999 244.110,195.410 246.200 C 195.821 248.290,196.268 250.000,196.403 250.000 C 196.538 250.000,196.883 250.945,197.169 252.100 C 197.454 253.255,197.911 254.560,198.183 255.000 C 198.455 255.440,198.985 256.790,199.362 258.000 C 199.739 259.210,200.281 260.650,200.567 261.200 C 200.852 261.750,201.331 263.055,201.630 264.100 C 201.930 265.145,202.297 266.000,202.447 266.000 C 202.597 266.000,203.043 266.900,203.439 268.000 C 203.834 269.100,204.278 270.000,204.425 270.000 C 204.571 270.000,205.018 270.855,205.417 271.900 C 205.816 272.945,206.380 274.037,206.671 274.328 C 206.962 274.619,207.200 275.088,207.200 275.371 C 207.200 275.654,207.830 276.710,208.600 277.718 C 209.370 278.727,210.000 279.653,210.000 279.776 C 210.000 279.899,210.315 280.341,210.700 280.757 C 211.085 281.173,211.938 282.264,212.595 283.181 C 214.248 285.488,223.933 294.877,225.400 295.595 C 226.060 295.918,227.320 296.628,228.200 297.172 C 230.222 298.424,234.082 300.371,234.574 300.387 C 234.779 300.394,235.679 300.746,236.574 301.168 C 239.092 302.357,241.897 303.200,243.334 303.200 C 244.052 303.200,244.854 303.414,245.115 303.675 C 245.795 304.355,264.863 304.634,268.600 304.019 C 270.140 303.766,273.020 303.316,275.000 303.019 C 279.067 302.410,280.818 302.022,281.400 301.599 C 281.620 301.440,283.150 300.998,284.800 300.618 C 286.450 300.237,288.340 299.692,289.000 299.405 C 289.660 299.119,291.550 298.657,293.200 298.379 C 294.850 298.100,296.380 297.740,296.600 297.578 C 296.820 297.417,298.980 296.965,301.400 296.575 C 303.820 296.185,305.890 295.745,306.000 295.597 C 306.110 295.449,308.990 295.005,312.400 294.610 C 315.810 294.215,318.771 293.736,318.980 293.546 C 319.480 293.091,330.689 293.096,330.970 293.552 C 331.090 293.745,333.305 294.022,335.894 294.167 C 340.514 294.427,344.209 295.010,345.000 295.606 C 345.220 295.771,346.724 296.140,348.343 296.425 C 349.962 296.710,351.492 297.149,351.743 297.401 C 351.995 297.652,353.055 298.184,354.100 298.583 C 355.145 298.982,356.000 299.435,356.000 299.590 C 356.000 299.745,356.765 300.115,357.700 300.412 C 358.635 300.709,359.670 301.194,360.000 301.491 C 361.615 302.942,366.378 306.400,366.763 306.400 C 367.003 306.400,367.200 306.608,367.200 306.862 C 367.200 307.116,368.550 308.636,370.200 310.238 C 371.850 311.841,373.200 313.308,373.200 313.498 C 373.200 313.689,373.666 314.465,374.235 315.222 C 374.804 315.980,375.429 317.005,375.625 317.500 C 375.820 317.995,376.165 318.400,376.390 318.400 C 376.616 318.400,376.800 318.608,376.800 318.862 C 376.800 319.116,377.238 319.899,377.773 320.600 C 378.308 321.302,379.023 322.947,379.363 324.256 C 379.702 325.565,380.296 327.258,380.683 328.018 C 382.122 330.844,381.928 340.987,380.397 343.000 C 380.229 343.220,379.970 343.973,379.820 344.672 C 379.671 345.372,379.278 346.169,378.948 346.443 C 378.618 346.717,378.077 347.464,377.747 348.102 C 375.533 352.384,367.600 359.550,362.700 361.694 C 362.095 361.959,361.600 362.316,361.600 362.488 C 361.600 362.659,361.411 362.800,361.181 362.800 C 360.950 362.800,359.777 363.430,358.573 364.200 C 357.369 364.970,356.191 365.600,355.954 365.600 C 355.717 365.600,355.046 365.851,354.462 366.157 C 353.878 366.463,352.590 367.027,351.600 367.410 C 349.937 368.054,349.044 368.439,344.600 370.435 C 343.720 370.830,342.102 371.357,341.005 371.606 C 339.908 371.855,338.816 372.221,338.578 372.419 C 338.339 372.616,336.899 373.067,335.376 373.420 C 333.853 373.773,332.425 374.206,332.203 374.382 C 331.982 374.558,330.450 375.017,328.800 375.401 C 327.150 375.786,325.510 376.243,325.156 376.418 C 324.802 376.593,322.912 377.048,320.956 377.428 C 319.000 377.807,317.220 378.253,317.000 378.417 C 316.780 378.582,315.070 379.014,313.200 379.378 C 311.330 379.741,309.440 380.201,309.000 380.400 C 308.560 380.598,305.860 381.062,303.000 381.431 C 300.140 381.800,297.710 382.219,297.600 382.364 C 297.367 382.669,287.982 384.021,286.180 384.008 C 285.509 384.004,284.789 384.155,284.580 384.345 C 284.371 384.534,280.690 385.005,276.400 385.390 C 272.110 385.776,268.401 386.251,268.159 386.446 C 267.516 386.963,233.571 386.931,233.053 386.413 C 232.823 386.183,230.863 386.003,228.620 386.008 C 222.803 386.019,203.923 384.808,203.105 384.371 C 202.723 384.167,201.471 384.000,200.322 384.000 C 197.653 384.000,188.451 382.869,187.400 382.412 C 186.960 382.221,184.080 381.767,181.000 381.404 C 177.920 381.041,175.040 380.594,174.600 380.409 C 174.160 380.225,171.550 379.765,168.800 379.386 C 166.050 379.007,163.620 378.565,163.400 378.403 C 163.180 378.242,160.841 377.788,158.201 377.396 C 155.562 377.004,153.132 376.539,152.801 376.364 C 152.471 376.188,150.130 375.746,147.600 375.381 C 145.070 375.016,142.820 374.581,142.600 374.415 C 142.380 374.248,140.490 373.791,138.400 373.400 C 136.310 373.009,134.420 372.559,134.200 372.400 C 133.980 372.241,132.090 371.791,130.000 371.400 C 127.910 371.009,126.020 370.559,125.800 370.400 C 125.580 370.241,123.690 369.791,121.600 369.400 C 119.510 369.009,117.620 368.557,117.400 368.396 C 117.180 368.235,115.560 367.790,113.800 367.408 C 112.040 367.026,110.420 366.576,110.200 366.408 C 109.980 366.240,108.360 365.790,106.600 365.407 C 104.840 365.024,103.220 364.598,103.000 364.460 C 102.780 364.323,101.070 363.812,99.200 363.326 C 97.330 362.839,94.450 362.075,92.800 361.628 C 91.150 361.180,89.488 360.811,89.108 360.807 C 88.682 360.803,88.320 360.376,88.167 359.700 C 88.031 359.095,87.671 357.700,87.367 356.600 C 87.063 355.500,86.178 351.900,85.399 348.600 C 84.621 345.300,83.719 341.610,83.394 340.400 C 81.807 334.491,79.374 324.080,78.393 319.000 C 77.246 313.054,76.091 307.353,75.395 304.200 C 74.140 298.511,72.812 291.278,72.237 287.000 C 71.280 279.884,70.017 271.254,69.397 267.600 C 69.080 265.730,68.633 261.770,68.405 258.800 C 68.176 255.830,67.677 250.700,67.295 247.400 C 66.293 238.752,66.283 203.897,67.279 194.800 C 67.652 191.390,68.068 187.250,68.204 185.600 C 68.339 183.950,68.719 181.340,69.049 179.800 C 69.378 178.260,69.992 175.200,70.412 173.000 C 71.656 166.487,73.125 160.043,74.241 156.200 C 75.880 150.557,77.083 146.470,78.126 143.000 C 78.924 140.343,85.762 124.532,87.293 121.800 C 87.540 121.360,88.636 119.470,89.729 117.600 C 90.822 115.730,91.922 113.840,92.173 113.400 C 92.647 112.570,94.875 108.800,95.718 107.400 C 96.325 106.393,103.180 96.008,105.921 91.945 C 107.054 90.264,108.930 87.708,110.091 86.264 C 111.251 84.820,113.640 81.790,115.400 79.532 C 122.211 70.791,138.114 55.188,148.249 47.305 C 148.882 46.812,151.002 45.131,152.961 43.569 C 154.920 42.007,156.810 40.608,157.161 40.461 C 157.727 40.224,160.393 38.672,163.536 36.749 C 166.739 34.791,170.512 32.743,176.611 29.652 C 183.805 26.006,184.506 25.685,188.000 24.439 C 189.210 24.007,191.640 23.087,193.400 22.396 C 195.160 21.704,197.770 20.874,199.200 20.552 C 200.630 20.230,202.101 19.801,202.469 19.599 C 202.837 19.397,204.364 18.947,205.863 18.600 C 207.362 18.252,209.311 17.729,210.194 17.436 C 211.077 17.144,213.600 16.677,215.800 16.399 C 218.000 16.121,219.980 15.760,220.200 15.597 C 222.336 14.015,247.651 13.405,259.800 14.643 " stroke="none" fill="#fbfbfb" fill-rule="evenodd"></path><path id="path2" d="M221.600 15.200 C 220.216 15.491,220.214 15.495,221.400 15.541 C 222.060 15.567,222.870 15.413,223.200 15.200 C 223.866 14.770,223.645 14.770,221.600 15.200 M263.110 15.249 C 263.270 15.397,264.160 15.586,265.090 15.669 C 266.019 15.751,266.649 15.698,266.490 15.551 C 266.330 15.403,265.440 15.214,264.510 15.131 C 263.581 15.049,262.951 15.102,263.110 15.249 M275.141 17.301 C 275.343 17.503,275.933 17.601,276.454 17.519 C 277.255 17.393,277.198 17.337,276.087 17.152 C 275.293 17.021,274.919 17.079,275.141 17.301 M122.185 71.700 L 120.200 73.800 122.300 71.815 C 123.455 70.723,124.400 69.778,124.400 69.715 C 124.400 69.417,124.029 69.749,122.185 71.700 M372.445 80.038 C 372.495 82.138,372.389 84.113,372.209 84.428 C 371.947 84.887,371.987 84.903,372.413 84.508 C 372.928 84.031,373.052 76.919,372.554 76.421 C 372.444 76.311,372.395 77.938,372.445 80.038 M237.000 96.291 C 235.284 96.535,234.920 97.072,236.604 96.875 C 237.376 96.785,238.106 96.551,238.227 96.356 C 238.348 96.160,238.392 96.027,238.324 96.060 C 238.256 96.093,237.660 96.197,237.000 96.291 M219.588 106.700 L 217.000 109.400 219.700 106.812 C 221.185 105.388,222.400 104.173,222.400 104.112 C 222.400 103.817,221.993 104.192,219.588 106.700 M337.445 106.728 C 337.333 106.908,337.773 106.977,338.421 106.882 C 339.070 106.787,339.600 106.640,339.600 106.555 C 339.600 106.250,337.643 106.407,337.445 106.728 M290.200 108.603 C 291.114 108.921,293.529 109.009,293.348 108.716 C 293.241 108.542,292.398 108.414,291.476 108.432 C 290.554 108.449,289.980 108.526,290.200 108.603 M329.445 108.728 C 329.333 108.908,329.773 108.977,330.421 108.882 C 331.070 108.787,331.600 108.640,331.600 108.555 C 331.600 108.250,329.643 108.407,329.445 108.728 M196.554 149.777 C 196.432 150.094,196.403 150.679,196.489 151.077 C 196.587 151.528,196.724 151.312,196.854 150.500 C 197.071 149.138,196.930 148.796,196.554 149.777 M192.556 165.371 C 192.435 165.685,192.404 166.360,192.486 166.871 C 192.595 167.554,192.688 167.404,192.837 166.300 C 193.047 164.747,192.936 164.381,192.556 165.371 M190.514 177.800 C 190.517 178.900,190.595 179.303,190.687 178.695 C 190.779 178.086,190.777 177.186,190.682 176.695 C 190.587 176.203,190.511 176.700,190.514 177.800 M67.309 196.000 C 67.309 196.990,67.387 197.395,67.482 196.900 C 67.578 196.405,67.578 195.595,67.482 195.100 C 67.387 194.605,67.309 195.010,67.309 196.000 M66.901 199.800 C 66.905 200.680,66.987 200.993,67.083 200.495 C 67.179 199.998,67.175 199.278,67.075 198.895 C 66.975 198.513,66.896 198.920,66.901 199.800 M190.446 222.876 C 190.421 223.908,190.542 224.841,190.716 224.948 C 190.890 225.056,190.970 224.482,190.893 223.672 C 190.659 221.198,190.495 220.907,190.446 222.876 M192.368 234.700 C 192.559 236.081,192.587 236.109,192.719 235.051 C 192.798 234.419,192.705 233.745,192.512 233.552 C 192.310 233.350,192.249 233.840,192.368 234.700 M66.901 242.600 C 66.905 243.480,66.987 243.793,67.083 243.295 C 67.179 242.798,67.175 242.078,67.075 241.695 C 66.975 241.313,66.896 241.720,66.901 242.600 M194.400 243.376 C 194.400 243.913,194.547 244.444,194.728 244.555 C 194.908 244.667,194.977 244.227,194.882 243.579 C 194.672 242.149,194.400 242.035,194.400 243.376 M67.301 246.200 C 67.305 247.080,67.387 247.393,67.483 246.895 C 67.579 246.398,67.575 245.678,67.475 245.295 C 67.375 244.913,67.296 245.320,67.301 246.200 M208.364 277.933 C 208.580 278.336,209.071 278.921,209.455 279.233 C 209.887 279.584,209.790 279.304,209.201 278.500 C 208.151 277.065,207.757 276.798,208.364 277.933 M322.118 293.498 C 323.833 293.573,326.533 293.572,328.118 293.497 C 329.703 293.421,328.300 293.359,325.000 293.360 C 321.700 293.361,320.403 293.422,322.118 293.498 M306.705 295.483 C 307.202 295.579,307.922 295.575,308.305 295.475 C 308.687 295.375,308.280 295.296,307.400 295.301 C 306.520 295.305,306.207 295.387,306.705 295.483 M297.800 297.200 L 296.600 297.505 297.676 297.553 C 298.268 297.579,298.864 297.420,299.000 297.200 C 299.136 296.980,299.192 296.821,299.124 296.847 C 299.056 296.873,298.460 297.032,297.800 297.200 M282.600 301.085 C 281.375 301.380,280.998 301.928,282.176 301.703 C 282.746 301.594,283.310 301.346,283.430 301.152 C 283.549 300.959,283.592 300.821,283.524 300.846 C 283.456 300.872,283.040 300.979,282.600 301.085 M241.566 303.326 C 241.747 303.507,242.593 303.593,243.447 303.519 L 245.000 303.383 243.119 303.190 C 242.084 303.084,241.385 303.145,241.566 303.326 M273.000 303.200 L 271.400 303.486 272.876 303.543 C 273.688 303.574,274.464 303.420,274.600 303.200 C 274.736 302.980,274.792 302.826,274.724 302.857 C 274.656 302.888,273.880 303.042,273.000 303.200 M80.856 330.400 C 80.856 330.730,81.011 331.360,81.200 331.800 C 81.417 332.304,81.544 332.378,81.544 332.000 C 81.544 331.670,81.389 331.040,81.200 330.600 C 80.983 330.096,80.856 330.022,80.856 330.400 M86.856 354.800 C 86.856 355.130,87.011 355.760,87.200 356.200 C 87.417 356.704,87.544 356.778,87.544 356.400 C 87.544 356.070,87.389 355.440,87.200 355.000 C 86.983 354.496,86.856 354.422,86.856 354.800 M368.400 357.800 C 367.428 358.790,366.723 359.600,366.833 359.600 C 366.943 359.600,367.828 358.790,368.800 357.800 C 369.772 356.810,370.477 356.000,370.367 356.000 C 370.257 356.000,369.372 356.810,368.400 357.800 M125.816 370.426 C 125.912 370.581,126.523 370.786,127.174 370.882 C 127.825 370.977,128.279 370.929,128.184 370.774 C 128.088 370.619,127.477 370.414,126.826 370.318 C 126.175 370.223,125.721 370.271,125.816 370.426 M134.216 372.426 C 134.312 372.581,134.923 372.786,135.574 372.882 C 136.225 372.977,136.679 372.929,136.584 372.774 C 136.488 372.619,135.877 372.414,135.226 372.318 C 134.575 372.223,134.121 372.271,134.216 372.426 M142.616 374.426 C 142.712 374.581,143.323 374.786,143.974 374.882 C 144.625 374.977,145.079 374.929,144.984 374.774 C 144.888 374.619,144.277 374.414,143.626 374.318 C 142.975 374.223,142.521 374.271,142.616 374.426 M163.424 378.439 C 163.517 378.589,164.212 378.784,164.968 378.872 C 165.725 378.961,166.268 378.910,166.176 378.761 C 166.083 378.611,165.388 378.416,164.632 378.328 C 163.875 378.239,163.332 378.290,163.424 378.439 M175.505 380.683 C 176.002 380.779,176.722 380.775,177.105 380.675 C 177.487 380.575,177.080 380.496,176.200 380.501 C 175.320 380.505,175.007 380.587,175.505 380.683 M306.705 380.683 C 307.202 380.779,307.922 380.775,308.305 380.675 C 308.687 380.575,308.280 380.496,307.400 380.501 C 306.520 380.505,306.207 380.587,306.705 380.683 M187.431 382.450 C 187.521 382.596,188.301 382.783,189.164 382.865 C 190.027 382.947,190.659 382.895,190.569 382.750 C 190.479 382.604,189.699 382.417,188.836 382.335 C 187.973 382.253,187.341 382.305,187.431 382.450 M295.505 382.683 C 296.002 382.779,296.722 382.775,297.105 382.675 C 297.487 382.575,297.080 382.496,296.200 382.501 C 295.320 382.505,295.007 382.587,295.505 382.683 M282.600 384.400 L 280.600 384.674 282.476 384.737 C 283.508 384.772,284.464 384.620,284.600 384.400 C 284.736 384.180,284.792 384.028,284.724 384.063 C 284.656 384.097,283.700 384.249,282.600 384.400 M204.500 384.691 C 205.325 384.778,206.675 384.778,207.500 384.691 C 208.325 384.605,207.650 384.534,206.000 384.534 C 204.350 384.534,203.675 384.605,204.500 384.691 M233.152 386.513 C 233.554 386.914,267.658 386.901,268.060 386.500 C 268.226 386.335,263.195 386.290,256.881 386.400 C 250.566 386.510,242.573 386.510,239.118 386.400 C 235.664 386.290,232.978 386.341,233.152 386.513 " stroke="none" fill="#a2a2a2" fill-rule="evenodd"></path><path id="path3" d="" stroke="none" fill="#848484" fill-rule="evenodd"></path><path id="path4" d="M224.800 14.786 C 224.030 14.940,225.560 14.982,228.200 14.879 C 230.840 14.776,233.075 14.626,233.167 14.546 C 233.461 14.288,226.251 14.495,224.800 14.786 M257.000 14.646 C 260.571 15.202,263.190 15.431,262.913 15.164 C 262.741 14.998,261.070 14.771,259.200 14.661 C 257.330 14.550,256.340 14.544,257.000 14.646 M213.000 16.800 C 211.639 17.044,211.579 17.092,212.600 17.120 C 213.260 17.139,214.520 17.005,215.400 16.823 C 217.493 16.390,215.402 16.370,213.000 16.800 M270.800 16.527 C 270.910 16.638,271.959 16.903,273.131 17.116 C 274.303 17.328,275.113 17.365,274.931 17.198 C 274.568 16.864,270.476 16.200,270.800 16.527 M205.400 18.800 C 204.381 19.238,205.432 19.238,206.800 18.800 C 207.604 18.543,207.643 18.477,207.000 18.468 C 206.560 18.462,205.840 18.611,205.400 18.800 M280.400 18.604 C 281.974 19.049,285.224 19.466,284.931 19.185 C 284.749 19.011,283.520 18.771,282.200 18.651 C 280.880 18.532,280.070 18.511,280.400 18.604 M288.400 20.627 C 290.183 21.327,291.355 21.595,290.978 21.218 C 290.757 20.997,289.951 20.720,289.188 20.604 C 288.424 20.487,288.070 20.498,288.400 20.627 M294.400 22.627 C 296.183 23.327,297.355 23.595,296.978 23.218 C 296.757 22.997,295.951 22.720,295.188 22.604 C 294.424 22.487,294.070 22.498,294.400 22.627 M305.200 26.686 C 305.530 26.808,306.160 27.074,306.600 27.276 C 307.387 27.638,307.388 27.634,306.624 27.022 C 306.196 26.680,305.566 26.414,305.224 26.432 C 304.685 26.459,304.682 26.493,305.200 26.686 M309.776 28.578 C 310.204 28.920,310.834 29.186,311.176 29.168 C 311.715 29.141,311.718 29.107,311.200 28.914 C 310.870 28.792,310.240 28.526,309.800 28.324 C 309.013 27.962,309.012 27.966,309.776 28.578 M141.775 52.900 L 140.600 54.200 141.900 53.025 C 143.112 51.930,143.384 51.600,143.075 51.600 C 143.006 51.600,142.421 52.185,141.775 52.900 M352.800 53.746 C 352.800 53.856,353.340 54.330,354.000 54.800 C 354.660 55.270,355.200 55.564,355.200 55.454 C 355.200 55.344,354.660 54.870,354.000 54.400 C 353.340 53.930,352.800 53.636,352.800 53.746 M137.375 56.900 L 136.200 58.200 137.500 57.025 C 138.712 55.930,138.984 55.600,138.675 55.600 C 138.606 55.600,138.021 56.185,137.375 56.900 M127.385 66.500 L 125.400 68.600 127.500 66.615 C 128.655 65.523,129.600 64.578,129.600 64.515 C 129.600 64.217,129.229 64.549,127.385 66.500 M255.406 96.810 C 255.506 96.972,256.035 97.190,256.582 97.294 C 257.129 97.399,257.494 97.352,257.394 97.190 C 257.294 97.028,256.765 96.810,256.218 96.706 C 255.671 96.601,255.306 96.648,255.406 96.810 M293.510 108.849 C 293.670 108.997,294.560 109.186,295.490 109.269 C 296.419 109.351,297.049 109.298,296.890 109.151 C 296.730 109.003,295.840 108.814,294.910 108.731 C 293.981 108.649,293.351 108.702,293.510 108.849 M325.500 109.089 C 326.215 109.178,327.385 109.178,328.100 109.089 C 328.815 109.001,328.230 108.928,326.800 108.928 C 325.370 108.928,324.785 109.001,325.500 109.089 M194.752 155.513 C 194.621 156.307,194.679 156.681,194.901 156.459 C 195.103 156.257,195.201 155.667,195.119 155.146 C 194.993 154.345,194.937 154.402,194.752 155.513 M192.768 163.700 C 192.649 164.560,192.710 165.050,192.912 164.848 C 193.105 164.655,193.198 163.981,193.119 163.349 C 192.987 162.291,192.959 162.319,192.768 163.700 M190.893 174.400 C 190.893 175.170,190.975 175.485,191.076 175.100 C 191.176 174.715,191.176 174.085,191.076 173.700 C 190.975 173.315,190.893 173.630,190.893 174.400 M189.067 185.867 C 188.697 186.237,188.729 211.909,189.100 212.138 C 189.265 212.240,189.400 206.311,189.400 198.962 C 189.400 191.613,189.385 185.600,189.367 185.600 C 189.348 185.600,189.213 185.720,189.067 185.867 M66.909 203.600 C 66.909 204.590,66.987 204.995,67.082 204.500 C 67.178 204.005,67.178 203.195,67.082 202.700 C 66.987 202.205,66.909 202.610,66.909 203.600 M66.581 221.400 C 66.581 229.760,66.634 233.237,66.699 229.126 C 66.764 225.016,66.764 218.176,66.700 213.926 C 66.635 209.677,66.582 213.040,66.581 221.400 M190.735 226.436 C 190.817 227.299,191.004 228.079,191.150 228.169 C 191.295 228.259,191.347 227.627,191.265 226.764 C 191.183 225.901,190.996 225.121,190.850 225.031 C 190.705 224.941,190.653 225.573,190.735 226.436 M192.800 237.376 C 192.800 237.913,192.947 238.444,193.128 238.555 C 193.308 238.667,193.377 238.227,193.282 237.579 C 193.072 236.149,192.800 236.035,192.800 237.376 M66.901 239.000 C 66.905 239.880,66.987 240.193,67.083 239.695 C 67.179 239.198,67.175 238.478,67.075 238.095 C 66.975 237.713,66.896 238.120,66.901 239.000 M68.501 257.800 C 68.505 258.680,68.587 258.993,68.683 258.495 C 68.779 257.998,68.775 257.278,68.675 256.895 C 68.575 256.513,68.496 256.920,68.501 257.800 M68.901 261.800 C 68.905 262.680,68.987 262.993,69.083 262.495 C 69.179 261.998,69.175 261.278,69.075 260.895 C 68.975 260.513,68.896 260.920,68.901 261.800 M313.505 294.683 C 314.002 294.779,314.722 294.775,315.105 294.675 C 315.487 294.575,315.080 294.496,314.200 294.501 C 313.320 294.505,313.007 294.587,313.505 294.683 M339.000 294.750 C 340.760 294.900,342.470 295.179,342.800 295.370 C 343.297 295.658,343.311 295.622,342.882 295.161 C 342.532 294.785,341.301 294.584,339.082 294.541 L 335.800 294.477 339.000 294.750 M309.457 295.107 C 309.353 295.276,309.972 295.348,310.834 295.265 C 311.695 295.183,312.400 295.045,312.400 294.958 C 312.400 294.660,309.647 294.800,309.457 295.107 M302.600 296.400 L 301.400 296.705 302.476 296.753 C 303.068 296.779,303.664 296.620,303.800 296.400 C 303.936 296.180,303.992 296.021,303.924 296.047 C 303.856 296.073,303.260 296.232,302.600 296.400 M299.045 297.128 C 298.933 297.308,299.373 297.377,300.021 297.282 C 300.670 297.187,301.200 297.040,301.200 296.955 C 301.200 296.650,299.243 296.807,299.045 297.128 M229.544 298.376 C 230.064 298.829,230.679 299.200,230.911 299.200 C 231.403 299.200,231.379 299.180,229.800 298.255 L 228.600 297.553 229.544 298.376 M291.400 298.819 C 290.842 299.071,291.085 299.107,292.200 298.938 C 293.080 298.804,293.875 298.628,293.967 298.547 C 294.310 298.244,292.168 298.471,291.400 298.819 M284.600 300.685 C 284.160 300.791,283.635 301.034,283.434 301.225 C 283.233 301.416,283.773 301.379,284.634 301.144 C 286.955 300.510,286.927 300.126,284.600 300.685 M276.600 302.800 L 275.000 303.086 276.400 303.103 C 277.170 303.113,278.250 302.976,278.800 302.800 C 280.085 302.388,278.899 302.388,276.600 302.800 M253.700 304.699 C 256.285 304.768,260.515 304.768,263.100 304.699 C 265.685 304.629,263.570 304.572,258.400 304.572 C 253.230 304.572,251.115 304.629,253.700 304.699 M145.068 374.796 C 145.458 375.148,148.610 375.677,148.265 375.332 C 148.137 375.204,147.290 374.963,146.384 374.797 C 145.477 374.631,144.885 374.631,145.068 374.796 M156.400 376.955 C 156.400 377.040,156.930 377.187,157.579 377.282 C 158.227 377.377,158.667 377.308,158.555 377.128 C 158.357 376.807,156.400 376.650,156.400 376.955 M178.400 380.958 C 178.400 381.045,179.105 381.183,179.966 381.265 C 180.828 381.348,181.447 381.276,181.343 381.107 C 181.153 380.800,178.400 380.660,178.400 380.958 M303.700 381.076 C 304.085 381.176,304.715 381.176,305.100 381.076 C 305.485 380.975,305.170 380.893,304.400 380.893 C 303.630 380.893,303.315 380.975,303.700 381.076 M293.200 382.693 C 291.231 382.924,290.875 383.452,292.813 383.267 C 293.689 383.184,294.505 382.955,294.626 382.758 C 294.748 382.561,294.792 382.429,294.724 382.464 C 294.656 382.499,293.970 382.602,293.200 382.693 M191.200 382.958 C 191.200 383.045,191.905 383.183,192.766 383.265 C 193.628 383.348,194.247 383.276,194.143 383.107 C 193.953 382.800,191.200 382.660,191.200 382.958 M209.557 384.919 C 209.733 385.094,211.210 385.182,212.839 385.115 L 215.800 384.993 212.518 384.796 C 210.713 384.688,209.380 384.743,209.557 384.919 M278.400 384.697 C 277.190 384.779,276.073 384.971,275.919 385.123 C 275.764 385.275,276.664 385.339,277.919 385.265 C 279.173 385.190,280.371 384.965,280.580 384.765 C 280.789 384.564,280.879 384.433,280.780 384.474 C 280.681 384.515,279.610 384.615,278.400 384.697 " stroke="none" fill="#7c7c7c" fill-rule="evenodd"></path></g></svg>