<svg id="svg" version="1.1" xmlns="http://www.w3.org/2000/svg" xmlns:xlink="http://www.w3.org/1999/xlink" width="400" height="400" viewBox="0, 0, 400,400"><g id="svgg"><path id="path0" d="M0.000 200.000 L 0.000 400.000 200.000 400.000 L 400.000 400.000 400.000 200.000 L 400.000 0.000 200.000 0.000 L 0.000 0.000 0.000 200.000 M186.200 0.830 C 192.580 1.071,198.160 1.420,198.600 1.605 C 199.040 1.789,203.090 2.237,207.600 2.600 C 212.110 2.963,216.160 3.422,216.600 3.621 C 217.040 3.819,219.560 4.270,222.200 4.621 C 224.840 4.973,227.171 5.428,227.380 5.631 C 227.589 5.834,228.240 6.000,228.828 6.000 C 230.408 6.000,236.889 7.180,237.378 7.556 C 237.610 7.735,239.420 8.195,241.400 8.579 C 243.380 8.962,245.180 9.413,245.400 9.581 C 245.620 9.748,246.970 10.107,248.400 10.377 C 249.830 10.648,251.540 11.109,252.200 11.403 C 252.860 11.696,254.660 12.238,256.200 12.608 C 257.740 12.978,259.180 13.415,259.400 13.580 C 259.620 13.745,260.970 14.114,262.400 14.399 C 263.830 14.684,265.270 15.132,265.600 15.394 C 265.930 15.656,267.280 16.195,268.600 16.591 C 269.920 16.986,271.180 17.447,271.400 17.614 C 271.620 17.781,272.700 18.188,273.800 18.519 C 274.900 18.849,276.340 19.406,277.000 19.757 C 277.660 20.108,278.412 20.396,278.672 20.398 C 278.931 20.399,282.016 21.840,285.527 23.600 C 289.037 25.360,292.200 26.800,292.555 26.800 C 292.910 26.800,293.200 26.984,293.200 27.210 C 293.200 27.435,293.643 27.788,294.185 27.994 C 294.727 28.200,295.890 28.845,296.770 29.428 C 298.330 30.460,299.975 31.415,302.000 32.465 C 302.550 32.750,303.144 33.212,303.320 33.492 C 303.496 33.771,303.846 34.000,304.097 34.000 C 305.155 34.000,319.527 44.024,323.056 47.224 C 323.527 47.651,324.049 48.000,324.215 48.000 C 324.843 48.000,329.385 51.914,335.657 57.860 C 336.898 59.037,338.113 60.000,338.357 60.000 C 338.601 60.000,338.800 60.200,338.800 60.445 C 338.800 60.690,340.673 62.805,342.962 65.145 C 348.761 71.073,356.000 79.057,356.000 79.524 C 356.000 79.739,356.270 80.018,356.600 80.145 C 356.930 80.271,357.200 80.581,357.200 80.834 C 357.200 81.086,357.830 82.151,358.600 83.200 C 359.370 84.249,360.000 85.308,360.000 85.554 C 360.000 85.799,360.184 86.000,360.410 86.000 C 360.635 86.000,360.980 86.405,361.175 86.900 C 361.371 87.395,361.996 88.420,362.565 89.178 C 363.134 89.935,363.600 90.790,363.600 91.078 C 363.600 91.365,363.915 91.917,364.300 92.305 C 364.685 92.694,365.237 93.459,365.527 94.005 C 366.637 96.101,367.548 97.684,368.470 99.115 C 368.995 99.932,370.032 101.815,370.773 103.300 C 371.514 104.785,372.255 106.000,372.420 106.000 C 372.585 106.000,373.043 106.900,373.439 108.000 C 373.834 109.100,374.288 110.000,374.446 110.000 C 374.604 110.000,375.036 110.855,375.404 111.900 C 375.773 112.945,376.305 114.250,376.586 114.800 C 376.867 115.350,377.327 116.520,377.609 117.400 C 377.891 118.280,378.336 119.360,378.597 119.800 C 378.859 120.240,379.305 121.410,379.589 122.400 C 379.872 123.390,380.331 124.740,380.610 125.400 C 380.888 126.060,381.245 127.230,381.403 128.000 C 381.561 128.770,382.014 130.120,382.409 131.000 C 382.805 131.880,383.363 133.770,383.651 135.200 C 383.938 136.630,384.291 137.890,384.435 138.000 C 384.580 138.110,385.015 140.000,385.402 142.200 C 385.790 144.400,386.277 146.415,386.485 146.679 C 386.692 146.942,387.152 150.002,387.505 153.479 C 387.859 156.955,388.281 159.892,388.444 160.005 C 388.607 160.118,389.034 164.348,389.391 169.405 C 389.749 174.462,390.213 178.913,390.421 179.295 C 390.938 180.242,390.918 197.080,390.400 197.400 C 390.155 197.551,390.003 200.628,390.009 205.324 C 390.018 213.933,388.903 235.369,388.382 236.600 C 388.195 237.040,387.731 241.990,387.350 247.600 C 386.969 253.210,386.538 257.890,386.394 258.000 C 386.249 258.110,385.822 261.350,385.444 265.200 C 385.066 269.050,384.605 272.560,384.419 273.000 C 384.234 273.440,383.794 276.301,383.442 279.358 C 383.089 282.415,382.644 285.115,382.453 285.358 C 382.261 285.601,381.792 287.857,381.411 290.371 C 381.030 292.885,380.559 295.225,380.363 295.571 C 380.168 295.917,379.743 298.063,379.419 300.341 C 379.095 302.618,378.672 304.688,378.477 304.941 C 378.283 305.193,377.891 306.300,377.606 307.400 C 377.321 308.500,376.863 309.940,376.588 310.600 C 376.313 311.260,375.779 312.970,375.401 314.400 C 375.023 315.830,374.561 317.189,374.375 317.420 C 374.188 317.651,373.912 318.610,373.761 319.552 C 373.600 320.562,373.183 321.454,372.744 321.728 C 372.335 321.983,372.000 322.338,372.000 322.516 C 372.000 322.798,368.939 327.461,368.400 328.000 C 368.290 328.110,367.516 329.217,366.679 330.460 C 365.495 332.219,364.720 332.908,363.179 333.571 C 362.091 334.039,361.200 334.568,361.200 334.747 C 361.200 334.926,360.480 335.310,359.600 335.600 C 358.720 335.890,358.000 336.250,358.000 336.400 C 358.000 338.036,346.602 337.210,342.836 335.300 C 339.722 333.721,339.748 333.723,340.773 335.162 C 341.228 335.801,341.600 336.568,341.600 336.868 C 341.600 337.167,341.931 338.039,342.336 338.806 C 342.741 339.573,343.320 341.055,343.623 342.100 C 343.926 343.145,344.303 344.000,344.459 344.000 C 344.825 344.000,346.000 348.027,346.000 349.282 C 346.000 349.809,346.167 350.411,346.372 350.620 C 347.766 352.046,348.104 367.707,346.801 370.550 C 346.386 371.458,345.739 373.190,345.364 374.400 C 344.990 375.610,344.349 376.972,343.941 377.426 C 343.534 377.880,343.200 378.422,343.200 378.630 C 343.200 378.837,342.840 379.232,342.400 379.507 C 341.960 379.782,341.600 380.265,341.600 380.581 C 341.600 380.896,341.285 381.391,340.900 381.679 C 340.515 381.968,339.902 382.734,339.537 383.382 C 339.173 384.030,338.048 384.994,337.037 385.523 C 336.027 386.052,335.200 386.646,335.200 386.842 C 335.200 387.039,334.999 387.200,334.754 387.200 C 334.508 387.200,333.449 387.830,332.400 388.600 C 331.351 389.370,330.213 390.000,329.870 390.000 C 329.527 390.000,329.146 390.163,329.023 390.363 C 328.899 390.563,327.764 391.049,326.499 391.444 C 325.235 391.839,323.962 392.396,323.671 392.681 C 323.381 392.966,322.877 393.200,322.552 393.200 C 322.227 393.200,321.234 393.551,320.345 393.981 C 319.456 394.410,317.260 395.049,315.464 395.400 C 313.669 395.752,311.840 396.205,311.400 396.408 C 309.947 397.079,305.184 398.000,303.170 398.000 C 302.080 398.000,300.877 398.169,300.495 398.376 C 298.501 399.455,283.951 399.602,179.700 399.601 L 72.400 399.600 72.408 244.700 C 72.416 71.129,72.301 78.069,75.423 62.400 C 75.752 60.750,76.216 58.410,76.455 57.200 C 76.694 55.990,77.030 54.820,77.202 54.600 C 77.373 54.380,77.831 53.030,78.220 51.600 C 78.608 50.170,79.058 48.820,79.220 48.600 C 79.381 48.380,79.840 47.030,80.238 45.600 C 80.975 42.949,81.355 42.216,86.126 34.246 C 88.747 29.867,99.704 18.000,101.125 18.000 C 101.355 18.000,101.781 17.775,102.071 17.500 C 102.362 17.225,103.925 16.100,105.543 15.000 C 107.162 13.900,109.052 12.606,109.743 12.124 C 110.435 11.642,111.900 10.939,113.000 10.562 C 114.100 10.186,115.360 9.654,115.800 9.380 C 116.240 9.107,117.050 8.754,117.600 8.597 C 118.480 8.345,122.750 6.610,125.000 5.590 C 125.440 5.391,127.690 4.872,130.000 4.436 C 132.310 4.001,135.280 3.361,136.600 3.014 C 144.437 0.957,165.291 0.039,186.200 0.830 M194.200 165.889 C 193.760 165.998,193.220 166.231,193.000 166.407 C 192.780 166.584,191.923 166.855,191.095 167.010 C 189.581 167.293,188.836 168.037,187.502 170.600 C 187.158 171.260,186.410 172.686,185.839 173.768 C 185.267 174.850,184.800 176.245,184.800 176.868 C 184.800 177.491,184.655 178.000,184.478 178.000 C 184.300 178.000,183.817 180.440,183.404 183.422 C 182.991 186.403,182.507 188.934,182.327 189.045 C 181.888 189.317,181.906 212.695,182.345 212.966 C 182.535 213.084,182.812 215.479,182.960 218.290 C 183.260 223.984,183.961 229.694,184.396 230.000 C 184.553 230.110,184.989 232.000,185.365 234.200 C 185.741 236.400,186.211 238.560,186.410 239.000 C 186.610 239.440,187.065 240.970,187.422 242.400 C 187.779 243.830,188.218 245.180,188.398 245.400 C 188.577 245.620,189.033 246.880,189.410 248.200 C 189.788 249.520,190.230 250.780,190.393 251.000 C 190.556 251.220,191.009 252.435,191.400 253.700 C 191.790 254.965,192.253 256.000,192.428 256.000 C 192.603 256.000,192.873 256.405,193.028 256.900 C 193.183 257.395,193.788 258.520,194.372 259.400 C 194.957 260.280,195.664 261.450,195.944 262.000 C 197.556 265.164,197.764 265.460,200.800 268.909 C 205.539 274.292,207.268 275.846,211.984 278.965 C 217.764 282.786,219.448 283.719,222.150 284.593 C 223.222 284.940,224.477 285.489,224.939 285.812 C 225.400 286.135,226.010 286.400,226.293 286.400 C 226.577 286.400,227.572 286.750,228.504 287.178 C 229.437 287.606,232.450 288.261,235.200 288.635 C 237.950 289.008,240.416 289.483,240.679 289.689 C 240.943 289.895,246.523 290.327,253.079 290.650 C 259.636 290.973,265.313 291.409,265.695 291.618 C 266.077 291.828,267.679 292.000,269.255 292.000 C 272.868 292.000,282.771 293.110,283.695 293.618 C 284.077 293.828,284.989 294.000,285.722 294.000 C 287.069 294.000,291.063 295.035,291.800 295.575 C 292.020 295.736,293.417 296.188,294.905 296.580 C 296.392 296.971,297.708 297.451,297.828 297.646 C 297.949 297.841,298.352 298.006,298.724 298.013 C 299.096 298.019,300.263 298.448,301.317 298.964 C 303.436 300.003,303.495 300.207,300.566 296.351 C 299.668 295.168,298.191 293.120,297.284 291.800 C 296.377 290.480,293.652 286.610,291.227 283.200 C 287.294 277.669,279.766 266.563,277.399 262.800 C 276.915 262.030,275.537 259.870,274.337 258.000 C 273.136 256.130,271.264 253.187,270.177 251.460 C 266.344 245.371,251.590 223.332,246.438 216.000 C 245.743 215.010,244.865 213.750,244.487 213.200 C 243.928 212.386,239.436 206.496,237.470 204.000 C 237.210 203.670,235.260 201.104,233.135 198.297 C 229.897 194.018,217.600 179.899,215.600 178.163 C 209.858 173.178,204.576 169.211,202.400 168.247 C 200.970 167.615,199.045 166.760,198.122 166.349 C 196.449 165.602,195.717 165.517,194.200 165.889 M306.300 302.377 C 306.795 302.790,307.200 303.257,307.200 303.415 C 307.200 303.666,311.420 308.637,314.212 311.674 C 314.756 312.265,315.203 312.895,315.207 313.074 C 315.216 313.473,322.176 320.400,322.568 320.400 C 322.722 320.400,323.782 321.294,324.924 322.386 C 331.200 328.390,333.788 330.284,338.531 332.344 C 338.910 332.508,335.927 326.685,334.890 325.237 C 330.230 318.729,321.473 309.918,317.752 307.995 C 317.118 307.668,315.240 306.575,313.578 305.566 C 308.676 302.591,304.211 300.635,306.300 302.377 " stroke="none" fill="#fbfbfb" fill-rule="evenodd"></path><path id="path1" d="M150.600 1.582 C 145.540 1.946,141.130 2.363,140.800 2.508 C 140.470 2.653,138.580 3.055,136.600 3.403 C 134.620 3.751,132.640 4.194,132.200 4.389 C 131.760 4.584,129.829 5.020,127.908 5.358 C 125.987 5.695,124.007 6.228,123.508 6.541 C 123.009 6.854,121.880 7.334,121.000 7.608 C 120.120 7.881,119.220 8.245,119.000 8.417 C 118.780 8.589,117.700 9.088,116.600 9.527 C 115.500 9.965,113.654 10.701,112.498 11.161 C 111.342 11.622,108.822 13.126,106.898 14.505 C 104.974 15.884,102.405 17.687,101.188 18.511 C 89.813 26.225,79.333 43.754,76.263 60.200 C 72.591 79.866,72.795 68.938,72.798 246.300 L 72.800 399.200 179.500 399.209 C 287.969 399.219,304.939 399.001,306.000 397.581 C 306.110 397.434,307.640 397.009,309.400 396.636 C 311.160 396.263,312.960 395.800,313.400 395.607 C 313.840 395.414,315.591 394.962,317.292 394.602 C 318.993 394.243,320.480 393.794,320.597 393.605 C 320.714 393.416,321.752 392.950,322.905 392.569 C 324.057 392.189,325.360 391.657,325.800 391.389 C 326.240 391.120,327.478 390.653,328.550 390.350 C 329.623 390.048,330.587 389.575,330.693 389.300 C 330.799 389.025,331.067 388.800,331.289 388.800 C 331.511 388.800,332.527 388.198,333.546 387.463 C 334.566 386.728,335.715 386.014,336.100 385.876 C 336.485 385.738,336.800 385.459,336.800 385.256 C 336.800 385.053,337.205 384.783,337.700 384.656 C 338.195 384.529,339.230 383.474,340.000 382.312 C 340.770 381.151,341.490 380.110,341.600 380.000 C 342.690 378.910,344.416 376.264,344.635 375.348 C 344.785 374.717,345.144 373.750,345.431 373.200 C 347.788 368.685,347.779 351.800,345.417 347.200 C 345.134 346.650,344.677 345.480,344.399 344.600 C 344.122 343.720,343.751 342.816,343.574 342.590 C 343.397 342.365,342.961 341.285,342.606 340.190 C 342.251 339.096,341.484 337.260,340.902 336.112 C 339.543 333.431,339.831 333.221,342.676 334.821 C 344.832 336.034,345.410 336.160,350.676 336.564 L 356.351 337.000 358.676 335.711 C 359.954 335.002,361.907 333.949,363.015 333.371 C 364.901 332.386,367.618 329.277,368.490 327.105 C 368.650 326.708,369.055 326.277,369.390 326.148 C 369.726 326.020,370.000 325.740,370.000 325.526 C 370.000 325.313,370.720 324.133,371.600 322.904 C 372.480 321.675,373.200 320.375,373.200 320.015 C 373.200 319.655,373.353 319.189,373.541 318.980 C 373.729 318.771,374.114 317.700,374.397 316.600 C 374.680 315.500,375.137 314.060,375.412 313.400 C 375.687 312.740,376.221 311.030,376.599 309.600 C 376.977 308.170,377.419 306.820,377.581 306.600 C 378.009 306.020,378.730 302.943,379.034 300.400 C 379.178 299.190,379.420 298.110,379.570 298.000 C 379.721 297.890,380.175 295.640,380.580 293.000 C 380.985 290.360,381.433 288.110,381.577 288.000 C 381.873 287.773,383.210 279.538,383.204 277.980 C 383.202 277.419,383.355 276.789,383.545 276.580 C 383.734 276.371,384.212 272.960,384.607 269.000 C 385.001 265.040,385.470 261.608,385.649 261.374 C 385.828 261.140,386.261 256.730,386.612 251.574 C 386.962 246.418,387.400 241.914,387.587 241.566 C 387.773 241.217,388.224 235.637,388.590 229.166 C 388.956 222.694,389.425 217.040,389.633 216.600 C 390.202 215.395,390.317 175.474,389.754 174.763 C 389.509 174.453,389.195 172.400,389.057 170.200 C 388.630 163.382,387.859 156.000,387.575 156.000 C 387.425 156.000,387.176 154.515,387.021 152.700 C 386.712 149.093,386.146 145.850,385.608 144.600 C 385.419 144.160,384.962 142.090,384.594 140.000 C 384.225 137.910,383.687 135.660,383.398 135.000 C 383.109 134.340,382.665 132.990,382.413 132.000 C 382.160 131.010,381.707 129.660,381.406 129.000 C 381.106 128.340,380.646 126.900,380.385 125.800 C 380.124 124.700,379.574 123.076,379.163 122.190 C 378.752 121.305,378.300 120.000,378.158 119.290 C 378.016 118.581,377.759 118.000,377.587 118.000 C 377.415 118.000,376.950 116.965,376.554 115.700 C 376.157 114.435,374.885 111.600,373.726 109.400 C 372.568 107.200,371.103 104.410,370.471 103.200 C 368.540 99.500,367.829 98.306,367.100 97.537 C 366.715 97.132,366.400 96.589,366.400 96.331 C 366.400 96.074,366.153 95.579,365.851 95.231 C 365.549 94.884,364.711 93.520,363.988 92.200 C 362.064 88.688,361.852 88.331,361.279 87.634 C 360.223 86.348,358.000 82.806,358.000 82.410 C 358.000 82.184,357.825 82.000,357.610 82.000 C 357.396 82.000,356.920 81.419,356.553 80.709 C 355.825 79.301,349.138 71.872,342.557 65.159 C 340.271 62.827,338.400 60.712,338.400 60.459 C 338.400 60.207,338.183 60.000,337.917 60.000 C 337.651 60.000,336.526 59.109,335.417 58.020 C 331.711 54.382,326.612 49.923,325.500 49.348 C 324.895 49.035,324.400 48.604,324.400 48.390 C 324.400 48.175,324.143 48.000,323.829 48.000 C 323.515 48.000,322.904 47.550,322.471 47.000 C 322.039 46.450,321.542 46.000,321.368 46.000 C 321.194 46.000,320.198 45.280,319.154 44.400 C 318.110 43.520,317.064 42.800,316.828 42.800 C 316.593 42.800,316.400 42.614,316.400 42.387 C 316.400 42.161,316.085 41.862,315.700 41.724 C 315.315 41.586,314.166 40.872,313.146 40.137 C 312.127 39.402,311.092 38.800,310.846 38.800 C 310.601 38.800,310.400 38.614,310.400 38.387 C 310.400 38.161,310.085 37.862,309.700 37.724 C 309.315 37.586,308.166 36.872,307.146 36.137 C 306.127 35.402,305.092 34.800,304.846 34.800 C 304.601 34.800,304.400 34.620,304.400 34.400 C 304.400 34.180,304.206 34.000,303.968 34.000 C 303.730 34.000,302.586 33.370,301.426 32.600 C 300.266 31.830,299.120 31.200,298.878 31.200 C 298.637 31.200,298.296 30.975,298.120 30.700 C 297.944 30.425,297.080 29.842,296.200 29.404 C 295.320 28.966,294.510 28.507,294.400 28.383 C 294.082 28.026,291.324 26.800,290.840 26.800 C 290.598 26.800,290.399 26.665,290.399 26.500 C 290.398 26.335,289.543 25.853,288.499 25.429 C 287.454 25.006,286.510 24.551,286.400 24.418 C 286.290 24.286,285.390 23.828,284.400 23.400 C 283.410 22.972,282.510 22.527,282.400 22.411 C 282.013 22.003,279.166 20.800,278.586 20.800 C 278.264 20.800,278.000 20.660,278.000 20.489 C 278.000 20.181,273.812 18.800,272.880 18.800 C 272.616 18.800,272.400 18.643,272.400 18.452 C 272.400 18.261,271.545 17.876,270.500 17.598 C 269.455 17.320,268.196 16.843,267.702 16.538 C 267.209 16.234,265.679 15.699,264.302 15.349 C 262.926 15.000,261.620 14.582,261.400 14.421 C 261.180 14.260,259.560 13.801,257.800 13.401 C 256.040 13.001,254.510 12.563,254.400 12.427 C 254.290 12.291,252.760 11.838,251.000 11.420 C 249.240 11.003,247.620 10.540,247.400 10.393 C 247.180 10.245,245.470 9.815,243.600 9.438 C 241.730 9.061,239.840 8.593,239.400 8.400 C 238.187 7.866,233.004 6.800,231.621 6.800 C 230.949 6.800,230.400 6.661,230.400 6.491 C 230.400 6.321,227.925 5.846,224.900 5.436 C 221.875 5.025,219.203 4.536,218.962 4.347 C 218.721 4.159,215.211 3.722,211.162 3.375 C 207.113 3.029,203.490 2.579,203.111 2.376 C 200.693 1.080,165.049 0.541,150.600 1.582 M198.249 166.049 C 199.322 166.515,201.150 167.325,202.312 167.849 C 203.473 168.372,204.529 168.800,204.658 168.800 C 205.138 168.800,216.651 178.608,218.000 180.165 C 218.770 181.055,221.318 183.878,223.662 186.440 C 227.333 190.452,234.014 198.604,236.600 202.228 C 237.040 202.844,237.772 203.810,238.226 204.374 C 241.237 208.111,246.241 214.925,249.379 219.562 C 251.404 222.553,254.475 227.070,256.204 229.600 C 259.926 235.046,265.701 243.705,266.741 245.400 C 268.004 247.460,270.340 251.113,276.075 260.000 C 277.282 261.870,279.594 265.470,281.213 268.000 C 282.832 270.530,285.820 274.940,287.854 277.800 C 289.888 280.660,291.935 283.540,292.403 284.200 C 292.871 284.860,294.187 286.694,295.327 288.275 C 296.467 289.857,298.300 292.453,299.400 294.045 C 300.500 295.637,301.985 297.645,302.700 298.507 C 304.554 300.744,304.345 300.868,301.300 299.334 C 299.815 298.585,297.520 297.693,296.200 297.351 C 294.880 297.009,293.620 296.581,293.400 296.400 C 293.180 296.219,291.830 295.769,290.400 295.400 C 288.970 295.031,287.620 294.588,287.400 294.417 C 287.180 294.246,284.120 293.804,280.600 293.434 C 277.080 293.064,273.840 292.603,273.400 292.409 C 272.960 292.215,266.210 291.763,258.400 291.404 C 250.590 291.044,243.930 290.610,243.600 290.438 C 243.270 290.266,240.525 289.794,237.500 289.389 C 234.475 288.984,232.000 288.506,232.000 288.326 C 232.000 288.147,231.483 288.000,230.850 288.000 C 229.566 288.000,227.109 287.213,224.400 285.934 C 223.410 285.467,222.060 284.863,221.400 284.592 C 220.740 284.322,219.390 283.768,218.400 283.362 C 217.410 282.955,216.456 282.393,216.280 282.111 C 216.104 281.830,215.768 281.600,215.534 281.600 C 215.299 281.600,214.249 280.970,213.200 280.200 C 212.151 279.430,211.092 278.800,210.846 278.800 C 210.601 278.800,210.400 278.628,210.400 278.419 C 210.400 278.209,209.790 277.748,209.043 277.394 C 208.297 277.040,206.387 275.366,204.799 273.675 C 203.211 271.984,201.121 269.778,200.156 268.774 C 199.190 267.770,198.400 266.834,198.400 266.694 C 198.400 266.554,197.860 265.640,197.200 264.662 C 196.540 263.684,196.000 262.685,196.000 262.442 C 196.000 262.199,195.840 262.000,195.644 262.000 C 195.448 262.000,194.899 261.235,194.424 260.300 C 193.949 259.365,192.944 257.470,192.192 256.089 C 191.440 254.708,190.629 252.818,190.389 251.889 C 190.149 250.960,189.617 249.467,189.208 248.571 C 188.798 247.676,188.339 246.281,188.187 245.471 C 188.035 244.662,187.780 244.000,187.621 244.000 C 187.296 244.000,186.000 238.937,186.000 237.666 C 186.000 237.216,185.850 236.755,185.668 236.642 C 185.485 236.529,185.009 234.493,184.610 232.118 C 184.211 229.743,183.715 227.583,183.508 227.318 C 181.563 224.826,181.621 184.460,183.574 180.784 C 183.754 180.445,184.027 179.185,184.179 177.984 C 184.445 175.886,187.035 170.000,187.692 170.000 C 187.861 170.000,188.000 169.754,188.000 169.454 C 188.000 168.089,189.636 166.833,192.025 166.363 C 193.342 166.104,194.516 165.736,194.633 165.546 C 194.983 164.981,196.176 165.147,198.249 166.049 M308.492 302.375 C 310.312 303.241,312.700 304.528,313.800 305.235 C 315.815 306.530,317.755 307.752,319.600 308.888 C 321.468 310.038,328.882 316.847,330.316 318.728 C 331.100 319.757,332.633 321.748,333.721 323.152 C 337.001 327.385,339.740 332.800,338.600 332.800 C 338.270 332.800,338.000 332.656,338.000 332.479 C 338.000 332.302,337.100 331.834,336.000 331.439 C 334.900 331.043,334.000 330.558,334.000 330.360 C 334.000 330.162,333.737 330.000,333.415 330.000 C 333.093 330.000,331.675 328.920,330.264 327.600 C 328.853 326.280,327.577 325.200,327.428 325.200 C 326.835 325.200,312.400 310.817,312.400 310.226 C 312.400 310.006,309.334 306.382,305.562 302.144 C 303.993 300.380,304.364 300.409,308.492 302.375 " stroke="none" fill="#040404" fill-rule="evenodd"></path><path id="path2" d="" stroke="none" fill="#6c6c6c" fill-rule="evenodd"></path><path id="path3" d="M179.463 0.800 C 179.573 0.910,183.954 1.180,189.199 1.400 C 194.445 1.620,198.647 1.710,198.538 1.600 C 198.428 1.490,194.047 1.220,188.801 1.000 C 183.556 0.780,179.353 0.690,179.463 0.800 M150.400 1.200 C 147.407 1.455,147.406 1.456,149.800 1.486 C 151.120 1.502,153.820 1.383,155.800 1.221 L 159.400 0.927 156.400 0.935 C 154.750 0.940,152.050 1.059,150.400 1.200 M136.600 3.016 L 134.600 3.556 136.400 3.337 C 137.390 3.216,138.371 2.956,138.580 2.759 C 138.789 2.561,138.879 2.417,138.780 2.438 C 138.681 2.460,137.700 2.720,136.600 3.016 M207.461 2.798 C 207.570 2.909,209.702 3.181,212.198 3.402 C 214.695 3.623,216.648 3.713,216.539 3.602 C 216.430 3.491,214.298 3.219,211.802 2.998 C 209.305 2.777,207.352 2.687,207.461 2.798 M126.200 5.200 C 125.130 5.472,125.108 5.505,126.000 5.505 C 126.550 5.505,127.540 5.368,128.200 5.200 C 129.270 4.928,129.292 4.895,128.400 4.895 C 127.850 4.895,126.860 5.032,126.200 5.200 M222.433 4.950 C 222.525 5.032,223.680 5.200,225.000 5.323 C 226.578 5.470,226.989 5.435,226.200 5.220 C 224.966 4.885,222.136 4.682,222.433 4.950 M233.452 6.790 C 233.643 6.970,234.610 7.224,235.600 7.354 C 237.701 7.630,237.347 7.388,234.852 6.844 C 233.890 6.635,233.260 6.611,233.452 6.790 M241.452 8.790 C 241.643 8.970,242.610 9.224,243.600 9.354 C 245.701 9.630,245.347 9.388,242.852 8.844 C 241.890 8.635,241.260 8.611,241.452 8.790 M249.379 10.712 C 249.530 10.863,250.385 11.203,251.280 11.467 C 252.175 11.731,252.748 11.796,252.554 11.611 C 252.130 11.208,248.984 10.318,249.379 10.712 M257.200 13.200 C 258.568 13.638,259.619 13.638,258.600 13.200 C 258.160 13.011,257.440 12.862,257.000 12.868 C 256.357 12.877,256.396 12.943,257.200 13.200 M263.016 14.826 C 263.112 14.981,263.723 15.186,264.374 15.282 C 265.025 15.377,265.479 15.329,265.384 15.174 C 265.288 15.019,264.677 14.814,264.026 14.718 C 263.375 14.623,262.921 14.671,263.016 14.826 M269.400 17.200 C 269.840 17.389,270.470 17.544,270.800 17.544 C 271.178 17.544,271.104 17.417,270.600 17.200 C 270.160 17.011,269.530 16.856,269.200 16.856 C 268.822 16.856,268.896 16.983,269.400 17.200 M274.800 19.086 C 275.130 19.208,275.760 19.474,276.200 19.676 C 276.987 20.038,276.988 20.034,276.224 19.422 C 275.796 19.080,275.166 18.814,274.824 18.832 C 274.285 18.859,274.282 18.893,274.800 19.086 M298.833 30.921 C 298.925 30.988,299.540 31.358,300.200 31.745 L 301.400 32.447 300.456 31.624 C 299.936 31.171,299.321 30.800,299.089 30.800 C 298.857 30.800,298.742 30.854,298.833 30.921 M325.800 49.370 C 326.680 50.174,327.760 51.026,328.200 51.265 C 329.256 51.837,328.643 51.272,326.200 49.423 L 324.200 47.909 325.800 49.370 M73.309 76.000 C 73.309 76.990,73.387 77.395,73.482 76.900 C 73.578 76.405,73.578 75.595,73.482 75.100 C 73.387 74.605,73.309 75.010,73.309 76.000 M353.600 77.000 C 354.795 78.210,355.863 79.200,355.973 79.200 C 356.083 79.200,355.195 78.210,354.000 77.000 C 352.805 75.790,351.737 74.800,351.627 74.800 C 351.517 74.800,352.405 75.790,353.600 77.000 M72.934 81.600 C 72.934 83.250,73.005 83.925,73.091 83.100 C 73.178 82.275,73.178 80.925,73.091 80.100 C 73.005 79.275,72.934 79.950,72.934 81.600 M72.520 89.200 C 72.520 90.410,72.595 90.905,72.687 90.300 C 72.778 89.695,72.778 88.705,72.687 88.100 C 72.595 87.495,72.520 87.990,72.520 89.200 M366.255 95.800 C 367.180 97.379,367.200 97.403,367.200 96.911 C 367.200 96.679,366.829 96.064,366.376 95.544 L 365.553 94.600 366.255 95.800 M376.618 115.700 C 376.768 116.195,377.055 116.776,377.256 116.991 C 377.457 117.206,377.419 116.801,377.172 116.091 C 376.665 114.638,376.197 114.308,376.618 115.700 M378.324 119.800 C 378.526 120.240,378.792 120.870,378.914 121.200 C 379.107 121.718,379.141 121.715,379.168 121.176 C 379.186 120.834,378.920 120.204,378.578 119.776 C 377.966 119.012,377.962 119.013,378.324 119.800 M380.456 125.600 C 380.456 125.930,380.611 126.560,380.800 127.000 C 381.017 127.504,381.144 127.578,381.144 127.200 C 381.144 126.870,380.989 126.240,380.800 125.800 C 380.583 125.296,380.456 125.222,380.456 125.600 M382.456 131.600 C 382.456 131.930,382.611 132.560,382.800 133.000 C 383.017 133.504,383.144 133.578,383.144 133.200 C 383.144 132.870,382.989 132.240,382.800 131.800 C 382.583 131.296,382.456 131.222,382.456 131.600 M384.487 138.800 C 384.483 139.350,384.624 140.250,384.800 140.800 C 385.231 142.144,385.231 140.692,384.800 139.000 C 384.526 137.922,384.494 137.902,384.487 138.800 M386.661 149.443 C 386.794 150.959,387.025 152.337,387.175 152.504 C 387.325 152.671,387.311 151.525,387.143 149.957 C 386.749 146.266,386.345 145.836,386.661 149.443 M388.677 164.200 C 388.797 166.620,389.014 168.732,389.160 168.892 C 389.425 169.185,388.944 161.535,388.627 160.400 C 388.535 160.070,388.557 161.780,388.677 164.200 M190.400 166.800 C 189.608 167.054,189.567 167.120,190.200 167.120 C 190.640 167.120,191.450 166.976,192.000 166.800 C 192.792 166.546,192.833 166.480,192.200 166.480 C 191.760 166.480,190.950 166.624,190.400 166.800 M184.649 175.415 C 184.512 175.773,184.421 176.546,184.446 177.133 C 184.480 177.932,184.570 177.798,184.804 176.600 C 185.135 174.900,185.062 174.340,184.649 175.415 M390.399 188.319 L 390.599 197.400 390.707 188.628 C 390.767 183.803,390.677 179.717,390.508 179.547 C 390.339 179.378,390.290 183.325,390.399 188.319 M182.600 186.000 C 182.444 187.347,182.401 188.534,182.505 188.638 C 182.609 188.742,182.819 187.722,182.971 186.371 C 183.124 185.021,183.167 183.834,183.067 183.733 C 182.966 183.633,182.756 184.653,182.600 186.000 M222.000 185.325 C 222.000 185.394,222.585 185.979,223.300 186.625 L 224.600 187.800 223.425 186.500 C 222.330 185.288,222.000 185.016,222.000 185.325 M182.695 219.000 C 182.797 222.080,183.001 224.730,183.148 224.888 C 183.295 225.046,183.286 223.246,183.128 220.888 C 182.650 213.752,182.500 213.099,182.695 219.000 M389.138 222.900 C 388.961 223.183,388.230 236.706,388.400 236.537 C 388.601 236.338,389.488 222.798,389.300 222.799 C 389.245 222.800,389.172 222.845,389.138 222.900 M184.646 232.000 C 184.775 233.210,185.021 234.349,185.192 234.531 C 185.362 234.713,185.336 233.903,185.132 232.731 C 184.616 229.755,184.365 229.379,184.646 232.000 M186.631 240.600 C 186.758 241.480,187.022 242.365,187.217 242.566 C 187.412 242.767,187.388 242.227,187.162 241.366 C 186.561 239.065,186.368 238.788,186.631 240.600 M188.467 246.420 C 188.701 247.092,188.967 247.567,189.057 247.476 C 189.256 247.278,188.501 245.200,188.231 245.200 C 188.127 245.200,188.233 245.749,188.467 246.420 M386.966 247.345 C 386.851 247.644,386.814 248.949,386.884 250.245 L 387.012 252.600 387.206 249.699 C 387.401 246.788,387.354 246.333,386.966 247.345 M190.456 251.600 C 190.456 251.930,190.611 252.560,190.800 253.000 C 191.017 253.504,191.144 253.578,191.144 253.200 C 191.144 252.870,190.989 252.240,190.800 251.800 C 190.583 251.296,190.456 251.222,190.456 251.600 M386.531 255.400 C 386.533 256.940,386.605 257.521,386.692 256.691 C 386.779 255.861,386.777 254.601,386.689 253.891 C 386.600 253.181,386.529 253.860,386.531 255.400 M384.611 269.011 C 384.453 270.906,384.409 272.542,384.513 272.646 C 384.617 272.750,384.832 271.285,384.989 269.389 C 385.147 267.494,385.191 265.858,385.087 265.754 C 384.983 265.650,384.768 267.115,384.611 269.011 M382.633 282.833 C 382.483 283.966,382.441 284.974,382.539 285.072 C 382.637 285.171,382.845 284.328,383.000 283.200 C 383.155 282.072,383.198 281.064,383.094 280.961 C 382.991 280.858,382.784 281.700,382.633 282.833 M222.800 285.086 C 223.130 285.208,223.760 285.474,224.200 285.676 C 224.987 286.038,224.988 286.034,224.224 285.422 C 223.796 285.080,223.166 284.814,222.824 284.832 C 222.285 284.859,222.282 284.893,222.800 285.086 M227.376 286.978 C 227.804 287.320,228.434 287.586,228.776 287.568 C 229.315 287.541,229.318 287.507,228.800 287.314 C 228.470 287.192,227.840 286.926,227.400 286.724 C 226.613 286.362,226.612 286.366,227.376 286.978 M235.096 288.831 C 235.461 289.165,240.890 289.958,240.564 289.629 C 240.440 289.503,239.090 289.209,237.565 288.976 C 236.040 288.743,234.929 288.677,235.096 288.831 M251.120 290.855 C 251.274 290.995,254.640 291.198,258.600 291.305 C 266.453 291.518,265.487 291.321,256.520 290.879 C 253.396 290.726,250.966 290.715,251.120 290.855 M380.633 292.833 C 380.483 293.966,380.441 294.974,380.539 295.072 C 380.637 295.171,380.845 294.328,381.000 293.200 C 381.155 292.072,381.198 291.064,381.094 290.961 C 380.991 290.858,380.784 291.700,380.633 292.833 M277.087 292.831 C 277.259 292.995,278.840 293.223,280.600 293.338 C 283.975 293.559,283.475 293.372,279.287 292.848 C 277.904 292.675,276.914 292.667,277.087 292.831 M289.009 294.761 C 289.224 294.971,289.940 295.271,290.600 295.428 C 292.148 295.795,291.800 295.454,290.009 294.849 C 289.244 294.590,288.794 294.550,289.009 294.761 M295.009 296.761 C 295.224 296.971,295.940 297.271,296.600 297.428 C 298.148 297.795,297.800 297.454,296.009 296.849 C 295.244 296.590,294.794 296.550,295.009 296.761 M301.308 299.194 C 302.098 299.701,303.859 300.126,303.443 299.709 C 303.296 299.563,302.957 299.406,302.688 299.360 C 302.420 299.315,301.840 299.156,301.400 299.008 C 300.675 298.765,300.666 298.782,301.308 299.194 M378.859 301.800 C 378.820 302.460,378.696 303.450,378.583 304.000 L 378.377 305.000 378.808 304.014 C 379.044 303.472,379.168 302.482,379.083 301.814 L 378.928 300.600 378.859 301.800 M311.174 308.600 C 313.534 311.298,313.880 311.618,312.901 310.200 C 312.446 309.540,311.477 308.460,310.748 307.800 C 309.770 306.913,309.881 307.122,311.174 308.600 M376.629 309.429 C 376.481 310.015,376.438 310.572,376.532 310.666 C 376.627 310.760,376.824 310.358,376.971 309.771 C 377.119 309.185,377.162 308.628,377.068 308.534 C 376.973 308.440,376.776 308.842,376.629 309.429 M323.200 312.125 C 323.200 312.194,323.785 312.779,324.500 313.425 L 325.800 314.600 324.625 313.300 C 323.530 312.088,323.200 311.816,323.200 312.125 M374.629 315.829 C 374.481 316.415,374.438 316.972,374.532 317.066 C 374.627 317.160,374.824 316.758,374.971 316.171 C 375.119 315.585,375.162 315.028,375.068 314.934 C 374.973 314.840,374.776 315.242,374.629 315.829 M328.956 326.431 C 330.472 327.844,332.002 329.168,332.356 329.374 C 333.177 329.851,328.168 325.192,327.042 324.431 C 326.579 324.119,327.440 325.019,328.956 326.431 M348.000 336.812 C 349.650 336.968,352.080 337.090,353.400 337.083 L 355.800 337.071 352.800 336.788 C 351.150 336.632,348.720 336.510,347.400 336.517 L 345.000 336.529 348.000 336.812 M344.619 345.001 C 344.775 345.660,345.057 346.368,345.245 346.573 C 345.432 346.778,345.415 346.349,345.205 345.619 C 344.718 343.918,344.244 343.419,344.619 345.001 M346.677 353.000 C 346.800 354.320,346.968 355.475,347.050 355.567 C 347.318 355.864,347.115 353.034,346.780 351.800 C 346.565 351.011,346.530 351.422,346.677 353.000 M346.788 369.622 C 346.546 370.074,346.407 370.622,346.480 370.839 C 346.552 371.057,346.818 370.687,347.071 370.017 C 347.597 368.625,347.439 368.405,346.788 369.622 M344.629 375.429 C 344.481 376.015,344.438 376.572,344.532 376.666 C 344.627 376.760,344.824 376.358,344.971 375.771 C 345.119 375.185,345.162 374.628,345.068 374.534 C 344.973 374.440,344.776 374.842,344.629 375.429 M338.600 384.023 C 338.380 384.233,337.750 384.768,337.200 385.212 C 336.267 385.965,336.300 385.962,337.700 385.170 C 338.525 384.703,339.200 384.159,339.200 383.960 C 339.200 383.522,339.115 383.530,338.600 384.023 M331.400 389.035 L 330.200 390.066 331.500 389.206 C 332.215 388.733,332.800 388.268,332.800 388.173 C 332.800 387.873,332.631 387.978,331.400 389.035 M322.400 392.800 C 321.576 393.064,321.541 393.126,322.200 393.154 C 322.640 393.173,323.270 393.013,323.600 392.800 C 324.301 392.347,323.814 392.347,322.400 392.800 M316.600 394.800 C 315.522 395.074,315.502 395.106,316.400 395.113 C 316.950 395.117,317.850 394.976,318.400 394.800 C 319.744 394.369,318.292 394.369,316.600 394.800 M308.600 396.800 C 307.522 397.074,307.502 397.106,308.400 397.113 C 308.950 397.117,309.850 396.976,310.400 396.800 C 311.744 396.369,310.292 396.369,308.600 396.800 M295.000 398.632 L 289.400 399.137 294.800 398.934 C 297.770 398.822,300.371 398.567,300.580 398.365 C 300.789 398.164,300.879 398.028,300.780 398.063 C 300.681 398.098,298.080 398.354,295.000 398.632 " stroke="none" fill="#848484" fill-rule="evenodd"></path><path id="path4" d="M159.461 0.700 C 159.359 0.865,162.273 0.954,165.937 0.897 C 178.239 0.708,179.471 0.565,169.524 0.482 C 164.092 0.437,159.563 0.535,159.461 0.700 M204.100 2.687 C 204.705 2.778,205.695 2.778,206.300 2.687 C 206.905 2.595,206.410 2.520,205.200 2.520 C 203.990 2.520,203.495 2.595,204.100 2.687 M131.000 4.400 L 129.800 4.705 130.876 4.753 C 131.468 4.779,132.064 4.620,132.200 4.400 C 132.336 4.180,132.392 4.021,132.324 4.047 C 132.256 4.073,131.660 4.232,131.000 4.400 M219.905 4.683 C 220.402 4.779,221.122 4.775,221.505 4.675 C 221.887 4.575,221.480 4.496,220.600 4.501 C 219.720 4.505,219.407 4.587,219.905 4.683 M231.105 6.683 C 231.602 6.779,232.322 6.775,232.705 6.675 C 233.087 6.575,232.680 6.496,231.800 6.501 C 230.920 6.505,230.607 6.587,231.105 6.683 M346.799 69.500 C 347.322 70.215,347.813 70.800,347.889 70.800 C 348.193 70.800,347.201 69.300,346.545 68.767 C 346.113 68.416,346.210 68.696,346.799 69.500 M73.293 80.000 C 73.293 80.770,73.375 81.085,73.476 80.700 C 73.576 80.315,73.576 79.685,73.476 79.300 C 73.375 78.915,73.293 79.230,73.293 80.000 M72.914 87.800 C 72.917 88.900,72.995 89.303,73.087 88.695 C 73.179 88.086,73.177 87.186,73.082 86.695 C 72.987 86.203,72.911 86.700,72.914 87.800 M72.599 245.600 L 72.600 399.400 180.900 399.401 L 289.200 399.402 181.001 399.300 L 72.801 399.199 72.700 245.499 L 72.598 91.800 72.599 245.600 M385.200 143.176 C 385.200 143.823,385.342 144.441,385.516 144.548 C 385.690 144.656,385.761 144.127,385.673 143.372 C 385.476 141.691,385.200 141.577,385.200 143.176 M387.309 154.400 C 387.309 155.390,387.387 155.795,387.482 155.300 C 387.578 154.805,387.578 153.995,387.482 153.500 C 387.387 153.005,387.309 153.410,387.309 154.400 M389.132 171.518 C 389.205 172.993,389.385 174.327,389.532 174.482 C 389.680 174.637,389.740 173.557,389.668 172.082 C 389.595 170.607,389.415 169.273,389.268 169.118 C 389.120 168.963,389.060 170.043,389.132 171.518 M183.293 182.000 C 183.293 182.770,183.375 183.085,183.476 182.700 C 183.576 182.315,183.576 181.685,183.476 181.300 C 183.375 180.915,183.293 181.230,183.293 182.000 M389.196 219.882 C 389.088 221.687,389.143 223.020,389.319 222.843 C 389.494 222.667,389.582 221.190,389.515 219.561 L 389.393 216.600 389.196 219.882 M183.152 226.087 C 183.337 227.198,183.393 227.255,183.519 226.454 C 183.601 225.933,183.503 225.343,183.301 225.141 C 183.079 224.919,183.021 225.293,183.152 226.087 M387.407 241.700 C 387.113 242.577,386.989 247.175,387.268 246.882 C 387.523 246.613,387.923 241.197,387.687 241.199 C 387.626 241.200,387.499 241.425,387.407 241.700 M385.361 261.758 C 385.243 262.065,385.208 263.010,385.283 263.858 C 385.410 265.287,385.434 265.246,385.610 263.300 C 385.804 261.156,385.741 260.767,385.361 261.758 M383.193 278.681 C 383.087 279.825,383.147 280.615,383.326 280.435 C 383.505 280.256,383.591 279.319,383.518 278.354 L 383.385 276.600 383.193 278.681 M381.168 289.300 C 381.049 290.160,381.110 290.650,381.312 290.448 C 381.505 290.255,381.598 289.581,381.519 288.949 C 381.387 287.891,381.359 287.919,381.168 289.300 M232.000 288.558 C 232.000 288.645,232.705 288.783,233.566 288.865 C 234.428 288.948,235.047 288.876,234.943 288.707 C 234.753 288.400,232.000 288.260,232.000 288.558 M243.518 290.473 C 243.673 290.623,245.457 290.803,247.482 290.873 C 249.507 290.943,251.037 290.877,250.882 290.727 C 250.727 290.577,248.943 290.397,246.918 290.327 C 244.893 290.257,243.363 290.323,243.518 290.473 M273.510 292.449 C 273.670 292.597,274.560 292.786,275.490 292.869 C 276.419 292.951,277.049 292.898,276.890 292.751 C 276.730 292.603,275.840 292.414,274.910 292.331 C 273.981 292.249,273.351 292.302,273.510 292.449 M379.168 299.300 C 379.049 300.160,379.110 300.650,379.312 300.448 C 379.505 300.255,379.598 299.581,379.519 298.949 C 379.387 297.891,379.359 297.919,379.168 299.300 M347.200 357.176 C 347.200 357.823,347.342 358.441,347.516 358.548 C 347.690 358.656,347.761 358.127,347.673 357.372 C 347.476 355.691,347.200 355.577,347.200 357.176 M347.198 364.081 C 347.089 366.876,347.141 369.021,347.313 368.848 C 347.486 368.675,347.575 366.388,347.511 363.767 L 347.396 359.000 347.198 364.081 " stroke="none" fill="#5c5c5c" fill-rule="evenodd"></path></g></svg>