<svg id="svg" version="1.1" xmlns="http://www.w3.org/2000/svg" xmlns:xlink="http://www.w3.org/1999/xlink" width="400" height="400" viewBox="0, 0, 400,400"><g id="svgg"><path id="path0" d="M0.000 200.000 L 0.000 400.000 200.000 400.000 L 400.000 400.000 400.000 200.000 L 400.000 0.000 200.000 0.000 L 0.000 0.000 0.000 200.000 M327.400 14.639 C 331.360 15.001,334.771 15.455,334.980 15.649 C 335.189 15.842,335.985 16.000,336.749 16.000 C 338.461 16.000,344.853 17.168,345.400 17.581 C 345.620 17.747,347.240 18.121,349.000 18.413 C 350.760 18.705,353.225 19.452,354.478 20.072 C 355.730 20.692,357.035 21.200,357.378 21.200 C 357.720 21.200,358.000 21.344,358.000 21.521 C 358.000 21.698,358.900 22.166,360.000 22.561 C 361.100 22.957,362.000 23.442,362.000 23.640 C 362.000 23.838,362.289 24.000,362.642 24.000 C 362.996 24.000,363.967 24.540,364.800 25.200 C 365.633 25.860,366.504 26.400,366.735 26.400 C 366.966 26.400,367.390 26.715,367.677 27.100 C 367.965 27.485,368.650 28.036,369.200 28.323 C 370.832 29.178,376.000 34.506,376.000 35.335 C 376.000 35.460,376.630 36.173,377.400 36.921 C 378.170 37.669,378.800 38.496,378.800 38.760 C 378.800 39.023,379.693 41.043,380.785 43.248 C 382.155 46.015,382.978 48.333,383.441 50.728 C 383.810 52.638,384.267 54.371,384.456 54.580 C 384.906 55.077,384.903 62.527,384.453 63.020 C 384.262 63.229,383.784 64.799,383.391 66.510 C 382.048 72.349,375.034 83.200,372.602 83.200 C 372.456 83.200,370.775 84.513,368.868 86.119 C 365.451 88.994,364.764 89.375,350.400 96.371 C 349.630 96.746,348.235 97.295,347.300 97.590 C 346.365 97.886,345.600 98.256,345.600 98.411 C 345.600 98.567,344.475 99.008,343.100 99.390 C 341.725 99.773,340.420 100.219,340.200 100.380 C 339.980 100.542,338.630 100.992,337.200 101.380 C 335.770 101.769,334.420 102.217,334.200 102.377 C 333.980 102.538,332.720 102.993,331.400 103.389 C 330.080 103.786,328.820 104.241,328.600 104.400 C 328.380 104.559,327.120 105.014,325.800 105.411 C 324.480 105.807,323.220 106.257,323.000 106.411 C 322.780 106.564,321.520 107.006,320.200 107.391 C 318.880 107.777,317.260 108.317,316.600 108.590 C 315.940 108.864,314.500 109.321,313.400 109.606 C 312.300 109.891,311.220 110.254,311.000 110.414 C 310.780 110.573,309.520 111.005,308.200 111.374 C 306.880 111.743,305.037 112.395,304.104 112.823 C 303.172 113.250,302.177 113.600,301.893 113.600 C 301.610 113.600,301.023 113.836,300.589 114.124 C 300.155 114.412,298.990 114.900,298.000 115.207 C 297.010 115.514,295.364 116.178,294.342 116.683 C 293.320 117.187,292.235 117.600,291.931 117.600 C 291.627 117.600,291.023 117.839,290.589 118.130 C 290.155 118.422,288.765 118.979,287.501 119.367 C 286.236 119.756,285.109 120.224,284.996 120.406 C 284.883 120.589,283.848 121.046,282.695 121.422 C 281.543 121.798,280.416 122.250,280.190 122.427 C 279.965 122.604,278.885 123.041,277.790 123.400 C 276.696 123.758,274.990 124.427,274.000 124.886 C 273.010 125.345,271.300 126.131,270.200 126.632 C 269.100 127.133,267.008 128.096,265.551 128.771 C 264.094 129.447,262.609 130.000,262.251 130.000 C 261.893 130.000,261.600 130.152,261.600 130.337 C 261.600 130.522,260.835 130.898,259.900 131.171 C 257.171 131.971,238.116 141.241,234.503 143.526 C 231.884 145.183,228.245 147.703,227.791 148.175 C 227.566 148.409,227.032 148.796,226.605 149.035 C 225.244 149.797,223.355 154.000,224.373 154.000 C 224.578 154.000,224.859 154.356,224.997 154.792 C 225.237 155.548,228.293 157.200,229.451 157.200 C 229.753 157.200,230.000 157.349,230.000 157.531 C 230.000 157.981,234.205 158.711,238.712 159.043 C 240.754 159.194,242.520 159.470,242.636 159.658 C 242.752 159.846,247.562 160.003,253.324 160.006 C 264.133 160.012,279.729 160.888,280.540 161.535 C 280.793 161.737,282.890 162.129,285.200 162.406 C 287.510 162.684,289.940 163.146,290.600 163.435 C 291.260 163.723,292.943 164.248,294.339 164.601 C 295.736 164.953,297.176 165.398,297.539 165.588 C 297.903 165.778,299.280 166.243,300.600 166.622 C 301.920 167.000,303.180 167.448,303.400 167.617 C 303.620 167.786,304.880 168.236,306.200 168.617 C 307.520 168.997,309.029 169.644,309.554 170.054 C 310.079 170.464,310.745 170.800,311.034 170.800 C 311.323 170.800,311.704 171.025,311.880 171.300 C 312.180 171.768,313.332 172.470,316.200 173.932 C 316.860 174.269,318.605 175.502,320.079 176.672 C 321.552 177.842,322.953 178.800,323.191 178.800 C 323.430 178.800,323.729 179.070,323.855 179.400 C 323.982 179.730,324.336 180.000,324.643 180.000 C 324.949 180.000,325.200 180.158,325.200 180.350 C 325.200 180.543,326.636 182.118,328.392 183.850 C 330.147 185.583,331.587 187.152,331.592 187.337 C 331.599 187.638,335.159 192.476,336.496 194.000 C 336.785 194.330,337.721 196.040,338.576 197.800 C 339.430 199.560,340.436 201.450,340.811 202.000 C 341.186 202.550,341.624 203.900,341.784 205.000 C 341.944 206.100,342.217 207.180,342.391 207.400 C 343.711 209.071,343.931 219.765,342.700 222.400 C 342.340 223.170,341.810 224.611,341.523 225.603 C 340.561 228.922,330.935 239.262,326.833 241.383 C 326.085 241.770,324.342 242.877,322.959 243.843 C 321.577 244.809,320.315 245.600,320.154 245.600 C 319.994 245.600,319.579 245.840,319.231 246.134 C 318.884 246.428,317.970 246.907,317.200 247.199 C 316.430 247.491,314.683 248.241,313.317 248.865 C 311.951 249.489,310.556 250.000,310.217 250.000 C 309.878 250.000,309.599 250.135,309.599 250.300 C 309.598 250.465,308.743 250.934,307.699 251.342 C 306.654 251.751,305.260 252.310,304.600 252.586 C 303.940 252.862,302.500 253.321,301.400 253.606 C 300.300 253.891,299.220 254.257,299.000 254.419 C 298.780 254.581,297.430 255.035,296.000 255.427 C 294.570 255.820,293.040 256.362,292.600 256.632 C 292.160 256.902,290.990 257.249,290.000 257.403 C 289.010 257.557,287.660 257.917,287.000 258.204 C 286.340 258.491,284.450 259.026,282.800 259.394 C 281.150 259.761,279.440 260.226,279.000 260.427 C 278.560 260.629,276.942 261.079,275.403 261.428 C 273.865 261.777,272.425 262.208,272.203 262.387 C 271.982 262.565,270.450 263.033,268.800 263.425 C 267.150 263.817,265.710 264.259,265.600 264.405 C 265.490 264.552,264.140 265.005,262.600 265.412 C 261.060 265.818,259.710 266.257,259.600 266.386 C 259.490 266.516,258.590 266.962,257.600 267.378 C 245.942 272.274,242.684 276.417,246.458 281.544 C 247.410 282.838,248.642 284.091,249.195 284.330 C 249.748 284.569,251.280 285.409,252.600 286.197 C 255.641 288.012,256.219 288.276,258.300 288.802 C 259.235 289.038,260.000 289.384,260.000 289.571 C 260.000 289.758,260.672 290.037,261.493 290.191 C 262.314 290.345,263.682 290.808,264.534 291.219 C 265.385 291.630,267.369 292.258,268.941 292.613 C 270.513 292.969,272.117 293.429,272.505 293.636 C 272.893 293.844,274.499 294.284,276.075 294.616 C 277.651 294.947,279.134 295.373,279.370 295.562 C 279.607 295.751,281.600 296.211,283.800 296.583 C 286.000 296.955,288.160 297.416,288.600 297.607 C 289.040 297.798,291.290 298.245,293.600 298.600 C 295.910 298.955,298.160 299.403,298.600 299.595 C 299.040 299.788,301.290 300.246,303.600 300.613 C 305.910 300.981,307.890 301.415,308.000 301.579 C 308.110 301.742,309.910 302.202,312.000 302.600 C 314.090 302.998,315.890 303.448,316.000 303.600 C 316.110 303.752,317.910 304.202,320.000 304.600 C 322.090 304.998,323.890 305.451,324.000 305.605 C 324.110 305.760,325.640 306.201,327.400 306.587 C 329.160 306.972,330.780 307.419,331.000 307.579 C 331.220 307.740,332.840 308.199,334.600 308.599 C 336.360 308.999,337.890 309.448,338.000 309.596 C 338.110 309.744,339.273 310.078,340.584 310.337 C 341.896 310.595,343.656 311.165,344.497 311.604 C 345.337 312.042,346.201 312.400,346.417 312.400 C 346.632 312.400,347.572 312.748,348.504 313.173 C 349.437 313.597,351.010 314.212,352.000 314.539 C 352.990 314.865,354.340 315.417,355.000 315.764 C 355.660 316.111,356.415 316.396,356.678 316.398 C 356.941 316.399,358.411 317.030,359.946 317.800 C 361.480 318.570,363.020 319.200,363.368 319.200 C 363.715 319.200,364.000 319.344,364.000 319.521 C 364.000 319.698,364.900 320.166,366.000 320.561 C 367.100 320.957,368.000 321.400,368.000 321.546 C 368.000 321.693,368.900 322.132,370.000 322.523 C 371.100 322.913,372.000 323.405,372.000 323.616 C 372.000 323.827,372.184 324.000,372.408 324.000 C 372.632 324.000,373.577 324.488,374.508 325.085 C 376.654 326.461,378.210 327.360,380.082 328.306 C 381.248 328.896,386.132 333.352,389.354 336.766 C 389.599 337.026,390.205 337.623,390.700 338.092 C 391.195 338.561,391.600 339.130,391.600 339.358 C 391.600 339.586,391.955 340.138,392.389 340.586 C 393.736 341.975,395.600 344.292,395.600 344.578 C 395.600 344.926,397.401 348.967,398.388 350.832 C 398.985 351.961,399.163 353.231,399.226 356.832 L 399.306 361.400 397.453 364.946 C 396.434 366.896,395.596 368.696,395.591 368.946 C 395.583 369.371,392.761 371.600,392.230 371.600 C 392.097 371.600,390.750 372.500,389.238 373.600 C 387.726 374.700,386.310 375.600,386.093 375.600 C 385.876 375.600,385.496 375.843,385.249 376.141 C 385.003 376.438,383.631 376.998,382.200 377.385 C 380.770 377.772,379.600 378.215,379.600 378.369 C 379.600 378.523,378.735 378.870,377.678 379.141 C 376.621 379.412,375.316 379.860,374.778 380.136 C 374.240 380.412,372.720 380.972,371.400 381.382 C 370.080 381.792,368.640 382.348,368.200 382.618 C 367.760 382.888,365.870 383.333,364.000 383.607 C 362.130 383.882,360.420 384.235,360.200 384.393 C 359.980 384.552,357.820 384.987,355.400 385.360 C 352.980 385.734,350.640 386.196,350.200 386.388 C 349.154 386.843,342.438 388.000,340.843 388.000 C 340.159 388.000,339.600 388.146,339.600 388.324 C 339.600 388.503,336.495 388.983,332.700 389.391 C 328.905 389.799,325.710 390.251,325.600 390.395 C 325.490 390.539,322.529 390.980,319.020 391.375 C 315.511 391.770,312.361 392.240,312.020 392.420 C 311.679 392.600,306.810 393.042,301.200 393.402 C 295.590 393.763,290.640 394.207,290.200 394.389 C 289.272 394.774,272.348 396.018,268.180 396.007 C 266.629 396.003,265.189 396.155,264.980 396.345 C 264.771 396.535,256.770 397.013,247.200 397.406 C 237.630 397.800,229.710 398.243,229.600 398.390 C 229.209 398.911,184.108 399.620,151.928 399.610 L 119.257 399.600 118.852 397.500 C 118.629 396.345,117.994 392.970,117.442 390.000 C 116.889 387.030,116.144 383.070,115.785 381.200 C 114.921 376.695,113.382 368.621,112.164 362.200 C 111.622 359.340,110.730 354.210,110.183 350.800 C 109.636 347.390,108.734 341.810,108.179 338.400 C 107.624 334.990,106.826 329.960,106.406 327.221 C 105.986 324.483,105.458 321.423,105.232 320.421 C 105.007 319.420,104.541 316.170,104.197 313.200 C 103.853 310.230,103.487 307.518,103.383 307.174 C 103.278 306.830,102.735 303.050,102.175 298.774 C 101.615 294.498,100.716 287.670,100.178 283.600 C 99.640 279.530,98.836 272.870,98.390 268.800 C 97.945 264.730,97.412 260.410,97.206 259.200 C 96.857 257.158,96.153 249.801,95.195 238.200 C 91.973 199.181,92.387 157.964,96.218 136.400 C 96.785 133.210,97.608 128.540,98.048 126.022 C 98.488 123.504,99.535 119.364,100.376 116.822 C 101.217 114.280,102.490 110.400,103.204 108.200 C 103.918 106.000,104.907 103.480,105.402 102.600 C 105.896 101.720,107.776 98.141,109.578 94.646 C 111.381 91.151,113.698 87.166,114.728 85.791 C 115.758 84.416,116.870 82.883,117.200 82.385 C 117.530 81.888,118.342 80.742,119.004 79.840 C 119.666 78.938,120.512 77.725,120.884 77.145 C 121.591 76.040,124.413 73.167,131.043 66.800 C 134.391 63.584,137.397 61.136,142.734 57.276 C 143.248 56.904,144.868 55.696,146.334 54.592 C 148.657 52.842,149.893 52.033,153.800 49.708 C 154.770 49.131,161.181 45.459,163.400 44.209 C 167.656 41.812,169.531 40.872,171.000 40.397 C 171.880 40.112,172.960 39.656,173.400 39.384 C 173.840 39.112,174.920 38.662,175.800 38.384 C 176.680 38.106,177.760 37.655,178.200 37.381 C 178.640 37.107,179.450 36.754,180.000 36.597 C 180.875 36.346,185.084 34.637,187.400 33.592 C 187.840 33.393,189.280 32.937,190.600 32.579 C 191.920 32.220,193.990 31.594,195.200 31.188 C 196.410 30.782,199.290 29.877,201.600 29.177 C 203.910 28.477,206.790 27.582,208.000 27.187 C 209.210 26.792,211.100 26.341,212.200 26.184 C 213.300 26.027,214.380 25.767,214.600 25.605 C 214.820 25.444,216.710 25.002,218.800 24.624 C 220.890 24.246,222.960 23.776,223.400 23.579 C 223.840 23.383,225.820 22.934,227.800 22.580 C 229.780 22.227,232.120 21.706,233.000 21.421 C 233.880 21.137,236.670 20.677,239.200 20.399 C 241.730 20.121,243.980 19.760,244.200 19.596 C 244.420 19.433,247.210 18.984,250.400 18.599 C 253.590 18.214,256.497 17.745,256.859 17.557 C 257.222 17.369,261.092 16.925,265.459 16.570 C 269.827 16.215,273.760 15.775,274.200 15.592 C 277.890 14.059,313.977 13.413,327.400 14.639 " stroke="none" fill="#fbfbfb" fill-rule="evenodd"></path><path id="path1" d="M299.207 13.913 C 296.461 13.975,294.040 14.200,293.827 14.413 C 293.614 14.626,291.901 14.795,290.020 14.789 C 285.825 14.776,269.876 16.048,269.600 16.418 C 269.490 16.566,267.600 16.809,265.400 16.958 C 260.171 17.314,254.804 17.985,253.800 18.408 C 253.360 18.593,250.480 19.041,247.400 19.404 C 244.320 19.767,241.440 20.210,241.000 20.389 C 240.560 20.568,238.043 21.016,235.407 21.385 C 232.772 21.754,230.432 22.199,230.207 22.374 C 229.983 22.550,228.004 23.011,225.809 23.400 C 223.614 23.789,221.544 24.257,221.209 24.440 C 220.874 24.624,218.800 25.119,216.600 25.540 C 212.341 26.356,206.722 27.784,205.400 28.386 C 204.960 28.587,203.520 29.039,202.200 29.391 C 200.880 29.743,199.440 30.198,199.000 30.402 C 198.560 30.606,197.030 31.065,195.600 31.422 C 194.170 31.779,192.820 32.212,192.600 32.383 C 192.380 32.555,191.210 32.919,190.000 33.193 C 188.790 33.466,187.440 33.912,187.000 34.184 C 186.560 34.455,185.210 35.001,184.000 35.398 C 182.790 35.794,181.710 36.245,181.600 36.400 C 181.490 36.555,180.410 37.006,179.200 37.402 C 177.990 37.799,176.640 38.346,176.200 38.620 C 175.760 38.893,174.950 39.247,174.400 39.405 C 173.850 39.564,172.450 40.123,171.288 40.647 C 170.127 41.171,168.922 41.600,168.612 41.600 C 168.301 41.600,167.944 41.767,167.818 41.971 C 167.692 42.174,166.028 43.209,164.119 44.271 C 162.211 45.332,159.648 46.787,158.425 47.504 C 157.201 48.222,155.660 49.086,155.000 49.426 C 152.116 50.911,143.750 56.740,137.471 61.640 C 133.068 65.075,121.652 76.631,119.400 79.931 C 118.300 81.543,116.383 84.248,115.139 85.942 C 108.780 94.605,100.939 113.432,98.623 125.600 C 96.385 137.358,95.590 142.638,94.979 149.794 C 94.623 153.971,94.233 157.547,94.113 157.741 C 93.127 159.335,93.358 205.432,94.420 219.000 C 94.661 222.080,95.199 230.000,95.615 236.600 C 96.270 246.983,97.779 262.372,98.575 266.800 C 98.714 267.570,99.180 271.440,99.612 275.400 C 100.044 279.360,100.852 285.840,101.409 289.800 C 101.966 293.760,102.860 300.240,103.396 304.200 C 105.264 318.011,105.993 323.012,106.397 324.800 C 106.621 325.790,107.160 328.940,107.594 331.800 C 108.028 334.660,108.833 339.790,109.383 343.200 C 109.933 346.610,110.741 351.650,111.179 354.400 C 111.617 357.150,112.163 360.210,112.392 361.200 C 112.622 362.190,113.177 364.980,113.627 367.400 C 114.076 369.820,114.871 374.050,115.393 376.800 C 115.915 379.550,116.710 383.780,117.161 386.200 C 117.611 388.620,118.374 392.535,118.855 394.900 L 119.729 399.200 153.666 399.200 C 187.383 399.200,237.567 398.276,237.987 397.648 C 238.104 397.472,246.210 396.999,256.000 396.596 C 265.790 396.194,273.890 395.740,274.000 395.587 C 274.110 395.435,278.790 395.003,284.400 394.628 C 290.010 394.252,294.960 393.791,295.400 393.604 C 295.840 393.416,300.320 392.979,305.356 392.634 C 310.391 392.288,314.711 391.849,314.956 391.659 C 315.200 391.468,318.280 391.004,321.800 390.627 C 325.320 390.250,328.560 389.786,329.000 389.595 C 329.440 389.404,332.590 388.956,336.000 388.599 C 339.410 388.243,342.504 387.788,342.875 387.588 C 343.246 387.388,345.406 386.944,347.675 386.602 C 349.944 386.259,352.083 385.822,352.429 385.630 C 352.775 385.438,355.115 384.970,357.629 384.589 C 360.143 384.208,362.380 383.756,362.600 383.585 C 362.820 383.415,363.900 383.152,365.000 383.001 C 367.051 382.720,369.644 381.982,370.000 381.577 C 370.110 381.452,371.280 381.022,372.600 380.620 C 373.920 380.218,375.202 379.732,375.449 379.539 C 375.695 379.346,376.865 378.902,378.049 378.553 C 379.232 378.204,380.380 377.774,380.600 377.598 C 380.820 377.422,381.798 377.065,382.772 376.804 C 383.747 376.543,385.114 375.896,385.810 375.365 C 386.506 374.834,387.196 374.400,387.344 374.400 C 387.491 374.400,388.824 373.545,390.306 372.500 C 391.788 371.455,393.348 370.408,393.773 370.173 C 394.199 369.939,394.739 369.399,394.973 368.973 C 395.208 368.548,395.507 368.110,395.637 368.000 C 395.767 367.890,396.196 366.945,396.591 365.900 C 396.986 364.855,397.428 364.000,397.574 364.000 C 397.720 364.000,398.077 363.344,398.367 362.542 C 399.360 359.795,398.728 350.000,397.557 350.000 C 397.402 350.000,396.963 349.010,396.582 347.800 C 396.202 346.590,395.735 345.600,395.545 345.600 C 395.355 345.600,395.200 345.309,395.200 344.953 C 395.200 344.597,394.705 343.735,394.100 343.039 C 393.495 342.342,392.460 341.068,391.800 340.209 C 388.318 335.674,378.828 327.200,377.233 327.200 C 377.084 327.200,376.611 326.930,376.181 326.600 C 373.825 324.791,365.847 320.610,362.000 319.170 C 361.230 318.881,360.510 318.545,360.400 318.423 C 360.033 318.014,357.181 316.800,356.586 316.800 C 356.264 316.800,356.000 316.642,356.000 316.450 C 356.000 316.257,355.419 315.984,354.710 315.842 C 354.000 315.700,352.695 315.246,351.810 314.832 C 350.924 314.419,349.210 313.769,348.000 313.388 C 346.790 313.006,345.619 312.552,345.397 312.378 C 344.805 311.915,341.513 310.813,340.700 310.806 C 340.315 310.803,340.000 310.653,340.000 310.473 C 340.000 310.294,338.785 309.912,337.300 309.626 C 335.815 309.340,334.060 308.876,333.400 308.596 C 332.740 308.315,330.850 307.784,329.200 307.415 C 327.550 307.046,325.660 306.506,325.000 306.214 C 324.340 305.923,322.495 305.457,320.900 305.178 C 319.305 304.900,318.000 304.551,318.000 304.403 C 318.000 304.255,316.200 303.804,314.000 303.400 C 311.800 302.996,310.000 302.546,310.000 302.400 C 310.000 302.254,308.155 301.815,305.900 301.426 C 303.645 301.037,301.440 300.567,301.000 300.382 C 300.560 300.197,298.310 299.755,296.000 299.400 C 293.690 299.045,291.440 298.595,291.000 298.400 C 290.560 298.205,288.316 297.743,286.014 297.373 C 283.712 297.002,281.552 296.550,281.214 296.368 C 280.465 295.964,275.610 294.800,274.674 294.800 C 274.303 294.800,274.000 294.640,274.000 294.445 C 274.000 294.250,272.785 293.869,271.300 293.597 C 269.815 293.326,268.060 292.872,267.400 292.587 C 266.740 292.303,265.210 291.761,264.000 291.382 C 262.790 291.004,261.620 290.558,261.400 290.392 C 261.180 290.226,259.920 289.759,258.600 289.356 C 257.280 288.952,256.110 288.517,256.000 288.388 C 255.890 288.260,255.170 287.912,254.400 287.616 C 253.630 287.319,252.820 286.868,252.600 286.613 C 252.380 286.359,251.916 286.044,251.568 285.914 C 250.288 285.435,246.400 282.762,246.400 282.361 C 246.400 282.133,245.927 281.327,245.349 280.569 C 243.880 278.643,244.217 275.756,246.114 274.012 C 248.633 271.696,250.884 270.000,251.438 270.000 C 251.747 270.000,252.000 269.844,252.000 269.654 C 252.000 269.464,252.855 268.997,253.900 268.615 C 254.945 268.234,256.790 267.460,258.000 266.896 C 259.210 266.332,260.472 265.745,260.805 265.591 C 261.137 265.438,262.487 265.010,263.805 264.641 C 265.122 264.271,266.560 263.802,267.000 263.598 C 267.440 263.394,268.970 262.935,270.400 262.578 C 271.830 262.221,273.180 261.794,273.400 261.629 C 273.620 261.464,275.240 261.012,277.000 260.626 C 278.760 260.239,280.740 259.692,281.400 259.409 C 282.060 259.127,283.815 258.674,285.300 258.403 C 286.785 258.131,288.000 257.770,288.000 257.600 C 288.000 257.430,288.833 257.166,289.852 257.013 C 290.871 256.860,292.176 256.545,292.752 256.311 C 293.328 256.078,294.340 255.668,295.000 255.400 C 295.660 255.131,297.100 254.679,298.200 254.394 C 299.300 254.109,300.380 253.746,300.600 253.586 C 300.820 253.427,302.080 252.994,303.400 252.625 C 304.720 252.256,306.700 251.521,307.800 250.992 C 308.900 250.463,310.790 249.592,312.000 249.058 C 313.210 248.524,315.022 247.707,316.026 247.243 C 317.031 246.779,317.988 246.400,318.153 246.400 C 318.318 246.400,319.043 245.950,319.764 245.400 C 320.486 244.850,321.184 244.400,321.318 244.400 C 321.451 244.400,322.360 243.860,323.338 243.200 C 324.316 242.540,325.315 242.000,325.558 242.000 C 325.801 242.000,326.000 241.816,326.000 241.590 C 326.000 241.365,326.470 241.001,327.046 240.783 C 327.621 240.564,329.663 238.949,331.584 237.193 C 333.505 235.437,335.285 234.000,335.539 234.000 C 335.792 234.000,336.000 233.794,336.000 233.541 C 336.000 233.289,336.630 232.314,337.400 231.374 C 338.170 230.434,338.800 229.542,338.800 229.390 C 338.800 229.239,339.250 228.761,339.800 228.329 C 340.350 227.896,340.800 227.267,340.800 226.931 C 340.800 226.596,341.059 225.754,341.375 225.060 C 343.540 220.316,343.651 205.600,341.522 205.600 C 341.345 205.600,341.200 205.172,341.200 204.650 C 341.200 203.571,336.648 194.435,335.773 193.756 C 335.458 193.512,335.200 193.177,335.200 193.013 C 335.200 192.849,334.525 191.852,333.700 190.799 C 332.875 189.745,331.840 188.378,331.400 187.762 C 330.960 187.145,329.295 185.342,327.700 183.754 C 326.105 182.167,324.800 180.701,324.800 180.498 C 324.800 180.295,324.305 179.903,323.700 179.628 C 323.095 179.352,322.330 178.870,322.000 178.556 C 320.658 177.277,317.256 174.800,316.843 174.800 C 316.599 174.800,316.400 174.620,316.400 174.400 C 316.400 174.180,316.202 174.000,315.960 174.000 C 315.543 174.000,311.753 171.855,309.600 170.400 C 309.050 170.029,307.655 169.483,306.500 169.187 C 305.345 168.891,304.400 168.526,304.400 168.376 C 304.400 168.227,303.545 167.876,302.500 167.598 C 301.455 167.320,300.240 166.881,299.800 166.623 C 299.360 166.365,297.560 165.808,295.800 165.387 C 294.040 164.965,292.510 164.507,292.400 164.368 C 292.143 164.045,288.778 163.294,286.200 162.985 C 285.100 162.853,283.840 162.592,283.400 162.406 C 282.098 161.853,276.969 161.238,271.300 160.953 C 268.385 160.807,266.000 160.533,266.000 160.344 C 266.000 160.155,261.005 159.996,254.900 159.992 C 243.650 159.984,232.332 159.196,232.067 158.402 C 231.994 158.181,231.595 158.000,231.181 158.000 C 230.267 158.000,226.679 156.817,226.400 156.424 C 226.290 156.269,225.882 156.024,225.494 155.881 C 223.467 155.133,223.718 151.350,225.932 149.289 C 228.286 147.096,228.649 146.800,228.980 146.800 C 229.152 146.800,230.151 146.170,231.200 145.400 C 232.249 144.630,233.308 144.000,233.554 144.000 C 233.799 144.000,234.000 143.833,234.000 143.629 C 234.000 143.183,233.902 143.237,245.253 137.495 C 250.232 134.977,255.137 132.671,256.153 132.371 C 257.169 132.071,258.000 131.705,258.000 131.559 C 258.000 131.412,258.945 130.989,260.100 130.617 C 261.255 130.246,263.460 129.346,265.000 128.618 C 269.721 126.383,272.934 124.951,274.400 124.428 C 275.170 124.154,276.250 123.698,276.800 123.416 C 277.350 123.134,278.520 122.677,279.400 122.399 C 280.280 122.122,281.184 121.751,281.410 121.574 C 281.635 121.397,282.715 120.949,283.810 120.579 C 284.904 120.209,285.890 119.784,286.000 119.636 C 286.110 119.488,287.010 119.121,288.000 118.820 C 288.990 118.520,290.160 118.060,290.600 117.798 C 291.040 117.537,292.390 116.999,293.600 116.602 C 294.810 116.206,295.890 115.766,296.000 115.624 C 296.110 115.482,297.010 115.121,298.000 114.820 C 298.990 114.520,300.160 114.060,300.600 113.798 C 301.040 113.537,302.390 113.009,303.600 112.626 C 304.810 112.243,306.340 111.701,307.000 111.421 C 307.660 111.141,309.100 110.679,310.200 110.394 C 311.300 110.109,312.380 109.743,312.600 109.581 C 312.820 109.419,314.170 108.982,315.600 108.610 C 317.030 108.239,318.650 107.706,319.200 107.428 C 319.750 107.149,321.100 106.683,322.200 106.391 C 323.300 106.099,324.560 105.634,325.000 105.356 C 325.440 105.079,326.700 104.631,327.800 104.361 C 328.900 104.091,329.890 103.753,330.000 103.610 C 330.110 103.467,331.280 103.022,332.600 102.620 C 333.920 102.218,335.180 101.751,335.400 101.581 C 335.620 101.411,336.903 100.986,338.251 100.638 C 339.599 100.289,341.219 99.734,341.851 99.404 C 342.483 99.075,343.225 98.804,343.499 98.802 C 343.944 98.800,346.055 97.899,351.000 95.600 C 351.880 95.191,353.365 94.619,354.300 94.331 C 355.235 94.042,356.000 93.693,356.000 93.557 C 356.000 93.420,358.264 92.180,361.030 90.801 C 363.797 89.421,366.270 87.957,366.526 87.546 C 366.783 87.136,367.142 86.800,367.326 86.800 C 367.819 86.800,372.597 82.755,375.806 79.620 C 378.935 76.563,381.937 71.251,382.823 67.200 C 383.088 65.990,383.506 64.747,383.752 64.439 C 384.374 63.659,384.348 54.018,383.721 52.761 C 383.457 52.232,382.944 50.405,382.581 48.700 C 382.217 46.995,381.797 45.600,381.648 45.600 C 381.498 45.600,381.027 44.700,380.600 43.600 C 380.173 42.500,379.712 41.600,379.576 41.600 C 379.440 41.600,379.081 40.835,378.780 39.900 C 378.478 38.965,377.806 37.750,377.286 37.200 C 375.403 35.208,372.000 30.849,372.000 30.430 C 372.000 30.193,371.818 30.000,371.595 30.000 C 371.373 30.000,370.068 29.239,368.695 28.308 C 365.953 26.448,365.923 26.427,364.200 25.061 C 363.540 24.538,362.550 23.976,362.000 23.813 C 361.450 23.650,360.280 23.118,359.400 22.630 C 358.520 22.143,357.035 21.503,356.100 21.208 C 355.165 20.913,354.400 20.557,354.400 20.416 C 354.400 20.056,352.127 19.315,350.000 18.983 C 349.010 18.829,348.110 18.583,348.000 18.438 C 347.890 18.293,345.946 17.861,343.679 17.478 C 341.413 17.095,339.253 16.616,338.879 16.414 C 338.506 16.213,334.960 15.758,331.000 15.403 C 327.040 15.048,323.440 14.588,323.000 14.381 C 322.174 13.992,308.007 13.714,299.207 13.913 " stroke="none" fill="#040404" fill-rule="evenodd"></path><path id="path2" d="M276.600 15.200 L 274.200 15.466 276.476 15.533 C 277.728 15.570,278.864 15.420,279.000 15.200 C 279.136 14.980,279.192 14.830,279.124 14.867 C 279.056 14.904,277.920 15.054,276.600 15.200 M331.165 15.326 C 331.344 15.505,332.281 15.591,333.246 15.518 L 335.000 15.385 332.919 15.193 C 331.775 15.087,330.985 15.147,331.165 15.326 M258.600 17.200 L 257.000 17.486 258.476 17.543 C 259.288 17.574,260.064 17.420,260.200 17.200 C 260.336 16.980,260.392 16.826,260.324 16.857 C 260.256 16.888,259.480 17.042,258.600 17.200 M245.800 19.200 L 244.200 19.486 245.676 19.543 C 246.488 19.574,247.264 19.420,247.400 19.200 C 247.536 18.980,247.592 18.826,247.524 18.857 C 247.456 18.888,246.680 19.042,245.800 19.200 M224.600 23.200 L 223.400 23.505 224.476 23.553 C 225.068 23.579,225.664 23.420,225.800 23.200 C 225.936 22.980,225.992 22.821,225.924 22.847 C 225.856 22.873,225.260 23.032,224.600 23.200 M384.548 58.800 C 384.548 61.110,384.614 62.055,384.695 60.900 C 384.776 59.745,384.776 57.855,384.695 56.700 C 384.614 55.545,384.548 56.490,384.548 58.800 M131.186 66.700 L 129.000 69.000 131.300 66.814 C 133.437 64.782,133.783 64.400,133.486 64.400 C 133.424 64.400,132.389 65.435,131.186 66.700 M382.623 68.100 C 382.208 69.467,382.107 70.381,382.391 70.205 C 382.565 70.098,382.787 69.468,382.885 68.805 C 383.063 67.593,382.906 67.170,382.623 68.100 M94.893 145.200 C 94.893 145.970,94.975 146.285,95.076 145.900 C 95.176 145.515,95.176 144.885,95.076 144.500 C 94.975 144.115,94.893 144.430,94.893 145.200 M237.919 159.265 C 238.073 159.410,239.227 159.590,240.481 159.665 C 241.736 159.739,242.636 159.681,242.481 159.535 C 242.327 159.390,241.173 159.210,239.919 159.135 C 238.664 159.061,237.764 159.119,237.919 159.265 M277.824 161.239 C 277.917 161.389,278.612 161.584,279.368 161.672 C 280.125 161.761,280.668 161.710,280.576 161.561 C 280.483 161.411,279.788 161.216,279.032 161.128 C 278.275 161.039,277.732 161.090,277.824 161.239 M93.350 167.000 C 93.351 169.420,93.416 170.358,93.496 169.085 C 93.576 167.812,93.575 165.832,93.494 164.685 C 93.414 163.538,93.349 164.580,93.350 167.000 M92.963 181.600 C 92.963 185.230,93.023 186.715,93.098 184.900 C 93.172 183.085,93.172 180.115,93.098 178.300 C 93.023 176.485,92.963 177.970,92.963 181.600 M92.944 192.800 C 92.944 194.890,93.012 195.745,93.094 194.700 C 93.176 193.655,93.176 191.945,93.094 190.900 C 93.012 189.855,92.944 190.710,92.944 192.800 M93.331 201.000 C 93.333 202.540,93.405 203.121,93.492 202.291 C 93.579 201.461,93.577 200.201,93.489 199.491 C 93.400 198.781,93.329 199.460,93.331 201.000 M93.714 212.200 C 93.717 213.300,93.795 213.703,93.887 213.095 C 93.979 212.486,93.977 211.586,93.882 211.095 C 93.787 210.603,93.711 211.100,93.714 212.200 M94.093 221.200 C 94.093 221.970,94.175 222.285,94.276 221.900 C 94.376 221.515,94.376 220.885,94.276 220.500 C 94.175 220.115,94.093 220.430,94.093 221.200 M94.501 228.200 C 94.505 229.080,94.587 229.393,94.683 228.895 C 94.779 228.398,94.775 227.678,94.675 227.295 C 94.575 226.913,94.496 227.320,94.501 228.200 M94.914 234.200 C 94.917 235.300,94.995 235.703,95.087 235.095 C 95.179 234.486,95.177 233.586,95.082 233.095 C 94.987 232.603,94.911 233.100,94.914 234.200 M95.301 238.600 C 95.305 239.480,95.387 239.793,95.483 239.295 C 95.579 238.798,95.575 238.078,95.475 237.695 C 95.375 237.313,95.296 237.720,95.301 238.600 M321.400 244.635 L 320.200 245.666 321.500 244.806 C 322.215 244.333,322.800 243.868,322.800 243.773 C 322.800 243.473,322.631 243.578,321.400 244.635 M246.939 273.446 L 245.000 275.292 246.800 273.790 C 249.215 271.774,249.399 271.600,249.119 271.600 C 248.986 271.600,248.005 272.431,246.939 273.446 M98.893 274.000 C 98.893 274.770,98.975 275.085,99.076 274.700 C 99.176 274.315,99.176 273.685,99.076 273.300 C 98.975 272.915,98.893 273.230,98.893 274.000 M244.554 277.377 C 244.432 277.694,244.403 278.279,244.489 278.677 C 244.587 279.128,244.724 278.912,244.854 278.100 C 245.071 276.738,244.930 276.396,244.554 277.377 M246.391 281.988 C 246.857 282.641,247.442 283.302,247.691 283.456 C 247.941 283.611,247.641 283.076,247.025 282.268 C 245.688 280.515,245.184 280.292,246.391 281.988 M285.824 297.239 C 285.917 297.389,286.612 297.584,287.368 297.672 C 288.125 297.761,288.668 297.710,288.576 297.561 C 288.483 297.411,287.788 297.216,287.032 297.128 C 286.275 297.039,285.732 297.090,285.824 297.239 M295.824 299.239 C 295.917 299.389,296.612 299.584,297.368 299.672 C 298.125 299.761,298.668 299.710,298.576 299.561 C 298.483 299.411,297.788 299.216,297.032 299.128 C 296.275 299.039,295.732 299.090,295.824 299.239 M305.941 301.301 C 306.143 301.503,306.733 301.601,307.254 301.519 C 308.055 301.393,307.998 301.337,306.887 301.152 C 306.093 301.021,305.719 301.079,305.941 301.301 M313.941 303.301 C 314.143 303.503,314.733 303.601,315.254 303.519 C 316.055 303.393,315.998 303.337,314.887 303.152 C 314.093 303.021,313.719 303.079,313.941 303.301 M321.941 305.301 C 322.143 305.503,322.733 305.601,323.254 305.519 C 324.055 305.393,323.998 305.337,322.887 305.152 C 322.093 305.021,321.719 305.079,321.941 305.301 M393.400 370.635 L 392.200 371.666 393.500 370.806 C 394.215 370.333,394.800 369.868,394.800 369.773 C 394.800 369.473,394.631 369.578,393.400 370.635 M387.400 374.635 L 386.200 375.666 387.500 374.806 C 388.215 374.333,388.800 373.868,388.800 373.773 C 388.800 373.473,388.631 373.578,387.400 374.635 M359.000 384.291 C 357.284 384.535,356.920 385.072,358.604 384.875 C 359.376 384.785,360.106 384.551,360.227 384.356 C 360.348 384.160,360.392 384.027,360.324 384.060 C 360.256 384.093,359.660 384.197,359.000 384.291 M349.000 386.291 C 347.284 386.535,346.920 387.072,348.604 386.875 C 349.376 386.785,350.106 386.551,350.227 386.356 C 350.348 386.160,350.392 386.027,350.324 386.060 C 350.256 386.093,349.660 386.197,349.000 386.291 M335.852 388.716 C 335.744 388.890,336.318 388.970,337.128 388.893 C 339.602 388.659,339.893 388.495,337.924 388.446 C 336.892 388.421,335.959 388.542,335.852 388.716 M321.852 390.716 C 321.744 390.890,322.318 390.970,323.128 390.893 C 325.602 390.659,325.893 390.495,323.924 390.446 C 322.892 390.421,321.959 390.542,321.852 390.716 M309.400 392.400 L 306.600 392.659 309.276 392.729 C 310.748 392.768,312.064 392.620,312.200 392.400 C 312.336 392.180,312.392 392.032,312.324 392.071 C 312.256 392.109,310.940 392.258,309.400 392.400 M287.400 394.400 L 284.600 394.659 287.276 394.729 C 288.748 394.768,290.064 394.620,290.200 394.400 C 290.336 394.180,290.392 394.032,290.324 394.071 C 290.256 394.109,288.940 394.258,287.400 394.400 M255.860 396.700 C 255.758 396.865,257.142 396.952,258.937 396.892 C 264.544 396.707,265.179 396.537,260.524 396.467 C 258.062 396.430,255.963 396.535,255.860 396.700 M211.861 398.700 C 211.759 398.865,214.403 398.954,217.737 398.897 C 228.785 398.709,229.911 398.562,220.924 398.480 C 216.042 398.436,211.963 398.535,211.861 398.700 " stroke="none" fill="#8c8c8c" fill-rule="evenodd"></path><path id="path3" d="M283.460 14.700 C 283.358 14.865,284.832 14.952,286.737 14.893 C 293.128 14.695,293.838 14.545,288.724 14.472 C 285.932 14.432,283.563 14.535,283.460 14.700 M323.600 14.623 C 325.086 14.947,327.126 15.003,326.948 14.716 C 326.841 14.542,325.908 14.421,324.876 14.446 C 323.844 14.472,323.270 14.552,323.600 14.623 M266.307 16.690 C 267.026 16.779,268.106 16.777,268.707 16.686 C 269.308 16.595,268.720 16.522,267.400 16.524 C 266.080 16.526,265.588 16.601,266.307 16.690 M252.200 18.400 L 250.600 18.686 252.076 18.743 C 252.888 18.774,253.664 18.620,253.800 18.400 C 253.936 18.180,253.992 18.026,253.924 18.057 C 253.856 18.088,253.080 18.242,252.200 18.400 M238.705 20.683 C 239.202 20.779,239.922 20.775,240.305 20.675 C 240.687 20.575,240.280 20.496,239.400 20.501 C 238.520 20.505,238.207 20.587,238.705 20.683 M229.200 22.288 C 227.733 22.551,227.362 23.096,228.792 22.886 C 229.462 22.788,230.108 22.549,230.229 22.354 C 230.349 22.159,230.392 22.025,230.324 22.054 C 230.256 22.084,229.750 22.190,229.200 22.288 M220.400 24.288 C 218.933 24.551,218.562 25.096,219.992 24.886 C 220.662 24.788,221.308 24.549,221.429 24.354 C 221.549 24.159,221.592 24.025,221.524 24.054 C 221.456 24.084,220.950 24.190,220.400 24.288 M204.600 28.285 C 203.375 28.580,202.998 29.128,204.176 28.903 C 204.746 28.794,205.310 28.546,205.430 28.352 C 205.549 28.159,205.592 28.021,205.524 28.046 C 205.456 28.072,205.040 28.179,204.600 28.285 M134.000 64.200 C 133.028 65.190,132.323 66.000,132.433 66.000 C 132.543 66.000,133.428 65.190,134.400 64.200 C 135.372 63.210,136.077 62.400,135.967 62.400 C 135.857 62.400,134.972 63.210,134.000 64.200 M123.986 73.900 L 121.800 76.200 124.100 74.014 C 126.237 71.982,126.583 71.600,126.286 71.600 C 126.224 71.600,125.189 72.635,123.986 73.900 M94.901 149.000 C 94.905 149.880,94.987 150.193,95.083 149.695 C 95.179 149.198,95.175 148.478,95.075 148.095 C 94.975 147.713,94.896 148.120,94.901 149.000 M94.501 153.000 C 94.505 153.880,94.587 154.193,94.683 153.695 C 94.779 153.198,94.775 152.478,94.675 152.095 C 94.575 151.713,94.496 152.120,94.501 153.000 M267.511 160.693 C 268.451 160.778,269.891 160.777,270.711 160.691 C 271.530 160.605,270.760 160.536,269.000 160.537 C 267.240 160.539,266.570 160.609,267.511 160.693 M283.431 162.450 C 283.521 162.596,284.301 162.783,285.164 162.865 C 286.027 162.947,286.659 162.895,286.569 162.750 C 286.479 162.604,285.699 162.417,284.836 162.335 C 283.973 162.253,283.341 162.305,283.431 162.450 M292.400 164.555 C 292.400 164.640,292.930 164.787,293.579 164.882 C 294.227 164.977,294.667 164.908,294.555 164.728 C 294.357 164.407,292.400 164.250,292.400 164.555 M93.348 178.400 C 93.348 180.710,93.414 181.655,93.495 180.500 C 93.576 179.345,93.576 177.455,93.495 176.300 C 93.414 175.145,93.348 176.090,93.348 178.400 M93.324 194.200 C 93.326 195.520,93.401 196.012,93.490 195.293 C 93.579 194.574,93.577 193.494,93.486 192.893 C 93.395 192.292,93.322 192.880,93.324 194.200 M340.665 202.800 C 340.920 203.130,341.208 203.940,341.305 204.600 L 341.480 205.800 341.540 204.549 C 341.577 203.777,341.332 203.088,340.900 202.749 C 340.291 202.271,340.260 202.278,340.665 202.800 M93.709 207.200 C 93.709 208.190,93.787 208.595,93.882 208.100 C 93.978 207.605,93.978 206.795,93.882 206.300 C 93.787 205.805,93.709 206.210,93.709 207.200 M343.198 215.718 L 343.396 220.200 343.512 216.035 C 343.577 213.744,343.488 211.727,343.315 211.553 C 343.142 211.379,343.089 213.253,343.198 215.718 M94.524 223.400 C 94.526 224.720,94.601 225.212,94.690 224.493 C 94.779 223.774,94.777 222.694,94.686 222.093 C 94.595 221.492,94.522 222.080,94.524 223.400 M94.914 229.000 C 94.917 230.100,94.995 230.503,95.087 229.895 C 95.179 229.286,95.177 228.386,95.082 227.895 C 94.987 227.403,94.911 227.900,94.914 229.000 M95.293 235.200 C 95.293 235.970,95.375 236.285,95.476 235.900 C 95.576 235.515,95.576 234.885,95.476 234.500 C 95.375 234.115,95.293 234.430,95.293 235.200 M96.493 250.800 C 96.493 251.570,96.575 251.885,96.676 251.500 C 96.776 251.115,96.776 250.485,96.676 250.100 C 96.575 249.715,96.493 250.030,96.493 250.800 M98.493 268.000 C 98.493 268.770,98.575 269.085,98.676 268.700 C 98.776 268.315,98.776 267.685,98.676 267.300 C 98.575 266.915,98.493 267.230,98.493 268.000 M301.905 300.683 C 302.402 300.779,303.122 300.775,303.505 300.675 C 303.887 300.575,303.480 300.496,302.600 300.501 C 301.720 300.505,301.407 300.587,301.905 300.683 M104.493 313.600 C 104.493 314.370,104.575 314.685,104.676 314.300 C 104.776 313.915,104.776 313.285,104.676 312.900 C 104.575 312.515,104.493 312.830,104.493 313.600 M392.799 341.500 C 393.322 342.215,393.813 342.800,393.889 342.800 C 394.193 342.800,393.201 341.300,392.545 340.767 C 392.113 340.416,392.210 340.696,392.799 341.500 M363.800 383.200 L 362.600 383.505 363.676 383.553 C 364.268 383.579,364.864 383.420,365.000 383.200 C 365.136 382.980,365.192 382.821,365.124 382.847 C 365.056 382.873,364.460 383.032,363.800 383.200 M353.800 385.200 L 352.600 385.505 353.676 385.553 C 354.268 385.579,354.864 385.420,355.000 385.200 C 355.136 384.980,355.192 384.821,355.124 384.847 C 355.056 384.873,354.460 385.032,353.800 385.200 M330.800 389.200 L 329.000 389.480 330.676 389.540 C 331.598 389.573,332.464 389.420,332.600 389.200 C 332.736 388.980,332.792 388.827,332.724 388.860 C 332.656 388.893,331.790 389.046,330.800 389.200 M316.800 391.200 L 315.000 391.480 316.676 391.540 C 317.598 391.573,318.464 391.420,318.600 391.200 C 318.736 390.980,318.792 390.827,318.724 390.860 C 318.656 390.893,317.790 391.046,316.800 391.200 M298.400 393.098 C 296.970 393.177,295.673 393.368,295.518 393.521 C 295.363 393.675,296.443 393.740,297.918 393.668 C 299.393 393.595,300.771 393.370,300.980 393.168 C 301.189 392.965,301.279 392.835,301.180 392.877 C 301.081 392.919,299.830 393.019,298.400 393.098 M276.400 395.200 L 273.800 395.462 276.276 395.531 C 277.638 395.569,278.864 395.420,279.000 395.200 C 279.136 394.980,279.192 394.831,279.124 394.869 C 279.056 394.907,277.830 395.056,276.400 395.200 M242.400 397.200 L 237.800 397.440 242.276 397.520 C 244.919 397.567,246.854 397.436,247.000 397.200 C 247.136 396.980,247.192 396.836,247.124 396.880 C 247.056 396.924,244.930 397.068,242.400 397.200 M157.200 399.200 L 119.400 399.406 157.076 399.503 C 181.868 399.567,194.837 399.463,195.000 399.200 C 195.136 398.980,195.192 398.844,195.124 398.897 C 195.056 398.950,177.990 399.087,157.200 399.200 " stroke="none" fill="#585858" fill-rule="evenodd"></path><path id="path4" d="M280.100 15.087 C 280.705 15.178,281.695 15.178,282.300 15.087 C 282.905 14.995,282.410 14.920,281.200 14.920 C 279.990 14.920,279.495 14.995,280.100 15.087 M328.105 15.087 C 328.714 15.179,329.614 15.177,330.105 15.082 C 330.597 14.987,330.100 14.911,329.000 14.914 C 327.900 14.917,327.497 14.995,328.105 15.087 M261.300 17.087 C 261.905 17.178,262.895 17.178,263.500 17.087 C 264.105 16.995,263.610 16.920,262.400 16.920 C 261.190 16.920,260.695 16.995,261.300 17.087 M249.000 18.800 L 247.400 19.086 248.876 19.143 C 249.688 19.174,250.464 19.020,250.600 18.800 C 250.736 18.580,250.792 18.426,250.724 18.457 C 250.656 18.488,249.880 18.642,249.000 18.800 M350.000 18.956 C 350.000 19.042,350.617 19.185,351.372 19.273 C 352.127 19.361,352.656 19.290,352.548 19.116 C 352.355 18.803,350.000 18.655,350.000 18.956 M235.505 21.083 C 236.002 21.179,236.722 21.175,237.105 21.075 C 237.487 20.975,237.080 20.896,236.200 20.901 C 235.320 20.905,235.007 20.987,235.505 21.083 M234.905 159.087 C 235.514 159.179,236.414 159.177,236.905 159.082 C 237.397 158.987,236.900 158.911,235.800 158.914 C 234.700 158.917,234.297 158.995,234.905 159.087 M273.300 161.091 C 274.125 161.178,275.475 161.178,276.300 161.091 C 277.125 161.005,276.450 160.934,274.800 160.934 C 273.150 160.934,272.475 161.005,273.300 161.091 M287.300 163.076 C 287.685 163.176,288.315 163.176,288.700 163.076 C 289.085 162.975,288.770 162.893,288.000 162.893 C 287.230 162.893,286.915 162.975,287.300 163.076 M93.309 172.800 C 93.309 173.790,93.387 174.195,93.482 173.700 C 93.578 173.205,93.578 172.395,93.482 171.900 C 93.387 171.405,93.309 171.810,93.309 172.800 M283.541 296.901 C 283.743 297.103,284.333 297.201,284.854 297.119 C 285.655 296.993,285.598 296.937,284.487 296.752 C 283.693 296.621,283.319 296.679,283.541 296.901 M293.541 298.901 C 293.743 299.103,294.333 299.201,294.854 299.119 C 295.655 298.993,295.598 298.937,294.487 298.752 C 293.693 298.621,293.319 298.679,293.541 298.901 M398.867 356.276 C 398.830 358.518,398.935 360.437,399.100 360.540 C 399.265 360.642,399.351 359.438,399.291 357.863 C 399.094 352.718,398.936 352.124,398.867 356.276 M333.505 389.083 C 334.002 389.179,334.722 389.175,335.105 389.075 C 335.487 388.975,335.080 388.896,334.200 388.901 C 333.320 388.905,333.007 388.987,333.505 389.083 M319.505 391.083 C 320.002 391.179,320.722 391.175,321.105 391.075 C 321.487 390.975,321.080 390.896,320.200 390.901 C 319.320 390.905,319.007 390.987,319.505 391.083 M303.800 392.800 L 301.000 393.059 303.676 393.129 C 305.148 393.168,306.464 393.020,306.600 392.800 C 306.736 392.580,306.792 392.432,306.724 392.471 C 306.656 392.509,305.340 392.658,303.800 392.800 M281.800 394.800 L 279.000 395.059 281.676 395.129 C 283.148 395.168,284.464 395.020,284.600 394.800 C 284.736 394.580,284.792 394.432,284.724 394.471 C 284.656 394.509,283.340 394.658,281.800 394.800 M249.315 397.096 C 250.588 397.176,252.568 397.175,253.715 397.094 C 254.862 397.014,253.820 396.949,251.400 396.950 C 248.980 396.951,248.042 397.016,249.315 397.096 M199.322 399.099 C 201.699 399.170,205.479 399.169,207.722 399.098 C 209.965 399.027,208.020 398.969,203.400 398.969 C 198.780 398.970,196.945 399.028,199.322 399.099 " stroke="none" fill="#7c7c7c" fill-rule="evenodd"></path></g></svg>