<svg id="svg" version="1.1" xmlns="http://www.w3.org/2000/svg" xmlns:xlink="http://www.w3.org/1999/xlink" width="400" height="400" viewBox="0, 0, 400,400"><g id="svgg"><path id="path0" d="M299.207 13.913 C 296.461 13.975,294.040 14.200,293.827 14.413 C 293.614 14.626,291.811 14.796,289.820 14.792 C 285.294 14.781,270.477 15.954,269.400 16.407 C 268.960 16.593,267.070 16.850,265.200 16.980 C 260.375 17.314,254.773 18.008,253.600 18.418 C 253.050 18.611,250.170 19.055,247.200 19.406 C 244.230 19.757,241.440 20.203,241.000 20.396 C 240.560 20.589,239.120 20.857,237.800 20.991 C 234.659 21.310,231.202 21.951,230.200 22.401 C 229.760 22.598,227.600 23.120,225.400 23.561 C 220.406 24.562,212.200 26.319,212.200 26.387 C 212.200 26.415,210.670 26.866,208.800 27.389 C 206.930 27.912,203.915 28.803,202.100 29.370 C 200.285 29.936,197.315 30.864,195.500 31.431 C 193.685 31.997,191.120 32.796,189.800 33.206 C 187.352 33.966,183.546 35.450,180.504 36.830 C 179.572 37.254,178.672 37.606,178.504 37.614 C 178.337 37.621,177.480 37.975,176.600 38.400 C 175.720 38.825,174.870 39.179,174.712 39.186 C 174.553 39.194,173.440 39.650,172.237 40.200 C 171.035 40.750,169.905 41.201,169.726 41.202 C 169.328 41.205,168.891 41.442,161.600 45.593 C 155.900 48.839,155.003 49.354,151.800 51.226 C 150.343 52.078,145.584 55.509,138.200 61.032 C 127.443 69.079,115.644 83.248,109.416 95.600 C 107.919 98.570,106.562 101.180,106.400 101.400 C 104.910 103.432,99.618 119.812,98.453 126.000 C 96.408 136.862,95.575 142.205,95.179 147.000 C 94.943 149.860,94.576 153.460,94.365 155.000 C 93.031 164.730,93.172 202.906,94.617 223.000 C 94.949 227.620,95.476 235.450,95.787 240.400 C 96.099 245.350,96.620 251.470,96.946 254.000 C 97.271 256.530,98.014 262.650,98.595 267.600 C 99.177 272.550,99.918 278.670,100.242 281.200 C 102.398 298.047,105.751 321.880,106.600 326.400 C 106.909 328.050,107.361 330.840,107.603 332.600 C 107.844 334.360,108.302 337.240,108.620 339.000 C 108.938 340.760,109.914 346.520,110.788 351.800 C 112.259 360.678,112.943 364.433,115.785 379.200 C 116.356 382.170,117.168 386.490,117.590 388.800 C 118.011 391.110,118.661 394.485,119.035 396.300 L 119.714 399.600 130.433 399.600 C 136.329 399.600,141.249 399.445,141.366 399.255 C 141.483 399.066,143.519 398.789,145.889 398.641 C 150.987 398.322,156.400 397.574,156.400 397.188 C 156.400 397.037,158.065 396.692,160.100 396.421 C 162.135 396.150,164.332 395.669,164.982 395.354 C 165.632 395.038,167.185 394.515,168.433 394.191 C 169.681 393.868,171.219 393.334,171.851 393.004 C 172.483 392.675,173.360 392.403,173.800 392.401 C 174.875 392.395,184.089 387.742,184.508 386.993 C 184.690 386.667,185.037 386.400,185.277 386.400 C 186.811 386.400,196.000 377.105,196.000 375.554 C 196.000 375.309,196.335 374.454,196.745 373.654 C 198.332 370.558,198.800 369.104,198.800 367.266 C 198.800 366.218,199.025 365.135,199.300 364.860 C 199.691 364.469,199.850 354.401,200.031 318.480 C 200.243 276.193,200.381 270.400,201.171 270.400 C 201.324 270.400,201.685 269.455,201.975 268.300 C 203.043 264.034,211.154 254.000,213.534 254.000 C 213.768 254.000,214.104 253.770,214.280 253.489 C 214.456 253.207,215.410 252.627,216.400 252.200 C 217.390 251.772,218.290 251.322,218.400 251.200 C 218.510 251.078,219.410 250.628,220.400 250.200 C 221.390 249.772,222.290 249.309,222.400 249.170 C 222.510 249.031,223.590 248.594,224.800 248.198 C 226.010 247.801,227.360 247.263,227.800 247.002 C 228.240 246.740,229.410 246.280,230.400 245.980 C 231.390 245.679,232.290 245.318,232.400 245.177 C 232.510 245.037,234.760 244.600,237.400 244.207 C 240.040 243.814,242.292 243.350,242.405 243.177 C 242.517 243.003,245.307 242.570,248.605 242.215 C 251.902 241.860,254.928 241.386,255.328 241.163 C 256.202 240.677,260.246 240.499,281.979 239.989 C 291.972 239.755,298.718 239.442,298.959 239.201 C 299.180 238.980,300.658 238.800,302.245 238.800 C 305.674 238.800,314.308 237.731,315.295 237.185 C 315.677 236.973,316.500 236.800,317.123 236.800 C 318.365 236.800,321.621 235.848,323.200 235.024 C 323.750 234.737,325.145 234.265,326.300 233.975 C 327.455 233.686,328.400 233.322,328.400 233.166 C 328.400 233.011,329.975 232.124,331.900 231.196 C 337.311 228.586,340.880 224.809,342.385 220.100 C 342.684 219.165,343.079 218.400,343.264 218.400 C 343.711 218.400,343.699 211.308,343.251 211.032 C 343.059 210.913,342.580 209.158,342.186 207.130 C 341.753 204.899,341.102 202.901,340.535 202.067 C 340.021 201.309,339.600 200.443,339.600 200.144 C 339.600 199.845,339.460 199.600,339.288 199.600 C 339.116 199.600,338.627 198.700,338.200 197.600 C 337.773 196.500,337.284 195.600,337.112 195.600 C 336.940 195.600,336.800 195.395,336.800 195.144 C 336.800 194.894,335.839 193.499,334.664 192.044 C 333.490 190.590,332.274 188.913,331.962 188.317 C 331.209 186.878,323.622 179.200,322.953 179.200 C 322.664 179.200,322.235 178.840,322.000 178.400 C 321.765 177.960,321.408 177.600,321.207 177.600 C 321.007 177.600,319.653 176.700,318.200 175.600 C 316.747 174.500,315.375 173.600,315.151 173.600 C 314.927 173.600,313.959 173.060,313.000 172.400 C 312.041 171.740,311.088 171.200,310.882 171.200 C 310.676 171.200,310.072 170.857,309.540 170.439 C 309.007 170.020,307.784 169.465,306.822 169.206 C 305.860 168.947,304.696 168.497,304.236 168.207 C 303.776 167.916,302.770 167.553,302.000 167.400 C 301.230 167.247,300.240 166.897,299.800 166.624 C 299.360 166.350,297.650 165.803,296.000 165.408 C 294.350 165.014,292.820 164.567,292.600 164.415 C 291.884 163.923,289.058 163.272,286.400 162.989 C 284.970 162.836,283.620 162.580,283.400 162.421 C 282.743 161.945,276.958 161.245,271.300 160.957 C 268.385 160.809,266.000 160.533,266.000 160.344 C 266.000 160.155,261.005 159.996,254.900 159.992 C 244.024 159.984,232.518 159.215,232.027 158.462 C 231.902 158.272,231.080 157.985,230.200 157.825 C 227.453 157.326,224.467 155.364,224.188 153.875 C 223.799 151.805,225.590 148.400,227.066 148.400 C 227.356 148.400,227.818 148.040,228.093 147.600 C 228.368 147.160,228.750 146.800,228.943 146.800 C 229.135 146.800,230.151 146.170,231.200 145.400 C 232.249 144.630,233.299 144.000,233.534 144.000 C 233.768 144.000,234.104 143.775,234.280 143.500 C 234.873 142.574,252.997 133.401,256.590 132.209 C 257.685 131.845,258.765 131.403,258.990 131.226 C 259.216 131.049,260.082 130.685,260.915 130.416 C 261.748 130.148,263.458 129.407,264.715 128.769 C 265.972 128.132,267.315 127.608,267.700 127.605 C 268.085 127.602,268.401 127.465,268.401 127.300 C 268.402 127.135,269.257 126.667,270.301 126.259 C 271.346 125.851,272.920 125.194,273.800 124.797 C 277.817 122.988,279.108 122.455,280.600 121.986 C 281.480 121.710,282.290 121.374,282.400 121.239 C 282.510 121.104,283.590 120.650,284.800 120.229 C 286.010 119.809,287.360 119.254,287.800 118.996 C 288.240 118.738,289.410 118.280,290.400 117.980 C 291.390 117.679,292.290 117.318,292.400 117.176 C 292.510 117.034,293.590 116.594,294.800 116.198 C 296.010 115.801,297.360 115.257,297.800 114.989 C 298.240 114.720,299.455 114.259,300.500 113.963 C 301.545 113.667,302.400 113.308,302.400 113.165 C 302.400 113.022,303.525 112.592,304.900 112.210 C 306.275 111.827,307.580 111.381,307.800 111.220 C 308.020 111.058,309.370 110.608,310.800 110.220 C 312.230 109.831,313.580 109.376,313.800 109.208 C 314.020 109.039,315.342 108.616,316.738 108.268 C 318.135 107.919,319.485 107.474,319.738 107.279 C 319.992 107.084,321.100 106.692,322.200 106.408 C 323.300 106.124,324.582 105.657,325.049 105.370 C 325.516 105.083,327.024 104.557,328.400 104.200 C 329.776 103.843,331.284 103.317,331.751 103.030 C 332.218 102.743,333.500 102.276,334.600 101.992 C 335.700 101.708,336.780 101.346,337.000 101.186 C 337.220 101.027,338.480 100.598,339.800 100.233 C 342.407 99.512,342.553 99.455,346.417 97.667 C 347.856 97.001,349.791 96.219,350.717 95.930 C 351.643 95.642,352.400 95.298,352.400 95.167 C 352.400 95.035,353.165 94.689,354.100 94.396 C 355.035 94.104,355.980 93.666,356.200 93.424 C 356.420 93.183,357.410 92.633,358.400 92.203 C 359.390 91.774,360.290 91.314,360.400 91.182 C 360.510 91.049,361.454 90.594,362.499 90.171 C 363.543 89.747,364.398 89.265,364.399 89.100 C 364.399 88.935,364.590 88.800,364.821 88.800 C 365.350 88.800,372.122 83.254,375.672 79.914 C 378.614 77.146,382.048 71.270,382.586 68.082 C 382.742 67.157,382.998 66.400,383.155 66.400 C 384.671 66.400,384.714 54.110,383.210 50.600 C 383.021 50.160,382.677 48.975,382.445 47.967 C 382.212 46.959,381.207 44.563,380.211 42.643 C 379.215 40.723,378.400 38.975,378.400 38.759 C 378.400 38.542,376.960 36.682,375.200 34.624 C 373.440 32.566,372.000 30.684,372.000 30.441 C 372.000 30.199,371.791 30.000,371.536 30.000 C 371.281 30.000,370.119 29.280,368.954 28.400 C 367.788 27.520,366.666 26.800,366.460 26.800 C 366.254 26.800,365.982 26.530,365.855 26.200 C 365.729 25.870,365.377 25.600,365.075 25.600 C 364.772 25.600,364.198 25.240,363.800 24.800 C 363.402 24.360,362.859 24.000,362.594 24.000 C 362.329 24.000,361.052 23.487,359.756 22.859 C 353.381 19.772,352.045 19.237,350.100 18.991 C 348.945 18.845,348.000 18.598,348.000 18.443 C 348.000 18.289,346.073 17.834,343.717 17.433 C 341.362 17.032,339.157 16.557,338.817 16.378 C 338.478 16.199,334.960 15.757,331.000 15.396 C 327.040 15.036,323.440 14.575,323.000 14.373 C 322.170 13.991,307.922 13.716,299.207 13.913 " stroke="none" fill="#040404" fill-rule="evenodd"></path><path id="path1" d="M0.000 200.000 L 0.000 400.000 200.000 400.000 L 400.000 400.000 400.000 200.000 L 400.000 0.000 200.000 0.000 L 0.000 0.000 0.000 200.000 M313.170 14.000 C 321.422 14.000,333.600 14.907,334.895 15.618 C 335.277 15.828,336.151 16.000,336.837 16.000 C 338.463 16.000,345.341 17.247,345.600 17.588 C 345.710 17.733,347.498 18.152,349.572 18.519 C 351.647 18.887,353.447 19.325,353.572 19.494 C 353.908 19.945,356.733 21.200,357.414 21.200 C 357.736 21.200,358.000 21.344,358.000 21.521 C 358.000 21.698,358.900 22.166,360.000 22.561 C 361.100 22.957,362.000 23.442,362.000 23.640 C 362.000 23.838,362.338 24.000,362.751 24.000 C 363.164 24.000,363.726 24.270,364.000 24.600 C 364.274 24.930,364.727 25.200,365.006 25.200 C 365.286 25.200,365.618 25.470,365.745 25.800 C 365.871 26.130,366.240 26.400,366.565 26.400 C 366.889 26.400,367.390 26.715,367.677 27.100 C 367.965 27.485,368.650 28.036,369.200 28.323 C 370.832 29.178,376.000 34.506,376.000 35.335 C 376.000 35.460,376.630 36.173,377.400 36.921 C 378.170 37.669,378.800 38.482,378.800 38.727 C 378.800 39.201,380.055 42.063,380.411 42.400 C 380.527 42.510,380.972 43.410,381.400 44.400 C 381.828 45.390,382.293 46.290,382.433 46.400 C 382.573 46.510,383.016 48.355,383.417 50.500 C 383.818 52.645,384.294 54.400,384.473 54.400 C 384.913 54.400,384.893 62.538,384.453 63.020 C 384.262 63.229,383.784 64.799,383.391 66.510 C 382.048 72.349,375.034 83.200,372.602 83.200 C 372.456 83.200,370.775 84.513,368.868 86.119 C 365.451 88.994,364.764 89.375,350.400 96.371 C 349.630 96.746,348.235 97.295,347.300 97.590 C 346.365 97.886,345.600 98.256,345.600 98.411 C 345.600 98.567,344.475 99.008,343.100 99.390 C 341.725 99.773,340.420 100.219,340.200 100.380 C 339.980 100.542,338.630 100.992,337.200 101.380 C 335.770 101.769,334.420 102.217,334.200 102.377 C 333.980 102.538,332.720 102.993,331.400 103.389 C 330.080 103.786,328.820 104.241,328.600 104.400 C 328.380 104.559,327.120 105.014,325.800 105.411 C 324.480 105.807,323.220 106.257,323.000 106.411 C 322.780 106.564,321.520 107.006,320.200 107.391 C 318.880 107.777,317.260 108.317,316.600 108.590 C 315.940 108.864,314.500 109.321,313.400 109.606 C 312.300 109.891,311.220 110.254,311.000 110.414 C 310.780 110.573,309.520 111.005,308.200 111.374 C 306.880 111.743,305.037 112.395,304.104 112.823 C 303.172 113.250,302.177 113.600,301.893 113.600 C 301.610 113.600,301.023 113.836,300.589 114.124 C 300.155 114.412,298.990 114.900,298.000 115.207 C 297.010 115.514,295.364 116.178,294.342 116.683 C 293.320 117.187,292.235 117.600,291.931 117.600 C 291.627 117.600,291.023 117.839,290.589 118.130 C 290.155 118.422,288.765 118.979,287.501 119.367 C 286.236 119.756,285.109 120.224,284.996 120.406 C 284.883 120.589,283.848 121.046,282.695 121.422 C 281.543 121.798,280.416 122.250,280.190 122.427 C 279.965 122.604,278.885 123.041,277.790 123.400 C 276.696 123.758,274.990 124.427,274.000 124.886 C 273.010 125.345,271.300 126.131,270.200 126.632 C 269.100 127.133,267.008 128.096,265.551 128.771 C 264.094 129.447,262.609 130.000,262.251 130.000 C 261.893 130.000,261.600 130.152,261.600 130.337 C 261.600 130.522,260.835 130.898,259.900 131.171 C 257.171 131.971,238.116 141.241,234.503 143.526 C 231.884 145.183,228.245 147.703,227.791 148.175 C 227.566 148.409,227.032 148.796,226.605 149.035 C 225.282 149.775,223.349 154.000,224.332 154.000 C 224.515 154.000,224.882 154.406,225.147 154.901 C 225.594 155.737,228.367 157.200,229.504 157.200 C 229.777 157.200,230.000 157.349,230.000 157.531 C 230.000 157.981,234.205 158.711,238.712 159.043 C 240.754 159.194,242.520 159.470,242.636 159.658 C 242.752 159.846,247.562 160.003,253.324 160.006 C 264.136 160.012,279.729 160.888,280.540 161.536 C 280.793 161.738,282.890 162.123,285.200 162.392 C 287.510 162.661,289.868 163.106,290.439 163.380 C 291.010 163.654,292.855 164.202,294.539 164.599 C 296.223 164.995,297.600 165.473,297.600 165.660 C 297.600 165.847,297.899 166.000,298.265 166.000 C 299.137 166.000,303.343 167.300,303.600 167.649 C 303.710 167.798,304.880 168.229,306.200 168.607 C 307.520 168.984,308.884 169.542,309.231 169.847 C 309.579 170.151,310.074 170.400,310.331 170.400 C 310.589 170.400,311.118 170.715,311.507 171.100 C 311.896 171.485,312.974 172.160,313.903 172.600 C 314.831 173.040,315.593 173.535,315.595 173.700 C 315.598 173.865,315.846 174.000,316.148 174.000 C 316.449 174.000,317.600 174.720,318.705 175.600 C 319.810 176.480,320.824 177.200,320.957 177.200 C 321.091 177.200,321.560 177.515,322.000 177.900 C 322.440 178.285,323.160 178.915,323.600 179.300 C 324.040 179.685,324.580 180.000,324.800 180.000 C 325.020 180.000,325.200 180.158,325.200 180.350 C 325.200 180.543,326.636 182.118,328.392 183.850 C 330.147 185.583,331.587 187.231,331.592 187.513 C 331.596 187.794,331.870 188.129,332.200 188.255 C 332.530 188.382,332.800 188.666,332.800 188.886 C 332.800 189.246,335.167 192.495,336.526 194.000 C 336.824 194.330,337.761 196.040,338.607 197.800 C 339.454 199.560,340.451 201.450,340.824 202.000 C 341.197 202.550,341.635 203.810,341.796 204.800 C 341.958 205.790,342.229 206.780,342.399 207.000 C 343.706 208.698,344.036 217.880,342.859 219.810 C 342.454 220.475,341.894 221.735,341.616 222.610 C 340.870 224.957,336.498 229.248,333.232 230.839 C 331.784 231.544,330.150 232.432,329.600 232.811 C 329.050 233.190,327.970 233.636,327.200 233.801 C 326.430 233.966,325.710 234.224,325.600 234.375 C 325.490 234.526,324.320 234.982,323.000 235.388 C 321.680 235.794,320.240 236.343,319.800 236.607 C 319.360 236.871,316.930 237.319,314.400 237.602 C 311.870 237.886,309.699 238.272,309.575 238.461 C 309.257 238.946,290.771 239.986,282.324 239.994 C 278.045 239.998,275.149 240.158,275.000 240.400 C 274.850 240.642,271.997 240.800,267.781 240.800 C 261.032 240.800,250.234 241.693,248.600 242.386 C 248.160 242.573,245.550 243.038,242.800 243.419 C 240.050 243.801,237.710 244.238,237.600 244.390 C 237.490 244.542,236.050 244.885,234.400 245.153 C 232.750 245.421,231.040 245.865,230.600 246.141 C 230.160 246.416,228.990 246.889,228.000 247.190 C 227.010 247.492,225.750 247.963,225.200 248.236 C 224.650 248.510,221.715 249.957,218.678 251.454 C 212.983 254.260,205.200 260.636,205.200 262.495 C 205.200 262.861,204.975 263.304,204.700 263.480 C 204.031 263.908,202.800 266.164,202.800 266.962 C 202.800 267.313,202.656 267.600,202.480 267.600 C 202.304 267.600,201.824 268.950,201.413 270.600 C 201.002 272.250,200.516 273.600,200.333 273.600 C 200.150 273.600,199.988 293.085,199.973 316.900 C 199.945 361.540,199.741 368.224,198.320 371.000 C 197.096 373.393,195.998 375.807,195.999 376.104 C 196.000 376.271,194.920 377.740,193.600 379.368 C 192.280 380.996,191.200 382.524,191.200 382.764 C 191.200 383.004,190.995 383.200,190.745 383.200 C 190.494 383.200,188.989 384.196,187.399 385.414 C 183.979 388.034,175.333 392.502,172.324 393.205 C 171.156 393.478,169.480 394.022,168.600 394.415 C 167.720 394.807,165.830 395.363,164.400 395.651 C 162.970 395.938,161.710 396.290,161.600 396.433 C 161.490 396.575,159.240 397.014,156.600 397.407 C 153.960 397.800,151.710 398.241,151.600 398.388 C 151.193 398.929,138.701 399.603,129.108 399.602 L 119.215 399.600 119.014 398.700 C 118.904 398.205,118.548 396.270,118.223 394.400 C 117.663 391.175,117.291 389.245,115.799 381.800 C 115.447 380.040,114.817 376.620,114.400 374.200 C 113.691 370.086,113.384 368.482,111.775 360.500 C 111.432 358.795,110.810 355.150,110.394 352.400 C 109.978 349.650,109.372 345.870,109.048 344.000 C 108.061 338.302,107.177 332.851,106.377 327.522 C 105.957 324.730,105.444 321.670,105.237 320.722 C 105.029 319.775,104.660 317.200,104.416 315.000 C 104.172 312.800,103.807 310.174,103.604 309.165 C 103.402 308.156,102.950 304.916,102.599 301.965 C 102.249 299.014,101.789 295.604,101.579 294.387 C 101.028 291.199,99.308 277.759,98.407 269.600 C 97.982 265.750,97.367 260.620,97.041 258.200 C 95.732 248.493,94.621 232.394,93.201 202.600 C 92.226 182.131,93.494 150.774,95.804 138.200 C 96.168 136.220,96.901 132.285,97.433 129.455 C 97.965 126.626,98.400 123.980,98.400 123.575 C 98.400 122.861,100.336 116.432,101.404 113.600 C 101.695 112.830,102.513 110.400,103.224 108.200 C 104.944 102.873,111.641 89.846,114.887 85.513 C 115.829 84.255,117.680 81.660,119.000 79.747 C 122.882 74.122,134.587 62.788,141.047 58.400 C 141.533 58.070,143.405 56.720,145.207 55.400 C 149.967 51.914,152.887 50.000,153.444 50.000 C 153.713 50.000,153.993 49.850,154.067 49.667 C 154.140 49.484,155.801 48.449,157.759 47.367 C 159.716 46.285,162.146 44.912,163.159 44.317 C 164.171 43.721,165.630 42.911,166.400 42.517 C 167.170 42.122,167.890 41.694,168.000 41.564 C 168.110 41.434,169.010 41.041,170.000 40.691 C 172.326 39.868,176.555 38.139,178.626 37.165 C 179.521 36.744,180.387 36.400,180.552 36.400 C 180.717 36.400,181.835 35.950,183.037 35.400 C 184.240 34.850,185.318 34.400,185.434 34.400 C 185.549 34.400,186.399 34.063,187.322 33.651 C 188.245 33.239,189.990 32.675,191.200 32.398 C 192.410 32.122,193.580 31.764,193.800 31.605 C 194.020 31.445,195.460 30.989,197.000 30.591 C 198.540 30.193,199.980 29.738,200.200 29.580 C 200.420 29.422,201.205 29.163,201.944 29.005 C 202.684 28.846,204.844 28.216,206.744 27.604 C 208.645 26.992,211.010 26.370,212.000 26.223 C 212.990 26.075,214.160 25.786,214.600 25.579 C 215.363 25.221,218.568 24.517,227.400 22.767 C 229.600 22.331,231.710 21.802,232.089 21.591 C 232.467 21.380,235.257 20.904,238.289 20.533 C 241.320 20.162,243.890 19.740,244.000 19.596 C 244.110 19.452,246.900 19.012,250.200 18.619 C 253.500 18.226,256.497 17.749,256.859 17.560 C 257.222 17.370,261.092 16.925,265.459 16.570 C 269.827 16.215,273.760 15.774,274.200 15.590 C 275.358 15.107,284.833 14.452,295.100 14.146 C 300.881 13.973,304.000 13.733,304.000 13.460 C 304.000 13.200,304.183 13.223,304.480 13.520 C 304.822 13.862,307.318 14.000,313.170 14.000 " stroke="none" fill="#fbfbfb" fill-rule="evenodd"></path><path id="path2" d="M93.301 169.800 C 93.305 170.680,93.387 170.993,93.483 170.495 C 93.579 169.998,93.575 169.278,93.475 168.895 C 93.375 168.513,93.296 168.920,93.301 169.800 M92.924 185.800 C 92.926 187.120,93.001 187.612,93.090 186.893 C 93.179 186.174,93.177 185.094,93.086 184.493 C 92.995 183.892,92.922 184.480,92.924 185.800 M92.893 190.400 C 92.893 191.170,92.975 191.485,93.076 191.100 C 93.176 190.715,93.176 190.085,93.076 189.700 C 92.975 189.315,92.893 189.630,92.893 190.400 " stroke="none" fill="#8c8c8c" fill-rule="evenodd"></path><path id="path3" d="M331.165 15.326 C 331.344 15.505,332.281 15.591,333.246 15.518 L 335.000 15.385 332.919 15.193 C 331.775 15.087,330.985 15.147,331.165 15.326 M275.300 15.487 C 275.905 15.578,276.895 15.578,277.500 15.487 C 278.105 15.395,277.610 15.320,276.400 15.320 C 275.190 15.320,274.695 15.395,275.300 15.487 M343.541 17.301 C 343.743 17.503,344.333 17.601,344.854 17.519 C 345.655 17.393,345.598 17.337,344.487 17.152 C 343.693 17.021,343.319 17.079,343.541 17.301 M257.905 17.483 C 258.402 17.579,259.122 17.575,259.505 17.475 C 259.887 17.375,259.480 17.296,258.600 17.301 C 257.720 17.305,257.407 17.387,257.905 17.483 M244.705 19.483 C 245.202 19.579,245.922 19.575,246.305 19.475 C 246.687 19.375,246.280 19.296,245.400 19.301 C 244.520 19.305,244.207 19.387,244.705 19.483 M233.400 21.200 L 232.200 21.505 233.276 21.553 C 233.868 21.579,234.464 21.420,234.600 21.200 C 234.736 20.980,234.792 20.821,234.724 20.847 C 234.656 20.873,234.060 21.032,233.400 21.200 M382.400 47.376 C 382.400 47.913,382.547 48.444,382.728 48.555 C 382.908 48.667,382.977 48.227,382.882 47.579 C 382.672 46.149,382.400 46.035,382.400 47.376 M384.550 58.600 C 384.551 61.020,384.616 61.958,384.696 60.685 C 384.776 59.412,384.775 57.432,384.694 56.285 C 384.614 55.138,384.549 56.180,384.550 58.600 M132.175 65.700 L 131.000 67.000 132.300 65.825 C 133.512 64.730,133.784 64.400,133.475 64.400 C 133.406 64.400,132.821 64.985,132.175 65.700 M94.893 144.400 C 94.893 145.170,94.975 145.485,95.076 145.100 C 95.176 144.715,95.176 144.085,95.076 143.700 C 94.975 143.315,94.893 143.630,94.893 144.400 M238.400 159.427 C 239.744 159.727,242.711 159.780,242.538 159.500 C 242.436 159.335,241.328 159.221,240.076 159.246 C 238.824 159.272,238.070 159.353,238.400 159.427 M278.000 161.356 C 278.000 161.442,278.617 161.585,279.372 161.673 C 280.127 161.761,280.656 161.690,280.548 161.516 C 280.355 161.203,278.000 161.055,278.000 161.356 M93.342 165.000 C 93.341 166.980,93.408 167.840,93.492 166.912 C 93.576 165.984,93.577 164.364,93.495 163.312 C 93.412 162.260,93.343 163.020,93.342 165.000 M92.959 178.000 C 92.959 181.190,93.021 182.495,93.097 180.900 C 93.173 179.305,93.173 176.695,93.097 175.100 C 93.021 173.505,92.959 174.810,92.959 178.000 M92.937 194.600 C 92.939 196.360,93.009 197.030,93.093 196.089 C 93.178 195.149,93.177 193.709,93.091 192.889 C 93.005 192.070,92.936 192.840,92.937 194.600 M93.342 203.400 C 93.341 205.380,93.408 206.240,93.492 205.312 C 93.576 204.384,93.577 202.764,93.495 201.712 C 93.412 200.660,93.343 201.420,93.342 203.400 M93.709 213.200 C 93.709 214.190,93.787 214.595,93.882 214.100 C 93.978 213.605,93.978 212.795,93.882 212.300 C 93.787 211.805,93.709 212.210,93.709 213.200 M94.493 228.800 C 94.493 229.570,94.575 229.885,94.676 229.500 C 94.776 229.115,94.776 228.485,94.676 228.100 C 94.575 227.715,94.493 228.030,94.493 228.800 M94.909 235.200 C 94.909 236.190,94.987 236.595,95.082 236.100 C 95.178 235.605,95.178 234.795,95.082 234.300 C 94.987 233.805,94.909 234.210,94.909 235.200 M95.314 239.800 C 95.317 240.900,95.395 241.303,95.487 240.695 C 95.579 240.086,95.577 239.186,95.482 238.695 C 95.387 238.203,95.311 238.700,95.314 239.800 M307.505 238.683 C 308.002 238.779,308.722 238.775,309.105 238.675 C 309.487 238.575,309.080 238.496,308.200 238.501 C 307.320 238.505,307.007 238.587,307.505 238.683 M259.061 240.700 C 258.958 240.865,261.243 240.953,264.137 240.896 C 273.995 240.701,275.013 240.559,267.124 240.479 C 262.792 240.436,259.163 240.535,259.061 240.700 M245.052 242.716 C 244.944 242.890,245.518 242.967,246.328 242.887 C 248.542 242.669,248.805 242.467,246.924 242.432 C 246.002 242.414,245.159 242.542,245.052 242.716 M235.052 244.716 C 234.944 244.890,235.473 244.961,236.228 244.873 C 236.983 244.785,237.600 244.642,237.600 244.556 C 237.600 244.255,235.245 244.403,235.052 244.716 M185.400 386.635 L 184.200 387.666 185.500 386.806 C 186.215 386.333,186.800 385.868,186.800 385.773 C 186.800 385.473,186.631 385.578,185.400 386.635 M159.052 396.716 C 158.944 396.890,159.473 396.961,160.228 396.873 C 160.983 396.785,161.600 396.642,161.600 396.556 C 161.600 396.255,159.245 396.403,159.052 396.716 M147.900 398.689 C 148.615 398.778,149.785 398.778,150.500 398.689 C 151.215 398.601,150.630 398.528,149.200 398.528 C 147.770 398.528,147.185 398.601,147.900 398.689 " stroke="none" fill="#a6a6a6" fill-rule="evenodd"></path><path id="path4" d="M281.400 14.797 C 280.080 14.941,282.240 14.976,286.200 14.874 C 290.160 14.772,293.475 14.624,293.567 14.544 C 293.839 14.308,284.001 14.512,281.400 14.797 M324.105 14.687 C 324.714 14.779,325.614 14.777,326.105 14.682 C 326.597 14.587,326.100 14.511,325.000 14.514 C 323.900 14.517,323.497 14.595,324.105 14.687 M327.600 15.023 C 329.086 15.347,331.126 15.403,330.948 15.116 C 330.841 14.942,329.908 14.821,328.876 14.846 C 327.844 14.872,327.270 14.952,327.600 15.023 M262.600 16.800 L 260.200 17.066 262.200 17.086 C 263.300 17.097,265.370 16.975,266.800 16.814 L 269.400 16.522 267.200 16.528 C 265.990 16.532,263.920 16.654,262.600 16.800 M249.200 18.693 C 248.430 18.783,247.655 18.999,247.477 19.172 C 247.196 19.445,248.953 19.270,252.400 18.680 C 253.712 18.456,251.131 18.466,249.200 18.693 M348.200 18.586 C 349.038 18.955,352.846 19.487,352.531 19.192 C 352.349 19.021,351.210 18.775,350.000 18.646 C 348.790 18.516,347.980 18.489,348.200 18.586 M239.400 20.400 L 237.800 20.686 239.276 20.743 C 240.088 20.774,240.864 20.620,241.000 20.400 C 241.136 20.180,241.192 20.026,241.124 20.057 C 241.056 20.088,240.280 20.242,239.400 20.400 M235.505 21.083 C 236.002 21.179,236.722 21.175,237.105 21.075 C 237.487 20.975,237.080 20.896,236.200 20.901 C 235.320 20.905,235.007 20.987,235.505 21.083 M228.000 22.630 L 225.800 23.170 227.800 22.952 C 228.900 22.832,229.971 22.569,230.180 22.367 C 230.389 22.165,230.479 22.020,230.380 22.045 C 230.281 22.070,229.210 22.333,228.000 22.630 M209.400 26.819 C 208.842 27.071,209.085 27.107,210.200 26.938 C 211.080 26.804,211.875 26.628,211.967 26.547 C 212.310 26.244,210.168 26.471,209.400 26.819 M203.000 28.800 C 202.496 29.017,202.422 29.144,202.800 29.144 C 203.130 29.144,203.760 28.989,204.200 28.800 C 204.704 28.583,204.778 28.456,204.400 28.456 C 204.070 28.456,203.440 28.611,203.000 28.800 M196.600 30.800 C 196.096 31.017,196.022 31.144,196.400 31.144 C 196.730 31.144,197.360 30.989,197.800 30.800 C 198.304 30.583,198.378 30.456,198.000 30.456 C 197.670 30.456,197.040 30.611,196.600 30.800 M190.200 32.800 C 189.696 33.017,189.622 33.144,190.000 33.144 C 190.330 33.144,190.960 32.989,191.400 32.800 C 191.904 32.583,191.978 32.456,191.600 32.456 C 191.270 32.456,190.640 32.611,190.200 32.800 M170.600 40.614 C 169.595 41.098,169.563 41.153,170.400 40.951 C 170.950 40.819,171.571 40.550,171.780 40.355 C 172.298 39.871,172.014 39.933,170.600 40.614 M126.185 71.700 L 124.200 73.800 126.300 71.815 C 127.455 70.723,128.400 69.778,128.400 69.715 C 128.400 69.417,128.029 69.749,126.185 71.700 M371.138 83.843 C 368.966 85.647,368.803 85.819,369.800 85.258 C 370.786 84.703,373.463 82.400,373.123 82.400 C 372.987 82.400,372.094 83.050,371.138 83.843 M94.909 148.000 C 94.909 148.990,94.987 149.395,95.082 148.900 C 95.178 148.405,95.178 147.595,95.082 147.100 C 94.987 146.605,94.909 147.010,94.909 148.000 M225.729 149.300 C 225.284 149.795,224.776 150.470,224.601 150.800 C 224.263 151.437,224.355 151.350,225.976 149.500 C 226.506 148.895,226.849 148.400,226.739 148.400 C 226.629 148.400,226.175 148.805,225.729 149.300 M94.493 152.000 C 94.493 152.770,94.575 153.085,94.676 152.700 C 94.776 152.315,94.776 151.685,94.676 151.300 C 94.575 150.915,94.493 151.230,94.493 152.000 M233.000 158.789 C 234.216 159.109,237.873 159.322,237.567 159.055 C 237.475 158.975,236.140 158.811,234.600 158.691 C 232.902 158.559,232.272 158.598,233.000 158.789 M269.400 160.821 C 271.380 160.983,274.080 161.106,275.400 161.096 C 277.522 161.078,277.407 161.042,274.400 160.778 C 272.530 160.614,269.830 160.490,268.400 160.503 C 266.008 160.525,266.088 160.550,269.400 160.821 M283.477 162.422 C 283.655 162.591,285.060 162.824,286.600 162.939 C 289.460 163.152,289.053 162.996,285.277 162.431 C 284.109 162.257,283.299 162.253,283.477 162.422 M293.600 164.800 C 294.968 165.238,296.019 165.238,295.000 164.800 C 294.560 164.611,293.840 164.462,293.400 164.468 C 292.757 164.477,292.796 164.543,293.600 164.800 M299.776 166.578 C 300.204 166.920,300.834 167.186,301.176 167.168 C 301.715 167.141,301.718 167.107,301.200 166.914 C 300.870 166.792,300.240 166.526,299.800 166.324 C 299.013 165.962,299.012 165.966,299.776 166.578 M305.400 168.800 C 305.840 168.989,306.470 169.144,306.800 169.144 C 307.178 169.144,307.104 169.017,306.600 168.800 C 306.160 168.611,305.530 168.456,305.200 168.456 C 304.822 168.456,304.896 168.583,305.400 168.800 M309.544 170.376 C 310.064 170.829,310.679 171.200,310.911 171.200 C 311.403 171.200,311.379 171.180,309.800 170.255 L 308.600 169.553 309.544 170.376 M93.351 175.600 C 93.351 178.130,93.416 179.165,93.496 177.900 C 93.575 176.635,93.575 174.565,93.496 173.300 C 93.416 172.035,93.351 173.070,93.351 175.600 M93.328 196.000 C 93.328 197.430,93.401 198.015,93.489 197.300 C 93.578 196.585,93.578 195.415,93.489 194.700 C 93.401 193.985,93.328 194.570,93.328 196.000 M93.720 208.400 C 93.720 209.610,93.795 210.105,93.887 209.500 C 93.978 208.895,93.978 207.905,93.887 207.300 C 93.795 206.695,93.720 207.190,93.720 208.400 M94.520 224.800 C 94.520 226.010,94.595 226.505,94.687 225.900 C 94.778 225.295,94.778 224.305,94.687 223.700 C 94.595 223.095,94.520 223.590,94.520 224.800 M340.832 223.590 C 340.814 223.914,339.587 225.444,338.104 226.990 L 335.407 229.800 338.353 226.947 C 340.125 225.231,341.212 223.877,341.081 223.547 C 340.907 223.110,340.857 223.118,340.832 223.590 M94.920 230.400 C 94.920 231.610,94.995 232.105,95.087 231.500 C 95.178 230.895,95.178 229.905,95.087 229.300 C 94.995 228.695,94.920 229.190,94.920 230.400 M95.301 235.800 C 95.305 236.680,95.387 236.993,95.483 236.495 C 95.579 235.998,95.575 235.278,95.475 234.895 C 95.375 234.513,95.296 234.920,95.301 235.800 M317.400 236.694 C 316.520 236.782,315.670 236.981,315.510 237.136 C 315.351 237.292,315.981 237.351,316.910 237.269 C 317.840 237.186,318.771 236.956,318.980 236.759 C 319.189 236.562,319.279 236.430,319.180 236.467 C 319.081 236.504,318.280 236.606,317.400 236.694 M302.800 238.800 L 299.000 239.047 302.676 239.123 C 304.783 239.167,306.458 239.029,306.600 238.800 C 306.736 238.580,306.792 238.434,306.724 238.477 C 306.656 238.519,304.890 238.664,302.800 238.800 M257.400 240.694 C 256.520 240.782,255.670 240.981,255.510 241.136 C 255.351 241.292,255.981 241.351,256.910 241.269 C 257.840 241.186,258.771 240.956,258.980 240.759 C 259.189 240.562,259.279 240.430,259.180 240.467 C 259.081 240.504,258.280 240.606,257.400 240.694 M95.693 242.800 C 95.693 243.570,95.775 243.885,95.876 243.500 C 95.976 243.115,95.976 242.485,95.876 242.100 C 95.775 241.715,95.693 242.030,95.693 242.800 M243.600 242.800 L 242.200 243.095 243.476 243.147 C 244.178 243.176,244.864 243.020,245.000 242.800 C 245.136 242.580,245.192 242.424,245.124 242.453 C 245.056 242.482,244.370 242.638,243.600 242.800 M233.600 244.800 L 232.200 245.095 233.476 245.147 C 234.178 245.176,234.864 245.020,235.000 244.800 C 235.136 244.580,235.192 244.424,235.124 244.453 C 235.056 244.482,234.370 244.638,233.600 244.800 M96.893 254.800 C 96.893 255.570,96.975 255.885,97.076 255.500 C 97.176 255.115,97.176 254.485,97.076 254.100 C 96.975 253.715,96.893 254.030,96.893 254.800 M211.775 255.300 L 210.600 256.600 211.900 255.425 C 212.615 254.779,213.200 254.194,213.200 254.125 C 213.200 253.816,212.870 254.088,211.775 255.300 M198.920 367.200 C 198.920 368.410,198.995 368.905,199.087 368.300 C 199.178 367.695,199.178 366.705,199.087 366.100 C 198.995 365.495,198.920 365.990,198.920 367.200 M190.600 382.475 C 189.720 383.396,189.398 383.878,189.885 383.547 C 190.683 383.005,192.645 380.799,192.329 380.800 C 192.258 380.801,191.480 381.554,190.600 382.475 M157.600 396.800 L 156.200 397.095 157.476 397.147 C 158.178 397.176,158.864 397.020,159.000 396.800 C 159.136 396.580,159.192 396.424,159.124 396.453 C 159.056 396.482,158.370 396.638,157.600 396.800 M144.200 398.698 C 142.880 398.778,141.673 398.969,141.518 399.122 C 141.364 399.275,142.354 399.340,143.718 399.266 C 145.083 399.193,146.371 398.968,146.580 398.766 C 146.789 398.565,146.879 398.434,146.780 398.476 C 146.681 398.517,145.520 398.617,144.200 398.698 " stroke="none" fill="#7c7c7c" fill-rule="evenodd"></path></g></svg>