<svg id="svg" version="1.1" xmlns="http://www.w3.org/2000/svg" xmlns:xlink="http://www.w3.org/1999/xlink" width="400" height="400" viewBox="0, 0, 400,400"><g id="svgg"><path id="path0" d="M299.207 13.913 C 296.461 13.975,294.040 14.200,293.827 14.413 C 293.614 14.626,291.811 14.796,289.820 14.792 C 285.294 14.781,270.477 15.954,269.400 16.407 C 268.960 16.593,267.070 16.850,265.200 16.980 C 260.375 17.314,254.773 18.008,253.600 18.418 C 253.050 18.611,250.170 19.055,247.200 19.406 C 244.230 19.757,241.440 20.203,241.000 20.396 C 240.560 20.589,239.120 20.857,237.800 20.991 C 234.659 21.310,231.202 21.951,230.200 22.401 C 229.760 22.598,227.600 23.120,225.400 23.561 C 220.406 24.562,212.200 26.319,212.200 26.387 C 212.200 26.415,210.670 26.866,208.800 27.389 C 206.930 27.912,203.915 28.803,202.100 29.370 C 200.285 29.936,197.315 30.864,195.500 31.431 C 193.685 31.997,191.120 32.796,189.800 33.206 C 187.352 33.966,183.546 35.450,180.504 36.830 C 179.572 37.254,178.672 37.606,178.504 37.614 C 178.337 37.621,177.480 37.975,176.600 38.400 C 175.720 38.825,174.870 39.179,174.712 39.186 C 174.553 39.194,173.440 39.650,172.237 40.200 C 171.035 40.750,169.905 41.201,169.726 41.202 C 169.328 41.205,168.891 41.442,161.600 45.593 C 155.900 48.839,155.003 49.354,151.800 51.226 C 150.343 52.078,145.584 55.509,138.200 61.032 C 127.443 69.079,115.644 83.248,109.416 95.600 C 107.919 98.570,106.562 101.180,106.400 101.400 C 104.910 103.432,99.618 119.812,98.453 126.000 C 96.408 136.862,95.575 142.205,95.179 147.000 C 94.943 149.860,94.576 153.460,94.365 155.000 C 93.031 164.730,93.172 202.906,94.617 223.000 C 94.949 227.620,95.476 235.450,95.787 240.400 C 96.099 245.350,96.620 251.470,96.946 254.000 C 97.271 256.530,98.014 262.650,98.595 267.600 C 99.177 272.550,99.918 278.670,100.242 281.200 C 102.398 298.047,105.751 321.880,106.600 326.400 C 106.909 328.050,107.361 330.840,107.603 332.600 C 107.844 334.360,108.302 337.240,108.620 339.000 C 108.938 340.760,109.914 346.520,110.788 351.800 C 112.259 360.678,112.943 364.433,115.785 379.200 C 116.356 382.170,117.168 386.490,117.590 388.800 C 118.011 391.110,118.661 394.485,119.035 396.300 L 119.714 399.600 137.577 399.600 C 147.402 399.600,155.611 399.443,155.820 399.252 C 156.029 399.060,161.690 398.596,168.400 398.220 C 175.110 397.844,180.960 397.383,181.400 397.196 C 181.840 397.008,184.540 396.746,187.400 396.612 C 193.981 396.306,200.762 395.640,201.800 395.198 C 202.240 395.011,205.930 394.552,210.000 394.177 C 214.070 393.802,217.580 393.364,217.800 393.203 C 218.020 393.042,221.800 392.583,226.200 392.182 C 230.600 391.781,234.290 391.333,234.400 391.187 C 234.510 391.041,237.390 390.613,240.800 390.237 C 244.210 389.860,247.360 389.399,247.800 389.212 C 248.240 389.025,251.300 388.564,254.600 388.189 C 257.900 387.813,260.780 387.371,261.000 387.206 C 261.220 387.042,263.830 386.603,266.800 386.232 C 269.770 385.860,272.560 385.403,273.000 385.216 C 273.440 385.028,275.690 384.576,278.000 384.211 C 280.310 383.846,282.560 383.389,283.000 383.196 C 283.440 383.004,285.690 382.555,288.000 382.200 C 290.310 381.845,292.560 381.396,293.000 381.204 C 293.440 381.011,295.690 380.540,298.000 380.157 C 300.310 379.774,302.290 379.343,302.400 379.200 C 302.510 379.057,304.490 378.626,306.800 378.243 C 309.110 377.860,311.360 377.383,311.800 377.184 C 312.240 376.984,314.307 376.533,316.394 376.182 C 318.481 375.830,320.281 375.410,320.394 375.247 C 320.507 375.084,321.860 374.618,323.400 374.212 C 324.940 373.805,326.290 373.355,326.400 373.212 C 326.510 373.068,327.860 372.618,329.400 372.212 C 330.940 371.805,332.290 371.348,332.400 371.197 C 332.510 371.046,333.905 370.605,335.500 370.218 C 337.095 369.831,338.400 369.382,338.400 369.220 C 338.400 369.059,339.489 368.597,340.819 368.194 C 342.150 367.791,343.320 367.330,343.420 367.168 C 343.520 367.006,344.636 366.554,345.901 366.162 C 347.165 365.770,348.290 365.330,348.400 365.184 C 348.510 365.038,349.590 364.598,350.800 364.206 C 352.010 363.815,353.249 363.293,353.553 363.047 C 354.083 362.619,355.278 361.953,358.658 360.200 C 359.506 359.760,360.259 359.267,360.332 359.105 C 360.404 358.942,361.214 358.441,362.132 357.992 C 365.698 356.244,367.169 355.338,369.104 353.700 C 370.208 352.765,371.245 352.000,371.410 352.000 C 371.574 352.000,372.110 351.595,372.602 351.100 C 373.093 350.605,374.247 349.664,375.167 349.008 C 378.019 346.976,387.236 337.395,388.418 335.234 C 389.028 334.117,390.084 332.447,390.764 331.523 C 391.444 330.599,392.000 329.670,392.000 329.459 C 392.000 329.248,392.442 328.497,392.981 327.789 C 393.521 327.081,394.180 325.624,394.446 324.551 C 394.712 323.478,395.052 322.510,395.201 322.400 C 395.350 322.290,395.805 320.940,396.212 319.400 C 396.618 317.860,397.119 316.486,397.324 316.346 C 397.529 316.207,397.951 313.327,398.262 309.946 C 398.572 306.566,399.000 303.487,399.213 303.105 C 399.677 302.272,399.739 289.600,399.279 289.600 C 399.102 289.600,398.617 286.900,398.200 283.600 C 397.783 280.300,397.328 277.600,397.188 277.600 C 397.048 277.600,396.598 276.250,396.187 274.600 C 395.776 272.950,395.323 271.600,395.180 271.600 C 395.037 271.600,394.602 270.250,394.213 268.600 C 393.824 266.950,393.387 265.600,393.241 265.600 C 393.095 265.600,392.627 264.700,392.200 263.600 C 391.773 262.500,391.323 261.600,391.200 261.600 C 391.077 261.600,390.627 260.700,390.200 259.600 C 389.773 258.500,389.284 257.600,389.112 257.600 C 388.940 257.600,388.800 257.399,388.800 257.154 C 388.800 256.908,388.170 255.849,387.400 254.800 C 386.630 253.751,386.000 252.701,386.000 252.466 C 386.000 252.232,385.775 251.896,385.499 251.720 C 385.224 251.544,384.729 250.869,384.399 250.220 C 383.128 247.716,372.301 237.252,369.358 235.683 C 368.896 235.436,367.726 234.573,366.758 233.764 C 365.791 232.955,364.550 232.097,364.000 231.856 C 363.450 231.615,362.064 230.829,360.919 230.109 C 359.775 229.389,358.665 228.800,358.453 228.800 C 358.240 228.800,358.007 228.665,357.933 228.500 C 357.740 228.065,355.235 226.800,354.568 226.800 C 354.255 226.800,354.000 226.660,354.000 226.488 C 354.000 226.316,353.100 225.827,352.000 225.400 C 350.900 224.973,350.000 224.484,350.000 224.312 C 350.000 224.140,349.685 223.999,349.300 223.998 C 348.915 223.997,347.415 223.388,345.966 222.644 C 344.518 221.901,342.538 221.161,341.566 221.001 C 340.595 220.841,339.620 220.567,339.400 220.393 C 339.180 220.219,337.470 219.754,335.600 219.360 C 333.730 218.966,332.098 218.497,331.973 218.317 C 331.849 218.137,329.599 217.714,326.973 217.376 C 324.348 217.038,321.843 216.563,321.406 216.319 C 320.184 215.637,309.615 215.310,307.107 215.876 C 305.948 216.138,303.920 216.604,302.600 216.910 C 296.244 218.387,289.430 223.858,285.868 230.344 C 281.234 238.782,280.149 244.266,279.403 263.000 C 278.918 275.192,276.699 284.281,273.141 288.650 C 270.082 292.407,269.689 292.771,267.951 293.455 C 266.988 293.835,266.106 294.281,265.992 294.447 C 264.766 296.229,248.000 296.166,248.000 294.380 C 248.000 294.220,247.338 293.965,246.529 293.813 C 245.719 293.661,244.324 293.203,243.429 292.796 C 242.533 292.388,240.990 291.780,240.000 291.445 C 239.010 291.109,237.030 290.206,235.600 289.438 C 234.170 288.670,232.370 287.717,231.600 287.321 C 230.830 286.924,230.141 286.467,230.068 286.305 C 229.996 286.142,229.186 285.641,228.268 285.191 C 225.728 283.944,224.359 283.141,221.978 281.497 C 220.780 280.671,218.630 279.187,217.200 278.200 C 215.770 277.213,214.063 276.108,213.408 275.745 C 210.164 273.947,191.315 255.631,190.001 253.000 C 189.671 252.340,189.176 251.656,188.901 251.480 C 188.625 251.304,188.400 250.968,188.400 250.734 C 188.400 250.499,187.770 249.449,187.000 248.400 C 186.230 247.351,185.600 246.292,185.600 246.046 C 185.600 245.801,185.442 245.600,185.250 245.600 C 184.808 245.600,179.600 235.143,179.600 234.256 C 179.600 233.895,179.447 233.600,179.260 233.600 C 179.073 233.600,178.595 232.223,178.199 230.539 C 177.802 228.855,177.238 226.998,176.945 226.411 C 176.653 225.824,176.219 223.466,175.982 221.172 C 175.744 218.877,175.381 216.687,175.175 216.305 C 174.659 215.349,174.682 200.400,175.200 200.400 C 175.420 200.400,175.600 199.927,175.600 199.350 C 175.600 197.898,176.777 190.779,177.178 189.800 C 177.359 189.360,177.821 187.560,178.207 185.800 C 178.592 184.040,179.030 182.510,179.181 182.400 C 179.332 182.290,179.758 180.955,180.129 179.433 C 180.892 176.295,181.563 174.638,183.698 170.619 C 184.521 169.069,185.579 166.990,186.049 166.000 C 186.518 165.010,187.689 163.088,188.651 161.728 C 189.613 160.369,190.400 159.140,190.400 158.998 C 190.400 158.856,191.184 157.718,192.142 156.470 C 193.100 155.221,194.167 153.660,194.515 153.000 C 195.253 151.595,207.640 139.277,209.400 138.197 C 210.060 137.792,211.770 136.522,213.200 135.375 C 216.236 132.939,221.478 129.319,223.943 127.955 C 224.892 127.430,226.222 126.693,226.899 126.319 C 227.576 125.944,228.236 125.494,228.365 125.319 C 228.923 124.564,246.737 115.615,247.700 115.606 C 248.085 115.603,248.400 115.444,248.400 115.253 C 248.400 115.062,249.516 114.592,250.880 114.210 C 252.244 113.827,253.729 113.283,254.180 113.002 C 254.631 112.720,255.946 112.272,257.101 112.005 C 258.257 111.738,259.295 111.370,259.409 111.186 C 259.522 111.003,260.646 110.561,261.907 110.204 C 263.168 109.847,264.740 109.310,265.400 109.011 C 266.060 108.711,267.320 108.340,268.200 108.186 C 269.080 108.031,270.340 107.674,271.000 107.391 C 271.660 107.109,273.640 106.561,275.400 106.174 C 277.160 105.788,278.780 105.338,279.000 105.174 C 279.220 105.010,280.930 104.554,282.800 104.160 C 284.670 103.766,286.290 103.321,286.400 103.171 C 286.510 103.021,288.484 102.584,290.786 102.199 C 293.088 101.814,295.248 101.352,295.586 101.173 C 295.924 100.993,298.000 100.555,300.200 100.199 C 302.400 99.843,304.560 99.400,305.000 99.215 C 305.440 99.030,307.240 98.580,309.000 98.214 C 310.760 97.848,312.490 97.395,312.844 97.206 C 313.198 97.018,315.088 96.552,317.044 96.172 C 319.000 95.793,320.780 95.347,321.000 95.183 C 321.220 95.018,322.930 94.575,324.800 94.197 C 326.670 93.819,328.290 93.378,328.400 93.216 C 328.510 93.054,329.950 92.600,331.600 92.206 C 333.250 91.813,334.785 91.347,335.011 91.170 C 335.237 90.994,336.720 90.555,338.306 90.194 C 339.893 89.833,341.294 89.372,341.419 89.169 C 341.545 88.966,341.990 88.800,342.410 88.800 C 343.133 88.800,343.707 88.583,348.000 86.681 C 348.990 86.242,350.520 85.576,351.400 85.200 C 352.280 84.824,353.810 84.130,354.800 83.657 C 355.790 83.185,356.709 82.798,356.843 82.799 C 356.976 82.800,358.686 81.870,360.643 80.733 C 362.599 79.597,364.893 78.324,365.739 77.905 C 366.586 77.486,369.048 75.536,371.210 73.572 C 373.372 71.607,375.334 70.000,375.570 70.000 C 375.807 70.000,376.000 69.802,376.000 69.560 C 376.000 69.319,377.080 67.688,378.400 65.936 C 379.720 64.184,380.800 62.432,380.800 62.042 C 380.800 61.652,380.935 61.201,381.100 61.038 C 382.513 59.650,382.686 46.552,381.304 45.651 C 381.092 45.513,380.595 44.410,380.201 43.200 C 379.807 41.990,379.241 40.645,378.942 40.211 C 378.644 39.777,378.400 39.184,378.400 38.894 C 378.400 38.603,376.960 36.682,375.200 34.624 C 373.440 32.566,372.000 30.684,372.000 30.441 C 372.000 30.199,371.791 30.000,371.536 30.000 C 371.281 30.000,370.119 29.280,368.954 28.400 C 367.788 27.520,366.666 26.800,366.460 26.800 C 366.254 26.800,365.982 26.530,365.855 26.200 C 365.729 25.870,365.377 25.600,365.075 25.600 C 364.772 25.600,364.198 25.240,363.800 24.800 C 363.402 24.360,362.859 24.000,362.594 24.000 C 362.329 24.000,361.052 23.487,359.756 22.859 C 353.381 19.772,352.045 19.237,350.100 18.991 C 348.945 18.845,348.000 18.598,348.000 18.443 C 348.000 18.289,346.073 17.834,343.717 17.433 C 341.362 17.032,339.157 16.557,338.817 16.378 C 338.478 16.199,334.960 15.757,331.000 15.396 C 327.040 15.036,323.440 14.575,323.000 14.373 C 322.170 13.991,307.922 13.716,299.207 13.913 " stroke="none" fill="#040404" fill-rule="evenodd"></path><path id="path1" d="M0.000 200.000 L 0.000 400.000 200.000 400.000 L 400.000 400.000 400.000 200.000 L 400.000 0.000 200.000 0.000 L 0.000 0.000 0.000 200.000 M313.170 14.000 C 321.422 14.000,333.600 14.907,334.895 15.618 C 335.277 15.828,336.163 16.000,336.863 16.000 C 338.488 16.000,344.872 17.182,345.400 17.581 C 345.620 17.747,347.240 18.121,349.000 18.413 C 350.760 18.705,353.225 19.452,354.478 20.072 C 355.730 20.692,357.035 21.200,357.378 21.200 C 357.720 21.200,358.000 21.344,358.000 21.521 C 358.000 21.698,358.900 22.166,360.000 22.561 C 361.100 22.957,362.000 23.442,362.000 23.640 C 362.000 23.838,362.289 24.000,362.642 24.000 C 362.996 24.000,363.967 24.540,364.800 25.200 C 365.633 25.860,366.504 26.400,366.735 26.400 C 366.966 26.400,367.390 26.715,367.677 27.100 C 367.965 27.485,368.650 28.036,369.200 28.323 C 370.832 29.178,376.000 34.506,376.000 35.335 C 376.000 35.460,376.595 36.155,377.322 36.881 C 378.050 37.606,378.891 39.010,379.192 40.000 C 379.493 40.990,379.972 42.250,380.257 42.800 C 381.415 45.036,382.000 46.988,382.000 48.616 C 382.000 49.560,382.177 50.393,382.394 50.467 C 382.935 50.650,383.042 56.223,382.517 56.874 C 382.284 57.163,381.862 58.715,381.578 60.322 C 381.215 62.384,380.848 63.360,380.332 63.636 C 379.929 63.852,379.600 64.228,379.600 64.472 C 379.600 66.061,369.732 76.013,366.384 77.800 C 365.559 78.240,364.191 78.960,363.342 79.400 C 362.494 79.840,361.741 80.333,361.668 80.495 C 361.596 80.658,360.786 81.148,359.868 81.585 C 358.951 82.022,357.930 82.536,357.600 82.727 C 356.755 83.216,353.728 84.564,351.600 85.400 C 349.936 86.053,349.012 86.454,344.600 88.435 C 343.720 88.830,342.102 89.357,341.005 89.606 C 339.908 89.855,338.828 90.195,338.605 90.360 C 338.382 90.526,336.760 91.003,335.000 91.420 C 333.240 91.838,331.710 92.291,331.600 92.426 C 331.490 92.561,330.140 92.986,328.600 93.370 C 327.060 93.754,325.510 94.219,325.156 94.402 C 324.802 94.586,322.912 95.048,320.956 95.428 C 319.000 95.807,317.220 96.255,317.000 96.421 C 316.780 96.588,314.980 97.038,313.000 97.421 C 311.020 97.805,309.195 98.277,308.944 98.471 C 308.693 98.666,306.893 99.094,304.944 99.423 C 302.995 99.753,301.040 100.183,300.600 100.381 C 300.160 100.579,298.000 101.035,295.800 101.394 C 293.600 101.754,291.440 102.203,291.000 102.391 C 290.560 102.579,288.580 103.047,286.600 103.431 C 284.620 103.815,282.804 104.278,282.564 104.460 C 282.325 104.642,280.705 105.084,278.964 105.443 C 277.224 105.801,275.710 106.218,275.600 106.369 C 275.490 106.520,273.870 106.966,272.000 107.360 C 270.130 107.754,268.420 108.211,268.200 108.376 C 267.980 108.540,266.630 108.992,265.200 109.380 C 263.770 109.769,262.420 110.217,262.200 110.377 C 261.980 110.538,260.720 110.993,259.400 111.389 C 258.080 111.786,256.820 112.241,256.600 112.402 C 256.380 112.563,255.210 113.004,254.000 113.383 C 252.790 113.761,251.037 114.415,250.104 114.836 C 249.172 115.256,248.272 115.598,248.104 115.596 C 247.596 115.590,231.182 123.953,228.400 125.636 C 226.970 126.501,225.350 127.428,224.800 127.696 C 224.250 127.964,223.656 128.412,223.480 128.692 C 223.304 128.971,222.931 129.200,222.651 129.200 C 222.372 129.200,221.435 129.735,220.571 130.389 C 219.707 131.043,218.781 131.583,218.514 131.589 C 218.247 131.595,217.835 131.960,217.600 132.400 C 217.365 132.840,216.989 133.200,216.765 133.200 C 216.541 133.200,215.117 134.190,213.600 135.400 C 212.083 136.610,210.659 137.600,210.435 137.600 C 210.211 137.600,209.835 137.960,209.600 138.400 C 209.365 138.840,208.951 139.200,208.681 139.200 C 208.030 139.200,195.200 152.064,195.200 152.717 C 195.200 152.996,194.930 153.329,194.600 153.455 C 194.270 153.582,193.998 153.891,193.996 154.143 C 193.993 154.394,193.275 155.500,192.400 156.600 C 191.525 157.700,190.807 158.825,190.804 159.100 C 190.802 159.375,190.614 159.600,190.387 159.600 C 190.161 159.600,189.861 159.915,189.722 160.300 C 189.583 160.685,189.094 161.536,188.635 162.192 C 188.176 162.848,187.338 164.288,186.773 165.392 C 185.537 167.807,184.675 169.329,184.389 169.600 C 184.273 169.710,183.828 170.610,183.400 171.600 C 182.972 172.590,182.500 173.490,182.351 173.600 C 182.202 173.710,181.770 174.880,181.391 176.200 C 181.013 177.520,180.580 178.780,180.429 179.000 C 180.279 179.220,179.820 180.795,179.411 182.500 C 179.001 184.205,178.541 185.600,178.387 185.600 C 178.234 185.600,177.788 187.625,177.398 190.100 C 177.007 192.575,176.553 194.780,176.389 195.000 C 174.909 196.988,174.901 221.295,176.380 223.400 C 176.534 223.620,177.003 225.240,177.420 227.000 C 177.838 228.760,178.285 230.290,178.414 230.400 C 178.544 230.510,178.973 231.815,179.369 233.300 C 179.765 234.785,180.231 236.000,180.404 236.000 C 180.578 236.000,181.043 236.900,181.439 238.000 C 181.834 239.100,182.278 240.000,182.425 240.000 C 182.571 240.000,183.016 240.850,183.413 241.888 C 183.809 242.927,184.286 243.962,184.472 244.188 C 184.658 244.415,185.524 245.680,186.396 247.000 C 187.268 248.320,188.164 249.670,188.386 250.000 C 188.608 250.330,189.542 251.733,190.461 253.118 C 192.905 256.802,211.378 274.800,212.716 274.800 C 212.935 274.800,213.218 275.070,213.345 275.400 C 213.471 275.730,213.781 276.000,214.034 276.000 C 214.286 276.000,215.351 276.630,216.400 277.400 C 217.449 278.170,218.489 278.800,218.711 278.800 C 218.933 278.800,219.218 279.070,219.345 279.400 C 219.471 279.730,219.781 280.000,220.034 280.000 C 220.286 280.000,221.351 280.630,222.400 281.400 C 223.449 282.170,224.495 282.800,224.725 282.800 C 224.955 282.800,225.392 283.049,225.697 283.354 C 226.001 283.658,227.034 284.333,227.992 284.854 C 228.950 285.374,230.558 286.268,231.567 286.840 C 236.006 289.358,240.796 291.613,243.400 292.411 C 244.280 292.680,245.720 293.220,246.600 293.610 C 247.480 293.999,249.600 294.542,251.311 294.816 C 253.023 295.090,254.518 295.468,254.635 295.657 C 254.933 296.138,259.899 296.087,260.200 295.600 C 260.336 295.380,261.174 295.200,262.061 295.200 C 265.047 295.200,269.497 292.644,272.114 289.425 C 276.514 284.013,278.011 277.983,279.023 261.600 C 280.205 242.464,280.777 239.526,284.924 231.296 C 286.761 227.651,292.341 220.800,293.473 220.800 C 293.593 220.800,295.245 219.927,297.145 218.859 C 299.563 217.501,301.441 216.764,303.400 216.406 C 304.940 216.124,306.548 215.714,306.973 215.494 C 307.893 215.017,318.378 215.088,318.982 215.575 C 319.212 215.760,321.830 216.226,324.800 216.609 C 327.770 216.993,330.393 217.459,330.630 217.644 C 330.866 217.830,332.383 218.260,334.000 218.600 C 335.617 218.940,337.134 219.369,337.370 219.552 C 337.607 219.735,338.970 220.098,340.400 220.357 C 341.830 220.617,344.530 221.562,346.400 222.457 C 348.270 223.352,350.970 224.624,352.400 225.284 C 355.180 226.567,355.519 226.741,358.600 228.474 C 359.700 229.093,361.365 229.979,362.300 230.444 C 363.235 230.908,364.000 231.448,364.000 231.644 C 364.000 231.840,364.264 232.000,364.586 232.000 C 364.908 232.000,365.787 232.540,366.539 233.200 C 367.291 233.860,368.101 234.400,368.339 234.400 C 368.577 234.400,368.965 234.760,369.200 235.200 C 369.435 235.640,369.879 236.000,370.185 236.000 C 370.491 236.000,371.096 236.450,371.529 237.000 C 371.961 237.550,372.518 238.000,372.767 238.000 C 373.427 238.000,382.942 247.363,383.621 248.681 C 383.939 249.296,384.424 249.944,384.699 250.120 C 384.975 250.296,385.200 250.632,385.200 250.866 C 385.200 251.101,385.830 252.151,386.600 253.200 C 387.370 254.249,388.000 255.308,388.000 255.554 C 388.000 255.799,388.158 256.000,388.350 256.000 C 388.852 256.000,394.000 266.519,394.000 267.544 C 394.000 268.015,394.144 268.400,394.320 268.400 C 394.496 268.400,394.976 269.750,395.387 271.400 C 395.798 273.050,396.255 274.400,396.403 274.400 C 396.712 274.400,397.451 277.655,397.811 280.600 C 397.945 281.700,398.212 282.960,398.404 283.400 C 399.920 286.871,399.874 309.311,398.348 310.980 C 398.156 311.189,398.000 312.163,398.000 313.145 C 398.000 314.827,396.910 319.164,396.378 319.600 C 396.243 319.710,395.799 321.105,395.390 322.700 C 394.980 324.295,394.500 325.600,394.323 325.600 C 394.145 325.600,393.995 325.915,393.989 326.300 C 393.983 326.685,393.443 327.707,392.789 328.571 C 392.135 329.435,391.600 330.318,391.600 330.533 C 391.600 330.749,391.150 331.514,390.600 332.235 C 390.051 332.956,389.425 334.008,389.210 334.573 C 388.996 335.138,388.635 335.600,388.410 335.600 C 388.184 335.600,388.000 335.893,388.000 336.250 C 388.000 337.328,375.334 350.000,374.257 350.000 C 374.131 350.000,373.617 350.372,373.114 350.827 C 370.832 352.891,366.646 356.000,366.149 356.000 C 365.847 356.000,365.600 356.180,365.600 356.400 C 365.600 356.620,365.416 356.800,365.192 356.800 C 364.968 356.800,364.039 357.270,363.129 357.845 C 362.219 358.419,360.691 359.315,359.733 359.837 C 358.775 360.358,357.228 361.204,356.296 361.716 C 353.353 363.334,353.050 363.488,350.725 364.556 C 349.474 365.130,348.209 365.600,347.914 365.600 C 347.619 365.600,347.023 365.836,346.589 366.124 C 346.155 366.412,344.990 366.900,344.000 367.207 C 343.010 367.514,341.340 368.191,340.288 368.710 C 339.236 369.229,337.751 369.756,336.988 369.879 C 336.225 370.003,335.600 370.231,335.600 370.385 C 335.600 370.540,334.250 371.002,332.600 371.413 C 330.950 371.824,329.600 372.274,329.600 372.413 C 329.600 372.552,328.250 373.002,326.600 373.413 C 324.950 373.824,323.600 374.274,323.600 374.413 C 323.600 374.552,322.205 374.989,320.500 375.384 C 318.795 375.779,317.040 376.248,316.600 376.427 C 316.160 376.605,314.000 377.043,311.800 377.399 C 309.600 377.755,307.489 378.215,307.109 378.421 C 306.729 378.627,304.663 379.078,302.519 379.423 C 300.375 379.768,298.437 380.194,298.211 380.369 C 297.985 380.544,295.730 381.008,293.200 381.400 C 290.670 381.792,288.420 382.242,288.200 382.400 C 287.980 382.558,285.730 383.008,283.200 383.400 C 280.670 383.792,278.414 384.257,278.186 384.434 C 277.958 384.611,275.528 385.047,272.786 385.403 C 270.044 385.759,267.440 386.211,267.000 386.406 C 266.560 386.601,263.860 387.050,261.000 387.404 C 258.140 387.758,255.440 388.206,255.000 388.400 C 254.560 388.594,251.410 389.047,248.000 389.407 C 244.590 389.767,241.440 390.213,241.000 390.398 C 240.155 390.753,235.015 391.411,230.000 391.807 C 228.350 391.938,226.640 392.201,226.200 392.391 C 225.760 392.582,222.160 393.032,218.200 393.391 C 214.240 393.749,210.640 394.199,210.200 394.391 C 209.760 394.582,206.160 395.042,202.200 395.413 C 198.240 395.783,194.820 396.220,194.600 396.383 C 194.380 396.547,188.620 396.991,181.800 397.371 C 174.980 397.751,169.040 398.211,168.600 398.394 C 166.989 399.063,152.181 399.612,135.908 399.606 L 119.215 399.600 119.014 398.700 C 118.903 398.205,118.528 396.099,118.180 394.019 C 117.832 391.940,117.473 390.118,117.382 389.970 C 117.290 389.823,116.858 387.564,116.422 384.951 C 115.985 382.338,115.360 378.850,115.033 377.200 C 114.707 375.550,114.135 372.670,113.764 370.800 C 112.883 366.366,111.819 360.554,110.998 355.695 C 110.637 353.553,110.076 350.270,109.752 348.400 C 109.428 346.530,108.820 342.750,108.400 340.000 C 107.980 337.250,107.372 333.470,107.048 331.600 C 105.650 323.534,105.138 320.255,104.393 314.612 C 103.959 311.318,103.431 307.628,103.221 306.412 C 103.010 305.195,102.553 301.770,102.205 298.800 C 101.857 295.830,101.487 293.118,101.383 292.774 C 101.111 291.875,99.336 277.880,98.394 269.200 C 97.952 265.130,97.420 260.810,97.212 259.600 C 96.653 256.359,94.899 235.794,94.414 226.800 C 92.340 188.327,92.329 174.004,94.360 151.200 C 95.090 142.993,95.536 139.907,97.976 126.166 C 98.408 123.728,99.495 119.498,100.390 116.766 C 101.285 114.035,102.568 110.127,103.241 108.081 C 104.911 103.005,111.671 89.859,114.719 85.761 C 115.753 84.369,117.680 81.668,119.000 79.759 C 122.884 74.140,134.634 62.756,141.047 58.400 C 141.533 58.070,143.405 56.720,145.207 55.400 C 149.967 51.914,152.887 50.000,153.444 50.000 C 153.713 50.000,153.993 49.850,154.067 49.667 C 154.140 49.484,155.801 48.449,157.759 47.367 C 159.716 46.285,162.146 44.912,163.159 44.317 C 164.171 43.721,165.630 42.911,166.400 42.517 C 167.170 42.122,167.890 41.694,168.000 41.564 C 168.110 41.434,169.010 41.041,170.000 40.691 C 172.326 39.868,176.555 38.139,178.626 37.165 C 179.521 36.744,180.387 36.400,180.552 36.400 C 180.717 36.400,181.835 35.950,183.037 35.400 C 184.240 34.850,185.326 34.400,185.451 34.400 C 185.577 34.400,186.246 34.140,186.940 33.822 C 187.633 33.504,189.280 32.953,190.600 32.597 C 191.920 32.242,193.360 31.786,193.800 31.585 C 194.240 31.383,195.860 30.863,197.400 30.427 C 198.940 29.992,201.730 29.154,203.600 28.566 C 208.985 26.870,212.115 26.048,213.276 26.023 C 213.868 26.010,214.451 25.842,214.570 25.648 C 214.690 25.455,216.545 24.997,218.694 24.631 C 220.842 24.265,222.874 23.817,223.209 23.636 C 223.544 23.455,225.614 22.989,227.809 22.600 C 230.004 22.211,231.989 21.745,232.220 21.564 C 232.452 21.382,235.062 20.943,238.020 20.587 C 240.979 20.231,243.760 19.782,244.200 19.589 C 244.640 19.395,247.430 18.952,250.400 18.603 C 253.370 18.254,256.210 17.797,256.712 17.587 C 257.214 17.378,261.174 16.918,265.512 16.565 C 269.850 16.213,273.760 15.774,274.200 15.590 C 275.358 15.107,284.833 14.452,295.100 14.146 C 300.881 13.973,304.000 13.733,304.000 13.460 C 304.000 13.200,304.183 13.223,304.480 13.520 C 304.822 13.862,307.318 14.000,313.170 14.000 " stroke="none" fill="#fbfbfb" fill-rule="evenodd"></path><path id="path2" d="M331.165 15.326 C 331.344 15.505,332.281 15.591,333.246 15.518 L 335.000 15.385 332.919 15.193 C 331.775 15.087,330.985 15.147,331.165 15.326 M275.300 15.487 C 275.905 15.578,276.895 15.578,277.500 15.487 C 278.105 15.395,277.610 15.320,276.400 15.320 C 275.190 15.320,274.695 15.395,275.300 15.487 M257.905 17.483 C 258.402 17.579,259.122 17.575,259.505 17.475 C 259.887 17.375,259.480 17.296,258.600 17.301 C 257.720 17.305,257.407 17.387,257.905 17.483 M244.900 19.476 C 245.285 19.576,245.915 19.576,246.300 19.476 C 246.685 19.375,246.370 19.293,245.600 19.293 C 244.830 19.293,244.515 19.375,244.900 19.476 M233.400 21.200 L 232.200 21.505 233.276 21.553 C 233.868 21.579,234.464 21.420,234.600 21.200 C 234.736 20.980,234.792 20.821,234.724 20.847 C 234.656 20.873,234.060 21.032,233.400 21.200 M224.600 23.200 L 223.400 23.505 224.476 23.553 C 225.068 23.579,225.664 23.420,225.800 23.200 C 225.936 22.980,225.992 22.821,225.924 22.847 C 225.856 22.873,225.260 23.032,224.600 23.200 M215.600 25.200 C 214.776 25.464,214.741 25.526,215.400 25.554 C 215.840 25.573,216.470 25.413,216.800 25.200 C 217.501 24.747,217.014 24.747,215.600 25.200 M382.525 53.600 C 382.530 55.470,382.650 56.550,382.792 56.000 C 382.934 55.450,382.930 53.920,382.783 52.600 C 382.528 50.307,382.516 50.352,382.525 53.600 M131.385 66.500 L 129.400 68.600 131.500 66.615 C 132.655 65.523,133.600 64.578,133.600 64.515 C 133.600 64.217,133.229 64.549,131.385 66.500 M299.200 100.400 L 297.800 100.695 299.076 100.747 C 299.778 100.776,300.464 100.620,300.600 100.400 C 300.736 100.180,300.792 100.024,300.724 100.053 C 300.656 100.082,299.970 100.238,299.200 100.400 M273.445 106.728 C 273.333 106.908,273.773 106.977,274.421 106.882 C 275.070 106.787,275.600 106.640,275.600 106.555 C 275.600 106.250,273.643 106.407,273.445 106.728 M94.893 144.800 C 94.893 145.570,94.975 145.885,95.076 145.500 C 95.176 145.115,95.176 144.485,95.076 144.100 C 94.975 143.715,94.893 144.030,94.893 144.800 M93.346 165.800 C 93.347 168.000,93.414 168.849,93.495 167.687 C 93.576 166.524,93.576 164.724,93.493 163.687 C 93.411 162.649,93.345 163.600,93.346 165.800 M92.961 179.200 C 92.961 182.610,93.022 184.005,93.097 182.300 C 93.172 180.595,93.172 177.805,93.097 176.100 C 93.022 174.395,92.961 175.790,92.961 179.200 M92.940 194.000 C 92.940 195.870,93.009 196.635,93.093 195.700 C 93.177 194.765,93.177 193.235,93.093 192.300 C 93.009 191.365,92.940 192.130,92.940 194.000 M93.337 202.600 C 93.339 204.360,93.409 205.030,93.493 204.089 C 93.578 203.149,93.577 201.709,93.491 200.889 C 93.405 200.070,93.336 200.840,93.337 202.600 M93.714 213.000 C 93.717 214.100,93.795 214.503,93.887 213.895 C 93.979 213.286,93.977 212.386,93.882 211.895 C 93.787 211.403,93.711 211.900,93.714 213.000 M307.917 215.234 C 307.413 215.363,309.700 215.473,313.000 215.478 C 319.353 215.488,319.207 215.300,312.717 215.112 C 310.582 215.050,308.422 215.105,307.917 215.234 M327.431 217.250 C 327.521 217.396,328.301 217.583,329.164 217.665 C 330.027 217.747,330.659 217.695,330.569 217.550 C 330.479 217.404,329.699 217.217,328.836 217.135 C 327.973 217.053,327.341 217.105,327.431 217.250 M94.501 228.600 C 94.505 229.480,94.587 229.793,94.683 229.295 C 94.779 228.798,94.775 228.078,94.675 227.695 C 94.575 227.313,94.496 227.720,94.501 228.600 M94.914 235.000 C 94.917 236.100,94.995 236.503,95.087 235.895 C 95.179 235.286,95.177 234.386,95.082 233.895 C 94.987 233.403,94.911 233.900,94.914 235.000 M95.314 239.400 C 95.317 240.500,95.395 240.903,95.487 240.295 C 95.579 239.686,95.577 238.786,95.482 238.295 C 95.387 237.803,95.311 238.300,95.314 239.400 M279.324 256.600 C 279.326 257.920,279.401 258.412,279.490 257.693 C 279.579 256.974,279.577 255.894,279.486 255.293 C 279.395 254.692,279.322 255.280,279.324 256.600 M278.940 264.800 C 278.940 266.670,279.009 267.435,279.093 266.500 C 279.177 265.565,279.177 264.035,279.093 263.100 C 279.009 262.165,278.940 262.930,278.940 264.800 M398.335 284.836 C 398.417 285.699,398.604 286.479,398.750 286.569 C 398.895 286.659,398.947 286.027,398.865 285.164 C 398.783 284.301,398.596 283.521,398.450 283.431 C 398.305 283.341,398.253 283.973,398.335 284.836 M261.305 295.487 C 261.914 295.579,262.814 295.577,263.305 295.482 C 263.797 295.387,263.300 295.311,262.200 295.314 C 261.100 295.317,260.697 295.395,261.305 295.487 M398.561 307.358 C 398.443 307.665,398.408 308.610,398.483 309.458 C 398.610 310.887,398.634 310.846,398.810 308.900 C 399.004 306.756,398.941 306.367,398.561 307.358 M375.322 349.029 L 374.200 350.058 375.500 349.154 C 376.215 348.657,376.800 348.193,376.800 348.125 C 376.800 347.809,376.358 348.080,375.322 349.029 M315.200 376.400 L 313.800 376.695 315.076 376.747 C 315.778 376.776,316.464 376.620,316.600 376.400 C 316.736 376.180,316.792 376.024,316.724 376.053 C 316.656 376.082,315.970 376.238,315.200 376.400 M297.000 380.291 C 295.284 380.535,294.920 381.072,296.604 380.875 C 297.376 380.785,298.106 380.551,298.227 380.356 C 298.348 380.160,298.392 380.027,298.324 380.060 C 298.256 380.093,297.660 380.197,297.000 380.291 M287.000 382.291 C 285.284 382.535,284.920 383.072,286.604 382.875 C 287.376 382.785,288.106 382.551,288.227 382.356 C 288.348 382.160,288.392 382.027,288.324 382.060 C 288.256 382.093,287.660 382.197,287.000 382.291 M277.000 384.400 L 275.800 384.705 276.876 384.753 C 277.468 384.779,278.064 384.620,278.200 384.400 C 278.336 384.180,278.392 384.021,278.324 384.047 C 278.256 384.073,277.660 384.232,277.000 384.400 M264.705 386.683 C 265.202 386.779,265.922 386.775,266.305 386.675 C 266.687 386.575,266.280 386.496,265.400 386.501 C 264.520 386.505,264.207 386.587,264.705 386.683 M251.452 388.716 C 251.344 388.890,251.918 388.967,252.728 388.887 C 254.942 388.669,255.205 388.467,253.324 388.432 C 252.402 388.414,251.559 388.542,251.452 388.716 M237.452 390.716 C 237.344 390.890,237.918 390.967,238.728 390.887 C 240.942 390.669,241.205 390.467,239.324 390.432 C 238.402 390.414,237.559 390.542,237.452 390.716 M224.000 392.400 L 221.800 392.670 223.876 392.735 C 225.018 392.771,226.064 392.620,226.200 392.400 C 226.336 392.180,226.392 392.029,226.324 392.065 C 226.256 392.101,225.210 392.252,224.000 392.400 M208.000 394.400 L 205.800 394.670 207.876 394.735 C 209.018 394.771,210.064 394.620,210.200 394.400 C 210.336 394.180,210.392 394.029,210.324 394.065 C 210.256 394.101,209.210 394.252,208.000 394.400 M191.200 396.400 L 187.800 396.651 191.076 396.725 C 192.914 396.767,194.461 396.624,194.600 396.400 C 194.736 396.180,194.792 396.034,194.724 396.075 C 194.656 396.116,193.070 396.262,191.200 396.400 M165.200 398.400 L 161.800 398.651 165.076 398.725 C 166.914 398.767,168.461 398.624,168.600 398.400 C 168.736 398.180,168.792 398.034,168.724 398.075 C 168.656 398.116,167.070 398.262,165.200 398.400 " stroke="none" fill="#9f9f9f" fill-rule="evenodd"></path><path id="path3" d="M281.400 14.797 C 280.080 14.941,282.240 14.976,286.200 14.874 C 290.160 14.772,293.475 14.624,293.567 14.544 C 293.839 14.308,284.001 14.512,281.400 14.797 M324.105 14.687 C 324.714 14.779,325.614 14.777,326.105 14.682 C 326.597 14.587,326.100 14.511,325.000 14.514 C 323.900 14.517,323.497 14.595,324.105 14.687 M327.600 15.023 C 329.086 15.347,331.126 15.403,330.948 15.116 C 330.841 14.942,329.908 14.821,328.876 14.846 C 327.844 14.872,327.270 14.952,327.600 15.023 M262.600 16.800 L 260.200 17.066 262.200 17.086 C 263.300 17.097,265.370 16.975,266.800 16.814 L 269.400 16.522 267.200 16.528 C 265.990 16.532,263.920 16.654,262.600 16.800 M249.200 18.693 C 248.430 18.783,247.655 18.999,247.477 19.172 C 247.196 19.445,248.953 19.270,252.400 18.680 C 253.712 18.456,251.131 18.466,249.200 18.693 M349.000 18.800 C 349.660 18.968,350.740 19.106,351.400 19.107 C 352.409 19.108,352.345 19.055,351.000 18.777 C 348.974 18.358,347.337 18.377,349.000 18.800 M239.400 20.400 L 237.800 20.686 239.276 20.743 C 240.088 20.774,240.864 20.620,241.000 20.400 C 241.136 20.180,241.192 20.026,241.124 20.057 C 241.056 20.088,240.280 20.242,239.400 20.400 M235.505 21.083 C 236.002 21.179,236.722 21.175,237.105 21.075 C 237.487 20.975,237.080 20.896,236.200 20.901 C 235.320 20.905,235.007 20.987,235.505 21.083 M228.200 22.616 L 226.200 23.156 228.000 22.937 C 228.990 22.816,229.971 22.556,230.180 22.359 C 230.389 22.161,230.479 22.017,230.380 22.038 C 230.281 22.060,229.300 22.320,228.200 22.616 M209.400 26.819 C 208.842 27.071,209.085 27.107,210.200 26.938 C 211.080 26.804,211.875 26.628,211.967 26.547 C 212.310 26.244,210.168 26.471,209.400 26.819 M203.000 28.800 C 202.496 29.017,202.422 29.144,202.800 29.144 C 203.130 29.144,203.760 28.989,204.200 28.800 C 204.704 28.583,204.778 28.456,204.400 28.456 C 204.070 28.456,203.440 28.611,203.000 28.800 M196.600 30.800 C 196.096 31.017,196.022 31.144,196.400 31.144 C 196.730 31.144,197.360 30.989,197.800 30.800 C 198.304 30.583,198.378 30.456,198.000 30.456 C 197.670 30.456,197.040 30.611,196.600 30.800 M190.200 32.800 C 189.696 33.017,189.622 33.144,190.000 33.144 C 190.330 33.144,190.960 32.989,191.400 32.800 C 191.904 32.583,191.978 32.456,191.600 32.456 C 191.270 32.456,190.640 32.611,190.200 32.800 M170.600 40.614 C 169.595 41.098,169.563 41.153,170.400 40.951 C 170.950 40.819,171.571 40.550,171.780 40.355 C 172.298 39.871,172.014 39.933,170.600 40.614 M126.185 71.700 L 124.200 73.800 126.300 71.815 C 127.455 70.723,128.400 69.778,128.400 69.715 C 128.400 69.417,128.029 69.749,126.185 71.700 M373.200 71.800 C 372.228 72.790,371.523 73.600,371.633 73.600 C 371.743 73.600,372.628 72.790,373.600 71.800 C 374.572 70.810,375.277 70.000,375.167 70.000 C 375.057 70.000,374.172 70.810,373.200 71.800 M295.445 101.128 C 295.333 101.308,295.773 101.377,296.421 101.282 C 297.070 101.187,297.600 101.040,297.600 100.955 C 297.600 100.650,295.643 100.807,295.445 101.128 M287.400 102.800 L 286.200 103.105 287.276 103.153 C 287.868 103.179,288.464 103.020,288.600 102.800 C 288.736 102.580,288.792 102.421,288.724 102.447 C 288.656 102.473,288.060 102.632,287.400 102.800 M215.722 133.429 L 214.600 134.458 215.900 133.554 C 216.615 133.057,217.200 132.593,217.200 132.525 C 217.200 132.209,216.758 132.480,215.722 133.429 M201.897 145.100 C 198.180 148.785,194.969 152.112,194.760 152.492 C 194.551 152.873,196.018 151.492,198.020 149.422 C 200.022 147.353,203.348 144.026,205.412 142.030 C 207.476 140.033,209.049 138.400,208.909 138.400 C 208.768 138.400,205.613 141.415,201.897 145.100 M94.901 148.200 C 94.905 149.080,94.987 149.393,95.083 148.895 C 95.179 148.398,95.175 147.678,95.075 147.295 C 94.975 146.913,94.896 147.320,94.901 148.200 M94.493 152.000 C 94.493 152.770,94.575 153.085,94.676 152.700 C 94.776 152.315,94.776 151.685,94.676 151.300 C 94.575 150.915,94.493 151.230,94.493 152.000 M93.350 175.800 C 93.351 178.220,93.416 179.158,93.496 177.885 C 93.576 176.612,93.575 174.632,93.494 173.485 C 93.414 172.338,93.349 173.380,93.350 175.800 M177.020 190.100 C 176.662 191.253,176.537 192.762,176.814 192.592 C 176.977 192.490,177.185 191.776,177.275 191.004 C 177.439 189.602,177.313 189.155,177.020 190.100 M93.324 195.800 C 93.326 197.120,93.401 197.612,93.490 196.893 C 93.579 196.174,93.577 195.094,93.486 194.493 C 93.395 193.892,93.322 194.480,93.324 195.800 M174.879 208.076 C 174.836 212.408,174.935 216.037,175.100 216.139 C 175.265 216.242,175.353 213.957,175.296 211.063 C 175.101 201.205,174.959 200.187,174.879 208.076 M93.720 208.400 C 93.720 209.610,93.795 210.105,93.887 209.500 C 93.978 208.895,93.978 207.905,93.887 207.300 C 93.795 206.695,93.720 207.190,93.720 208.400 M321.477 216.422 C 321.655 216.591,323.060 216.824,324.600 216.939 C 327.460 217.152,327.053 216.996,323.277 216.431 C 322.109 216.257,321.299 216.253,321.477 216.422 M333.000 218.800 C 334.692 219.231,336.144 219.231,334.800 218.800 C 334.250 218.624,333.350 218.483,332.800 218.487 C 331.902 218.494,331.922 218.526,333.000 218.800 M293.700 220.796 C 292.985 221.232,292.400 221.675,292.400 221.781 C 292.400 221.886,293.030 221.601,293.800 221.147 C 294.570 220.693,295.200 220.249,295.200 220.160 C 295.200 219.905,295.074 219.958,293.700 220.796 M339.452 220.390 C 339.643 220.570,340.610 220.824,341.600 220.954 C 343.701 221.230,343.347 220.988,340.852 220.444 C 339.890 220.235,339.260 220.211,339.452 220.390 M94.514 224.600 C 94.517 225.700,94.595 226.103,94.687 225.495 C 94.779 224.886,94.777 223.986,94.682 223.495 C 94.587 223.003,94.511 223.500,94.514 224.600 M94.914 230.200 C 94.917 231.300,94.995 231.703,95.087 231.095 C 95.179 230.486,95.177 229.586,95.082 229.095 C 94.987 228.603,94.911 229.100,94.914 230.200 M366.800 233.746 C 366.800 233.856,367.340 234.330,368.000 234.800 C 368.660 235.270,369.200 235.564,369.200 235.454 C 369.200 235.344,368.660 234.870,368.000 234.400 C 367.340 233.930,366.800 233.636,366.800 233.746 M95.301 235.800 C 95.305 236.680,95.387 236.993,95.483 236.495 C 95.579 235.998,95.575 235.278,95.475 234.895 C 95.375 234.513,95.296 234.920,95.301 235.800 M280.649 243.015 C 280.512 243.373,280.415 243.966,280.434 244.333 C 280.453 244.700,280.627 244.469,280.821 243.820 C 281.198 242.558,281.065 241.933,280.649 243.015 M96.893 254.800 C 96.893 255.570,96.975 255.885,97.076 255.500 C 97.176 255.115,97.176 254.485,97.076 254.100 C 96.975 253.715,96.893 254.030,96.893 254.800 M279.320 262.000 C 279.320 263.210,279.395 263.705,279.487 263.100 C 279.578 262.495,279.578 261.505,279.487 260.900 C 279.395 260.295,279.320 260.790,279.320 262.000 M211.167 274.145 C 211.700 274.801,213.200 275.793,213.200 275.489 C 213.200 275.413,212.615 274.922,211.900 274.399 C 211.096 273.810,210.816 273.713,211.167 274.145 M398.901 288.200 C 398.905 289.080,398.987 289.393,399.083 288.895 C 399.179 288.398,399.175 287.678,399.075 287.295 C 398.975 286.913,398.896 287.320,398.901 288.200 M233.544 288.376 C 234.064 288.829,234.679 289.200,234.911 289.200 C 235.403 289.200,235.379 289.180,233.800 288.255 L 232.600 287.553 233.544 288.376 M237.776 290.578 C 238.204 290.920,238.834 291.186,239.176 291.168 C 239.715 291.141,239.718 291.107,239.200 290.914 C 238.870 290.792,238.240 290.526,237.800 290.324 C 237.013 289.962,237.012 289.966,237.776 290.578 M243.200 292.686 C 243.530 292.808,244.160 293.074,244.600 293.276 C 245.387 293.638,245.388 293.634,244.624 293.022 C 244.196 292.680,243.566 292.414,243.224 292.432 C 242.685 292.459,242.682 292.493,243.200 292.686 M249.000 294.800 C 249.660 294.968,250.740 295.106,251.400 295.107 C 252.409 295.108,252.345 295.055,251.000 294.777 C 248.974 294.358,247.337 294.377,249.000 294.800 M398.793 305.081 C 398.687 306.225,398.747 307.015,398.926 306.835 C 399.105 306.656,399.191 305.719,399.118 304.754 L 398.985 303.000 398.793 305.081 M303.600 378.800 L 302.200 379.095 303.476 379.147 C 304.178 379.176,304.864 379.020,305.000 378.800 C 305.136 378.580,305.192 378.424,305.124 378.453 C 305.056 378.482,304.370 378.638,303.600 378.800 M273.700 385.076 C 274.085 385.176,274.715 385.176,275.100 385.076 C 275.485 384.975,275.170 384.893,274.400 384.893 C 273.630 384.893,273.315 384.975,273.700 385.076 M261.700 387.076 C 262.085 387.176,262.715 387.176,263.100 387.076 C 263.485 386.975,263.170 386.893,262.400 386.893 C 261.630 386.893,261.315 386.975,261.700 387.076 M247.852 389.116 C 247.744 389.290,248.318 389.367,249.128 389.287 C 251.342 389.069,251.605 388.867,249.724 388.832 C 248.802 388.814,247.959 388.942,247.852 389.116 M235.105 391.083 C 235.602 391.179,236.322 391.175,236.705 391.075 C 237.087 390.975,236.680 390.896,235.800 390.901 C 234.920 390.905,234.607 390.987,235.105 391.083 M217.852 393.116 C 217.744 393.290,218.318 393.370,219.128 393.293 C 221.602 393.059,221.893 392.895,219.924 392.846 C 218.892 392.821,217.959 392.942,217.852 393.116 M201.852 395.116 C 201.744 395.290,202.318 395.370,203.128 395.293 C 205.602 395.059,205.893 394.895,203.924 394.846 C 202.892 394.821,201.959 394.942,201.852 395.116 M181.461 397.100 C 181.358 397.265,182.293 397.349,183.537 397.287 C 187.444 397.092,187.915 396.922,184.724 396.860 C 183.032 396.827,181.563 396.935,181.461 397.100 M155.861 399.100 C 155.759 399.265,156.603 399.349,157.738 399.286 C 161.416 399.082,161.863 398.921,158.924 398.860 C 157.342 398.827,155.964 398.935,155.861 399.100 " stroke="none" fill="#7c7c7c" fill-rule="evenodd"></path><path id="path4" d="M92.909 186.800 C 92.909 187.790,92.987 188.195,93.082 187.700 C 93.178 187.205,93.178 186.395,93.082 185.900 C 92.987 185.405,92.909 185.810,92.909 186.800 " stroke="none" fill="#848484" fill-rule="evenodd"></path></g></svg>