<svg id="svg" version="1.1" xmlns="http://www.w3.org/2000/svg" xmlns:xlink="http://www.w3.org/1999/xlink" width="400" height="400" viewBox="0, 0, 400,400"><g id="svgg"><path id="path0" d="M100.988 1.568 C 98.359 1.880,96.004 2.338,95.757 2.586 C 95.509 2.834,94.562 3.283,93.653 3.583 C 92.744 3.883,92.000 4.261,92.000 4.424 C 92.000 4.587,91.100 5.043,90.000 5.439 C 88.900 5.834,88.000 6.263,88.000 6.391 C 88.000 6.519,86.381 7.969,84.403 9.612 C 81.388 12.116,80.293 13.378,77.646 17.400 C 72.560 25.128,69.874 31.516,67.621 41.243 C 67.182 43.137,66.663 45.117,66.466 45.643 C 66.270 46.169,65.981 47.500,65.825 48.600 C 65.669 49.700,65.096 52.850,64.552 55.600 C 61.699 70.017,60.120 123.763,62.195 135.840 C 62.305 136.478,62.756 143.120,63.198 150.600 C 63.640 158.080,64.189 166.360,64.419 169.000 C 64.649 171.640,65.179 178.390,65.597 184.000 C 66.676 198.503,67.527 208.537,68.225 215.000 C 68.558 218.080,69.184 224.290,69.615 228.800 C 70.047 233.310,70.488 237.450,70.594 238.000 C 70.701 238.550,71.160 242.690,71.613 247.200 C 72.067 251.710,72.519 255.760,72.618 256.200 C 72.717 256.640,73.157 260.420,73.595 264.600 C 74.861 276.661,77.482 297.247,80.241 316.800 C 80.567 319.110,81.191 323.880,81.628 327.400 C 82.064 330.920,82.502 334.070,82.600 334.400 C 82.698 334.730,83.136 337.880,83.572 341.400 C 84.467 348.617,85.175 353.675,86.610 363.100 C 87.155 366.675,88.058 372.615,88.618 376.300 C 89.178 379.985,90.075 385.790,90.610 389.200 C 91.145 392.610,91.703 396.445,91.849 397.722 C 92.036 399.352,92.241 399.919,92.538 399.622 C 92.807 399.353,95.981 399.200,101.305 399.200 C 109.217 399.200,117.196 398.485,118.806 397.632 C 119.139 397.455,121.029 397.080,123.006 396.797 C 124.983 396.514,127.550 395.859,128.712 395.341 C 129.873 394.824,131.043 394.399,131.312 394.398 C 131.580 394.396,132.340 394.111,133.000 393.764 C 133.660 393.417,135.010 392.865,136.000 392.539 C 138.726 391.640,141.539 390.152,144.200 388.201 C 145.520 387.233,146.797 386.431,147.038 386.420 C 147.279 386.409,147.802 386.040,148.200 385.600 C 148.598 385.160,149.136 384.800,149.394 384.800 C 149.653 384.800,150.120 384.305,150.432 383.700 C 150.745 383.095,151.315 382.365,151.700 382.077 C 152.085 381.790,152.400 381.333,152.400 381.062 C 152.400 380.791,152.933 379.947,153.584 379.185 C 154.235 378.423,154.775 377.618,154.784 377.396 C 154.793 377.174,155.143 376.778,155.561 376.517 C 155.997 376.245,156.438 375.358,156.593 374.444 C 156.741 373.565,157.100 372.649,157.389 372.409 C 157.679 372.168,158.041 371.306,158.194 370.493 C 158.346 369.680,158.845 368.291,159.302 367.407 C 161.034 364.055,161.193 343.446,159.500 341.765 C 159.335 341.601,159.200 340.809,159.200 340.006 C 159.200 338.589,158.339 335.028,157.602 333.400 C 157.403 332.960,156.941 331.430,156.576 330.000 C 156.211 328.570,155.680 326.860,155.396 326.200 C 155.112 325.540,154.662 323.920,154.396 322.600 C 154.131 321.280,153.770 320.020,153.594 319.800 C 153.419 319.580,152.974 318.320,152.606 317.000 C 152.238 315.680,151.698 314.060,151.405 313.400 C 151.112 312.740,150.665 311.390,150.413 310.400 C 150.160 309.410,149.689 308.024,149.367 307.320 C 149.045 306.615,148.579 304.995,148.331 303.720 C 148.083 302.444,147.745 301.220,147.578 301.000 C 147.412 300.780,146.964 298.980,146.582 297.000 C 146.200 295.020,145.733 293.229,145.544 293.020 C 145.094 292.522,145.096 277.475,145.546 276.980 C 145.737 276.771,146.111 275.160,146.378 273.400 C 146.690 271.342,147.209 269.668,147.832 268.709 C 148.364 267.888,148.800 267.033,148.800 266.809 C 148.800 266.584,148.972 266.400,149.181 266.400 C 149.391 266.400,149.864 265.764,150.233 264.986 C 150.986 263.401,152.974 261.620,155.388 260.371 C 156.274 259.912,157.630 259.191,158.400 258.769 C 159.170 258.347,160.259 258.001,160.820 258.001 C 161.381 258.000,162.011 257.840,162.220 257.645 C 163.949 256.032,183.603 255.993,187.400 257.596 C 187.840 257.782,189.910 258.142,192.000 258.397 C 194.090 258.652,196.880 259.192,198.200 259.598 C 199.520 260.004,202.490 260.913,204.800 261.618 C 212.180 263.870,216.589 265.304,217.000 265.586 C 217.220 265.737,218.210 266.090,219.200 266.371 C 220.190 266.652,221.755 267.224,222.678 267.641 C 223.601 268.058,224.574 268.400,224.839 268.400 C 225.334 268.400,230.119 270.509,231.200 271.203 C 231.530 271.415,232.430 271.859,233.200 272.190 C 233.970 272.521,234.870 272.971,235.200 273.190 C 235.530 273.409,236.430 273.859,237.200 274.190 C 237.970 274.521,238.870 274.974,239.200 275.197 C 239.530 275.420,240.160 275.761,240.600 275.956 C 244.873 277.848,262.541 291.250,266.565 295.651 C 267.646 296.833,269.543 298.880,270.780 300.200 C 272.017 301.520,273.337 303.050,273.713 303.600 C 274.089 304.150,275.305 305.860,276.415 307.400 C 279.351 311.472,280.386 313.089,281.922 316.000 C 285.152 322.126,286.452 324.883,287.597 328.043 C 289.167 332.373,292.665 342.711,293.605 345.800 C 298.226 360.978,304.451 373.551,310.655 380.234 C 314.451 384.323,316.818 386.697,317.799 387.400 C 318.413 387.840,320.015 389.003,321.358 389.984 C 324.528 392.299,330.669 395.320,336.200 397.286 L 340.600 398.849 350.000 399.080 C 362.695 399.392,365.502 398.796,371.925 394.424 C 373.037 393.667,374.183 392.593,374.473 392.036 C 374.763 391.480,375.236 390.749,375.525 390.412 C 376.913 388.793,377.921 386.726,378.558 384.193 C 378.941 382.665,379.454 381.176,379.697 380.883 C 381.045 379.258,380.896 359.081,379.520 356.971 C 379.258 356.569,378.652 353.457,378.123 349.800 C 377.996 348.920,377.752 348.020,377.581 347.800 C 377.410 347.580,377.058 346.230,376.799 344.800 C 376.541 343.370,376.004 341.480,375.607 340.600 C 375.210 339.720,374.672 337.958,374.411 336.685 C 374.151 335.412,373.684 333.883,373.375 333.288 C 373.066 332.692,372.598 331.214,372.333 330.002 C 372.069 328.791,371.636 327.440,371.371 327.000 C 371.106 326.560,370.666 325.480,370.392 324.600 C 370.119 323.720,369.763 322.820,369.601 322.600 C 369.439 322.380,368.988 321.210,368.600 320.000 C 368.212 318.790,367.765 317.620,367.608 317.400 C 367.451 317.180,367.015 316.010,366.639 314.800 C 365.894 312.401,365.713 311.982,362.510 305.200 C 361.315 302.670,359.793 299.430,359.127 298.000 C 358.461 296.570,357.764 295.130,357.578 294.800 C 357.392 294.470,355.656 291.050,353.720 287.200 C 351.784 283.350,349.750 279.480,349.200 278.600 C 347.582 276.011,347.252 275.474,346.378 274.000 C 345.921 273.230,345.115 271.880,344.588 271.000 C 344.060 270.120,343.169 268.545,342.608 267.500 C 342.046 266.455,341.410 265.600,341.193 265.600 C 340.977 265.600,340.800 265.387,340.800 265.128 C 340.800 264.868,339.810 263.363,338.600 261.783 C 337.390 260.203,336.400 258.788,336.400 258.638 C 336.400 258.245,333.442 254.299,332.661 253.651 C 332.297 253.349,332.000 252.875,332.000 252.597 C 332.000 252.319,331.550 251.797,331.000 251.437 C 330.450 251.076,330.000 250.525,330.000 250.211 C 330.000 249.897,329.766 249.496,329.480 249.320 C 329.194 249.144,328.581 248.460,328.118 247.800 C 327.002 246.210,317.194 236.513,315.740 235.564 C 314.443 234.717,313.469 233.955,309.484 230.670 C 307.929 229.389,305.773 227.859,304.693 227.270 C 300.820 225.159,300.267 224.833,300.035 224.519 C 299.669 224.023,297.201 222.800,296.568 222.800 C 296.255 222.800,295.999 222.665,295.999 222.500 C 295.998 222.335,295.143 221.863,294.099 221.451 C 293.054 221.039,290.940 220.116,289.400 219.400 C 287.860 218.684,285.520 217.610,284.200 217.014 C 282.880 216.418,280.720 215.419,279.400 214.793 C 278.080 214.168,276.325 213.428,275.500 213.148 C 274.675 212.868,274.000 212.524,274.000 212.383 C 274.000 212.242,273.235 211.898,272.300 211.619 C 271.365 211.340,269.864 210.682,268.965 210.156 C 268.066 209.630,267.073 209.200,266.759 209.200 C 266.445 209.200,265.561 208.864,264.794 208.453 C 264.027 208.043,262.770 207.575,262.000 207.414 C 261.230 207.253,260.240 206.896,259.800 206.621 C 259.360 206.346,258.281 205.885,257.402 205.597 C 256.523 205.309,255.011 204.652,254.042 204.137 C 253.074 203.621,251.961 203.200,251.569 203.200 C 251.177 203.200,250.619 202.967,250.329 202.683 C 250.038 202.399,249.170 201.920,248.400 201.619 C 246.857 201.017,243.496 199.500,238.600 197.198 C 236.840 196.370,234.680 195.448,233.800 195.149 C 232.920 194.849,232.110 194.489,232.000 194.349 C 231.890 194.209,230.990 193.820,230.000 193.486 C 229.009 193.151,227.659 192.615,227.000 192.294 C 226.340 191.974,224.810 191.259,223.600 190.707 C 222.390 190.155,220.230 189.140,218.800 188.451 C 217.370 187.763,215.898 187.200,215.529 187.200 C 215.159 187.200,214.619 186.970,214.329 186.688 C 214.038 186.406,212.990 185.928,212.000 185.625 C 211.010 185.322,209.820 184.844,209.356 184.564 C 208.892 184.284,207.497 183.760,206.256 183.399 C 205.015 183.038,204.000 182.605,204.000 182.436 C 204.000 182.266,203.235 181.879,202.300 181.575 C 199.536 180.676,193.661 177.567,192.334 176.300 C 191.930 175.915,191.416 175.600,191.190 175.600 C 189.889 175.600,184.608 171.332,179.311 166.000 C 174.367 161.023,174.000 160.616,174.000 160.105 C 174.000 159.849,173.774 159.496,173.498 159.320 C 172.770 158.857,171.042 156.453,170.104 154.600 C 168.763 151.953,167.689 149.992,167.301 149.482 C 167.099 149.217,166.694 148.370,166.401 147.600 C 166.108 146.830,165.649 145.930,165.381 145.600 C 165.114 145.270,164.762 144.550,164.600 144.000 C 164.321 143.057,163.282 140.628,161.603 137.000 C 161.196 136.120,160.643 134.230,160.374 132.800 C 160.105 131.370,159.742 130.015,159.568 129.789 C 159.393 129.563,158.961 128.033,158.608 126.389 C 158.255 124.745,157.821 123.130,157.644 122.800 C 157.466 122.470,157.010 119.950,156.630 117.200 C 156.250 114.450,155.774 111.890,155.573 111.511 C 154.875 110.197,154.000 95.885,154.000 85.792 C 154.000 80.212,153.845 75.552,153.656 75.435 C 153.467 75.318,153.190 72.112,153.041 68.311 C 152.740 60.648,152.054 53.215,151.590 52.600 C 151.425 52.380,151.167 50.850,151.019 49.200 C 150.689 45.533,149.991 41.540,149.585 41.000 C 149.419 40.780,148.984 39.070,148.617 37.200 C 147.995 34.024,147.406 32.398,145.548 28.721 C 145.136 27.907,144.800 27.058,144.800 26.833 C 144.800 26.112,142.887 22.247,141.826 20.822 C 141.262 20.065,140.800 19.298,140.800 19.118 C 140.800 17.930,132.350 8.000,131.339 8.000 C 131.096 8.000,126.767 5.460,125.183 4.387 C 124.623 4.008,123.363 3.568,122.383 3.408 C 121.402 3.248,120.060 2.884,119.400 2.598 C 117.205 1.649,116.238 1.494,110.985 1.246 C 107.499 1.082,104.184 1.188,100.988 1.568 " stroke="none" fill="#040404" fill-rule="evenodd"></path><path id="path1" d="M0.000 200.000 L 0.000 400.000 46.043 400.000 C 84.695 400.000,92.052 399.913,91.877 399.456 C 91.660 398.891,91.146 395.717,89.404 384.200 C 88.838 380.460,88.097 375.690,87.757 373.600 C 87.417 371.510,86.792 367.280,86.368 364.200 C 85.945 361.120,85.510 358.364,85.402 358.075 C 85.294 357.786,84.841 354.456,84.396 350.675 C 83.950 346.894,83.500 343.564,83.396 343.275 C 83.291 342.986,82.841 339.656,82.396 335.875 C 81.950 332.094,81.498 328.760,81.392 328.466 C 81.286 328.172,80.834 324.932,80.389 321.266 C 79.943 317.600,79.499 314.330,79.401 314.000 C 79.304 313.670,78.865 310.430,78.427 306.800 C 77.989 303.170,77.365 298.310,77.040 296.000 C 76.715 293.690,76.157 289.730,75.800 287.200 C 75.443 284.670,74.807 279.360,74.387 275.400 C 73.966 271.440,73.439 266.940,73.216 265.400 C 72.992 263.860,72.620 260.530,72.390 258.000 C 72.159 255.470,71.712 251.510,71.396 249.200 C 71.080 246.890,70.539 241.850,70.193 238.000 C 69.846 234.150,69.485 230.730,69.390 230.400 C 69.295 230.070,68.854 225.840,68.411 221.000 C 67.968 216.160,67.514 211.808,67.403 211.329 C 67.291 210.850,66.837 205.540,66.395 199.529 C 65.953 193.518,65.419 187.070,65.209 185.200 C 64.999 183.330,64.633 178.470,64.396 174.400 C 64.160 170.330,63.703 163.940,63.380 160.200 C 62.803 153.502,61.891 137.472,61.196 121.800 C 60.739 111.513,60.742 93.695,61.201 85.000 C 61.771 74.207,62.776 61.973,63.232 60.280 C 63.463 59.425,63.914 57.077,64.236 55.063 C 64.924 50.754,66.602 42.959,67.392 40.400 C 67.698 39.410,68.158 37.520,68.414 36.200 C 68.670 34.880,69.153 33.170,69.487 32.400 C 70.226 30.699,71.469 27.935,73.171 24.205 C 74.843 20.541,80.200 12.590,81.897 11.253 C 82.632 10.674,84.168 9.355,85.310 8.323 C 87.782 6.090,94.594 2.472,97.286 1.962 C 98.339 1.763,100.145 1.415,101.300 1.189 C 104.499 0.564,115.038 0.692,116.555 1.375 C 117.240 1.684,119.240 2.256,121.000 2.646 C 122.760 3.037,124.629 3.681,125.154 4.078 C 125.679 4.475,126.354 4.800,126.654 4.800 C 126.954 4.800,127.200 4.984,127.200 5.210 C 127.200 5.435,127.617 5.778,128.126 5.972 C 131.180 7.133,137.852 13.212,139.396 16.239 C 139.834 17.098,140.419 17.944,140.696 18.120 C 140.973 18.296,141.200 18.669,141.200 18.949 C 141.200 19.228,141.735 20.165,142.389 21.029 C 143.043 21.893,143.583 22.834,143.589 23.121 C 143.595 23.407,143.940 24.307,144.356 25.121 C 145.739 27.827,147.110 30.981,147.607 32.600 C 147.877 33.480,148.242 34.490,148.417 34.844 C 148.593 35.198,149.048 37.088,149.428 39.044 C 149.807 41.000,150.283 42.813,150.485 43.072 C 150.687 43.332,151.140 46.302,151.491 49.672 C 151.843 53.043,152.279 55.899,152.461 56.021 C 152.990 56.375,153.990 77.289,153.995 88.100 C 153.998 93.545,154.153 98.000,154.340 98.000 C 154.527 98.000,154.801 100.025,154.949 102.500 C 155.270 107.841,156.043 114.119,156.415 114.400 C 156.560 114.510,156.987 116.756,157.362 119.390 C 157.738 122.025,158.182 124.275,158.349 124.390 C 158.516 124.506,158.985 126.220,159.391 128.200 C 159.797 130.180,160.235 131.890,160.364 132.000 C 160.494 132.110,160.921 133.460,161.314 135.000 C 161.706 136.540,162.188 137.856,162.384 137.923 C 162.580 137.991,163.048 139.026,163.425 140.223 C 163.801 141.421,164.265 142.400,164.455 142.400 C 164.645 142.400,164.804 142.715,164.808 143.100 C 164.818 143.896,169.638 153.636,170.400 154.400 C 170.510 154.510,170.960 155.320,171.400 156.200 C 171.840 157.080,172.605 158.128,173.100 158.529 C 173.595 158.930,174.000 159.431,174.000 159.642 C 174.000 159.854,174.630 160.657,175.400 161.427 C 176.170 162.197,176.800 162.960,176.800 163.124 C 176.800 163.510,182.128 168.800,182.517 168.800 C 182.680 168.800,183.590 169.610,184.538 170.600 C 185.487 171.590,186.396 172.400,186.560 172.400 C 186.723 172.400,187.992 173.210,189.379 174.200 C 190.766 175.190,192.042 176.000,192.213 176.000 C 192.384 176.000,193.081 176.411,193.762 176.914 C 194.925 177.772,197.230 178.948,202.400 181.320 C 206.893 183.382,208.248 183.951,210.190 184.594 C 211.285 184.956,212.365 185.397,212.590 185.574 C 212.816 185.751,213.704 186.123,214.564 186.400 C 215.424 186.677,217.169 187.421,218.442 188.052 C 219.714 188.683,221.035 189.200,221.378 189.200 C 221.720 189.200,222.000 189.344,222.000 189.520 C 222.000 189.695,222.675 190.078,223.500 190.369 C 225.166 190.957,228.255 192.300,234.400 195.105 C 235.390 195.557,237.055 196.238,238.100 196.618 C 239.145 196.998,240.000 197.450,240.000 197.623 C 240.000 197.795,240.585 198.061,241.300 198.213 C 242.015 198.365,243.410 198.893,244.400 199.387 C 249.853 202.107,255.909 204.800,256.572 204.800 C 256.886 204.800,257.381 205.028,257.671 205.307 C 257.962 205.586,259.280 206.146,260.600 206.552 C 261.920 206.958,263.180 207.426,263.400 207.593 C 263.620 207.759,264.520 208.111,265.400 208.375 C 266.280 208.638,267.900 209.278,269.000 209.796 C 270.100 210.314,272.080 211.220,273.400 211.810 C 274.720 212.401,277.240 213.562,279.000 214.390 C 280.760 215.219,283.055 216.215,284.100 216.603 C 285.145 216.991,286.000 217.464,286.000 217.654 C 286.000 217.844,286.335 218.000,286.744 218.000 C 287.153 218.000,288.638 218.556,290.044 219.235 C 293.712 221.007,296.508 222.309,297.200 222.568 C 297.530 222.691,298.970 223.510,300.400 224.386 C 301.830 225.263,303.450 226.206,304.000 226.482 C 304.550 226.757,305.144 227.212,305.320 227.492 C 305.496 227.771,305.891 228.000,306.197 228.000 C 306.504 228.000,307.921 228.990,309.348 230.200 C 310.774 231.410,312.114 232.400,312.324 232.400 C 312.535 232.400,313.003 232.850,313.363 233.400 C 313.724 233.950,314.274 234.400,314.587 234.400 C 314.899 234.400,315.390 234.732,315.677 235.137 C 315.965 235.542,316.421 235.947,316.691 236.037 C 317.373 236.263,328.000 246.863,328.000 247.317 C 328.000 247.519,328.450 248.039,329.000 248.471 C 329.550 248.904,330.000 249.410,330.000 249.595 C 330.000 249.945,330.232 250.240,333.571 254.149 C 334.674 255.441,335.685 256.836,335.816 257.249 C 335.947 257.662,336.210 258.000,336.400 258.000 C 336.590 258.000,336.855 258.343,336.988 258.763 C 337.121 259.182,337.852 260.307,338.611 261.263 C 339.371 262.218,339.994 263.206,339.996 263.457 C 339.998 263.709,340.270 264.018,340.600 264.145 C 340.930 264.271,341.200 264.640,341.200 264.965 C 341.200 265.289,341.519 265.790,341.909 266.077 C 342.299 266.365,342.956 267.365,343.370 268.300 C 343.783 269.235,344.262 270.000,344.434 270.000 C 344.606 270.000,344.873 270.405,345.028 270.900 C 345.183 271.395,345.825 272.552,346.455 273.472 C 347.085 274.392,347.603 275.292,347.607 275.472 C 347.614 275.788,349.427 278.656,350.536 280.104 C 350.832 280.491,351.312 281.526,351.601 282.404 C 351.891 283.282,352.261 284.000,352.424 284.000 C 352.587 284.000,353.043 284.900,353.439 286.000 C 353.834 287.100,354.278 288.000,354.425 288.000 C 354.571 288.000,355.014 288.855,355.409 289.900 C 355.804 290.945,356.247 291.890,356.395 292.000 C 356.817 292.315,358.000 294.866,358.000 295.461 C 358.000 295.758,358.162 296.000,358.360 296.000 C 358.558 296.000,359.043 296.900,359.439 298.000 C 359.834 299.100,360.288 300.000,360.447 300.000 C 360.606 300.000,361.047 300.945,361.427 302.100 C 361.807 303.255,362.231 304.290,362.370 304.400 C 362.509 304.510,362.972 305.410,363.400 306.400 C 363.828 307.390,364.300 308.290,364.449 308.400 C 364.598 308.510,365.035 309.590,365.421 310.800 C 365.807 312.010,366.277 313.202,366.467 313.449 C 366.657 313.695,367.099 314.865,367.450 316.049 C 367.800 317.232,368.211 318.290,368.363 318.400 C 368.696 318.641,370.000 322.662,370.000 323.446 C 370.000 323.751,370.163 324.000,370.363 324.000 C 370.562 324.000,371.033 325.035,371.409 326.300 C 371.785 327.565,372.323 329.140,372.604 329.800 C 372.885 330.460,373.244 331.630,373.400 332.400 C 373.556 333.170,373.918 334.340,374.203 335.000 C 374.489 335.660,375.044 337.460,375.436 339.000 C 375.829 340.540,376.283 341.892,376.445 342.005 C 376.606 342.117,377.055 344.007,377.442 346.205 C 377.829 348.402,378.265 350.290,378.411 350.400 C 378.753 350.659,380.000 357.534,380.000 359.163 C 380.000 359.849,380.173 360.723,380.385 361.105 C 381.384 362.909,381.401 378.865,380.404 379.600 C 380.255 379.710,379.799 381.105,379.390 382.700 C 378.980 384.295,378.500 385.600,378.323 385.600 C 378.145 385.600,378.000 385.932,378.000 386.339 C 378.000 387.195,376.871 389.600,376.468 389.600 C 376.318 389.600,375.968 390.113,375.690 390.741 C 375.018 392.259,372.645 394.592,370.960 395.392 C 370.212 395.747,369.599 396.164,369.597 396.319 C 369.593 396.686,367.617 397.599,366.820 397.602 C 366.479 397.604,365.750 397.837,365.200 398.120 C 361.881 399.830,342.647 400.255,339.187 398.694 C 338.424 398.350,337.080 397.852,336.200 397.587 C 334.083 396.949,328.654 394.732,328.400 394.402 C 328.290 394.258,327.346 393.794,326.301 393.371 C 325.257 392.947,324.402 392.465,324.401 392.300 C 324.401 392.135,324.197 392.000,323.949 392.000 C 323.223 392.000,317.276 387.578,315.047 385.382 C 304.829 375.309,299.639 365.916,293.178 345.800 C 292.081 342.385,290.216 336.879,286.741 326.800 C 286.324 325.590,285.739 324.150,285.441 323.600 C 285.143 323.050,283.775 320.440,282.401 317.800 C 276.002 305.506,266.450 294.738,252.860 284.497 C 251.617 283.560,250.383 282.615,250.117 282.397 C 249.851 282.179,249.527 282.000,249.397 282.000 C 249.048 282.000,244.222 278.650,244.067 278.300 C 243.993 278.135,243.740 278.000,243.504 278.000 C 243.269 278.000,242.519 277.589,241.838 277.087 C 240.232 275.903,227.879 269.814,225.800 269.182 C 224.920 268.915,224.020 268.561,223.800 268.396 C 223.580 268.231,222.320 267.787,221.000 267.409 C 219.680 267.030,218.510 266.598,218.400 266.449 C 218.290 266.300,217.120 265.848,215.800 265.444 C 214.480 265.041,213.220 264.575,213.000 264.410 C 212.780 264.245,211.250 263.790,209.600 263.400 C 207.950 263.010,206.420 262.556,206.200 262.392 C 205.980 262.227,205.195 261.963,204.456 261.805 C 203.716 261.646,201.556 261.014,199.656 260.399 C 197.755 259.784,194.940 259.149,193.400 258.987 C 191.860 258.826,190.510 258.573,190.400 258.426 C 188.953 256.492,159.600 256.537,159.600 258.474 C 159.600 258.653,159.375 258.801,159.100 258.802 C 158.825 258.803,157.790 259.351,156.800 260.020 C 155.810 260.689,154.433 261.481,153.741 261.781 C 151.518 262.742,147.402 269.053,146.988 272.136 C 146.835 273.271,146.506 274.453,146.255 274.761 C 145.617 275.548,145.620 294.055,146.258 294.838 C 146.510 295.147,147.014 296.930,147.378 298.800 C 147.741 300.670,148.204 302.560,148.406 303.000 C 148.607 303.440,149.065 304.970,149.422 306.400 C 149.779 307.830,150.219 309.180,150.400 309.400 C 150.581 309.620,151.031 310.970,151.400 312.400 C 151.769 313.830,152.219 315.180,152.400 315.400 C 152.581 315.620,153.031 316.970,153.400 318.400 C 153.769 319.830,154.204 321.180,154.366 321.400 C 154.528 321.620,155.003 323.240,155.420 325.000 C 155.838 326.760,156.290 328.290,156.424 328.400 C 156.559 328.510,156.976 329.860,157.351 331.400 C 157.726 332.940,158.307 334.791,158.642 335.514 C 158.977 336.236,159.428 338.576,159.646 340.714 C 159.863 342.851,160.202 344.960,160.399 345.400 C 161.382 347.594,161.382 364.901,160.399 365.600 C 160.244 365.710,159.798 366.790,159.406 368.000 C 159.015 369.210,158.558 370.380,158.392 370.600 C 158.226 370.820,157.760 372.080,157.357 373.400 C 156.893 374.920,155.923 376.677,154.712 378.194 C 153.660 379.511,152.800 380.816,152.800 381.094 C 152.800 381.372,152.646 381.600,152.458 381.600 C 152.270 381.600,151.608 382.403,150.987 383.385 C 150.332 384.422,149.385 385.336,148.729 385.565 C 148.108 385.781,147.600 386.148,147.600 386.379 C 147.600 386.611,147.399 386.800,147.154 386.800 C 146.908 386.800,145.849 387.430,144.800 388.200 C 143.751 388.970,142.701 389.600,142.466 389.600 C 142.232 389.600,141.896 389.835,141.720 390.122 C 141.343 390.736,138.748 392.000,137.863 392.000 C 137.524 392.000,137.144 392.166,137.019 392.369 C 136.893 392.573,135.848 393.046,134.695 393.422 C 133.543 393.798,132.420 394.230,132.200 394.381 C 131.980 394.532,130.990 394.900,130.000 395.198 C 129.010 395.496,127.750 395.965,127.200 396.242 C 126.650 396.518,124.130 397.041,121.600 397.405 C 119.070 397.768,116.640 398.217,116.200 398.403 C 114.464 399.134,112.625 399.294,102.800 399.566 C 97.190 399.721,161.765 399.882,246.300 399.924 L 400.000 400.000 400.000 200.000 L 400.000 0.000 200.000 0.000 L 0.000 0.000 0.000 200.000 " stroke="none" fill="#fbfbfb" fill-rule="evenodd"></path><path id="path2" d="M100.100 1.476 C 100.485 1.576,101.115 1.576,101.500 1.476 C 101.885 1.375,101.570 1.293,100.800 1.293 C 100.030 1.293,99.715 1.375,100.100 1.476 M123.400 3.489 C 123.840 3.598,124.470 3.892,124.800 4.143 C 125.322 4.540,125.328 4.509,124.851 3.900 C 124.549 3.515,123.919 3.221,123.451 3.246 C 122.643 3.290,122.640 3.303,123.400 3.489 M152.509 57.600 C 152.509 58.590,152.587 58.995,152.682 58.500 C 152.778 58.005,152.778 57.195,152.682 56.700 C 152.587 56.205,152.509 56.610,152.509 57.600 M62.493 65.600 C 62.493 66.370,62.575 66.685,62.676 66.300 C 62.776 65.915,62.776 65.285,62.676 64.900 C 62.575 64.515,62.493 64.830,62.493 65.600 M61.342 83.400 C 61.341 85.380,61.408 86.240,61.492 85.312 C 61.576 84.384,61.577 82.764,61.495 81.712 C 61.412 80.660,61.343 81.420,61.342 83.400 M60.957 94.800 C 60.957 97.770,61.020 98.985,61.097 97.500 C 61.174 96.015,61.174 93.585,61.097 92.100 C 61.020 90.615,60.957 91.830,60.957 94.800 M154.531 100.600 C 154.533 102.140,154.605 102.721,154.692 101.891 C 154.779 101.061,154.777 99.801,154.689 99.091 C 154.600 98.381,154.529 99.060,154.531 100.600 M60.960 110.600 C 60.961 113.900,61.022 115.197,61.098 113.482 C 61.173 111.767,61.172 109.067,61.097 107.482 C 61.021 105.897,60.959 107.300,60.960 110.600 M156.400 115.576 C 156.400 116.223,156.542 116.841,156.716 116.948 C 156.890 117.056,156.961 116.527,156.873 115.772 C 156.676 114.091,156.400 113.977,156.400 115.576 M61.348 123.600 C 61.348 125.910,61.414 126.855,61.495 125.700 C 61.576 124.545,61.576 122.655,61.495 121.500 C 61.414 120.345,61.348 121.290,61.348 123.600 M158.400 125.376 C 158.400 125.913,158.547 126.444,158.728 126.555 C 158.908 126.667,158.977 126.227,158.882 125.579 C 158.672 124.149,158.400 124.035,158.400 125.376 M61.693 132.000 C 61.693 132.770,61.775 133.085,61.876 132.700 C 61.976 132.315,61.976 131.685,61.876 131.300 C 61.775 130.915,61.693 131.230,61.693 132.000 M160.400 132.976 C 160.400 133.513,160.547 134.044,160.728 134.155 C 160.908 134.267,160.977 133.827,160.882 133.179 C 160.672 131.749,160.400 131.635,160.400 132.976 M62.093 140.000 C 62.093 140.770,62.175 141.085,62.276 140.700 C 62.376 140.315,62.376 139.685,62.276 139.300 C 62.175 138.915,62.093 139.230,62.093 140.000 M62.509 147.600 C 62.509 148.590,62.587 148.995,62.682 148.500 C 62.778 148.005,62.778 147.195,62.682 146.700 C 62.587 146.205,62.509 146.610,62.509 147.600 M62.914 154.200 C 62.917 155.300,62.995 155.703,63.087 155.095 C 63.179 154.486,63.177 153.586,63.082 153.095 C 62.987 152.603,62.911 153.100,62.914 154.200 M63.314 158.600 C 63.317 159.700,63.395 160.103,63.487 159.495 C 63.579 158.886,63.577 157.986,63.482 157.495 C 63.387 157.003,63.311 157.500,63.314 158.600 M186.800 172.546 C 186.800 172.656,187.340 173.130,188.000 173.600 C 188.660 174.070,189.200 174.364,189.200 174.254 C 189.200 174.144,188.660 173.670,188.000 173.200 C 187.340 172.730,186.800 172.436,186.800 172.546 M64.493 176.400 C 64.493 177.170,64.575 177.485,64.676 177.100 C 64.776 176.715,64.776 176.085,64.676 175.700 C 64.575 175.315,64.493 175.630,64.493 176.400 M64.909 182.000 C 64.909 182.990,64.987 183.395,65.082 182.900 C 65.178 182.405,65.178 181.595,65.082 181.100 C 64.987 180.605,64.909 181.010,64.909 182.000 M65.301 185.800 C 65.305 186.680,65.387 186.993,65.483 186.495 C 65.579 185.998,65.575 185.278,65.475 184.895 C 65.375 184.513,65.296 184.920,65.301 185.800 M66.493 201.200 C 66.493 201.970,66.575 202.285,66.676 201.900 C 66.776 201.515,66.776 200.885,66.676 200.500 C 66.575 200.115,66.493 200.430,66.493 201.200 M66.909 206.400 C 66.909 207.390,66.987 207.795,67.082 207.300 C 67.178 206.805,67.178 205.995,67.082 205.500 C 66.987 205.005,66.909 205.410,66.909 206.400 M67.293 210.000 C 67.293 210.770,67.375 211.085,67.476 210.700 C 67.576 210.315,67.576 209.685,67.476 209.300 C 67.375 208.915,67.293 209.230,67.293 210.000 M68.893 226.400 C 68.893 227.170,68.975 227.485,69.076 227.100 C 69.176 226.715,69.176 226.085,69.076 225.700 C 68.975 225.315,68.893 225.630,68.893 226.400 M69.293 229.200 C 69.293 229.970,69.375 230.285,69.476 229.900 C 69.576 229.515,69.576 228.885,69.476 228.500 C 69.375 228.115,69.293 228.430,69.293 229.200 M71.293 248.000 C 71.293 248.770,71.375 249.085,71.476 248.700 C 71.576 248.315,71.576 247.685,71.476 247.300 C 71.375 246.915,71.293 247.230,71.293 248.000 M167.061 256.700 C 166.958 256.865,169.063 256.953,171.737 256.896 C 180.566 256.706,181.500 256.555,174.324 256.477 C 170.432 256.435,167.163 256.535,167.061 256.700 M191.105 258.683 C 191.602 258.779,192.322 258.775,192.705 258.675 C 193.087 258.575,192.680 258.496,191.800 258.501 C 190.920 258.505,190.607 258.587,191.105 258.683 M206.206 262.410 C 206.306 262.572,206.835 262.790,207.382 262.894 C 207.929 262.999,208.294 262.952,208.194 262.790 C 208.094 262.628,207.565 262.410,207.018 262.306 C 206.471 262.201,206.106 262.248,206.206 262.410 M146.368 273.300 C 146.249 274.160,146.310 274.650,146.512 274.448 C 146.705 274.255,146.798 273.581,146.719 272.949 C 146.587 271.891,146.559 271.919,146.368 273.300 M266.383 296.100 C 268.041 297.866,268.400 298.184,268.400 297.883 C 268.400 297.819,267.545 296.964,266.500 295.983 L 264.600 294.200 266.383 296.100 M160.331 346.910 C 160.414 347.840,160.603 348.730,160.751 348.890 C 160.898 349.049,160.951 348.419,160.869 347.490 C 160.786 346.560,160.597 345.670,160.449 345.510 C 160.302 345.351,160.249 345.981,160.331 346.910 M378.400 351.376 C 378.400 351.913,378.547 352.444,378.728 352.555 C 378.908 352.667,378.977 352.227,378.882 351.579 C 378.672 350.149,378.400 350.035,378.400 351.376 M160.569 359.337 C 160.455 359.633,160.418 361.208,160.486 362.837 L 160.609 365.800 160.804 362.299 C 160.999 358.811,160.960 358.317,160.569 359.337 M380.446 362.876 C 380.421 363.908,380.542 364.841,380.716 364.948 C 380.890 365.056,380.970 364.482,380.893 363.672 C 380.659 361.198,380.495 360.907,380.446 362.876 M156.432 375.169 C 156.414 375.481,156.092 376.111,155.715 376.569 C 155.069 377.353,155.083 377.351,155.962 376.542 C 156.475 376.070,156.797 375.440,156.679 375.142 C 156.504 374.703,156.457 374.708,156.432 375.169 M380.528 377.200 C 380.528 378.630,380.601 379.215,380.689 378.500 C 380.778 377.785,380.778 376.615,380.689 375.900 C 380.601 375.185,380.528 375.770,380.528 377.200 M310.000 380.125 C 310.000 380.194,310.585 380.779,311.300 381.425 L 312.600 382.600 311.425 381.300 C 310.330 380.088,310.000 379.816,310.000 380.125 M124.705 396.683 C 125.202 396.779,125.922 396.775,126.305 396.675 C 126.687 396.575,126.280 396.496,125.400 396.501 C 124.520 396.505,124.207 396.587,124.705 396.683 M115.000 398.291 C 113.284 398.535,112.920 399.072,114.604 398.875 C 115.376 398.785,116.106 398.551,116.227 398.356 C 116.348 398.160,116.392 398.027,116.324 398.060 C 116.256 398.093,115.660 398.197,115.000 398.291 " stroke="none" fill="#9e9e9e" fill-rule="evenodd"></path><path id="path3" d="M103.300 1.076 C 103.685 1.176,104.315 1.176,104.700 1.076 C 105.085 0.975,104.770 0.893,104.000 0.893 C 103.230 0.893,102.915 0.975,103.300 1.076 M108.500 1.096 C 109.765 1.175,111.835 1.175,113.100 1.096 C 114.365 1.016,113.330 0.951,110.800 0.951 C 108.270 0.951,107.235 1.016,108.500 1.096 M150.914 47.000 C 150.917 48.100,150.995 48.503,151.087 47.895 C 151.179 47.286,151.177 46.386,151.082 45.895 C 150.987 45.403,150.911 45.900,150.914 47.000 M152.797 63.318 L 152.995 67.400 153.113 63.636 C 153.178 61.566,153.090 59.729,152.916 59.554 C 152.742 59.379,152.689 61.073,152.797 63.318 M61.293 88.000 C 61.293 88.770,61.375 89.085,61.476 88.700 C 61.576 88.315,61.576 87.685,61.476 87.300 C 61.375 86.915,61.293 87.230,61.293 88.000 M60.928 102.400 C 60.928 103.830,61.001 104.415,61.089 103.700 C 61.178 102.985,61.178 101.815,61.089 101.100 C 61.001 100.385,60.928 100.970,60.928 102.400 M154.734 105.718 C 154.807 107.083,154.987 108.327,155.134 108.482 C 155.280 108.636,155.340 107.646,155.266 106.282 C 155.193 104.917,155.013 103.673,154.866 103.518 C 154.720 103.364,154.660 104.354,154.734 105.718 M61.301 118.200 C 61.305 119.080,61.387 119.393,61.483 118.895 C 61.579 118.398,61.575 117.678,61.475 117.295 C 61.375 116.913,61.296 117.320,61.301 118.200 M156.893 118.400 C 156.893 119.170,156.975 119.485,157.076 119.100 C 157.176 118.715,157.176 118.085,157.076 117.700 C 156.975 117.315,156.893 117.630,156.893 118.400 M181.431 256.850 C 181.521 256.996,182.301 257.183,183.164 257.265 C 184.027 257.347,184.659 257.295,184.569 257.150 C 184.479 257.004,183.699 256.817,182.836 256.735 C 181.973 256.653,181.341 256.705,181.431 256.850 M193.431 258.850 C 193.521 258.996,194.301 259.183,195.164 259.265 C 196.027 259.347,196.659 259.295,196.569 259.150 C 196.479 259.004,195.699 258.817,194.836 258.735 C 193.973 258.653,193.341 258.705,193.431 258.850 M376.752 344.487 C 376.937 345.598,376.993 345.655,377.119 344.854 C 377.201 344.333,377.103 343.743,376.901 343.541 C 376.679 343.319,376.621 343.693,376.752 344.487 M160.832 350.676 C 160.814 351.598,160.942 352.441,161.116 352.548 C 161.290 352.656,161.367 352.082,161.287 351.272 C 161.069 349.058,160.867 348.795,160.832 350.676 M160.934 356.000 C 160.934 357.650,161.005 358.325,161.091 357.500 C 161.178 356.675,161.178 355.325,161.091 354.500 C 161.005 353.675,160.934 354.350,160.934 356.000 M380.914 367.000 C 380.917 368.100,380.995 368.503,381.087 367.895 C 381.179 367.286,381.177 366.386,381.082 365.895 C 380.987 365.403,380.911 365.900,380.914 367.000 M380.795 372.082 C 380.688 373.557,380.745 374.618,380.922 374.440 C 381.099 374.262,381.186 373.055,381.117 371.758 L 380.990 369.400 380.795 372.082 M122.100 397.076 C 122.485 397.176,123.115 397.176,123.500 397.076 C 123.885 396.975,123.570 396.893,122.800 396.893 C 122.030 396.893,121.715 396.975,122.100 397.076 M341.300 399.087 C 341.905 399.178,342.895 399.178,343.500 399.087 C 344.105 398.995,343.610 398.920,342.400 398.920 C 341.190 398.920,340.695 398.995,341.300 399.087 " stroke="none" fill="#7c7c7c" fill-rule="evenodd"></path><path id="path4" d="M151.131 50.510 C 151.214 51.440,151.403 52.330,151.551 52.490 C 151.698 52.649,151.751 52.019,151.669 51.090 C 151.586 50.160,151.397 49.270,151.249 49.110 C 151.102 48.951,151.049 49.581,151.131 50.510 M62.901 64.600 C 62.905 65.480,62.987 65.793,63.083 65.295 C 63.179 64.798,63.175 64.078,63.075 63.695 C 62.975 63.313,62.896 63.720,62.901 64.600 M153.197 71.318 L 153.395 75.400 153.513 71.636 C 153.578 69.566,153.490 67.729,153.316 67.554 C 153.142 67.379,153.089 69.073,153.197 71.318 M62.501 69.000 C 62.505 69.880,62.587 70.193,62.683 69.695 C 62.779 69.198,62.775 68.478,62.675 68.095 C 62.575 67.713,62.496 68.120,62.501 69.000 M61.340 92.400 C 61.340 94.270,61.409 95.035,61.493 94.100 C 61.577 93.165,61.577 91.635,61.493 90.700 C 61.409 89.765,61.340 90.530,61.340 92.400 M155.293 110.000 C 155.293 110.770,155.375 111.085,155.476 110.700 C 155.576 110.315,155.576 109.685,155.476 109.300 C 155.375 108.915,155.293 109.230,155.293 110.000 M61.344 113.200 C 61.344 115.290,61.412 116.145,61.494 115.100 C 61.576 114.055,61.576 112.345,61.494 111.300 C 61.412 110.255,61.344 111.110,61.344 113.200 M157.128 121.032 C 157.216 121.788,157.411 122.483,157.561 122.576 C 157.710 122.668,157.761 122.125,157.672 121.368 C 157.584 120.612,157.389 119.917,157.239 119.824 C 157.090 119.732,157.039 120.275,157.128 121.032 M62.093 136.800 C 62.093 137.570,62.175 137.885,62.276 137.500 C 62.376 137.115,62.376 136.485,62.276 136.100 C 62.175 135.715,62.093 136.030,62.093 136.800 M62.520 143.200 C 62.520 144.410,62.595 144.905,62.687 144.300 C 62.778 143.695,62.778 142.705,62.687 142.100 C 62.595 141.495,62.520 141.990,62.520 143.200 M62.920 149.200 C 62.920 150.410,62.995 150.905,63.087 150.300 C 63.178 149.695,63.178 148.705,63.087 148.100 C 62.995 147.495,62.920 147.990,62.920 149.200 M64.509 172.800 C 64.509 173.790,64.587 174.195,64.682 173.700 C 64.778 173.205,64.778 172.395,64.682 171.900 C 64.587 171.405,64.509 171.810,64.509 172.800 M64.909 177.600 C 64.909 178.590,64.987 178.995,65.082 178.500 C 65.178 178.005,65.178 177.195,65.082 176.700 C 64.987 176.205,64.909 176.610,64.909 177.600 M66.509 198.000 C 66.509 198.990,66.587 199.395,66.682 198.900 C 66.778 198.405,66.778 197.595,66.682 197.100 C 66.587 196.605,66.509 197.010,66.509 198.000 M66.901 202.200 C 66.905 203.080,66.987 203.393,67.083 202.895 C 67.179 202.398,67.175 201.678,67.075 201.295 C 66.975 200.913,66.896 201.320,66.901 202.200 M68.893 223.200 C 68.893 223.970,68.975 224.285,69.076 223.900 C 69.176 223.515,69.176 222.885,69.076 222.500 C 68.975 222.115,68.893 222.430,68.893 223.200 M310.800 231.746 C 310.800 231.856,311.340 232.330,312.000 232.800 C 312.660 233.270,313.200 233.564,313.200 233.454 C 313.200 233.344,312.660 232.870,312.000 232.400 C 311.340 231.930,310.800 231.636,310.800 231.746 M70.893 242.400 C 70.893 243.170,70.975 243.485,71.076 243.100 C 71.176 242.715,71.176 242.085,71.076 241.700 C 70.975 241.315,70.893 241.630,70.893 242.400 M163.400 257.200 L 162.200 257.505 163.276 257.553 C 163.868 257.579,164.464 257.420,164.600 257.200 C 164.736 256.980,164.792 256.821,164.724 256.847 C 164.656 256.873,164.060 257.032,163.400 257.200 M185.300 257.476 C 185.685 257.576,186.315 257.576,186.700 257.476 C 187.085 257.375,186.770 257.293,186.000 257.293 C 185.230 257.293,184.915 257.375,185.300 257.476 M337.200 260.000 C 337.670 260.660,338.144 261.200,338.254 261.200 C 338.364 261.200,338.070 260.660,337.600 260.000 C 337.130 259.340,336.656 258.800,336.546 258.800 C 336.436 258.800,336.730 259.340,337.200 260.000 M74.493 274.800 C 74.493 275.570,74.575 275.885,74.676 275.500 C 74.776 275.115,74.776 274.485,74.676 274.100 C 74.575 273.715,74.493 274.030,74.493 274.800 M145.368 285.000 C 145.368 289.400,145.426 291.255,145.498 289.121 C 145.570 286.988,145.570 283.388,145.499 281.121 C 145.427 278.855,145.368 280.600,145.368 285.000 M265.600 295.000 C 266.795 296.210,267.863 297.200,267.973 297.200 C 268.083 297.200,267.195 296.210,266.000 295.000 C 264.805 293.790,263.737 292.800,263.627 292.800 C 263.517 292.800,264.405 293.790,265.600 295.000 M159.193 339.719 L 159.385 341.800 159.518 340.046 C 159.591 339.081,159.505 338.144,159.326 337.965 C 159.147 337.785,159.087 338.575,159.193 339.719 M313.200 383.325 C 313.200 383.394,313.785 383.979,314.500 384.625 L 315.800 385.800 314.625 384.500 C 313.530 383.288,313.200 383.016,313.200 383.325 M119.700 397.476 C 120.085 397.576,120.715 397.576,121.100 397.476 C 121.485 397.375,121.170 397.293,120.400 397.293 C 119.630 397.293,119.315 397.375,119.700 397.476 M101.800 399.200 L 92.600 399.423 101.676 399.511 C 107.393 399.567,110.844 399.452,111.000 399.200 C 111.136 398.980,111.192 398.840,111.124 398.889 C 111.056 398.937,106.860 399.078,101.800 399.200 M344.662 399.300 C 344.764 399.465,348.426 399.600,352.800 399.600 C 357.174 399.600,360.836 399.465,360.938 399.300 C 361.040 399.135,357.378 399.000,352.800 399.000 C 348.222 399.000,344.560 399.135,344.662 399.300 " stroke="none" fill="#747474" fill-rule="evenodd"></path></g></svg>