<svg id="svg" version="1.1" xmlns="http://www.w3.org/2000/svg" xmlns:xlink="http://www.w3.org/1999/xlink" width="400" height="400" viewBox="0, 0, 400,400"><g id="svgg"><path id="path0" d="M193.152 17.608 C 188.655 17.734,185.485 17.990,185.152 18.256 C 184.848 18.498,182.530 18.998,180.000 19.367 C 177.470 19.736,175.040 20.198,174.600 20.393 C 174.160 20.589,172.270 21.110,170.400 21.551 C 163.504 23.179,160.640 23.987,158.945 24.784 C 157.990 25.233,157.091 25.600,156.948 25.600 C 156.805 25.600,155.948 25.951,155.044 26.380 C 154.140 26.810,152.068 27.728,150.439 28.422 C 148.810 29.115,145.075 31.014,142.139 32.641 C 139.202 34.269,136.664 35.603,136.500 35.607 C 136.335 35.611,135.390 36.154,134.400 36.813 C 132.256 38.241,132.400 38.146,127.591 41.301 C 123.193 44.187,116.019 49.718,111.399 53.783 C 109.639 55.332,107.749 56.960,107.199 57.400 C 106.650 57.840,105.930 58.587,105.600 59.059 C 105.270 59.532,103.960 61.366,102.689 63.135 C 93.991 75.245,92.736 87.587,99.085 98.588 C 100.105 100.355,102.143 104.140,103.614 107.000 C 105.085 109.860,107.188 113.820,108.288 115.800 C 114.873 127.661,120.074 137.861,123.378 145.400 C 124.632 148.260,126.565 152.670,127.673 155.200 C 128.782 157.730,130.096 160.700,130.593 161.800 C 131.090 162.900,131.959 164.880,132.523 166.200 C 133.088 167.520,134.217 170.130,135.032 172.000 C 135.847 173.870,137.006 176.660,137.608 178.200 C 138.209 179.740,139.243 182.350,139.905 184.000 C 141.393 187.706,143.151 193.159,144.806 199.200 C 145.499 201.730,146.320 204.610,146.631 205.600 C 146.943 206.590,147.476 209.560,147.818 212.200 C 151.264 238.842,149.793 255.049,141.965 276.674 C 139.321 283.977,138.832 285.143,136.048 290.800 C 128.973 305.176,101.966 334.122,84.535 346.010 C 84.059 346.335,80.573 348.850,76.788 351.600 C 65.633 359.704,48.942 371.105,41.652 375.600 C 38.987 377.243,37.748 378.011,33.600 380.591 C 32.830 381.070,31.480 381.915,30.600 382.469 C 26.367 385.136,24.337 386.320,15.600 391.221 C 10.430 394.121,5.660 396.773,5.000 397.115 C 4.340 397.456,3.173 398.154,2.407 398.667 L 1.014 399.600 163.707 399.600 C 271.902 399.600,326.400 399.466,326.400 399.200 C 326.400 398.963,327.855 398.800,329.965 398.800 C 333.943 398.800,342.622 397.779,343.695 397.185 C 344.077 396.973,344.977 396.797,345.695 396.794 C 347.001 396.788,349.544 396.047,351.800 395.015 C 352.460 394.713,353.680 394.340,354.511 394.187 C 355.367 394.028,356.196 393.581,356.425 393.153 C 356.647 392.739,357.018 392.400,357.250 392.400 C 358.327 392.400,360.783 390.167,360.791 389.180 C 360.796 388.619,360.964 387.989,361.165 387.780 C 362.809 386.071,358.552 378.809,355.144 377.510 C 354.725 377.350,354.281 376.956,354.158 376.635 C 353.905 375.975,349.198 372.800,348.472 372.800 C 348.212 372.800,348.000 372.614,348.000 372.387 C 348.000 372.161,347.685 371.860,347.300 371.720 C 346.915 371.580,345.848 370.956,344.928 370.333 C 344.008 369.710,343.072 369.200,342.848 369.200 C 342.623 369.200,342.296 368.971,342.120 368.692 C 341.944 368.412,341.350 367.964,340.800 367.696 C 340.250 367.428,338.630 366.489,337.200 365.609 C 335.770 364.729,334.015 363.735,333.300 363.399 C 332.585 363.064,332.000 362.612,332.000 362.395 C 332.000 362.178,331.757 362.000,331.460 362.000 C 331.163 362.000,330.175 361.460,329.263 360.800 C 328.352 360.140,327.496 359.600,327.359 359.600 C 327.223 359.600,325.917 358.734,324.456 357.676 C 322.995 356.617,321.530 355.647,321.200 355.519 C 320.870 355.391,319.377 354.366,317.882 353.243 C 316.387 352.119,314.998 351.200,314.796 351.200 C 314.594 351.200,314.235 350.840,314.000 350.400 C 313.765 349.960,313.392 349.600,313.172 349.600 C 312.743 349.600,306.088 344.350,304.346 342.636 C 303.766 342.066,303.073 341.600,302.806 341.600 C 302.164 341.600,282.000 321.459,282.000 320.817 C 282.000 320.544,281.505 319.827,280.900 319.224 C 279.412 317.741,276.000 313.046,276.000 312.482 C 276.000 312.232,275.640 311.835,275.200 311.600 C 274.760 311.365,274.400 310.977,274.400 310.740 C 274.400 310.502,273.770 309.449,273.000 308.400 C 272.230 307.351,271.600 306.292,271.600 306.046 C 271.600 305.801,271.420 305.600,271.200 305.600 C 270.980 305.600,270.800 305.406,270.800 305.168 C 270.800 304.930,270.213 303.805,269.495 302.668 C 267.456 299.437,267.440 299.407,263.617 291.834 C 261.628 287.893,259.999 284.473,259.998 284.234 C 259.996 283.995,259.763 283.350,259.479 282.800 C 259.195 282.250,258.631 280.720,258.226 279.400 C 257.821 278.080,257.340 276.808,257.156 276.572 C 256.972 276.337,256.533 274.899,256.180 273.376 C 255.827 271.853,255.401 270.425,255.233 270.203 C 255.066 269.982,254.618 268.360,254.239 266.600 C 253.860 264.840,253.407 263.130,253.234 262.800 C 253.060 262.470,252.590 260.310,252.189 258.000 C 251.789 255.690,251.345 253.710,251.203 253.600 C 249.683 252.422,249.723 215.052,251.246 213.420 C 251.441 213.211,251.600 212.555,251.600 211.963 C 251.600 210.534,252.820 204.654,253.169 204.400 C 253.320 204.290,253.766 202.670,254.160 200.800 C 254.554 198.930,255.011 197.220,255.176 197.000 C 255.340 196.780,255.792 195.430,256.180 194.000 C 256.569 192.570,257.019 191.220,257.180 191.000 C 257.342 190.780,257.792 189.430,258.180 188.000 C 258.569 186.570,259.017 185.220,259.177 185.000 C 259.338 184.780,259.793 183.520,260.189 182.200 C 260.586 180.880,261.045 179.620,261.210 179.400 C 261.375 179.180,261.833 177.965,262.228 176.700 C 262.623 175.435,263.074 174.400,263.230 174.400 C 263.386 174.400,263.634 173.905,263.783 173.300 C 263.931 172.695,264.580 171.075,265.226 169.699 C 265.872 168.323,266.400 167.101,266.400 166.982 C 266.400 166.864,266.940 165.612,267.600 164.200 C 268.260 162.788,268.800 161.356,268.800 161.017 C 268.800 160.678,268.940 160.400,269.112 160.400 C 269.284 160.400,269.773 159.500,270.200 158.400 C 270.627 157.300,271.116 156.400,271.288 156.400 C 271.460 156.400,271.600 156.122,271.600 155.783 C 271.600 155.444,272.153 153.959,272.829 152.483 C 273.505 151.007,274.470 148.900,274.974 147.800 C 275.478 146.700,276.890 143.730,278.113 141.200 C 279.335 138.670,280.465 136.150,280.622 135.600 C 280.779 135.050,281.024 134.510,281.165 134.400 C 281.306 134.290,281.772 133.390,282.200 132.400 C 282.628 131.410,283.078 130.510,283.200 130.400 C 283.322 130.290,283.772 129.390,284.200 128.400 C 284.628 127.410,285.078 126.510,285.200 126.400 C 285.322 126.290,285.772 125.390,286.200 124.400 C 286.628 123.410,287.073 122.510,287.189 122.400 C 287.475 122.128,288.562 120.134,290.898 115.600 C 291.974 113.510,293.569 110.630,294.443 109.200 C 295.316 107.770,296.243 106.105,296.503 105.500 C 296.763 104.895,297.097 104.400,297.246 104.400 C 297.394 104.400,298.278 102.825,299.210 100.900 C 300.142 98.975,301.119 97.130,301.383 96.800 C 301.646 96.470,302.085 95.390,302.357 94.400 C 302.629 93.410,303.194 91.850,303.613 90.932 C 306.253 85.148,303.531 71.923,298.399 65.600 C 297.595 64.610,296.271 62.783,295.457 61.541 C 294.019 59.347,285.565 50.800,284.833 50.800 C 284.632 50.800,284.048 50.443,283.534 50.006 C 281.165 47.992,275.600 43.734,274.558 43.139 C 273.147 42.333,268.985 39.538,267.559 38.439 C 266.986 37.997,265.996 37.407,265.359 37.126 C 264.721 36.846,264.110 36.523,264.000 36.408 C 263.307 35.687,249.427 28.800,248.667 28.800 C 248.300 28.800,247.999 28.665,247.999 28.500 C 247.998 28.335,247.143 27.863,246.099 27.451 C 245.054 27.040,243.310 26.275,242.221 25.751 C 241.133 25.228,239.929 24.800,239.545 24.800 C 239.161 24.800,238.756 24.652,238.645 24.472 C 238.533 24.292,237.038 23.801,235.321 23.382 C 233.604 22.963,232.110 22.517,232.000 22.391 C 231.693 22.039,226.932 20.800,225.886 20.800 C 225.377 20.800,224.789 20.645,224.580 20.456 C 224.371 20.267,222.220 19.807,219.800 19.434 C 217.380 19.060,215.130 18.638,214.800 18.495 C 213.546 17.951,200.293 17.409,193.152 17.608 " stroke="none" fill="#040404" fill-rule="evenodd"></path><path id="path1" d="M0.000 200.000 L 0.000 400.000 200.000 400.000 L 400.000 400.000 400.000 200.000 L 400.000 0.000 200.000 0.000 L 0.000 0.000 0.000 200.000 M207.380 17.638 C 207.589 17.837,209.082 18.000,210.698 18.000 C 213.695 18.000,221.638 19.125,222.000 19.601 C 222.110 19.746,223.710 20.074,225.555 20.330 C 227.400 20.586,229.462 21.071,230.137 21.408 C 230.812 21.745,232.530 22.291,233.954 22.621 C 235.379 22.952,236.737 23.381,236.972 23.575 C 237.208 23.769,238.120 24.057,239.000 24.214 C 239.880 24.371,241.410 24.902,242.400 25.392 C 243.390 25.883,245.190 26.734,246.400 27.282 C 253.563 30.527,253.810 30.648,258.600 33.204 C 260.800 34.378,263.600 35.832,264.823 36.435 C 266.045 37.038,267.282 37.817,267.572 38.166 C 267.861 38.515,268.346 38.800,268.649 38.800 C 268.952 38.800,269.200 38.986,269.200 39.213 C 269.200 39.439,269.515 39.738,269.900 39.876 C 270.285 40.014,271.434 40.728,272.454 41.463 C 273.473 42.198,274.508 42.800,274.754 42.800 C 274.999 42.800,275.200 42.984,275.200 43.210 C 275.200 43.435,275.611 43.776,276.114 43.967 C 276.617 44.158,278.128 45.234,279.473 46.357 C 280.817 47.481,282.095 48.400,282.313 48.400 C 282.530 48.400,283.003 48.850,283.363 49.400 C 283.724 49.950,284.283 50.400,284.606 50.400 C 284.929 50.400,285.418 50.760,285.693 51.200 C 285.968 51.640,286.391 52.000,286.633 52.000 C 287.304 52.000,295.600 60.657,295.600 61.358 C 295.600 61.696,295.960 62.165,296.400 62.400 C 296.840 62.635,297.200 63.017,297.200 63.247 C 297.200 63.477,297.830 64.434,298.600 65.374 C 299.370 66.314,300.000 67.289,300.000 67.541 C 300.000 67.794,300.162 68.000,300.360 68.000 C 300.558 68.000,301.043 68.900,301.439 70.000 C 301.834 71.100,302.289 72.000,302.448 72.000 C 302.845 72.000,303.501 74.185,303.829 76.600 C 303.979 77.700,304.274 78.817,304.486 79.083 C 304.964 79.685,304.915 89.281,304.432 89.581 C 304.238 89.702,303.766 90.878,303.384 92.195 C 303.001 93.513,302.505 94.953,302.281 95.395 C 302.058 95.838,301.708 96.536,301.504 96.948 C 299.620 100.748,296.552 106.385,295.948 107.154 C 295.537 107.679,295.200 108.345,295.200 108.634 C 295.200 108.923,294.971 109.304,294.692 109.480 C 294.412 109.656,293.956 110.250,293.679 110.800 C 293.402 111.350,292.123 113.780,290.837 116.200 C 286.333 124.672,277.283 143.053,275.377 147.600 C 274.962 148.590,274.506 149.490,274.365 149.600 C 274.224 149.710,273.979 150.250,273.821 150.800 C 273.547 151.759,272.614 153.895,270.592 158.200 C 267.985 163.749,267.227 165.493,266.981 166.500 C 266.834 167.105,266.581 167.600,266.420 167.600 C 266.259 167.600,265.903 168.365,265.629 169.300 C 265.355 170.235,264.911 171.360,264.642 171.800 C 264.373 172.240,263.819 173.500,263.412 174.600 C 263.004 175.700,262.452 176.960,262.185 177.400 C 261.918 177.840,261.491 179.072,261.235 180.137 C 260.979 181.203,260.531 182.463,260.239 182.937 C 259.947 183.412,259.476 184.700,259.192 185.800 C 258.908 186.900,258.543 187.980,258.381 188.200 C 258.219 188.420,257.769 189.770,257.380 191.200 C 256.992 192.630,256.528 193.992,256.348 194.228 C 256.169 194.463,255.740 195.872,255.395 197.359 C 255.050 198.845,254.607 200.363,254.409 200.731 C 254.212 201.099,253.740 202.840,253.361 204.600 C 252.982 206.360,252.510 208.011,252.312 208.270 C 252.114 208.528,251.682 211.318,251.351 214.470 C 251.021 217.621,250.582 220.513,250.375 220.895 C 249.904 221.767,249.876 242.400,250.346 242.400 C 250.536 242.400,250.816 244.695,250.967 247.500 C 251.252 252.782,251.907 257.652,252.379 258.000 C 252.528 258.110,252.984 260.045,253.392 262.300 C 253.800 264.555,254.250 266.400,254.392 266.400 C 254.533 266.400,254.979 267.885,255.383 269.700 C 255.787 271.515,256.254 273.180,256.423 273.400 C 256.591 273.620,257.025 274.948,257.388 276.351 C 257.751 277.754,258.283 279.284,258.570 279.751 C 258.857 280.218,259.318 281.449,259.594 282.487 C 260.146 284.559,267.500 299.514,268.404 300.400 C 268.516 300.510,268.966 301.320,269.404 302.200 C 269.842 303.080,270.425 303.944,270.700 304.120 C 270.975 304.296,271.200 304.643,271.200 304.891 C 271.200 305.269,273.766 309.366,274.400 310.000 C 274.995 310.595,278.000 315.218,278.000 315.538 C 278.000 315.745,278.273 316.019,278.606 316.147 C 278.939 316.275,279.385 316.834,279.596 317.390 C 279.807 317.945,280.141 318.400,280.337 318.400 C 280.533 318.400,281.169 319.119,281.751 319.997 C 283.114 322.058,295.136 334.376,299.800 338.492 C 301.780 340.240,303.980 342.194,304.689 342.835 C 305.398 343.476,306.150 344.000,306.360 344.000 C 306.570 344.000,307.096 344.450,307.529 345.000 C 307.961 345.550,308.442 346.000,308.598 346.000 C 308.753 346.000,310.258 347.080,311.940 348.399 C 317.010 352.375,319.839 354.400,320.321 354.400 C 320.502 354.400,321.004 354.715,321.439 355.100 C 322.592 356.123,325.972 358.400,326.336 358.400 C 326.508 358.400,326.998 358.723,327.425 359.117 C 327.851 359.512,329.370 360.533,330.800 361.386 C 332.230 362.239,334.040 363.356,334.822 363.869 C 335.603 364.381,336.458 364.800,336.722 364.800 C 336.985 364.800,337.200 364.986,337.200 365.213 C 337.200 365.439,337.515 365.740,337.900 365.881 C 339.221 366.363,344.000 369.326,344.000 369.663 C 344.000 369.848,344.243 370.000,344.540 370.000 C 344.837 370.000,345.782 370.499,346.640 371.108 C 347.498 371.717,348.650 372.449,349.200 372.735 C 351.535 373.946,352.662 374.672,353.658 375.607 C 354.240 376.153,355.652 377.410,356.797 378.400 C 359.832 381.026,360.000 381.204,360.000 381.795 C 360.000 382.091,360.135 382.393,360.300 382.467 C 360.465 382.540,360.892 383.233,361.249 384.006 C 363.352 388.564,359.216 393.426,351.548 395.413 C 350.201 395.763,348.716 396.281,348.249 396.565 C 347.782 396.849,345.420 397.308,343.000 397.585 C 340.580 397.862,338.390 398.258,338.134 398.465 C 336.854 399.500,0.787 400.332,0.805 399.300 C 0.808 399.135,5.509 396.390,11.251 393.200 C 23.880 386.183,26.320 384.781,29.891 382.486 C 30.820 381.889,32.980 380.539,34.691 379.487 C 36.401 378.435,39.330 376.593,41.200 375.394 C 43.070 374.195,44.870 373.088,45.200 372.934 C 45.911 372.602,48.932 370.625,52.000 368.483 C 53.210 367.638,56.540 365.356,59.400 363.412 C 62.260 361.469,65.157 359.456,65.838 358.939 C 66.519 358.423,67.194 358.000,67.338 358.000 C 67.482 358.000,67.943 357.685,68.363 357.300 C 68.782 356.915,70.416 355.700,71.994 354.600 C 73.571 353.500,75.464 352.150,76.200 351.600 C 76.936 351.050,78.828 349.700,80.404 348.600 C 81.981 347.500,85.100 345.108,87.335 343.285 C 91.431 339.944,92.000 339.471,97.772 334.611 C 101.053 331.849,112.486 321.116,114.401 319.000 C 121.979 310.630,128.195 302.980,132.636 296.561 C 136.748 290.617,145.202 267.792,146.619 258.805 C 146.775 257.818,147.161 256.288,147.478 255.405 C 149.754 249.057,149.587 224.986,147.168 210.802 C 145.946 203.634,141.475 188.458,138.539 181.511 C 137.769 179.690,136.881 177.480,136.565 176.600 C 136.249 175.720,135.730 174.460,135.412 173.800 C 135.094 173.140,134.189 171.070,133.400 169.200 C 132.611 167.330,131.714 165.260,131.407 164.600 C 130.066 161.724,128.406 157.982,127.236 155.200 C 126.543 153.550,125.722 151.660,125.413 151.000 C 125.105 150.340,124.278 148.450,123.576 146.800 C 122.875 145.150,121.404 141.910,120.308 139.600 C 119.212 137.290,118.151 135.040,117.951 134.600 C 117.751 134.160,117.087 132.900,116.477 131.800 C 115.867 130.700,114.134 127.460,112.626 124.600 C 111.118 121.740,108.681 117.240,107.210 114.600 C 105.739 111.960,103.678 108.090,102.631 106.000 C 100.276 101.301,98.030 97.194,97.380 96.400 C 95.417 94.001,94.149 82.161,95.345 77.400 C 95.677 76.080,96.056 74.495,96.188 73.877 C 96.443 72.680,99.992 66.071,101.277 64.400 C 101.700 63.850,102.945 62.181,104.042 60.692 C 105.840 58.254,114.662 50.057,117.200 48.467 C 117.750 48.122,118.493 47.561,118.852 47.220 C 120.421 45.728,130.814 38.400,131.361 38.400 C 131.442 38.400,132.564 37.705,133.854 36.856 C 136.049 35.412,140.391 33.033,147.020 29.642 C 149.758 28.242,150.990 27.690,153.324 26.821 C 153.942 26.590,155.382 25.976,156.524 25.456 C 157.666 24.936,159.050 24.373,159.600 24.206 C 160.150 24.039,160.780 23.765,161.000 23.598 C 161.220 23.431,162.930 22.975,164.800 22.585 C 166.670 22.195,168.380 21.741,168.600 21.576 C 168.820 21.411,170.620 20.973,172.600 20.603 C 174.580 20.233,176.560 19.773,177.000 19.581 C 177.440 19.389,179.780 18.946,182.200 18.595 C 184.620 18.244,186.960 17.787,187.400 17.579 C 188.945 16.847,206.605 16.900,207.380 17.638 " stroke="none" fill="#fbfbfb" fill-rule="evenodd"></path><path id="path2" d="" stroke="none" fill="#8c8c8c" fill-rule="evenodd"></path><path id="path3" d="M194.209 17.111 C 190.138 17.181,187.670 17.384,187.409 17.669 C 187.125 17.981,187.141 18.038,187.462 17.858 C 187.717 17.716,192.307 17.573,197.662 17.542 C 203.018 17.510,207.130 17.429,206.800 17.363 C 205.537 17.108,200.353 17.004,194.209 17.111 M178.400 19.200 L 177.000 19.495 178.276 19.547 C 178.978 19.576,179.664 19.420,179.800 19.200 C 179.936 18.980,179.992 18.824,179.924 18.853 C 179.856 18.882,179.170 19.038,178.400 19.200 M219.552 19.312 C 219.745 19.505,220.419 19.598,221.051 19.519 C 222.109 19.387,222.081 19.359,220.700 19.168 C 219.840 19.049,219.350 19.110,219.552 19.312 M304.546 85.800 C 304.547 88.000,304.614 88.849,304.695 87.687 C 304.776 86.524,304.776 84.724,304.693 83.687 C 304.611 82.649,304.545 83.600,304.546 85.800 M252.352 207.113 C 252.221 207.907,252.279 208.281,252.501 208.059 C 252.703 207.857,252.801 207.267,252.719 206.746 C 252.593 205.945,252.537 206.002,252.352 207.113 M250.561 217.358 C 250.443 217.665,250.408 218.610,250.483 219.458 C 250.610 220.887,250.634 220.846,250.810 218.900 C 251.004 216.756,250.941 216.367,250.561 217.358 M148.893 226.400 C 148.893 227.170,148.975 227.485,149.076 227.100 C 149.176 226.715,149.176 226.085,149.076 225.700 C 148.975 225.315,148.893 225.630,148.893 226.400 M149.365 235.200 C 149.365 239.050,149.425 240.625,149.498 238.700 C 149.571 236.775,149.571 233.625,149.498 231.700 C 149.425 229.775,149.365 231.350,149.365 235.200 M250.534 245.200 C 250.534 246.850,250.605 247.525,250.691 246.700 C 250.778 245.875,250.778 244.525,250.691 243.700 C 250.605 242.875,250.534 243.550,250.534 245.200 M148.893 244.000 C 148.893 244.770,148.975 245.085,149.076 244.700 C 149.176 244.315,149.176 243.685,149.076 243.300 C 148.975 242.915,148.893 243.230,148.893 244.000 M147.029 256.629 C 146.881 257.215,146.838 257.772,146.932 257.866 C 147.027 257.960,147.224 257.558,147.371 256.971 C 147.519 256.385,147.562 255.828,147.468 255.734 C 147.373 255.640,147.176 256.042,147.029 256.629 M252.400 259.176 C 252.400 259.823,252.542 260.441,252.716 260.548 C 252.890 260.656,252.961 260.127,252.873 259.372 C 252.676 257.691,252.400 257.577,252.400 259.176 M104.786 328.300 L 102.600 330.600 104.900 328.414 C 107.037 326.382,107.383 326.000,107.086 326.000 C 107.024 326.000,105.989 327.035,104.786 328.300 M357.400 392.635 L 356.200 393.666 357.500 392.806 C 358.215 392.333,358.800 391.868,358.800 391.773 C 358.800 391.473,358.631 391.578,357.400 392.635 M336.800 398.293 C 334.831 398.524,334.475 399.052,336.413 398.867 C 337.289 398.784,338.105 398.555,338.226 398.358 C 338.348 398.161,338.392 398.029,338.324 398.064 C 338.256 398.099,337.570 398.202,336.800 398.293 " stroke="none" fill="#a2a2a2" fill-rule="evenodd"></path><path id="path4" d="M182.600 18.618 L 180.200 19.148 182.400 18.933 C 183.610 18.815,184.771 18.557,184.980 18.359 C 185.189 18.162,185.279 18.020,185.180 18.044 C 185.081 18.068,183.920 18.326,182.600 18.618 M226.480 20.780 C 227.514 20.971,228.594 21.261,228.880 21.423 C 229.280 21.650,229.293 21.601,228.935 21.213 C 228.679 20.936,227.599 20.647,226.535 20.570 L 224.600 20.431 226.480 20.780 M232.033 22.547 C 232.125 22.628,232.920 22.804,233.800 22.938 C 234.915 23.107,235.158 23.071,234.600 22.819 C 233.832 22.471,231.690 22.244,232.033 22.547 M238.833 24.544 C 238.925 24.623,239.540 24.808,240.200 24.956 C 241.076 25.152,241.238 25.115,240.800 24.818 C 240.260 24.453,238.432 24.198,238.833 24.544 M248.869 28.791 C 249.456 28.969,250.176 29.237,250.469 29.387 C 250.761 29.537,250.651 29.376,250.224 29.030 C 249.796 28.683,249.076 28.415,248.624 28.434 C 247.963 28.462,248.011 28.533,248.869 28.791 M267.167 38.145 C 267.700 38.801,269.200 39.793,269.200 39.489 C 269.200 39.413,268.615 38.922,267.900 38.399 C 267.096 37.810,266.816 37.713,267.167 38.145 M279.800 46.987 C 280.460 47.567,281.540 48.406,282.200 48.853 L 283.400 49.666 282.200 48.613 C 281.540 48.033,280.460 47.194,279.800 46.747 L 278.600 45.934 279.800 46.987 M109.375 55.300 L 108.200 56.600 109.500 55.425 C 110.712 54.330,110.984 54.000,110.675 54.000 C 110.606 54.000,110.021 54.585,109.375 55.300 M296.791 63.588 C 297.257 64.241,297.842 64.902,298.091 65.056 C 298.341 65.211,298.041 64.676,297.425 63.868 C 296.088 62.115,295.584 61.892,296.791 63.588 M94.948 84.000 C 94.948 86.310,95.014 87.255,95.095 86.100 C 95.176 84.945,95.176 83.055,95.095 81.900 C 95.014 80.745,94.948 81.690,94.948 84.000 M251.015 213.700 C 250.703 214.674,250.565 217.195,250.839 216.900 C 250.993 216.735,251.186 215.835,251.270 214.900 C 251.420 213.210,251.321 212.743,251.015 213.700 M148.493 219.200 C 148.493 219.970,148.575 220.285,148.676 219.900 C 148.776 219.515,148.776 218.885,148.676 218.500 C 148.575 218.115,148.493 218.430,148.493 219.200 M148.901 223.000 C 148.905 223.880,148.987 224.193,149.083 223.695 C 149.179 223.198,149.175 222.478,149.075 222.095 C 148.975 221.713,148.896 222.120,148.901 223.000 M148.901 247.400 C 148.905 248.280,148.987 248.593,149.083 248.095 C 149.179 247.598,149.175 246.878,149.075 246.495 C 148.975 246.113,148.896 246.520,148.901 247.400 M250.931 251.000 C 250.933 252.540,251.005 253.121,251.092 252.291 C 251.179 251.461,251.177 250.201,251.089 249.491 C 251.000 248.781,250.929 249.460,250.931 251.000 M254.800 268.976 C 254.800 269.513,254.947 270.044,255.128 270.155 C 255.308 270.267,255.377 269.827,255.282 269.179 C 255.072 267.749,254.800 267.635,254.800 268.976 M118.975 314.100 L 117.800 315.400 119.100 314.225 C 120.312 313.130,120.584 312.800,120.275 312.800 C 120.206 312.800,119.621 313.385,118.975 314.100 M282.000 320.925 C 282.000 320.994,282.585 321.579,283.300 322.225 L 284.600 323.400 283.425 322.100 C 282.330 320.888,282.000 320.616,282.000 320.925 M106.788 326.700 L 104.200 329.400 106.900 326.812 C 109.408 324.407,109.783 324.000,109.488 324.000 C 109.427 324.000,108.212 325.215,106.788 326.700 M298.800 338.078 C 301.358 340.457,302.872 341.633,301.600 340.253 C 300.830 339.418,299.840 338.545,299.400 338.313 C 298.960 338.081,298.690 337.975,298.800 338.078 M318.800 353.746 C 318.800 353.856,319.340 354.330,320.000 354.800 C 320.660 355.270,321.200 355.564,321.200 355.454 C 321.200 355.344,320.660 354.870,320.000 354.400 C 319.340 353.930,318.800 353.636,318.800 353.746 M324.800 357.746 C 324.800 357.856,325.340 358.330,326.000 358.800 C 326.660 359.270,327.200 359.564,327.200 359.454 C 327.200 359.344,326.660 358.870,326.000 358.400 C 325.340 357.930,324.800 357.636,324.800 357.746 M360.956 388.171 C 360.835 388.485,360.804 389.160,360.886 389.671 C 360.995 390.354,361.088 390.204,361.237 389.100 C 361.447 387.547,361.336 387.181,360.956 388.171 M343.852 397.116 C 343.744 397.290,344.318 397.367,345.128 397.287 C 347.342 397.069,347.605 396.867,345.724 396.832 C 344.802 396.814,343.959 396.942,343.852 397.116 M330.600 398.800 L 326.200 399.042 330.476 399.121 C 332.985 399.167,334.855 399.035,335.000 398.800 C 335.136 398.580,335.192 398.436,335.124 398.479 C 335.056 398.523,333.020 398.667,330.600 398.800 " stroke="none" fill="#7c7c7c" fill-rule="evenodd"></path></g></svg>