<svg id="svg" version="1.1" xmlns="http://www.w3.org/2000/svg" xmlns:xlink="http://www.w3.org/1999/xlink" width="400" height="400" viewBox="0, 0, 400,400"><g id="svgg"><path id="path0" d="M163.200 1.068 C 154.719 1.174,142.048 1.999,141.761 2.463 C 141.646 2.648,140.699 2.800,139.656 2.800 C 137.960 2.800,135.865 3.205,128.400 4.974 C 127.190 5.261,125.030 6.059,123.600 6.748 C 122.170 7.436,120.775 8.000,120.500 8.000 C 120.225 8.000,120.000 8.155,120.000 8.344 C 120.000 8.533,119.373 9.478,118.607 10.444 C 117.841 11.410,117.290 12.470,117.383 12.800 C 117.476 13.130,117.748 14.156,117.986 15.080 C 119.090 19.356,128.057 27.329,137.400 32.342 C 139.907 33.687,147.524 38.434,155.399 43.559 C 156.279 44.132,158.406 45.680,160.125 47.000 C 161.845 48.320,163.645 49.666,164.126 49.991 C 170.865 54.544,187.984 71.594,199.299 85.023 C 204.706 91.440,208.684 97.104,220.068 114.600 C 228.515 127.583,240.857 151.524,247.852 168.500 C 250.389 174.656,251.026 176.280,253.402 182.658 C 270.120 227.525,270.365 255.554,254.200 274.152 C 252.757 275.812,247.985 278.751,246.080 279.153 C 242.188 279.974,232.966 279.493,232.000 278.418 C 231.890 278.296,231.080 277.950,230.200 277.651 C 229.320 277.351,227.804 276.587,226.831 275.953 C 225.859 275.319,224.824 274.800,224.531 274.800 C 224.239 274.800,224.000 274.616,224.000 274.390 C 224.000 274.165,223.560 273.813,223.023 273.609 C 221.833 273.156,206.790 258.412,201.800 252.807 C 199.820 250.584,196.445 246.986,194.300 244.813 C 192.155 242.639,190.400 240.703,190.400 240.510 C 190.400 240.317,189.545 239.770,188.500 239.295 C 187.455 238.820,186.330 238.264,186.000 238.060 C 182.298 235.765,181.128 235.286,178.558 235.014 C 177.041 234.853,175.581 234.542,175.313 234.323 C 174.709 233.828,171.662 234.105,167.140 235.068 C 158.884 236.826,147.730 247.254,137.768 262.525 C 136.084 265.107,128.013 281.170,125.671 286.600 C 124.343 289.680,122.465 294.016,121.498 296.235 L 119.740 300.269 121.590 302.435 C 122.607 303.626,126.746 308.470,130.786 313.200 C 140.081 324.082,154.144 339.234,163.868 348.844 C 170.264 355.165,173.560 358.151,179.953 363.415 C 180.477 363.847,182.097 365.208,183.553 366.441 C 185.009 367.673,188.630 370.411,191.600 372.525 C 194.570 374.639,198.062 377.141,199.359 378.084 C 200.657 379.028,202.277 380.088,202.959 380.441 C 203.642 380.793,206.948 382.641,210.307 384.548 C 215.720 387.621,217.852 388.703,224.200 391.598 C 227.985 393.325,231.566 394.800,231.972 394.800 C 232.214 394.800,232.723 394.978,233.105 395.195 C 233.487 395.412,235.240 395.969,237.000 396.432 C 238.760 396.896,241.460 397.615,243.000 398.031 C 244.540 398.446,247.105 398.789,248.700 398.793 C 250.362 398.797,251.600 398.971,251.600 399.200 C 251.600 399.699,283.456 399.757,283.763 399.259 C 283.879 399.072,286.275 398.797,289.087 398.648 C 296.071 398.278,302.834 397.617,303.800 397.209 C 304.240 397.023,307.750 396.555,311.600 396.169 C 315.450 395.783,318.780 395.335,319.000 395.175 C 319.220 395.015,320.930 394.586,322.800 394.222 C 324.670 393.859,326.560 393.408,327.000 393.220 C 327.440 393.033,329.420 392.562,331.400 392.173 C 333.380 391.785,335.270 391.328,335.600 391.159 C 335.930 390.989,337.595 390.542,339.300 390.166 C 341.005 389.789,342.400 389.363,342.400 389.220 C 342.400 389.077,343.795 388.623,345.500 388.211 C 347.205 387.798,348.780 387.334,349.000 387.179 C 349.220 387.024,350.480 386.595,351.800 386.226 C 353.120 385.857,354.767 385.296,355.460 384.978 C 356.154 384.660,356.913 384.400,357.147 384.400 C 357.502 384.400,363.754 381.405,366.600 379.872 C 367.040 379.635,368.840 378.712,370.600 377.821 C 372.360 376.929,375.080 375.165,376.644 373.900 C 378.209 372.635,379.610 371.600,379.758 371.600 C 379.906 371.600,380.637 370.989,381.383 370.243 C 382.130 369.497,382.942 368.819,383.189 368.737 C 383.961 368.480,390.800 361.446,390.800 360.909 C 390.800 360.629,390.980 360.400,391.200 360.400 C 391.420 360.400,391.601 360.175,391.602 359.900 C 391.603 359.625,392.145 358.590,392.806 357.600 C 396.694 351.781,398.800 345.059,398.800 338.466 C 398.800 336.916,398.980 335.536,399.200 335.400 C 399.421 335.263,399.600 333.463,399.600 331.376 C 399.600 329.125,399.438 327.600,399.200 327.600 C 398.970 327.600,398.800 326.366,398.799 324.700 C 398.798 320.945,397.715 310.036,397.240 309.000 C 397.039 308.560,396.565 306.130,396.187 303.600 C 395.809 301.070,395.363 298.820,395.195 298.600 C 395.028 298.380,394.765 297.390,394.612 296.400 C 394.286 294.296,393.652 291.736,393.177 290.600 C 392.993 290.160,392.539 288.360,392.169 286.600 C 391.800 284.840,391.362 283.220,391.197 283.000 C 391.032 282.780,390.598 281.520,390.233 280.200 C 389.868 278.880,389.402 277.440,389.198 277.000 C 388.994 276.560,388.535 275.030,388.178 273.600 C 387.821 272.170,387.381 270.820,387.200 270.600 C 387.019 270.380,386.575 269.052,386.212 267.649 C 385.849 266.246,385.321 264.716,385.039 264.249 C 384.757 263.782,384.280 262.590,383.980 261.600 C 383.679 260.610,383.325 259.710,383.192 259.600 C 383.059 259.490,382.622 258.320,382.220 257.000 C 381.818 255.680,381.346 254.416,381.171 254.190 C 380.995 253.965,380.556 252.885,380.194 251.790 C 379.832 250.696,379.190 249.068,378.768 248.174 C 378.346 247.279,378.000 246.406,378.000 246.234 C 378.000 246.062,377.754 245.354,377.454 244.660 C 377.154 243.967,376.592 242.590,376.204 241.600 C 375.816 240.610,375.261 239.260,374.971 238.600 C 374.680 237.940,374.005 236.410,373.472 235.200 C 372.938 233.990,372.272 232.280,371.993 231.400 C 371.713 230.520,371.357 229.710,371.201 229.600 C 371.045 229.490,370.594 228.410,370.198 227.200 C 369.801 225.990,369.263 224.640,369.002 224.200 C 368.740 223.760,368.280 222.590,367.980 221.600 C 367.679 220.610,367.318 219.710,367.176 219.600 C 367.034 219.490,366.594 218.410,366.198 217.200 C 365.801 215.990,365.257 214.640,364.989 214.200 C 364.720 213.760,364.259 212.545,363.963 211.500 C 363.667 210.455,363.313 209.600,363.176 209.600 C 363.039 209.600,362.702 208.835,362.429 207.900 C 361.962 206.309,361.387 204.913,359.587 201.000 C 359.182 200.120,358.581 198.590,358.251 197.600 C 357.922 196.610,357.280 195.044,356.826 194.119 C 356.372 193.195,356.000 192.200,356.000 191.908 C 356.000 191.617,355.764 191.023,355.476 190.589 C 355.188 190.155,354.700 188.990,354.393 188.000 C 354.086 187.010,353.437 185.390,352.951 184.400 C 352.465 183.410,351.942 181.925,351.789 181.100 C 351.636 180.275,351.384 179.600,351.229 179.600 C 351.073 179.600,350.623 178.565,350.228 177.300 C 349.833 176.035,349.374 174.820,349.208 174.600 C 349.042 174.380,348.597 173.210,348.219 172.000 C 347.841 170.790,347.205 169.080,346.805 168.200 C 344.899 164.011,344.434 162.878,343.971 161.300 C 343.698 160.365,343.361 159.600,343.224 159.600 C 343.087 159.600,342.733 158.745,342.437 157.700 C 342.141 156.655,341.680 155.440,341.411 155.000 C 341.143 154.560,340.599 153.210,340.202 152.000 C 339.806 150.790,339.355 149.710,339.199 149.600 C 339.043 149.490,338.690 148.680,338.414 147.800 C 337.934 146.271,337.199 144.504,335.587 141.000 C 335.182 140.120,334.581 138.590,334.251 137.600 C 333.922 136.610,333.280 135.044,332.826 134.119 C 332.372 133.195,332.000 132.200,332.000 131.908 C 332.000 131.617,331.761 131.023,331.470 130.589 C 331.178 130.155,330.613 128.720,330.215 127.400 C 329.816 126.080,329.332 124.798,329.139 124.551 C 328.946 124.305,328.501 123.135,328.150 121.951 C 327.800 120.768,327.386 119.710,327.231 119.600 C 327.077 119.490,326.618 118.320,326.212 117.000 C 325.806 115.680,325.250 114.240,324.976 113.800 C 324.702 113.360,324.348 112.370,324.189 111.600 C 324.030 110.830,323.569 109.570,323.165 108.800 C 321.948 106.481,320.513 103.104,319.978 101.300 C 319.700 100.365,319.350 99.600,319.200 99.600 C 319.050 99.600,318.703 98.835,318.429 97.900 C 318.156 96.965,317.475 95.210,316.916 94.000 C 316.358 92.790,315.631 91.170,315.302 90.400 C 314.972 89.630,314.357 88.370,313.936 87.600 C 313.514 86.830,312.719 85.300,312.170 84.200 C 311.622 83.100,310.285 80.580,309.200 78.600 C 308.115 76.620,306.678 73.897,306.008 72.549 C 305.337 71.201,304.163 69.311,303.398 68.349 C 302.633 67.387,302.006 66.462,302.004 66.294 C 302.002 66.126,301.100 64.750,300.000 63.238 C 298.900 61.726,298.000 60.376,298.000 60.238 C 298.000 60.100,297.100 58.750,296.000 57.238 C 294.900 55.726,294.000 54.298,294.000 54.065 C 294.000 53.832,290.760 50.227,286.800 46.055 C 282.840 41.882,279.600 38.273,279.600 38.034 C 279.600 37.795,279.403 37.600,279.162 37.600 C 278.920 37.600,276.508 35.620,273.800 33.200 C 271.092 30.780,268.764 28.800,268.625 28.800 C 268.487 28.800,267.704 28.126,266.887 27.302 C 265.559 25.964,261.501 23.204,260.852 23.198 C 260.713 23.196,259.430 22.387,258.000 21.400 C 256.570 20.413,255.252 19.604,255.072 19.602 C 254.892 19.601,253.992 19.097,253.072 18.483 C 252.152 17.868,250.950 17.149,250.400 16.886 C 249.850 16.622,249.130 16.235,248.800 16.027 C 248.043 15.550,243.726 13.600,243.426 13.600 C 243.303 13.600,242.077 13.072,240.701 12.426 C 239.325 11.780,237.705 11.131,237.100 10.983 C 236.495 10.834,236.000 10.581,236.000 10.420 C 236.000 10.259,235.235 9.903,234.300 9.629 C 233.365 9.355,232.230 8.896,231.779 8.608 C 231.327 8.320,229.437 7.784,227.579 7.416 C 225.720 7.049,223.660 6.509,223.000 6.216 C 222.340 5.924,220.495 5.457,218.900 5.178 C 217.305 4.900,216.000 4.554,216.000 4.409 C 216.000 4.029,211.544 3.256,207.600 2.951 C 205.730 2.807,204.110 2.566,204.000 2.415 C 203.890 2.265,200.650 1.838,196.800 1.466 C 189.996 0.809,186.814 0.772,163.200 1.068 " stroke="none" fill="#040404" fill-rule="evenodd"></path><path id="path1" d="M0.000 200.000 L 0.000 400.000 200.000 400.000 L 400.000 400.000 400.000 200.000 L 400.000 0.000 200.000 0.000 L 0.000 0.000 0.000 200.000 M194.800 0.863 C 197.550 1.122,199.890 1.455,200.000 1.602 C 200.110 1.748,203.241 2.154,206.957 2.503 C 210.673 2.852,213.823 3.303,213.957 3.507 C 214.091 3.710,215.910 4.202,218.000 4.600 C 220.090 4.998,221.890 5.456,222.000 5.617 C 222.110 5.778,223.730 6.219,225.600 6.597 C 227.470 6.975,229.180 7.420,229.400 7.586 C 229.620 7.752,230.368 7.995,231.061 8.126 C 232.167 8.335,235.096 9.549,239.000 11.416 C 239.660 11.732,241.003 12.267,241.984 12.607 C 242.965 12.946,243.865 13.354,243.984 13.513 C 244.103 13.673,245.238 14.148,246.507 14.569 C 247.776 14.990,249.013 15.574,249.256 15.867 C 249.499 16.160,249.946 16.400,250.249 16.400 C 250.552 16.400,251.132 16.715,251.537 17.100 C 251.943 17.485,252.888 18.138,253.637 18.551 C 257.776 20.833,258.657 21.353,259.231 21.852 C 259.579 22.153,260.074 22.400,260.331 22.400 C 260.589 22.400,261.123 22.723,261.517 23.117 C 261.912 23.512,262.851 24.090,263.605 24.402 C 264.360 24.715,265.716 25.742,266.620 26.685 C 267.523 27.628,268.410 28.400,268.589 28.400 C 268.768 28.400,269.474 28.926,270.157 29.569 C 270.841 30.213,273.110 32.242,275.200 34.078 C 279.916 38.222,294.000 53.003,294.000 53.808 C 294.000 54.134,294.186 54.400,294.413 54.400 C 294.639 54.400,294.938 54.715,295.076 55.100 C 295.214 55.485,295.928 56.634,296.663 57.654 C 297.398 58.673,298.000 59.708,298.000 59.954 C 298.000 60.199,298.186 60.400,298.413 60.400 C 298.639 60.400,298.938 60.715,299.076 61.100 C 299.214 61.485,299.928 62.634,300.663 63.654 C 301.398 64.673,302.000 65.689,302.000 65.911 C 302.000 66.133,302.270 66.418,302.600 66.545 C 302.930 66.671,303.200 67.029,303.200 67.338 C 303.200 67.648,303.499 68.149,303.865 68.451 C 304.230 68.753,304.943 69.900,305.449 71.000 C 306.390 73.046,308.033 76.041,308.411 76.400 C 308.527 76.510,308.972 77.410,309.400 78.400 C 309.828 79.390,310.275 80.290,310.393 80.400 C 310.511 80.510,310.966 81.320,311.404 82.200 C 311.842 83.080,312.319 83.891,312.464 84.001 C 312.609 84.112,313.048 85.012,313.440 86.001 C 313.833 86.991,314.358 87.980,314.609 88.200 C 314.859 88.420,315.312 89.410,315.615 90.400 C 315.918 91.390,316.288 92.290,316.436 92.400 C 316.584 92.510,317.009 93.496,317.379 94.590 C 317.749 95.685,318.193 96.765,318.367 96.990 C 318.540 97.216,319.022 98.390,319.437 99.600 C 319.853 100.810,320.318 101.893,320.470 102.007 C 320.622 102.121,321.050 103.111,321.420 104.207 C 321.791 105.303,322.209 106.290,322.350 106.400 C 322.491 106.510,322.947 107.590,323.363 108.800 C 323.778 110.010,324.248 111.180,324.406 111.400 C 324.565 111.620,324.999 112.790,325.371 114.000 C 325.743 115.210,326.275 116.650,326.554 117.200 C 326.833 117.750,327.309 119.010,327.614 120.000 C 327.918 120.990,328.275 121.890,328.408 122.000 C 328.541 122.110,328.982 123.280,329.388 124.600 C 329.794 125.920,330.340 127.360,330.600 127.800 C 330.861 128.240,331.320 129.410,331.620 130.400 C 331.921 131.390,332.282 132.290,332.424 132.400 C 332.566 132.510,333.002 133.590,333.394 134.800 C 333.785 136.010,334.250 137.184,334.427 137.410 C 334.604 137.635,335.051 138.715,335.421 139.810 C 335.791 140.904,336.219 141.890,336.372 142.000 C 336.525 142.110,336.970 143.235,337.362 144.499 C 337.754 145.764,338.204 146.879,338.363 146.977 C 338.522 147.075,339.000 148.246,339.426 149.578 C 339.852 150.910,340.318 152.000,340.463 152.000 C 340.607 152.000,341.045 153.035,341.436 154.300 C 341.827 155.565,342.361 156.960,342.623 157.400 C 342.885 157.840,343.341 159.055,343.637 160.100 C 343.933 161.145,344.299 162.000,344.450 162.000 C 344.602 162.000,345.048 163.035,345.443 164.300 C 345.837 165.565,346.471 167.140,346.851 167.800 C 347.231 168.460,347.665 169.675,347.815 170.500 C 347.966 171.325,348.242 172.000,348.429 172.000 C 348.616 172.000,348.962 172.765,349.198 173.700 C 349.433 174.635,349.965 176.120,350.378 177.000 C 350.792 177.880,351.362 179.410,351.646 180.400 C 351.929 181.390,352.278 182.290,352.422 182.400 C 352.565 182.510,353.006 183.590,353.402 184.800 C 353.799 186.010,354.337 187.360,354.598 187.800 C 354.860 188.240,355.320 189.410,355.620 190.400 C 355.921 191.390,356.282 192.290,356.424 192.400 C 356.566 192.510,357.002 193.590,357.394 194.800 C 357.785 196.010,358.250 197.184,358.427 197.410 C 358.604 197.635,359.051 198.715,359.421 199.810 C 359.791 200.904,360.216 201.890,360.364 202.000 C 360.512 202.110,360.879 203.010,361.180 204.000 C 361.480 204.990,361.940 206.160,362.202 206.600 C 362.463 207.040,363.001 208.390,363.398 209.600 C 363.794 210.810,364.234 211.890,364.376 212.000 C 364.518 212.110,364.879 213.010,365.180 214.000 C 365.480 214.990,365.940 216.160,366.202 216.600 C 366.463 217.040,367.001 218.390,367.398 219.600 C 367.794 220.810,368.234 221.890,368.376 222.000 C 368.518 222.110,368.879 223.010,369.180 224.000 C 369.480 224.990,369.938 226.160,370.196 226.600 C 370.454 227.040,371.009 228.390,371.429 229.600 C 371.850 230.810,372.318 231.893,372.470 232.007 C 372.622 232.121,373.050 233.111,373.420 234.207 C 373.791 235.303,374.219 236.290,374.372 236.400 C 374.525 236.510,374.970 237.635,375.362 238.899 C 375.754 240.164,376.230 241.295,376.420 241.412 C 376.610 241.530,377.067 242.700,377.436 244.013 C 377.804 245.326,378.222 246.400,378.365 246.400 C 378.508 246.400,378.867 247.255,379.163 248.300 C 379.459 249.345,379.920 250.560,380.189 251.000 C 380.457 251.440,380.984 252.790,381.360 254.000 C 381.735 255.210,382.230 256.540,382.459 256.955 C 382.689 257.371,383.149 258.631,383.482 259.755 C 383.815 260.880,384.214 261.890,384.369 262.000 C 384.523 262.110,384.978 263.280,385.380 264.600 C 385.782 265.920,386.249 267.180,386.419 267.400 C 386.589 267.620,387.031 268.970,387.400 270.400 C 387.769 271.830,388.229 273.191,388.422 273.424 C 388.614 273.657,389.076 275.232,389.447 276.924 C 389.819 278.616,390.246 280.000,390.395 280.000 C 390.544 280.000,391.007 281.395,391.423 283.100 C 391.839 284.805,392.289 286.290,392.423 286.400 C 392.557 286.510,392.985 288.220,393.373 290.200 C 393.762 292.180,394.210 293.890,394.370 294.000 C 394.530 294.110,394.989 296.090,395.389 298.400 C 395.790 300.710,396.260 302.870,396.433 303.200 C 396.849 303.994,398.005 312.148,398.002 314.267 C 398.001 315.183,398.172 315.993,398.383 316.067 C 399.602 316.491,399.698 342.994,398.485 344.517 C 398.274 344.783,397.977 345.900,397.825 347.000 C 397.525 349.174,396.777 351.600,396.408 351.600 C 396.280 351.600,395.827 352.500,395.400 353.600 C 394.973 354.700,394.486 355.600,394.317 355.600 C 394.149 355.600,393.726 356.185,393.378 356.900 C 391.493 360.773,390.620 361.980,387.227 365.415 C 385.185 367.482,383.189 369.276,382.793 369.402 C 382.396 369.528,381.781 370.074,381.427 370.616 C 381.072 371.157,380.586 371.600,380.347 371.600 C 380.109 371.600,378.538 372.733,376.857 374.117 C 375.175 375.502,372.270 377.397,370.400 378.328 C 368.530 379.259,366.730 380.180,366.400 380.373 C 364.166 381.681,356.990 384.858,355.000 385.420 C 353.680 385.792,352.420 386.235,352.200 386.404 C 351.980 386.573,350.450 387.033,348.800 387.425 C 347.150 387.817,345.710 388.259,345.600 388.405 C 345.490 388.552,344.140 389.005,342.600 389.412 C 341.060 389.818,339.710 390.269,339.600 390.413 C 339.490 390.558,337.690 391.002,335.600 391.400 C 333.510 391.798,331.710 392.250,331.600 392.403 C 331.490 392.556,329.600 392.999,327.400 393.388 C 325.200 393.776,323.220 394.233,323.000 394.404 C 322.401 394.868,318.619 395.537,314.900 395.837 C 313.085 395.983,311.600 396.230,311.600 396.386 C 311.600 396.541,308.225 396.991,304.100 397.384 C 299.975 397.778,296.420 398.234,296.200 398.398 C 294.430 399.717,247.045 400.012,244.000 398.723 C 243.230 398.397,241.250 397.806,239.600 397.410 C 237.950 397.015,236.420 396.555,236.200 396.389 C 235.980 396.223,234.720 395.868,233.400 395.600 C 232.080 395.332,230.550 394.871,230.000 394.574 C 229.450 394.278,227.920 393.559,226.600 392.977 C 225.280 392.394,223.120 391.424,221.800 390.822 C 220.480 390.220,218.770 389.484,218.000 389.186 C 217.230 388.889,216.510 388.531,216.400 388.391 C 216.290 388.252,215.660 387.860,215.000 387.520 C 210.006 384.951,200.553 379.436,198.253 377.749 C 194.778 375.201,189.062 371.109,187.986 370.400 C 181.612 366.198,158.156 344.225,147.177 332.170 C 145.760 330.613,142.959 327.553,140.954 325.370 C 138.949 323.186,135.467 319.240,133.217 316.600 C 130.966 313.960,128.266 310.810,127.216 309.600 C 126.166 308.390,123.955 305.798,122.303 303.840 L 119.298 300.279 120.087 298.440 C 120.521 297.428,121.202 295.880,121.600 295.000 C 123.342 291.150,126.800 283.159,126.800 282.984 C 126.800 282.702,129.395 277.516,133.356 269.884 C 136.740 263.363,142.981 253.992,146.817 249.673 C 158.453 236.570,165.874 232.823,177.115 234.376 C 179.599 234.719,181.759 235.197,181.915 235.437 C 182.072 235.677,183.055 236.196,184.100 236.591 C 185.145 236.986,186.000 237.425,186.000 237.568 C 186.000 237.711,187.077 238.361,188.393 239.014 C 189.710 239.666,190.790 240.348,190.793 240.529 C 190.797 240.710,192.690 242.735,195.000 245.028 C 197.310 247.321,199.200 249.348,199.200 249.532 C 199.200 250.924,222.464 273.413,225.334 274.795 C 226.250 275.236,227.990 276.142,229.200 276.808 C 235.595 280.330,245.705 280.112,250.728 276.344 C 252.118 275.301,253.378 274.392,253.528 274.324 C 253.678 274.256,254.826 272.822,256.080 271.139 C 269.487 253.141,268.951 226.429,254.380 186.400 C 253.700 184.530,252.817 182.100,252.418 181.000 C 252.020 179.900,251.501 178.550,251.265 178.000 C 251.029 177.450,250.354 175.740,249.766 174.200 C 248.817 171.715,245.139 162.889,243.282 158.640 C 242.156 156.066,232.065 135.984,230.598 133.400 C 229.849 132.080,228.823 130.243,228.318 129.319 C 222.884 119.366,218.596 112.604,206.575 95.033 C 198.118 82.672,175.992 59.433,163.886 50.197 C 157.060 44.989,151.242 41.117,140.200 34.434 C 135.795 31.768,132.601 29.759,129.650 27.800 C 129.319 27.580,127.802 26.463,126.278 25.318 C 124.755 24.173,123.392 23.183,123.248 23.118 C 122.033 22.567,118.364 17.296,117.602 15.005 L 116.721 12.358 117.860 10.710 C 118.945 9.143,121.712 6.800,122.479 6.800 C 122.677 6.800,123.595 6.420,124.519 5.955 C 125.444 5.490,127.640 4.780,129.400 4.377 C 131.160 3.974,133.614 3.385,134.854 3.069 C 136.094 2.752,139.154 2.363,141.654 2.203 C 144.154 2.043,146.432 1.723,146.716 1.493 C 147.761 0.647,187.052 0.131,194.800 0.863 " stroke="none" fill="#fbfbfb" fill-rule="evenodd"></path><path id="path2" d="" stroke="none" fill="#848484" fill-rule="evenodd"></path><path id="path3" d="M147.907 1.490 C 148.626 1.579,149.706 1.577,150.307 1.486 C 150.908 1.395,150.320 1.322,149.000 1.324 C 147.680 1.326,147.188 1.401,147.907 1.490 M196.900 1.487 C 197.505 1.578,198.495 1.578,199.100 1.487 C 199.705 1.395,199.210 1.320,198.000 1.320 C 196.790 1.320,196.295 1.395,196.900 1.487 M270.767 30.545 C 271.300 31.201,272.800 32.193,272.800 31.889 C 272.800 31.813,272.215 31.322,271.500 30.799 C 270.696 30.210,270.416 30.113,270.767 30.545 M172.800 57.800 C 173.995 59.010,175.063 60.000,175.173 60.000 C 175.283 60.000,174.395 59.010,173.200 57.800 C 172.005 56.590,170.937 55.600,170.827 55.600 C 170.717 55.600,171.605 56.590,172.800 57.800 M180.783 65.300 C 182.441 67.066,182.800 67.384,182.800 67.083 C 182.800 67.019,181.945 66.164,180.900 65.183 L 179.000 63.400 180.783 65.300 M188.000 73.000 C 189.195 74.210,190.263 75.200,190.373 75.200 C 190.483 75.200,189.595 74.210,188.400 73.000 C 187.205 71.790,186.137 70.800,186.027 70.800 C 185.917 70.800,186.805 71.790,188.000 73.000 M264.893 227.200 C 264.893 227.970,264.975 228.285,265.076 227.900 C 265.176 227.515,265.176 226.885,265.076 226.500 C 264.975 226.115,264.893 226.430,264.893 227.200 M265.309 230.800 C 265.309 231.790,265.387 232.195,265.482 231.700 C 265.578 231.205,265.578 230.395,265.482 229.900 C 265.387 229.405,265.309 229.810,265.309 230.800 M164.800 235.088 C 163.333 235.351,162.962 235.896,164.392 235.686 C 165.062 235.588,165.708 235.349,165.829 235.154 C 165.949 234.959,165.992 234.825,165.924 234.854 C 165.856 234.884,165.350 234.990,164.800 235.088 M265.701 238.200 C 265.705 239.080,265.787 239.393,265.883 238.895 C 265.979 238.398,265.975 237.678,265.875 237.295 C 265.775 236.913,265.696 237.320,265.701 238.200 M149.600 246.600 C 148.628 247.590,147.923 248.400,148.033 248.400 C 148.143 248.400,149.028 247.590,150.000 246.600 C 150.972 245.610,151.677 244.800,151.567 244.800 C 151.457 244.800,150.572 245.610,149.600 246.600 M264.901 250.200 C 264.905 251.080,264.987 251.393,265.083 250.895 C 265.179 250.398,265.175 249.678,265.075 249.295 C 264.975 248.913,264.896 249.320,264.901 250.200 M235.462 279.300 C 235.564 279.465,237.696 279.600,240.200 279.600 C 242.704 279.600,244.836 279.465,244.938 279.300 C 245.040 279.135,242.908 279.000,240.200 279.000 C 237.492 279.000,235.360 279.135,235.462 279.300 M392.400 287.376 C 392.400 287.913,392.547 288.444,392.728 288.555 C 392.908 288.667,392.977 288.227,392.882 287.579 C 392.672 286.149,392.400 286.035,392.400 287.376 M394.400 295.176 C 394.400 295.823,394.542 296.441,394.716 296.548 C 394.890 296.656,394.961 296.127,394.873 295.372 C 394.676 293.691,394.400 293.577,394.400 295.176 M396.501 304.600 C 396.505 305.480,396.587 305.793,396.683 305.295 C 396.779 304.798,396.775 304.078,396.675 303.695 C 396.575 303.313,396.496 303.720,396.501 304.600 M398.520 318.000 C 398.520 319.210,398.595 319.705,398.687 319.100 C 398.778 318.495,398.778 317.505,398.687 316.900 C 398.595 316.295,398.520 316.790,398.520 318.000 M146.800 331.800 C 147.546 332.570,148.247 333.200,148.357 333.200 C 148.467 333.200,147.946 332.570,147.200 331.800 C 146.454 331.030,145.753 330.400,145.643 330.400 C 145.533 330.400,146.054 331.030,146.800 331.800 M386.996 365.284 C 384.798 367.529,383.720 368.736,384.600 367.965 C 386.368 366.415,391.425 361.200,391.159 361.200 C 391.067 361.200,389.193 363.038,386.996 365.284 M374.738 375.443 C 372.566 377.247,372.403 377.419,373.400 376.858 C 374.386 376.303,377.063 374.000,376.723 374.000 C 376.587 374.000,375.694 374.650,374.738 375.443 M337.445 390.728 C 337.333 390.908,337.773 390.977,338.421 390.882 C 339.070 390.787,339.600 390.640,339.600 390.555 C 339.600 390.250,337.643 390.407,337.445 390.728 M329.445 392.728 C 329.333 392.908,329.773 392.977,330.421 392.882 C 331.070 392.787,331.600 392.640,331.600 392.555 C 331.600 392.250,329.643 392.407,329.445 392.728 M308.905 396.687 C 309.514 396.779,310.414 396.777,310.905 396.682 C 311.397 396.587,310.900 396.511,309.800 396.514 C 308.700 396.517,308.297 396.595,308.905 396.687 M293.000 398.400 L 289.800 398.653 292.876 398.727 C 294.580 398.767,296.063 398.622,296.200 398.400 C 296.336 398.180,296.392 398.033,296.324 398.073 C 296.256 398.114,294.760 398.261,293.000 398.400 " stroke="none" fill="#9f9f9f" fill-rule="evenodd"></path><path id="path4" d="M161.000 0.798 C 155.436 0.931,160.495 1.015,173.800 1.009 C 185.900 1.004,194.810 0.883,193.600 0.740 C 191.091 0.443,174.609 0.472,161.000 0.798 M138.307 2.690 C 139.026 2.779,140.106 2.777,140.707 2.686 C 141.308 2.595,140.720 2.522,139.400 2.524 C 138.080 2.526,137.588 2.601,138.307 2.690 M206.200 2.815 C 207.520 2.979,209.500 3.105,210.600 3.096 C 212.497 3.079,212.466 3.063,210.000 2.786 C 208.570 2.625,206.590 2.499,205.600 2.506 C 203.973 2.516,204.031 2.546,206.200 2.815 M217.000 4.800 C 218.692 5.231,220.144 5.231,218.800 4.800 C 218.250 4.624,217.350 4.483,216.800 4.487 C 215.902 4.494,215.922 4.526,217.000 4.800 M223.452 6.390 C 223.643 6.570,224.610 6.824,225.600 6.954 C 227.701 7.230,227.347 6.988,224.852 6.444 C 223.890 6.235,223.260 6.211,223.452 6.390 M241.200 12.686 C 241.530 12.808,242.160 13.074,242.600 13.276 C 243.387 13.638,243.388 13.634,242.624 13.022 C 242.196 12.680,241.566 12.414,241.224 12.432 C 240.685 12.459,240.682 12.493,241.200 12.686 M249.544 16.376 C 250.064 16.829,250.679 17.200,250.911 17.200 C 251.403 17.200,251.379 17.180,249.800 16.255 L 248.600 15.553 249.544 16.376 M259.544 22.376 C 260.064 22.829,260.679 23.200,260.911 23.200 C 261.403 23.200,261.379 23.180,259.800 22.255 L 258.600 21.553 259.544 22.376 M294.800 55.600 C 295.270 56.260,295.744 56.800,295.854 56.800 C 295.964 56.800,295.670 56.260,295.200 55.600 C 294.730 54.940,294.256 54.400,294.146 54.400 C 294.036 54.400,294.330 54.940,294.800 55.600 M174.600 59.200 C 175.906 60.520,177.065 61.600,177.175 61.600 C 177.285 61.600,176.306 60.520,175.000 59.200 C 173.694 57.880,172.535 56.800,172.425 56.800 C 172.315 56.800,173.294 57.880,174.600 59.200 M298.800 61.600 C 299.270 62.260,299.744 62.800,299.854 62.800 C 299.964 62.800,299.670 62.260,299.200 61.600 C 298.730 60.940,298.256 60.400,298.146 60.400 C 298.036 60.400,298.330 60.940,298.800 61.600 M302.791 67.588 C 303.257 68.241,303.842 68.902,304.091 69.056 C 304.341 69.211,304.041 68.676,303.425 67.868 C 302.088 66.115,301.584 65.892,302.791 67.588 M186.800 71.400 C 188.217 72.830,189.467 74.000,189.577 74.000 C 189.687 74.000,188.617 72.830,187.200 71.400 C 185.783 69.970,184.533 68.800,184.423 68.800 C 184.313 68.800,185.383 69.970,186.800 71.400 M265.701 234.600 C 265.705 235.480,265.787 235.793,265.883 235.295 C 265.979 234.798,265.975 234.078,265.875 233.695 C 265.775 233.313,265.696 233.720,265.701 234.600 M175.477 234.422 C 175.655 234.591,177.060 234.824,178.600 234.939 C 181.460 235.152,181.053 234.996,177.277 234.431 C 176.109 234.257,175.299 234.253,175.477 234.422 M167.200 234.800 C 165.856 235.231,167.308 235.231,169.000 234.800 C 170.078 234.526,170.098 234.494,169.200 234.487 C 168.650 234.483,167.750 234.624,167.200 234.800 M154.283 242.100 L 152.128 244.200 154.164 242.434 C 155.284 241.462,156.371 240.517,156.580 240.334 C 156.789 240.150,156.842 240.000,156.699 240.000 C 156.555 240.000,155.468 240.945,154.283 242.100 M147.785 248.900 L 145.800 251.000 147.900 249.015 C 149.055 247.923,150.000 246.978,150.000 246.915 C 150.000 246.617,149.629 246.949,147.785 248.900 M198.791 249.588 C 199.257 250.241,199.842 250.902,200.091 251.056 C 200.341 251.211,200.041 250.676,199.425 249.868 C 198.088 248.115,197.584 247.892,198.791 249.588 M227.544 276.376 C 228.064 276.829,228.679 277.200,228.911 277.200 C 229.403 277.200,229.379 277.180,227.800 276.255 L 226.600 275.553 227.544 276.376 M246.800 278.631 L 245.000 279.184 246.600 278.961 C 247.480 278.838,248.371 278.572,248.580 278.369 C 249.026 277.936,249.099 277.925,246.800 278.631 M232.033 278.547 C 232.125 278.628,232.920 278.804,233.800 278.938 C 234.915 279.107,235.158 279.071,234.600 278.819 C 233.832 278.471,231.690 278.244,232.033 278.547 M396.893 307.600 C 396.893 308.370,396.975 308.685,397.076 308.300 C 397.176 307.915,397.176 307.285,397.076 306.900 C 396.975 306.515,396.893 306.830,396.893 307.600 M398.944 324.000 C 398.944 326.090,399.012 326.945,399.094 325.900 C 399.176 324.855,399.176 323.145,399.094 322.100 C 399.012 321.055,398.944 321.910,398.944 324.000 M145.600 330.200 C 146.346 330.970,147.047 331.600,147.157 331.600 C 147.267 331.600,146.746 330.970,146.000 330.200 C 145.254 329.430,144.553 328.800,144.443 328.800 C 144.333 328.800,144.854 329.430,145.600 330.200 M149.600 334.525 C 149.600 334.594,150.185 335.179,150.900 335.825 L 152.200 337.000 151.025 335.700 C 149.930 334.488,149.600 334.216,149.600 334.525 M399.003 335.700 C 398.707 336.564,398.586 342.778,398.872 342.482 C 399.128 342.216,399.528 335.197,399.287 335.199 C 399.226 335.200,399.098 335.425,399.003 335.700 M378.200 372.650 C 377.481 373.262,377.334 373.505,377.833 373.257 C 378.566 372.893,379.941 371.576,379.549 371.614 C 379.467 371.622,378.860 372.088,378.200 372.650 M231.006 394.810 C 231.106 394.972,231.635 395.190,232.182 395.294 C 232.729 395.399,233.094 395.352,232.994 395.190 C 232.894 395.028,232.365 394.810,231.818 394.706 C 231.271 394.601,230.906 394.648,231.006 394.810 M303.852 397.116 C 303.744 397.290,304.318 397.370,305.128 397.293 C 307.602 397.059,307.893 396.895,305.924 396.846 C 304.892 396.821,303.959 396.942,303.852 397.116 M245.156 398.918 C 245.332 399.093,246.899 399.181,248.638 399.115 L 251.800 398.993 248.318 398.797 C 246.403 398.688,244.980 398.743,245.156 398.918 M283.861 399.100 C 283.759 399.265,284.603 399.349,285.738 399.286 C 289.416 399.082,289.863 398.921,286.924 398.860 C 285.342 398.827,283.964 398.935,283.861 399.100 " stroke="none" fill="#7c7c7c" fill-rule="evenodd"></path></g></svg>