<svg id="svg" version="1.1" xmlns="http://www.w3.org/2000/svg" xmlns:xlink="http://www.w3.org/1999/xlink" width="400" height="400" viewBox="0, 0, 400,400"><g id="svgg"><path id="path0" d="M60.200 15.525 C 59.100 15.881,58.110 16.294,58.000 16.442 C 57.890 16.590,56.990 16.952,56.000 17.245 C 49.892 19.054,44.250 26.351,38.868 39.400 C 33.895 51.458,31.841 87.351,34.393 117.600 C 34.625 120.350,35.168 128.090,35.600 134.800 C 36.575 149.945,37.814 165.420,38.577 172.000 C 38.896 174.750,39.353 179.430,39.592 182.400 C 39.832 185.370,40.283 189.960,40.596 192.600 C 40.909 195.240,41.359 199.830,41.597 202.800 C 41.834 205.770,42.202 209.460,42.413 211.000 C 42.625 212.540,43.071 216.860,43.406 220.600 C 43.740 224.340,44.195 228.570,44.417 230.000 C 44.639 231.430,45.170 235.840,45.596 239.800 C 46.720 250.237,48.245 263.110,49.364 271.600 C 49.900 275.670,50.711 281.970,51.166 285.600 C 51.620 289.230,52.264 294.000,52.595 296.200 C 52.927 298.400,53.467 302.450,53.794 305.200 C 54.122 307.950,54.830 313.530,55.367 317.600 C 55.904 321.670,56.817 328.600,57.395 333.000 C 59.596 349.745,60.388 355.616,61.362 362.400 C 63.443 376.894,64.397 383.616,65.393 390.800 C 65.956 394.870,66.502 398.470,66.604 398.800 C 66.901 399.759,90.099 398.677,92.600 397.588 C 93.040 397.396,95.740 396.944,98.600 396.584 C 101.605 396.206,104.486 395.607,105.426 395.165 C 106.321 394.744,107.316 394.400,107.637 394.400 C 107.959 394.400,108.577 394.154,109.011 393.853 C 109.445 393.552,110.810 393.015,112.045 392.658 C 113.280 392.301,114.810 391.739,115.445 391.407 C 116.080 391.076,116.841 390.804,117.135 390.802 C 117.429 390.801,118.419 390.295,119.335 389.679 C 125.843 385.296,127.137 384.474,127.919 384.226 C 128.404 384.072,128.800 383.792,128.800 383.604 C 128.800 383.416,129.295 382.738,129.900 382.097 C 132.538 379.305,134.000 377.587,134.000 377.280 C 134.000 377.098,134.523 376.449,135.162 375.836 C 135.827 375.199,136.518 373.953,136.777 372.924 C 137.026 371.935,137.471 370.737,137.765 370.263 C 138.059 369.788,138.516 368.502,138.780 367.405 C 139.043 366.308,139.471 365.157,139.730 364.846 C 141.107 363.192,140.905 340.755,139.500 339.364 C 139.335 339.200,139.200 338.409,139.200 337.606 C 139.200 336.074,138.325 332.639,137.415 330.600 C 137.120 329.940,136.669 328.368,136.413 327.107 C 136.156 325.846,135.793 324.719,135.607 324.604 C 135.420 324.489,134.950 323.000,134.562 321.297 C 134.174 319.594,133.642 317.930,133.379 317.600 C 133.117 317.270,132.681 316.054,132.411 314.899 C 132.141 313.743,131.770 312.705,131.586 312.591 C 131.403 312.478,130.966 311.354,130.616 310.093 C 130.266 308.832,129.741 307.350,129.450 306.800 C 129.159 306.250,128.686 304.900,128.399 303.800 C 128.111 302.700,127.742 301.620,127.579 301.400 C 127.416 301.180,126.972 298.930,126.593 296.400 C 126.213 293.870,125.745 291.629,125.552 291.420 C 125.358 291.211,125.200 288.724,125.200 285.893 C 125.200 280.245,125.268 280.055,128.555 276.500 C 131.026 273.827,140.931 275.636,148.800 280.197 C 150.230 281.025,152.066 282.085,152.880 282.552 C 158.055 285.516,160.015 286.730,164.255 289.591 C 166.865 291.353,169.270 292.973,169.600 293.191 C 173.646 295.873,179.445 300.329,187.200 306.712 C 192.370 310.968,197.140 314.886,197.800 315.419 C 198.460 315.951,202.702 319.405,207.226 323.094 C 211.750 326.782,216.070 330.281,216.826 330.869 C 220.105 333.420,226.520 338.297,228.046 339.400 C 228.959 340.060,230.753 341.410,232.032 342.400 C 233.311 343.390,235.729 345.190,237.405 346.400 C 239.082 347.610,240.666 348.787,240.927 349.016 C 241.187 349.245,242.660 350.293,244.200 351.345 C 245.740 352.397,248.350 354.226,250.000 355.409 C 251.650 356.593,254.798 358.785,256.997 360.281 C 259.195 361.776,261.175 363.137,261.397 363.305 C 261.618 363.473,262.880 364.324,264.200 365.196 C 265.520 366.068,266.870 366.964,267.200 367.186 C 267.530 367.408,268.970 368.356,270.400 369.292 C 271.830 370.228,273.090 371.096,273.200 371.221 C 273.399 371.446,275.382 372.583,279.600 374.890 C 282.994 376.747,287.496 379.285,289.545 380.497 C 290.565 381.100,291.785 381.763,292.255 381.970 C 292.725 382.176,295.875 383.683,299.255 385.318 C 307.588 389.349,308.431 389.727,312.800 391.390 C 314.890 392.186,317.410 393.173,318.400 393.583 C 320.498 394.453,323.639 395.346,328.400 396.426 C 330.270 396.850,332.116 397.380,332.502 397.603 C 333.739 398.318,344.008 399.258,350.200 399.222 L 356.200 399.188 359.030 397.794 C 360.586 397.027,362.071 396.400,362.330 396.400 C 362.588 396.400,362.800 396.076,362.800 395.680 C 362.800 395.284,363.016 394.744,363.280 394.480 C 364.584 393.176,364.773 389.283,363.635 387.187 C 363.452 386.850,363.175 385.950,363.021 385.187 C 362.649 383.349,361.657 381.200,361.181 381.200 C 360.972 381.200,360.800 380.965,360.800 380.678 C 360.800 380.390,360.337 379.535,359.772 378.778 C 359.207 378.020,358.483 376.860,358.164 376.200 C 357.105 374.011,355.679 371.876,355.035 371.516 C 354.686 371.320,354.400 370.951,354.400 370.694 C 354.400 370.438,354.040 369.862,353.600 369.414 C 353.160 368.966,351.730 367.250,350.423 365.600 C 349.115 363.950,347.676 362.221,347.223 361.758 C 346.770 361.295,346.397 360.755,346.394 360.558 C 346.391 360.361,345.086 358.895,343.494 357.301 C 341.902 355.706,338.710 352.376,336.400 349.901 C 332.101 345.294,315.692 329.152,311.291 325.200 C 309.943 323.990,307.570 321.785,306.018 320.300 C 304.465 318.815,303.094 317.600,302.972 317.600 C 302.849 317.600,299.506 314.585,295.542 310.900 C 291.578 307.215,288.035 304.040,287.668 303.845 C 287.300 303.650,286.519 303.020,285.932 302.445 C 285.345 301.870,281.872 298.790,278.216 295.600 C 272.082 290.249,248.000 266.805,248.000 266.184 C 248.000 266.035,247.650 265.527,247.223 265.056 C 245.074 262.687,242.000 258.814,242.000 258.476 C 242.000 258.265,241.550 257.797,241.000 257.437 C 240.450 257.076,240.000 256.586,240.000 256.347 C 240.000 256.108,239.650 255.527,239.223 255.056 C 236.997 252.602,234.000 248.808,234.000 248.444 C 234.000 248.215,233.640 247.835,233.200 247.600 C 232.760 247.365,232.400 247.006,232.400 246.804 C 232.400 246.601,231.932 245.753,231.360 244.918 C 230.788 244.083,230.158 243.040,229.961 242.600 C 229.601 241.798,229.174 241.079,227.936 239.190 C 227.236 238.123,225.608 235.218,224.297 232.700 C 223.868 231.875,223.355 231.200,223.158 231.200 C 222.961 231.200,222.800 231.025,222.800 230.812 C 222.800 230.598,222.367 229.473,221.838 228.312 C 221.310 227.150,220.669 225.390,220.415 224.400 C 220.161 223.410,219.707 222.060,219.406 221.400 C 219.106 220.740,218.640 219.300,218.372 218.200 C 218.104 217.100,217.737 216.010,217.557 215.777 C 216.779 214.772,216.000 210.350,216.000 206.940 C 216.000 204.909,215.820 203.136,215.600 203.000 C 215.099 202.691,215.063 193.904,215.561 193.380 C 215.759 193.171,216.232 191.560,216.612 189.800 C 216.992 188.040,217.443 186.420,217.614 186.200 C 217.785 185.980,218.144 184.683,218.411 183.318 C 218.687 181.906,219.221 180.543,219.648 180.156 C 220.062 179.782,220.405 179.279,220.411 179.038 C 220.421 178.653,221.233 177.451,223.409 174.600 C 224.353 173.364,226.800 169.641,226.800 169.442 C 226.800 168.907,242.272 154.400,242.843 154.400 C 243.086 154.400,243.791 153.995,244.410 153.500 C 245.029 153.005,246.304 152.150,247.243 151.600 C 248.182 151.050,250.247 149.745,251.832 148.700 C 253.417 147.655,254.839 146.800,254.991 146.800 C 255.144 146.800,256.019 146.299,256.935 145.686 C 257.851 145.073,258.904 144.398,259.275 144.186 C 259.983 143.782,262.677 142.025,267.993 138.500 C 269.735 137.345,271.261 136.400,271.383 136.400 C 271.506 136.400,272.352 135.860,273.263 135.200 C 274.175 134.540,275.157 134.000,275.446 134.000 C 275.735 134.000,276.165 133.640,276.400 133.200 C 276.635 132.760,277.007 132.400,277.227 132.400 C 277.446 132.400,278.744 131.581,280.113 130.579 C 287.515 125.161,289.149 124.000,289.374 124.000 C 289.510 124.000,290.202 123.471,290.911 122.824 C 293.804 120.185,301.173 114.000,301.424 114.000 C 301.572 114.000,302.392 113.280,303.246 112.400 C 304.100 111.520,304.950 110.800,305.133 110.800 C 305.317 110.800,305.936 110.305,306.508 109.700 C 307.080 109.095,308.595 107.700,309.874 106.600 C 311.153 105.500,313.190 103.484,314.400 102.121 C 315.610 100.757,317.454 98.777,318.498 97.721 C 319.542 96.664,320.397 95.632,320.398 95.428 C 320.399 95.223,321.390 93.763,322.600 92.183 C 323.810 90.603,324.800 89.171,324.800 88.999 C 324.800 88.828,325.062 88.488,325.383 88.244 C 326.267 87.571,330.646 78.748,330.979 76.969 C 331.141 76.109,331.390 75.225,331.534 75.003 C 335.782 68.443,330.821 55.978,323.573 55.003 C 322.378 54.842,321.184 54.536,320.919 54.322 C 320.312 53.832,309.397 53.889,308.481 54.388 C 308.106 54.591,306.360 55.047,304.600 55.400 C 302.840 55.753,301.040 56.196,300.600 56.384 C 300.160 56.573,298.450 57.033,296.800 57.408 C 295.150 57.782,293.620 58.233,293.400 58.409 C 293.180 58.585,291.920 59.017,290.600 59.369 C 289.280 59.721,286.400 60.645,284.200 61.422 C 282.000 62.199,279.300 63.138,278.200 63.509 C 277.100 63.880,276.110 64.295,276.000 64.431 C 275.890 64.567,274.720 65.053,273.400 65.512 C 268.080 67.359,265.620 68.346,261.800 70.169 C 259.600 71.218,256.180 72.849,254.200 73.794 C 252.220 74.739,247.360 77.085,243.400 79.009 C 236.123 82.544,225.607 87.597,223.400 88.619 C 222.740 88.925,220.850 89.729,219.200 90.407 C 217.550 91.085,215.460 91.990,214.556 92.420 C 213.652 92.849,212.802 93.200,212.666 93.200 C 212.531 93.200,211.241 93.740,209.800 94.400 C 208.359 95.060,207.049 95.601,206.890 95.602 C 206.730 95.604,206.125 95.853,205.545 96.155 C 204.965 96.458,203.525 97.021,202.345 97.406 C 201.165 97.791,200.020 98.244,199.800 98.412 C 199.580 98.581,198.500 98.998,197.400 99.340 C 195.019 100.079,190.281 101.818,188.600 102.569 C 187.940 102.864,186.410 103.330,185.200 103.605 C 183.990 103.880,182.820 104.237,182.600 104.398 C 182.380 104.559,180.850 105.010,179.200 105.400 C 177.550 105.790,176.020 106.239,175.800 106.397 C 175.043 106.941,171.792 107.543,168.091 107.823 C 166.052 107.978,164.286 108.261,164.168 108.452 C 163.866 108.941,155.304 108.892,155.000 108.400 C 154.864 108.180,153.794 108.000,152.622 108.000 C 150.642 108.000,146.456 106.974,146.000 106.378 C 145.890 106.234,145.088 105.884,144.218 105.600 C 142.819 105.144,136.400 99.398,136.400 98.602 C 136.400 98.467,136.058 97.601,135.641 96.678 C 135.224 95.755,134.653 94.190,134.374 93.200 C 134.094 92.210,133.715 91.229,133.533 91.020 C 133.350 90.811,133.199 88.831,133.197 86.620 C 133.194 81.343,132.135 68.447,131.657 67.860 C 131.451 67.607,131.059 65.960,130.786 64.200 C 130.513 62.440,129.865 60.083,129.345 58.961 C 128.825 57.840,128.400 56.780,128.400 56.605 C 128.400 56.431,128.019 55.458,127.552 54.444 C 126.645 52.471,126.399 51.992,124.850 49.200 C 124.302 48.210,123.435 46.602,122.924 45.628 C 122.413 44.653,121.681 43.553,121.298 43.184 C 120.914 42.816,119.610 41.363,118.401 39.957 C 115.577 36.674,108.533 30.091,107.080 29.377 C 106.464 29.074,104.934 28.052,103.680 27.106 C 102.426 26.160,99.285 24.326,96.700 23.031 C 94.115 21.736,92.000 20.561,92.000 20.419 C 92.000 20.276,90.650 19.824,89.000 19.413 C 87.350 19.002,86.000 18.552,86.000 18.413 C 86.000 18.274,84.605 17.834,82.900 17.436 C 81.195 17.038,79.440 16.563,79.000 16.381 C 75.442 14.908,63.745 14.376,60.200 15.525 " stroke="none" fill="#040404" fill-rule="evenodd"></path><path id="path1" d="M0.000 200.000 L 0.000 400.000 33.205 400.000 L 66.409 400.000 66.174 398.300 C 66.044 397.365,65.690 395.250,65.386 393.600 C 65.082 391.950,64.638 388.800,64.400 386.600 C 64.162 384.400,63.712 381.250,63.400 379.600 C 63.088 377.950,62.638 374.800,62.400 372.600 C 62.162 370.400,61.712 367.250,61.400 365.600 C 61.088 363.950,60.636 360.800,60.394 358.600 C 60.153 356.400,59.702 353.160,59.392 351.400 C 59.082 349.640,58.538 345.594,58.182 342.409 C 57.826 339.223,57.474 336.520,57.400 336.400 C 57.326 336.280,56.972 333.577,56.613 330.391 C 56.254 327.206,55.712 323.070,55.408 321.200 C 55.104 319.330,54.650 315.820,54.400 313.400 C 54.150 310.980,53.696 307.470,53.393 305.600 C 53.089 303.730,52.557 299.680,52.211 296.600 C 51.864 293.520,51.501 290.730,51.402 290.400 C 51.304 290.070,50.853 286.650,50.400 282.800 C 49.947 278.950,49.496 275.530,49.397 275.200 C 49.298 274.870,48.849 271.360,48.400 267.400 C 47.951 263.440,47.503 259.930,47.405 259.600 C 47.307 259.270,46.856 255.310,46.404 250.800 C 45.952 246.290,45.500 242.372,45.401 242.093 C 45.301 241.814,44.851 237.944,44.401 233.493 C 43.950 229.042,43.503 225.179,43.407 224.909 C 43.311 224.639,42.858 220.139,42.401 214.909 C 41.944 209.679,41.490 205.130,41.392 204.800 C 41.294 204.470,40.851 200.060,40.407 195.000 C 39.964 189.940,39.510 185.350,39.398 184.800 C 39.286 184.250,38.841 179.660,38.410 174.600 C 37.979 169.540,37.451 164.140,37.237 162.600 C 37.023 161.060,36.656 156.560,36.420 152.600 C 36.185 148.640,35.723 142.250,35.394 138.400 C 34.834 131.851,34.008 118.414,33.192 102.600 C 30.994 59.944,37.012 30.950,50.235 20.498 C 51.976 19.122,53.587 17.845,53.816 17.660 C 54.045 17.476,55.305 16.954,56.616 16.502 C 57.927 16.049,59.720 15.399,60.600 15.057 C 63.347 13.990,73.727 14.344,76.600 15.603 C 77.040 15.796,78.678 16.156,80.239 16.403 C 81.801 16.650,83.578 17.111,84.188 17.428 C 84.799 17.744,86.328 18.270,87.587 18.597 C 89.741 19.155,101.433 24.749,101.957 25.473 C 102.225 25.842,105.292 27.910,106.681 28.658 C 108.370 29.568,115.458 36.118,118.306 39.400 C 119.261 40.500,120.652 42.046,121.398 42.836 C 122.145 43.626,123.068 45.066,123.449 46.036 C 123.831 47.006,124.381 47.944,124.672 48.120 C 124.962 48.296,125.200 48.676,125.200 48.964 C 125.200 49.252,125.619 50.106,126.131 50.860 C 126.643 51.615,127.313 53.080,127.618 54.116 C 127.924 55.152,128.299 56.000,128.450 56.000 C 128.602 56.000,129.037 56.990,129.418 58.200 C 129.798 59.410,130.233 60.400,130.384 60.400 C 130.535 60.400,130.978 62.560,131.367 65.200 C 131.757 67.840,132.206 70.000,132.366 70.000 C 132.630 70.000,133.396 80.479,133.735 88.737 C 133.810 90.572,134.045 92.192,134.256 92.337 C 134.621 92.587,136.000 96.481,136.000 97.263 C 136.000 97.746,136.475 98.314,139.600 101.568 C 142.185 104.259,144.496 105.699,148.000 106.800 C 148.990 107.112,149.923 107.545,150.073 107.764 C 150.502 108.387,167.432 108.327,168.060 107.700 C 168.335 107.425,169.263 107.200,170.122 107.200 C 171.723 107.200,175.968 106.267,177.400 105.600 C 177.840 105.395,179.370 104.945,180.800 104.600 C 182.230 104.255,183.760 103.810,184.200 103.611 C 184.640 103.412,186.080 102.951,187.400 102.587 C 188.720 102.223,189.980 101.785,190.200 101.615 C 190.420 101.445,191.590 100.988,192.800 100.600 C 194.010 100.212,195.180 99.755,195.400 99.585 C 195.620 99.415,196.880 98.967,198.200 98.590 C 199.520 98.212,200.780 97.769,201.000 97.604 C 201.220 97.439,202.120 97.081,203.000 96.808 C 203.880 96.535,205.320 95.980,206.200 95.575 C 207.080 95.171,209.150 94.282,210.800 93.600 C 212.450 92.918,214.540 92.010,215.444 91.580 C 216.348 91.151,217.198 90.800,217.334 90.800 C 217.469 90.800,218.759 90.260,220.200 89.600 C 221.641 88.940,222.919 88.400,223.040 88.400 C 223.160 88.400,226.531 86.802,230.530 84.850 C 245.162 77.704,251.862 74.464,254.600 73.207 C 256.140 72.500,259.200 71.060,261.400 70.007 C 266.021 67.795,270.471 66.000,271.335 66.000 C 271.664 66.000,271.993 65.847,272.067 65.661 C 272.140 65.475,273.280 64.947,274.600 64.489 C 278.943 62.980,282.194 61.779,282.600 61.532 C 282.820 61.398,284.170 60.970,285.600 60.581 C 287.030 60.193,288.650 59.657,289.200 59.391 C 289.750 59.125,291.190 58.680,292.400 58.401 C 293.610 58.123,294.796 57.741,295.036 57.552 C 295.275 57.363,296.895 56.927,298.636 56.583 C 300.376 56.239,302.160 55.788,302.600 55.581 C 304.401 54.733,309.516 54.000,313.626 54.000 C 316.593 54.000,318.000 53.856,318.000 53.551 C 318.000 53.247,318.162 53.230,318.500 53.498 C 318.775 53.716,320.530 54.125,322.400 54.408 C 325.499 54.876,325.981 55.076,327.843 56.661 C 328.967 57.617,330.047 58.401,330.243 58.401 C 330.439 58.402,330.947 59.257,331.371 60.301 C 331.794 61.346,332.334 62.328,332.571 62.485 C 333.304 62.971,333.373 70.907,332.658 72.465 C 332.321 73.199,331.832 74.970,331.572 76.400 C 331.311 77.830,330.893 79.180,330.642 79.400 C 330.390 79.620,329.833 80.610,329.403 81.600 C 328.974 82.590,328.522 83.490,328.400 83.600 C 328.278 83.710,327.823 84.609,327.389 85.597 C 326.955 86.585,326.363 87.665,326.073 87.997 C 324.802 89.452,321.600 94.000,321.600 94.350 C 321.600 94.562,319.531 97.002,317.002 99.772 C 313.082 104.067,309.780 107.185,303.400 112.618 C 302.740 113.180,300.099 115.431,297.532 117.620 C 294.964 119.809,292.742 121.600,292.592 121.600 C 292.443 121.600,291.822 122.095,291.211 122.700 C 289.703 124.196,285.020 127.600,284.472 127.600 C 284.228 127.600,283.835 127.960,283.600 128.400 C 283.365 128.840,282.949 129.200,282.677 129.200 C 282.405 129.200,281.549 129.722,280.774 130.360 C 278.968 131.850,270.447 137.600,270.047 137.600 C 269.879 137.600,269.035 138.135,268.171 138.789 C 267.307 139.443,266.394 139.983,266.143 139.989 C 265.891 139.995,265.582 140.270,265.455 140.600 C 265.329 140.930,264.984 141.200,264.690 141.200 C 264.396 141.200,263.535 141.666,262.778 142.235 C 262.020 142.804,260.995 143.429,260.500 143.625 C 260.005 143.820,259.600 144.165,259.600 144.390 C 259.600 144.616,259.362 144.800,259.070 144.800 C 258.779 144.800,257.655 145.430,256.572 146.200 C 255.489 146.970,254.465 147.600,254.298 147.600 C 254.130 147.600,253.248 148.140,252.337 148.800 C 251.425 149.460,250.456 150.000,250.183 150.000 C 249.909 150.000,249.582 150.270,249.455 150.600 C 249.329 150.930,249.027 151.200,248.785 151.200 C 248.542 151.200,247.559 151.740,246.600 152.400 C 245.641 153.060,244.672 153.600,244.448 153.600 C 244.223 153.600,243.896 153.825,243.720 154.101 C 243.544 154.376,242.928 154.844,242.350 155.141 C 240.534 156.076,226.171 170.479,225.440 172.100 C 225.067 172.925,224.591 173.600,224.381 173.600 C 224.172 173.600,224.000 173.788,224.000 174.017 C 224.000 174.247,223.280 175.388,222.400 176.554 C 221.520 177.719,220.800 178.862,220.800 179.094 C 220.800 179.325,220.558 179.607,220.262 179.721 C 219.966 179.834,219.497 180.799,219.219 181.864 C 218.941 182.929,218.486 184.340,218.209 185.000 C 217.931 185.660,217.483 187.370,217.213 188.800 C 216.942 190.230,216.514 191.529,216.261 191.688 C 215.707 192.033,215.777 210.231,216.334 210.950 C 216.526 211.197,216.992 212.657,217.369 214.192 C 217.747 215.728,218.207 217.168,218.392 217.392 C 218.577 217.617,219.031 218.970,219.400 220.400 C 219.769 221.830,220.222 223.182,220.406 223.405 C 220.590 223.628,220.958 224.708,221.223 225.805 C 221.489 226.902,222.222 228.658,222.853 229.706 C 223.484 230.754,224.000 231.789,224.000 232.006 C 224.000 232.223,224.135 232.402,224.300 232.405 C 224.465 232.407,224.957 233.172,225.394 234.105 C 225.831 235.037,226.301 235.890,226.440 236.000 C 226.579 236.110,227.122 236.983,227.646 237.940 C 228.171 238.897,229.050 240.455,229.600 241.402 C 230.150 242.349,230.940 243.726,231.356 244.462 C 231.772 245.198,232.226 245.890,232.365 246.000 C 232.504 246.110,232.957 246.740,233.372 247.400 C 233.786 248.060,234.997 249.614,236.062 250.854 C 237.128 252.094,238.000 253.238,238.000 253.397 C 238.000 253.555,238.450 254.039,239.000 254.471 C 239.550 254.904,240.000 255.410,240.000 255.595 C 240.000 255.780,240.352 256.352,240.782 256.866 C 244.609 261.436,246.000 263.181,246.000 263.413 C 246.000 263.562,246.450 264.039,247.000 264.471 C 247.550 264.904,248.000 265.432,248.000 265.645 C 248.000 266.091,271.803 290.000,272.247 290.000 C 272.409 290.000,273.185 290.612,273.971 291.360 C 277.280 294.508,283.949 300.400,284.204 300.400 C 284.355 300.400,285.244 301.210,286.180 302.200 C 287.115 303.190,288.029 304.000,288.211 304.000 C 288.393 304.000,289.185 304.612,289.971 305.360 C 290.757 306.107,294.100 309.179,297.400 312.186 C 300.700 315.192,304.510 318.721,305.866 320.026 C 307.222 321.332,308.463 322.400,308.625 322.400 C 309.140 322.400,329.499 342.263,336.298 349.400 C 344.624 358.139,348.800 362.696,348.800 363.044 C 348.800 363.162,349.745 364.379,350.900 365.747 C 352.055 367.115,353.450 368.839,354.000 369.578 C 354.550 370.317,355.360 371.317,355.800 371.799 C 356.240 372.282,356.960 373.379,357.400 374.238 C 357.840 375.097,358.342 375.980,358.515 376.200 C 359.384 377.305,362.000 381.614,362.000 381.940 C 362.000 382.146,362.238 382.406,362.529 382.517 C 362.826 382.632,363.284 384.006,363.575 385.660 C 363.860 387.277,364.227 388.780,364.391 389.000 C 365.038 389.868,365.160 391.480,364.634 392.230 C 364.335 392.657,363.855 393.792,363.567 394.751 C 363.165 396.095,362.778 396.589,361.882 396.901 C 361.242 397.124,359.882 397.777,358.859 398.352 C 357.219 399.274,356.412 399.423,352.000 399.622 C 349.250 399.746,358.925 399.881,373.500 399.924 L 400.000 400.000 400.000 200.000 L 400.000 0.000 200.000 0.000 L 0.000 0.000 0.000 200.000 M128.675 276.722 C 128.084 277.339,127.600 278.055,127.600 278.313 C 127.600 278.571,127.128 279.091,126.551 279.469 L 125.502 280.156 125.677 286.909 C 125.779 290.811,126.024 293.776,126.257 293.931 C 126.480 294.079,126.970 296.080,127.347 298.378 C 127.724 300.676,128.184 302.746,128.370 302.978 C 128.556 303.210,129.039 304.525,129.443 305.900 C 129.847 307.275,130.317 308.400,130.489 308.400 C 130.660 308.400,130.800 308.649,130.800 308.954 C 130.800 309.660,132.085 313.734,132.391 314.000 C 132.718 314.283,134.000 318.536,134.000 319.335 C 134.000 319.701,134.145 320.000,134.323 320.000 C 134.500 320.000,134.980 321.305,135.390 322.900 C 135.799 324.495,136.243 325.890,136.377 326.000 C 136.511 326.110,136.961 327.595,137.377 329.300 C 137.793 331.005,138.255 332.400,138.403 332.400 C 138.790 332.400,139.527 336.102,139.837 339.600 C 139.984 341.250,140.215 342.780,140.352 343.000 C 141.469 344.800,141.306 362.540,140.152 364.600 C 139.906 365.040,139.467 366.345,139.176 367.500 C 138.886 368.655,138.527 369.600,138.377 369.600 C 138.228 369.600,137.791 370.725,137.407 372.100 C 136.748 374.456,136.003 375.581,132.708 379.195 C 132.208 379.743,131.710 380.409,131.600 380.675 C 131.229 381.573,128.125 384.598,126.958 385.199 C 126.321 385.527,125.098 386.291,124.240 386.898 C 123.382 387.504,122.437 388.000,122.140 388.000 C 121.843 388.000,121.600 388.172,121.600 388.381 C 121.600 388.591,120.978 389.057,120.218 389.418 C 119.459 389.779,118.635 390.317,118.387 390.615 C 118.140 390.913,116.962 391.375,115.769 391.642 C 114.576 391.909,113.600 392.255,113.600 392.412 C 113.600 392.568,112.745 392.924,111.700 393.202 C 110.655 393.480,109.440 393.923,109.000 394.185 C 107.710 394.954,104.152 396.000,102.825 396.000 C 102.151 396.000,101.600 396.142,101.600 396.316 C 101.600 396.490,98.945 396.971,95.700 397.384 C 92.455 397.797,89.681 398.316,89.535 398.535 C 89.382 398.765,84.551 399.136,78.135 399.409 C 69.074 399.794,93.037 399.883,206.800 399.886 C 334.097 399.889,346.063 399.836,340.600 399.283 C 337.300 398.950,334.510 398.554,334.400 398.405 C 334.290 398.255,332.580 397.816,330.600 397.429 C 328.620 397.041,326.820 396.578,326.600 396.400 C 326.380 396.221,325.030 395.852,323.600 395.579 C 322.170 395.306,320.332 394.749,319.516 394.341 C 318.700 393.934,317.850 393.600,317.628 393.600 C 317.406 393.600,316.273 393.172,315.112 392.650 C 313.950 392.127,312.280 391.474,311.400 391.198 C 310.520 390.922,309.620 390.561,309.400 390.397 C 309.180 390.232,308.553 389.960,308.007 389.792 C 307.460 389.624,303.921 387.982,300.141 386.143 C 296.362 384.305,293.074 382.800,292.835 382.800 C 292.596 382.800,292.400 382.620,292.400 382.400 C 292.400 382.180,292.194 382.000,291.943 382.000 C 291.503 382.000,278.408 374.887,278.000 374.426 C 277.890 374.302,277.116 373.884,276.280 373.497 C 275.443 373.110,274.543 372.613,274.280 372.392 C 274.016 372.171,272.720 371.276,271.400 370.404 C 270.080 369.532,268.730 368.638,268.400 368.417 C 268.070 368.196,266.720 367.296,265.400 366.417 C 264.080 365.538,262.730 364.638,262.400 364.417 C 262.070 364.196,260.720 363.296,259.400 362.417 C 258.080 361.538,256.730 360.637,256.400 360.415 C 255.348 359.707,248.216 354.642,247.800 354.308 C 247.580 354.131,245.330 352.524,242.800 350.736 C 238.399 347.627,225.993 338.377,218.800 332.840 C 215.058 329.960,206.618 323.136,200.973 318.426 C 198.978 316.762,196.742 314.950,196.003 314.400 C 195.265 313.850,193.567 312.487,192.230 311.372 C 176.845 298.531,165.161 289.962,155.905 284.732 C 154.087 283.705,152.409 282.715,152.176 282.532 C 150.435 281.166,144.316 278.194,141.600 277.394 C 140.170 276.974,138.550 276.399,138.000 276.117 C 135.916 275.049,129.904 275.439,128.675 276.722 " stroke="none" fill="#fbfbfb" fill-rule="evenodd"></path><path id="path2" d="M74.000 15.356 C 74.000 15.442,74.617 15.585,75.372 15.673 C 76.127 15.761,76.656 15.690,76.548 15.516 C 76.355 15.203,74.000 15.055,74.000 15.356 M130.400 61.576 C 130.400 62.223,130.542 62.841,130.716 62.948 C 130.890 63.056,130.961 62.527,130.873 61.772 C 130.676 60.091,130.400 59.977,130.400 61.576 M33.334 70.000 C 33.334 71.650,33.405 72.325,33.491 71.500 C 33.578 70.675,33.578 69.325,33.491 68.500 C 33.405 67.675,33.334 68.350,33.334 70.000 M132.531 72.600 C 132.533 74.140,132.605 74.721,132.692 73.891 C 132.779 73.061,132.777 71.801,132.689 71.091 C 132.600 70.381,132.529 71.060,132.531 72.600 M32.950 79.000 C 32.951 81.420,33.016 82.358,33.096 81.085 C 33.176 79.812,33.175 77.832,33.094 76.685 C 33.014 75.538,32.949 76.580,32.950 79.000 M32.957 92.800 C 32.957 95.770,33.020 96.985,33.097 95.500 C 33.174 94.015,33.174 91.585,33.097 90.100 C 33.020 88.615,32.957 89.830,32.957 92.800 M319.000 97.072 C 317.680 98.528,316.432 100.007,316.226 100.359 C 315.795 101.097,320.335 96.260,321.123 95.142 C 322.051 93.824,321.451 94.370,319.000 97.072 M33.344 104.000 C 33.344 106.090,33.412 106.945,33.494 105.900 C 33.576 104.855,33.576 103.145,33.494 102.100 C 33.412 101.055,33.344 101.910,33.344 104.000 M170.600 107.096 C 169.500 107.180,168.474 107.372,168.319 107.524 C 168.165 107.676,168.975 107.738,170.119 107.663 C 171.264 107.588,172.371 107.363,172.580 107.163 C 172.789 106.963,172.879 106.832,172.780 106.872 C 172.681 106.912,171.700 107.013,170.600 107.096 M306.581 109.700 L 305.000 111.400 306.700 109.819 C 308.281 108.348,308.584 108.000,308.281 108.000 C 308.216 108.000,307.451 108.765,306.581 109.700 M33.693 111.600 C 33.693 112.370,33.775 112.685,33.876 112.300 C 33.976 111.915,33.976 111.285,33.876 110.900 C 33.775 110.515,33.693 110.830,33.693 111.600 M34.093 118.800 C 34.093 119.570,34.175 119.885,34.276 119.500 C 34.376 119.115,34.376 118.485,34.276 118.100 C 34.175 117.715,34.093 118.030,34.093 118.800 M293.775 120.500 L 292.600 121.800 293.900 120.625 C 294.615 119.979,295.200 119.394,295.200 119.325 C 295.200 119.016,294.870 119.288,293.775 120.500 M34.501 126.200 C 34.505 127.080,34.587 127.393,34.683 126.895 C 34.779 126.398,34.775 125.678,34.675 125.295 C 34.575 124.913,34.496 125.320,34.501 126.200 M34.914 132.200 C 34.917 133.300,34.995 133.703,35.087 133.095 C 35.179 132.486,35.177 131.586,35.082 131.095 C 34.987 130.603,34.911 131.100,34.914 132.200 M277.400 132.635 L 276.200 133.666 277.500 132.806 C 278.215 132.333,278.800 131.868,278.800 131.773 C 278.800 131.473,278.631 131.578,277.400 132.635 M35.314 136.600 C 35.317 137.700,35.395 138.103,35.487 137.495 C 35.579 136.886,35.577 135.986,35.482 135.495 C 35.387 135.003,35.311 135.500,35.314 136.600 M271.400 136.635 L 270.200 137.666 271.500 136.806 C 272.215 136.333,272.800 135.868,272.800 135.773 C 272.800 135.473,272.631 135.578,271.400 136.635 M36.501 154.600 C 36.505 155.480,36.587 155.793,36.683 155.295 C 36.779 154.798,36.775 154.078,36.675 153.695 C 36.575 153.313,36.496 153.720,36.501 154.600 M36.893 159.600 C 36.893 160.370,36.975 160.685,37.076 160.300 C 37.176 159.915,37.176 159.285,37.076 158.900 C 36.975 158.515,36.893 158.830,36.893 159.600 M37.293 162.800 C 37.293 163.570,37.375 163.885,37.476 163.500 C 37.576 163.115,37.576 162.485,37.476 162.100 C 37.375 161.715,37.293 162.030,37.293 162.800 M230.792 165.500 L 227.000 169.400 230.900 165.608 C 233.045 163.522,234.800 161.767,234.800 161.708 C 234.800 161.418,234.314 161.878,230.792 165.500 M223.123 175.100 C 222.418 175.921,221.890 176.800,222.101 176.800 C 222.183 176.800,222.649 176.260,223.137 175.600 C 224.101 174.296,224.092 173.972,223.123 175.100 M38.893 180.400 C 38.893 181.170,38.975 181.485,39.076 181.100 C 39.176 180.715,39.176 180.085,39.076 179.700 C 38.975 179.315,38.893 179.630,38.893 180.400 M39.293 183.600 C 39.293 184.370,39.375 184.685,39.476 184.300 C 39.576 183.915,39.576 183.285,39.476 182.900 C 39.375 182.515,39.293 182.830,39.293 183.600 M40.901 200.600 C 40.905 201.480,40.987 201.793,41.083 201.295 C 41.179 200.798,41.175 200.078,41.075 199.695 C 40.975 199.313,40.896 199.720,40.901 200.600 M41.293 203.600 C 41.293 204.370,41.375 204.685,41.476 204.300 C 41.576 203.915,41.576 203.285,41.476 202.900 C 41.375 202.515,41.293 202.830,41.293 203.600 M42.901 220.600 C 42.905 221.480,42.987 221.793,43.083 221.295 C 43.179 220.798,43.175 220.078,43.075 219.695 C 42.975 219.313,42.896 219.720,42.901 220.600 M43.293 223.600 C 43.293 224.370,43.375 224.685,43.476 224.300 C 43.576 223.915,43.576 223.285,43.476 222.900 C 43.375 222.515,43.293 222.830,43.293 223.600 M44.893 238.400 C 44.893 239.170,44.975 239.485,45.076 239.100 C 45.176 238.715,45.176 238.085,45.076 237.700 C 44.975 237.315,44.893 237.630,44.893 238.400 M47.293 258.400 C 47.293 259.170,47.375 259.485,47.476 259.100 C 47.576 258.715,47.576 258.085,47.476 257.700 C 47.375 257.315,47.293 257.630,47.293 258.400 M274.767 292.545 C 275.300 293.201,276.800 294.193,276.800 293.889 C 276.800 293.813,276.215 293.322,275.500 292.799 C 274.696 292.210,274.416 292.113,274.767 292.545 M126.400 295.176 C 126.400 295.823,126.542 296.441,126.716 296.548 C 126.890 296.656,126.961 296.127,126.873 295.372 C 126.676 293.691,126.400 293.577,126.400 295.176 M290.767 306.545 C 291.300 307.201,292.800 308.193,292.800 307.889 C 292.800 307.813,292.215 307.322,291.500 306.799 C 290.696 306.210,290.416 306.113,290.767 306.545 M136.400 326.976 C 136.400 327.513,136.547 328.044,136.728 328.155 C 136.908 328.267,136.977 327.827,136.882 327.179 C 136.672 325.749,136.400 325.635,136.400 326.976 M312.544 326.309 C 312.860 326.821,315.200 328.553,315.200 328.275 C 315.200 328.176,314.539 327.591,313.732 326.975 C 312.924 326.359,312.389 326.059,312.544 326.309 M140.446 344.876 C 140.421 345.908,140.542 346.841,140.716 346.948 C 140.890 347.056,140.970 346.482,140.893 345.672 C 140.659 343.198,140.495 342.907,140.446 344.876 M140.604 357.700 C 140.308 358.567,140.187 364.377,140.471 364.082 C 140.727 363.816,141.127 357.197,140.887 357.199 C 140.826 357.200,140.698 357.425,140.604 357.700 M352.364 367.933 C 352.580 368.336,353.071 368.921,353.455 369.233 C 353.887 369.584,353.790 369.304,353.201 368.500 C 352.151 367.065,351.757 366.798,352.364 367.933 M130.175 382.100 L 129.000 383.400 130.300 382.225 C 131.512 381.130,131.784 380.800,131.475 380.800 C 131.406 380.800,130.821 381.385,130.175 382.100 M364.564 390.196 C 364.653 390.853,364.556 391.708,364.349 392.096 C 364.141 392.483,364.062 392.800,364.172 392.800 C 364.763 392.800,365.129 391.217,364.783 390.161 L 364.403 389.000 364.564 390.196 M326.627 396.355 C 327.052 396.744,329.529 397.396,329.154 397.020 C 329.019 396.886,328.311 396.604,327.581 396.395 C 326.851 396.185,326.422 396.168,326.627 396.355 M99.505 396.683 C 100.002 396.779,100.722 396.775,101.105 396.675 C 101.487 396.575,101.080 396.496,100.200 396.501 C 99.320 396.505,99.007 396.587,99.505 396.683 M87.052 398.716 C 86.944 398.890,87.473 398.961,88.228 398.873 C 88.983 398.785,89.600 398.642,89.600 398.556 C 89.600 398.255,87.245 398.403,87.052 398.716 M334.800 398.625 C 336.203 398.935,338.718 398.990,338.543 398.707 C 338.438 398.538,337.418 398.421,336.276 398.446 C 335.134 398.472,334.470 398.552,334.800 398.625 " stroke="none" fill="#a2a2a2" fill-rule="evenodd"></path><path id="path3" d="M71.552 14.912 C 71.745 15.105,72.419 15.198,73.051 15.119 C 74.109 14.987,74.081 14.959,72.700 14.768 C 71.840 14.649,71.350 14.710,71.552 14.912 M323.552 54.912 C 323.745 55.105,324.419 55.198,325.051 55.119 C 326.109 54.987,326.081 54.959,324.700 54.768 C 323.840 54.649,323.350 54.710,323.552 54.912 M332.797 67.318 L 332.995 71.400 333.113 67.636 C 333.178 65.566,333.090 63.729,332.916 63.554 C 332.742 63.379,332.689 65.073,332.797 67.318 M132.734 77.718 C 132.807 79.083,132.987 80.327,133.134 80.482 C 133.280 80.636,133.340 79.646,133.266 78.282 C 133.193 76.917,133.013 75.673,132.866 75.518 C 132.720 75.364,132.660 76.354,132.734 77.718 M32.924 85.400 C 32.926 86.720,33.001 87.212,33.090 86.493 C 33.179 85.774,33.177 84.694,33.086 84.093 C 32.995 83.492,32.922 84.080,32.924 85.400 M33.293 99.200 C 33.293 99.970,33.375 100.285,33.476 99.900 C 33.576 99.515,33.576 98.885,33.476 98.500 C 33.375 98.115,33.293 98.430,33.293 99.200 M140.832 348.676 C 140.814 349.598,140.942 350.441,141.116 350.548 C 141.290 350.656,141.367 350.082,141.287 349.272 C 141.069 347.058,140.867 346.795,140.832 348.676 M140.937 354.200 C 140.939 355.960,141.009 356.630,141.093 355.689 C 141.178 354.749,141.177 353.309,141.091 352.489 C 141.005 351.670,140.936 352.440,140.937 354.200 M97.000 396.800 L 95.400 397.086 96.876 397.143 C 97.688 397.174,98.464 397.020,98.600 396.800 C 98.736 396.580,98.792 396.426,98.724 396.457 C 98.656 396.488,97.880 396.642,97.000 396.800 M79.500 399.096 C 80.875 399.174,83.125 399.174,84.500 399.096 C 85.875 399.018,84.750 398.954,82.000 398.954 C 79.250 398.954,78.125 399.018,79.500 399.096 M339.200 399.023 C 340.686 399.347,342.726 399.403,342.548 399.116 C 342.441 398.942,341.508 398.821,340.476 398.846 C 339.444 398.872,338.870 398.952,339.200 399.023 " stroke="none" fill="#7c7c7c" fill-rule="evenodd"></path><path id="path4" d="M61.860 14.700 C 61.758 14.865,63.142 14.952,64.937 14.892 C 70.817 14.698,71.482 14.541,66.724 14.470 C 64.152 14.431,61.963 14.535,61.860 14.700 M104.800 27.746 C 104.800 27.856,105.340 28.330,106.000 28.800 C 106.660 29.270,107.200 29.564,107.200 29.454 C 107.200 29.344,106.660 28.870,106.000 28.400 C 105.340 27.930,104.800 27.636,104.800 27.746 M34.893 54.800 C 34.893 55.570,34.975 55.885,35.076 55.500 C 35.176 55.115,35.176 54.485,35.076 54.100 C 34.975 53.715,34.893 54.030,34.893 54.800 M34.493 58.400 C 34.493 59.170,34.575 59.485,34.676 59.100 C 34.776 58.715,34.776 58.085,34.676 57.700 C 34.575 57.315,34.493 57.630,34.493 58.400 M131.152 66.487 C 131.337 67.598,131.393 67.655,131.519 66.854 C 131.601 66.333,131.503 65.743,131.301 65.541 C 131.079 65.319,131.021 65.693,131.152 66.487 M33.331 77.400 C 33.333 78.940,33.405 79.521,33.492 78.691 C 33.579 77.861,33.577 76.601,33.489 75.891 C 33.400 75.181,33.329 75.860,33.331 77.400 M133.355 85.800 C 133.356 88.660,133.420 89.778,133.497 88.283 C 133.574 86.789,133.574 84.449,133.496 83.083 C 133.418 81.718,133.355 82.940,133.355 85.800 M33.340 94.800 C 33.340 96.670,33.409 97.435,33.493 96.500 C 33.577 95.565,33.577 94.035,33.493 93.100 C 33.409 92.165,33.340 92.930,33.340 94.800 M321.200 94.000 C 320.730 94.660,320.436 95.200,320.546 95.200 C 320.656 95.200,321.130 94.660,321.600 94.000 C 322.070 93.340,322.364 92.800,322.254 92.800 C 322.144 92.800,321.670 93.340,321.200 94.000 M157.300 108.696 C 158.565 108.775,160.635 108.775,161.900 108.696 C 163.165 108.616,162.130 108.551,159.600 108.551 C 157.070 108.551,156.035 108.616,157.300 108.696 M34.514 121.800 C 34.517 122.900,34.595 123.303,34.687 122.695 C 34.779 122.086,34.777 121.186,34.682 120.695 C 34.587 120.203,34.511 120.700,34.514 121.800 M34.914 127.400 C 34.917 128.500,34.995 128.903,35.087 128.295 C 35.179 127.686,35.177 126.786,35.082 126.295 C 34.987 125.803,34.911 126.300,34.914 127.400 M36.509 150.800 C 36.509 151.790,36.587 152.195,36.682 151.700 C 36.778 151.205,36.778 150.395,36.682 149.900 C 36.587 149.405,36.509 149.810,36.509 150.800 M36.909 155.600 C 36.909 156.590,36.987 156.995,37.082 156.500 C 37.178 156.005,37.178 155.195,37.082 154.700 C 36.987 154.205,36.909 154.610,36.909 155.600 M38.493 173.200 C 38.493 173.970,38.575 174.285,38.676 173.900 C 38.776 173.515,38.776 172.885,38.676 172.500 C 38.575 172.115,38.493 172.430,38.493 173.200 M38.893 176.800 C 38.893 177.570,38.975 177.885,39.076 177.500 C 39.176 177.115,39.176 176.485,39.076 176.100 C 38.975 175.715,38.893 176.030,38.893 176.800 M40.493 193.600 C 40.493 194.370,40.575 194.685,40.676 194.300 C 40.776 193.915,40.776 193.285,40.676 192.900 C 40.575 192.515,40.493 192.830,40.493 193.600 M215.373 193.726 C 215.262 194.015,215.224 196.220,215.288 198.626 L 215.405 203.000 215.602 198.099 C 215.798 193.258,215.768 192.696,215.373 193.726 M40.893 197.200 C 40.893 197.970,40.975 198.285,41.076 197.900 C 41.176 197.515,41.176 196.885,41.076 196.500 C 40.975 196.115,40.893 196.430,40.893 197.200 M42.493 213.600 C 42.493 214.370,42.575 214.685,42.676 214.300 C 42.776 213.915,42.776 213.285,42.676 212.900 C 42.575 212.515,42.493 212.830,42.493 213.600 M42.893 217.200 C 42.893 217.970,42.975 218.285,43.076 217.900 C 43.176 217.515,43.176 216.885,43.076 216.500 C 42.975 216.115,42.893 216.430,42.893 217.200 M44.493 232.400 C 44.493 233.170,44.575 233.485,44.676 233.100 C 44.776 232.715,44.776 232.085,44.676 231.700 C 44.575 231.315,44.493 231.630,44.493 232.400 M129.149 275.900 C 128.667 276.515,128.675 276.541,129.221 276.117 C 129.564 275.850,131.442 275.573,133.421 275.499 L 137.000 275.365 133.349 275.282 C 130.284 275.213,129.610 275.312,129.149 275.900 M127.200 278.000 C 126.730 278.660,126.436 279.200,126.546 279.200 C 126.656 279.200,127.130 278.660,127.600 278.000 C 128.070 277.340,128.364 276.800,128.254 276.800 C 128.144 276.800,127.670 277.340,127.200 278.000 M125.358 285.800 C 125.358 288.880,125.421 290.087,125.497 288.482 C 125.573 286.878,125.573 284.358,125.496 282.882 C 125.419 281.407,125.357 282.720,125.358 285.800 M127.152 300.087 C 127.337 301.198,127.393 301.255,127.519 300.454 C 127.601 299.933,127.503 299.343,127.301 299.141 C 127.079 298.919,127.021 299.293,127.152 300.087 M282.800 299.746 C 282.800 299.856,283.340 300.330,284.000 300.800 C 284.660 301.270,285.200 301.564,285.200 301.454 C 285.200 301.344,284.660 300.870,284.000 300.400 C 283.340 299.930,282.800 299.636,282.800 299.746 M139.193 337.319 L 139.385 339.400 139.518 337.646 C 139.591 336.681,139.505 335.744,139.326 335.565 C 139.147 335.385,139.087 336.175,139.193 337.319 M359.200 378.000 C 359.670 378.660,360.144 379.200,360.254 379.200 C 360.364 379.200,360.070 378.660,359.600 378.000 C 359.130 377.340,358.656 376.800,358.546 376.800 C 358.436 376.800,358.730 377.340,359.200 378.000 M125.800 385.435 L 124.600 386.466 125.900 385.606 C 126.615 385.133,127.200 384.668,127.200 384.573 C 127.200 384.273,127.031 384.378,125.800 385.435 M330.606 397.210 C 330.706 397.372,331.235 397.590,331.782 397.694 C 332.329 397.799,332.694 397.752,332.594 397.590 C 332.494 397.428,331.965 397.210,331.418 397.106 C 330.871 397.001,330.506 397.048,330.606 397.210 M93.505 397.483 C 94.002 397.579,94.722 397.575,95.105 397.475 C 95.487 397.375,95.080 397.296,94.200 397.301 C 93.320 397.305,93.007 397.387,93.505 397.483 M72.000 399.200 L 67.000 399.438 71.876 399.519 C 74.787 399.567,76.852 399.439,77.000 399.200 C 77.136 398.980,77.192 398.836,77.124 398.881 C 77.056 398.926,74.750 399.069,72.000 399.200 M351.800 399.200 L 347.000 399.439 351.676 399.520 C 354.453 399.567,356.453 399.437,356.600 399.200 C 356.736 398.980,356.792 398.836,356.724 398.880 C 356.656 398.925,354.440 399.069,351.800 399.200 M343.200 399.423 C 344.686 399.747,346.726 399.803,346.548 399.516 C 346.441 399.342,345.508 399.221,344.476 399.246 C 343.444 399.272,342.870 399.352,343.200 399.423 " stroke="none" fill="#747474" fill-rule="evenodd"></path></g></svg>