<svg id="svg" version="1.1" xmlns="http://www.w3.org/2000/svg" xmlns:xlink="http://www.w3.org/1999/xlink" width="400" height="400" viewBox="0, 0, 400,400"><g id="svgg"><path id="path0" d="M77.122 3.300 C 74.494 4.565,72.221 5.600,72.071 5.600 C 71.921 5.600,71.146 6.635,70.349 7.900 C 69.552 9.165,67.466 12.450,65.714 15.200 C 62.707 19.919,62.375 20.672,59.817 28.600 C 58.327 33.220,56.693 38.260,56.187 39.800 C 55.681 41.340,54.797 44.760,54.223 47.400 C 53.649 50.040,52.834 53.730,52.412 55.600 C 51.990 57.470,51.176 61.160,50.603 63.800 C 50.031 66.440,49.210 70.220,48.781 72.200 C 48.351 74.180,47.624 78.680,47.166 82.200 C 46.707 85.720,45.887 91.840,45.343 95.800 C 43.158 111.715,42.379 118.685,41.611 129.200 C 41.170 135.250,40.720 140.740,40.613 141.400 C 40.506 142.060,40.058 147.640,39.617 153.800 C 39.177 159.960,38.721 165.900,38.605 167.000 C 38.489 168.100,38.031 176.830,37.586 186.400 C 37.142 195.970,36.605 206.230,36.394 209.200 C 36.182 212.170,35.735 224.050,35.401 235.600 C 35.066 247.150,34.605 260.740,34.377 265.800 C 34.049 273.071,33.337 331.801,33.221 361.110 L 33.200 366.419 199.300 366.310 C 356.022 366.206,365.468 366.161,366.598 365.507 C 367.256 365.126,368.786 364.603,369.998 364.346 C 371.209 364.088,372.380 363.663,372.600 363.401 C 372.820 363.138,373.698 362.671,374.551 362.363 C 376.758 361.566,378.703 358.468,378.835 355.541 C 378.956 352.864,378.009 347.978,377.318 347.713 C 377.033 347.604,376.800 347.349,376.800 347.148 C 376.800 346.291,373.082 341.308,369.935 337.946 C 369.349 337.320,368.809 336.637,368.735 336.427 C 368.661 336.218,366.980 334.389,365.000 332.363 C 361.739 329.026,359.311 326.863,355.614 324.000 C 354.597 323.213,349.446 319.086,346.117 316.391 C 345.851 316.176,345.515 316.000,345.370 316.000 C 345.226 316.000,344.249 315.370,343.200 314.600 C 342.151 313.830,341.101 313.200,340.866 313.200 C 340.632 313.200,340.296 312.958,340.120 312.662 C 339.944 312.366,338.945 311.802,337.900 311.408 C 336.855 311.014,336.000 310.572,336.000 310.426 C 336.000 310.280,335.325 309.919,334.500 309.624 C 333.675 309.329,332.886 308.910,332.746 308.694 C 332.606 308.477,331.537 307.964,330.372 307.554 C 329.206 307.143,328.150 306.654,328.026 306.467 C 327.902 306.280,326.900 305.806,325.800 305.415 C 324.700 305.023,323.260 304.479,322.600 304.205 C 321.940 303.932,320.230 303.474,318.800 303.187 C 317.370 302.900,316.110 302.551,316.000 302.411 C 315.565 301.857,309.209 300.800,306.314 300.800 C 304.627 300.800,303.136 300.620,303.000 300.400 C 302.837 300.137,285.837 300.002,253.276 300.007 C 203.805 300.014,186.000 299.568,186.000 298.321 C 186.000 298.145,185.153 298.000,184.117 298.000 C 181.589 298.000,172.402 296.849,171.400 296.407 C 170.960 296.213,168.911 295.758,166.847 295.397 C 164.783 295.036,162.803 294.581,162.447 294.387 C 162.091 294.192,160.455 293.745,158.811 293.392 C 157.167 293.039,155.637 292.598,155.411 292.412 C 155.185 292.226,153.937 291.797,152.637 291.458 C 151.337 291.120,150.167 290.676,150.037 290.472 C 149.907 290.268,149.170 289.966,148.400 289.801 C 147.630 289.636,146.280 289.173,145.400 288.773 C 144.520 288.373,142.843 287.741,141.672 287.368 C 140.502 286.995,137.442 285.618,134.872 284.309 C 128.343 280.981,128.000 280.785,128.000 280.389 C 128.000 280.196,127.370 279.739,126.600 279.373 C 124.865 278.550,117.167 270.582,116.260 268.670 C 115.893 267.897,115.460 267.205,115.296 267.132 C 113.983 266.547,107.856 254.593,106.413 249.800 C 106.148 248.920,105.698 247.660,105.413 247.000 C 105.129 246.340,104.671 244.540,104.395 243.000 C 104.120 241.460,103.754 240.020,103.582 239.800 C 103.146 239.241,102.487 235.234,102.168 231.200 C 102.020 229.330,101.750 227.612,101.569 227.382 C 99.642 224.945,99.680 161.505,101.610 157.000 C 101.799 156.560,102.242 152.330,102.595 147.600 C 102.948 142.870,103.389 138.640,103.575 138.200 C 103.762 137.760,104.206 133.725,104.563 129.234 C 104.920 124.742,105.364 120.872,105.551 120.634 C 105.737 120.395,106.207 117.680,106.595 114.600 C 106.984 111.520,107.435 108.820,107.599 108.600 C 107.762 108.380,108.208 106.130,108.589 103.600 C 108.970 101.070,109.416 98.820,109.579 98.600 C 109.743 98.380,110.186 96.310,110.565 94.000 C 110.943 91.690,111.411 89.440,111.604 89.000 C 111.796 88.560,112.257 86.316,112.627 84.014 C 112.998 81.712,113.447 79.552,113.625 79.214 C 113.804 78.876,114.256 76.890,114.631 74.800 C 115.005 72.710,115.443 70.820,115.605 70.600 C 115.766 70.380,116.211 68.400,116.594 66.200 C 116.977 64.000,117.440 61.840,117.623 61.400 C 117.807 60.960,118.246 58.620,118.598 56.200 C 118.950 53.780,119.358 51.530,119.504 51.200 C 120.529 48.886,120.724 28.361,119.734 27.156 C 119.482 26.850,118.961 25.070,118.575 23.200 C 118.188 21.330,117.668 19.620,117.418 19.400 C 117.167 19.180,116.718 18.370,116.420 17.600 C 116.121 16.830,115.660 16.019,115.396 15.798 C 115.132 15.578,114.774 14.948,114.601 14.398 C 114.069 12.719,108.818 7.650,106.000 6.096 C 104.570 5.308,102.950 4.360,102.400 3.990 C 101.850 3.620,100.518 3.200,99.440 3.058 C 98.363 2.915,97.283 2.645,97.040 2.456 C 96.206 1.805,93.783 1.486,87.850 1.243 L 81.900 1.000 77.122 3.300 " stroke="none" fill="#040404" fill-rule="evenodd"></path><path id="path1" d="M0.000 200.000 L 0.000 400.000 200.000 400.000 L 400.000 400.000 400.000 200.000 L 400.000 0.000 200.000 0.000 L 0.000 0.000 0.000 200.000 M90.664 0.915 C 92.680 0.985,94.570 1.237,94.864 1.475 C 95.159 1.713,96.750 2.134,98.400 2.412 C 100.050 2.689,101.580 3.133,101.800 3.397 C 102.020 3.661,102.875 4.121,103.700 4.419 C 104.525 4.717,105.200 5.096,105.200 5.262 C 105.200 5.427,105.965 5.904,106.900 6.321 C 108.767 7.154,114.526 12.908,115.006 14.419 C 115.166 14.924,115.905 16.287,116.649 17.449 C 117.392 18.611,118.000 19.894,118.000 20.301 C 118.000 20.707,118.152 21.211,118.339 21.420 C 118.525 21.629,119.003 23.240,119.402 25.000 C 119.800 26.760,120.279 28.301,120.466 28.425 C 120.978 28.765,120.940 44.420,120.426 44.934 C 120.192 45.168,120.000 46.412,120.000 47.698 C 120.000 50.279,118.924 57.845,118.419 58.816 C 118.242 59.155,117.978 60.415,117.831 61.616 C 117.484 64.450,116.835 67.590,116.389 68.600 C 116.194 69.040,115.743 71.018,115.387 72.996 C 115.030 74.974,114.600 76.774,114.431 76.996 C 114.262 77.218,113.814 79.290,113.435 81.600 C 113.057 83.910,112.589 86.160,112.396 86.600 C 112.204 87.040,111.745 89.290,111.377 91.600 C 111.010 93.910,110.575 95.980,110.411 96.200 C 110.247 96.420,109.792 98.670,109.400 101.200 C 109.008 103.730,108.551 105.980,108.385 106.200 C 108.219 106.420,107.758 109.030,107.362 112.000 C 106.965 114.970,106.530 117.490,106.393 117.600 C 106.090 117.844,105.287 124.168,104.971 128.800 C 104.843 130.670,104.586 132.560,104.400 133.000 C 104.213 133.440,103.763 137.850,103.400 142.800 C 103.037 147.750,102.584 152.160,102.395 152.600 C 101.836 153.899,100.800 168.885,100.800 175.676 C 100.800 179.429,100.639 182.052,100.400 182.200 C 99.903 182.507,99.845 210.400,100.342 210.400 C 100.530 210.400,100.803 212.875,100.949 215.900 C 101.309 223.346,102.048 230.917,102.461 231.380 C 102.648 231.589,102.800 232.389,102.800 233.157 C 102.800 235.221,104.076 242.000,104.465 242.000 C 104.649 242.000,104.800 242.322,104.800 242.716 C 104.800 243.743,105.927 247.987,106.574 249.400 C 106.877 250.060,107.358 251.410,107.643 252.400 C 107.928 253.390,108.265 254.290,108.392 254.400 C 108.518 254.510,108.972 255.410,109.400 256.400 C 109.828 257.390,110.286 258.290,110.418 258.400 C 110.551 258.510,111.006 259.454,111.429 260.499 C 111.853 261.543,112.335 262.398,112.500 262.399 C 112.665 262.399,112.800 262.609,112.800 262.864 C 112.800 263.119,113.520 264.281,114.400 265.446 C 115.280 266.612,116.000 267.753,116.000 267.983 C 116.000 268.212,116.184 268.400,116.410 268.400 C 116.635 268.400,116.984 268.831,117.184 269.358 C 117.776 270.914,124.606 277.780,127.410 279.637 C 128.834 280.580,130.000 281.462,130.000 281.597 C 130.000 281.732,130.900 282.166,132.000 282.561 C 133.100 282.957,134.000 283.407,134.000 283.561 C 134.000 283.716,134.900 284.166,136.000 284.561 C 137.100 284.957,138.000 285.428,138.000 285.608 C 138.000 285.789,138.585 286.056,139.300 286.203 C 140.015 286.350,141.320 286.796,142.200 287.194 C 143.080 287.593,144.790 288.231,146.000 288.612 C 147.210 288.994,148.380 289.442,148.600 289.608 C 148.820 289.774,150.080 290.241,151.400 290.644 C 152.720 291.048,153.890 291.495,154.000 291.638 C 154.110 291.781,155.545 292.202,157.189 292.574 C 158.833 292.946,160.363 293.396,160.589 293.575 C 160.815 293.754,162.710 294.209,164.800 294.587 C 166.890 294.964,168.780 295.417,169.000 295.593 C 169.220 295.768,171.830 296.215,174.800 296.586 C 177.770 296.957,180.560 297.413,181.000 297.600 C 181.440 297.788,185.940 298.236,191.000 298.598 C 196.060 298.959,200.560 299.419,201.000 299.619 C 201.465 299.831,224.525 300.045,256.000 300.130 C 310.620 300.276,312.899 300.335,314.000 301.620 C 314.110 301.748,315.779 302.180,317.709 302.580 C 319.639 302.979,321.305 303.446,321.411 303.618 C 321.517 303.790,322.353 304.057,323.269 304.212 C 324.631 304.442,328.799 306.277,332.955 308.476 C 333.370 308.696,335.440 309.771,337.555 310.865 C 339.670 311.960,341.600 313.113,341.844 313.428 C 342.088 313.742,342.448 314.005,342.644 314.011 C 342.840 314.017,343.707 314.557,344.571 315.211 C 345.435 315.865,346.329 316.400,346.557 316.400 C 346.785 316.400,347.338 316.757,347.786 317.194 C 349.438 318.805,353.953 322.400,354.324 322.400 C 354.535 322.400,355.003 322.850,355.363 323.400 C 355.724 323.950,356.252 324.400,356.537 324.400 C 356.822 324.400,357.437 324.805,357.902 325.300 C 358.367 325.795,359.435 326.740,360.274 327.400 C 361.113 328.060,363.600 330.532,365.800 332.894 C 368.000 335.256,370.205 337.583,370.700 338.066 C 371.195 338.549,371.600 339.113,371.600 339.319 C 371.600 339.525,372.275 340.352,373.100 341.156 C 373.925 341.960,374.960 343.377,375.400 344.304 C 375.840 345.232,376.322 345.993,376.471 345.995 C 376.873 346.002,378.000 348.410,378.000 349.261 C 378.000 349.668,378.160 350.000,378.355 350.000 C 379.385 350.000,379.569 357.302,378.567 358.426 C 378.261 358.770,377.810 359.625,377.566 360.326 C 377.322 361.027,376.934 361.600,376.705 361.600 C 376.476 361.600,375.411 362.140,374.338 362.800 C 373.266 363.460,372.067 364.000,371.674 364.000 C 371.281 364.000,370.789 364.166,370.580 364.369 C 369.751 365.174,365.122 366.000,361.442 366.000 C 359.144 366.000,357.600 366.161,357.600 366.400 C 357.600 366.667,303.432 366.767,195.300 366.700 L 33.000 366.600 32.890 351.600 C 32.693 324.858,34.522 229.228,35.381 221.400 C 35.501 220.300,35.869 213.190,36.199 205.600 C 36.528 198.010,37.063 187.300,37.389 181.800 C 37.715 176.300,38.171 168.380,38.404 164.200 C 38.636 160.020,39.082 154.080,39.396 151.000 C 39.710 147.920,40.157 142.430,40.389 138.800 C 40.622 135.170,41.071 129.500,41.387 126.200 C 41.703 122.900,42.166 117.860,42.416 115.000 C 42.665 112.140,43.024 109.080,43.213 108.200 C 43.402 107.320,43.846 104.170,44.200 101.200 C 44.553 98.230,45.093 94.270,45.399 92.400 C 45.705 90.530,46.156 87.200,46.401 85.000 C 46.997 79.647,48.231 72.333,49.404 67.200 C 49.932 64.890,50.835 60.840,51.410 58.200 C 51.986 55.560,52.909 51.330,53.461 48.800 C 55.593 39.043,61.821 20.382,64.133 16.824 C 65.071 15.381,67.090 12.243,68.619 9.852 C 70.931 6.237,71.670 5.386,73.000 4.804 C 73.880 4.419,76.252 3.306,78.270 2.331 C 81.595 0.725,82.178 0.569,84.470 0.672 C 85.862 0.735,88.649 0.844,90.664 0.915 " stroke="none" fill="#fbfbfb" fill-rule="evenodd"></path><path id="path2" d="M120.557 36.600 C 120.557 41.220,120.656 43.624,120.778 41.943 C 120.900 40.261,120.900 36.481,120.779 33.543 C 120.587 28.929,120.557 29.346,120.557 36.600 M53.029 50.229 C 52.881 50.815,52.838 51.372,52.932 51.466 C 53.027 51.560,53.224 51.158,53.371 50.571 C 53.519 49.985,53.562 49.428,53.468 49.334 C 53.373 49.240,53.176 49.642,53.029 50.229 M118.501 57.400 C 118.505 58.280,118.587 58.593,118.683 58.095 C 118.779 57.598,118.775 56.878,118.675 56.495 C 118.575 56.113,118.496 56.520,118.501 57.400 M112.368 85.300 C 112.249 86.160,112.310 86.650,112.512 86.448 C 112.705 86.255,112.798 85.581,112.719 84.949 C 112.587 83.891,112.559 83.919,112.368 85.300 M110.352 95.113 C 110.221 95.907,110.279 96.281,110.501 96.059 C 110.703 95.857,110.801 95.267,110.719 94.746 C 110.593 93.945,110.537 94.002,110.352 95.113 M108.620 103.700 C 108.262 104.853,108.137 106.362,108.414 106.192 C 108.577 106.090,108.785 105.376,108.875 104.604 C 109.039 103.202,108.913 102.755,108.620 103.700 M106.501 116.200 C 106.505 117.080,106.587 117.393,106.683 116.895 C 106.779 116.398,106.775 115.678,106.675 115.295 C 106.575 114.913,106.496 115.320,106.501 116.200 M41.301 127.800 C 41.305 128.680,41.387 128.993,41.483 128.495 C 41.579 127.998,41.575 127.278,41.475 126.895 C 41.375 126.513,41.296 126.920,41.301 127.800 M104.528 130.400 C 104.528 131.830,104.601 132.415,104.689 131.700 C 104.778 130.985,104.778 129.815,104.689 129.100 C 104.601 128.385,104.528 128.970,104.528 130.400 M40.909 131.600 C 40.909 132.590,40.987 132.995,41.082 132.500 C 41.178 132.005,41.178 131.195,41.082 130.700 C 40.987 130.205,40.909 130.610,40.909 131.600 M40.493 136.800 C 40.493 137.570,40.575 137.885,40.676 137.500 C 40.776 137.115,40.776 136.485,40.676 136.100 C 40.575 135.715,40.493 136.030,40.493 136.800 M102.608 147.700 C 102.314 148.581,102.190 152.773,102.466 152.481 C 102.721 152.212,103.121 147.198,102.887 147.199 C 102.826 147.200,102.700 147.425,102.608 147.700 M39.301 152.600 C 39.305 153.480,39.387 153.793,39.483 153.295 C 39.579 152.798,39.575 152.078,39.475 151.695 C 39.375 151.313,39.296 151.720,39.301 152.600 M38.909 156.400 C 38.909 157.390,38.987 157.795,39.082 157.300 C 39.178 156.805,39.178 155.995,39.082 155.500 C 38.987 155.005,38.909 155.410,38.909 156.400 M38.101 168.200 C 38.105 169.080,38.187 169.393,38.283 168.895 C 38.379 168.398,38.375 167.678,38.275 167.295 C 38.175 166.913,38.096 167.320,38.101 168.200 M100.595 167.300 C 100.291 168.147,100.182 182.380,100.482 182.079 C 100.742 181.818,101.141 166.799,100.887 166.800 C 100.826 166.800,100.694 167.025,100.595 167.300 M37.693 177.200 C 37.693 177.970,37.775 178.285,37.876 177.900 C 37.976 177.515,37.976 176.885,37.876 176.500 C 37.775 176.115,37.693 176.430,37.693 177.200 M37.328 184.400 C 37.328 185.830,37.401 186.415,37.489 185.700 C 37.578 184.985,37.578 183.815,37.489 183.100 C 37.401 182.385,37.328 182.970,37.328 184.400 M36.928 190.400 C 36.928 191.830,37.001 192.415,37.089 191.700 C 37.178 190.985,37.178 189.815,37.089 189.100 C 37.001 188.385,36.928 188.970,36.928 190.400 M36.514 198.600 C 36.517 199.700,36.595 200.103,36.687 199.495 C 36.779 198.886,36.777 197.986,36.682 197.495 C 36.587 197.003,36.511 197.500,36.514 198.600 M36.101 207.400 C 36.105 208.280,36.187 208.593,36.283 208.095 C 36.379 207.598,36.375 206.878,36.275 206.495 C 36.175 206.113,36.096 206.520,36.101 207.400 M100.460 213.476 C 100.427 215.278,100.535 216.837,100.700 216.939 C 100.865 217.042,100.950 216.018,100.888 214.663 C 100.700 210.522,100.523 210.031,100.460 213.476 M35.701 216.200 C 35.705 217.080,35.787 217.393,35.883 216.895 C 35.979 216.398,35.975 215.678,35.875 215.295 C 35.775 214.913,35.696 215.320,35.701 216.200 M35.340 224.400 C 35.340 226.270,35.409 227.035,35.493 226.100 C 35.577 225.165,35.577 223.635,35.493 222.700 C 35.409 221.765,35.340 222.530,35.340 224.400 M34.950 234.200 C 34.951 236.620,35.016 237.558,35.096 236.285 C 35.176 235.012,35.175 233.032,35.094 231.885 C 35.014 230.738,34.949 231.780,34.950 234.200 M102.393 233.319 L 102.585 235.400 102.718 233.646 C 102.791 232.681,102.705 231.744,102.526 231.565 C 102.347 231.385,102.287 232.175,102.393 233.319 M104.400 242.976 C 104.400 243.513,104.547 244.044,104.728 244.155 C 104.908 244.267,104.977 243.827,104.882 243.179 C 104.672 241.749,104.400 241.635,104.400 242.976 M34.537 248.200 C 34.539 249.960,34.609 250.630,34.693 249.689 C 34.778 248.749,34.777 247.309,34.691 246.489 C 34.605 245.670,34.536 246.440,34.537 248.200 M34.128 263.200 C 34.128 264.630,34.201 265.215,34.289 264.500 C 34.378 263.785,34.378 262.615,34.289 261.900 C 34.201 261.185,34.128 261.770,34.128 263.200 M114.364 265.933 C 114.580 266.336,115.071 266.921,115.455 267.233 C 115.887 267.584,115.790 267.304,115.201 266.500 C 114.151 265.065,113.757 264.798,114.364 265.933 M33.724 278.600 C 33.726 279.920,33.801 280.412,33.890 279.693 C 33.979 278.974,33.977 277.894,33.886 277.293 C 33.795 276.692,33.722 277.280,33.724 278.600 M33.377 299.000 C 33.377 305.600,33.432 308.356,33.499 305.125 C 33.566 301.893,33.566 296.493,33.499 293.125 C 33.432 289.756,33.377 292.400,33.377 299.000 M177.566 297.326 C 177.747 297.507,178.593 297.593,179.447 297.519 L 181.000 297.383 179.119 297.190 C 178.084 297.084,177.385 297.145,177.566 297.326 M197.100 299.489 C 197.815 299.578,198.985 299.578,199.700 299.489 C 200.415 299.401,199.830 299.328,198.400 299.328 C 196.970 299.328,196.385 299.401,197.100 299.489 M32.985 339.600 C 32.985 350.050,33.036 354.325,33.100 349.100 C 33.163 343.875,33.163 335.325,33.100 330.100 C 33.036 324.875,32.985 329.150,32.985 339.600 M114.067 366.700 C 158.654 366.756,231.734 366.756,276.467 366.700 C 321.200 366.644,284.720 366.598,195.400 366.598 C 106.080 366.598,69.480 366.644,114.067 366.700 " stroke="none" fill="#9f9f9f" fill-rule="evenodd"></path><path id="path3" d="M85.317 1.097 C 86.811 1.174,89.151 1.174,90.517 1.096 C 91.882 1.018,90.660 0.955,87.800 0.955 C 84.940 0.956,83.822 1.020,85.317 1.097 M118.893 54.800 C 118.893 55.570,118.975 55.885,119.076 55.500 C 119.176 55.115,119.176 54.485,119.076 54.100 C 118.975 53.715,118.893 54.030,118.893 54.800 M112.893 82.800 C 112.893 83.570,112.975 83.885,113.076 83.500 C 113.176 83.115,113.176 82.485,113.076 82.100 C 112.975 81.715,112.893 82.030,112.893 82.800 M110.893 92.800 C 110.893 93.570,110.975 93.885,111.076 93.500 C 111.176 93.115,111.176 92.485,111.076 92.100 C 110.975 91.715,110.893 92.030,110.893 92.800 M106.780 113.090 C 106.671 114.019,106.733 114.627,106.920 114.440 C 107.106 114.254,107.196 113.494,107.119 112.751 C 106.983 111.433,106.975 111.442,106.780 113.090 M104.924 125.800 C 104.926 127.120,105.001 127.612,105.090 126.893 C 105.179 126.174,105.177 125.094,105.086 124.493 C 104.995 123.892,104.922 124.480,104.924 125.800 M102.924 145.000 C 102.926 146.320,103.001 146.812,103.090 146.093 C 103.179 145.374,103.177 144.294,103.086 143.693 C 102.995 143.092,102.922 143.680,102.924 145.000 M100.924 164.600 C 100.926 165.920,101.001 166.412,101.090 165.693 C 101.179 164.974,101.177 163.894,101.086 163.293 C 100.995 162.692,100.922 163.280,100.924 164.600 M100.937 220.200 C 100.939 221.960,101.009 222.630,101.093 221.689 C 101.178 220.749,101.177 219.309,101.091 218.489 C 101.005 217.670,100.936 218.440,100.937 220.200 M102.752 236.487 C 102.937 237.598,102.993 237.655,103.119 236.854 C 103.201 236.333,103.103 235.743,102.901 235.541 C 102.679 235.319,102.621 235.693,102.752 236.487 M34.901 239.800 C 34.905 240.680,34.987 240.993,35.083 240.495 C 35.179 239.998,35.175 239.278,35.075 238.895 C 34.975 238.513,34.896 238.920,34.901 239.800 M175.300 297.076 C 175.685 297.176,176.315 297.176,176.700 297.076 C 177.085 296.975,176.770 296.893,176.000 296.893 C 175.230 296.893,174.915 296.975,175.300 297.076 M192.300 299.089 C 193.015 299.178,194.185 299.178,194.900 299.089 C 195.615 299.001,195.030 298.928,193.600 298.928 C 192.170 298.928,191.585 299.001,192.300 299.089 M33.350 315.000 C 33.351 317.420,33.416 318.358,33.496 317.085 C 33.576 315.812,33.575 313.832,33.494 312.685 C 33.414 311.538,33.349 312.580,33.350 315.000 M378.924 355.800 C 378.926 357.120,379.001 357.612,379.090 356.893 C 379.179 356.174,379.177 355.094,379.086 354.493 C 378.995 353.892,378.922 354.480,378.924 355.800 M32.948 362.400 C 32.948 364.710,33.014 365.655,33.095 364.500 C 33.176 363.345,33.176 361.455,33.095 360.300 C 33.014 359.145,32.948 360.090,32.948 362.400 " stroke="none" fill="#7c7c7c" fill-rule="evenodd"></path><path id="path4" d="M119.293 52.400 C 119.293 53.170,119.375 53.485,119.476 53.100 C 119.576 52.715,119.576 52.085,119.476 51.700 C 119.375 51.315,119.293 51.630,119.293 52.400 M117.417 61.700 C 117.087 62.746,116.957 64.750,117.230 64.581 C 117.387 64.484,117.584 63.684,117.668 62.803 C 117.821 61.206,117.717 60.750,117.417 61.700 M115.152 71.913 C 115.021 72.707,115.079 73.081,115.301 72.859 C 115.503 72.657,115.601 72.067,115.519 71.546 C 115.393 70.745,115.337 70.802,115.152 71.913 M113.354 79.777 C 113.232 80.094,113.203 80.679,113.289 81.077 C 113.387 81.528,113.524 81.312,113.654 80.500 C 113.871 79.138,113.730 78.796,113.354 79.777 M111.293 90.400 C 111.293 91.170,111.375 91.485,111.476 91.100 C 111.576 90.715,111.576 90.085,111.476 89.700 C 111.375 89.315,111.293 89.630,111.293 90.400 M109.152 99.913 C 109.021 100.707,109.079 101.081,109.301 100.859 C 109.503 100.657,109.601 100.067,109.519 99.546 C 109.393 98.745,109.337 98.802,109.152 99.913 M107.301 110.200 C 107.305 111.080,107.387 111.393,107.483 110.895 C 107.579 110.398,107.575 109.678,107.475 109.295 C 107.375 108.913,107.296 109.320,107.301 110.200 M42.493 115.600 C 42.493 116.370,42.575 116.685,42.676 116.300 C 42.776 115.915,42.776 115.285,42.676 114.900 C 42.575 114.515,42.493 114.830,42.493 115.600 M105.301 122.200 C 105.305 123.080,105.387 123.393,105.483 122.895 C 105.579 122.398,105.575 121.678,105.475 121.295 C 105.375 120.913,105.296 121.320,105.301 122.200 M40.901 135.800 C 40.905 136.680,40.987 136.993,41.083 136.495 C 41.179 135.998,41.175 135.278,41.075 134.895 C 40.975 134.513,40.896 134.920,40.901 135.800 M40.509 140.000 C 40.509 140.990,40.587 141.395,40.682 140.900 C 40.778 140.405,40.778 139.595,40.682 139.100 C 40.587 138.605,40.509 139.010,40.509 140.000 M103.194 140.481 C 103.087 141.736,103.146 142.616,103.324 142.437 C 103.503 142.258,103.590 141.231,103.518 140.156 L 103.387 138.200 103.194 140.481 M101.195 159.682 C 101.088 161.157,101.145 162.218,101.322 162.040 C 101.499 161.862,101.586 160.655,101.517 159.358 L 101.390 157.000 101.195 159.682 M38.909 160.400 C 38.909 161.390,38.987 161.795,39.082 161.300 C 39.178 160.805,39.178 159.995,39.082 159.500 C 38.987 159.005,38.909 159.410,38.909 160.400 M38.520 165.200 C 38.520 166.410,38.595 166.905,38.687 166.300 C 38.778 165.695,38.778 164.705,38.687 164.100 C 38.595 163.495,38.520 163.990,38.520 165.200 M38.093 172.000 C 38.093 172.770,38.175 173.085,38.276 172.700 C 38.376 172.315,38.376 171.685,38.276 171.300 C 38.175 170.915,38.093 171.230,38.093 172.000 M37.693 180.800 C 37.693 181.570,37.775 181.885,37.876 181.500 C 37.976 181.115,37.976 180.485,37.876 180.100 C 37.775 179.715,37.693 180.030,37.693 180.800 M37.301 189.400 C 37.305 190.280,37.387 190.593,37.483 190.095 C 37.579 189.598,37.575 188.878,37.475 188.495 C 37.375 188.113,37.296 188.520,37.301 189.400 M36.924 197.000 C 36.926 198.320,37.001 198.812,37.090 198.093 C 37.179 197.374,37.177 196.294,37.086 195.693 C 36.995 195.092,36.922 195.680,36.924 197.000 M36.524 203.800 C 36.526 205.120,36.601 205.612,36.690 204.893 C 36.779 204.174,36.777 203.094,36.686 202.493 C 36.595 201.892,36.522 202.480,36.524 203.800 M36.101 211.000 C 36.105 211.880,36.187 212.193,36.283 211.695 C 36.379 211.198,36.375 210.478,36.275 210.095 C 36.175 209.713,36.096 210.120,36.101 211.000 M35.693 219.600 C 35.693 220.370,35.775 220.685,35.876 220.300 C 35.976 219.915,35.976 219.285,35.876 218.900 C 35.775 218.515,35.693 218.830,35.693 219.600 M101.193 225.319 L 101.385 227.400 101.518 225.646 C 101.591 224.681,101.505 223.744,101.326 223.565 C 101.147 223.385,101.087 224.175,101.193 225.319 M35.331 232.200 C 35.333 233.740,35.405 234.321,35.492 233.491 C 35.579 232.661,35.577 231.401,35.489 230.691 C 35.400 229.981,35.329 230.660,35.331 232.200 M34.948 245.200 C 34.948 247.510,35.014 248.455,35.095 247.300 C 35.176 246.145,35.176 244.255,35.095 243.100 C 35.014 241.945,34.948 242.890,34.948 245.200 M34.548 257.200 C 34.548 259.510,34.614 260.455,34.695 259.300 C 34.776 258.145,34.776 256.255,34.695 255.100 C 34.614 253.945,34.548 254.890,34.548 257.200 M34.124 269.400 C 34.126 270.720,34.201 271.212,34.290 270.493 C 34.379 269.774,34.377 268.694,34.286 268.093 C 34.195 267.492,34.122 268.080,34.124 269.400 M33.720 284.400 C 33.720 285.610,33.795 286.105,33.887 285.500 C 33.978 284.895,33.978 283.905,33.887 283.300 C 33.795 282.695,33.720 283.190,33.720 284.400 M171.431 296.450 C 171.521 296.596,172.301 296.783,173.164 296.865 C 174.027 296.947,174.659 296.895,174.569 296.750 C 174.479 296.604,173.699 296.417,172.836 296.335 C 171.973 296.253,171.341 296.305,171.431 296.450 M186.600 298.638 C 188.474 298.939,191.109 298.977,190.938 298.700 C 190.836 298.535,189.638 298.425,188.276 298.454 C 186.914 298.484,186.160 298.567,186.600 298.638 M304.200 300.654 C 307.028 300.950,310.712 300.977,310.539 300.700 C 310.437 300.535,308.698 300.429,306.676 300.464 C 304.654 300.499,303.540 300.585,304.200 300.654 M316.000 302.555 C 316.000 302.640,316.530 302.787,317.179 302.882 C 317.827 302.977,318.267 302.908,318.155 302.728 C 317.957 302.407,316.000 302.250,316.000 302.555 M33.377 331.000 C 33.377 337.600,33.432 340.356,33.499 337.125 C 33.566 333.893,33.566 328.493,33.499 325.125 C 33.432 321.756,33.377 324.400,33.377 331.000 M352.800 321.746 C 352.800 321.856,353.340 322.330,354.000 322.800 C 354.660 323.270,355.200 323.564,355.200 323.454 C 355.200 323.344,354.660 322.870,354.000 322.400 C 353.340 321.930,352.800 321.636,352.800 321.746 " stroke="none" fill="#747474" fill-rule="evenodd"></path></g></svg>