<svg id="svg" version="1.1" xmlns="http://www.w3.org/2000/svg" xmlns:xlink="http://www.w3.org/1999/xlink" width="400" height="400" viewBox="0, 0, 400,400"><g id="svgg"><path id="path0" d="M307.400 29.504 C 305.640 29.837,304.110 30.244,304.000 30.410 C 303.890 30.575,302.270 32.000,300.400 33.577 C 298.530 35.153,296.034 37.558,294.854 38.921 C 293.673 40.285,292.228 41.940,291.641 42.600 C 285.365 49.663,281.407 54.271,279.618 56.600 C 278.434 58.140,276.811 60.210,276.011 61.200 C 274.298 63.318,261.065 83.305,259.358 86.352 C 258.941 87.096,258.420 87.996,258.200 88.352 C 257.980 88.709,256.810 90.710,255.600 92.800 C 254.390 94.890,253.220 96.901,253.000 97.269 C 252.780 97.637,251.744 99.437,250.697 101.269 C 249.651 103.101,248.316 105.410,247.730 106.400 C 246.036 109.262,237.600 124.402,237.600 124.579 C 237.600 125.229,230.360 139.286,228.627 142.000 C 227.433 143.870,225.918 146.300,225.261 147.400 C 215.833 163.169,201.629 170.194,190.965 164.361 C 185.794 161.533,175.541 150.543,171.726 143.739 C 171.099 142.621,163.998 128.873,161.427 123.800 C 160.312 121.600,159.265 119.740,159.100 119.667 C 158.935 119.593,158.800 119.360,158.800 119.148 C 158.800 118.801,157.157 115.741,154.400 110.953 C 150.410 104.025,146.835 97.690,145.283 94.800 C 144.279 92.930,142.899 90.590,142.217 89.600 C 141.534 88.610,140.175 86.450,139.196 84.800 C 138.217 83.150,137.232 81.590,137.008 81.333 C 136.784 81.077,136.060 79.945,135.400 78.817 C 134.740 77.690,133.465 75.738,132.566 74.481 C 131.667 73.223,130.692 71.746,130.400 71.200 C 129.864 70.199,122.836 60.745,119.821 56.970 C 118.930 55.853,117.750 54.335,117.200 53.595 C 114.237 49.612,104.866 38.617,102.330 36.147 C 99.343 33.239,97.446 32.396,92.786 31.907 C 91.319 31.752,86.042 37.616,84.243 41.400 C 82.040 46.032,81.251 47.858,80.975 48.956 C 80.831 49.530,80.581 50.000,80.420 50.000 C 80.259 50.000,79.898 50.765,79.619 51.700 C 79.339 52.635,78.786 54.038,78.390 54.817 C 77.642 56.286,76.940 58.594,75.476 64.400 C 75.004 66.270,74.511 67.890,74.379 68.000 C 74.248 68.110,73.818 69.730,73.423 71.600 C 73.029 73.470,72.570 75.180,72.404 75.400 C 72.239 75.620,71.790 77.240,71.407 79.000 C 71.023 80.760,70.551 82.501,70.357 82.869 C 70.163 83.238,69.723 85.398,69.380 87.669 C 69.036 89.941,68.595 92.160,68.399 92.600 C 68.203 93.040,67.756 95.380,67.405 97.800 C 67.054 100.220,66.611 102.560,66.419 103.000 C 66.228 103.440,65.776 105.780,65.416 108.200 C 65.055 110.620,64.603 112.960,64.411 113.400 C 64.219 113.840,63.765 116.360,63.402 119.000 C 63.039 121.640,62.634 124.070,62.502 124.400 C 62.369 124.730,61.850 127.700,61.347 131.000 C 60.844 134.300,60.008 139.790,59.489 143.200 C 58.970 146.610,58.437 149.670,58.305 150.000 C 58.173 150.330,57.771 153.030,57.411 156.000 C 57.051 158.970,56.602 161.760,56.414 162.200 C 56.059 163.027,55.436 167.571,54.960 172.800 C 54.810 174.450,54.567 175.890,54.420 176.000 C 54.274 176.110,53.839 179.350,53.454 183.200 C 53.068 187.050,52.596 190.560,52.405 191.000 C 52.213 191.440,51.761 194.770,51.400 198.400 C 51.039 202.030,50.589 205.360,50.399 205.800 C 50.209 206.240,49.751 209.660,49.380 213.400 C 49.009 217.140,48.566 220.470,48.395 220.800 C 48.225 221.130,47.783 225.090,47.412 229.600 C 47.042 234.110,46.588 238.160,46.402 238.600 C 46.217 239.040,45.767 243.270,45.403 248.000 C 45.039 252.730,44.632 256.870,44.498 257.200 C 44.365 257.530,43.844 261.940,43.339 267.000 C 42.834 272.060,42.000 280.430,41.484 285.600 C 40.969 290.770,40.441 295.270,40.311 295.600 C 40.181 295.930,39.776 300.430,39.412 305.600 C 39.047 310.770,38.595 315.360,38.407 315.800 C 38.220 316.240,37.767 320.830,37.402 326.000 C 37.038 331.170,36.628 335.670,36.493 336.000 C 36.358 336.330,35.836 341.010,35.334 346.400 C 34.831 351.790,34.187 358.599,33.901 361.531 L 33.381 366.863 35.991 366.639 C 37.426 366.515,40.400 366.312,42.600 366.186 C 46.332 365.972,48.509 365.573,57.192 363.509 C 60.250 362.782,64.131 361.317,68.600 359.203 C 69.480 358.787,70.560 358.301,71.000 358.123 C 76.683 355.828,89.806 344.273,94.080 337.800 C 96.106 334.732,98.885 330.715,99.200 330.400 C 99.310 330.290,99.801 329.390,100.291 328.400 C 101.484 325.989,104.676 320.104,105.631 318.553 C 106.054 317.867,106.401 317.057,106.402 316.753 C 106.404 316.449,106.676 315.680,107.007 315.045 C 107.339 314.410,107.899 312.880,108.253 311.645 C 108.607 310.410,109.037 309.220,109.209 309.000 C 109.759 308.295,111.619 302.692,112.263 299.800 C 112.606 298.260,113.026 296.820,113.196 296.600 C 113.366 296.380,113.825 294.670,114.215 292.800 C 114.605 290.930,115.062 289.219,115.230 288.997 C 115.398 288.776,115.832 287.066,116.193 285.197 C 116.554 283.329,117.010 281.440,117.205 281.000 C 117.401 280.560,117.849 278.670,118.200 276.800 C 118.551 274.930,118.998 273.040,119.191 272.600 C 119.385 272.160,119.846 270.360,120.216 268.600 C 120.585 266.840,121.019 265.220,121.179 265.000 C 121.340 264.780,121.796 263.160,122.192 261.400 C 122.588 259.640,123.041 258.020,123.199 257.800 C 123.356 257.580,123.702 256.509,123.968 255.421 C 124.397 253.663,125.137 251.803,127.001 247.800 C 127.308 247.140,127.836 245.909,128.174 245.064 C 128.512 244.220,129.244 242.960,129.801 242.264 C 131.314 240.373,131.353 240.318,132.347 238.698 C 132.853 237.872,134.610 236.099,136.250 234.759 L 139.232 232.322 142.408 232.104 C 146.019 231.857,150.360 233.108,152.931 235.138 C 153.671 235.722,154.889 236.650,155.638 237.200 C 158.416 239.240,163.085 244.961,168.822 253.357 C 184.685 276.570,203.173 281.327,219.216 266.324 C 219.995 265.596,221.368 264.370,222.268 263.600 C 224.868 261.374,231.974 252.568,235.664 247.000 C 237.758 243.840,238.170 243.380,242.643 239.200 C 244.845 237.142,247.037 235.575,249.626 234.210 L 253.400 232.221 257.800 232.218 C 268.599 232.210,277.375 240.158,288.916 260.400 C 290.108 262.490,291.220 264.650,291.387 265.200 C 291.554 265.750,292.013 266.740,292.407 267.400 C 292.801 268.060,293.349 269.365,293.625 270.300 C 293.901 271.235,294.278 272.000,294.463 272.000 C 294.648 272.000,294.800 272.180,294.800 272.399 C 294.800 272.750,297.015 277.967,298.621 281.400 C 298.930 282.060,300.285 285.210,301.631 288.400 C 303.916 293.811,304.797 295.768,308.206 303.000 C 311.058 309.053,312.000 311.184,312.000 311.583 C 312.000 311.812,312.140 312.000,312.312 312.000 C 312.484 312.000,312.973 312.900,313.400 314.000 C 313.827 315.100,314.277 316.000,314.400 316.000 C 314.523 316.000,314.973 316.900,315.400 318.000 C 315.827 319.100,316.277 320.000,316.400 320.000 C 316.523 320.000,316.973 320.900,317.400 322.000 C 317.827 323.100,318.316 324.000,318.488 324.000 C 318.660 324.000,318.800 324.188,318.800 324.417 C 318.800 324.647,319.475 325.892,320.300 327.184 C 321.125 328.477,322.700 330.997,323.800 332.785 C 337.369 354.837,351.967 366.400,366.237 366.400 L 369.635 366.400 372.809 363.744 C 374.554 362.283,376.098 360.708,376.240 360.244 C 376.554 359.218,378.650 354.508,379.285 353.400 C 379.538 352.960,380.064 350.710,380.454 348.400 C 380.845 346.090,381.436 342.850,381.769 341.200 C 382.601 337.071,382.612 302.578,381.784 294.000 C 381.476 290.810,380.867 283.970,380.431 278.800 C 379.994 273.630,379.452 268.770,379.225 268.000 C 378.998 267.230,378.531 263.630,378.188 260.000 C 377.845 256.370,377.405 252.950,377.211 252.400 C 377.016 251.850,376.552 248.340,376.178 244.600 C 375.805 240.860,375.375 237.710,375.222 237.600 C 375.070 237.490,374.610 234.790,374.200 231.600 C 373.790 228.410,373.340 225.710,373.200 225.600 C 373.060 225.490,372.610 222.790,372.200 219.600 C 371.790 216.410,371.347 213.710,371.215 213.600 C 371.084 213.490,370.587 210.880,370.111 207.800 C 369.635 204.720,368.776 199.590,368.203 196.400 C 367.629 193.210,366.775 188.170,366.305 185.200 C 365.835 182.230,365.334 179.710,365.192 179.600 C 365.050 179.490,364.612 177.067,364.218 174.215 C 363.823 171.364,363.356 168.754,363.179 168.415 C 363.002 168.077,362.566 165.820,362.209 163.400 C 361.852 160.980,361.399 158.640,361.203 158.200 C 361.007 157.760,360.555 155.510,360.200 153.200 C 359.845 150.890,359.395 148.640,359.200 148.200 C 359.005 147.760,358.555 145.510,358.200 143.200 C 357.845 140.890,357.395 138.640,357.200 138.200 C 357.005 137.760,356.545 135.510,356.177 133.200 C 355.810 130.890,355.377 128.820,355.216 128.600 C 355.056 128.380,354.615 126.670,354.238 124.800 C 353.861 122.930,353.392 121.040,353.197 120.600 C 353.002 120.160,352.550 118.360,352.193 116.600 C 351.836 114.840,351.386 113.040,351.193 112.600 C 351.000 112.160,350.550 110.360,350.193 108.600 C 349.836 106.840,349.390 105.040,349.203 104.600 C 349.015 104.160,348.553 102.450,348.176 100.800 C 347.799 99.150,347.360 97.620,347.200 97.400 C 347.040 97.180,346.590 95.650,346.200 94.000 C 345.810 92.350,345.359 90.820,345.198 90.600 C 345.037 90.380,344.680 89.210,344.405 88.000 C 344.130 86.790,343.666 85.260,343.373 84.600 C 343.080 83.940,342.556 82.230,342.207 80.800 C 341.858 79.370,341.412 77.840,341.215 77.400 C 341.018 76.960,340.561 75.610,340.200 74.400 C 339.839 73.190,339.375 71.840,339.170 71.400 C 338.763 70.526,335.526 61.434,334.453 58.152 C 334.085 57.026,333.606 55.856,333.387 55.552 C 333.169 55.248,331.733 52.480,330.195 49.400 C 328.658 46.320,327.265 43.740,327.100 43.667 C 326.935 43.593,326.800 43.295,326.800 43.003 C 326.800 42.505,324.254 39.255,320.166 34.537 C 318.357 32.448,312.556 28.749,311.248 28.850 C 310.891 28.878,309.160 29.172,307.400 29.504 " stroke="none" fill="#040404" fill-rule="evenodd"></path><path id="path1" d="M0.000 200.000 L 0.000 400.000 200.000 400.000 L 400.000 400.000 400.000 200.000 L 400.000 0.000 200.000 0.000 L 0.000 0.000 0.000 200.000 M314.830 29.990 C 316.373 30.864,317.968 31.812,318.374 32.096 C 319.688 33.017,326.439 41.347,327.372 43.200 C 327.871 44.190,329.643 47.660,331.311 50.911 C 332.978 54.163,334.731 58.033,335.207 59.511 C 335.682 60.990,336.308 62.740,336.598 63.400 C 336.887 64.060,337.358 65.410,337.643 66.400 C 337.928 67.390,338.274 68.290,338.412 68.400 C 338.549 68.510,339.006 69.815,339.426 71.300 C 339.846 72.785,340.297 74.000,340.428 74.000 C 340.559 74.000,341.007 75.395,341.423 77.100 C 341.839 78.805,342.292 80.290,342.429 80.400 C 342.566 80.510,343.004 81.950,343.403 83.600 C 343.802 85.250,344.273 86.870,344.450 87.200 C 344.755 87.770,345.331 89.732,347.323 97.000 C 347.805 98.760,348.307 100.290,348.438 100.400 C 348.569 100.510,349.002 102.310,349.400 104.400 C 349.798 106.490,350.248 108.290,350.400 108.400 C 350.552 108.510,351.002 110.310,351.400 112.400 C 351.798 114.490,352.248 116.290,352.400 116.400 C 352.552 116.510,353.002 118.310,353.400 120.400 C 353.798 122.490,354.248 124.290,354.400 124.400 C 354.552 124.510,354.988 126.310,355.370 128.400 C 355.752 130.490,356.219 132.560,356.409 133.000 C 356.599 133.440,357.045 135.690,357.400 138.000 C 357.755 140.310,358.205 142.560,358.400 143.000 C 358.595 143.440,359.045 145.690,359.400 148.000 C 359.755 150.310,360.205 152.560,360.400 153.000 C 360.595 153.440,361.045 155.690,361.400 158.000 C 361.755 160.310,362.208 162.560,362.406 163.000 C 362.752 163.770,363.448 167.635,365.324 179.200 C 365.806 182.170,366.314 184.780,366.454 185.000 C 366.594 185.220,367.029 187.740,367.421 190.600 C 367.813 193.460,368.255 195.890,368.403 196.000 C 368.552 196.110,368.997 198.630,369.393 201.600 C 369.790 204.570,370.245 207.180,370.406 207.400 C 370.567 207.620,371.016 210.320,371.405 213.400 C 371.793 216.480,372.243 219.180,372.405 219.400 C 372.566 219.620,373.016 222.320,373.405 225.400 C 373.793 228.480,374.244 231.180,374.408 231.400 C 374.571 231.620,375.014 234.410,375.393 237.600 C 375.772 240.790,376.233 243.760,376.418 244.200 C 376.603 244.640,377.045 248.150,377.400 252.000 C 377.755 255.850,378.202 259.360,378.394 259.800 C 378.770 260.667,380.000 272.025,380.000 274.637 C 380.000 275.519,380.153 276.411,380.341 276.620 C 380.528 276.829,381.010 281.770,381.411 287.600 C 381.812 293.430,382.290 298.302,382.474 298.426 C 382.947 298.746,382.908 338.214,382.434 339.093 C 382.225 339.482,381.760 341.870,381.403 344.400 C 381.046 346.930,380.584 349.585,380.377 350.300 C 379.365 353.791,379.029 354.763,378.130 356.800 C 376.220 361.124,375.770 361.756,372.804 364.278 L 369.800 366.832 365.400 366.666 C 356.145 366.315,346.603 361.623,339.703 354.028 C 338.990 353.242,337.992 352.150,337.486 351.600 C 335.415 349.349,332.365 345.573,329.567 341.794 C 326.718 337.948,325.579 336.286,323.400 332.800 C 322.850 331.920,321.922 330.435,321.337 329.500 C 320.753 328.565,319.975 327.350,319.609 326.800 C 319.242 326.250,316.683 321.210,313.921 315.600 C 308.891 305.384,307.569 302.625,305.201 297.400 C 304.503 295.860,303.604 293.880,303.202 293.000 C 302.800 292.120,301.900 290.050,301.200 288.400 C 300.500 286.750,299.584 284.668,299.164 283.774 C 298.744 282.879,298.400 282.017,298.400 281.857 C 298.400 281.697,297.845 280.359,297.166 278.883 C 296.488 277.407,295.576 275.390,295.141 274.400 C 294.706 273.410,294.012 271.880,293.599 271.000 C 291.628 266.802,290.451 264.112,290.184 263.200 C 290.024 262.650,289.777 262.110,289.637 262.000 C 289.167 261.631,284.000 252.854,284.000 252.425 C 284.000 252.191,283.849 252.000,283.664 252.000 C 283.480 252.000,283.120 251.543,282.865 250.984 C 281.634 248.281,273.205 239.150,268.588 235.519 C 263.882 231.817,255.433 231.499,249.400 234.796 C 245.848 236.738,238.813 242.817,237.131 245.400 C 233.988 250.226,230.376 255.045,226.216 259.965 C 212.780 275.851,197.736 279.679,184.825 270.497 C 183.381 269.470,181.935 268.443,181.611 268.215 C 178.533 266.046,168.522 254.363,166.490 250.569 C 166.115 249.869,162.753 245.449,161.493 244.000 C 161.206 243.670,160.363 242.586,159.620 241.591 C 158.877 240.596,157.475 239.156,156.505 238.391 C 155.535 237.626,154.398 236.730,153.978 236.400 C 145.566 229.784,138.165 231.201,131.415 240.720 C 129.303 243.697,127.200 247.441,127.200 248.220 C 127.200 248.482,125.444 252.463,124.617 254.075 C 124.314 254.667,123.755 256.557,123.376 258.275 C 122.996 259.994,122.569 261.490,122.427 261.600 C 122.284 261.710,121.838 263.240,121.435 265.000 C 121.032 266.760,120.570 268.380,120.407 268.600 C 120.245 268.820,119.806 270.704,119.432 272.788 C 119.058 274.871,118.607 276.761,118.430 276.988 C 118.252 277.214,117.790 279.200,117.402 281.400 C 117.015 283.600,116.580 285.490,116.437 285.600 C 116.294 285.710,115.792 287.420,115.320 289.400 C 113.553 296.825,112.747 299.818,111.612 303.162 C 110.970 305.053,110.078 307.680,109.630 309.000 C 109.183 310.320,108.661 311.670,108.472 312.000 C 108.283 312.330,107.796 313.680,107.389 315.000 C 106.983 316.320,106.549 317.490,106.425 317.600 C 106.301 317.710,105.799 318.610,105.308 319.600 C 104.312 321.610,101.001 327.778,99.654 330.133 C 99.172 330.976,98.103 332.596,97.279 333.733 C 96.454 334.870,95.065 336.880,94.190 338.200 C 89.150 345.807,76.312 356.409,67.800 359.994 C 66.040 360.735,63.700 361.742,62.600 362.231 C 57.297 364.589,42.384 367.200,34.216 367.200 L 32.949 367.200 33.099 364.700 C 33.182 363.325,33.404 361.840,33.592 361.400 C 33.780 360.960,34.233 356.370,34.598 351.200 C 34.962 346.030,35.372 341.530,35.507 341.200 C 35.642 340.870,36.171 336.100,36.683 330.600 C 39.131 304.260,39.459 300.960,39.682 300.400 C 39.814 300.070,40.219 295.750,40.583 290.800 C 40.947 285.850,41.400 281.440,41.590 281.000 C 41.779 280.560,42.233 276.330,42.597 271.600 C 42.961 266.870,43.368 262.730,43.502 262.400 C 43.635 262.070,44.156 257.660,44.661 252.600 C 46.845 230.706,47.461 224.965,47.686 224.400 C 47.817 224.070,48.223 220.740,48.588 217.000 C 48.953 213.260,49.408 209.840,49.598 209.400 C 49.788 208.960,50.240 205.630,50.602 202.000 C 50.965 198.370,51.370 195.130,51.504 194.800 C 51.733 194.234,52.558 188.068,54.367 173.400 C 54.802 169.880,55.268 166.550,55.404 166.000 C 55.673 164.911,57.101 156.084,58.543 146.600 C 59.044 143.300,59.563 140.330,59.695 140.000 C 59.827 139.670,60.229 136.970,60.589 134.000 C 60.949 131.030,61.398 128.240,61.586 127.800 C 61.774 127.360,62.235 124.660,62.609 121.800 C 62.984 118.940,63.422 116.420,63.583 116.200 C 63.745 115.980,64.198 113.550,64.590 110.800 C 64.982 108.050,65.436 105.620,65.599 105.400 C 65.762 105.180,66.198 102.930,66.567 100.400 C 66.936 97.870,67.400 95.440,67.598 95.000 C 67.795 94.560,68.244 92.220,68.595 89.800 C 68.946 87.380,69.396 85.040,69.595 84.600 C 69.795 84.160,70.261 82.360,70.631 80.600 C 71.000 78.840,71.440 77.220,71.608 77.000 C 71.776 76.780,72.226 75.160,72.608 73.400 C 72.990 71.640,73.437 70.020,73.600 69.800 C 73.763 69.580,74.210 67.960,74.592 66.200 C 74.974 64.440,75.421 62.820,75.584 62.600 C 75.747 62.380,76.119 61.030,76.412 59.600 C 76.704 58.170,77.361 56.164,77.872 55.142 C 78.382 54.120,78.800 53.150,78.800 52.986 C 78.800 52.822,79.147 51.948,79.572 51.044 C 81.063 47.867,82.307 44.991,82.591 44.063 C 82.748 43.548,83.386 42.108,84.008 40.863 C 85.011 38.857,85.987 37.630,90.640 32.528 L 91.800 31.257 95.560 32.030 L 99.321 32.804 103.205 36.702 C 106.557 40.067,113.178 47.739,116.400 51.993 C 116.950 52.719,118.883 55.223,120.695 57.557 C 122.508 59.890,124.128 61.980,124.295 62.200 C 127.914 66.953,129.600 69.241,129.600 69.401 C 129.600 69.509,130.472 70.820,131.538 72.314 C 132.604 73.808,133.549 75.203,133.638 75.415 C 133.727 75.627,134.687 77.150,135.771 78.800 C 136.855 80.450,138.133 82.430,138.612 83.200 C 139.090 83.970,140.289 85.860,141.275 87.400 C 142.262 88.940,144.830 93.350,146.982 97.200 C 149.135 101.050,151.279 104.866,151.748 105.681 C 157.606 115.860,162.342 124.724,170.181 140.182 C 171.291 142.372,172.422 144.442,172.693 144.782 C 173.579 145.894,177.781 151.512,178.592 152.669 C 180.839 155.876,187.111 161.713,190.000 163.287 C 191.650 164.186,193.270 165.140,193.600 165.409 C 194.568 166.196,201.508 166.432,203.402 165.742 C 204.281 165.422,205.884 164.884,206.964 164.546 C 208.811 163.968,210.749 162.711,214.672 159.548 C 216.264 158.265,224.800 148.149,224.800 147.546 C 224.800 147.388,225.700 145.900,226.800 144.239 C 227.900 142.578,228.800 141.137,228.800 141.038 C 228.800 140.938,229.520 139.773,230.400 138.448 C 231.280 137.123,232.000 135.911,232.000 135.755 C 232.000 135.600,233.056 133.296,234.346 130.636 C 235.636 127.976,236.818 125.395,236.973 124.900 C 237.127 124.405,237.422 124.000,237.627 124.000 C 237.832 124.000,238.000 123.794,238.000 123.542 C 238.000 123.103,247.110 106.413,247.575 106.000 C 247.699 105.890,248.143 105.170,248.561 104.400 C 249.681 102.341,253.748 95.199,254.634 93.736 C 256.833 90.106,258.231 87.696,258.657 86.800 C 259.036 86.002,263.573 78.924,265.571 76.010 C 265.802 75.675,266.757 74.230,267.695 72.800 C 268.633 71.370,269.535 70.140,269.700 70.067 C 269.865 69.993,270.000 69.760,270.000 69.547 C 270.000 69.093,273.262 64.262,273.700 64.067 C 273.865 63.993,274.000 63.754,274.000 63.536 C 274.000 62.743,283.227 51.408,288.763 45.400 C 289.574 44.520,291.648 42.122,293.371 40.070 C 296.267 36.624,303.995 29.634,304.976 29.574 C 305.209 29.560,306.480 29.305,307.800 29.008 C 311.370 28.203,311.778 28.260,314.830 29.990 " stroke="none" fill="#fbfbfb" fill-rule="evenodd"></path><path id="path2" d="M90.770 32.300 L 89.800 33.400 91.000 32.400 C 91.660 31.850,92.275 31.355,92.367 31.300 C 92.458 31.245,92.355 31.200,92.136 31.200 C 91.918 31.200,91.303 31.695,90.770 32.300 M284.175 50.500 L 283.000 51.800 284.300 50.625 C 285.015 49.979,285.600 49.394,285.600 49.325 C 285.600 49.016,285.270 49.288,284.175 50.500 M73.387 70.200 C 73.284 70.530,73.112 71.079,73.005 71.421 C 72.897 71.762,72.966 71.945,73.157 71.827 C 73.348 71.709,73.591 71.159,73.697 70.606 C 73.906 69.513,73.690 69.230,73.387 70.200 M71.387 77.400 C 71.284 77.730,71.112 78.279,71.005 78.621 C 70.897 78.962,70.966 79.145,71.157 79.027 C 71.348 78.909,71.591 78.359,71.697 77.806 C 71.906 76.713,71.690 76.430,71.387 77.400 M67.168 96.500 C 67.049 97.360,67.110 97.850,67.312 97.648 C 67.505 97.455,67.598 96.781,67.519 96.149 C 67.387 95.091,67.359 95.119,67.168 96.500 M348.400 101.376 C 348.400 101.913,348.547 102.444,348.728 102.555 C 348.908 102.667,348.977 102.227,348.882 101.579 C 348.672 100.149,348.400 100.035,348.400 101.376 M65.422 105.700 C 65.072 106.846,64.811 108.923,65.047 108.687 C 65.342 108.391,65.971 105.200,65.734 105.200 C 65.646 105.200,65.506 105.425,65.422 105.700 M350.400 109.376 C 350.400 109.913,350.547 110.444,350.728 110.555 C 350.908 110.667,350.977 110.227,350.882 109.579 C 350.672 108.149,350.400 108.035,350.400 109.376 M63.168 117.700 C 63.049 118.560,63.110 119.050,63.312 118.848 C 63.505 118.655,63.598 117.981,63.519 117.349 C 63.387 116.291,63.359 116.319,63.168 117.700 M352.400 117.376 C 352.400 117.913,352.547 118.444,352.728 118.555 C 352.908 118.667,352.977 118.227,352.882 117.579 C 352.672 116.149,352.400 116.035,352.400 117.376 M354.400 125.376 C 354.400 125.913,354.547 126.444,354.728 126.555 C 354.908 126.667,354.977 126.227,354.882 125.579 C 354.672 124.149,354.400 124.035,354.400 125.376 M61.180 129.490 C 61.071 130.419,61.133 131.027,61.320 130.840 C 61.506 130.654,61.596 129.894,61.519 129.151 C 61.383 127.833,61.375 127.842,61.180 129.490 M59.358 140.566 C 59.238 140.878,59.205 141.643,59.284 142.266 C 59.402 143.191,59.464 143.087,59.625 141.700 C 59.827 139.951,59.738 139.575,59.358 140.566 M57.301 154.600 C 57.305 155.480,57.387 155.793,57.483 155.295 C 57.579 154.798,57.575 154.078,57.475 153.695 C 57.375 153.313,57.296 153.720,57.301 154.600 M55.180 167.090 C 55.071 168.019,55.133 168.627,55.320 168.440 C 55.506 168.254,55.596 167.494,55.519 166.751 C 55.383 165.433,55.375 165.442,55.180 167.090 M364.269 174.650 C 364.398 175.503,364.639 176.349,364.804 176.532 C 364.969 176.715,364.969 176.123,364.803 175.216 C 364.415 173.093,363.960 172.611,364.269 174.650 M53.309 181.600 C 53.309 182.590,53.387 182.995,53.482 182.500 C 53.578 182.005,53.578 181.195,53.482 180.700 C 53.387 180.205,53.309 180.610,53.309 181.600 M366.400 186.376 C 366.400 187.023,366.542 187.641,366.716 187.748 C 366.890 187.856,366.961 187.327,366.873 186.572 C 366.676 184.891,366.400 184.777,366.400 186.376 M51.309 196.400 C 51.309 197.390,51.387 197.795,51.482 197.300 C 51.578 196.805,51.578 195.995,51.482 195.500 C 51.387 195.005,51.309 195.410,51.309 196.400 M368.400 197.376 C 368.400 198.133,368.538 198.838,368.707 198.943 C 368.876 199.047,368.948 198.428,368.865 197.566 C 368.681 195.632,368.400 195.518,368.400 197.376 M370.335 208.836 C 370.417 209.699,370.604 210.479,370.750 210.569 C 370.895 210.659,370.947 210.027,370.865 209.164 C 370.783 208.301,370.596 207.521,370.450 207.431 C 370.305 207.341,370.253 207.973,370.335 208.836 M49.413 209.700 C 49.111 210.630,48.979 213.581,49.252 213.290 C 49.401 213.130,49.586 212.145,49.664 211.100 C 49.805 209.210,49.722 208.746,49.413 209.700 M372.335 220.836 C 372.417 221.699,372.604 222.479,372.750 222.569 C 372.895 222.659,372.947 222.027,372.865 221.164 C 372.783 220.301,372.596 219.521,372.450 219.431 C 372.305 219.341,372.253 219.973,372.335 220.836 M47.320 226.800 C 47.320 228.010,47.395 228.505,47.487 227.900 C 47.578 227.295,47.578 226.305,47.487 225.700 C 47.395 225.095,47.320 225.590,47.320 226.800 M374.335 232.836 C 374.417 233.699,374.604 234.479,374.750 234.569 C 374.895 234.659,374.947 234.027,374.865 233.164 C 374.783 232.301,374.596 231.521,374.450 231.431 C 374.305 231.341,374.253 231.973,374.335 232.836 M139.052 232.716 C 138.944 232.890,139.473 232.961,140.228 232.873 C 140.983 232.785,141.600 232.642,141.600 232.556 C 141.600 232.255,139.245 232.403,139.052 232.716 M253.900 232.682 C 254.395 232.778,255.205 232.778,255.700 232.682 C 256.195 232.587,255.790 232.509,254.800 232.509 C 253.810 232.509,253.405 232.587,253.900 232.682 M244.181 238.100 L 242.600 239.800 244.300 238.219 C 245.881 236.748,246.184 236.400,245.881 236.400 C 245.816 236.400,245.051 237.165,244.181 238.100 M273.600 239.725 C 273.600 239.794,274.185 240.379,274.900 241.025 L 276.200 242.200 275.025 240.900 C 273.930 239.688,273.600 239.416,273.600 239.725 M45.194 245.882 C 45.087 247.246,45.145 248.217,45.323 248.039 C 45.500 247.860,45.588 246.744,45.517 245.557 L 45.389 243.400 45.194 245.882 M376.337 245.919 C 376.414 246.953,376.596 247.927,376.740 248.081 C 376.885 248.236,376.940 247.516,376.863 246.481 C 376.786 245.447,376.604 244.473,376.460 244.319 C 376.315 244.164,376.260 244.884,376.337 245.919 M378.337 261.519 C 378.414 262.553,378.596 263.527,378.740 263.681 C 378.885 263.836,378.940 263.116,378.863 262.081 C 378.786 261.047,378.604 260.073,378.460 259.919 C 378.315 259.764,378.260 260.484,378.337 261.519 M223.775 262.500 L 222.600 263.800 223.900 262.625 C 224.615 261.979,225.200 261.394,225.200 261.325 C 225.200 261.016,224.870 261.288,223.775 262.500 M43.194 264.682 C 43.087 266.046,43.145 267.017,43.323 266.839 C 43.500 266.660,43.588 265.544,43.517 264.357 L 43.389 262.200 43.194 264.682 M176.000 262.925 C 176.000 262.994,176.585 263.579,177.300 264.225 L 178.600 265.400 177.425 264.100 C 176.330 262.888,176.000 262.616,176.000 262.925 M118.649 275.015 C 118.512 275.373,118.415 275.966,118.434 276.333 C 118.453 276.700,118.627 276.469,118.821 275.820 C 119.198 274.558,119.065 273.933,118.649 275.015 M196.500 275.476 C 196.885 275.576,197.515 275.576,197.900 275.476 C 198.285 275.375,197.970 275.293,197.200 275.293 C 196.430 275.293,196.115 275.375,196.500 275.476 M380.395 279.318 L 380.591 282.200 380.716 279.641 C 380.785 278.233,380.697 276.936,380.521 276.759 C 380.344 276.581,380.288 277.733,380.395 279.318 M41.194 283.482 C 41.087 284.846,41.145 285.817,41.323 285.639 C 41.500 285.460,41.588 284.344,41.517 283.157 L 41.389 281.000 41.194 283.482 M116.554 283.777 C 116.432 284.094,116.403 284.679,116.489 285.077 C 116.587 285.528,116.724 285.312,116.854 284.500 C 117.071 283.138,116.930 282.796,116.554 283.777 M382.579 318.600 C 382.578 331.356,382.657 335.553,382.789 329.800 C 382.905 324.740,382.905 315.560,382.790 309.400 C 382.632 301.007,382.579 303.313,382.579 318.600 M39.195 303.282 C 39.088 304.757,39.145 305.818,39.322 305.640 C 39.499 305.462,39.586 304.255,39.517 302.958 L 39.390 300.600 39.195 303.282 M37.328 323.600 C 37.328 325.030,37.401 325.615,37.489 324.900 C 37.578 324.185,37.578 323.015,37.489 322.300 C 37.401 321.585,37.328 322.170,37.328 323.600 M35.408 341.300 C 35.114 342.181,34.990 346.373,35.266 346.081 C 35.521 345.812,35.921 340.798,35.687 340.799 C 35.626 340.800,35.500 341.025,35.408 341.300 M380.556 347.371 C 380.435 347.685,380.404 348.360,380.486 348.871 C 380.595 349.554,380.688 349.404,380.837 348.300 C 381.047 346.747,380.936 346.381,380.556 347.371 M33.415 361.700 C 33.148 362.533,32.934 367.199,33.173 366.960 C 33.403 366.730,33.900 361.200,33.691 361.200 C 33.627 361.200,33.503 361.425,33.415 361.700 M365.800 366.400 L 361.400 366.642 365.676 366.721 C 368.185 366.767,370.055 366.635,370.200 366.400 C 370.336 366.180,370.392 366.036,370.324 366.079 C 370.256 366.123,368.220 366.267,365.800 366.400 M40.100 366.687 C 40.705 366.778,41.695 366.778,42.300 366.687 C 42.905 366.595,42.410 366.520,41.200 366.520 C 39.990 366.520,39.495 366.595,40.100 366.687 M35.100 367.082 C 35.595 367.178,36.405 367.178,36.900 367.082 C 37.395 366.987,36.990 366.909,36.000 366.909 C 35.010 366.909,34.605 366.987,35.100 367.082 " stroke="none" fill="#a6a6a6" fill-rule="evenodd"></path><path id="path3" d="M72.600 73.600 C 72.448 74.291,72.407 74.941,72.509 75.042 C 72.611 75.144,72.809 74.653,72.950 73.950 C 73.091 73.247,73.131 72.598,73.041 72.508 C 72.950 72.417,72.752 72.909,72.600 73.600 M68.543 90.203 C 68.329 91.634,68.284 92.669,68.443 92.503 C 68.769 92.161,69.391 87.600,69.112 87.600 C 69.013 87.600,68.757 88.771,68.543 90.203 M66.600 100.400 C 66.445 101.528,66.402 102.536,66.506 102.639 C 66.609 102.742,66.816 101.900,66.967 100.767 C 67.117 99.634,67.159 98.626,67.061 98.528 C 66.963 98.429,66.755 99.272,66.600 100.400 M63.053 119.114 C 62.947 119.287,62.766 120.592,62.653 122.014 C 62.448 124.584,62.544 124.337,63.166 120.700 C 63.481 118.855,63.454 118.466,63.053 119.114 M61.064 131.100 C 60.964 131.265,60.785 132.660,60.667 134.200 C 60.448 137.057,60.605 136.647,61.165 132.900 C 61.469 130.866,61.447 130.472,61.064 131.100 M356.800 136.776 C 356.800 137.423,356.942 138.041,357.116 138.148 C 357.290 138.256,357.361 137.727,357.273 136.972 C 357.076 135.291,356.800 135.177,356.800 136.776 M58.958 143.766 C 58.838 144.078,58.805 144.843,58.884 145.466 C 59.002 146.391,59.064 146.287,59.225 144.900 C 59.427 143.151,59.338 142.775,58.958 143.766 M358.800 146.776 C 358.800 147.423,358.942 148.041,359.116 148.148 C 359.290 148.256,359.361 147.727,359.273 146.972 C 359.076 145.291,358.800 145.177,358.800 146.776 M58.380 148.290 C 58.271 149.219,58.333 149.827,58.520 149.640 C 58.706 149.454,58.796 148.694,58.719 147.951 C 58.583 146.633,58.575 146.642,58.380 148.290 M360.800 156.776 C 360.800 157.423,360.942 158.041,361.116 158.148 C 361.290 158.256,361.361 157.727,361.273 156.972 C 361.076 155.291,360.800 155.177,360.800 156.776 M56.613 159.013 C 56.457 160.471,56.414 161.747,56.516 161.850 C 56.619 161.952,56.831 160.844,56.987 159.387 C 57.143 157.929,57.186 156.653,57.084 156.550 C 56.981 156.448,56.769 157.556,56.613 159.013 M216.175 158.500 L 215.000 159.800 216.300 158.625 C 217.015 157.979,217.600 157.394,217.600 157.325 C 217.600 157.016,217.270 157.288,216.175 158.500 M362.800 166.976 C 362.800 167.733,362.938 168.438,363.107 168.543 C 363.276 168.647,363.348 168.028,363.265 167.166 C 363.081 165.232,362.800 165.118,362.800 166.976 M195.700 166.276 C 196.085 166.376,196.715 166.376,197.100 166.276 C 197.485 166.175,197.170 166.093,196.400 166.093 C 195.630 166.093,195.315 166.175,195.700 166.276 M54.611 172.211 C 54.453 174.106,54.409 175.742,54.513 175.846 C 54.617 175.950,54.832 174.485,54.989 172.589 C 55.147 170.694,55.191 169.058,55.087 168.954 C 54.983 168.850,54.768 170.315,54.611 172.211 M364.893 178.400 C 364.893 179.170,364.975 179.485,365.076 179.100 C 365.176 178.715,365.176 178.085,365.076 177.700 C 364.975 177.315,364.893 177.630,364.893 178.400 M53.148 183.300 C 52.960 183.660,52.220 191.114,52.389 190.948 C 52.611 190.730,53.509 183.200,53.313 183.200 C 53.251 183.200,53.176 183.245,53.148 183.300 M50.909 200.400 C 50.909 201.390,50.987 201.795,51.082 201.300 C 51.178 200.805,51.178 199.995,51.082 199.500 C 50.987 199.005,50.909 199.410,50.909 200.400 M368.768 200.300 C 368.959 201.681,368.987 201.709,369.119 200.651 C 369.198 200.019,369.105 199.345,368.912 199.152 C 368.710 198.950,368.649 199.440,368.768 200.300 M50.509 204.000 C 50.509 204.990,50.587 205.395,50.682 204.900 C 50.778 204.405,50.778 203.595,50.682 203.100 C 50.587 202.605,50.509 203.010,50.509 204.000 M370.901 212.200 C 370.905 213.080,370.987 213.393,371.083 212.895 C 371.179 212.398,371.175 211.678,371.075 211.295 C 370.975 210.913,370.896 211.320,370.901 212.200 M49.069 213.500 C 48.971 213.665,48.793 215.330,48.675 217.200 C 48.435 220.978,48.623 220.518,49.126 216.100 C 49.447 213.277,49.438 212.879,49.069 213.500 M372.901 224.200 C 372.905 225.080,372.987 225.393,373.083 224.895 C 373.179 224.398,373.175 223.678,373.075 223.295 C 372.975 222.913,372.896 223.320,372.901 224.200 M46.609 233.809 C 46.450 236.143,46.406 238.139,46.511 238.244 C 46.616 238.349,46.832 236.526,46.991 234.191 C 47.150 231.857,47.194 229.861,47.089 229.756 C 46.984 229.651,46.768 231.474,46.609 233.809 M374.901 236.200 C 374.905 237.080,374.987 237.393,375.083 236.895 C 375.179 236.398,375.175 235.678,375.075 235.295 C 374.975 234.913,374.896 235.320,374.901 236.200 M242.575 239.300 L 241.400 240.600 242.700 239.425 C 243.415 238.779,244.000 238.194,244.000 238.125 C 244.000 237.816,243.670 238.088,242.575 239.300 M44.920 250.800 C 44.920 252.010,44.995 252.505,45.087 251.900 C 45.178 251.295,45.178 250.305,45.087 249.700 C 44.995 249.095,44.920 249.590,44.920 250.800 M376.909 250.400 C 376.909 251.390,376.987 251.795,377.082 251.300 C 377.178 250.805,377.178 249.995,377.082 249.500 C 376.987 249.005,376.909 249.410,376.909 250.400 M44.520 255.200 C 44.520 256.410,44.595 256.905,44.687 256.300 C 44.778 255.695,44.778 254.705,44.687 254.100 C 44.595 253.495,44.520 253.990,44.520 255.200 M175.800 262.400 C 176.659 263.280,177.452 264.000,177.562 264.000 C 177.672 264.000,177.059 263.280,176.200 262.400 C 175.341 261.520,174.548 260.800,174.438 260.800 C 174.328 260.800,174.941 261.520,175.800 262.400 M378.806 265.833 C 378.809 266.695,378.970 267.649,379.163 267.954 C 379.378 268.293,379.432 267.749,379.304 266.554 C 379.042 264.117,378.798 263.764,378.806 265.833 M43.066 267.100 C 42.966 267.265,42.792 269.380,42.679 271.800 C 42.467 276.354,42.616 275.798,43.137 270.100 C 43.434 266.851,43.426 266.505,43.066 267.100 M195.305 275.087 C 195.914 275.179,196.814 275.177,197.305 275.082 C 197.797 274.987,197.300 274.911,196.200 274.914 C 195.100 274.917,194.697 274.995,195.305 275.087 M199.900 275.482 C 200.395 275.578,201.205 275.578,201.700 275.482 C 202.195 275.387,201.790 275.309,200.800 275.309 C 199.810 275.309,199.405 275.387,199.900 275.482 M380.928 285.200 C 380.928 286.630,381.001 287.215,381.089 286.500 C 381.178 285.785,381.178 284.615,381.089 283.900 C 381.001 283.185,380.928 283.770,380.928 285.200 M40.920 288.400 C 40.920 289.610,40.995 290.105,41.087 289.500 C 41.178 288.895,41.178 287.905,41.087 287.300 C 40.995 286.695,40.920 287.190,40.920 288.400 M40.524 293.000 C 40.526 294.320,40.601 294.812,40.690 294.093 C 40.779 293.374,40.777 292.294,40.686 291.693 C 40.595 291.092,40.522 291.680,40.524 293.000 M112.987 297.000 C 112.884 297.330,112.712 297.879,112.605 298.221 C 112.497 298.562,112.566 298.745,112.757 298.627 C 112.948 298.509,113.191 297.959,113.297 297.406 C 113.506 296.313,113.290 296.030,112.987 297.000 M38.600 310.800 C 38.440 313.244,38.396 315.330,38.502 315.436 C 38.608 315.542,38.825 313.628,38.983 311.183 C 39.142 308.738,39.186 306.652,39.081 306.548 C 38.976 306.443,38.760 308.356,38.600 310.800 M36.562 331.381 C 36.363 334.121,36.318 336.236,36.463 336.081 C 36.766 335.757,37.391 326.400,37.110 326.400 C 37.007 326.400,36.761 328.642,36.562 331.381 M86.600 346.400 C 83.967 349.040,81.903 351.200,82.013 351.200 C 82.123 351.200,84.367 349.040,87.000 346.400 C 89.633 343.760,91.697 341.600,91.587 341.600 C 91.477 341.600,89.233 343.760,86.600 346.400 M380.984 344.700 C 380.856 345.305,380.683 346.141,380.598 346.558 C 380.514 346.974,380.591 347.154,380.770 346.958 C 381.119 346.574,381.662 343.600,381.382 343.600 C 381.290 343.600,381.111 344.095,380.984 344.700 M34.924 349.000 C 34.926 350.320,35.001 350.812,35.090 350.093 C 35.179 349.374,35.177 348.294,35.086 347.693 C 34.995 347.092,34.922 347.680,34.924 349.000 M34.524 353.800 C 34.526 355.120,34.601 355.612,34.690 354.893 C 34.779 354.174,34.777 353.094,34.686 352.493 C 34.595 351.892,34.522 352.480,34.524 353.800 M36.500 366.676 C 36.885 366.776,37.515 366.776,37.900 366.676 C 38.285 366.575,37.970 366.493,37.200 366.493 C 36.430 366.493,36.115 366.575,36.500 366.676 " stroke="none" fill="#7c7c7c" fill-rule="evenodd"></path><path id="path4" d="" stroke="none" fill="#848484" fill-rule="evenodd"></path></g></svg>