<svg id="svg" version="1.1" xmlns="http://www.w3.org/2000/svg" xmlns:xlink="http://www.w3.org/1999/xlink" width="400" height="400" viewBox="0, 0, 400,400"><g id="svgg"><path id="path0" d="M352.972 15.496 C 351.667 15.772,350.330 16.150,350.000 16.337 C 349.670 16.524,348.410 16.911,347.200 17.199 C 345.341 17.640,343.310 18.666,335.000 23.358 C 334.560 23.607,332.586 25.518,330.613 27.605 C 328.640 29.692,326.609 31.835,326.101 32.366 C 320.739 37.972,311.080 53.759,308.094 61.800 C 307.848 62.460,306.980 64.800,306.163 67.000 C 305.346 69.200,304.154 72.350,303.513 74.000 C 302.873 75.650,301.276 80.420,299.965 84.600 C 298.654 88.780,297.140 93.550,296.602 95.200 C 295.703 97.952,294.461 103.307,292.426 113.200 C 291.996 115.290,291.200 119.160,290.656 121.800 C 290.112 124.440,289.190 129.210,288.607 132.400 C 288.023 135.590,287.115 140.450,286.590 143.200 C 285.589 148.433,284.388 156.997,283.420 165.800 C 282.597 173.279,280.796 187.282,280.621 187.567 C 280.538 187.700,280.179 189.967,279.821 192.604 C 278.963 198.944,276.819 212.046,276.577 212.438 C 276.471 212.608,276.035 214.605,275.607 216.874 C 274.386 223.353,272.920 229.880,271.804 233.800 C 271.241 235.780,270.332 239.110,269.784 241.200 C 269.237 243.290,267.804 247.610,266.600 250.800 C 263.437 259.180,263.065 260.091,262.355 261.200 C 262.003 261.750,260.767 263.730,259.608 265.600 C 256.428 270.728,253.185 272.800,248.334 272.800 C 245.768 272.800,244.772 272.648,244.400 272.200 C 244.126 271.870,243.656 271.600,243.354 271.600 C 243.053 271.600,242.582 271.240,242.307 270.800 C 242.032 270.360,241.600 270.000,241.347 270.000 C 240.566 270.000,237.069 266.612,235.198 264.042 C 234.220 262.699,233.280 261.600,233.110 261.600 C 232.939 261.600,232.800 261.428,232.800 261.218 C 232.800 261.008,231.881 259.613,230.759 258.118 C 229.636 256.623,228.556 254.983,228.358 254.473 C 228.161 253.963,227.576 252.973,227.059 252.273 C 226.541 251.573,226.007 250.685,225.872 250.300 C 225.736 249.915,225.439 249.600,225.213 249.600 C 224.986 249.600,224.800 249.354,224.800 249.054 C 224.800 248.754,224.467 248.079,224.060 247.554 C 223.427 246.739,222.511 245.168,220.237 241.000 C 219.996 240.560,219.594 239.930,219.341 239.600 C 218.453 238.438,214.810 231.126,214.343 229.568 C 214.083 228.700,213.630 227.791,213.335 227.546 C 213.041 227.302,212.800 226.945,212.800 226.753 C 212.800 226.561,212.170 225.039,211.400 223.372 C 210.630 221.705,210.000 220.189,210.000 220.003 C 210.000 219.817,209.750 219.155,209.445 218.532 C 208.072 215.733,206.847 212.872,206.391 211.400 C 206.119 210.520,205.759 209.620,205.591 209.400 C 205.423 209.180,204.969 207.830,204.580 206.400 C 204.192 204.970,203.742 203.620,203.580 203.400 C 203.419 203.180,202.969 201.830,202.580 200.400 C 202.192 198.970,201.736 197.617,201.565 197.392 C 201.395 197.168,200.947 195.728,200.569 194.192 C 200.192 192.657,199.734 191.208,199.553 190.972 C 199.371 190.737,198.933 189.299,198.580 187.776 C 198.227 186.253,197.783 184.821,197.594 184.593 C 197.405 184.365,196.948 182.833,196.578 181.189 C 196.209 179.545,195.772 178.020,195.608 177.800 C 195.444 177.580,194.990 176.050,194.600 174.400 C 194.210 172.750,193.758 171.220,193.597 171.000 C 193.435 170.780,192.997 169.160,192.624 167.400 C 192.250 165.640,191.709 163.660,191.420 163.000 C 191.132 162.340,190.671 160.540,190.395 159.000 C 190.120 157.460,189.759 156.020,189.594 155.800 C 189.429 155.580,188.993 153.600,188.624 151.400 C 188.255 149.200,187.807 147.124,187.627 146.786 C 187.448 146.448,186.998 144.288,186.627 141.986 C 186.257 139.684,185.795 137.440,185.600 137.000 C 185.405 136.560,184.955 134.310,184.600 132.000 C 184.245 129.690,183.795 127.440,183.600 127.000 C 183.405 126.560,182.945 124.310,182.577 122.000 C 182.210 119.690,181.769 117.620,181.597 117.400 C 181.426 117.180,180.980 115.110,180.607 112.800 C 180.234 110.490,179.773 108.301,179.583 107.935 C 179.392 107.569,178.946 105.592,178.590 103.541 C 178.234 101.491,177.794 99.630,177.611 99.407 C 177.429 99.183,176.978 97.740,176.608 96.200 C 176.238 94.660,175.698 92.860,175.408 92.200 C 175.117 91.540,174.662 89.920,174.396 88.600 C 174.131 87.280,173.790 86.020,173.639 85.800 C 173.488 85.580,173.028 84.410,172.615 83.200 C 172.203 81.990,171.641 80.640,171.367 80.200 C 171.093 79.760,170.644 78.633,170.370 77.695 C 170.095 76.758,169.630 75.791,169.335 75.546 C 169.041 75.302,168.798 74.809,168.797 74.451 C 168.793 73.759,164.269 64.614,163.429 63.600 C 163.156 63.270,162.692 62.370,162.400 61.600 C 162.108 60.830,161.628 59.916,161.334 59.569 C 161.040 59.221,160.800 58.801,160.800 58.636 C 160.800 58.470,160.170 57.566,159.400 56.626 C 158.630 55.686,158.000 54.717,158.000 54.473 C 158.000 54.228,157.640 53.835,157.200 53.600 C 156.760 53.365,156.400 52.910,156.400 52.589 C 156.400 52.269,156.040 51.782,155.600 51.507 C 155.160 51.232,154.800 50.812,154.800 50.573 C 154.800 48.899,143.701 39.465,139.300 37.399 C 138.585 37.064,137.999 36.657,137.997 36.495 C 137.993 36.117,136.032 35.201,135.220 35.198 C 134.879 35.196,134.081 34.925,133.448 34.594 C 132.814 34.264,131.128 33.723,129.702 33.392 C 128.275 33.061,126.903 32.657,126.654 32.495 C 126.404 32.333,123.799 32.020,120.865 31.800 L 115.531 31.400 110.065 34.128 L 104.600 36.856 99.400 43.815 C 95.147 49.507,93.861 51.560,92.340 55.087 C 91.317 57.459,89.102 62.550,87.417 66.400 C 84.558 72.931,83.466 76.087,80.355 86.800 C 79.685 89.110,78.954 91.540,78.732 92.200 C 78.510 92.860,77.917 94.840,77.413 96.600 C 76.910 98.360,75.951 101.690,75.282 104.000 C 74.613 106.310,73.943 108.920,73.793 109.800 C 73.642 110.680,73.182 112.840,72.770 114.600 C 72.359 116.360,71.380 120.770,70.596 124.400 C 67.655 138.017,67.160 140.285,66.407 143.600 C 65.982 145.470,65.178 149.700,64.621 153.000 C 64.063 156.300,63.330 160.620,62.992 162.600 C 62.654 164.580,62.035 168.270,61.617 170.800 C 61.199 173.330,60.297 178.640,59.613 182.600 C 57.994 191.966,56.542 201.102,55.800 206.600 C 55.473 209.020,54.855 213.340,54.427 216.200 C 53.999 219.060,53.184 224.640,52.616 228.600 C 52.048 232.560,51.307 237.690,50.969 240.000 C 49.446 250.405,48.334 258.716,47.623 265.000 C 47.199 268.740,46.571 274.095,46.227 276.900 C 44.732 289.069,44.299 292.658,43.397 300.400 C 42.872 304.910,41.977 312.560,41.409 317.400 C 40.841 322.240,40.021 330.070,39.587 334.800 C 39.154 339.530,38.627 344.750,38.417 346.400 C 38.207 348.050,37.838 351.830,37.597 354.800 C 37.356 357.770,36.909 362.360,36.604 365.000 C 36.298 367.640,35.848 372.230,35.604 375.200 C 35.359 378.170,34.910 382.760,34.605 385.400 C 34.301 388.040,33.941 391.640,33.806 393.400 C 33.672 395.160,33.468 397.253,33.354 398.051 L 33.146 399.502 36.073 398.706 C 37.683 398.269,39.180 397.767,39.400 397.591 C 39.620 397.415,40.970 396.969,42.400 396.600 C 43.830 396.231,45.180 395.781,45.400 395.600 C 45.620 395.419,46.903 394.986,48.251 394.638 C 49.599 394.289,51.219 393.734,51.851 393.404 C 52.483 393.075,53.268 392.804,53.597 392.802 C 53.925 392.801,56.265 391.785,58.797 390.545 C 61.328 389.304,65.290 387.389,67.600 386.290 C 72.202 384.099,72.050 384.178,75.200 382.359 C 76.410 381.661,78.018 380.757,78.773 380.351 C 79.528 379.945,80.248 379.471,80.373 379.298 C 80.498 379.125,81.050 378.757,81.600 378.481 C 83.493 377.528,88.279 374.598,89.438 373.682 C 96.408 368.175,99.284 366.000,99.598 366.000 C 99.803 366.000,100.165 365.640,100.400 365.200 C 100.635 364.760,101.092 364.400,101.414 364.400 C 101.736 364.400,102.000 364.232,102.000 364.028 C 102.000 363.823,103.076 362.518,104.390 361.128 C 110.653 354.505,113.976 350.703,114.463 349.604 C 114.756 348.942,115.136 348.400,115.308 348.400 C 115.479 348.400,115.793 347.995,116.005 347.500 C 116.216 347.005,117.201 345.520,118.193 344.200 C 119.185 342.880,120.158 341.433,120.356 340.984 C 120.555 340.535,120.988 339.942,121.319 339.667 C 121.650 339.392,122.036 338.710,122.176 338.151 C 122.317 337.593,122.964 336.008,123.616 334.629 C 124.267 333.250,124.800 331.847,124.800 331.510 C 124.800 331.173,125.041 330.698,125.335 330.454 C 125.630 330.209,126.095 329.242,126.370 328.305 C 126.644 327.367,127.102 326.234,127.388 325.786 C 127.673 325.338,128.199 323.554,128.557 321.821 C 128.916 320.089,129.363 318.475,129.552 318.236 C 129.740 317.996,130.120 316.540,130.395 315.000 C 130.671 313.460,131.125 311.660,131.405 311.000 C 132.064 309.448,133.217 292.771,133.207 284.924 C 133.203 281.582,133.354 278.752,133.543 278.635 C 133.732 278.518,134.011 275.853,134.163 272.711 C 134.448 266.830,134.991 262.402,135.600 261.000 C 135.791 260.560,136.151 258.940,136.400 257.400 C 136.648 255.860,137.184 253.880,137.590 253.000 C 137.995 252.120,138.529 250.855,138.775 250.189 C 140.850 244.581,145.806 243.383,152.248 246.933 C 156.022 249.012,163.202 256.786,168.750 264.800 C 173.455 271.597,177.126 276.437,183.600 284.380 C 186.790 288.294,190.354 292.735,191.520 294.248 C 193.856 297.280,195.975 299.769,200.200 304.445 C 201.740 306.149,205.790 310.653,209.200 314.455 C 217.833 324.079,222.852 329.066,236.600 341.681 C 237.700 342.690,239.590 344.244,240.800 345.134 C 242.010 346.024,243.270 346.993,243.600 347.289 C 245.369 348.872,261.159 357.970,263.201 358.583 C 263.750 358.748,264.560 359.106,265.000 359.378 C 265.440 359.651,266.340 360.004,267.000 360.165 C 267.660 360.325,269.190 360.876,270.400 361.389 C 272.310 362.200,275.891 363.359,282.800 365.402 C 283.790 365.695,286.670 366.240,289.200 366.613 C 291.730 366.986,294.160 367.440,294.600 367.622 C 297.016 368.619,310.069 369.142,318.800 368.590 C 325.598 368.160,330.860 365.364,337.414 358.697 C 340.062 356.004,342.450 353.350,342.720 352.800 C 342.991 352.250,343.746 350.990,344.398 350.000 C 345.050 349.010,345.750 347.840,345.952 347.400 C 346.154 346.960,346.788 345.917,347.360 345.082 C 347.932 344.247,348.400 343.425,348.400 343.253 C 348.400 343.082,348.935 342.235,349.589 341.371 C 350.243 340.507,350.783 339.566,350.789 339.279 C 350.795 338.993,351.140 338.093,351.556 337.279 C 352.761 334.921,354.400 331.343,354.400 331.070 C 354.400 330.933,354.940 329.641,355.600 328.200 C 356.260 326.759,356.800 325.392,356.800 325.161 C 356.800 324.931,357.233 323.990,357.762 323.071 C 358.290 322.152,358.851 320.590,359.007 319.600 C 359.163 318.610,359.439 317.615,359.620 317.389 C 359.801 317.163,360.252 315.633,360.622 313.989 C 360.991 312.345,361.427 310.820,361.590 310.600 C 361.754 310.380,362.212 308.760,362.608 307.000 C 363.004 305.240,363.468 303.615,363.639 303.389 C 363.810 303.163,364.242 301.633,364.599 299.989 C 364.956 298.345,365.410 296.640,365.609 296.200 C 365.807 295.760,366.259 293.690,366.612 291.600 C 366.965 289.510,367.415 287.440,367.612 287.000 C 367.809 286.560,368.269 284.490,368.635 282.400 C 369.001 280.310,369.435 278.420,369.601 278.200 C 369.766 277.980,370.210 275.910,370.588 273.600 C 370.966 271.290,371.428 269.040,371.616 268.600 C 371.803 268.160,372.260 265.370,372.632 262.400 C 373.003 259.430,373.442 256.820,373.607 256.600 C 373.772 256.380,374.207 253.860,374.573 251.000 C 374.939 248.140,375.395 245.440,375.586 245.000 C 376.010 244.024,376.669 239.378,377.030 234.816 C 377.177 232.955,377.445 231.155,377.625 230.816 C 377.805 230.477,378.242 226.960,378.597 223.000 C 378.952 219.040,379.399 215.440,379.589 215.000 C 379.960 214.145,381.218 201.685,381.207 198.980 C 381.203 198.089,381.358 197.189,381.551 196.980 C 381.743 196.771,382.205 191.830,382.576 186.000 C 382.947 180.170,383.404 175.040,383.590 174.600 C 383.990 173.655,384.702 163.061,385.027 153.200 C 385.154 149.350,385.408 145.840,385.592 145.400 C 387.007 142.001,387.004 74.323,385.588 71.000 C 385.401 70.560,384.953 67.410,384.593 64.000 C 384.233 60.590,383.782 57.440,383.591 57.000 C 383.401 56.560,383.135 55.030,383.002 53.600 C 382.731 50.707,382.009 47.219,381.550 46.589 C 381.385 46.363,380.955 44.833,380.595 43.189 C 380.234 41.545,379.702 39.660,379.411 39.000 C 379.120 38.340,378.755 36.990,378.598 36.000 C 378.441 35.010,378.085 33.930,377.806 33.600 C 377.526 33.270,376.170 30.750,374.792 28.000 C 372.382 23.193,372.139 22.869,368.471 19.600 L 364.655 16.200 359.999 15.597 C 356.142 15.098,354.937 15.080,352.972 15.496 " stroke="none" fill="#040404" fill-rule="evenodd"></path><path id="path1" d="M0.000 200.000 L 0.000 400.000 16.308 400.000 L 32.615 400.000 33.306 394.100 C 33.687 390.855,34.275 384.960,34.614 381.000 C 34.952 377.040,35.306 373.530,35.399 373.200 C 35.493 372.870,35.941 368.280,36.396 363.000 C 36.850 357.720,37.300 353.130,37.396 352.800 C 37.491 352.470,37.941 347.880,38.396 342.600 C 38.850 337.320,39.298 332.730,39.391 332.400 C 39.484 332.070,39.848 328.560,40.200 324.600 C 40.553 320.640,41.010 316.410,41.216 315.200 C 41.422 313.990,41.959 309.490,42.408 305.200 C 42.856 300.910,43.306 297.130,43.405 296.800 C 43.505 296.470,43.953 292.690,44.401 288.400 C 44.849 284.110,45.296 280.377,45.393 280.104 C 45.491 279.832,45.851 276.862,46.193 273.504 C 46.535 270.147,47.075 265.510,47.393 263.200 C 47.710 260.890,48.164 257.200,48.402 255.000 C 48.639 252.800,49.088 249.650,49.399 248.000 C 49.709 246.350,50.155 243.290,50.389 241.200 C 50.624 239.110,51.070 235.960,51.381 234.200 C 51.692 232.440,52.147 229.290,52.391 227.200 C 52.636 225.110,52.999 222.576,53.199 221.568 C 53.399 220.561,53.935 216.830,54.390 213.278 C 54.845 209.726,55.298 206.590,55.397 206.310 C 55.496 206.029,55.857 203.550,56.199 200.800 C 56.541 198.050,57.078 194.540,57.392 193.000 C 57.915 190.429,58.291 188.239,60.408 175.400 C 62.182 164.647,62.828 160.866,63.216 158.959 C 63.444 157.837,63.976 154.777,64.397 152.159 C 65.159 147.424,66.002 143.278,68.377 132.600 C 71.140 120.175,71.685 117.684,72.223 115.000 C 73.127 110.494,74.419 105.226,75.410 102.000 C 75.917 100.350,76.904 97.020,77.605 94.600 C 78.305 92.180,79.207 89.120,79.609 87.800 C 80.011 86.480,80.815 83.780,81.394 81.800 C 83.661 74.054,84.571 71.575,87.414 65.400 C 87.717 64.740,88.622 62.670,89.423 60.800 C 90.225 58.930,91.196 56.680,91.581 55.800 C 91.965 54.920,92.611 53.421,93.015 52.468 C 93.420 51.515,96.134 47.570,99.046 43.702 L 104.342 36.668 109.871 33.889 C 115.500 31.060,119.575 30.229,120.980 31.623 C 121.189 31.830,122.421 32.000,123.718 32.000 C 125.908 32.000,129.806 32.810,131.200 33.556 C 131.530 33.732,132.774 34.109,133.963 34.393 C 135.153 34.678,136.721 35.290,137.447 35.755 C 141.021 38.042,142.342 38.800,142.752 38.800 C 142.998 38.800,143.200 38.979,143.200 39.199 C 143.200 39.418,143.736 39.823,144.392 40.099 C 145.635 40.621,153.854 48.512,155.330 50.600 C 156.325 52.007,156.218 51.865,158.780 55.200 C 159.879 56.630,161.522 59.285,162.431 61.100 C 163.340 62.915,164.200 64.401,164.342 64.401 C 164.484 64.402,164.947 65.257,165.371 66.301 C 165.794 67.346,166.254 68.290,166.391 68.400 C 166.756 68.691,168.000 71.445,168.000 71.960 C 168.000 72.202,168.152 72.400,168.337 72.400 C 168.522 72.400,168.897 73.165,169.171 74.100 C 169.445 75.035,169.893 76.160,170.167 76.600 C 170.441 77.040,171.010 78.390,171.432 79.600 C 171.854 80.810,172.408 82.022,172.665 82.294 C 172.921 82.566,173.332 83.724,173.577 84.867 C 173.822 86.010,174.166 87.138,174.342 87.373 C 174.517 87.608,175.003 89.240,175.420 91.000 C 175.838 92.760,176.288 94.290,176.421 94.400 C 176.553 94.510,176.983 95.950,177.375 97.600 C 177.767 99.250,178.220 100.780,178.381 101.000 C 178.541 101.220,179.000 103.380,179.401 105.800 C 179.802 108.220,180.249 110.290,180.395 110.400 C 180.541 110.510,180.984 112.490,181.380 114.800 C 181.775 117.110,182.230 119.180,182.390 119.400 C 182.550 119.620,182.987 121.780,183.360 124.200 C 183.734 126.620,184.201 128.960,184.397 129.400 C 184.593 129.840,185.045 132.090,185.400 134.400 C 185.755 136.710,186.204 138.960,186.396 139.400 C 186.589 139.840,187.057 142.090,187.435 144.400 C 187.814 146.710,188.250 148.780,188.404 149.000 C 188.558 149.220,189.009 151.335,189.407 153.700 C 189.804 156.065,190.280 158.000,190.465 158.000 C 190.649 158.000,190.800 158.303,190.800 158.674 C 190.800 159.679,191.988 164.424,192.584 165.800 C 192.870 166.460,193.326 168.215,193.597 169.700 C 193.869 171.185,194.217 172.400,194.372 172.400 C 194.527 172.400,194.886 173.615,195.171 175.100 C 195.455 176.585,195.946 178.338,196.261 178.995 C 196.576 179.653,197.119 181.453,197.468 182.995 C 197.817 184.538,198.215 185.890,198.354 186.000 C 198.493 186.110,198.944 187.550,199.357 189.200 C 199.770 190.850,200.220 192.290,200.357 192.400 C 200.494 192.510,200.942 193.950,201.352 195.600 C 201.762 197.250,202.237 198.780,202.406 199.000 C 202.575 199.220,203.031 200.570,203.420 202.000 C 203.808 203.430,204.255 204.780,204.414 205.000 C 204.573 205.220,205.013 206.480,205.391 207.800 C 205.770 209.120,206.208 210.290,206.365 210.400 C 206.522 210.510,206.970 211.635,207.362 212.899 C 207.754 214.164,208.221 215.289,208.400 215.400 C 208.579 215.511,209.046 216.636,209.438 217.901 C 209.830 219.165,210.262 220.290,210.398 220.400 C 210.534 220.510,210.880 221.230,211.166 222.000 C 212.156 224.667,217.903 236.538,219.589 239.400 C 220.237 240.500,221.089 242.030,221.483 242.800 C 221.878 243.570,222.343 244.306,222.519 244.435 C 222.826 244.662,223.794 246.308,224.852 248.400 C 225.130 248.950,225.952 250.234,226.679 251.254 C 227.405 252.273,228.000 253.226,228.000 253.370 C 228.000 253.515,228.184 253.851,228.408 254.117 C 228.633 254.383,229.576 255.770,230.505 257.200 C 231.434 258.630,232.420 259.944,232.697 260.120 C 232.974 260.296,233.200 260.697,233.200 261.011 C 233.200 261.325,233.650 261.876,234.200 262.237 C 234.750 262.597,235.203 263.096,235.206 263.346 C 235.216 264.209,239.204 268.325,241.498 269.840 C 242.764 270.677,244.038 271.595,244.329 271.881 C 245.480 273.011,251.650 272.557,253.429 271.211 C 254.293 270.557,255.134 270.017,255.297 270.011 C 255.989 269.985,257.648 268.134,259.025 265.851 C 259.838 264.503,260.948 262.735,261.491 261.921 C 262.707 260.102,267.343 248.229,268.646 243.600 C 271.863 232.168,273.361 226.269,274.384 221.000 C 274.812 218.800,275.716 214.300,276.394 211.000 C 277.073 207.700,277.898 202.930,278.227 200.400 C 278.557 197.870,279.088 194.360,279.406 192.600 C 280.307 187.623,281.552 178.499,282.408 170.600 C 282.837 166.640,283.282 162.950,283.395 162.400 C 283.509 161.850,283.877 158.890,284.213 155.821 C 284.549 152.753,285.171 148.433,285.595 146.221 C 286.020 144.010,286.834 139.680,287.404 136.600 C 288.884 128.611,290.985 117.941,292.406 111.200 C 293.078 108.010,293.897 104.050,294.225 102.400 C 294.553 100.750,295.197 98.230,295.656 96.800 C 296.115 95.370,296.910 92.850,297.423 91.200 C 300.052 82.748,300.582 81.107,301.814 77.600 C 303.067 74.032,305.376 67.803,307.300 62.800 C 309.122 58.062,316.130 44.726,318.321 41.827 C 319.575 40.169,321.500 37.605,322.600 36.130 C 324.454 33.643,327.242 30.532,332.200 25.418 C 333.990 23.572,336.305 22.092,343.577 18.146 C 344.554 17.616,346.534 16.915,347.977 16.588 C 349.419 16.261,350.960 15.823,351.400 15.616 C 353.720 14.520,360.327 14.575,361.437 15.700 C 361.600 15.865,362.445 16.000,363.314 16.000 C 364.731 16.000,365.258 16.331,368.400 19.200 C 370.328 20.960,372.062 22.401,372.253 22.401 C 372.444 22.402,372.947 23.257,373.371 24.301 C 373.794 25.346,374.249 26.290,374.382 26.400 C 374.514 26.510,374.972 27.410,375.400 28.400 C 375.828 29.390,376.278 30.290,376.400 30.400 C 376.522 30.510,376.959 31.365,377.372 32.300 C 377.784 33.235,378.274 34.000,378.461 34.000 C 378.647 34.000,378.800 34.303,378.800 34.674 C 378.800 35.667,379.984 40.412,380.578 41.800 C 380.861 42.460,381.326 44.170,381.613 45.600 C 381.900 47.030,382.292 48.305,382.485 48.434 C 382.677 48.563,383.130 51.263,383.491 54.434 C 383.853 57.605,384.261 60.290,384.399 60.400 C 384.914 60.812,386.018 73.203,386.009 78.467 C 386.003 82.417,386.135 83.978,386.488 84.096 C 387.173 84.324,387.221 135.019,386.537 136.439 C 386.251 137.033,385.827 143.341,385.426 152.973 C 385.069 161.538,384.626 168.738,384.443 168.973 C 384.259 169.208,383.779 174.395,383.377 180.500 C 382.974 186.605,382.525 191.600,382.379 191.600 C 382.233 191.600,381.992 193.805,381.843 196.500 C 381.457 203.484,380.804 210.067,380.404 211.000 C 380.216 211.440,379.768 215.040,379.409 219.000 C 379.051 222.960,378.600 226.560,378.407 227.000 C 378.215 227.440,377.768 230.939,377.415 234.775 C 377.062 238.612,376.622 241.942,376.437 242.175 C 376.253 242.409,375.784 245.120,375.395 248.200 C 375.007 251.280,374.553 253.980,374.386 254.200 C 374.219 254.420,373.757 257.030,373.359 260.000 C 372.960 262.970,372.492 265.460,372.317 265.533 C 372.143 265.607,372.000 266.160,372.000 266.763 C 372.000 268.451,370.820 275.317,370.400 276.074 C 370.062 276.682,369.870 277.606,368.959 283.000 C 368.811 283.880,368.556 284.780,368.394 285.000 C 368.232 285.220,367.779 287.290,367.388 289.600 C 366.997 291.910,366.540 293.980,366.374 294.200 C 366.208 294.420,365.954 295.320,365.809 296.200 C 365.370 298.879,364.666 301.777,364.350 302.211 C 364.185 302.437,363.748 303.967,363.378 305.611 C 363.009 307.255,362.575 308.780,362.414 309.000 C 362.254 309.220,361.812 310.750,361.433 312.400 C 361.054 314.050,360.505 315.940,360.213 316.600 C 359.922 317.260,359.552 318.610,359.392 319.600 C 359.232 320.590,358.775 322.030,358.376 322.800 C 357.407 324.671,355.800 328.271,355.162 330.000 C 354.878 330.770,354.544 331.490,354.419 331.600 C 354.295 331.710,353.850 332.790,353.429 334.000 C 353.009 335.210,352.444 336.560,352.174 337.000 C 351.904 337.440,351.549 338.250,351.384 338.800 C 351.220 339.350,350.661 340.357,350.142 341.038 C 349.624 341.719,349.199 342.439,349.198 342.638 C 349.196 342.837,348.387 344.170,347.400 345.600 C 346.413 347.030,345.604 348.352,345.602 348.538 C 345.601 348.724,345.217 349.414,344.749 350.072 C 344.281 350.729,343.600 351.879,343.236 352.628 C 342.459 354.225,332.917 364.000,332.135 364.000 C 331.841 364.000,331.599 364.135,331.599 364.300 C 331.598 364.465,330.743 364.947,329.699 365.371 C 328.654 365.794,327.710 366.249,327.600 366.382 C 327.490 366.514,326.590 366.972,325.600 367.400 C 324.610 367.828,323.710 368.290,323.600 368.428 C 322.844 369.372,298.652 369.428,298.042 368.487 C 297.909 368.281,296.450 367.990,294.800 367.839 C 291.011 367.493,287.236 366.874,286.200 366.430 C 285.760 366.241,283.870 365.780,282.000 365.405 C 280.130 365.030,278.420 364.590,278.200 364.428 C 277.980 364.265,276.540 363.804,275.000 363.402 C 273.460 363.001,272.110 362.562,272.000 362.428 C 271.890 362.294,270.900 361.885,269.800 361.520 C 266.397 360.391,262.224 358.759,262.007 358.473 C 261.893 358.323,260.180 357.390,258.200 356.400 C 256.220 355.410,254.510 354.496,254.400 354.369 C 254.290 354.241,253.660 353.863,253.000 353.527 C 252.340 353.191,250.630 352.247,249.200 351.428 C 246.918 350.122,245.879 349.410,242.200 346.632 C 239.418 344.532,237.209 342.769,236.328 341.948 C 235.769 341.426,233.457 339.290,231.190 337.200 C 225.051 331.540,214.603 321.063,211.244 317.200 C 209.619 315.330,207.025 312.450,205.481 310.800 C 197.919 302.720,195.178 299.561,190.389 293.400 C 188.337 290.760,185.257 286.961,183.544 284.958 C 180.280 281.139,172.014 270.230,168.600 265.233 C 167.500 263.623,165.096 260.482,163.259 258.253 C 155.376 248.692,151.264 245.601,145.996 245.280 L 143.391 245.121 141.314 247.317 C 140.172 248.525,139.110 250.027,138.955 250.656 C 138.800 251.285,138.452 252.160,138.181 252.600 C 137.910 253.040,137.466 254.390,137.195 255.600 C 136.924 256.810,136.555 258.160,136.376 258.600 C 135.817 259.972,134.800 266.985,134.800 269.470 C 134.800 270.773,134.627 272.013,134.416 272.224 C 134.205 272.435,133.932 276.296,133.810 280.804 C 133.496 292.361,132.742 304.789,132.340 305.037 C 132.153 305.153,132.000 306.272,132.001 307.524 C 132.002 309.771,131.059 314.793,130.402 316.044 C 130.215 316.398,129.744 318.198,129.353 320.044 C 128.963 321.890,128.527 323.490,128.385 323.600 C 128.242 323.710,128.015 324.368,127.881 325.061 C 127.746 325.755,127.099 327.465,126.444 328.861 C 125.788 330.258,125.131 331.895,124.983 332.500 C 124.834 333.105,124.572 333.600,124.400 333.600 C 124.228 333.600,123.966 334.095,123.817 334.700 C 123.319 336.737,120.977 341.159,120.100 341.720 C 119.825 341.896,119.600 342.241,119.600 342.488 C 119.600 342.734,118.788 344.030,117.794 345.368 C 116.801 346.706,115.340 348.790,114.547 350.000 C 113.754 351.210,111.867 353.464,110.353 355.009 C 108.839 356.555,107.600 357.973,107.600 358.162 C 107.600 358.350,106.340 359.742,104.800 361.255 C 103.260 362.767,102.000 364.145,102.000 364.316 C 102.000 364.487,101.415 364.969,100.700 365.387 C 99.985 365.805,97.926 367.374,96.124 368.874 C 94.322 370.373,92.663 371.600,92.438 371.600 C 92.213 371.600,91.835 371.960,91.600 372.400 C 91.365 372.840,90.977 373.200,90.739 373.200 C 90.501 373.200,89.694 373.737,88.945 374.394 C 88.197 375.051,87.139 375.701,86.593 375.838 C 86.047 375.975,85.600 376.245,85.600 376.438 C 85.600 376.631,85.015 377.064,84.300 377.399 C 83.585 377.735,81.830 378.735,80.400 379.620 C 78.970 380.506,77.305 381.443,76.700 381.703 C 76.095 381.963,75.600 382.314,75.600 382.482 C 75.600 382.651,75.015 383.058,74.300 383.387 C 73.585 383.715,72.730 384.151,72.400 384.354 C 71.593 384.852,63.849 388.490,61.600 389.428 C 60.610 389.840,59.710 390.278,59.600 390.400 C 59.490 390.522,58.590 390.972,57.600 391.400 C 56.610 391.828,55.710 392.300,55.600 392.449 C 55.490 392.598,54.320 393.030,53.000 393.409 C 51.680 393.787,50.420 394.227,50.200 394.386 C 49.980 394.545,48.630 394.992,47.200 395.380 C 45.770 395.769,44.420 396.219,44.200 396.381 C 43.980 396.543,42.900 396.909,41.800 397.194 C 40.700 397.479,39.260 397.947,38.600 398.233 C 37.940 398.520,36.500 399.022,35.400 399.349 C 33.623 399.878,53.806 399.947,216.700 399.972 L 400.000 400.000 400.000 200.000 L 400.000 0.000 200.000 0.000 L 0.000 0.000 0.000 200.000 " stroke="none" fill="#fbfbfb" fill-rule="evenodd"></path><path id="path2" d="M359.300 15.476 C 359.685 15.576,360.315 15.576,360.700 15.476 C 361.085 15.375,360.770 15.293,360.000 15.293 C 359.230 15.293,358.915 15.375,359.300 15.476 M327.375 30.500 L 326.200 31.800 327.500 30.625 C 328.215 29.979,328.800 29.394,328.800 29.325 C 328.800 29.016,328.470 29.288,327.375 30.500 M117.100 31.489 C 117.815 31.578,118.985 31.578,119.700 31.489 C 120.415 31.401,119.830 31.328,118.400 31.328 C 116.970 31.328,116.385 31.401,117.100 31.489 M384.514 62.200 C 384.517 63.300,384.595 63.703,384.687 63.095 C 384.779 62.486,384.777 61.586,384.682 61.095 C 384.587 60.603,384.511 61.100,384.514 62.200 M386.476 90.276 C 386.434 93.838,386.535 96.837,386.700 96.939 C 386.865 97.042,386.953 95.118,386.895 92.663 C 386.705 84.572,386.552 83.704,386.476 90.276 M180.400 111.576 C 180.400 112.223,180.542 112.841,180.716 112.948 C 180.890 113.056,180.961 112.527,180.873 111.772 C 180.676 110.091,180.400 109.977,180.400 111.576 M182.368 120.700 C 182.559 122.081,182.587 122.109,182.719 121.051 C 182.798 120.419,182.705 119.745,182.512 119.552 C 182.310 119.350,182.249 119.840,182.368 120.700 M386.398 132.282 C 386.289 134.747,386.342 136.621,386.515 136.447 C 386.688 136.273,386.777 134.256,386.712 131.965 L 386.596 127.800 386.398 132.282 M184.368 130.700 C 184.559 132.081,184.587 132.109,184.719 131.051 C 184.798 130.419,184.705 129.745,184.512 129.552 C 184.310 129.350,184.249 129.840,184.368 130.700 M186.368 140.700 C 186.559 142.081,186.587 142.109,186.719 141.051 C 186.798 140.419,186.705 139.745,186.512 139.552 C 186.310 139.350,186.249 139.840,186.368 140.700 M384.566 163.745 C 384.451 164.044,384.414 165.349,384.484 166.645 L 384.612 169.000 384.806 166.099 C 385.001 163.188,384.954 162.733,384.566 163.745 M282.893 166.400 C 282.893 167.170,282.975 167.485,283.076 167.100 C 283.176 166.715,283.176 166.085,283.076 165.700 C 282.975 165.315,282.893 165.630,282.893 166.400 M194.400 173.376 C 194.400 173.913,194.547 174.444,194.728 174.555 C 194.908 174.667,194.977 174.227,194.882 173.579 C 194.672 172.149,194.400 172.035,194.400 173.376 M382.534 188.800 C 382.534 190.450,382.605 191.125,382.691 190.300 C 382.778 189.475,382.778 188.125,382.691 187.300 C 382.605 186.475,382.534 187.150,382.534 188.800 M200.400 193.376 C 200.400 193.913,200.547 194.444,200.728 194.555 C 200.908 194.667,200.977 194.227,200.882 193.579 C 200.672 192.149,200.400 192.035,200.400 193.376 M380.561 207.358 C 380.443 207.665,380.408 208.610,380.483 209.458 C 380.610 210.887,380.634 210.846,380.810 208.900 C 381.004 206.756,380.941 206.367,380.561 207.358 M378.561 223.358 C 378.443 223.665,378.408 224.610,378.483 225.458 C 378.610 226.887,378.634 226.846,378.810 224.900 C 379.004 222.756,378.941 222.367,378.561 223.358 M376.620 239.700 C 376.262 240.853,376.137 242.362,376.414 242.192 C 376.577 242.090,376.785 241.376,376.875 240.604 C 377.039 239.202,376.913 238.755,376.620 239.700 M141.200 247.000 C 140.228 247.990,139.523 248.800,139.633 248.800 C 139.743 248.800,140.628 247.990,141.600 247.000 C 142.572 246.010,143.277 245.200,143.167 245.200 C 143.057 245.200,142.172 246.010,141.200 247.000 M374.617 251.300 C 374.287 252.346,374.157 254.350,374.430 254.181 C 374.587 254.084,374.784 253.284,374.868 252.403 C 375.021 250.806,374.917 250.350,374.617 251.300 M136.368 257.300 C 136.249 258.160,136.310 258.650,136.512 258.448 C 136.705 258.255,136.798 257.581,136.719 256.949 C 136.587 255.891,136.559 255.919,136.368 257.300 M372.501 264.200 C 372.505 265.080,372.587 265.393,372.683 264.895 C 372.779 264.398,372.775 263.678,372.675 263.295 C 372.575 262.913,372.496 263.320,372.501 264.200 M134.396 269.082 C 134.288 270.887,134.343 272.220,134.519 272.043 C 134.694 271.867,134.782 270.390,134.715 268.761 L 134.593 265.800 134.396 269.082 M370.620 273.700 C 370.262 274.853,370.137 276.362,370.414 276.192 C 370.577 276.090,370.785 275.376,370.875 274.604 C 371.039 273.202,370.913 272.755,370.620 273.700 M366.620 291.700 C 366.262 292.853,366.137 294.362,366.414 294.192 C 366.577 294.090,366.785 293.376,366.875 292.604 C 367.039 291.202,366.913 290.755,366.620 291.700 M132.566 299.745 C 132.451 300.044,132.414 301.349,132.484 302.645 L 132.612 305.000 132.806 302.099 C 133.001 299.188,132.954 298.733,132.566 299.745 M364.352 301.113 C 364.221 301.907,364.279 302.281,364.501 302.059 C 364.703 301.857,364.801 301.267,364.719 300.746 C 364.593 299.945,364.537 300.002,364.352 301.113 M199.600 304.525 C 199.600 304.594,200.185 305.179,200.900 305.825 L 202.200 307.000 201.025 305.700 C 199.930 304.488,199.600 304.216,199.600 304.525 M204.000 309.325 C 204.000 309.394,204.585 309.979,205.300 310.625 L 206.600 311.800 205.425 310.500 C 204.330 309.288,204.000 309.016,204.000 309.325 M130.352 315.113 C 130.221 315.907,130.279 316.281,130.501 316.059 C 130.703 315.857,130.801 315.267,130.719 314.746 C 130.593 313.945,130.537 314.002,130.352 315.113 M360.352 315.113 C 360.221 315.907,360.279 316.281,360.501 316.059 C 360.703 315.857,360.801 315.267,360.719 314.746 C 360.593 313.945,360.537 314.002,360.352 315.113 M128.554 321.777 C 128.432 322.094,128.403 322.679,128.489 323.077 C 128.587 323.528,128.724 323.312,128.854 322.500 C 129.071 321.138,128.930 320.796,128.554 321.777 M39.293 333.600 C 39.293 334.370,39.375 334.685,39.476 334.300 C 39.576 333.915,39.576 333.285,39.476 332.900 C 39.375 332.515,39.293 332.830,39.293 333.600 M38.893 336.800 C 38.893 337.570,38.975 337.885,39.076 337.500 C 39.176 337.115,39.176 336.485,39.076 336.100 C 38.975 335.715,38.893 336.030,38.893 336.800 M37.293 354.000 C 37.293 354.770,37.375 355.085,37.476 354.700 C 37.576 354.315,37.576 353.685,37.476 353.300 C 37.375 352.915,37.293 353.230,37.293 354.000 M338.212 357.946 L 333.425 363.000 337.939 358.600 C 341.600 355.031,343.826 352.557,343.114 352.846 C 343.051 352.872,340.846 355.167,338.212 357.946 M36.893 357.200 C 36.893 357.970,36.975 358.285,37.076 357.900 C 37.176 357.515,37.176 356.885,37.076 356.500 C 36.975 356.115,36.893 356.430,36.893 357.200 M286.400 366.555 C 286.400 366.640,286.930 366.787,287.579 366.882 C 288.227 366.977,288.667 366.908,288.555 366.728 C 288.357 366.407,286.400 366.250,286.400 366.555 M298.700 368.682 C 299.195 368.778,300.005 368.778,300.500 368.682 C 300.995 368.587,300.590 368.509,299.600 368.509 C 298.610 368.509,298.205 368.587,298.700 368.682 M319.300 368.691 C 320.125 368.778,321.475 368.778,322.300 368.691 C 323.125 368.605,322.450 368.534,320.800 368.534 C 319.150 368.534,318.475 368.605,319.300 368.691 M35.293 374.400 C 35.293 375.170,35.375 375.485,35.476 375.100 C 35.576 374.715,35.576 374.085,35.476 373.700 C 35.375 373.315,35.293 373.630,35.293 374.400 M33.293 394.800 C 33.293 395.570,33.375 395.885,33.476 395.500 C 33.576 395.115,33.576 394.485,33.476 394.100 C 33.375 393.715,33.293 394.030,33.293 394.800 M32.893 397.600 C 32.893 398.370,32.975 398.685,33.076 398.300 C 33.176 397.915,33.176 397.285,33.076 396.900 C 32.975 396.515,32.893 396.830,32.893 397.600 " stroke="none" fill="#a2a2a2" fill-rule="evenodd"></path><path id="path3" d="M355.600 14.958 C 355.600 15.045,356.305 15.183,357.166 15.265 C 358.028 15.348,358.647 15.276,358.543 15.107 C 358.353 14.800,355.600 14.660,355.600 14.958 M382.909 51.600 C 382.909 52.590,382.987 52.995,383.082 52.500 C 383.178 52.005,383.178 51.195,383.082 50.700 C 382.987 50.205,382.909 50.610,382.909 51.600 M384.909 65.600 C 384.909 66.590,384.987 66.995,385.082 66.500 C 385.178 66.005,385.178 65.195,385.082 64.700 C 384.987 64.205,384.909 64.610,384.909 65.600 M386.982 112.600 C 386.982 121.180,387.035 124.633,387.100 120.274 C 387.164 115.914,387.164 108.894,387.099 104.674 C 387.035 100.453,386.982 104.020,386.982 112.600 M178.752 104.487 C 178.937 105.598,178.993 105.655,179.119 104.854 C 179.201 104.333,179.103 103.743,178.901 103.541 C 178.679 103.319,178.621 103.693,178.752 104.487 M182.893 123.200 C 182.893 123.970,182.975 124.285,183.076 123.900 C 183.176 123.515,183.176 122.885,183.076 122.500 C 182.975 122.115,182.893 122.430,182.893 123.200 M184.893 133.200 C 184.893 133.970,184.975 134.285,185.076 133.900 C 185.176 133.515,185.176 132.885,185.076 132.500 C 184.975 132.115,184.893 132.430,184.893 133.200 M186.893 143.200 C 186.893 143.970,186.975 144.285,187.076 143.900 C 187.176 143.515,187.176 142.885,187.076 142.500 C 186.975 142.115,186.893 142.430,186.893 143.200 M384.950 159.000 C 384.951 161.420,385.016 162.358,385.096 161.085 C 385.176 159.812,385.175 157.832,385.094 156.685 C 385.014 155.538,384.949 156.580,384.950 159.000 M382.934 183.200 C 382.934 184.850,383.005 185.525,383.091 184.700 C 383.178 183.875,383.178 182.525,383.091 181.700 C 383.005 180.875,382.934 181.550,382.934 183.200 M380.914 205.000 C 380.917 206.100,380.995 206.503,381.087 205.895 C 381.179 205.286,381.177 204.386,381.082 203.895 C 380.987 203.403,380.911 203.900,380.914 205.000 M378.914 221.000 C 378.917 222.100,378.995 222.503,379.087 221.895 C 379.179 221.286,379.177 220.386,379.082 219.895 C 378.987 219.403,378.911 219.900,378.914 221.000 M376.920 237.200 C 376.920 238.410,376.995 238.905,377.087 238.300 C 377.178 237.695,377.178 236.705,377.087 236.100 C 376.995 235.495,376.920 235.990,376.920 237.200 M144.307 245.090 C 145.026 245.179,146.106 245.177,146.707 245.086 C 147.308 244.995,146.720 244.922,145.400 244.924 C 144.080 244.926,143.588 245.001,144.307 245.090 M374.893 249.600 C 374.893 250.370,374.975 250.685,375.076 250.300 C 375.176 249.915,375.176 249.285,375.076 248.900 C 374.975 248.515,374.893 248.830,374.893 249.600 M372.901 261.000 C 372.905 261.880,372.987 262.193,373.083 261.695 C 373.179 261.198,373.175 260.478,373.075 260.095 C 372.975 259.713,372.896 260.120,372.901 261.000 M134.893 264.800 C 134.893 265.570,134.975 265.885,135.076 265.500 C 135.176 265.115,135.176 264.485,135.076 264.100 C 134.975 263.715,134.893 264.030,134.893 264.800 M132.928 296.800 C 132.928 298.230,133.001 298.815,133.089 298.100 C 133.178 297.385,133.178 296.215,133.089 295.500 C 133.001 294.785,132.928 295.370,132.928 296.800 M301.551 368.913 C 301.724 369.085,304.101 369.174,306.833 369.111 L 311.800 368.997 306.519 368.798 C 303.614 368.689,301.379 368.741,301.551 368.913 M313.891 369.089 C 314.601 369.177,315.861 369.179,316.691 369.092 C 317.521 369.005,316.940 368.933,315.400 368.931 C 313.860 368.929,313.181 369.000,313.891 369.089 " stroke="none" fill="#848484" fill-rule="evenodd"></path><path id="path4" d="M331.600 26.200 C 330.628 27.190,329.923 28.000,330.033 28.000 C 330.143 28.000,331.028 27.190,332.000 26.200 C 332.972 25.210,333.677 24.400,333.567 24.400 C 333.457 24.400,332.572 25.210,331.600 26.200 M383.190 55.119 L 383.383 57.000 383.519 55.447 C 383.593 54.593,383.507 53.747,383.326 53.566 C 383.145 53.385,383.084 54.084,383.190 55.119 M385.190 69.119 L 385.383 71.000 385.519 69.447 C 385.593 68.593,385.507 67.747,385.326 67.566 C 385.145 67.385,385.084 68.084,385.190 69.119 M181.152 116.087 C 181.337 117.198,181.393 117.255,181.519 116.454 C 181.601 115.933,181.503 115.343,181.301 115.141 C 181.079 114.919,181.021 115.293,181.152 116.087 M183.293 125.600 C 183.293 126.370,183.375 126.685,183.476 126.300 C 183.576 125.915,183.576 125.285,183.476 124.900 C 183.375 124.515,183.293 124.830,183.293 125.600 M185.293 135.600 C 185.293 136.370,185.375 136.685,185.476 136.300 C 185.576 135.915,185.576 135.285,185.476 134.900 C 185.375 134.515,185.293 134.830,185.293 135.600 M187.200 145.376 C 187.200 145.913,187.347 146.444,187.528 146.555 C 187.708 146.667,187.777 146.227,187.682 145.579 C 187.472 144.149,187.200 144.035,187.200 145.376 M385.400 145.700 C 385.101 146.556,384.984 154.779,385.275 154.482 C 385.533 154.219,385.933 145.197,385.687 145.199 C 385.626 145.200,385.496 145.425,385.400 145.700 M189.152 154.487 C 189.337 155.598,189.393 155.655,189.519 154.854 C 189.601 154.333,189.503 153.743,189.301 153.541 C 189.079 153.319,189.021 153.693,189.152 154.487 M383.195 177.482 C 383.088 179.067,383.144 180.219,383.321 180.041 C 383.497 179.864,383.585 178.567,383.516 177.159 L 383.391 174.600 383.195 177.482 M381.196 200.082 C 381.088 201.777,381.144 203.019,381.320 202.842 C 381.495 202.665,381.584 201.279,381.516 199.760 L 381.392 197.000 381.196 200.082 M379.193 217.081 C 379.087 218.225,379.147 219.015,379.326 218.835 C 379.505 218.656,379.591 217.719,379.518 216.754 L 379.385 215.000 379.193 217.081 M377.193 233.081 C 377.087 234.225,377.147 235.015,377.326 234.835 C 377.505 234.656,377.591 233.719,377.518 232.754 L 377.385 231.000 377.193 233.081 M375.180 246.690 C 375.071 247.619,375.133 248.227,375.320 248.040 C 375.506 247.854,375.596 247.094,375.519 246.351 C 375.383 245.033,375.375 245.042,375.180 246.690 M229.200 256.000 C 229.670 256.660,230.144 257.200,230.254 257.200 C 230.364 257.200,230.070 256.660,229.600 256.000 C 229.130 255.340,228.656 254.800,228.546 254.800 C 228.436 254.800,228.730 255.340,229.200 256.000 M373.301 258.200 C 373.305 259.080,373.387 259.393,373.483 258.895 C 373.579 258.398,373.575 257.678,373.475 257.295 C 373.375 256.913,373.296 257.320,373.301 258.200 M135.293 262.400 C 135.293 263.170,135.375 263.485,135.476 263.100 C 135.576 262.715,135.576 262.085,135.476 261.700 C 135.375 261.315,135.293 261.630,135.293 262.400 M46.893 269.600 C 46.893 270.370,46.975 270.685,47.076 270.300 C 47.176 269.915,47.176 269.285,47.076 268.900 C 46.975 268.515,46.893 268.830,46.893 269.600 M371.301 270.200 C 371.305 271.080,371.387 271.393,371.483 270.895 C 371.579 270.398,371.575 269.678,371.475 269.295 C 371.375 268.913,371.296 269.320,371.301 270.200 M246.500 272.694 C 247.545 272.776,249.255 272.776,250.300 272.694 C 251.345 272.612,250.490 272.544,248.400 272.544 C 246.310 272.544,245.455 272.612,246.500 272.694 M369.152 279.513 C 369.021 280.307,369.079 280.681,369.301 280.459 C 369.503 280.257,369.601 279.667,369.519 279.146 C 369.393 278.345,369.337 278.402,369.152 279.513 M133.199 286.481 C 133.090 290.815,133.139 294.222,133.309 294.052 C 133.479 293.881,133.569 290.335,133.508 286.171 L 133.398 278.600 133.199 286.481 M367.293 288.400 C 367.293 289.170,367.375 289.485,367.476 289.100 C 367.576 288.715,367.576 288.085,367.476 287.700 C 367.375 287.315,367.293 287.630,367.293 288.400 M365.152 297.513 C 365.021 298.307,365.079 298.681,365.301 298.459 C 365.503 298.257,365.601 297.667,365.519 297.146 C 365.393 296.345,365.337 296.402,365.152 297.513 M363.354 303.777 C 363.232 304.094,363.203 304.679,363.289 305.077 C 363.387 305.528,363.524 305.312,363.654 304.500 C 363.871 303.138,363.730 302.796,363.354 303.777 M42.493 306.400 C 42.493 307.170,42.575 307.485,42.676 307.100 C 42.776 306.715,42.776 306.085,42.676 305.700 C 42.575 305.315,42.493 305.630,42.493 306.400 M204.800 309.800 C 205.546 310.570,206.247 311.200,206.357 311.200 C 206.467 311.200,205.946 310.570,205.200 309.800 C 204.454 309.030,203.753 308.400,203.643 308.400 C 203.533 308.400,204.054 309.030,204.800 309.800 M359.354 317.777 C 359.232 318.094,359.203 318.679,359.289 319.077 C 359.387 319.528,359.524 319.312,359.654 318.500 C 359.871 317.138,359.730 316.796,359.354 317.777 M225.600 331.800 C 226.346 332.570,227.047 333.200,227.157 333.200 C 227.267 333.200,226.746 332.570,226.000 331.800 C 225.254 331.030,224.553 330.400,224.443 330.400 C 224.333 330.400,224.854 331.030,225.600 331.800 M230.400 336.125 C 230.400 336.194,230.985 336.779,231.700 337.425 L 233.000 338.600 231.825 337.300 C 230.730 336.088,230.400 335.816,230.400 336.125 M38.893 340.000 C 38.893 340.770,38.975 341.085,39.076 340.700 C 39.176 340.315,39.176 339.685,39.076 339.300 C 38.975 338.915,38.893 339.230,38.893 340.000 M236.600 342.000 C 237.459 342.880,238.252 343.600,238.362 343.600 C 238.472 343.600,237.859 342.880,237.000 342.000 C 236.141 341.120,235.348 340.400,235.238 340.400 C 235.128 340.400,235.741 341.120,236.600 342.000 M38.493 343.600 C 38.493 344.370,38.575 344.685,38.676 344.300 C 38.776 343.915,38.776 343.285,38.676 342.900 C 38.575 342.515,38.493 342.830,38.493 343.600 M109.965 355.100 C 108.528 356.585,107.101 358.160,106.795 358.600 C 106.138 359.545,106.185 359.499,109.988 355.500 C 111.609 353.795,112.855 352.400,112.757 352.400 C 112.659 352.400,111.403 353.615,109.965 355.100 M36.893 360.400 C 36.893 361.170,36.975 361.485,37.076 361.100 C 37.176 360.715,37.176 360.085,37.076 359.700 C 36.975 359.315,36.893 359.630,36.893 360.400 M36.493 364.000 C 36.493 364.770,36.575 365.085,36.676 364.700 C 36.776 364.315,36.776 363.685,36.676 363.300 C 36.575 362.915,36.493 363.230,36.493 364.000 M291.110 367.249 C 291.270 367.397,292.160 367.586,293.090 367.669 C 294.019 367.751,294.649 367.698,294.490 367.551 C 294.330 367.403,293.440 367.214,292.510 367.131 C 291.581 367.049,290.951 367.102,291.110 367.249 M34.893 380.800 C 34.893 381.570,34.975 381.885,35.076 381.500 C 35.176 381.115,35.176 380.485,35.076 380.100 C 34.975 379.715,34.893 380.030,34.893 380.800 M34.493 384.400 C 34.493 385.170,34.575 385.485,34.676 385.100 C 34.776 384.715,34.776 384.085,34.676 383.700 C 34.575 383.315,34.493 383.630,34.493 384.400 " stroke="none" fill="#747474" fill-rule="evenodd"></path></g></svg>