<svg id="svg" version="1.1" xmlns="http://www.w3.org/2000/svg" xmlns:xlink="http://www.w3.org/1999/xlink" width="400" height="400" viewBox="0, 0, 400,400"><g id="svgg"><path id="path0" d="M0.000 200.000 L 0.000 400.000 90.700 399.991 C 193.285 399.981,182.251 400.374,177.200 396.912 C 173.638 394.470,168.216 390.639,168.000 390.411 C 167.890 390.295,166.900 389.583,165.800 388.829 C 164.700 388.074,162.270 386.379,160.400 385.062 C 158.530 383.744,155.819 381.841,154.375 380.833 C 151.612 378.903,150.945 378.398,142.538 371.880 C 139.644 369.636,135.980 366.810,134.397 365.600 C 129.888 362.153,122.057 355.849,119.200 353.365 C 105.835 341.746,100.883 337.338,95.201 332.003 C 85.572 322.963,78.984 316.312,75.386 312.000 C 73.642 309.910,70.758 306.553,68.978 304.541 C 64.569 299.557,53.279 283.668,50.754 278.892 C 44.493 267.050,43.133 264.328,42.403 262.172 C 41.961 260.867,41.427 259.440,41.215 259.000 C 39.854 256.164,37.936 250.399,37.591 248.107 C 35.818 236.324,35.646 228.514,36.804 212.367 C 37.468 203.110,40.647 185.119,44.150 170.800 C 44.715 168.490,45.463 165.430,45.813 164.000 C 46.563 160.927,51.483 146.141,53.466 141.000 C 56.539 133.035,56.896 132.135,57.633 130.500 C 58.945 127.591,59.865 125.522,61.414 122.000 C 62.579 119.349,66.866 110.805,69.644 105.600 C 72.348 100.530,79.036 88.479,79.710 87.461 C 80.200 86.721,81.950 84.009,83.600 81.434 C 93.246 66.379,107.371 50.390,119.000 41.364 C 121.420 39.486,123.760 37.653,124.200 37.291 C 126.012 35.801,136.105 29.132,138.527 27.825 C 144.887 24.391,148.446 22.659,151.800 21.365 C 153.780 20.602,156.210 19.634,157.200 19.214 C 158.190 18.794,160.620 17.976,162.600 17.396 C 164.580 16.815,167.280 15.998,168.600 15.580 C 171.274 14.733,174.673 13.974,181.800 12.632 C 184.440 12.135,186.870 11.621,187.200 11.489 C 188.235 11.076,197.163 10.000,199.555 10.000 C 200.812 10.000,202.021 9.819,202.242 9.598 C 203.256 8.584,234.396 8.503,236.533 9.508 C 237.010 9.733,240.265 10.222,243.766 10.596 C 247.267 10.969,250.417 11.424,250.766 11.605 C 251.115 11.786,253.380 12.235,255.800 12.602 C 258.220 12.969,260.380 13.408,260.600 13.577 C 260.820 13.747,262.620 14.210,264.600 14.607 C 266.580 15.004,268.402 15.483,268.649 15.671 C 268.895 15.859,270.065 16.298,271.249 16.647 C 272.432 16.996,273.580 17.417,273.800 17.583 C 274.020 17.749,275.093 18.103,276.185 18.369 C 277.277 18.636,279.127 19.292,280.297 19.827 C 281.467 20.362,282.535 20.800,282.672 20.800 C 282.808 20.800,283.928 21.272,285.160 21.850 C 286.392 22.427,288.210 23.264,289.200 23.709 C 290.190 24.155,291.450 24.769,292.000 25.074 C 292.550 25.379,293.900 26.076,295.000 26.621 C 299.256 28.733,303.014 30.911,303.320 31.443 C 303.496 31.750,303.832 32.000,304.066 32.000 C 304.301 32.000,305.351 32.630,306.400 33.400 C 307.449 34.170,308.508 34.800,308.754 34.800 C 308.999 34.800,309.200 34.972,309.200 35.181 C 309.200 35.391,309.825 35.859,310.589 36.221 C 311.933 36.859,316.473 40.753,320.617 44.820 C 321.726 45.909,322.766 46.800,322.927 46.800 C 323.379 46.800,333.200 56.688,333.200 57.142 C 333.200 57.362,333.650 57.896,334.200 58.329 C 334.750 58.761,335.200 59.245,335.200 59.404 C 335.200 59.563,336.280 60.911,337.600 62.400 C 338.920 63.889,340.000 65.212,340.000 65.340 C 340.000 65.468,340.609 66.183,341.354 66.928 C 342.099 67.673,342.892 68.624,343.115 69.041 C 343.339 69.458,344.434 70.970,345.549 72.400 C 346.664 73.830,347.846 75.360,348.176 75.800 C 350.992 79.552,352.000 81.052,352.000 81.489 C 352.000 81.770,352.186 82.000,352.413 82.000 C 352.639 82.000,352.940 82.315,353.080 82.700 C 353.220 83.085,353.814 84.120,354.400 85.000 C 354.986 85.880,355.580 86.915,355.720 87.300 C 355.860 87.685,356.148 88.000,356.360 88.000 C 356.573 88.000,356.869 88.405,357.019 88.900 C 357.170 89.395,357.752 90.413,358.314 91.162 C 358.876 91.912,360.982 95.782,362.994 99.762 C 365.006 103.743,366.848 107.360,367.088 107.800 C 367.487 108.530,369.047 111.794,373.205 120.600 C 375.890 126.285,377.090 128.968,377.631 130.500 C 377.922 131.325,378.305 132.000,378.480 132.000 C 378.656 132.000,378.800 132.284,378.800 132.631 C 378.800 132.978,379.417 134.553,380.171 136.131 C 380.925 137.709,381.665 139.675,381.815 140.500 C 381.966 141.325,382.214 142.000,382.367 142.000 C 382.521 142.000,382.980 143.305,383.390 144.900 C 383.799 146.495,384.243 147.890,384.378 148.000 C 384.711 148.273,386.000 152.511,386.000 153.335 C 386.000 153.701,386.150 154.000,386.333 154.000 C 386.516 154.000,387.001 155.395,387.411 157.100 C 387.820 158.805,388.281 160.380,388.435 160.600 C 388.588 160.820,389.031 162.170,389.420 163.600 C 389.808 165.030,390.252 166.380,390.407 166.600 C 390.562 166.820,390.995 168.710,391.369 170.800 C 391.744 172.890,392.192 174.870,392.365 175.200 C 392.538 175.530,393.013 177.600,393.420 179.800 C 393.827 182.000,394.280 183.890,394.426 184.000 C 394.572 184.110,395.014 186.360,395.407 189.000 C 395.800 191.640,396.286 193.908,396.487 194.040 C 396.688 194.172,397.123 197.772,397.454 202.040 C 397.784 206.308,398.211 210.160,398.404 210.600 C 399.692 213.550,399.691 252.880,398.402 254.600 C 398.237 254.820,397.783 257.250,397.393 260.000 C 397.002 262.750,396.529 265.171,396.342 265.380 C 396.154 265.589,396.000 266.281,396.000 266.918 C 396.000 268.146,394.995 272.176,394.428 273.222 C 394.243 273.564,393.769 275.184,393.376 276.822 C 392.983 278.460,392.541 279.890,392.394 280.000 C 392.246 280.110,392.017 280.760,391.884 281.443 C 391.751 282.127,391.093 283.887,390.421 285.353 C 389.750 286.820,389.200 288.273,389.200 288.581 C 389.200 288.890,388.958 289.385,388.662 289.681 C 388.367 289.976,387.804 291.204,387.411 292.409 C 387.018 293.614,386.477 294.870,386.208 295.200 C 385.940 295.530,384.514 298.230,383.039 301.200 C 380.363 306.592,379.166 308.868,378.411 310.000 C 378.191 310.330,377.472 311.410,376.813 312.400 C 376.154 313.390,375.611 314.348,375.607 314.528 C 375.603 314.708,375.060 315.641,374.400 316.600 C 373.740 317.559,373.200 318.502,373.200 318.695 C 373.200 318.888,372.765 319.575,372.234 320.223 C 367.654 325.802,364.875 329.273,364.208 330.245 C 362.773 332.337,341.281 354.000,340.640 354.000 C 340.462 354.000,339.961 354.450,339.529 355.000 C 339.096 355.550,338.555 356.000,338.327 356.000 C 338.099 356.000,337.527 356.350,337.056 356.777 C 335.034 358.611,330.837 362.000,330.587 362.000 C 330.438 362.000,329.961 362.450,329.529 363.000 C 329.096 363.550,328.479 364.000,328.158 364.000 C 327.837 364.000,327.471 364.270,327.345 364.600 C 327.218 364.930,326.933 365.200,326.711 365.200 C 326.383 365.200,323.749 366.971,321.800 368.502 C 321.580 368.675,320.230 369.578,318.800 370.508 C 317.370 371.439,316.141 372.333,316.068 372.495 C 315.996 372.658,315.186 373.160,314.268 373.612 C 313.351 374.063,311.700 374.958,310.600 375.600 C 309.500 376.242,307.835 377.143,306.900 377.603 C 305.965 378.062,305.200 378.609,305.200 378.819 C 305.200 379.028,304.954 379.200,304.654 379.200 C 304.354 379.200,303.679 379.531,303.154 379.935 C 302.629 380.339,301.255 381.004,300.100 381.414 C 298.945 381.823,298.000 382.302,298.000 382.479 C 298.000 382.656,297.743 382.800,297.428 382.800 C 296.919 382.800,295.002 383.608,289.800 386.016 C 288.920 386.424,287.300 387.049,286.200 387.406 C 285.100 387.763,283.467 388.388,282.571 388.796 C 281.676 389.203,280.281 389.661,279.471 389.813 C 278.662 389.965,278.000 390.232,278.000 390.407 C 278.000 390.582,276.965 391.030,275.700 391.403 C 274.435 391.775,273.040 392.232,272.600 392.419 C 272.160 392.605,270.450 393.056,268.800 393.421 C 267.150 393.787,265.260 394.315,264.600 394.596 C 263.940 394.876,262.140 395.327,260.600 395.598 C 259.060 395.869,257.440 396.241,257.000 396.426 C 256.560 396.610,253.860 397.050,251.000 397.404 C 248.140 397.758,245.440 398.205,245.000 398.398 C 241.521 399.919,202.535 400.009,199.200 398.503 C 198.210 398.056,196.770 397.560,196.000 397.401 C 187.197 395.578,183.615 388.753,187.182 380.600 C 187.567 379.720,187.987 378.701,188.115 378.335 C 188.243 377.968,189.384 376.168,190.650 374.335 C 191.916 372.501,193.447 370.280,194.051 369.400 C 196.733 365.496,214.117 349.652,222.797 343.200 C 223.537 342.650,224.606 341.832,225.171 341.383 C 225.737 340.933,226.650 340.266,227.200 339.899 C 227.750 339.533,229.820 337.958,231.800 336.399 C 233.780 334.840,236.030 333.143,236.800 332.629 C 237.570 332.115,240.360 329.849,243.000 327.594 C 245.640 325.339,248.678 322.753,249.751 321.847 C 250.823 320.941,252.533 319.485,253.551 318.611 C 258.512 314.350,269.869 302.149,273.023 297.691 C 274.849 295.111,277.092 291.942,278.007 290.649 C 278.923 289.356,279.912 287.646,280.206 286.849 C 280.499 286.052,281.397 283.870,282.200 282.000 C 284.518 276.603,284.663 276.065,285.153 271.000 C 285.409 268.360,285.697 265.461,285.793 264.559 C 285.890 263.656,285.637 261.496,285.232 259.759 C 284.826 258.021,284.266 255.347,283.986 253.815 C 282.323 244.710,273.395 232.589,261.200 222.881 C 258.010 220.341,254.650 217.664,253.733 216.932 C 252.816 216.199,251.965 215.600,251.843 215.600 C 251.720 215.600,249.009 214.344,245.818 212.809 C 237.016 208.574,237.836 208.800,231.251 208.801 C 226.220 208.801,225.204 208.909,224.000 209.574 C 223.230 209.999,222.150 210.576,221.600 210.856 C 221.050 211.136,219.849 211.867,218.930 212.481 C 218.012 213.095,216.797 213.773,216.230 213.988 C 215.664 214.204,215.200 214.565,215.200 214.790 C 215.200 215.016,214.944 215.200,214.631 215.200 C 213.967 215.200,211.200 218.306,211.200 219.052 C 211.200 219.332,210.975 219.704,210.700 219.880 C 210.425 220.056,209.483 221.280,208.606 222.600 C 207.729 223.920,206.784 225.144,206.506 225.320 C 206.228 225.496,206.000 225.815,206.000 226.030 C 206.000 226.244,205.370 227.335,204.600 228.455 C 203.830 229.574,203.200 230.790,203.200 231.156 C 203.200 231.522,202.961 232.177,202.670 232.611 C 202.378 233.045,201.821 234.435,201.432 235.700 C 201.044 236.965,200.582 238.000,200.407 238.000 C 200.232 238.000,199.967 238.651,199.818 239.447 C 199.668 240.243,199.129 241.818,198.620 242.947 C 198.111 244.076,197.561 245.450,197.399 246.000 C 197.237 246.550,196.786 247.720,196.397 248.600 C 196.008 249.480,195.469 251.550,195.199 253.200 C 194.929 254.850,194.575 256.380,194.412 256.600 C 194.249 256.820,193.787 258.980,193.386 261.400 C 192.984 263.820,192.533 265.890,192.382 266.000 C 192.232 266.110,191.787 268.090,191.393 270.400 C 190.999 272.710,190.534 274.787,190.359 275.015 C 190.185 275.244,189.753 278.214,189.400 281.615 C 189.047 285.017,188.603 288.160,188.413 288.600 C 188.224 289.040,187.774 292.370,187.414 296.000 C 187.054 299.630,186.602 302.960,186.411 303.400 C 185.989 304.367,185.297 311.893,184.976 319.000 C 184.846 321.860,184.587 324.560,184.401 325.000 C 184.214 325.440,183.765 331.650,183.403 338.800 C 183.041 345.950,182.578 352.113,182.373 352.495 C 182.155 352.901,182.000 362.896,182.000 376.595 L 182.000 400.000 291.000 400.000 L 400.000 400.000 400.000 200.000 L 400.000 0.000 200.000 0.000 L 0.000 0.000 0.000 200.000 " stroke="none" fill="#fbfbfb" fill-rule="evenodd"></path><path id="path1" d="M216.800 9.080 C 209.683 9.246,196.966 10.061,196.200 10.399 C 195.760 10.593,193.060 11.042,190.200 11.396 C 187.340 11.750,184.640 12.199,184.200 12.395 C 183.760 12.591,181.600 13.046,179.400 13.406 C 177.200 13.765,175.040 14.205,174.600 14.383 C 174.160 14.561,172.360 15.019,170.600 15.402 C 168.840 15.784,167.220 16.231,167.000 16.394 C 166.780 16.557,165.250 17.010,163.600 17.400 C 161.950 17.790,160.420 18.241,160.200 18.403 C 159.980 18.564,159.080 18.920,158.200 19.195 C 157.320 19.470,156.060 19.931,155.400 20.219 C 154.740 20.508,152.940 21.233,151.400 21.830 C 143.978 24.709,132.172 31.784,122.482 39.161 C 119.997 41.052,117.567 42.870,117.082 43.200 C 116.597 43.530,115.375 44.610,114.368 45.600 C 113.360 46.590,110.930 48.934,108.968 50.808 C 107.005 52.682,104.050 55.725,102.400 57.569 C 100.750 59.413,98.887 61.479,98.260 62.161 C 97.633 62.842,96.103 64.750,94.860 66.400 C 93.617 68.050,92.460 69.580,92.289 69.800 C 89.676 73.162,87.816 75.784,84.946 80.150 C 83.048 83.038,81.009 86.120,80.416 87.000 C 79.282 88.681,77.653 91.516,75.704 95.200 C 75.064 96.410,74.090 98.210,73.539 99.200 C 69.339 106.750,63.167 118.980,60.622 124.800 C 59.611 127.110,58.614 129.302,58.407 129.671 C 57.950 130.483,55.200 137.481,55.200 137.831 C 55.200 137.967,54.937 138.646,54.616 139.340 C 53.464 141.828,48.611 155.874,46.856 161.800 C 45.816 165.312,43.626 174.588,42.229 181.400 C 41.642 184.260,40.903 187.770,40.587 189.200 C 40.270 190.630,39.730 193.780,39.386 196.200 C 39.043 198.620,38.583 201.140,38.366 201.800 C 37.803 203.507,35.988 232.579,36.306 234.800 C 36.353 235.130,36.769 238.640,37.229 242.600 C 37.689 246.560,38.301 250.340,38.588 251.000 C 38.876 251.660,39.241 252.650,39.400 253.200 C 39.559 253.750,39.929 254.740,40.222 255.400 C 40.900 256.929,43.415 263.506,43.788 264.727 C 43.944 265.236,44.748 266.856,45.575 268.327 C 46.402 269.797,48.209 273.160,49.590 275.800 C 52.792 281.917,55.549 286.347,58.305 289.800 C 58.481 290.020,60.228 292.450,62.188 295.200 C 65.232 299.471,68.062 302.990,72.164 307.600 C 72.653 308.150,75.255 311.161,77.945 314.290 C 80.636 317.420,83.183 320.223,83.607 320.520 C 84.031 320.817,86.508 323.116,89.112 325.630 C 100.602 336.722,106.026 341.637,116.147 350.129 C 117.936 351.630,119.580 353.070,119.800 353.329 C 120.843 354.557,125.252 358.091,138.400 368.238 C 139.830 369.342,142.260 371.219,143.800 372.410 C 145.340 373.602,148.490 375.977,150.800 377.689 C 153.110 379.401,155.360 381.074,155.800 381.407 C 156.240 381.740,158.220 383.121,160.200 384.476 C 162.180 385.831,164.790 387.670,166.000 388.563 C 167.210 389.456,169.100 390.809,170.200 391.570 C 171.300 392.331,172.920 393.459,173.800 394.078 C 174.680 394.696,176.750 396.131,178.400 397.267 C 180.050 398.403,181.532 399.527,181.694 399.766 C 181.856 400.005,181.986 390.390,181.984 378.400 C 181.980 357.781,182.850 332.580,183.585 332.000 C 183.724 331.890,184.146 326.440,184.523 319.889 C 184.899 313.337,185.373 307.667,185.576 307.289 C 185.779 306.910,186.236 303.630,186.593 300.000 C 186.949 296.370,187.398 293.040,187.589 292.600 C 187.780 292.160,188.242 288.650,188.616 284.800 C 188.990 280.950,189.425 277.620,189.584 277.400 C 189.743 277.180,190.200 275.020,190.601 272.600 C 191.002 270.180,191.461 268.110,191.622 268.000 C 191.784 267.890,192.214 265.917,192.580 263.615 C 192.945 261.313,193.388 259.243,193.564 259.015 C 193.740 258.787,194.209 256.665,194.607 254.300 C 195.004 251.935,195.460 250.000,195.620 250.000 C 195.780 250.000,196.033 249.349,196.182 248.553 C 196.332 247.757,196.869 246.182,197.377 245.053 C 197.885 243.924,198.526 242.280,198.802 241.400 C 199.078 240.520,199.437 239.620,199.600 239.400 C 199.763 239.180,200.122 238.280,200.399 237.400 C 200.677 236.520,201.143 235.350,201.437 234.800 C 201.730 234.250,202.254 232.918,202.601 231.840 C 202.948 230.761,203.584 229.384,204.016 228.778 C 204.447 228.172,204.800 227.479,204.800 227.238 C 204.800 226.997,204.986 226.800,205.213 226.800 C 205.439 226.800,205.742 226.485,205.885 226.100 C 206.028 225.715,207.157 224.046,208.394 222.392 C 209.631 220.738,210.763 219.073,210.909 218.692 C 211.055 218.311,211.361 218.000,211.587 218.000 C 211.814 218.000,212.000 217.764,212.000 217.475 C 212.000 217.186,212.495 216.483,213.100 215.913 C 214.140 214.932,215.123 214.309,218.400 212.551 C 219.170 212.138,219.944 211.575,220.120 211.300 C 220.296 211.025,220.656 210.797,220.920 210.793 C 221.184 210.789,222.192 210.249,223.160 209.593 L 224.920 208.400 231.121 208.400 C 237.113 208.400,237.405 208.439,239.761 209.546 C 241.103 210.177,242.605 210.819,243.100 210.973 C 243.595 211.128,244.000 211.422,244.000 211.627 C 244.000 211.832,244.208 212.000,244.463 212.000 C 246.259 212.000,253.740 216.283,257.685 219.569 C 257.968 219.805,260.169 221.574,262.575 223.499 C 266.890 226.951,267.915 227.949,274.333 234.937 C 279.942 241.045,284.151 250.382,285.654 260.053 C 286.339 264.458,285.609 275.147,284.449 277.693 C 283.982 278.718,283.600 279.658,283.600 279.782 C 283.600 279.907,283.256 280.772,282.835 281.704 C 280.056 287.859,278.713 290.452,277.350 292.296 C 276.497 293.448,274.810 295.863,273.600 297.663 C 270.417 302.396,258.596 314.883,252.448 320.007 C 251.264 320.993,250.073 322.014,249.800 322.276 C 249.080 322.968,238.344 331.926,237.400 332.622 C 236.960 332.947,235.610 333.980,234.400 334.918 C 233.190 335.857,229.707 338.502,226.660 340.796 C 211.021 352.572,197.602 364.856,192.889 371.711 C 189.097 377.226,188.876 377.615,187.174 381.765 L 185.650 385.482 186.258 388.420 C 186.813 391.104,187.025 391.497,188.721 392.978 C 189.742 393.870,190.860 394.878,191.207 395.219 C 191.554 395.559,193.089 396.173,194.619 396.582 C 196.148 396.992,197.490 397.449,197.600 397.598 C 199.081 399.599,246.679 399.631,247.993 397.632 C 248.107 397.458,250.810 396.989,254.000 396.589 C 257.190 396.189,259.890 395.741,260.000 395.594 C 260.110 395.447,261.640 394.999,263.400 394.599 C 265.160 394.199,266.780 393.740,267.000 393.579 C 267.220 393.419,268.840 392.987,270.600 392.620 C 272.360 392.254,274.250 391.717,274.800 391.428 C 275.350 391.140,276.520 390.677,277.400 390.399 C 278.280 390.122,279.180 389.763,279.400 389.601 C 279.620 389.439,280.790 389.001,282.000 388.629 C 283.210 388.257,284.650 387.721,285.200 387.437 C 285.750 387.153,287.055 386.691,288.100 386.409 C 289.145 386.127,290.000 385.753,290.000 385.579 C 290.000 385.405,290.675 385.049,291.500 384.788 C 293.131 384.271,296.325 382.858,299.259 381.353 C 300.281 380.829,301.347 380.400,301.627 380.400 C 301.908 380.400,302.421 380.153,302.769 379.851 C 303.312 379.379,304.443 378.723,309.000 376.237 C 309.440 375.996,309.890 375.696,310.000 375.569 C 310.110 375.441,310.740 375.056,311.400 374.713 C 314.586 373.055,315.573 372.453,317.775 370.823 C 319.082 369.855,320.670 368.805,321.305 368.488 C 321.939 368.171,322.555 367.662,322.672 367.356 C 322.790 367.050,323.067 366.800,323.289 366.800 C 323.511 366.800,324.551 366.170,325.600 365.400 C 326.649 364.630,327.638 364.000,327.797 364.000 C 327.957 364.000,328.473 363.650,328.944 363.223 C 330.966 361.389,335.163 358.000,335.413 358.000 C 335.562 358.000,336.039 357.550,336.471 357.000 C 336.904 356.450,337.506 356.000,337.809 356.000 C 338.112 356.000,338.504 355.764,338.680 355.476 C 338.856 355.188,339.450 354.646,340.000 354.272 C 341.482 353.264,362.800 331.882,362.800 331.403 C 362.800 331.177,363.160 330.768,363.600 330.493 C 364.040 330.218,364.400 329.776,364.400 329.511 C 364.400 329.245,364.760 328.662,365.200 328.214 C 365.640 327.766,367.080 326.050,368.400 324.400 C 369.719 322.750,371.084 321.101,371.433 320.735 C 372.051 320.086,372.591 319.186,374.452 315.700 C 374.951 314.765,375.504 314.000,375.680 314.000 C 375.856 314.000,376.000 313.816,376.000 313.592 C 376.000 313.368,376.488 312.423,377.085 311.492 C 378.680 309.004,379.218 308.010,382.594 301.304 C 384.282 297.951,385.809 295.118,385.987 295.008 C 386.165 294.898,386.435 294.317,386.585 293.717 C 386.833 292.728,387.288 291.649,389.584 286.600 C 389.984 285.720,390.525 284.325,390.787 283.500 C 391.048 282.675,391.395 282.000,391.558 282.000 C 391.720 282.000,392.088 280.785,392.374 279.300 C 392.660 277.815,393.134 276.060,393.427 275.400 C 393.719 274.740,394.248 273.057,394.601 271.661 C 394.953 270.264,395.398 268.824,395.589 268.461 C 395.780 268.097,396.246 265.460,396.626 262.600 C 397.006 259.740,397.493 257.173,397.710 256.897 C 399.332 254.823,399.270 208.282,397.643 206.234 C 397.454 205.995,397.180 203.910,397.034 201.600 C 396.734 196.830,395.973 191.600,395.580 191.600 C 395.435 191.600,394.991 189.350,394.592 186.600 C 394.194 183.850,393.748 181.600,393.601 181.600 C 393.454 181.600,393.004 179.755,392.601 177.500 C 392.198 175.245,391.732 173.218,391.565 172.996 C 391.398 172.774,390.960 170.974,390.591 168.996 C 390.223 167.018,389.778 165.220,389.603 165.000 C 389.429 164.780,388.977 163.430,388.599 162.000 C 388.221 160.570,387.683 158.860,387.404 158.200 C 387.124 157.540,386.666 156.010,386.387 154.800 C 386.107 153.590,385.658 152.240,385.389 151.800 C 385.120 151.360,384.684 150.102,384.420 149.005 C 384.157 147.908,383.790 146.828,383.606 146.605 C 383.422 146.382,382.969 145.030,382.600 143.600 C 382.231 142.170,381.789 140.820,381.619 140.600 C 381.449 140.380,380.991 139.165,380.600 137.900 C 380.210 136.635,379.771 135.600,379.626 135.600 C 379.480 135.600,379.136 134.925,378.862 134.100 C 378.588 133.275,377.919 131.657,377.375 130.504 C 376.831 129.351,375.956 127.461,375.431 126.304 C 374.906 125.147,373.662 122.490,372.665 120.400 C 371.669 118.310,370.626 115.925,370.347 115.100 C 370.068 114.275,369.735 113.600,369.608 113.600 C 369.480 113.600,369.027 112.700,368.600 111.600 C 368.173 110.500,367.684 109.600,367.512 109.600 C 367.340 109.600,367.200 109.345,367.200 109.032 C 367.200 108.496,366.043 106.032,365.589 105.600 C 365.473 105.490,365.028 104.590,364.600 103.600 C 364.172 102.610,363.722 101.710,363.600 101.600 C 363.478 101.490,363.028 100.590,362.600 99.600 C 362.172 98.610,361.722 97.710,361.600 97.600 C 361.478 97.490,361.028 96.590,360.600 95.600 C 360.173 94.610,359.593 93.656,359.311 93.480 C 359.030 93.304,358.800 92.961,358.800 92.718 C 358.800 92.475,358.350 91.686,357.800 90.965 C 357.251 90.244,356.625 89.192,356.410 88.627 C 356.196 88.062,355.835 87.600,355.610 87.600 C 355.384 87.600,355.200 87.416,355.200 87.191 C 355.200 86.634,352.615 82.493,350.300 79.343 C 349.255 77.921,348.400 76.593,348.400 76.393 C 348.400 76.192,348.040 75.835,347.600 75.600 C 347.160 75.365,346.800 74.989,346.800 74.765 C 346.800 74.541,345.810 73.117,344.600 71.600 C 343.390 70.083,342.400 68.725,342.400 68.582 C 342.400 68.438,341.905 67.819,341.300 67.204 C 340.695 66.590,338.490 64.000,336.400 61.448 C 330.596 54.362,313.860 38.135,311.384 37.194 C 310.843 36.988,310.400 36.635,310.400 36.410 C 310.400 36.184,310.199 36.000,309.954 36.000 C 309.708 36.000,308.649 35.370,307.600 34.600 C 306.551 33.830,305.486 33.200,305.234 33.200 C 304.981 33.200,304.671 32.930,304.545 32.600 C 304.418 32.270,304.086 32.000,303.806 32.000 C 303.527 32.000,303.077 31.734,302.808 31.410 C 302.538 31.085,301.211 30.264,299.859 29.586 C 298.507 28.907,296.500 27.862,295.400 27.263 C 294.300 26.664,292.860 25.884,292.200 25.530 C 290.961 24.864,288.194 23.591,285.400 22.403 C 284.520 22.028,282.810 21.248,281.600 20.669 C 280.390 20.091,278.590 19.416,277.600 19.170 C 276.610 18.923,275.620 18.575,275.400 18.397 C 275.180 18.218,273.852 17.775,272.449 17.412 C 271.046 17.049,269.516 16.510,269.049 16.216 C 268.582 15.921,266.895 15.453,265.300 15.176 C 263.705 14.899,262.400 14.551,262.400 14.403 C 262.400 14.255,260.555 13.815,258.300 13.426 C 256.045 13.037,253.840 12.568,253.400 12.384 C 252.482 12.002,243.592 10.800,241.677 10.800 C 240.975 10.800,240.400 10.648,240.400 10.461 C 240.400 9.782,225.082 8.886,216.800 9.080 " stroke="none" fill="#040404" fill-rule="evenodd"></path><path id="path2" d="M205.200 9.201 C 203.550 9.342,206.070 9.374,210.800 9.273 C 215.530 9.172,219.475 9.024,219.567 8.944 C 219.831 8.716,208.514 8.917,205.200 9.201 M228.276 9.193 C 232.497 9.374,236.187 9.657,236.476 9.820 C 236.878 10.048,236.893 10.001,236.537 9.616 C 236.205 9.256,233.888 9.079,228.337 8.989 L 220.600 8.863 228.276 9.193 M190.000 11.028 L 187.000 11.553 189.800 11.342 C 191.340 11.225,192.771 10.966,192.980 10.765 C 193.189 10.564,193.279 10.423,193.180 10.452 C 193.081 10.480,191.650 10.740,190.000 11.028 M245.600 11.052 C 248.249 11.580,250.813 11.854,250.523 11.578 C 250.345 11.409,248.940 11.176,247.400 11.061 C 245.860 10.946,245.050 10.942,245.600 11.052 M178.200 13.200 C 177.130 13.472,177.108 13.505,178.000 13.505 C 178.550 13.505,179.540 13.368,180.200 13.200 C 181.270 12.928,181.292 12.895,180.400 12.895 C 179.850 12.895,178.860 13.032,178.200 13.200 M257.000 12.992 C 257.882 13.395,260.874 13.915,260.548 13.610 C 260.357 13.430,259.390 13.176,258.400 13.046 C 257.410 12.916,256.780 12.892,257.000 12.992 M265.000 14.992 C 265.882 15.395,268.874 15.915,268.548 15.610 C 268.357 15.430,267.390 15.176,266.400 15.046 C 265.410 14.916,264.780 14.892,265.000 14.992 M271.009 16.761 C 271.224 16.971,271.940 17.271,272.600 17.428 C 274.148 17.795,273.800 17.454,272.009 16.849 C 271.244 16.590,270.794 16.550,271.009 16.761 M277.009 18.761 C 277.224 18.971,277.940 19.271,278.600 19.428 C 280.148 19.795,279.800 19.454,278.009 18.849 C 277.244 18.590,276.794 18.550,277.009 18.761 M282.400 20.934 C 282.400 21.037,282.981 21.324,283.691 21.572 C 284.401 21.819,284.806 21.857,284.591 21.656 C 284.135 21.229,282.400 20.658,282.400 20.934 M304.400 32.146 C 304.400 32.256,304.940 32.730,305.600 33.200 C 306.260 33.670,306.800 33.964,306.800 33.854 C 306.800 33.744,306.260 33.270,305.600 32.800 C 304.940 32.330,304.400 32.036,304.400 32.146 M310.400 36.146 C 310.400 36.256,310.940 36.730,311.600 37.200 C 312.260 37.670,312.800 37.964,312.800 37.854 C 312.800 37.744,312.260 37.270,311.600 36.800 C 310.940 36.330,310.400 36.036,310.400 36.146 M113.385 46.100 L 111.400 48.200 113.500 46.215 C 114.655 45.123,115.600 44.178,115.600 44.115 C 115.600 43.817,115.229 44.149,113.385 46.100 M106.388 52.700 L 103.800 55.400 106.500 52.812 C 107.985 51.388,109.200 50.173,109.200 50.112 C 109.200 49.817,108.793 50.192,106.388 52.700 M97.775 62.100 L 96.600 63.400 97.900 62.225 C 99.112 61.130,99.384 60.800,99.075 60.800 C 99.006 60.800,98.421 61.385,97.775 62.100 M346.399 73.900 C 346.922 74.615,347.413 75.200,347.489 75.200 C 347.793 75.200,346.801 73.700,346.145 73.167 C 345.713 72.816,345.810 73.096,346.399 73.900 M370.618 115.700 C 370.768 116.195,371.055 116.776,371.256 116.991 C 371.457 117.206,371.419 116.801,371.172 116.091 C 370.665 114.638,370.197 114.308,370.618 115.700 M376.467 128.420 C 376.701 129.092,376.967 129.567,377.057 129.476 C 377.256 129.278,376.501 127.200,376.231 127.200 C 376.127 127.200,376.233 127.749,376.467 128.420 M378.406 132.633 C 378.409 133.055,378.595 133.670,378.818 134.000 C 379.115 134.438,379.152 134.276,378.956 133.400 C 378.627 131.929,378.398 131.610,378.406 132.633 M380.618 137.700 C 380.768 138.195,381.055 138.776,381.256 138.991 C 381.457 139.206,381.419 138.801,381.172 138.091 C 380.665 136.638,380.197 136.308,380.618 137.700 M382.604 143.188 C 382.720 143.951,382.997 144.757,383.218 144.978 C 383.490 145.250,383.497 144.991,383.242 144.191 C 382.558 142.045,382.389 141.779,382.604 143.188 M384.604 149.188 C 384.720 149.951,384.997 150.757,385.218 150.978 C 385.490 151.250,385.497 150.991,385.242 150.191 C 384.558 148.045,384.389 147.779,384.604 149.188 M386.604 155.188 C 386.720 155.951,386.997 156.757,387.218 156.978 C 387.490 157.250,387.497 156.991,387.242 156.191 C 386.558 154.045,386.389 153.779,386.604 155.188 M388.456 161.200 C 388.456 161.530,388.611 162.160,388.800 162.600 C 389.017 163.104,389.144 163.178,389.144 162.800 C 389.144 162.470,388.989 161.840,388.800 161.400 C 388.583 160.896,388.456 160.822,388.456 161.200 M390.649 168.600 C 390.768 169.700,391.017 170.757,391.201 170.948 C 391.386 171.140,391.387 170.600,391.203 169.748 C 390.592 166.915,390.431 166.580,390.649 168.600 M392.444 176.852 C 392.988 179.347,393.230 179.701,392.954 177.600 C 392.824 176.610,392.570 175.643,392.390 175.452 C 392.211 175.260,392.235 175.890,392.444 176.852 M394.651 186.200 C 394.771 187.520,395.011 188.749,395.185 188.931 C 395.359 189.113,395.338 188.303,395.138 187.131 C 394.582 183.876,394.412 183.551,394.651 186.200 M396.659 197.241 C 396.793 199.089,397.022 200.733,397.167 200.896 C 397.313 201.059,397.296 199.640,397.130 197.743 C 396.963 195.846,396.735 194.201,396.622 194.088 C 396.509 193.975,396.525 195.394,396.659 197.241 M37.301 207.000 C 37.305 207.880,37.387 208.193,37.483 207.695 C 37.579 207.198,37.575 206.478,37.475 206.095 C 37.375 205.713,37.296 206.120,37.301 207.000 M224.936 208.706 C 224.681 208.868,227.325 208.943,230.812 208.873 C 234.940 208.790,237.473 208.902,238.075 209.195 C 238.959 209.624,238.965 209.616,238.224 209.022 C 237.393 208.357,225.918 208.084,224.936 208.706 M36.920 211.200 C 36.920 212.410,36.995 212.905,37.087 212.300 C 37.178 211.695,37.178 210.705,37.087 210.100 C 36.995 209.495,36.920 209.990,36.920 211.200 M221.800 210.427 C 221.140 210.850,220.805 211.197,221.056 211.198 C 221.306 211.199,221.936 210.846,222.456 210.413 C 223.645 209.423,223.359 209.429,221.800 210.427 M398.516 213.800 C 398.506 215.560,398.626 218.890,398.782 221.200 C 399.060 225.319,399.066 225.338,399.084 222.200 C 399.094 220.440,398.974 217.110,398.818 214.800 C 398.540 210.681,398.534 210.662,398.516 213.800 M36.501 217.000 C 36.505 217.880,36.587 218.193,36.683 217.695 C 36.779 217.198,36.775 216.478,36.675 216.095 C 36.575 215.713,36.496 216.120,36.501 217.000 M36.124 226.600 C 36.126 227.920,36.201 228.412,36.290 227.693 C 36.379 226.974,36.377 225.894,36.286 225.293 C 36.195 224.692,36.122 225.280,36.124 226.600 M204.800 227.600 C 204.330 228.260,204.036 228.800,204.146 228.800 C 204.256 228.800,204.730 228.260,205.200 227.600 C 205.670 226.940,205.964 226.400,205.854 226.400 C 205.744 226.400,205.270 226.940,204.800 227.600 M267.200 227.800 C 267.946 228.570,268.647 229.200,268.757 229.200 C 268.867 229.200,268.346 228.570,267.600 227.800 C 266.854 227.030,266.153 226.400,266.043 226.400 C 265.933 226.400,266.454 227.030,267.200 227.800 M270.000 230.925 C 270.000 230.994,270.585 231.579,271.300 232.225 L 272.600 233.400 271.425 232.100 C 270.330 230.888,270.000 230.616,270.000 230.925 M274.000 235.325 C 274.000 235.394,274.585 235.979,275.300 236.625 L 276.600 237.800 275.425 236.500 C 274.330 235.288,274.000 235.016,274.000 235.325 M200.846 236.067 C 200.821 236.434,200.696 237.064,200.570 237.467 C 200.352 238.162,200.363 238.163,200.797 237.487 C 201.048 237.096,201.173 236.466,201.073 236.087 C 200.911 235.468,200.888 235.466,200.846 236.067 M198.788 241.622 C 198.546 242.074,198.407 242.622,198.480 242.839 C 198.552 243.057,198.818 242.687,199.071 242.017 C 199.597 240.625,199.439 240.405,198.788 241.622 M398.559 247.782 C 398.362 251.622,398.318 254.637,398.462 254.482 C 398.763 254.158,399.394 240.800,399.108 240.800 C 399.004 240.800,398.757 243.942,398.559 247.782 M196.467 247.580 C 196.233 248.251,196.127 248.800,196.231 248.800 C 196.501 248.800,197.256 246.722,197.057 246.524 C 196.967 246.433,196.701 246.908,196.467 247.580 M193.064 261.100 C 192.963 261.265,192.780 262.480,192.657 263.800 C 192.412 266.445,192.582 266.121,193.132 262.900 C 193.476 260.884,193.460 260.452,193.064 261.100 M396.493 264.000 C 396.493 264.770,396.575 265.085,396.676 264.700 C 396.776 264.315,396.776 263.685,396.676 263.300 C 396.575 262.915,396.493 263.230,396.493 264.000 M285.293 270.400 C 285.293 271.170,285.375 271.485,285.476 271.100 C 285.576 270.715,285.576 270.085,285.476 269.700 C 285.375 269.315,285.293 269.630,285.293 270.400 M394.600 271.600 C 394.448 272.291,394.407 272.941,394.509 273.042 C 394.611 273.144,394.809 272.653,394.950 271.950 C 395.091 271.247,395.131 270.598,395.041 270.508 C 394.950 270.417,394.752 270.909,394.600 271.600 M284.867 274.067 C 284.830 274.874,284.696 275.864,284.570 276.267 C 284.353 276.957,284.366 276.959,284.794 276.293 C 285.043 275.904,285.177 274.914,285.091 274.093 L 284.934 272.600 284.867 274.067 M189.152 280.900 C 188.930 281.368,188.259 288.696,188.458 288.482 C 188.714 288.205,189.541 280.800,189.315 280.800 C 189.252 280.800,189.179 280.845,189.152 280.900 M390.788 283.622 C 390.546 284.074,390.407 284.622,390.480 284.839 C 390.552 285.057,390.818 284.687,391.071 284.017 C 391.597 282.625,391.439 282.405,390.788 283.622 M388.846 288.067 C 388.821 288.434,388.696 289.064,388.570 289.467 C 388.352 290.162,388.363 290.163,388.797 289.487 C 389.048 289.096,389.173 288.466,389.073 288.087 C 388.911 287.468,388.888 287.466,388.846 288.067 M186.622 299.622 C 186.466 301.410,186.423 302.956,186.526 303.059 C 186.629 303.162,186.842 301.785,187.000 300.000 C 187.158 298.215,187.201 296.668,187.097 296.563 C 186.992 296.458,186.778 297.835,186.622 299.622 M262.989 309.300 L 260.200 312.200 263.100 309.411 C 265.794 306.820,266.183 306.400,265.889 306.400 C 265.828 306.400,264.523 307.705,262.989 309.300 M184.600 318.000 C 184.439 321.542,184.395 324.528,184.502 324.635 C 184.609 324.742,184.828 321.931,184.988 318.388 C 185.149 314.845,185.193 311.860,185.087 311.753 C 184.980 311.647,184.761 314.458,184.600 318.000 M84.800 322.200 C 85.995 323.410,87.063 324.400,87.173 324.400 C 87.283 324.400,86.395 323.410,85.200 322.200 C 84.005 320.990,82.937 320.000,82.827 320.000 C 82.717 320.000,83.605 320.990,84.800 322.200 M371.144 321.100 C 369.993 322.489,369.506 323.200,369.704 323.200 C 369.814 323.200,370.386 322.570,370.973 321.800 C 372.063 320.371,372.195 319.832,371.144 321.100 M92.800 329.800 C 93.995 331.010,95.063 332.000,95.173 332.000 C 95.283 332.000,94.395 331.010,93.200 329.800 C 92.005 328.590,90.937 327.600,90.827 327.600 C 90.717 327.600,91.605 328.590,92.800 329.800 M362.575 331.868 C 361.959 332.676,361.659 333.211,361.909 333.056 C 362.421 332.740,364.153 330.400,363.875 330.400 C 363.776 330.400,363.191 331.061,362.575 331.868 M99.183 335.700 C 100.164 336.745,101.019 337.600,101.083 337.600 C 101.384 337.600,101.066 337.241,99.300 335.583 L 97.400 333.800 99.183 335.700 M182.559 345.782 C 182.362 349.622,182.318 352.637,182.462 352.482 C 182.763 352.158,183.394 338.800,183.108 338.800 C 183.004 338.800,182.757 341.942,182.559 345.782 M200.595 362.500 L 194.200 369.000 200.700 362.605 C 204.275 359.087,207.200 356.162,207.200 356.105 C 207.200 355.819,206.537 356.461,200.595 362.500 M323.400 367.035 L 322.200 368.066 323.500 367.206 C 324.215 366.733,324.800 366.268,324.800 366.173 C 324.800 365.873,324.631 365.978,323.400 367.035 M301.400 380.614 C 300.395 381.098,300.363 381.153,301.200 380.951 C 301.750 380.819,302.371 380.550,302.580 380.355 C 303.098 379.871,302.814 379.933,301.400 380.614 M291.376 385.022 C 290.612 385.634,290.613 385.638,291.400 385.276 C 291.840 385.074,292.470 384.808,292.800 384.686 C 293.318 384.493,293.315 384.459,292.776 384.432 C 292.434 384.414,291.804 384.680,291.376 385.022 M287.000 386.800 C 286.496 387.017,286.422 387.144,286.800 387.144 C 287.130 387.144,287.760 386.989,288.200 386.800 C 288.704 386.583,288.778 386.456,288.400 386.456 C 288.070 386.456,287.440 386.611,287.000 386.800 M281.376 389.022 C 280.612 389.634,280.613 389.638,281.400 389.276 C 281.840 389.074,282.470 388.808,282.800 388.686 C 283.318 388.493,283.315 388.459,282.776 388.432 C 282.434 388.414,281.804 388.680,281.376 389.022 M276.400 390.800 C 275.576 391.064,275.541 391.126,276.200 391.154 C 276.640 391.173,277.270 391.013,277.600 390.800 C 278.301 390.347,277.814 390.347,276.400 390.800 M262.600 394.800 C 261.511 395.077,261.493 395.107,262.400 395.125 C 262.950 395.135,263.760 394.989,264.200 394.800 C 265.186 394.376,264.266 394.376,262.600 394.800 M193.800 396.800 C 194.240 396.989,194.870 397.144,195.200 397.144 C 195.578 397.144,195.504 397.017,195.000 396.800 C 194.560 396.611,193.930 396.456,193.600 396.456 C 193.222 396.456,193.296 396.583,193.800 396.800 M252.800 396.693 C 252.030 396.783,251.255 396.999,251.077 397.172 C 250.796 397.445,252.553 397.270,256.000 396.680 C 257.312 396.456,254.731 396.466,252.800 396.693 M199.431 398.764 C 199.546 398.880,201.333 399.070,203.401 399.187 C 205.469 399.304,207.035 399.284,206.881 399.142 C 206.547 398.836,199.126 398.460,199.431 398.764 M237.200 398.800 L 234.600 399.062 236.800 399.079 C 238.010 399.088,240.350 398.968,242.000 398.812 L 245.000 398.529 242.400 398.534 C 240.970 398.536,238.630 398.656,237.200 398.800 " stroke="none" fill="#848484" fill-rule="evenodd"></path><path id="path3" d="" stroke="none" fill="#747474" fill-rule="evenodd"></path><path id="path4" d="M194.800 10.293 C 192.831 10.524,192.475 11.052,194.413 10.867 C 195.289 10.784,196.105 10.555,196.226 10.358 C 196.348 10.161,196.392 10.029,196.324 10.064 C 196.256 10.099,195.570 10.202,194.800 10.293 M240.800 10.625 C 242.203 10.935,244.718 10.990,244.543 10.707 C 244.438 10.538,243.418 10.421,242.276 10.446 C 241.134 10.472,240.470 10.552,240.800 10.625 M183.000 12.400 L 181.800 12.705 182.876 12.753 C 183.468 12.779,184.064 12.620,184.200 12.400 C 184.336 12.180,184.392 12.021,184.324 12.047 C 184.256 12.073,183.660 12.232,183.000 12.400 M253.431 12.450 C 253.521 12.596,254.301 12.783,255.164 12.865 C 256.027 12.947,256.659 12.895,256.569 12.750 C 256.479 12.604,255.699 12.417,254.836 12.335 C 253.973 12.253,253.341 12.305,253.431 12.450 M173.400 14.400 L 172.200 14.705 173.276 14.753 C 173.868 14.779,174.464 14.620,174.600 14.400 C 174.736 14.180,174.792 14.021,174.724 14.047 C 174.656 14.073,174.060 14.232,173.400 14.400 M262.400 14.555 C 262.400 14.640,262.930 14.787,263.579 14.882 C 264.227 14.977,264.667 14.908,264.555 14.728 C 264.357 14.407,262.400 14.250,262.400 14.555 M301.200 30.111 C 301.200 30.187,301.785 30.678,302.500 31.201 C 303.304 31.790,303.584 31.887,303.233 31.455 C 302.700 30.799,301.200 29.807,301.200 30.111 M317.200 42.064 C 317.310 42.158,318.660 43.392,320.200 44.806 L 323.000 47.377 320.800 45.059 C 319.590 43.784,318.240 42.550,317.800 42.316 C 317.360 42.083,317.090 41.969,317.200 42.064 M109.178 50.300 L 107.800 51.800 109.300 50.422 C 110.125 49.663,110.800 48.988,110.800 48.922 C 110.800 48.616,110.462 48.904,109.178 50.300 M393.152 180.487 C 393.337 181.598,393.393 181.655,393.519 180.854 C 393.601 180.333,393.503 179.743,393.301 179.541 C 393.079 179.319,393.021 179.693,393.152 180.487 M395.168 190.300 C 395.359 191.681,395.387 191.709,395.519 190.651 C 395.598 190.019,395.505 189.345,395.312 189.152 C 395.110 188.950,395.049 189.440,395.168 190.300 M397.134 203.318 C 397.207 204.683,397.387 205.927,397.534 206.082 C 397.680 206.236,397.740 205.246,397.666 203.882 C 397.593 202.517,397.413 201.273,397.266 201.118 C 397.120 200.964,397.060 201.954,397.134 203.318 M36.901 216.200 C 36.905 217.080,36.987 217.393,37.083 216.895 C 37.179 216.398,37.175 215.678,37.075 215.295 C 36.975 214.913,36.896 215.320,36.901 216.200 M36.544 223.200 C 36.544 225.290,36.612 226.145,36.694 225.100 C 36.776 224.055,36.776 222.345,36.694 221.300 C 36.612 220.255,36.544 221.110,36.544 223.200 M206.799 224.500 C 206.210 225.304,206.113 225.584,206.545 225.233 C 207.201 224.700,208.193 223.200,207.889 223.200 C 207.813 223.200,207.322 223.785,206.799 224.500 M399.000 233.000 C 399.000 237.248,399.135 240.640,399.300 240.538 C 399.465 240.436,399.600 237.044,399.600 233.000 C 399.600 228.956,399.465 225.564,399.300 225.462 C 399.135 225.360,399.000 228.752,399.000 233.000 M36.114 232.200 C 36.117 233.300,36.195 233.703,36.287 233.095 C 36.379 232.486,36.377 231.586,36.282 231.095 C 36.187 230.603,36.111 231.100,36.114 232.200 M274.000 234.925 C 274.000 234.994,274.585 235.579,275.300 236.225 L 276.600 237.400 275.425 236.100 C 274.330 234.888,274.000 234.616,274.000 234.925 M36.493 238.000 C 36.493 238.770,36.575 239.085,36.676 238.700 C 36.776 238.315,36.776 237.685,36.676 237.300 C 36.575 236.915,36.493 237.230,36.493 238.000 M397.301 258.600 C 397.305 259.480,397.387 259.793,397.483 259.295 C 397.579 258.798,397.575 258.078,397.475 257.695 C 397.375 257.313,397.296 257.720,397.301 258.600 M191.168 269.300 C 191.049 270.160,191.110 270.650,191.312 270.448 C 191.505 270.255,191.598 269.581,191.519 268.949 C 191.387 267.891,191.359 267.919,191.168 269.300 M189.415 277.700 C 189.103 278.674,188.965 281.195,189.239 280.900 C 189.393 280.735,189.586 279.835,189.670 278.900 C 189.820 277.210,189.721 276.743,189.415 277.700 M187.309 294.400 C 187.309 295.390,187.387 295.795,187.482 295.300 C 187.578 294.805,187.578 293.995,187.482 293.500 C 187.387 293.005,187.309 293.410,187.309 294.400 M185.361 307.758 C 185.243 308.065,185.208 309.010,185.283 309.858 C 185.410 311.287,185.434 311.246,185.610 309.300 C 185.804 307.156,185.741 306.767,185.361 307.758 M262.400 310.200 C 260.761 311.850,259.510 313.200,259.620 313.200 C 259.730 313.200,261.161 311.850,262.800 310.200 C 264.439 308.550,265.690 307.200,265.580 307.200 C 265.470 307.200,264.039 308.550,262.400 310.200 M85.583 322.500 C 86.564 323.545,87.419 324.400,87.483 324.400 C 87.784 324.400,87.466 324.041,85.700 322.383 L 83.800 320.600 85.583 322.500 M93.600 330.125 C 93.600 330.194,94.185 330.779,94.900 331.425 L 96.200 332.600 95.025 331.300 C 93.930 330.088,93.600 329.816,93.600 330.125 M183.197 335.282 C 183.088 337.197,183.143 338.620,183.318 338.444 C 183.493 338.268,183.581 336.701,183.515 334.962 L 183.393 331.800 183.197 335.282 M249.400 397.200 L 247.800 397.486 249.276 397.543 C 250.088 397.574,250.864 397.420,251.000 397.200 C 251.136 396.980,251.192 396.826,251.124 396.857 C 251.056 396.888,250.280 397.042,249.400 397.200 M207.062 399.300 C 207.164 399.465,213.346 399.600,220.800 399.600 C 228.254 399.600,234.436 399.465,234.538 399.300 C 234.640 399.135,228.458 399.000,220.800 399.000 C 213.142 399.000,206.960 399.135,207.062 399.300 " stroke="none" fill="#525252" fill-rule="evenodd"></path></g></svg>