<svg id="svg" version="1.1" xmlns="http://www.w3.org/2000/svg" xmlns:xlink="http://www.w3.org/1999/xlink" width="400" height="400" viewBox="0, 0, 400,400"><g id="svgg"><path id="path0" d="M107.200 1.481 C 106.650 1.869,106.110 2.286,106.000 2.408 C 105.890 2.530,104.586 3.511,103.103 4.589 C 101.620 5.668,100.296 6.921,100.162 7.375 C 100.027 7.829,99.495 9.190,98.978 10.400 C 95.074 19.549,94.038 22.126,93.803 23.281 C 93.655 24.006,92.731 27.930,91.748 32.000 C 88.376 45.973,88.056 47.405,87.808 49.600 C 87.542 51.961,86.050 63.362,84.771 72.800 C 83.932 78.985,82.900 89.437,81.591 105.000 C 81.147 110.280,80.609 116.040,80.395 117.800 C 80.182 119.560,79.735 126.040,79.402 132.200 C 79.069 138.360,78.628 145.830,78.421 148.800 C 78.213 151.770,77.942 156.360,77.818 159.000 C 77.693 161.640,77.239 170.730,76.808 179.200 C 76.377 187.670,75.829 200.630,75.591 208.000 C 75.352 215.370,74.984 224.730,74.773 228.800 C 74.085 242.055,72.808 346.064,72.805 389.000 C 72.805 399.375,72.985 399.866,74.653 394.045 C 75.007 392.810,75.431 391.620,75.595 391.400 C 75.760 391.180,76.212 390.010,76.600 388.800 C 76.988 387.590,77.433 386.420,77.587 386.200 C 77.742 385.980,78.193 384.720,78.589 383.400 C 78.986 382.080,79.436 380.820,79.589 380.600 C 79.743 380.380,80.193 379.120,80.589 377.800 C 80.986 376.480,81.448 375.220,81.617 375.000 C 81.786 374.780,82.233 373.520,82.610 372.200 C 82.988 370.880,83.458 369.598,83.655 369.351 C 83.851 369.105,84.298 367.935,84.647 366.751 C 84.996 365.568,85.426 364.420,85.603 364.200 C 85.780 363.980,86.237 362.720,86.619 361.400 C 87.001 360.080,87.536 358.640,87.807 358.200 C 88.078 357.760,88.509 356.528,88.765 355.463 C 89.021 354.397,89.473 353.137,89.770 352.663 C 90.067 352.188,90.528 350.854,90.795 349.699 C 91.062 348.543,91.430 347.505,91.614 347.391 C 91.797 347.278,92.246 346.154,92.612 344.893 C 92.977 343.632,93.422 342.420,93.600 342.200 C 93.778 341.980,94.223 340.768,94.588 339.507 C 94.954 338.246,95.396 337.126,95.571 337.018 C 95.747 336.909,96.122 335.961,96.406 334.910 C 96.690 333.860,97.135 332.730,97.396 332.400 C 97.657 332.070,98.187 330.765,98.573 329.501 C 98.958 328.236,99.413 327.116,99.582 327.011 C 99.752 326.906,100.122 325.961,100.406 324.910 C 100.690 323.860,101.135 322.730,101.396 322.400 C 101.657 322.070,102.187 320.765,102.573 319.501 C 102.958 318.236,103.413 317.116,103.582 317.011 C 103.752 316.906,104.122 315.961,104.406 314.910 C 104.690 313.860,105.135 312.730,105.396 312.400 C 105.657 312.070,106.187 310.765,106.573 309.501 C 106.958 308.236,107.413 307.116,107.582 307.011 C 107.752 306.906,108.122 305.961,108.406 304.910 C 108.690 303.860,109.135 302.730,109.396 302.400 C 109.657 302.070,110.187 300.765,110.573 299.501 C 110.958 298.236,111.413 297.116,111.582 297.011 C 111.752 296.906,112.122 295.961,112.406 294.910 C 112.690 293.860,113.132 292.730,113.390 292.400 C 113.647 292.070,114.104 290.990,114.405 290.000 C 114.707 289.010,115.278 287.573,115.676 286.807 C 116.073 286.041,116.508 284.833,116.641 284.122 C 116.775 283.410,117.135 282.620,117.442 282.365 C 117.749 282.110,118.000 281.631,118.000 281.300 C 118.000 280.751,118.734 279.046,121.402 273.400 C 124.289 267.292,126.800 261.633,126.800 261.237 C 126.800 261.051,127.052 260.689,127.361 260.433 C 127.669 260.177,128.037 259.480,128.178 258.884 C 128.320 258.288,128.948 256.720,129.575 255.400 C 130.201 254.080,131.166 252.010,131.718 250.800 C 132.270 249.590,133.433 247.070,134.304 245.200 C 135.174 243.330,136.121 241.170,136.409 240.400 C 136.697 239.630,137.142 238.730,137.400 238.400 C 137.658 238.070,138.108 237.170,138.400 236.400 C 138.692 235.630,139.142 234.730,139.400 234.400 C 139.658 234.070,140.108 233.170,140.400 232.400 C 140.692 231.630,141.142 230.730,141.400 230.400 C 141.658 230.070,142.108 229.170,142.400 228.400 C 142.692 227.630,143.142 226.730,143.400 226.400 C 143.658 226.070,144.108 225.170,144.400 224.400 C 144.692 223.630,145.142 222.730,145.400 222.400 C 145.658 222.070,146.108 221.170,146.400 220.400 C 146.692 219.630,147.142 218.730,147.400 218.400 C 147.658 218.070,148.108 217.170,148.400 216.400 C 148.692 215.630,149.142 214.730,149.400 214.400 C 149.658 214.070,150.108 213.170,150.400 212.400 C 150.692 211.630,151.142 210.730,151.400 210.400 C 151.658 210.070,152.108 209.170,152.400 208.400 C 152.692 207.630,153.142 206.730,153.400 206.400 C 153.658 206.070,154.108 205.170,154.400 204.400 C 154.692 203.630,155.142 202.730,155.400 202.400 C 155.658 202.070,156.108 201.170,156.400 200.400 C 156.692 199.630,157.172 198.716,157.466 198.369 C 157.760 198.021,158.000 197.553,158.000 197.329 C 158.000 197.104,158.540 196.175,159.200 195.263 C 159.860 194.352,160.400 193.503,160.400 193.376 C 160.400 193.248,160.940 192.359,161.600 191.400 C 162.260 190.441,162.800 189.463,162.800 189.228 C 162.800 188.993,162.977 188.800,163.193 188.800 C 163.410 188.800,164.036 187.945,164.585 186.900 C 165.134 185.855,166.123 184.280,166.783 183.400 C 167.443 182.520,168.167 181.383,168.392 180.873 C 168.617 180.363,169.251 179.356,169.800 178.635 C 170.350 177.914,170.800 177.136,170.800 176.905 C 170.800 176.674,171.070 176.382,171.400 176.255 C 171.730 176.129,172.000 175.776,172.000 175.473 C 172.000 175.169,172.540 174.175,173.200 173.263 C 173.860 172.352,174.400 171.466,174.400 171.293 C 174.400 170.931,178.365 165.801,179.584 164.586 C 180.033 164.138,180.400 163.574,180.400 163.332 C 180.400 163.090,180.850 162.597,181.400 162.237 C 181.950 161.876,182.400 161.392,182.400 161.161 C 182.400 160.761,185.922 156.313,187.606 154.586 C 188.043 154.138,188.400 153.574,188.400 153.332 C 188.400 153.090,188.850 152.597,189.400 152.237 C 189.950 151.876,190.400 151.355,190.400 151.077 C 190.400 150.436,194.463 146.400,195.109 146.400 C 195.375 146.400,195.818 146.040,196.093 145.600 C 196.368 145.160,196.806 144.800,197.067 144.800 C 197.328 144.800,197.896 144.350,198.329 143.800 C 198.761 143.250,199.250 142.800,199.414 142.800 C 199.579 142.800,200.633 142.020,201.757 141.066 C 202.881 140.112,204.340 138.996,205.000 138.586 C 205.660 138.176,206.520 137.519,206.911 137.125 C 207.302 136.732,208.112 136.307,208.711 136.181 C 209.310 136.055,210.090 135.797,210.444 135.607 C 210.798 135.418,212.688 134.952,214.644 134.572 C 216.600 134.193,218.398 133.729,218.640 133.541 C 219.729 132.700,222.641 132.708,224.503 133.556 C 225.522 134.020,226.489 134.400,226.652 134.400 C 226.814 134.400,227.689 134.759,228.595 135.198 C 229.501 135.636,231.164 136.311,232.289 136.698 C 239.318 139.110,256.144 158.389,258.397 166.611 L 259.277 169.823 258.402 172.703 C 257.096 177.004,253.865 179.530,247.000 181.618 C 246.120 181.885,245.220 182.239,245.000 182.403 C 244.780 182.567,242.440 183.018,239.800 183.405 C 237.160 183.792,234.820 184.243,234.600 184.406 C 234.380 184.570,228.440 184.818,221.400 184.958 C 207.960 185.226,197.262 185.872,196.620 186.455 C 196.411 186.645,195.485 186.800,194.563 186.800 C 192.678 186.800,186.928 187.849,185.985 188.365 C 185.646 188.550,184.566 188.830,183.585 188.988 C 180.874 189.424,172.970 193.094,169.624 195.470 C 167.987 196.633,166.547 197.633,166.424 197.692 C 165.491 198.142,162.046 204.302,161.218 207.000 C 157.422 219.368,164.109 238.816,175.911 249.736 C 177.375 251.091,178.939 252.563,179.387 253.008 C 181.517 255.123,190.163 260.894,193.600 262.496 C 198.389 264.726,202.121 266.330,203.200 266.620 C 203.750 266.768,204.740 267.125,205.400 267.413 C 206.060 267.701,207.680 268.238,209.000 268.606 C 210.320 268.974,211.581 269.424,211.803 269.606 C 212.024 269.788,213.734 270.232,215.603 270.593 C 217.471 270.954,219.360 271.403,219.800 271.589 C 220.240 271.776,222.568 272.234,224.974 272.607 C 227.380 272.980,229.630 273.433,229.974 273.614 C 230.318 273.794,233.300 274.246,236.600 274.619 C 239.900 274.991,242.917 275.462,243.304 275.664 C 246.010 277.079,300.118 277.042,302.815 275.623 C 303.153 275.445,306.033 274.984,309.215 274.599 C 312.397 274.215,315.171 273.742,315.380 273.550 C 315.589 273.357,316.245 273.200,316.837 273.200 C 318.280 273.200,324.035 272.062,324.844 271.618 C 325.198 271.423,327.088 270.965,329.044 270.601 C 331.000 270.237,333.050 269.709,333.600 269.426 C 334.150 269.144,335.498 268.695,336.595 268.427 C 337.692 268.160,338.772 267.790,338.995 267.606 C 339.218 267.422,340.493 266.989,341.829 266.643 C 343.164 266.298,346.134 265.022,348.429 263.809 C 350.723 262.595,353.502 261.173,354.604 260.649 C 355.706 260.124,357.546 258.954,358.692 258.048 C 359.839 257.141,360.870 256.400,360.984 256.400 C 362.300 256.400,373.232 245.816,374.591 243.226 C 375.036 242.378,375.760 240.991,376.200 240.142 C 376.640 239.294,377.134 238.500,377.298 238.378 C 377.818 237.990,379.930 233.619,380.635 231.470 C 381.009 230.332,381.559 229.045,381.858 228.611 C 382.156 228.177,382.400 227.590,382.400 227.307 C 382.400 227.023,382.746 226.028,383.168 225.096 C 383.591 224.163,384.238 222.320,384.606 221.000 C 384.974 219.680,385.418 218.420,385.591 218.200 C 385.764 217.980,386.209 216.455,386.578 214.811 C 386.948 213.167,387.403 211.637,387.589 211.411 C 387.776 211.185,388.231 209.830,388.600 208.400 C 388.969 206.970,389.437 205.600,389.638 205.356 C 389.840 205.112,390.283 203.312,390.624 201.356 C 390.964 199.400,391.401 197.507,391.594 197.148 C 391.788 196.790,392.246 194.540,392.612 192.148 C 392.979 189.757,393.432 187.440,393.619 187.000 C 393.806 186.560,394.252 183.950,394.609 181.200 C 394.966 178.450,395.413 175.840,395.602 175.400 C 395.999 174.474,396.639 169.696,397.023 164.800 C 397.169 162.930,397.466 161.181,397.682 160.914 C 399.269 158.951,399.237 103.787,397.647 101.852 C 397.442 101.603,396.957 99.330,396.568 96.800 C 396.178 94.270,395.647 91.930,395.386 91.600 C 395.126 91.270,394.701 90.128,394.441 89.063 C 394.182 87.997,393.731 86.737,393.439 86.263 C 393.147 85.788,392.676 84.500,392.393 83.400 C 392.110 82.300,391.661 81.130,391.396 80.800 C 391.130 80.470,389.829 78.040,388.504 75.400 C 385.168 68.751,379.331 60.019,375.500 55.944 C 375.115 55.535,374.800 55.050,374.800 54.866 C 374.800 54.682,374.305 54.060,373.700 53.483 C 373.095 52.906,372.373 52.201,372.094 51.917 C 369.193 48.950,367.741 47.604,367.440 47.602 C 367.242 47.601,366.137 46.655,364.984 45.500 C 362.884 43.395,358.497 40.054,357.118 39.510 C 356.713 39.350,356.277 38.945,356.148 38.610 C 356.020 38.274,355.709 37.998,355.457 37.996 C 355.206 37.994,354.210 37.364,353.244 36.596 C 352.278 35.828,351.252 35.200,350.964 35.200 C 350.675 35.200,350.296 34.971,350.120 34.692 C 349.944 34.412,349.350 33.964,348.800 33.696 C 348.250 33.428,346.630 32.495,345.200 31.622 C 342.811 30.165,339.010 28.211,335.000 26.379 C 334.120 25.977,332.216 25.097,330.768 24.424 C 329.321 23.751,327.878 23.200,327.562 23.200 C 327.247 23.200,326.316 22.840,325.496 22.400 C 324.675 21.960,323.820 21.600,323.597 21.600 C 323.374 21.600,322.428 21.252,321.496 20.827 C 320.563 20.403,318.904 19.761,317.810 19.402 C 316.715 19.042,315.635 18.599,315.410 18.416 C 315.184 18.233,313.470 17.775,311.600 17.397 C 309.730 17.019,308.110 16.580,308.000 16.422 C 307.890 16.263,306.090 15.812,304.000 15.419 C 301.910 15.027,299.840 14.557,299.400 14.374 C 298.960 14.192,296.620 13.756,294.200 13.405 C 291.780 13.054,289.440 12.610,289.000 12.418 C 285.624 10.945,243.790 10.911,240.600 12.379 C 240.160 12.581,236.924 13.040,233.410 13.399 C 229.895 13.758,226.835 14.198,226.610 14.377 C 226.384 14.555,224.040 15.018,221.400 15.405 C 218.760 15.792,216.420 16.241,216.200 16.402 C 215.980 16.563,213.640 17.024,211.000 17.426 C 208.360 17.827,206.110 18.275,206.000 18.420 C 205.890 18.565,203.640 19.000,201.000 19.385 C 198.360 19.771,195.840 20.238,195.400 20.423 C 194.414 20.838,185.187 22.000,182.878 22.000 C 181.949 22.000,180.877 22.166,180.495 22.370 C 177.723 23.845,156.026 23.868,152.600 22.399 C 152.160 22.210,151.080 21.838,150.200 21.571 C 147.370 20.714,145.317 18.096,144.975 14.906 C 144.616 11.549,143.989 10.039,142.251 8.341 C 138.894 5.061,135.953 3.663,131.000 2.995 C 129.900 2.847,128.820 2.589,128.600 2.422 C 127.003 1.211,108.723 0.407,107.200 1.481 " stroke="none" fill="#040404" fill-rule="evenodd"></path><path id="path1" d="M0.000 200.000 L 0.000 400.000 36.200 400.000 L 72.400 400.000 72.409 376.500 C 72.435 312.086,73.688 238.825,75.393 202.000 C 75.714 195.070,76.169 184.450,76.405 178.400 C 76.640 172.350,77.007 165.150,77.220 162.400 C 77.433 159.650,77.969 150.110,78.412 141.200 C 78.854 132.290,79.295 124.730,79.393 124.400 C 79.490 124.070,79.944 119.030,80.400 113.200 C 80.856 107.370,81.309 102.330,81.407 102.000 C 81.504 101.670,81.950 96.742,82.399 91.049 C 82.848 85.356,83.289 80.580,83.378 80.435 C 83.468 80.291,83.927 76.765,84.400 72.600 C 84.873 68.435,85.333 64.908,85.424 64.761 C 85.515 64.614,85.952 61.320,86.395 57.440 C 87.147 50.869,88.429 43.596,89.754 38.400 C 90.426 35.760,91.333 32.001,92.600 26.600 C 93.622 22.240,94.010 21.099,96.200 16.000 C 97.003 14.130,97.900 11.970,98.192 11.200 C 99.789 6.997,100.431 6.045,102.821 4.330 C 104.147 3.378,105.879 2.105,106.671 1.500 C 107.933 0.535,108.460 0.401,110.955 0.409 C 115.727 0.423,125.314 1.140,125.564 1.501 C 125.694 1.689,127.510 2.073,129.600 2.356 C 131.690 2.639,133.923 3.125,134.561 3.435 C 135.200 3.746,135.893 4.000,136.101 4.000 C 136.795 4.000,139.396 5.350,139.720 5.878 C 139.896 6.165,140.256 6.400,140.521 6.400 C 142.216 6.400,145.023 11.343,145.417 15.019 C 146.221 22.529,153.849 24.211,178.800 22.376 C 182.650 22.093,185.890 21.736,186.000 21.582 C 186.110 21.428,188.900 20.983,192.200 20.591 C 195.500 20.200,198.380 19.746,198.600 19.581 C 198.820 19.417,201.070 18.970,203.600 18.589 C 206.130 18.208,208.380 17.758,208.600 17.589 C 208.820 17.420,211.070 16.970,213.600 16.589 C 216.130 16.208,218.380 15.761,218.600 15.597 C 218.820 15.433,221.160 14.982,223.800 14.595 C 226.440 14.208,228.780 13.759,229.000 13.598 C 229.220 13.438,232.640 12.996,236.600 12.618 C 240.560 12.239,244.070 11.816,244.400 11.678 C 246.899 10.627,281.182 10.560,281.533 11.604 C 281.607 11.822,283.100 12.000,284.851 12.000 C 288.078 12.000,295.534 12.991,297.000 13.614 C 297.440 13.802,298.610 14.061,299.600 14.190 C 302.522 14.572,306.000 15.346,306.000 15.614 C 306.000 15.751,307.710 16.199,309.800 16.610 C 311.890 17.021,313.600 17.479,313.600 17.626 C 313.600 17.774,314.245 18.000,315.033 18.128 C 315.821 18.256,317.216 18.711,318.133 19.140 C 319.050 19.568,320.790 20.235,322.000 20.621 C 323.210 21.007,324.560 21.541,325.000 21.807 C 325.440 22.074,326.655 22.520,327.700 22.798 C 328.745 23.076,329.600 23.436,329.600 23.597 C 329.600 23.759,330.590 24.202,331.800 24.582 C 333.010 24.963,334.000 25.409,334.000 25.573 C 334.000 25.738,334.765 26.111,335.700 26.403 C 336.635 26.695,337.961 27.264,338.647 27.667 C 339.333 28.070,340.126 28.400,340.409 28.400 C 340.693 28.400,341.514 28.850,342.235 29.400 C 342.956 29.949,344.008 30.575,344.573 30.790 C 345.138 31.004,345.600 31.365,345.600 31.590 C 345.600 31.816,345.798 32.000,346.040 32.000 C 346.715 32.000,351.211 34.725,355.000 37.430 C 356.100 38.216,357.423 39.160,357.939 39.529 C 358.456 39.898,359.626 40.783,360.539 41.496 C 361.453 42.209,362.353 42.794,362.540 42.796 C 362.726 42.798,363.747 43.655,364.808 44.700 C 365.869 45.745,367.861 47.590,369.234 48.800 C 372.397 51.587,372.741 51.932,374.200 53.772 C 374.860 54.605,375.895 55.757,376.500 56.332 C 377.105 56.908,377.600 57.535,377.600 57.728 C 377.600 57.920,378.302 58.874,379.159 59.848 C 380.017 60.823,381.015 62.245,381.378 63.010 C 381.741 63.774,382.209 64.400,382.419 64.400 C 382.628 64.400,382.800 64.601,382.800 64.846 C 382.800 65.092,383.430 66.151,384.200 67.200 C 384.970 68.249,385.600 69.299,385.600 69.534 C 385.600 69.768,385.830 70.104,386.111 70.280 C 386.393 70.456,386.973 71.410,387.400 72.400 C 387.828 73.390,388.278 74.290,388.400 74.400 C 388.522 74.510,388.972 75.410,389.400 76.400 C 389.828 77.390,390.273 78.290,390.389 78.400 C 390.843 78.832,392.000 81.296,392.000 81.832 C 392.000 82.145,392.137 82.400,392.305 82.400 C 392.473 82.400,392.954 83.615,393.374 85.100 C 393.794 86.585,394.247 87.890,394.380 88.000 C 394.754 88.310,396.000 92.565,396.000 93.535 C 396.000 94.011,396.152 94.400,396.337 94.400 C 396.522 94.400,396.997 96.605,397.393 99.300 C 397.789 101.995,398.237 104.290,398.388 104.400 C 399.633 105.305,399.638 154.053,398.394 157.000 C 398.208 157.440,397.761 161.018,397.400 164.950 C 397.039 168.883,396.584 172.393,396.389 172.750 C 396.194 173.108,395.737 175.728,395.374 178.574 C 395.011 181.419,394.561 184.029,394.372 184.374 C 394.184 184.718,393.752 187.144,393.411 189.764 C 393.071 192.384,392.636 194.724,392.446 194.964 C 392.255 195.204,391.779 197.290,391.388 199.600 C 390.997 201.910,390.544 203.980,390.381 204.200 C 390.219 204.420,389.769 205.770,389.380 207.200 C 388.992 208.630,388.528 209.992,388.348 210.228 C 388.169 210.463,387.733 211.901,387.380 213.424 C 387.027 214.947,386.588 216.375,386.405 216.597 C 386.221 216.818,385.769 218.170,385.400 219.600 C 385.031 221.030,384.589 222.380,384.419 222.600 C 384.249 222.820,383.784 224.080,383.385 225.400 C 382.987 226.720,382.422 228.155,382.130 228.589 C 381.839 229.023,381.600 229.619,381.600 229.914 C 381.600 230.812,379.704 234.788,377.267 239.000 C 376.504 240.320,375.520 242.120,375.082 243.000 C 373.743 245.689,363.755 255.600,362.384 255.600 C 362.159 255.600,361.871 255.870,361.745 256.200 C 361.618 256.530,361.334 256.800,361.114 256.800 C 360.895 256.800,359.810 257.520,358.705 258.400 C 357.600 259.280,356.464 260.000,356.181 260.000 C 355.898 260.000,355.607 260.135,355.533 260.300 C 355.383 260.639,353.063 261.958,350.454 263.188 C 349.494 263.640,348.228 264.353,347.641 264.771 C 347.053 265.189,345.904 265.657,345.086 265.810 C 344.269 265.964,343.600 266.214,343.600 266.367 C 343.600 266.521,342.295 266.980,340.700 267.390 C 339.105 267.799,337.710 268.243,337.600 268.378 C 337.296 268.749,333.045 270.000,332.088 270.000 C 331.626 270.000,331.150 270.157,331.032 270.349 C 330.913 270.541,329.147 271.016,327.108 271.405 C 325.069 271.793,323.220 272.247,323.000 272.412 C 322.488 272.798,318.931 273.479,315.616 273.827 C 314.195 273.976,312.755 274.243,312.416 274.421 C 311.395 274.955,301.939 276.000,298.125 276.000 C 296.164 276.000,294.377 276.183,294.153 276.407 C 293.162 277.398,247.162 277.422,246.400 276.431 C 246.290 276.288,243.320 275.787,239.800 275.316 C 230.770 274.111,222.635 272.747,222.400 272.399 C 222.290 272.236,220.580 271.879,218.600 271.605 C 216.620 271.331,214.280 270.791,213.400 270.404 C 212.520 270.018,210.854 269.480,209.699 269.210 C 208.543 268.940,207.509 268.576,207.400 268.400 C 207.291 268.224,206.257 267.859,205.101 267.589 C 203.149 267.133,200.950 266.268,197.000 264.401 C 196.120 263.985,194.050 263.008,192.400 262.230 C 190.750 261.452,187.870 259.719,186.000 258.380 C 184.130 257.041,182.152 255.643,181.604 255.273 C 180.668 254.641,178.259 252.469,173.943 248.366 C 171.408 245.956,166.974 239.667,165.387 236.230 C 164.668 234.674,163.598 232.348,163.010 231.063 C 159.520 223.433,158.946 210.641,161.803 204.161 C 163.664 199.940,170.717 192.800,173.025 192.800 C 173.112 192.800,174.581 192.157,176.291 191.371 C 181.431 189.009,181.695 188.915,184.600 188.395 C 186.140 188.120,187.580 187.764,187.800 187.605 C 188.444 187.138,192.699 186.459,196.800 186.169 C 198.890 186.021,200.818 185.726,201.084 185.514 C 201.356 185.297,209.193 184.914,218.952 184.640 C 229.982 184.330,236.530 183.995,236.868 183.723 C 237.160 183.488,239.020 183.073,241.000 182.801 C 242.980 182.529,245.320 181.991,246.200 181.605 C 247.080 181.218,248.700 180.603,249.800 180.237 C 261.423 176.369,261.330 166.238,249.546 152.695 C 245.779 148.365,234.422 137.600,233.621 137.600 C 233.385 137.600,232.428 137.249,231.496 136.820 C 229.809 136.045,226.845 134.853,223.811 133.731 C 222.237 133.148,217.751 133.562,216.600 134.395 C 216.380 134.555,214.580 135.009,212.600 135.404 C 210.347 135.854,208.524 136.474,207.727 137.062 C 207.026 137.578,206.305 138.000,206.123 138.000 C 205.941 138.000,205.568 138.360,205.293 138.800 C 205.018 139.240,204.609 139.600,204.383 139.600 C 204.041 139.600,198.377 143.995,195.900 146.182 C 195.515 146.522,195.058 146.800,194.885 146.800 C 194.515 146.800,190.800 150.510,190.800 150.880 C 190.800 151.019,190.447 151.552,190.016 152.066 C 186.121 156.704,182.800 160.791,182.800 160.945 C 182.800 161.048,182.444 161.552,182.010 162.066 C 178.613 166.082,175.888 169.503,175.666 170.032 C 175.520 170.380,174.509 172.000,173.420 173.632 C 169.320 179.778,168.800 180.620,168.800 181.103 C 168.800 181.377,168.616 181.600,168.390 181.600 C 168.165 181.600,167.820 182.005,167.625 182.500 C 167.429 182.995,166.804 184.020,166.235 184.778 C 165.666 185.535,165.200 186.396,165.200 186.690 C 165.200 186.984,164.930 187.329,164.600 187.455 C 164.270 187.582,163.995 187.891,163.989 188.143 C 163.983 188.394,163.443 189.307,162.789 190.171 C 162.135 191.035,161.600 191.903,161.600 192.100 C 161.600 192.296,160.824 193.569,159.876 194.928 C 158.367 197.091,137.359 238.817,135.370 243.600 C 134.959 244.590,134.506 245.490,134.365 245.600 C 134.224 245.710,133.980 246.250,133.823 246.800 C 133.666 247.350,133.031 248.880,132.412 250.200 C 131.792 251.520,130.837 253.590,130.288 254.800 C 129.740 256.010,128.481 258.710,127.492 260.800 C 126.503 262.890,125.458 265.230,125.170 266.000 C 124.881 266.770,124.535 267.490,124.400 267.600 C 124.265 267.710,123.921 268.430,123.635 269.200 C 123.118 270.593,122.339 272.310,119.280 278.800 C 118.398 280.670,117.451 282.965,117.175 283.900 C 116.899 284.835,116.561 285.600,116.424 285.600 C 116.287 285.600,115.933 286.455,115.637 287.500 C 115.341 288.545,114.880 289.760,114.611 290.200 C 114.343 290.640,113.799 291.990,113.402 293.200 C 113.006 294.410,112.566 295.490,112.424 295.600 C 112.282 295.710,111.921 296.610,111.620 297.600 C 111.320 298.590,110.860 299.760,110.598 300.200 C 110.337 300.640,109.799 301.990,109.402 303.200 C 109.006 304.410,108.566 305.490,108.424 305.600 C 108.282 305.710,107.921 306.610,107.620 307.600 C 107.320 308.590,106.860 309.760,106.598 310.200 C 106.337 310.640,105.799 311.990,105.402 313.200 C 105.006 314.410,104.566 315.490,104.424 315.600 C 104.282 315.710,103.921 316.610,103.620 317.600 C 103.320 318.590,102.860 319.760,102.598 320.200 C 102.337 320.640,101.799 321.990,101.402 323.200 C 101.006 324.410,100.566 325.490,100.424 325.600 C 100.282 325.710,99.921 326.610,99.620 327.600 C 99.320 328.590,98.860 329.760,98.598 330.200 C 98.337 330.640,97.799 331.990,97.402 333.200 C 97.006 334.410,96.562 335.490,96.416 335.600 C 96.270 335.710,95.818 336.880,95.412 338.200 C 95.006 339.520,94.452 340.960,94.182 341.400 C 93.911 341.840,93.472 343.146,93.205 344.301 C 92.938 345.457,92.570 346.495,92.386 346.609 C 92.203 346.722,91.766 347.846,91.416 349.107 C 91.066 350.368,90.537 351.850,90.241 352.400 C 89.945 352.950,89.465 354.345,89.175 355.500 C 88.886 356.655,88.527 357.600,88.377 357.600 C 88.228 357.600,87.792 358.716,87.410 360.080 C 87.027 361.444,86.483 362.929,86.202 363.380 C 85.920 363.831,85.472 365.146,85.205 366.301 C 84.938 367.457,84.565 368.498,84.377 368.614 C 84.188 368.731,83.733 369.900,83.364 371.213 C 82.996 372.526,82.558 373.600,82.392 373.600 C 82.225 373.600,81.967 374.275,81.819 375.100 C 81.670 375.925,81.212 377.320,80.802 378.200 C 80.391 379.080,79.761 380.832,79.401 382.093 C 79.042 383.354,78.597 384.478,78.414 384.591 C 78.230 384.705,77.862 385.743,77.595 386.899 C 77.328 388.054,76.880 389.369,76.598 389.820 C 76.317 390.271,75.773 391.756,75.390 393.120 C 75.008 394.484,74.561 395.600,74.397 395.600 C 74.234 395.600,73.996 396.119,73.869 396.753 C 73.742 397.388,73.520 398.378,73.376 398.953 L 73.113 400.000 236.557 400.000 L 400.000 400.000 400.000 200.000 L 400.000 0.000 200.000 0.000 L 0.000 0.000 0.000 200.000 " stroke="none" fill="#fbfbfb" fill-rule="evenodd"></path><path id="path2" d="M117.900 1.093 C 118.835 1.177,120.365 1.177,121.300 1.093 C 122.235 1.009,121.470 0.940,119.600 0.940 C 117.730 0.940,116.965 1.009,117.900 1.093 M253.700 11.094 C 254.745 11.176,256.455 11.176,257.500 11.094 C 258.545 11.012,257.690 10.944,255.600 10.944 C 253.510 10.944,252.655 11.012,253.700 11.094 M262.600 11.073 C 268.425 11.361,274.710 11.375,274.539 11.100 C 274.437 10.935,271.168 10.835,267.276 10.877 C 263.384 10.919,261.280 11.008,262.600 11.073 M144.901 13.400 C 144.905 14.280,144.987 14.593,145.083 14.095 C 145.179 13.598,145.175 12.878,145.075 12.495 C 144.975 12.113,144.896 12.520,144.901 13.400 M233.900 13.082 C 234.395 13.178,235.205 13.178,235.700 13.082 C 236.195 12.987,235.790 12.909,234.800 12.909 C 233.810 12.909,233.405 12.987,233.900 13.082 M292.100 13.076 C 292.485 13.176,293.115 13.176,293.500 13.076 C 293.885 12.975,293.570 12.893,292.800 12.893 C 292.030 12.893,291.715 12.975,292.100 13.076 M155.600 22.958 C 155.600 23.045,156.305 23.183,157.166 23.265 C 158.028 23.348,158.647 23.276,158.543 23.107 C 158.353 22.800,155.600 22.660,155.600 22.958 M171.507 23.090 C 172.226 23.179,173.306 23.177,173.907 23.086 C 174.508 22.995,173.920 22.922,172.600 22.924 C 171.280 22.926,170.788 23.001,171.507 23.090 M398.934 114.000 C 398.934 115.650,399.005 116.325,399.091 115.500 C 399.178 114.675,399.178 113.325,399.091 112.500 C 399.005 111.675,398.934 112.350,398.934 114.000 M398.963 137.600 C 398.963 141.230,399.023 142.715,399.098 140.900 C 399.172 139.085,399.172 136.115,399.098 134.300 C 399.023 132.485,398.963 133.970,398.963 137.600 M396.920 167.200 C 396.920 168.410,396.995 168.905,397.087 168.300 C 397.178 167.695,397.178 166.705,397.087 166.100 C 396.995 165.495,396.920 165.990,396.920 167.200 M394.893 180.000 C 394.893 180.770,394.975 181.085,395.076 180.700 C 395.176 180.315,395.176 179.685,395.076 179.300 C 394.975 178.915,394.893 179.230,394.893 180.000 M213.211 184.700 C 209.146 184.765,205.690 184.950,205.530 185.109 C 205.369 185.269,208.604 185.347,212.717 185.282 C 216.830 185.217,220.368 184.992,220.578 184.782 C 220.788 184.572,220.879 184.441,220.780 184.490 C 220.681 184.540,217.275 184.634,213.211 184.700 M392.893 191.600 C 392.893 192.370,392.975 192.685,393.076 192.300 C 393.176 191.915,393.176 191.285,393.076 190.900 C 392.975 190.515,392.893 190.830,392.893 191.600 M74.893 217.200 C 74.893 217.970,74.975 218.285,75.076 217.900 C 75.176 217.515,75.176 216.885,75.076 216.500 C 74.975 216.115,74.893 216.430,74.893 217.200 M73.720 259.600 C 73.720 260.810,73.795 261.305,73.887 260.700 C 73.978 260.095,73.978 259.105,73.887 258.500 C 73.795 257.895,73.720 258.390,73.720 259.600 M237.300 275.076 C 237.685 275.176,238.315 275.176,238.700 275.076 C 239.085 274.975,238.770 274.893,238.000 274.893 C 237.230 274.893,236.915 274.975,237.300 275.076 M306.900 275.076 C 307.285 275.176,307.915 275.176,308.300 275.076 C 308.685 274.975,308.370 274.893,307.600 274.893 C 306.830 274.893,306.515 274.975,306.900 275.076 M258.100 277.096 C 259.365 277.175,261.435 277.175,262.700 277.096 C 263.965 277.016,262.930 276.951,260.400 276.951 C 257.870 276.951,256.835 277.016,258.100 277.096 M270.300 277.099 C 272.995 277.168,277.405 277.168,280.100 277.099 C 282.795 277.030,280.590 276.973,275.200 276.973 C 269.810 276.973,267.605 277.030,270.300 277.099 M73.328 290.800 C 73.328 292.230,73.401 292.815,73.489 292.100 C 73.578 291.385,73.578 290.215,73.489 289.500 C 73.401 288.785,73.328 289.370,73.328 290.800 M72.951 315.200 C 72.951 317.730,73.016 318.765,73.096 317.500 C 73.175 316.235,73.175 314.165,73.096 312.900 C 73.016 311.635,72.951 312.670,72.951 315.200 M72.561 373.200 C 72.561 376.610,72.622 378.005,72.697 376.300 C 72.772 374.595,72.772 371.805,72.697 370.100 C 72.622 368.395,72.561 369.790,72.561 373.200 " stroke="none" fill="#848484" fill-rule="evenodd"></path><path id="path3" d="M123.152 1.312 C 123.345 1.505,124.019 1.598,124.651 1.519 C 125.709 1.387,125.681 1.359,124.300 1.168 C 123.440 1.049,122.950 1.110,123.152 1.312 M246.500 11.494 C 247.545 11.576,249.255 11.576,250.300 11.494 C 251.345 11.412,250.490 11.344,248.400 11.344 C 246.310 11.344,245.455 11.412,246.500 11.494 M276.512 11.495 C 277.564 11.577,279.184 11.576,280.112 11.492 C 281.040 11.408,280.180 11.341,278.200 11.342 C 276.220 11.343,275.460 11.412,276.512 11.495 M231.000 13.200 L 229.000 13.474 230.876 13.537 C 231.908 13.572,232.864 13.420,233.000 13.200 C 233.136 12.980,233.192 12.828,233.124 12.863 C 233.056 12.897,232.100 13.049,231.000 13.200 M294.705 13.483 C 295.202 13.579,295.922 13.575,296.305 13.475 C 296.687 13.375,296.280 13.296,295.400 13.301 C 294.520 13.305,294.207 13.387,294.705 13.483 M209.800 17.200 L 208.600 17.505 209.676 17.553 C 210.268 17.579,210.864 17.420,211.000 17.200 C 211.136 16.980,211.192 16.821,211.124 16.847 C 211.056 16.873,210.460 17.032,209.800 17.200 M311.541 17.301 C 311.743 17.503,312.333 17.601,312.854 17.519 C 313.655 17.393,313.598 17.337,312.487 17.152 C 311.693 17.021,311.319 17.079,311.541 17.301 M199.800 19.200 L 198.600 19.505 199.676 19.553 C 200.268 19.579,200.864 19.420,201.000 19.200 C 201.136 18.980,201.192 18.821,201.124 18.847 C 201.056 18.873,200.460 19.032,199.800 19.200 M187.400 21.200 L 185.800 21.486 187.200 21.537 C 187.970 21.565,188.870 21.413,189.200 21.200 C 189.855 20.777,189.762 20.777,187.400 21.200 M164.400 23.200 L 158.600 23.434 164.276 23.517 C 167.722 23.567,170.050 23.443,170.200 23.200 C 170.336 22.980,170.392 22.837,170.324 22.883 C 170.256 22.929,167.590 23.072,164.400 23.200 M91.029 32.629 C 90.881 33.215,90.838 33.772,90.932 33.866 C 91.027 33.960,91.224 33.558,91.371 32.971 C 91.519 32.385,91.562 31.828,91.468 31.734 C 91.373 31.640,91.176 32.042,91.029 32.629 M372.000 51.721 C 372.990 52.751,373.858 53.595,373.929 53.597 C 374.256 53.605,372.329 51.462,371.324 50.701 C 370.706 50.232,371.010 50.691,372.000 51.721 M82.901 84.600 C 82.905 85.480,82.987 85.793,83.083 85.295 C 83.179 84.798,83.175 84.078,83.075 83.695 C 82.975 83.313,82.896 83.720,82.901 84.600 M396.400 95.576 C 396.400 96.223,396.542 96.841,396.716 96.948 C 396.890 97.056,396.961 96.527,396.873 95.772 C 396.676 94.091,396.400 93.977,396.400 95.576 M81.301 103.400 C 81.305 104.280,81.387 104.593,81.483 104.095 C 81.579 103.598,81.575 102.878,81.475 102.495 C 81.375 102.113,81.296 102.520,81.301 103.400 M398.460 107.476 C 398.427 109.278,398.535 110.837,398.700 110.939 C 398.865 111.042,398.950 110.018,398.888 108.663 C 398.700 104.522,398.523 104.031,398.460 107.476 M80.893 106.800 C 80.893 107.570,80.975 107.885,81.076 107.500 C 81.176 107.115,81.176 106.485,81.076 106.100 C 80.975 105.715,80.893 106.030,80.893 106.800 M79.314 126.200 C 79.317 127.300,79.395 127.703,79.487 127.095 C 79.579 126.486,79.577 125.586,79.482 125.095 C 79.387 124.603,79.311 125.100,79.314 126.200 M78.920 131.200 C 78.920 132.410,78.995 132.905,79.087 132.300 C 79.178 131.695,79.178 130.705,79.087 130.100 C 78.995 129.495,78.920 129.990,78.920 131.200 M207.322 137.029 L 206.200 138.058 207.500 137.154 C 208.215 136.657,208.800 136.193,208.800 136.125 C 208.800 135.809,208.358 136.080,207.322 137.029 M78.509 138.800 C 78.509 139.790,78.587 140.195,78.682 139.700 C 78.778 139.205,78.778 138.395,78.682 137.900 C 78.587 137.405,78.509 137.810,78.509 138.800 M240.800 143.725 C 240.800 143.794,241.385 144.379,242.100 145.025 L 243.400 146.200 242.225 144.900 C 241.130 143.688,240.800 143.416,240.800 143.725 M398.563 150.400 C 398.563 154.030,398.623 155.515,398.698 153.700 C 398.772 151.885,398.772 148.915,398.698 147.100 C 398.623 145.285,398.563 146.770,398.563 150.400 M78.093 146.800 C 78.093 147.570,78.175 147.885,78.276 147.500 C 78.376 147.115,78.376 146.485,78.276 146.100 C 78.175 145.715,78.093 146.030,78.093 146.800 M187.960 154.100 C 186.276 156.132,185.465 157.512,186.961 155.800 C 188.284 154.285,189.699 152.400,189.512 152.400 C 189.434 152.400,188.735 153.165,187.960 154.100 M77.324 161.800 C 77.326 163.120,77.401 163.612,77.490 162.893 C 77.579 162.174,77.577 161.094,77.486 160.493 C 77.395 159.892,77.322 160.480,77.324 161.800 M179.960 164.100 C 178.276 166.132,177.465 167.512,178.961 165.800 C 180.284 164.285,181.699 162.400,181.512 162.400 C 181.434 162.400,180.735 163.165,179.960 164.100 M76.920 167.200 C 76.920 168.410,76.995 168.905,77.087 168.300 C 77.178 167.695,77.178 166.705,77.087 166.100 C 76.995 165.495,76.920 165.990,76.920 167.200 M396.617 169.700 C 396.287 170.746,396.157 172.750,396.430 172.581 C 396.587 172.484,396.784 171.684,396.868 170.803 C 397.021 169.206,396.917 168.750,396.617 169.700 M174.400 171.600 C 173.930 172.260,173.636 172.800,173.746 172.800 C 173.856 172.800,174.330 172.260,174.800 171.600 C 175.270 170.940,175.564 170.400,175.454 170.400 C 175.344 170.400,174.870 170.940,174.400 171.600 M76.509 174.800 C 76.509 175.790,76.587 176.195,76.682 175.700 C 76.778 175.205,76.778 174.395,76.682 173.900 C 76.587 173.405,76.509 173.810,76.509 174.800 M394.620 181.700 C 394.262 182.853,394.137 184.362,394.414 184.192 C 394.577 184.090,394.785 183.376,394.875 182.604 C 395.039 181.202,394.913 180.755,394.620 181.700 M76.114 184.200 C 76.117 185.300,76.195 185.703,76.287 185.095 C 76.379 184.486,76.377 183.586,76.282 183.095 C 76.187 182.603,76.111 183.100,76.114 184.200 M238.600 183.091 C 236.884 183.335,236.520 183.872,238.204 183.675 C 238.976 183.585,239.706 183.351,239.827 183.156 C 239.948 182.960,239.992 182.827,239.924 182.860 C 239.856 182.893,239.260 182.997,238.600 183.091 M202.100 185.487 C 202.705 185.578,203.695 185.578,204.300 185.487 C 204.905 185.395,204.410 185.320,203.200 185.320 C 201.990 185.320,201.495 185.395,202.100 185.487 M160.400 193.600 C 159.930 194.260,159.636 194.800,159.746 194.800 C 159.856 194.800,160.330 194.260,160.800 193.600 C 161.270 192.940,161.564 192.400,161.454 192.400 C 161.344 192.400,160.870 192.940,160.400 193.600 M75.709 196.000 C 75.709 196.990,75.787 197.395,75.882 196.900 C 75.978 196.405,75.978 195.595,75.882 195.100 C 75.787 194.605,75.709 195.010,75.709 196.000 M390.620 201.700 C 390.262 202.853,390.137 204.362,390.414 204.192 C 390.577 204.090,390.785 203.376,390.875 202.604 C 391.039 201.202,390.913 200.755,390.620 201.700 M75.340 205.200 C 75.340 207.070,75.409 207.835,75.493 206.900 C 75.577 205.965,75.577 204.435,75.493 203.500 C 75.409 202.565,75.340 203.330,75.340 205.200 M74.937 213.000 C 74.939 214.760,75.009 215.430,75.093 214.489 C 75.178 213.549,75.177 212.109,75.091 211.289 C 75.005 210.470,74.936 211.240,74.937 213.000 M74.524 223.800 C 74.526 225.120,74.601 225.612,74.690 224.893 C 74.779 224.174,74.777 223.094,74.686 222.493 C 74.595 221.892,74.522 222.480,74.524 223.800 M74.114 235.400 C 74.117 236.500,74.195 236.903,74.287 236.295 C 74.379 235.686,74.377 234.786,74.282 234.295 C 74.187 233.803,74.111 234.300,74.114 235.400 M73.751 253.200 C 73.751 255.730,73.816 256.765,73.896 255.500 C 73.975 254.235,73.975 252.165,73.896 250.900 C 73.816 249.635,73.751 250.670,73.751 253.200 M73.371 279.600 C 73.371 284.550,73.428 286.575,73.499 284.100 C 73.569 281.625,73.569 277.575,73.499 275.100 C 73.428 272.625,73.371 274.650,73.371 279.600 M222.400 272.556 C 222.400 272.642,223.017 272.785,223.772 272.873 C 224.527 272.961,225.056 272.890,224.948 272.716 C 224.755 272.403,222.400 272.255,222.400 272.556 M311.000 274.294 C 310.120 274.382,309.270 274.581,309.110 274.736 C 308.951 274.892,309.581 274.951,310.510 274.869 C 311.440 274.786,312.371 274.556,312.580 274.359 C 312.789 274.162,312.879 274.030,312.780 274.067 C 312.681 274.104,311.880 274.206,311.000 274.294 M233.600 274.558 C 233.600 274.645,234.305 274.783,235.166 274.865 C 236.028 274.948,236.647 274.876,236.543 274.707 C 236.353 274.400,233.600 274.260,233.600 274.558 M289.806 276.299 C 287.389 276.371,285.282 276.557,285.124 276.714 C 284.966 276.872,286.853 276.944,289.318 276.875 C 291.783 276.807,293.971 276.582,294.180 276.375 C 294.389 276.169,294.479 276.038,294.380 276.085 C 294.281 276.132,292.222 276.228,289.806 276.299 M247.800 276.662 C 251.635 276.955,255.911 276.976,255.740 276.700 C 255.637 276.535,253.448 276.431,250.876 276.470 C 248.304 276.508,246.920 276.595,247.800 276.662 M72.970 302.400 C 72.970 307.130,73.028 309.065,73.098 306.700 C 73.169 304.335,73.169 300.465,73.098 298.100 C 73.028 295.735,72.970 297.670,72.970 302.400 M72.580 353.400 C 72.580 361.100,72.634 364.193,72.699 360.274 C 72.765 356.355,72.765 350.055,72.699 346.274 C 72.634 342.493,72.580 345.700,72.580 353.400 " stroke="none" fill="#a4a4a4" fill-rule="evenodd"></path><path id="path4" d="M107.549 1.100 C 107.056 1.728,107.069 1.746,107.674 1.273 C 108.156 0.895,109.479 0.782,112.337 0.873 C 114.531 0.943,116.242 0.865,116.139 0.700 C 115.713 0.014,108.124 0.367,107.549 1.100 M128.800 2.555 C 128.800 2.640,129.330 2.787,129.979 2.882 C 130.627 2.977,131.067 2.908,130.955 2.728 C 130.757 2.407,128.800 2.250,128.800 2.555 M236.652 12.716 C 236.544 12.890,237.118 12.970,237.928 12.893 C 240.402 12.659,240.693 12.495,238.724 12.446 C 237.692 12.421,236.759 12.542,236.652 12.716 M289.700 12.676 C 290.085 12.776,290.715 12.776,291.100 12.676 C 291.485 12.575,291.170 12.493,290.400 12.493 C 289.630 12.493,289.315 12.575,289.700 12.676 M225.096 14.384 C 224.268 14.544,223.481 14.786,223.346 14.921 C 222.963 15.304,226.153 14.739,226.580 14.348 C 226.789 14.157,226.879 14.021,226.780 14.046 C 226.681 14.071,225.923 14.223,225.096 14.384 M299.431 14.450 C 299.521 14.596,300.301 14.783,301.164 14.865 C 302.027 14.947,302.659 14.895,302.569 14.750 C 302.479 14.604,301.699 14.417,300.836 14.335 C 299.973 14.253,299.341 14.305,299.431 14.450 M145.168 16.300 C 145.359 17.681,145.387 17.709,145.519 16.651 C 145.598 16.019,145.505 15.345,145.312 15.152 C 145.110 14.950,145.049 15.440,145.168 16.300 M215.000 16.291 C 213.284 16.535,212.920 17.072,214.604 16.875 C 215.376 16.785,216.106 16.551,216.227 16.356 C 216.348 16.160,216.392 16.027,216.324 16.060 C 216.256 16.093,215.660 16.197,215.000 16.291 M203.452 18.716 C 203.344 18.890,203.873 18.961,204.628 18.873 C 205.383 18.785,206.000 18.642,206.000 18.556 C 206.000 18.255,203.645 18.403,203.452 18.716 M192.021 20.779 C 191.646 21.016,192.070 21.065,193.221 20.918 C 194.199 20.792,195.075 20.625,195.167 20.545 C 195.542 20.219,192.555 20.440,192.021 20.779 M178.000 22.298 C 176.570 22.377,175.273 22.568,175.118 22.721 C 174.963 22.875,176.043 22.940,177.518 22.868 C 178.993 22.795,180.371 22.570,180.580 22.368 C 180.789 22.165,180.879 22.035,180.780 22.077 C 180.681 22.119,179.430 22.219,178.000 22.298 M153.505 22.683 C 154.002 22.779,154.722 22.775,155.105 22.675 C 155.487 22.575,155.080 22.496,154.200 22.501 C 153.320 22.505,153.007 22.587,153.505 22.683 M376.975 57.732 C 377.591 58.539,378.176 59.200,378.275 59.200 C 378.553 59.200,376.821 56.860,376.309 56.544 C 376.059 56.389,376.359 56.924,376.975 57.732 M82.901 88.200 C 82.905 89.080,82.987 89.393,83.083 88.895 C 83.179 88.398,83.175 87.678,83.075 87.295 C 82.975 86.913,82.896 87.320,82.901 88.200 M82.501 92.200 C 82.505 93.080,82.587 93.393,82.683 92.895 C 82.779 92.398,82.775 91.678,82.675 91.295 C 82.575 90.913,82.496 91.320,82.501 92.200 M397.152 100.487 C 397.337 101.598,397.393 101.655,397.519 100.854 C 397.601 100.333,397.503 99.743,397.301 99.541 C 397.079 99.319,397.021 99.693,397.152 100.487 M80.901 110.600 C 80.905 111.480,80.987 111.793,81.083 111.295 C 81.179 110.798,81.175 110.078,81.075 109.695 C 80.975 109.313,80.896 109.720,80.901 110.600 M80.501 114.600 C 80.505 115.480,80.587 115.793,80.683 115.295 C 80.779 114.798,80.775 114.078,80.675 113.695 C 80.575 113.313,80.496 113.720,80.501 114.600 M399.000 124.000 C 399.000 127.918,399.135 131.040,399.300 130.938 C 399.465 130.836,399.600 127.714,399.600 124.000 C 399.600 120.286,399.465 117.164,399.300 117.062 C 399.135 116.960,399.000 120.082,399.000 124.000 M79.309 130.400 C 79.309 131.390,79.387 131.795,79.482 131.300 C 79.578 130.805,79.578 129.995,79.482 129.500 C 79.387 129.005,79.309 129.410,79.309 130.400 M78.924 137.400 C 78.926 138.720,79.001 139.212,79.090 138.493 C 79.179 137.774,79.177 136.694,79.086 136.093 C 78.995 135.492,78.922 136.080,78.924 137.400 M203.049 140.000 C 201.984 140.880,201.267 141.592,201.456 141.583 C 201.826 141.565,205.538 138.403,205.193 138.401 C 205.079 138.400,204.114 139.120,203.049 140.000 M78.524 143.800 C 78.526 145.120,78.601 145.612,78.690 144.893 C 78.779 144.174,78.777 143.094,78.686 142.493 C 78.595 141.892,78.522 142.480,78.524 143.800 M192.386 148.700 L 190.200 151.000 192.500 148.814 C 194.637 146.782,194.983 146.400,194.686 146.400 C 194.624 146.400,193.589 147.435,192.386 148.700 M78.093 150.400 C 78.093 151.170,78.175 151.485,78.276 151.100 C 78.376 150.715,78.376 150.085,78.276 149.700 C 78.175 149.315,78.093 149.630,78.093 150.400 M77.693 158.400 C 77.693 159.170,77.775 159.485,77.876 159.100 C 77.976 158.715,77.976 158.085,77.876 157.700 C 77.775 157.315,77.693 157.630,77.693 158.400 M397.193 163.081 C 397.087 164.225,397.147 165.015,397.326 164.835 C 397.505 164.656,397.591 163.719,397.518 162.754 L 397.385 161.000 397.193 163.081 M77.309 166.400 C 77.309 167.390,77.387 167.795,77.482 167.300 C 77.578 166.805,77.578 165.995,77.482 165.500 C 77.387 165.005,77.309 165.410,77.309 166.400 M175.200 170.000 C 174.730 170.660,174.436 171.200,174.546 171.200 C 174.656 171.200,175.130 170.660,175.600 170.000 C 176.070 169.340,176.364 168.800,176.254 168.800 C 176.144 168.800,175.670 169.340,175.200 170.000 M76.924 173.400 C 76.926 174.720,77.001 175.212,77.090 174.493 C 77.179 173.774,77.177 172.694,77.086 172.093 C 76.995 171.492,76.922 172.080,76.924 173.400 M395.417 175.700 C 395.087 176.746,394.957 178.750,395.230 178.581 C 395.387 178.484,395.584 177.684,395.668 176.803 C 395.821 175.206,395.717 174.750,395.417 175.700 M76.531 180.200 C 76.533 181.740,76.605 182.321,76.692 181.491 C 76.779 180.661,76.777 179.401,76.689 178.691 C 76.600 177.981,76.529 178.660,76.531 180.200 M242.252 182.716 C 242.144 182.890,242.673 182.961,243.428 182.873 C 244.183 182.785,244.800 182.642,244.800 182.556 C 244.800 182.255,242.445 182.403,242.252 182.716 M227.600 184.400 L 220.600 184.629 227.476 184.714 C 231.724 184.767,234.447 184.647,234.600 184.400 C 234.736 184.180,234.792 184.039,234.724 184.086 C 234.656 184.133,231.450 184.274,227.600 184.400 M194.400 186.297 C 193.190 186.379,192.073 186.571,191.919 186.723 C 191.764 186.875,192.664 186.939,193.919 186.865 C 195.173 186.790,196.371 186.565,196.580 186.365 C 196.789 186.164,196.879 186.033,196.780 186.074 C 196.681 186.115,195.610 186.215,194.400 186.297 M76.114 189.000 C 76.117 190.100,76.195 190.503,76.287 189.895 C 76.379 189.286,76.377 188.386,76.282 187.895 C 76.187 187.403,76.111 187.900,76.114 189.000 M393.180 188.690 C 393.071 189.619,393.133 190.227,393.320 190.040 C 393.506 189.854,393.596 189.094,393.519 188.351 C 393.383 187.033,393.375 187.042,393.180 188.690 M184.800 188.288 C 183.333 188.551,182.962 189.096,184.392 188.886 C 185.062 188.788,185.708 188.549,185.829 188.354 C 185.949 188.159,185.992 188.025,185.924 188.054 C 185.856 188.084,185.350 188.190,184.800 188.288 M391.293 198.400 C 391.293 199.170,391.375 199.485,391.476 199.100 C 391.576 198.715,391.576 198.085,391.476 197.700 C 391.375 197.315,391.293 197.630,391.293 198.400 M75.709 200.400 C 75.709 201.390,75.787 201.795,75.882 201.300 C 75.978 200.805,75.978 199.995,75.882 199.500 C 75.787 199.005,75.709 199.410,75.709 200.400 M75.320 212.000 C 75.320 213.210,75.395 213.705,75.487 213.100 C 75.578 212.495,75.578 211.505,75.487 210.900 C 75.395 210.295,75.320 210.790,75.320 212.000 M74.940 221.600 C 74.940 223.470,75.009 224.235,75.093 223.300 C 75.177 222.365,75.177 220.835,75.093 219.900 C 75.009 218.965,74.940 219.730,74.940 221.600 M74.540 230.800 C 74.540 232.670,74.609 233.435,74.693 232.500 C 74.777 231.565,74.777 230.035,74.693 229.100 C 74.609 228.165,74.540 228.930,74.540 230.800 M74.114 240.200 C 74.117 241.300,74.195 241.703,74.287 241.095 C 74.379 240.486,74.377 239.586,74.282 239.095 C 74.187 238.603,74.111 239.100,74.114 240.200 M174.000 248.125 C 174.000 248.194,174.585 248.779,175.300 249.425 L 176.600 250.600 175.425 249.300 C 174.330 248.088,174.000 247.816,174.000 248.125 M73.754 266.400 C 73.754 269.150,73.818 270.275,73.896 268.900 C 73.974 267.525,73.974 265.275,73.896 263.900 C 73.818 262.525,73.754 263.650,73.754 266.400 M217.541 271.301 C 217.743 271.503,218.333 271.601,218.854 271.519 C 219.655 271.393,219.598 271.337,218.487 271.152 C 217.693 271.021,217.319 271.079,217.541 271.301 M227.541 273.301 C 227.743 273.503,228.333 273.601,228.854 273.519 C 229.655 273.393,229.598 273.337,228.487 273.152 C 227.693 273.021,227.319 273.079,227.541 273.301 M317.400 273.094 C 316.520 273.182,315.670 273.381,315.510 273.536 C 315.351 273.692,315.981 273.751,316.910 273.669 C 317.840 273.586,318.771 273.356,318.980 273.159 C 319.189 272.962,319.279 272.830,319.180 272.867 C 319.081 272.904,318.280 273.006,317.400 273.094 M239.621 275.221 C 240.155 275.560,243.142 275.781,242.767 275.455 C 242.675 275.375,241.799 275.208,240.821 275.082 C 239.670 274.935,239.246 274.984,239.621 275.221 M304.800 275.093 C 302.831 275.324,302.475 275.852,304.413 275.667 C 305.289 275.584,306.105 275.355,306.226 275.158 C 306.348 274.961,306.392 274.829,306.324 274.864 C 306.256 274.899,305.570 275.002,304.800 275.093 M73.361 299.200 C 73.361 302.610,73.422 304.005,73.497 302.300 C 73.572 300.595,73.572 297.805,73.497 296.100 C 73.422 294.395,73.361 295.790,73.361 299.200 M72.986 340.000 C 72.986 351.330,73.037 355.965,73.100 350.300 C 73.162 344.635,73.162 335.365,73.100 329.700 C 73.037 324.035,72.986 328.670,72.986 340.000 M72.492 389.600 C 72.412 399.302,72.457 400.101,73.013 399.033 C 73.348 398.391,73.541 397.671,73.443 397.433 C 73.344 397.195,73.209 397.360,73.142 397.800 C 73.076 398.240,72.922 394.190,72.800 388.800 L 72.579 379.000 72.492 389.600 " stroke="none" fill="#747474" fill-rule="evenodd"></path></g></svg>