<svg id="svg" version="1.1" xmlns="http://www.w3.org/2000/svg" xmlns:xlink="http://www.w3.org/1999/xlink" width="400" height="400" viewBox="0, 0, 400,400"><g id="svgg"><path id="path0" d="M176.529 13.758 C 174.289 14.001,172.324 14.335,172.162 14.500 C 172.000 14.665,171.158 14.800,170.291 14.800 C 168.558 14.800,164.479 15.740,162.600 16.573 C 161.940 16.866,160.410 17.330,159.200 17.605 C 157.990 17.880,156.820 18.238,156.600 18.400 C 156.380 18.563,155.480 18.922,154.600 19.198 C 153.720 19.474,152.050 20.127,150.888 20.650 C 149.727 21.172,148.555 21.600,148.285 21.600 C 146.728 21.600,130.652 31.238,125.800 35.081 C 114.051 44.385,102.049 57.742,96.219 68.000 C 95.157 69.870,93.303 73.110,92.100 75.200 C 89.119 80.379,84.111 90.000,83.423 91.870 C 83.113 92.712,82.207 94.930,81.409 96.800 C 80.611 98.670,79.332 101.820,78.566 103.800 C 77.801 105.780,76.999 107.816,76.785 108.325 C 75.334 111.763,72.341 120.243,71.246 124.016 C 70.834 125.437,69.955 128.400,69.293 130.600 C 65.875 141.964,63.517 151.241,60.801 164.000 C 60.123 167.190,59.219 171.420,58.794 173.400 C 58.369 175.380,57.744 178.772,57.404 180.938 C 57.064 183.104,56.604 185.690,56.381 186.686 C 56.157 187.682,55.614 191.940,55.172 196.149 C 52.987 216.978,52.809 242.668,54.784 252.400 C 56.777 262.223,57.470 264.920,59.106 269.200 C 60.072 271.730,61.190 274.700,61.589 275.800 C 62.393 278.015,63.709 281.158,64.604 283.000 C 64.925 283.660,66.074 286.204,67.157 288.654 C 69.735 294.485,77.236 306.921,81.913 313.118 C 88.727 322.146,89.827 323.518,95.630 330.222 C 102.623 338.303,114.579 350.345,122.612 357.400 C 125.869 360.260,128.748 362.813,129.011 363.073 C 129.273 363.333,130.342 364.284,131.386 365.188 L 133.283 366.830 134.635 366.032 C 135.378 365.594,136.844 364.972,137.893 364.650 C 138.942 364.329,140.556 363.691,141.481 363.233 C 142.405 362.775,143.400 362.400,143.692 362.400 C 143.983 362.400,144.579 362.150,145.016 361.844 C 145.453 361.538,146.708 361.012,147.805 360.676 C 148.902 360.341,150.556 359.691,151.481 359.233 C 152.405 358.775,153.400 358.400,153.692 358.400 C 153.983 358.400,154.579 358.150,155.016 357.844 C 155.453 357.538,156.708 357.012,157.805 356.676 C 158.902 356.341,160.556 355.691,161.481 355.233 C 162.405 354.775,163.400 354.400,163.692 354.400 C 163.983 354.400,164.585 354.146,165.028 353.835 C 165.472 353.525,166.907 352.963,168.217 352.587 C 169.528 352.211,170.780 351.761,171.000 351.587 C 171.220 351.414,172.570 350.969,174.000 350.600 C 175.430 350.231,176.780 349.781,177.000 349.600 C 177.220 349.419,178.570 348.969,180.000 348.600 C 181.430 348.231,182.780 347.781,183.000 347.600 C 183.220 347.419,184.570 346.969,186.000 346.600 C 187.430 346.231,188.780 345.781,189.000 345.600 C 189.220 345.419,190.570 344.969,192.000 344.600 C 193.430 344.231,194.780 343.781,195.000 343.600 C 195.220 343.419,196.570 342.969,198.000 342.600 C 199.430 342.231,200.780 341.789,201.000 341.619 C 201.220 341.449,202.750 340.998,204.400 340.618 C 206.050 340.237,207.960 339.676,208.644 339.371 C 209.328 339.065,210.858 338.611,212.044 338.361 C 213.230 338.111,214.382 337.762,214.603 337.584 C 214.825 337.407,216.253 336.973,217.776 336.620 C 219.299 336.267,220.744 335.813,220.987 335.611 C 221.230 335.409,223.313 334.959,225.615 334.611 C 227.917 334.263,230.083 333.822,230.429 333.630 C 230.775 333.438,233.115 332.970,235.629 332.589 C 238.143 332.208,240.380 331.758,240.600 331.590 C 241.159 331.161,245.859 330.494,250.600 330.170 C 252.800 330.020,254.853 329.695,255.162 329.448 C 255.854 328.896,278.739 328.866,279.619 329.416 C 279.938 329.616,281.640 330.170,283.400 330.647 C 285.160 331.125,287.770 331.837,289.200 332.229 C 294.264 333.619,300.183 338.675,303.399 344.358 C 305.939 348.848,306.516 350.208,308.417 356.200 C 310.720 363.460,316.086 370.043,320.200 370.654 C 323.694 371.173,327.832 370.492,329.644 369.100 C 330.431 368.495,331.275 368.000,331.518 368.000 C 331.761 368.000,332.104 367.775,332.280 367.499 C 332.456 367.224,333.087 366.748,333.682 366.441 C 334.818 365.856,341.483 359.145,343.200 356.857 C 343.750 356.125,344.605 355.116,345.100 354.617 C 345.595 354.117,346.000 353.581,346.000 353.425 C 346.000 353.269,346.990 351.974,348.200 350.548 C 349.410 349.121,350.400 347.782,350.400 347.572 C 350.400 347.233,351.190 346.000,355.679 339.335 C 356.295 338.419,356.800 337.474,356.800 337.235 C 356.800 336.996,356.982 336.800,357.205 336.800 C 357.428 336.800,358.048 335.855,358.584 334.700 C 359.120 333.545,360.469 330.980,361.583 329.000 C 362.696 327.020,363.920 324.770,364.304 324.000 C 364.687 323.230,365.198 322.420,365.439 322.200 C 365.680 321.980,366.104 320.720,366.380 319.400 C 366.656 318.080,367.124 316.460,367.420 315.800 C 367.716 315.140,368.252 313.430,368.610 312.000 C 368.969 310.570,369.428 309.229,369.631 309.020 C 370.105 308.532,370.116 295.484,369.643 294.980 C 369.446 294.771,368.992 293.250,368.634 291.600 C 368.013 288.741,367.539 287.331,366.753 286.000 C 366.558 285.670,366.223 284.995,366.009 284.500 C 365.795 284.005,365.435 283.600,365.210 283.600 C 364.984 283.600,364.800 283.399,364.800 283.154 C 364.800 282.908,364.170 281.849,363.400 280.800 C 362.630 279.751,362.000 278.737,361.999 278.546 C 361.997 278.057,357.543 274.251,350.188 268.458 C 349.962 268.280,348.927 267.809,347.888 267.413 C 346.850 267.016,346.000 266.571,346.000 266.425 C 346.000 266.278,345.100 265.834,344.000 265.439 C 342.900 265.043,342.000 264.593,342.000 264.439 C 342.000 264.284,341.114 263.840,340.032 263.450 C 338.949 263.061,337.972 262.503,337.860 262.211 C 337.747 261.919,336.952 261.561,336.092 261.415 C 335.231 261.270,334.027 260.891,333.415 260.574 C 332.802 260.256,331.199 259.711,329.851 259.362 C 328.503 259.014,327.220 258.581,327.000 258.400 C 326.780 258.219,325.452 257.775,324.049 257.412 C 322.646 257.049,321.116 256.513,320.649 256.221 C 320.182 255.929,318.374 255.487,316.632 255.237 C 314.889 254.988,313.269 254.625,313.032 254.431 C 312.794 254.236,311.593 253.952,310.361 253.800 L 308.123 253.523 305.366 259.557 C 303.851 262.876,302.135 266.100,301.555 266.721 C 300.974 267.342,299.157 269.459,297.518 271.425 C 294.855 274.617,294.162 275.192,291.036 276.791 C 289.110 277.776,287.449 278.721,287.344 278.891 C 287.239 279.061,285.048 279.190,282.476 279.178 L 277.800 279.157 275.200 277.583 C 273.770 276.718,272.015 275.735,271.300 275.399 C 270.585 275.064,270.000 274.631,270.000 274.438 C 270.000 274.245,269.563 273.977,269.028 273.843 C 268.478 273.705,266.311 271.650,264.028 269.100 C 261.813 266.625,259.583 264.150,259.073 263.600 C 257.604 262.016,254.000 256.946,254.000 256.465 C 254.000 256.225,253.640 255.835,253.200 255.600 C 252.760 255.365,252.400 254.985,252.400 254.756 C 252.400 254.527,251.439 253.049,250.264 251.470 C 249.089 249.892,248.014 248.285,247.876 247.900 C 247.738 247.515,247.439 247.200,247.213 247.200 C 246.986 247.200,246.800 247.003,246.800 246.762 C 246.800 246.521,246.395 245.757,245.900 245.066 C 244.636 243.299,242.330 238.737,242.576 238.491 C 242.689 238.378,244.090 238.743,245.690 239.303 C 250.549 241.001,256.497 242.748,258.385 243.031 C 259.366 243.178,260.446 243.444,260.785 243.622 C 261.123 243.799,263.290 244.323,265.600 244.785 C 267.910 245.248,271.960 246.080,274.600 246.635 C 277.240 247.190,281.740 248.006,284.600 248.448 C 287.460 248.890,290.160 249.408,290.600 249.601 C 291.040 249.793,293.020 250.153,295.000 250.401 C 296.980 250.649,299.500 251.113,300.600 251.432 C 301.700 251.751,303.878 252.247,305.439 252.533 L 308.279 253.054 309.101 251.427 C 309.553 250.532,310.134 248.900,310.391 247.800 C 310.649 246.700,311.106 245.260,311.406 244.600 C 311.707 243.940,312.160 242.590,312.413 241.600 C 312.665 240.610,313.112 239.260,313.405 238.600 C 313.698 237.940,314.238 236.320,314.606 235.000 C 314.974 233.680,315.421 232.420,315.598 232.200 C 315.776 231.980,316.223 230.182,316.591 228.204 C 316.960 226.226,317.403 224.426,317.575 224.204 C 317.748 223.982,318.195 222.090,318.569 220.000 C 318.944 217.910,319.405 215.910,319.593 215.556 C 319.782 215.202,320.248 213.312,320.628 211.356 C 321.007 209.400,321.480 207.591,321.679 207.336 C 321.877 207.080,322.311 204.380,322.643 201.336 C 322.975 198.291,323.407 195.440,323.602 195.000 C 323.798 194.560,324.257 191.410,324.623 188.000 C 324.989 184.590,325.404 181.620,325.544 181.400 C 326.879 179.312,327.030 136.370,325.708 134.710 C 325.485 134.429,324.986 131.500,324.599 128.200 C 324.212 124.900,323.739 122.029,323.548 121.820 C 323.357 121.611,323.200 120.951,323.200 120.352 C 323.200 119.118,322.151 114.607,321.583 113.400 C 321.376 112.960,320.928 111.371,320.587 109.869 C 320.247 108.367,319.804 106.837,319.603 106.469 C 319.402 106.101,318.942 104.540,318.580 103.000 C 318.219 101.460,317.701 99.930,317.428 99.600 C 317.155 99.270,316.692 98.370,316.400 97.600 C 316.108 96.830,315.658 95.930,315.400 95.600 C 315.142 95.270,314.692 94.370,314.400 93.600 C 314.108 92.830,313.658 91.930,313.400 91.600 C 313.142 91.270,312.692 90.370,312.400 89.600 C 312.108 88.830,311.628 87.916,311.334 87.569 C 311.040 87.221,310.800 86.758,310.800 86.540 C 310.800 86.321,310.265 85.435,309.611 84.571 C 308.957 83.707,308.417 82.862,308.411 82.694 C 308.405 82.526,307.500 81.150,306.400 79.638 C 305.300 78.126,304.400 76.771,304.400 76.627 C 304.400 76.483,303.674 75.383,302.787 74.182 C 301.900 72.981,301.045 71.663,300.887 71.253 C 300.219 69.516,285.684 54.800,284.637 54.800 C 284.507 54.800,284.085 54.519,283.700 54.176 C 281.773 52.459,276.835 48.800,276.445 48.800 C 276.200 48.800,276.000 48.653,276.000 48.473 C 276.000 48.151,270.591 44.219,268.953 43.351 C 268.487 43.104,267.140 42.139,265.960 41.206 C 264.779 40.273,263.405 39.354,262.907 39.165 C 262.408 38.975,262.000 38.635,262.000 38.410 C 262.000 38.184,261.818 38.000,261.597 38.000 C 261.375 38.000,260.448 37.460,259.537 36.800 C 258.625 36.140,257.749 35.600,257.588 35.600 C 257.314 35.600,253.098 33.195,252.176 32.513 C 250.472 31.252,241.545 26.812,240.700 26.805 C 240.315 26.802,240.000 26.656,240.000 26.480 C 240.000 26.305,239.325 25.922,238.500 25.631 C 237.100 25.136,232.614 23.162,231.153 22.398 C 230.797 22.212,229.717 21.848,228.753 21.591 C 227.789 21.333,226.280 20.798,225.400 20.402 C 224.520 20.006,222.990 19.447,222.000 19.161 C 221.010 18.874,220.101 18.498,219.981 18.326 C 219.860 18.154,218.266 17.730,216.437 17.383 C 214.609 17.037,212.818 16.596,212.457 16.405 C 211.533 15.915,205.303 14.799,203.495 14.800 C 202.667 14.800,201.677 14.633,201.295 14.430 C 199.235 13.332,184.202 12.924,176.529 13.758 M197.096 169.500 C 201.006 172.496,200.560 172.067,204.070 176.200 C 207.439 180.167,208.627 181.814,215.326 191.800 C 222.475 202.458,224.797 206.159,228.377 212.600 C 230.212 215.900,232.294 219.590,233.006 220.800 C 235.588 225.194,242.046 237.687,241.841 237.892 C 241.508 238.225,237.921 237.213,236.600 236.413 C 235.940 236.013,234.813 235.562,234.096 235.410 C 233.379 235.259,232.569 234.924,232.296 234.667 C 232.023 234.409,230.858 233.867,229.708 233.462 C 227.794 232.788,225.527 231.679,215.000 226.266 C 213.020 225.248,210.557 223.691,209.526 222.807 C 208.495 221.923,207.561 221.200,207.451 221.200 C 206.643 221.200,196.506 210.886,193.690 207.200 C 191.990 204.974,188.489 197.299,188.202 195.171 C 188.042 193.977,187.706 192.748,187.455 192.439 C 186.813 191.648,186.826 174.082,187.469 172.762 C 187.727 172.233,188.043 171.313,188.172 170.717 C 189.037 166.721,192.799 166.208,197.096 169.500 " stroke="none" fill="#040404" fill-rule="evenodd"></path><path id="path1" d="M0.000 200.000 L 0.000 400.000 200.000 400.000 L 400.000 400.000 400.000 200.000 L 400.000 0.000 200.000 0.000 L 0.000 0.000 0.000 200.000 M196.884 13.485 C 197.168 13.711,199.020 14.012,201.000 14.153 C 205.548 14.479,210.000 15.226,210.000 15.664 C 210.000 15.849,210.445 16.000,210.989 16.000 C 212.490 16.000,218.043 17.212,219.400 17.836 C 220.060 18.139,221.365 18.577,222.300 18.809 C 223.235 19.041,224.000 19.384,224.000 19.571 C 224.000 19.758,224.672 20.037,225.493 20.191 C 226.314 20.345,227.672 20.803,228.510 21.208 C 229.348 21.613,230.612 22.067,231.317 22.217 C 232.023 22.367,233.410 22.893,234.400 23.387 C 235.390 23.881,237.190 24.734,238.400 25.282 C 246.286 28.855,245.921 28.672,252.296 32.261 C 253.228 32.786,254.848 33.681,255.896 34.249 C 256.943 34.817,257.890 35.402,258.000 35.549 C 258.110 35.696,258.650 36.041,259.200 36.317 C 260.384 36.909,262.715 38.493,263.700 39.374 C 264.085 39.718,264.542 40.000,264.715 40.000 C 264.888 40.000,265.653 40.533,266.415 41.184 C 267.177 41.835,267.991 42.375,268.225 42.384 C 268.458 42.393,269.004 42.715,269.439 43.100 C 270.636 44.162,273.978 46.400,274.366 46.400 C 274.554 46.400,275.003 46.850,275.363 47.400 C 275.724 47.950,276.283 48.400,276.606 48.400 C 276.929 48.400,277.418 48.760,277.693 49.200 C 277.968 49.640,278.356 50.000,278.555 50.000 C 278.754 50.000,279.686 50.630,280.626 51.400 C 281.566 52.170,282.486 52.800,282.671 52.800 C 282.856 52.800,283.232 53.160,283.507 53.600 C 283.782 54.040,284.274 54.400,284.600 54.400 C 284.926 54.400,285.418 54.760,285.693 55.200 C 285.968 55.640,286.402 56.000,286.658 56.000 C 287.126 56.000,294.349 63.178,295.423 64.711 C 295.740 65.164,297.170 66.688,298.600 68.097 C 300.030 69.506,301.200 70.826,301.200 71.031 C 301.200 71.235,301.831 72.302,302.602 73.401 C 303.374 74.501,304.180 75.670,304.395 76.000 C 304.736 76.526,307.254 80.313,308.384 82.000 C 308.605 82.330,309.202 83.230,309.712 84.000 C 312.136 87.662,318.816 101.924,319.454 104.800 C 319.820 106.450,320.235 107.890,320.376 108.000 C 320.517 108.110,320.962 109.640,321.365 111.400 C 321.768 113.160,322.232 114.780,322.396 115.000 C 322.826 115.575,323.521 118.977,323.826 122.000 C 323.971 123.430,324.225 124.780,324.391 125.000 C 324.557 125.220,325.007 128.010,325.392 131.200 C 325.777 134.390,326.206 137.180,326.346 137.400 C 327.374 139.018,327.331 173.214,326.300 174.236 C 326.135 174.399,326.001 175.718,326.003 177.167 C 326.007 180.186,324.765 191.300,324.390 191.600 C 324.253 191.710,323.809 194.860,323.405 198.600 C 323.000 202.340,322.546 205.490,322.397 205.600 C 322.247 205.710,321.798 207.510,321.400 209.600 C 321.002 211.690,320.550 213.490,320.397 213.600 C 320.244 213.710,319.801 215.600,319.412 217.800 C 319.024 220.000,318.564 221.980,318.391 222.200 C 318.218 222.420,317.776 224.220,317.410 226.200 C 317.043 228.180,316.586 230.097,316.393 230.461 C 316.200 230.824,315.747 232.264,315.385 233.661 C 315.024 235.057,314.581 236.380,314.400 236.600 C 314.219 236.820,313.769 238.170,313.400 239.600 C 313.031 241.030,312.581 242.380,312.400 242.600 C 312.219 242.820,311.776 244.143,311.415 245.539 C 311.053 246.936,310.611 248.376,310.432 248.739 C 310.254 249.103,309.925 249.940,309.703 250.600 C 309.480 251.260,309.167 252.115,309.006 252.500 C 308.788 253.024,308.906 253.200,309.477 253.200 C 309.897 253.200,310.411 253.355,310.620 253.545 C 310.829 253.735,312.980 254.218,315.400 254.618 C 317.820 255.017,319.890 255.468,320.000 255.619 C 320.110 255.770,321.280 256.205,322.600 256.585 C 323.920 256.965,325.180 257.413,325.400 257.580 C 325.620 257.748,326.700 258.104,327.800 258.372 C 328.900 258.640,330.340 259.102,331.000 259.399 C 331.660 259.695,333.280 260.238,334.600 260.606 C 335.920 260.974,337.209 261.448,337.465 261.658 C 337.720 261.868,340.928 263.542,344.592 265.378 C 348.256 267.215,351.557 269.003,351.927 269.353 C 353.664 270.993,357.982 274.400,358.324 274.400 C 358.535 274.400,359.003 274.850,359.363 275.400 C 359.724 275.950,360.284 276.400,360.609 276.400 C 360.934 276.400,361.200 276.601,361.200 276.846 C 361.200 277.092,361.830 278.151,362.600 279.200 C 363.370 280.249,364.000 281.308,364.000 281.554 C 364.000 281.799,364.172 282.000,364.381 282.000 C 364.591 282.000,365.054 282.614,365.410 283.364 C 365.765 284.114,366.404 285.042,366.828 285.426 C 367.253 285.810,367.601 286.501,367.602 286.962 C 367.604 287.423,367.841 288.253,368.130 288.807 C 368.419 289.361,368.992 291.296,369.403 293.107 C 369.815 294.918,370.333 296.400,370.555 296.400 C 370.786 296.400,370.754 296.606,370.480 296.880 C 370.152 297.208,370.000 299.136,370.000 302.954 C 370.000 308.098,369.298 312.849,368.426 313.600 C 368.298 313.710,367.854 315.149,367.439 316.798 C 366.586 320.187,366.727 319.834,364.395 324.400 C 361.475 330.118,360.800 331.352,360.464 331.580 C 360.286 331.701,359.794 332.654,359.371 333.699 C 358.947 334.743,358.465 335.598,358.300 335.599 C 358.135 335.599,358.000 335.801,358.000 336.046 C 358.000 336.292,357.370 337.351,356.600 338.400 C 355.830 339.449,355.200 340.514,355.200 340.766 C 355.200 341.019,354.930 341.329,354.600 341.455 C 354.270 341.582,354.000 341.909,354.000 342.183 C 354.000 342.456,353.504 343.382,352.898 344.240 C 352.291 345.098,351.544 346.289,351.238 346.886 C 350.718 347.898,346.707 353.048,344.830 355.114 C 344.374 355.617,344.000 356.180,344.000 356.366 C 344.000 357.030,335.262 365.820,333.627 366.800 C 332.710 367.350,331.114 368.430,330.080 369.200 C 327.734 370.947,324.048 371.653,320.274 371.077 C 315.457 370.341,310.085 363.247,307.190 353.800 C 306.449 351.380,305.273 348.410,304.577 347.200 C 300.205 339.599,300.476 339.937,296.027 336.547 C 293.580 334.683,291.176 333.174,290.382 333.004 C 289.622 332.841,288.820 332.569,288.600 332.401 C 288.380 332.232,287.271 331.898,286.136 331.659 C 285.001 331.420,283.021 330.870,281.736 330.437 C 277.347 328.959,251.840 328.971,250.220 330.453 C 250.011 330.644,249.133 330.800,248.270 330.800 C 246.337 330.800,239.294 331.921,238.200 332.402 C 237.760 332.596,235.510 333.045,233.200 333.400 C 230.890 333.755,228.640 334.202,228.200 334.393 C 227.760 334.584,225.645 335.040,223.500 335.407 C 221.355 335.774,219.600 336.201,219.600 336.356 C 219.600 336.510,218.205 336.961,216.500 337.356 C 214.795 337.752,213.220 338.214,213.000 338.383 C 212.780 338.552,211.250 339.010,209.600 339.400 C 207.950 339.790,206.420 340.245,206.200 340.410 C 205.980 340.576,204.450 341.033,202.800 341.425 C 201.150 341.817,199.710 342.259,199.600 342.405 C 199.490 342.552,198.140 343.005,196.600 343.412 C 195.060 343.818,193.710 344.268,193.600 344.412 C 193.490 344.555,192.140 345.005,190.600 345.412 C 189.060 345.818,187.710 346.268,187.600 346.412 C 187.490 346.555,186.140 347.005,184.600 347.412 C 183.060 347.818,181.710 348.268,181.600 348.412 C 181.490 348.555,180.140 349.005,178.600 349.412 C 177.060 349.818,175.710 350.268,175.600 350.412 C 175.490 350.555,174.140 351.005,172.600 351.412 C 171.060 351.818,169.710 352.259,169.600 352.392 C 169.490 352.525,168.590 352.879,167.600 353.180 C 166.610 353.480,165.440 353.940,165.000 354.202 C 164.560 354.463,163.210 355.001,162.000 355.398 C 160.790 355.794,159.710 356.234,159.600 356.376 C 159.490 356.518,158.590 356.879,157.600 357.180 C 156.610 357.480,155.440 357.940,155.000 358.202 C 154.560 358.463,153.210 359.001,152.000 359.398 C 150.790 359.794,149.710 360.234,149.600 360.376 C 149.490 360.518,148.590 360.879,147.600 361.180 C 146.610 361.480,145.440 361.940,145.000 362.202 C 144.560 362.463,143.210 363.001,142.000 363.398 C 140.790 363.794,139.710 364.234,139.600 364.376 C 139.490 364.518,138.590 364.881,137.600 365.184 C 136.610 365.486,135.208 366.083,134.484 366.509 L 133.168 367.285 131.068 365.343 C 129.913 364.274,126.383 361.150,123.223 358.400 C 116.162 352.254,102.303 338.479,97.245 332.577 C 95.181 330.170,92.493 327.061,91.271 325.669 C 90.049 324.278,87.521 321.128,85.652 318.669 C 83.783 316.211,81.431 313.120,80.424 311.800 C 78.110 308.765,77.008 307.086,74.382 302.600 C 73.223 300.620,71.752 298.190,71.112 297.200 C 69.723 295.050,67.317 290.092,64.222 283.000 C 61.802 277.456,61.416 276.518,59.813 272.303 C 59.249 270.819,58.346 268.479,57.806 267.102 C 57.266 265.725,56.555 263.249,56.226 261.599 C 55.897 259.950,55.266 256.890,54.824 254.800 C 53.471 248.404,52.674 237.243,52.953 228.600 C 53.561 209.801,54.647 193.509,55.596 188.955 C 55.820 187.880,56.364 184.840,56.805 182.200 C 58.063 174.666,60.311 163.509,61.762 157.600 C 62.113 156.170,62.948 152.660,63.617 149.800 C 64.287 146.940,65.083 143.790,65.388 142.800 C 65.693 141.810,66.599 138.570,67.402 135.600 C 68.206 132.630,69.109 129.480,69.410 128.600 C 69.710 127.720,70.614 124.840,71.419 122.200 C 72.796 117.676,73.266 116.345,75.826 109.697 C 76.398 108.214,77.316 105.830,77.866 104.400 C 78.416 102.970,79.212 101.068,79.633 100.174 C 80.055 99.279,80.400 98.409,80.400 98.241 C 80.400 97.958,81.525 95.223,83.706 90.200 C 84.184 89.100,85.502 86.490,86.636 84.400 C 87.769 82.310,89.322 79.430,90.086 78.000 C 90.849 76.570,92.426 73.780,93.589 71.800 C 94.751 69.820,96.030 67.627,96.430 66.926 C 104.144 53.412,122.382 35.491,136.749 27.308 C 138.591 26.258,140.931 24.903,141.949 24.296 C 142.967 23.689,144.430 22.913,145.200 22.571 C 145.970 22.230,147.140 21.713,147.800 21.422 C 148.460 21.132,149.720 20.670,150.600 20.395 C 151.480 20.120,152.380 19.763,152.600 19.601 C 152.820 19.439,153.990 19.002,155.200 18.632 C 156.410 18.261,157.697 17.796,158.061 17.600 C 158.424 17.403,159.864 16.955,161.261 16.604 C 162.657 16.252,164.520 15.685,165.400 15.343 C 166.280 15.001,169.160 14.462,171.800 14.146 C 174.440 13.829,177.500 13.411,178.600 13.215 C 181.288 12.738,196.221 12.958,196.884 13.485 M189.489 169.204 C 186.923 172.202,186.114 192.390,188.456 194.980 C 188.645 195.189,188.800 195.768,188.800 196.266 C 188.800 197.091,189.901 199.917,190.411 200.400 C 190.527 200.510,190.972 201.410,191.400 202.400 C 191.828 203.390,192.273 204.290,192.389 204.400 C 192.505 204.510,192.960 205.313,193.400 206.184 C 193.840 207.055,194.965 208.491,195.900 209.374 C 196.835 210.257,197.600 211.127,197.600 211.307 C 197.600 211.723,204.215 218.400,204.627 218.400 C 204.795 218.400,205.398 218.843,205.967 219.385 C 208.852 222.134,211.648 224.135,214.663 225.608 C 216.498 226.505,218.000 227.374,218.000 227.540 C 218.000 227.706,218.900 228.166,220.000 228.561 C 221.100 228.957,222.000 229.407,222.000 229.561 C 222.000 229.716,222.900 230.166,224.000 230.561 C 225.100 230.957,226.000 231.428,226.000 231.608 C 226.000 231.789,226.585 232.063,227.300 232.217 C 228.015 232.372,229.409 232.926,230.397 233.449 C 231.385 233.972,232.326 234.400,232.487 234.400 C 232.648 234.400,233.959 234.940,235.400 235.600 C 236.841 236.260,238.241 236.801,238.510 236.802 C 238.780 236.804,239.522 237.077,240.160 237.410 C 240.797 237.742,241.379 237.955,241.452 237.881 C 241.726 237.607,233.925 222.998,228.241 213.141 C 227.779 212.338,226.608 210.268,225.639 208.541 C 224.228 206.025,217.933 196.187,214.286 190.800 C 213.288 189.327,209.607 184.012,208.023 181.759 C 206.546 179.658,200.001 171.882,199.536 171.676 C 199.382 171.608,198.081 170.663,196.646 169.576 C 193.157 166.935,191.505 166.849,189.489 169.204 M243.403 239.900 C 243.561 240.285,243.781 240.915,243.892 241.300 C 244.003 241.685,244.240 242.000,244.420 242.000 C 244.599 242.000,244.871 242.405,245.024 242.900 C 245.176 243.395,245.908 244.634,246.651 245.654 C 247.393 246.673,248.000 247.708,248.000 247.954 C 248.000 248.199,248.186 248.400,248.413 248.400 C 248.639 248.400,248.946 248.715,249.093 249.100 C 249.240 249.485,249.909 250.538,250.580 251.440 C 251.251 252.342,252.023 253.422,252.296 253.840 C 252.568 254.258,253.513 255.621,254.396 256.869 C 255.278 258.117,256.000 259.289,256.000 259.473 C 256.000 259.657,256.360 260.032,256.800 260.307 C 257.240 260.582,257.600 261.006,257.600 261.250 C 257.600 261.494,258.298 262.371,259.151 263.198 C 260.003 264.026,260.768 264.890,260.851 265.118 C 261.339 266.475,268.191 273.197,270.262 274.351 C 271.548 275.067,273.140 275.956,273.800 276.327 C 274.460 276.697,275.061 277.139,275.137 277.310 C 275.541 278.228,278.339 278.799,282.349 278.782 L 286.600 278.765 290.477 276.682 C 293.913 274.837,302.400 266.563,302.400 265.058 C 302.400 264.834,306.653 255.759,307.424 254.338 L 308.001 253.275 305.916 252.988 C 304.770 252.831,303.555 252.541,303.216 252.345 C 302.595 251.985,297.536 251.064,287.600 249.500 C 284.630 249.033,282.110 248.539,282.000 248.403 C 281.890 248.266,279.669 247.841,277.063 247.458 C 274.458 247.075,272.028 246.596,271.663 246.393 C 271.299 246.191,269.110 245.653,266.800 245.197 C 257.779 243.417,254.970 242.800,254.200 242.427 C 253.760 242.214,252.230 241.729,250.800 241.349 C 249.370 240.969,248.110 240.539,248.000 240.394 C 247.792 240.118,244.391 239.200,243.580 239.200 C 243.293 239.200,243.225 239.469,243.403 239.900 " stroke="none" fill="#fbfbfb" fill-rule="evenodd"></path><path id="path2" d="M178.600 13.200 L 176.600 13.474 178.476 13.537 C 179.508 13.572,180.464 13.420,180.600 13.200 C 180.736 12.980,180.792 12.828,180.724 12.863 C 180.656 12.897,179.700 13.049,178.600 13.200 M193.165 13.326 C 193.344 13.505,194.281 13.591,195.246 13.518 L 197.000 13.385 194.919 13.193 C 193.775 13.087,192.985 13.147,193.165 13.326 M114.388 44.700 L 111.800 47.400 114.500 44.812 C 117.008 42.407,117.383 42.000,117.088 42.000 C 117.027 42.000,115.812 43.215,114.388 44.700 M320.400 108.976 C 320.400 109.513,320.547 110.044,320.728 110.155 C 320.908 110.267,320.977 109.827,320.882 109.179 C 320.672 107.749,320.400 107.635,320.400 108.976 M324.400 126.576 C 324.400 127.333,324.538 128.038,324.707 128.143 C 324.876 128.247,324.948 127.628,324.865 126.766 C 324.681 124.832,324.400 124.718,324.400 126.576 M326.322 142.519 C 326.390 145.423,326.570 147.927,326.722 148.081 C 326.875 148.236,326.945 145.986,326.878 143.081 C 326.810 140.177,326.630 137.673,326.478 137.519 C 326.325 137.364,326.255 139.614,326.322 142.519 M61.029 160.229 C 60.881 160.815,60.838 161.372,60.932 161.466 C 61.027 161.560,61.224 161.158,61.371 160.571 C 61.519 159.985,61.562 159.428,61.468 159.334 C 61.373 159.240,61.176 159.642,61.029 160.229 M326.397 170.482 C 326.289 172.617,326.342 174.220,326.516 174.045 C 326.691 173.870,326.779 172.123,326.714 170.164 L 326.594 166.600 326.397 170.482 M189.241 169.014 C 188.559 169.792,188.000 170.548,188.000 170.694 C 188.000 170.840,188.136 170.789,188.303 170.580 C 188.470 170.371,189.133 169.615,189.778 168.900 C 190.422 168.185,190.845 167.600,190.716 167.600 C 190.588 167.600,189.924 168.236,189.241 169.014 M324.514 189.800 C 324.517 190.900,324.595 191.303,324.687 190.695 C 324.779 190.086,324.777 189.186,324.682 188.695 C 324.587 188.203,324.511 188.700,324.514 189.800 M54.893 194.000 C 54.893 194.770,54.975 195.085,55.076 194.700 C 55.176 194.315,55.176 193.685,55.076 193.300 C 54.975 192.915,54.893 193.230,54.893 194.000 M322.514 203.800 C 322.517 204.900,322.595 205.303,322.687 204.695 C 322.779 204.086,322.777 203.186,322.682 202.695 C 322.587 202.203,322.511 202.700,322.514 203.800 M53.720 210.000 C 53.720 211.210,53.795 211.705,53.887 211.100 C 53.978 210.495,53.978 209.505,53.887 208.900 C 53.795 208.295,53.720 208.790,53.720 210.000 M320.554 211.777 C 320.432 212.094,320.403 212.679,320.489 213.077 C 320.587 213.528,320.724 213.312,320.854 212.500 C 321.071 211.138,320.930 210.796,320.554 211.777 M53.342 221.000 C 53.341 222.980,53.408 223.840,53.492 222.912 C 53.576 221.984,53.577 220.364,53.495 219.312 C 53.412 218.260,53.343 219.020,53.342 221.000 M318.352 221.113 C 318.221 221.907,318.279 222.281,318.501 222.059 C 318.703 221.857,318.801 221.267,318.719 220.746 C 318.593 219.945,318.537 220.002,318.352 221.113 M52.944 229.600 C 52.944 231.690,53.012 232.545,53.094 231.500 C 53.176 230.455,53.176 228.745,53.094 227.700 C 53.012 226.655,52.944 227.510,52.944 229.600 M316.368 229.300 C 316.249 230.160,316.310 230.650,316.512 230.448 C 316.705 230.255,316.798 229.581,316.719 228.949 C 316.587 227.891,316.559 227.919,316.368 229.300 M52.914 237.400 C 52.917 238.500,52.995 238.903,53.087 238.295 C 53.179 237.686,53.177 236.786,53.082 236.295 C 52.987 235.803,52.911 236.300,52.914 237.400 M53.309 242.000 C 53.309 242.990,53.387 243.395,53.482 242.900 C 53.578 242.405,53.578 241.595,53.482 241.100 C 53.387 240.605,53.309 241.010,53.309 242.000 M254.206 242.410 C 254.306 242.572,254.835 242.790,255.382 242.894 C 255.929 242.999,256.294 242.952,256.194 242.790 C 256.094 242.628,255.565 242.410,255.018 242.306 C 254.471 242.201,254.106 242.248,254.206 242.410 M271.851 246.378 C 272.257 246.745,275.060 247.326,274.703 246.969 C 274.571 246.838,273.797 246.580,272.983 246.396 C 272.168 246.212,271.659 246.204,271.851 246.378 M282.000 248.558 C 282.000 248.645,282.705 248.783,283.566 248.865 C 284.428 248.948,285.047 248.876,284.943 248.707 C 284.753 248.400,282.000 248.260,282.000 248.558 M293.633 250.543 C 293.725 250.622,294.520 250.797,295.400 250.932 C 296.490 251.099,296.809 251.055,296.400 250.795 C 295.853 250.446,293.245 250.209,293.633 250.543 M303.541 252.501 C 303.743 252.703,304.333 252.801,304.854 252.719 C 305.655 252.593,305.598 252.537,304.487 252.352 C 303.693 252.221,303.319 252.279,303.541 252.501 M308.400 253.210 C 308.400 253.375,308.930 253.587,309.579 253.682 C 310.227 253.777,310.680 253.729,310.585 253.575 C 310.338 253.175,308.400 252.851,308.400 253.210 M317.552 255.312 C 317.745 255.505,318.419 255.598,319.051 255.519 C 320.109 255.387,320.081 255.359,318.700 255.168 C 317.840 255.049,317.350 255.110,317.552 255.312 M248.000 330.297 C 246.790 330.379,245.673 330.571,245.519 330.723 C 245.364 330.875,246.264 330.939,247.519 330.865 C 248.773 330.790,249.971 330.565,250.180 330.365 C 250.389 330.164,250.479 330.033,250.380 330.074 C 250.281 330.115,249.210 330.215,248.000 330.297 M237.000 332.291 C 235.284 332.535,234.920 333.072,236.604 332.875 C 237.376 332.785,238.106 332.551,238.227 332.356 C 238.348 332.160,238.392 332.027,238.324 332.060 C 238.256 332.093,237.660 332.197,237.000 332.291 M227.000 334.291 C 225.284 334.535,224.920 335.072,226.604 334.875 C 227.376 334.785,228.106 334.551,228.227 334.356 C 228.348 334.160,228.392 334.027,228.324 334.060 C 228.256 334.093,227.660 334.197,227.000 334.291 M131.970 366.100 C 133.099 367.381,133.195 367.402,134.224 366.578 C 134.963 365.985,134.956 365.978,134.062 366.412 C 133.267 366.799,132.963 366.726,132.062 365.934 L 131.000 365.000 131.970 366.100 M317.424 370.439 C 317.517 370.589,318.212 370.784,318.968 370.872 C 319.725 370.961,320.268 370.910,320.176 370.761 C 320.083 370.611,319.388 370.416,318.632 370.328 C 317.875 370.239,317.332 370.290,317.424 370.439 M327.200 370.293 C 325.231 370.524,324.875 371.052,326.813 370.867 C 327.689 370.784,328.505 370.555,328.626 370.358 C 328.748 370.161,328.792 370.029,328.724 370.064 C 328.656 370.099,327.970 370.202,327.200 370.293 " stroke="none" fill="#9c9c9c" fill-rule="evenodd"></path><path id="path3" d="M183.700 13.097 C 185.405 13.172,188.195 13.172,189.900 13.097 C 191.605 13.022,190.210 12.961,186.800 12.961 C 183.390 12.961,181.995 13.022,183.700 13.097 M324.901 129.800 C 324.905 130.680,324.987 130.993,325.083 130.495 C 325.179 129.998,325.175 129.278,325.075 128.895 C 324.975 128.513,324.896 128.920,324.901 129.800 M326.872 153.276 C 326.832 156.068,326.935 158.437,327.100 158.540 C 327.265 158.642,327.352 157.168,327.293 155.263 C 327.095 148.872,326.945 148.162,326.872 153.276 M326.797 162.882 C 326.689 165.017,326.742 166.620,326.916 166.445 C 327.091 166.270,327.179 164.523,327.114 162.564 L 326.994 159.000 326.797 162.882 M186.966 182.400 C 186.966 186.470,187.025 188.135,187.098 186.100 C 187.171 184.065,187.171 180.735,187.098 178.700 C 187.025 176.665,186.966 178.330,186.966 182.400 M324.909 186.400 C 324.909 187.390,324.987 187.795,325.082 187.300 C 325.178 186.805,325.178 185.995,325.082 185.500 C 324.987 185.005,324.909 185.410,324.909 186.400 M322.909 200.400 C 322.909 201.390,322.987 201.795,323.082 201.300 C 323.178 200.805,323.178 199.995,323.082 199.500 C 322.987 199.005,322.909 199.410,322.909 200.400 M52.893 234.400 C 52.893 235.170,52.975 235.485,53.076 235.100 C 53.176 234.715,53.176 234.085,53.076 233.700 C 52.975 233.315,52.893 233.630,52.893 234.400 M277.553 278.914 C 277.726 279.087,279.833 279.176,282.234 279.112 L 286.600 278.996 281.918 278.798 C 279.344 278.689,277.379 278.741,277.553 278.914 M263.318 329.098 C 265.033 329.173,267.733 329.172,269.318 329.097 C 270.903 329.021,269.500 328.959,266.200 328.960 C 262.900 328.961,261.603 329.022,263.318 329.098 M320.400 370.955 C 320.400 371.040,320.930 371.187,321.579 371.282 C 322.227 371.377,322.667 371.308,322.555 371.128 C 322.357 370.807,320.400 370.650,320.400 370.955 " stroke="none" fill="#7c7c7c" fill-rule="evenodd"></path><path id="path4" d="M201.519 14.465 C 201.673 14.610,202.827 14.790,204.081 14.865 C 205.336 14.939,206.236 14.881,206.081 14.735 C 205.927 14.590,204.773 14.410,203.519 14.335 C 202.264 14.261,201.364 14.319,201.519 14.465 M167.857 14.707 C 167.753 14.876,168.417 14.957,169.334 14.886 C 172.025 14.679,172.353 14.496,170.124 14.446 C 168.982 14.421,167.962 14.538,167.857 14.707 M266.800 41.746 C 266.800 41.856,267.340 42.330,268.000 42.800 C 268.660 43.270,269.200 43.564,269.200 43.454 C 269.200 43.344,268.660 42.870,268.000 42.400 C 267.340 41.930,266.800 41.636,266.800 41.746 M272.800 45.746 C 272.800 45.856,273.340 46.330,274.000 46.800 C 274.660 47.270,275.200 47.564,275.200 47.454 C 275.200 47.344,274.660 46.870,274.000 46.400 C 273.340 45.930,272.800 45.636,272.800 45.746 M111.781 47.700 L 110.200 49.400 111.900 47.819 C 112.835 46.949,113.600 46.184,113.600 46.119 C 113.600 45.816,113.252 46.119,111.781 47.700 M300.800 71.089 C 300.800 71.321,301.171 71.936,301.624 72.456 L 302.447 73.400 301.745 72.200 C 300.820 70.621,300.800 70.597,300.800 71.089 M305.200 78.000 C 305.670 78.660,306.144 79.200,306.254 79.200 C 306.364 79.200,306.070 78.660,305.600 78.000 C 305.130 77.340,304.656 76.800,304.546 76.800 C 304.436 76.800,304.730 77.340,305.200 78.000 M309.200 84.000 C 309.670 84.660,310.144 85.200,310.254 85.200 C 310.364 85.200,310.070 84.660,309.600 84.000 C 309.130 83.340,308.656 82.800,308.546 82.800 C 308.436 82.800,308.730 83.340,309.200 84.000 M323.301 120.200 C 323.305 121.080,323.387 121.393,323.483 120.895 C 323.579 120.398,323.575 119.678,323.475 119.295 C 323.375 118.913,323.296 119.320,323.301 120.200 M325.135 132.836 C 325.217 133.699,325.404 134.479,325.550 134.569 C 325.695 134.659,325.747 134.027,325.665 133.164 C 325.583 132.301,325.396 131.521,325.250 131.431 C 325.105 131.341,325.053 131.973,325.135 132.836 M191.200 167.423 C 192.686 167.747,194.726 167.803,194.548 167.516 C 194.441 167.342,193.508 167.221,192.476 167.246 C 191.444 167.272,190.870 167.352,191.200 167.423 M187.152 173.913 C 187.021 174.707,187.079 175.081,187.301 174.859 C 187.503 174.657,187.601 174.067,187.519 173.546 C 187.393 172.745,187.337 172.802,187.152 173.913 M325.417 181.700 C 325.087 182.746,324.957 184.750,325.230 184.581 C 325.387 184.484,325.584 183.684,325.668 182.803 C 325.821 181.206,325.717 180.750,325.417 181.700 M187.128 191.032 C 187.216 191.788,187.411 192.483,187.561 192.576 C 187.710 192.668,187.761 192.125,187.672 191.368 C 187.584 190.612,187.389 189.917,187.239 189.824 C 187.090 189.732,187.039 190.275,187.128 191.032 M323.190 196.881 C 323.084 197.916,323.145 198.615,323.326 198.434 C 323.507 198.253,323.593 197.407,323.519 196.553 L 323.383 195.000 323.190 196.881 M54.893 197.200 C 54.893 197.970,54.975 198.285,55.076 197.900 C 55.176 197.515,55.176 196.885,55.076 196.500 C 54.975 196.115,54.893 196.430,54.893 197.200 M54.493 200.800 C 54.493 201.570,54.575 201.885,54.676 201.500 C 54.776 201.115,54.776 200.485,54.676 200.100 C 54.575 199.715,54.493 200.030,54.493 200.800 M321.354 207.777 C 321.232 208.094,321.203 208.679,321.289 209.077 C 321.387 209.528,321.524 209.312,321.654 208.500 C 321.871 207.138,321.730 206.796,321.354 207.777 M53.709 214.800 C 53.709 215.790,53.787 216.195,53.882 215.700 C 53.978 215.205,53.978 214.395,53.882 213.900 C 53.787 213.405,53.709 213.810,53.709 214.800 M319.420 215.700 C 319.062 216.853,318.937 218.362,319.214 218.192 C 319.377 218.090,319.585 217.376,319.675 216.604 C 319.839 215.202,319.713 214.755,319.420 215.700 M53.324 227.800 C 53.326 229.120,53.401 229.612,53.490 228.893 C 53.579 228.174,53.577 227.094,53.486 226.493 C 53.395 225.892,53.322 226.480,53.324 227.800 M53.293 238.400 C 53.293 239.170,53.375 239.485,53.476 239.100 C 53.576 238.715,53.576 238.085,53.476 237.700 C 53.375 237.315,53.293 237.630,53.293 238.400 M258.216 243.226 C 258.312 243.381,258.923 243.586,259.574 243.682 C 260.225 243.777,260.679 243.729,260.584 243.574 C 260.488 243.419,259.877 243.214,259.226 243.118 C 258.575 243.023,258.121 243.071,258.216 243.226 M267.200 245.182 C 267.530 245.405,268.145 245.591,268.567 245.594 C 269.590 245.602,269.271 245.373,267.800 245.044 C 266.924 244.848,266.762 244.885,267.200 245.182 M288.000 249.356 C 288.000 249.442,288.617 249.585,289.372 249.673 C 290.127 249.761,290.656 249.690,290.548 249.516 C 290.355 249.203,288.000 249.055,288.000 249.356 M356.800 273.746 C 356.800 273.856,357.340 274.330,358.000 274.800 C 358.660 275.270,359.200 275.564,359.200 275.454 C 359.200 275.344,358.660 274.870,358.000 274.400 C 357.340 273.930,356.800 273.636,356.800 273.746 M257.600 329.200 L 255.000 329.462 257.476 329.531 C 258.838 329.569,260.064 329.420,260.200 329.200 C 260.336 328.980,260.392 328.831,260.324 328.869 C 260.256 328.907,259.030 329.056,257.600 329.200 M272.355 329.316 C 272.530 329.491,274.277 329.579,276.236 329.514 L 279.800 329.394 275.918 329.197 C 273.783 329.089,272.180 329.142,272.355 329.316 M241.800 331.200 L 240.600 331.505 241.676 331.553 C 242.268 331.579,242.864 331.420,243.000 331.200 C 243.136 330.980,243.192 330.821,243.124 330.847 C 243.056 330.873,242.460 331.032,241.800 331.200 M231.800 333.200 L 230.600 333.505 231.676 333.553 C 232.268 333.579,232.864 333.420,233.000 333.200 C 233.136 332.980,233.192 332.821,233.124 332.847 C 233.056 332.873,232.460 333.032,231.800 333.200 M351.200 346.000 C 350.730 346.660,350.436 347.200,350.546 347.200 C 350.656 347.200,351.130 346.660,351.600 346.000 C 352.070 345.340,352.364 344.800,352.254 344.800 C 352.144 344.800,351.670 345.340,351.200 346.000 " stroke="none" fill="#747474" fill-rule="evenodd"></path></g></svg>