<svg id="svg" version="1.1" xmlns="http://www.w3.org/2000/svg" xmlns:xlink="http://www.w3.org/1999/xlink" width="400" height="400" viewBox="0, 0, 400,400"><g id="svgg"><path id="path0" d="M192.000 7.870 C 191.010 7.969,190.029 8.219,189.820 8.425 C 189.611 8.631,188.891 8.800,188.220 8.799 C 186.421 8.798,179.986 9.987,178.600 10.577 C 177.940 10.858,176.500 11.321,175.400 11.606 C 174.300 11.891,173.220 12.253,173.000 12.410 C 172.780 12.567,171.880 12.922,171.000 13.198 C 170.120 13.474,168.450 14.127,167.288 14.650 C 166.127 15.172,164.957 15.601,164.688 15.602 C 164.420 15.604,163.680 15.876,163.045 16.207 C 162.410 16.539,160.880 17.099,159.645 17.453 C 158.410 17.807,157.220 18.228,157.000 18.389 C 156.780 18.550,155.610 19.022,154.400 19.437 C 153.190 19.853,152.103 20.324,151.985 20.483 C 151.866 20.643,150.606 21.058,149.185 21.407 C 147.763 21.755,146.240 22.207,145.800 22.411 C 145.360 22.615,143.650 23.077,142.000 23.438 C 140.350 23.799,138.820 24.236,138.600 24.411 C 138.110 24.800,132.408 26.000,131.050 26.000 C 130.509 26.000,130.007 26.162,129.933 26.360 C 129.757 26.836,120.039 28.000,116.240 28.000 C 114.594 28.000,113.153 28.153,113.037 28.340 C 112.921 28.527,110.076 28.798,106.713 28.942 C 98.675 29.285,91.947 30.006,91.200 30.604 C 90.870 30.868,89.496 31.696,88.147 32.445 C 84.052 34.717,77.809 43.126,75.279 49.779 C 70.770 61.632,69.466 68.257,67.599 88.800 C 66.785 97.749,66.302 370.402,67.100 370.399 C 67.265 370.398,67.747 369.543,68.171 368.499 C 68.594 367.454,69.049 366.510,69.182 366.400 C 69.314 366.290,69.772 365.390,70.200 364.400 C 70.628 363.410,71.078 362.510,71.200 362.400 C 71.322 362.290,71.772 361.390,72.200 360.400 C 72.628 359.410,73.078 358.510,73.200 358.400 C 73.322 358.290,73.772 357.390,74.200 356.400 C 74.628 355.410,75.078 354.510,75.200 354.400 C 75.322 354.290,75.772 353.390,76.200 352.400 C 76.628 351.410,77.078 350.510,77.200 350.400 C 77.322 350.290,77.772 349.390,78.200 348.400 C 78.628 347.410,79.073 346.510,79.189 346.400 C 79.305 346.290,79.727 345.570,80.127 344.800 C 81.611 341.945,82.404 340.606,83.587 338.958 C 84.254 338.029,84.800 337.093,84.800 336.877 C 84.800 336.662,85.070 336.382,85.400 336.255 C 85.730 336.129,86.000 335.819,86.000 335.566 C 86.000 335.314,86.630 334.249,87.400 333.200 C 88.170 332.151,88.800 331.111,88.800 330.889 C 88.800 330.667,89.070 330.382,89.400 330.255 C 89.730 330.129,90.000 329.819,90.000 329.566 C 90.000 329.314,90.630 328.249,91.400 327.200 C 92.170 326.151,92.800 325.111,92.800 324.889 C 92.800 324.667,93.070 324.382,93.400 324.255 C 93.730 324.129,94.000 323.819,94.000 323.566 C 94.000 323.314,94.630 322.249,95.400 321.200 C 96.170 320.151,96.800 319.188,96.800 319.060 C 96.800 318.932,97.430 318.197,98.200 317.427 C 98.970 316.657,99.600 315.916,99.600 315.781 C 99.600 315.646,101.220 313.674,103.200 311.400 C 105.180 309.126,106.800 307.166,106.800 307.046 C 106.800 306.925,107.430 306.197,108.200 305.427 C 108.970 304.657,109.600 303.881,109.600 303.703 C 109.600 303.286,114.917 298.000,115.336 298.000 C 115.509 298.000,116.135 297.550,116.726 297.001 C 119.287 294.618,127.330 287.786,127.745 287.640 C 127.995 287.552,128.290 287.367,128.400 287.229 C 128.510 287.091,129.410 286.628,130.400 286.200 C 131.390 285.772,132.290 285.322,132.400 285.200 C 132.510 285.078,133.410 284.628,134.400 284.200 C 135.390 283.772,136.290 283.322,136.400 283.200 C 136.510 283.078,137.410 282.628,138.400 282.200 C 139.390 281.772,140.290 281.322,140.400 281.200 C 140.510 281.078,141.410 280.646,142.400 280.241 C 143.390 279.836,144.560 279.352,145.000 279.165 C 145.440 278.979,147.960 278.528,150.600 278.163 C 153.240 277.798,155.653 277.297,155.962 277.050 C 156.719 276.443,167.680 276.444,168.443 277.050 C 168.749 277.294,171.070 277.724,173.600 278.006 C 177.723 278.465,182.887 279.954,184.600 281.177 C 184.820 281.334,185.900 281.789,187.000 282.187 C 188.100 282.586,189.180 283.044,189.400 283.204 C 189.620 283.364,190.518 283.727,191.395 284.010 C 194.107 284.885,196.741 286.236,199.527 288.182 C 203.170 290.727,208.867 294.691,209.600 295.191 C 212.882 297.430,215.503 299.342,216.909 300.522 C 217.839 301.304,221.030 303.970,224.000 306.447 C 226.970 308.925,229.606 311.143,229.857 311.376 C 230.948 312.388,244.639 322.923,249.292 326.330 C 260.777 334.741,281.958 348.800,283.143 348.800 C 283.394 348.800,283.600 348.968,283.600 349.173 C 283.600 349.378,284.005 349.672,284.500 349.825 C 284.995 349.978,287.805 351.431,290.745 353.052 C 293.685 354.673,296.156 356.000,296.236 356.000 C 296.317 356.000,297.728 356.630,299.373 357.400 C 301.017 358.170,302.551 358.800,302.782 358.800 C 303.012 358.800,303.200 358.966,303.200 359.169 C 303.200 359.372,303.859 359.755,304.664 360.021 C 305.469 360.287,307.169 361.021,308.442 361.652 C 309.714 362.283,310.999 362.800,311.298 362.800 C 311.596 362.800,312.011 362.946,312.220 363.124 C 312.429 363.302,315.030 364.247,318.000 365.224 C 320.970 366.201,323.490 367.108,323.600 367.241 C 323.710 367.373,325.600 367.799,327.800 368.188 C 330.000 368.576,331.980 369.033,332.200 369.204 C 333.445 370.167,341.825 370.875,351.335 370.820 L 357.270 370.786 360.013 368.693 C 361.522 367.542,362.766 366.315,362.778 365.967 C 362.790 365.618,362.935 365.199,363.100 365.035 C 364.583 363.563,364.664 357.781,363.239 355.187 C 363.053 354.850,362.774 353.950,362.617 353.187 C 362.287 351.576,361.501 349.600,361.190 349.600 C 361.073 349.600,360.627 348.700,360.200 347.600 C 359.773 346.500,359.305 345.600,359.160 345.600 C 359.014 345.600,358.211 344.205,357.374 342.500 C 356.537 340.795,355.053 338.411,354.076 337.202 C 353.099 335.992,352.199 334.732,352.076 334.402 C 351.953 334.071,350.986 332.723,349.926 331.406 C 348.867 330.089,348.000 328.790,348.000 328.520 C 348.000 328.249,347.640 327.835,347.200 327.600 C 346.760 327.365,346.400 326.939,346.400 326.654 C 346.400 326.162,341.170 319.738,339.015 317.585 C 338.457 317.027,338.000 316.432,338.000 316.263 C 338.000 315.808,330.821 307.460,327.387 303.923 C 325.744 302.230,324.400 300.730,324.400 300.590 C 324.400 300.148,306.846 281.776,298.234 273.204 C 293.705 268.696,290.000 264.878,290.000 264.720 C 290.000 264.562,279.830 254.265,267.400 241.837 C 254.970 229.409,244.800 219.134,244.800 219.003 C 244.800 218.755,233.358 206.013,230.197 202.740 C 229.208 201.717,228.400 200.764,228.400 200.624 C 228.400 200.483,226.060 197.720,223.200 194.484 C 216.153 186.512,216.215 186.584,213.762 183.337 C 212.573 181.762,211.600 180.277,211.600 180.037 C 211.600 179.797,211.414 179.600,211.187 179.600 C 210.961 179.600,210.654 179.285,210.507 178.900 C 210.360 178.515,209.501 177.210,208.599 176.000 C 202.885 168.338,200.447 159.680,203.373 157.447 C 204.910 156.275,210.097 155.964,213.400 156.846 C 214.280 157.081,216.620 157.617,218.600 158.036 C 220.580 158.455,222.560 158.967,223.000 159.173 C 223.440 159.379,225.960 159.856,228.600 160.234 C 231.240 160.612,233.528 161.119,233.685 161.361 C 234.119 162.029,258.987 161.971,259.659 161.300 C 259.935 161.025,260.763 160.800,261.501 160.800 C 263.115 160.800,268.323 159.720,269.295 159.183 C 269.677 158.973,270.330 158.800,270.746 158.800 C 271.525 158.800,273.838 157.970,275.600 157.057 C 276.150 156.772,277.410 156.291,278.400 155.986 C 279.390 155.682,280.290 155.331,280.400 155.206 C 280.510 155.080,281.410 154.628,282.400 154.200 C 283.390 153.772,284.290 153.327,284.400 153.211 C 284.726 152.867,287.592 151.600,288.045 151.600 C 288.275 151.600,289.754 150.548,291.331 149.263 C 292.909 147.977,294.650 146.687,295.200 146.396 C 296.552 145.681,302.270 140.498,306.259 136.371 C 309.327 133.197,309.939 132.317,312.005 128.100 C 312.463 127.165,312.980 126.400,313.155 126.400 C 313.329 126.400,313.704 125.095,313.987 123.500 C 314.271 121.905,314.693 120.150,314.926 119.600 C 316.122 116.779,316.277 104.746,315.139 103.000 C 314.996 102.780,314.569 100.980,314.190 99.000 C 313.811 97.020,313.091 94.500,312.590 93.400 C 312.089 92.300,311.211 90.376,310.639 89.125 C 310.068 87.873,309.600 86.588,309.600 86.268 C 309.600 85.947,309.330 85.582,309.000 85.455 C 308.670 85.329,308.400 85.019,308.400 84.766 C 308.400 84.514,307.770 83.449,307.000 82.400 C 306.230 81.351,305.600 80.292,305.600 80.046 C 305.600 79.801,305.416 79.600,305.190 79.600 C 304.965 79.600,304.624 79.189,304.433 78.686 C 304.242 78.183,303.166 76.672,302.043 75.327 C 300.919 73.983,300.000 72.705,300.000 72.487 C 300.000 72.270,299.550 71.797,299.000 71.437 C 298.450 71.076,298.000 70.583,298.000 70.340 C 298.000 70.097,296.695 68.379,295.100 66.522 C 293.505 64.665,292.020 62.862,291.800 62.516 C 291.580 62.170,290.840 61.314,290.157 60.614 C 289.473 59.913,288.843 59.146,288.757 58.910 C 288.063 57.006,268.585 37.549,266.657 36.836 C 266.413 36.745,265.550 35.980,264.738 35.136 C 263.927 34.291,263.091 33.600,262.880 33.600 C 262.670 33.600,262.251 33.302,261.949 32.938 C 261.295 32.149,256.856 28.628,254.600 27.108 C 253.720 26.515,252.229 25.483,251.286 24.815 C 250.343 24.147,249.467 23.600,249.339 23.600 C 249.212 23.600,248.234 22.959,247.168 22.176 C 244.860 20.483,236.149 16.008,233.600 15.207 C 232.610 14.896,231.440 14.431,231.000 14.175 C 230.560 13.918,229.300 13.472,228.200 13.184 C 227.100 12.895,226.110 12.555,226.000 12.427 C 225.695 12.074,223.190 11.281,221.400 10.972 C 220.520 10.820,219.620 10.563,219.400 10.400 C 218.769 9.934,215.274 9.260,212.000 8.974 C 210.350 8.829,208.820 8.567,208.600 8.392 C 208.138 8.023,194.684 7.600,192.000 7.870 " stroke="none" fill="#040404" fill-rule="evenodd"></path><path id="path1" d="M0.000 200.000 L 0.000 400.000 200.000 400.000 L 400.000 400.000 400.000 200.000 L 400.000 0.000 200.000 0.000 L 0.000 0.000 0.000 200.000 M201.400 7.600 C 201.536 7.820,202.942 8.004,204.524 8.008 C 208.217 8.019,216.688 9.015,217.317 9.513 C 217.583 9.723,219.060 10.119,220.600 10.393 C 222.140 10.667,223.782 11.130,224.249 11.421 C 224.716 11.713,226.235 12.246,227.625 12.607 C 229.015 12.967,230.518 13.518,230.965 13.831 C 231.412 14.144,232.003 14.400,232.277 14.400 C 232.788 14.400,236.761 16.067,238.200 16.885 C 238.640 17.135,240.440 18.053,242.200 18.924 C 243.960 19.796,245.973 20.935,246.673 21.455 C 247.374 21.975,248.094 22.400,248.273 22.400 C 248.453 22.401,249.082 22.806,249.670 23.300 C 250.628 24.105,251.556 24.720,254.148 26.271 C 254.581 26.529,255.094 27.024,255.288 27.371 C 255.481 27.717,255.856 28.008,256.120 28.018 C 256.384 28.028,257.526 28.793,258.657 29.718 C 259.789 30.643,261.676 32.186,262.852 33.147 C 264.028 34.108,265.228 35.233,265.518 35.647 C 265.808 36.061,266.265 36.400,266.533 36.400 C 266.801 36.400,267.762 37.189,268.670 38.153 C 269.577 39.118,270.504 39.973,270.728 40.053 C 271.645 40.382,278.244 46.734,282.023 50.924 C 284.243 53.386,286.766 56.138,287.630 57.039 C 288.493 57.941,289.200 58.834,289.200 59.024 C 289.200 59.214,289.657 59.827,290.215 60.385 C 291.811 61.980,297.660 68.942,297.894 69.525 C 298.010 69.813,298.435 70.443,298.839 70.925 C 300.294 72.658,303.810 77.124,304.295 77.854 C 304.567 78.264,305.557 79.770,306.495 81.200 C 307.433 82.630,308.420 84.033,308.689 84.318 C 308.958 84.603,309.392 85.548,309.653 86.418 C 309.913 87.288,310.264 88.000,310.431 88.000 C 310.599 88.000,311.047 88.945,311.427 90.100 C 311.807 91.255,312.237 92.290,312.382 92.400 C 312.828 92.738,313.537 94.908,313.821 96.800 C 313.969 97.790,314.231 98.780,314.402 99.000 C 314.876 99.609,315.540 103.407,315.836 107.200 C 315.982 109.070,316.280 110.825,316.500 111.100 C 316.763 111.430,316.763 111.600,316.501 111.600 C 316.282 111.600,315.984 113.085,315.839 114.900 C 315.570 118.248,314.879 121.872,314.370 122.600 C 314.216 122.820,313.959 123.794,313.799 124.764 C 313.639 125.734,312.899 127.481,312.154 128.645 C 311.409 129.809,310.800 130.950,310.800 131.181 C 310.800 131.411,310.640 131.600,310.443 131.600 C 310.247 131.600,309.983 132.005,309.857 132.500 C 309.514 133.844,297.086 146.000,296.055 146.000 C 295.805 146.000,295.600 146.186,295.600 146.413 C 295.600 146.639,295.285 146.943,294.900 147.086 C 294.515 147.230,292.995 148.304,291.521 149.474 C 290.048 150.643,288.698 151.597,288.521 151.594 C 288.345 151.590,286.310 152.513,284.000 153.644 C 278.745 156.217,277.859 156.606,275.486 157.378 C 274.433 157.720,273.173 158.245,272.686 158.544 C 272.199 158.844,270.450 159.316,268.800 159.595 C 267.150 159.873,265.708 160.245,265.595 160.420 C 264.328 162.394,232.684 162.384,228.200 160.408 C 227.760 160.214,225.527 159.757,223.239 159.393 C 220.950 159.028,218.790 158.572,218.439 158.379 C 215.312 156.661,205.342 156.292,203.338 157.820 C 202.014 158.830,201.196 164.000,202.360 164.000 C 202.558 164.000,203.043 164.900,203.439 166.000 C 203.834 167.100,204.284 168.000,204.439 168.000 C 204.593 168.000,205.043 168.900,205.439 170.000 C 205.834 171.100,206.290 172.000,206.452 172.000 C 206.614 172.000,206.871 172.405,207.024 172.900 C 207.289 173.762,209.627 177.221,210.692 178.329 C 210.971 178.619,211.200 178.999,211.200 179.172 C 211.200 179.346,211.828 180.278,212.596 181.244 C 213.364 182.210,213.994 183.182,213.996 183.404 C 213.998 183.626,214.360 184.032,214.800 184.307 C 215.240 184.582,215.600 185.006,215.600 185.250 C 215.600 185.494,216.320 186.392,217.200 187.246 C 218.080 188.100,218.800 188.905,218.800 189.034 C 218.800 189.164,220.350 191.009,222.245 193.135 C 224.139 195.261,226.434 197.864,227.345 198.921 C 228.255 199.977,229.855 201.741,230.900 202.840 C 231.945 203.939,232.800 204.936,232.800 205.056 C 232.800 205.277,239.641 212.875,243.243 216.654 C 244.319 217.784,245.200 218.829,245.200 218.977 C 245.200 219.125,255.167 229.271,267.348 241.523 C 301.198 275.570,312.868 287.531,322.000 297.539 C 323.650 299.348,326.395 302.258,328.100 304.006 C 329.805 305.755,331.200 307.297,331.200 307.434 C 331.200 307.717,335.505 312.884,337.008 314.404 C 337.553 314.957,338.000 315.548,338.000 315.718 C 338.000 315.888,338.630 316.657,339.400 317.427 C 340.170 318.197,340.800 318.925,340.800 319.045 C 340.800 319.165,341.925 320.570,343.300 322.168 C 344.675 323.765,346.070 325.492,346.400 326.006 C 346.730 326.520,348.125 328.437,349.500 330.266 C 350.875 332.096,352.000 333.755,352.000 333.954 C 352.000 334.152,352.270 334.418,352.600 334.545 C 352.930 334.671,353.200 334.975,353.200 335.220 C 353.200 335.465,353.830 336.434,354.600 337.374 C 355.370 338.314,356.000 339.289,356.000 339.541 C 356.000 339.794,356.156 340.000,356.346 340.000 C 356.536 340.000,357.014 340.855,357.409 341.900 C 357.804 342.945,358.254 343.890,358.410 344.000 C 358.567 344.110,359.383 345.550,360.226 347.200 C 361.068 348.850,361.971 350.470,362.233 350.800 C 362.495 351.130,363.031 352.930,363.425 354.800 C 363.818 356.670,364.307 358.312,364.510 358.448 C 365.090 358.837,364.934 361.277,364.246 362.589 C 363.903 363.244,363.507 364.549,363.366 365.489 C 363.225 366.430,362.902 367.200,362.649 367.200 C 362.396 367.200,361.080 368.097,359.725 369.193 L 357.262 371.186 351.331 371.221 C 344.705 371.261,336.306 370.823,336.000 370.422 C 335.890 370.278,334.000 369.831,331.800 369.429 C 329.600 369.027,327.620 368.571,327.400 368.415 C 327.180 368.260,325.920 367.904,324.600 367.625 C 323.280 367.347,321.660 366.883,321.000 366.594 C 320.340 366.306,318.810 365.769,317.600 365.400 C 316.390 365.031,314.860 364.489,314.200 364.196 C 313.540 363.902,312.460 363.533,311.800 363.376 C 311.140 363.220,310.150 362.855,309.600 362.566 C 309.050 362.277,307.250 361.418,305.600 360.657 C 303.950 359.897,301.393 358.718,299.917 358.037 C 298.441 357.357,297.061 356.800,296.850 356.800 C 296.639 356.800,296.407 356.665,296.333 356.500 C 296.260 356.335,295.210 355.693,294.000 355.073 C 286.146 351.050,281.447 348.446,277.878 346.138 C 271.112 341.762,266.634 338.848,266.000 338.407 C 262.240 335.793,257.483 332.523,256.200 331.670 C 255.320 331.086,254.510 330.512,254.400 330.395 C 254.290 330.277,253.660 329.842,253.000 329.427 C 251.750 328.641,245.743 324.165,238.200 318.401 C 235.780 316.552,229.660 311.593,224.600 307.381 C 219.540 303.170,213.780 298.576,211.800 297.173 C 209.820 295.770,208.110 294.527,208.000 294.411 C 207.890 294.295,206.360 293.232,204.600 292.049 C 199.494 288.616,196.615 286.619,196.400 286.358 C 196.290 286.225,195.480 285.890,194.600 285.614 C 193.720 285.338,192.280 284.780,191.400 284.375 C 188.142 282.876,184.168 281.254,183.100 280.988 C 182.495 280.837,182.000 280.586,182.000 280.430 C 182.000 280.016,177.930 278.800,176.545 278.800 C 175.893 278.800,175.189 278.642,174.980 278.450 C 173.139 276.754,154.470 276.702,150.600 278.382 C 150.160 278.573,148.540 278.921,147.000 279.156 C 141.929 279.930,128.633 286.981,123.165 291.795 C 120.788 293.888,118.723 295.600,118.576 295.600 C 118.428 295.600,117.834 296.048,117.254 296.596 C 116.674 297.143,114.715 298.974,112.900 300.665 C 111.085 302.355,109.600 303.926,109.600 304.154 C 109.600 304.383,109.145 305.027,108.589 305.585 C 106.548 307.635,99.600 315.954,99.600 316.348 C 99.600 316.572,99.250 316.999,98.823 317.299 C 98.015 317.865,94.994 321.972,93.600 324.400 C 93.158 325.170,91.989 326.970,91.002 328.400 C 90.016 329.830,88.482 332.080,87.594 333.400 C 86.706 334.720,85.219 336.928,84.290 338.307 C 81.780 342.030,81.057 343.384,73.725 358.090 C 70.026 365.509,66.862 371.584,66.693 371.590 C 66.172 371.607,66.592 90.586,67.117 87.800 C 67.366 86.480,67.852 82.250,68.197 78.400 C 68.808 71.599,69.689 66.541,71.194 61.200 C 71.597 59.770,72.053 57.970,72.207 57.200 C 72.361 56.430,72.817 54.990,73.220 54.000 C 73.623 53.010,74.443 50.940,75.043 49.400 C 77.408 43.324,84.045 34.029,87.030 32.613 C 87.820 32.238,89.106 31.497,89.889 30.966 C 90.829 30.328,91.876 30.000,92.976 30.000 C 93.891 30.000,94.828 29.812,95.058 29.582 C 95.301 29.339,100.581 28.903,107.638 28.542 C 114.327 28.199,120.160 27.767,120.600 27.582 C 121.040 27.396,122.570 27.132,124.000 26.994 C 127.829 26.625,131.689 25.997,132.600 25.595 C 133.040 25.401,134.840 24.939,136.600 24.569 C 138.360 24.200,139.980 23.760,140.200 23.592 C 140.420 23.424,141.974 22.984,143.653 22.614 C 146.780 21.924,150.549 20.658,156.200 18.399 C 157.960 17.695,160.390 16.831,161.600 16.479 C 162.810 16.126,163.890 15.721,164.000 15.578 C 164.110 15.435,165.190 14.994,166.400 14.598 C 167.610 14.201,168.960 13.659,169.400 13.393 C 169.840 13.126,171.100 12.676,172.200 12.392 C 173.300 12.108,174.382 11.738,174.604 11.569 C 175.812 10.650,185.177 8.576,189.906 8.181 C 191.724 8.029,193.310 7.746,193.430 7.552 C 193.732 7.063,201.095 7.107,201.400 7.600 " stroke="none" fill="#fcfcfc" fill-rule="evenodd"></path><path id="path2" d="" stroke="none" fill="#848484" fill-rule="evenodd"></path><path id="path3" d="M193.460 7.500 C 193.358 7.665,194.562 7.751,196.137 7.691 C 201.010 7.504,201.574 7.331,197.524 7.264 C 195.392 7.229,193.563 7.335,193.460 7.500 M182.600 9.200 L 181.400 9.505 182.476 9.553 C 183.068 9.579,183.664 9.420,183.800 9.200 C 183.936 8.980,183.992 8.821,183.924 8.847 C 183.856 8.873,183.260 9.032,182.600 9.200 M133.800 25.200 L 132.600 25.505 133.676 25.553 C 134.268 25.579,134.864 25.420,135.000 25.200 C 135.136 24.980,135.192 24.821,135.124 24.847 C 135.056 24.873,134.460 25.032,133.800 25.200 M121.500 27.482 C 121.995 27.578,122.805 27.578,123.300 27.482 C 123.795 27.387,123.390 27.309,122.400 27.309 C 121.410 27.309,121.005 27.387,121.500 27.482 M256.767 28.545 C 257.300 29.201,258.800 30.193,258.800 29.889 C 258.800 29.813,258.215 29.322,257.500 28.799 C 256.696 28.210,256.416 28.113,256.767 28.545 M96.800 29.200 L 95.000 29.480 96.676 29.540 C 97.598 29.573,98.464 29.420,98.600 29.200 C 98.736 28.980,98.792 28.827,98.724 28.860 C 98.656 28.893,97.790 29.046,96.800 29.200 M296.364 67.933 C 296.580 68.336,297.071 68.921,297.455 69.233 C 297.887 69.584,297.790 69.304,297.201 68.500 C 296.151 67.065,295.757 66.798,296.364 67.933 M68.893 71.600 C 68.893 72.370,68.975 72.685,69.076 72.300 C 69.176 71.915,69.176 71.285,69.076 70.900 C 68.975 70.515,68.893 70.830,68.893 71.600 M67.293 87.600 C 67.293 88.370,67.375 88.685,67.476 88.300 C 67.576 87.915,67.576 87.285,67.476 86.900 C 67.375 86.515,67.293 86.830,67.293 87.600 M66.893 90.800 C 66.893 91.570,66.975 91.885,67.076 91.500 C 67.176 91.115,67.176 90.485,67.076 90.100 C 66.975 89.715,66.893 90.030,66.893 90.800 M297.578 144.700 L 296.200 146.200 297.700 144.822 C 299.096 143.538,299.384 143.200,299.078 143.200 C 299.012 143.200,298.337 143.875,297.578 144.700 M205.800 156.655 C 208.597 156.949,212.712 156.977,212.540 156.700 C 212.437 156.535,210.608 156.429,208.476 156.464 C 206.344 156.499,205.140 156.585,205.800 156.655 M218.616 158.426 C 218.712 158.581,219.323 158.786,219.974 158.882 C 220.625 158.977,221.079 158.929,220.984 158.774 C 220.888 158.619,220.277 158.414,219.626 158.318 C 218.975 158.223,218.521 158.271,218.616 158.426 M263.445 160.728 C 263.333 160.908,263.773 160.977,264.421 160.882 C 265.070 160.787,265.600 160.640,265.600 160.555 C 265.600 160.250,263.643 160.407,263.445 160.728 M240.364 213.933 C 240.580 214.336,241.071 214.921,241.455 215.233 C 241.887 215.584,241.790 215.304,241.201 214.500 C 240.151 213.065,239.757 212.798,240.364 213.933 M159.062 276.700 C 158.960 276.865,160.282 277.000,162.000 277.000 C 163.718 277.000,165.040 276.865,164.938 276.700 C 164.836 276.535,163.514 276.400,162.000 276.400 C 160.486 276.400,159.164 276.535,159.062 276.700 M149.200 278.293 C 147.231 278.524,146.875 279.052,148.813 278.867 C 149.689 278.784,150.505 278.555,150.626 278.358 C 150.748 278.161,150.792 278.029,150.724 278.064 C 150.656 278.099,149.970 278.202,149.200 278.293 M175.400 278.603 C 176.314 278.921,178.729 279.009,178.548 278.716 C 178.441 278.542,177.598 278.414,176.676 278.432 C 175.754 278.449,175.180 278.526,175.400 278.603 M120.477 293.859 L 118.600 295.718 120.600 293.991 C 121.700 293.041,122.675 292.204,122.767 292.132 C 122.858 292.059,122.803 292.000,122.643 292.000 C 122.484 292.000,121.509 292.837,120.477 293.859 M318.364 293.933 C 318.580 294.336,319.071 294.921,319.455 295.233 C 319.887 295.584,319.790 295.304,319.201 294.500 C 318.151 293.065,317.757 292.798,318.364 293.933 M105.447 308.801 C 104.651 309.682,104.000 310.528,104.000 310.681 C 104.000 310.835,104.135 310.789,104.301 310.580 C 104.467 310.371,105.222 309.525,105.980 308.700 C 106.737 307.875,107.253 307.200,107.125 307.200 C 106.997 307.200,106.242 307.921,105.447 308.801 M350.364 331.933 C 350.580 332.336,351.071 332.921,351.455 333.233 C 351.887 333.584,351.790 333.304,351.201 332.500 C 350.151 331.065,349.757 330.798,350.364 331.933 M327.416 368.426 C 327.512 368.581,328.123 368.786,328.774 368.882 C 329.425 368.977,329.879 368.929,329.784 368.774 C 329.688 368.619,329.077 368.414,328.426 368.318 C 327.775 368.223,327.321 368.271,327.416 368.426 M336.800 370.646 C 339.188 370.946,341.910 370.976,341.739 370.700 C 341.636 370.535,340.258 370.427,338.676 370.460 C 337.094 370.493,336.250 370.576,336.800 370.646 " stroke="none" fill="#9f9f9f" fill-rule="evenodd"></path><path id="path4" d="M185.200 8.802 C 184.600 8.995,185.240 9.037,186.800 8.906 C 188.230 8.786,189.475 8.623,189.567 8.544 C 189.889 8.265,186.188 8.484,185.200 8.802 M210.600 8.818 C 211.700 8.990,213.320 9.120,214.200 9.109 C 215.593 9.090,215.516 9.048,213.600 8.783 C 212.390 8.616,210.770 8.485,210.000 8.493 C 208.878 8.504,208.997 8.569,210.600 8.818 M219.452 10.390 C 219.643 10.570,220.610 10.824,221.600 10.954 C 223.701 11.230,223.347 10.988,220.852 10.444 C 219.890 10.235,219.260 10.211,219.452 10.390 M177.000 10.800 C 176.496 11.017,176.422 11.144,176.800 11.144 C 177.130 11.144,177.760 10.989,178.200 10.800 C 178.704 10.583,178.778 10.456,178.400 10.456 C 178.070 10.456,177.440 10.611,177.000 10.800 M226.400 12.627 C 228.183 13.327,229.355 13.595,228.978 13.218 C 228.757 12.997,227.951 12.720,227.188 12.604 C 226.424 12.487,226.070 12.498,226.400 12.627 M150.200 20.800 C 149.696 21.017,149.622 21.144,150.000 21.144 C 150.330 21.144,150.960 20.989,151.400 20.800 C 151.904 20.583,151.978 20.456,151.600 20.456 C 151.270 20.456,150.640 20.611,150.200 20.800 M246.800 21.746 C 246.800 21.856,247.340 22.330,248.000 22.800 C 248.660 23.270,249.200 23.564,249.200 23.454 C 249.200 23.344,248.660 22.870,248.000 22.400 C 247.340 21.930,246.800 21.636,246.800 21.746 M143.200 22.800 C 142.408 23.054,142.367 23.120,143.000 23.120 C 143.440 23.120,144.250 22.976,144.800 22.800 C 145.592 22.546,145.633 22.480,145.000 22.480 C 144.560 22.480,143.750 22.624,143.200 22.800 M136.928 24.539 C 136.008 24.793,135.139 25.120,134.995 25.266 C 134.614 25.655,138.132 24.751,138.580 24.345 C 138.789 24.155,138.879 24.018,138.780 24.039 C 138.681 24.061,137.848 24.286,136.928 24.539 M252.800 25.746 C 252.800 25.856,253.340 26.330,254.000 26.800 C 254.660 27.270,255.200 27.564,255.200 27.454 C 255.200 27.344,254.660 26.870,254.000 26.400 C 253.340 25.930,252.800 25.636,252.800 25.746 M126.000 26.800 C 124.351 27.056,124.317 27.083,125.600 27.117 C 126.370 27.137,127.720 27.005,128.600 26.823 C 130.666 26.396,128.712 26.378,126.000 26.800 M102.200 28.800 L 98.600 29.049 101.600 29.075 C 103.250 29.090,106.490 28.974,108.800 28.818 L 113.000 28.534 109.400 28.543 C 107.420 28.547,104.180 28.663,102.200 28.800 M68.893 74.400 C 68.893 75.170,68.975 75.485,69.076 75.100 C 69.176 74.715,69.176 74.085,69.076 73.700 C 68.975 73.315,68.893 73.630,68.893 74.400 M68.493 77.600 C 68.493 78.370,68.575 78.685,68.676 78.300 C 68.776 77.915,68.776 77.285,68.676 76.900 C 68.575 76.515,68.493 76.830,68.493 77.600 M66.901 94.200 C 66.905 95.080,66.987 95.393,67.083 94.895 C 67.179 94.398,67.175 93.678,67.075 93.295 C 66.975 92.913,66.896 93.320,66.901 94.200 M66.499 234.180 C 66.444 309.849,66.535 371.589,66.700 371.380 C 66.865 371.171,66.909 309.260,66.799 233.800 L 66.598 96.600 66.499 234.180 M293.722 147.429 L 292.600 148.458 293.900 147.554 C 294.615 147.057,295.200 146.593,295.200 146.525 C 295.200 146.209,294.758 146.480,293.722 147.429 M269.445 159.128 C 269.333 159.308,269.773 159.377,270.421 159.282 C 271.070 159.187,271.600 159.040,271.600 158.955 C 271.600 158.650,269.643 158.807,269.445 159.128 M231.152 160.912 C 231.345 161.105,232.019 161.198,232.651 161.119 C 233.709 160.987,233.681 160.959,232.300 160.768 C 231.440 160.649,230.950 160.710,231.152 160.912 M259.852 161.116 C 259.744 161.290,260.318 161.367,261.128 161.287 C 263.342 161.069,263.605 160.867,261.724 160.832 C 260.802 160.814,259.959 160.942,259.852 161.116 M157.600 276.693 C 155.631 276.924,155.275 277.452,157.213 277.267 C 158.089 277.184,158.905 276.955,159.026 276.758 C 159.148 276.561,159.192 276.429,159.124 276.464 C 159.056 276.499,158.370 276.602,157.600 276.693 M165.110 276.849 C 165.270 276.997,166.160 277.186,167.090 277.269 C 168.019 277.351,168.649 277.298,168.490 277.151 C 168.330 277.003,167.440 276.814,166.510 276.731 C 165.581 276.649,164.951 276.702,165.110 276.849 M126.175 288.900 L 125.000 290.200 126.300 289.025 C 127.512 287.930,127.784 287.600,127.475 287.600 C 127.406 287.600,126.821 288.185,126.175 288.900 M112.189 300.900 L 109.400 303.800 112.300 301.011 C 114.994 298.420,115.383 298.000,115.089 298.000 C 115.028 298.000,113.723 299.305,112.189 300.900 M330.791 307.588 C 331.257 308.241,331.842 308.902,332.091 309.056 C 332.341 309.211,332.041 308.676,331.425 307.868 C 330.088 306.115,329.584 305.892,330.791 307.588 M100.575 314.500 L 99.400 315.800 100.700 314.625 C 101.912 313.530,102.184 313.200,101.875 313.200 C 101.806 313.200,101.221 313.785,100.575 314.500 M352.791 335.588 C 353.257 336.241,353.842 336.902,354.091 337.056 C 354.341 337.211,354.041 336.676,353.425 335.868 C 352.088 334.115,351.584 333.892,352.791 335.588 M362.800 365.836 C 362.800 366.186,362.395 366.826,361.900 367.260 L 361.000 368.047 362.100 367.378 C 363.013 366.822,363.683 365.200,363.000 365.200 C 362.890 365.200,362.800 365.486,362.800 365.836 M342.503 371.037 C 342.765 371.298,356.867 371.266,357.129 371.004 C 357.239 370.894,353.948 370.811,349.815 370.820 C 345.683 370.828,342.392 370.926,342.503 371.037 " stroke="none" fill="#7c7c7c" fill-rule="evenodd"></path></g></svg>