<svg id="svg" version="1.1" xmlns="http://www.w3.org/2000/svg" xmlns:xlink="http://www.w3.org/1999/xlink" width="400" height="400" viewBox="0, 0, 400,400"><g id="svgg"><path id="path0" d="M0.000 200.000 L 0.000 400.000 200.000 400.000 L 400.000 400.000 400.000 200.000 L 400.000 0.000 200.000 0.000 L 0.000 0.000 0.000 200.000 M253.007 18.001 C 257.851 18.231,262.801 18.591,264.007 18.802 C 265.213 19.013,269.170 19.628,272.800 20.169 C 276.430 20.709,281.380 21.597,283.800 22.142 C 293.952 24.426,295.595 24.815,299.013 25.738 C 302.900 26.787,319.540 32.403,324.400 34.305 C 326.050 34.951,329.593 36.307,332.272 37.319 C 334.952 38.331,337.472 39.345,337.872 39.572 C 338.273 39.800,339.950 40.602,341.600 41.354 C 348.899 44.684,353.342 46.991,358.037 49.890 C 362.437 52.606,364.093 53.829,368.142 57.345 C 368.614 57.755,369.613 58.563,370.361 59.140 C 371.110 59.716,373.148 61.901,374.890 63.994 C 379.069 69.014,379.200 69.178,379.200 69.396 C 379.200 69.633,381.857 75.473,382.569 76.800 C 382.864 77.350,383.343 79.645,383.634 81.900 C 383.925 84.155,384.329 86.000,384.531 86.000 C 384.734 86.000,384.717 86.224,384.493 86.500 C 384.271 86.775,383.962 88.890,383.808 91.200 C 383.603 94.281,383.284 95.933,382.612 97.400 C 382.108 98.500,381.559 99.850,381.392 100.400 C 381.225 100.950,380.753 102.027,380.344 102.794 C 379.935 103.561,379.600 104.342,379.600 104.530 C 379.600 104.717,378.263 106.790,376.629 109.135 C 368.295 121.098,354.728 130.289,338.200 135.167 C 317.976 141.138,307.296 142.513,272.600 143.615 C 254.949 144.176,248.445 145.129,239.600 148.451 C 237.572 149.212,233.005 152.978,232.862 154.007 C 232.786 154.553,232.581 155.180,232.406 155.400 C 231.685 156.311,231.526 159.923,232.149 161.269 C 232.488 162.001,233.146 163.635,233.612 164.901 C 234.834 168.222,240.708 175.456,246.159 180.351 C 247.722 181.755,250.222 183.996,251.717 185.332 C 254.354 187.691,262.122 193.924,268.001 198.400 C 269.590 199.610,271.100 200.780,271.355 201.000 C 273.001 202.417,276.467 204.819,288.000 212.533 C 295.150 217.315,302.890 222.559,305.200 224.186 C 307.510 225.814,311.290 228.446,313.600 230.037 C 319.550 234.134,334.819 246.856,341.161 253.000 C 349.863 261.431,351.181 262.835,355.800 268.589 C 358.220 271.604,360.380 274.279,360.600 274.535 C 361.052 275.060,363.600 279.181,363.600 279.386 C 363.600 279.460,364.313 280.663,365.184 282.060 C 368.181 286.867,368.671 287.875,369.351 290.633 C 369.727 292.155,370.341 294.030,370.717 294.800 C 372.073 297.579,371.825 313.973,370.399 315.800 C 370.227 316.020,369.871 317.250,369.608 318.533 C 369.206 320.495,368.553 321.642,365.510 325.733 C 357.723 336.204,347.917 344.475,334.600 351.806 C 333.500 352.412,332.420 353.030,332.200 353.181 C 330.872 354.092,317.736 359.404,310.600 361.916 C 301.167 365.238,293.092 367.072,278.600 369.184 C 262.649 371.510,269.712 371.365,167.000 371.479 L 72.600 371.584 71.551 369.892 C 70.974 368.961,68.708 365.410,66.515 362.000 C 64.323 358.590,62.296 355.361,62.011 354.825 C 61.725 354.289,61.331 353.659,61.135 353.425 C 60.939 353.191,60.217 352.100,59.529 351.000 C 58.842 349.900,57.878 348.370,57.388 347.600 C 56.182 345.707,44.800 325.198,44.800 324.918 C 44.800 324.795,43.919 322.874,42.843 320.648 C 38.760 312.205,36.506 307.362,36.209 306.398 C 36.040 305.849,35.743 305.200,35.549 304.956 C 35.355 304.713,34.838 303.472,34.400 302.200 C 33.962 300.928,33.445 299.687,33.251 299.444 C 33.057 299.200,32.766 298.550,32.604 298.000 C 32.292 296.938,30.186 291.809,29.648 290.800 C 29.472 290.470,29.015 288.850,28.633 287.200 C 28.251 285.550,27.779 283.840,27.583 283.400 C 27.388 282.960,26.944 281.430,26.597 280.000 C 26.250 278.570,25.850 277.130,25.708 276.800 C 24.477 273.934,24.051 255.214,25.200 254.400 C 25.355 254.290,25.814 253.480,26.220 252.600 C 26.626 251.720,27.079 250.910,27.225 250.800 C 27.372 250.690,27.861 249.873,28.311 248.984 C 32.617 240.488,56.930 236.529,73.474 241.629 C 74.973 242.091,77.370 242.835,78.800 243.282 C 84.942 245.201,100.610 252.632,106.200 256.277 C 112.712 260.523,116.498 263.142,121.400 266.791 C 124.260 268.919,128.760 272.266,131.400 274.227 C 134.040 276.188,137.100 278.211,138.200 278.722 C 139.300 279.234,141.280 280.167,142.600 280.796 C 143.920 281.425,146.166 282.131,147.590 282.366 L 150.181 282.792 152.090 280.911 L 154.000 279.030 154.001 275.415 C 154.002 273.427,153.737 270.630,153.414 269.200 C 153.090 267.770,152.567 265.340,152.250 263.800 C 151.933 262.260,151.193 259.470,150.605 257.600 C 150.017 255.730,149.176 252.940,148.735 251.400 C 148.294 249.860,147.588 247.868,147.167 246.974 C 146.745 246.079,146.400 245.199,146.400 245.018 C 146.400 244.836,146.047 243.948,145.615 243.044 C 145.183 242.140,144.083 239.510,143.172 237.200 C 139.682 228.357,139.831 228.716,137.327 223.200 C 136.778 221.990,136.002 220.280,135.605 219.400 C 134.892 217.824,132.644 212.718,131.114 209.200 C 130.684 208.210,130.003 206.680,129.602 205.800 C 129.200 204.920,128.388 203.120,127.797 201.800 C 126.360 198.594,124.920 195.434,123.787 193.000 C 121.249 187.548,119.028 182.379,118.373 180.400 C 117.972 179.190,117.088 176.670,116.408 174.800 C 115.728 172.930,114.900 170.500,114.568 169.400 C 114.236 168.300,113.793 167.040,113.584 166.600 C 112.502 164.324,110.879 158.895,108.980 151.200 C 108.627 149.770,108.005 147.520,107.599 146.200 C 107.192 144.880,106.646 142.720,106.386 141.400 C 106.125 140.080,105.796 138.820,105.656 138.600 C 104.178 136.287,103.609 102.027,104.985 98.200 C 105.143 97.760,105.427 97.040,105.617 96.600 C 105.806 96.160,106.259 94.270,106.622 92.400 C 106.986 90.530,107.425 88.820,107.597 88.600 C 107.769 88.380,108.037 87.428,108.193 86.484 C 108.348 85.540,109.829 82.120,111.483 78.884 C 115.490 71.046,116.226 69.793,118.372 67.150 C 119.378 65.913,121.444 63.336,122.964 61.424 C 126.223 57.324,126.149 57.394,133.619 51.285 C 147.134 40.231,176.774 26.387,196.000 22.148 C 198.530 21.591,201.698 20.887,203.041 20.586 C 210.644 18.877,236.549 16.881,243.200 17.492 C 243.750 17.542,248.163 17.772,253.007 18.001 " stroke="none" fill="#fbfbfb" fill-rule="evenodd"></path><path id="path1" d="M231.000 18.010 C 221.410 18.359,207.001 19.992,201.200 21.386 C 198.890 21.941,195.290 22.768,193.200 23.224 C 191.110 23.679,187.870 24.605,186.000 25.282 C 184.130 25.958,181.430 26.931,180.000 27.443 C 173.909 29.625,172.048 30.351,169.400 31.575 C 167.860 32.288,164.170 33.961,161.200 35.294 C 156.240 37.520,150.125 40.749,143.000 44.906 C 141.460 45.804,138.940 47.550,137.400 48.785 C 128.543 55.888,126.187 57.822,126.071 58.083 C 126.000 58.243,124.560 60.066,122.871 62.135 C 121.182 64.204,119.350 66.482,118.800 67.196 C 118.250 67.910,117.428 68.968,116.974 69.547 C 116.520 70.126,115.420 72.040,114.531 73.800 C 113.641 75.560,111.988 78.753,110.857 80.894 C 109.725 83.036,108.800 85.064,108.800 85.400 C 108.800 85.736,108.629 86.323,108.421 86.705 C 108.213 87.087,107.753 88.840,107.400 90.600 C 107.047 92.360,106.601 94.160,106.409 94.600 C 105.553 96.562,104.800 101.640,104.800 105.449 C 104.800 107.950,104.641 109.600,104.400 109.600 C 103.930 109.600,103.834 123.301,104.300 123.765 C 104.465 123.928,104.892 127.557,105.249 131.828 C 105.605 136.100,106.075 139.821,106.291 140.097 C 106.508 140.374,107.014 142.220,107.416 144.200 C 107.818 146.180,108.262 147.890,108.403 148.000 C 108.544 148.110,108.982 149.730,109.377 151.600 C 109.771 153.470,110.223 155.180,110.381 155.400 C 110.539 155.620,110.897 156.880,111.178 158.200 C 111.458 159.520,112.017 161.330,112.419 162.223 C 112.821 163.115,113.370 164.735,113.640 165.823 C 113.909 166.910,114.249 167.890,114.394 168.000 C 114.539 168.110,114.979 169.370,115.372 170.800 C 115.765 172.230,116.230 173.580,116.405 173.800 C 116.581 174.020,117.027 175.244,117.397 176.520 C 117.766 177.797,118.322 179.327,118.632 179.920 C 118.942 180.514,119.196 181.225,119.198 181.499 C 119.200 181.932,120.107 184.080,122.197 188.600 C 124.761 194.145,125.612 196.107,125.832 196.984 C 125.972 197.543,126.218 198.000,126.378 198.000 C 126.539 198.000,127.007 198.990,127.418 200.200 C 127.829 201.410,128.272 202.400,128.402 202.400 C 128.533 202.400,128.878 203.075,129.169 203.900 C 129.461 204.725,130.240 206.570,130.901 208.000 C 133.222 213.021,133.555 213.809,133.820 214.900 C 133.967 215.505,134.233 216.000,134.411 216.000 C 134.590 216.000,135.047 216.945,135.427 218.100 C 135.807 219.255,136.237 220.290,136.382 220.400 C 136.527 220.510,136.889 221.230,137.186 222.000 C 137.880 223.796,139.901 228.287,140.634 229.662 C 140.945 230.246,141.200 230.923,141.200 231.166 C 141.200 231.410,141.551 232.372,141.980 233.304 C 142.409 234.237,143.129 235.945,143.580 237.100 C 144.031 238.255,144.769 240.145,145.220 241.300 C 145.671 242.455,146.391 244.163,146.820 245.096 C 147.249 246.028,147.601 247.018,147.602 247.296 C 147.604 247.573,147.847 248.263,148.142 248.829 C 148.437 249.395,149.004 251.195,149.401 252.829 C 149.797 254.463,150.247 255.890,150.400 256.000 C 150.553 256.110,151.003 257.550,151.400 259.200 C 151.797 260.850,152.246 262.290,152.397 262.400 C 152.935 262.791,154.005 271.462,154.002 275.415 L 154.000 279.430 152.028 281.373 L 150.056 283.315 147.553 282.823 C 142.551 281.839,137.274 279.111,130.291 273.900 C 127.711 271.975,123.485 268.846,120.900 266.948 C 118.315 265.049,115.570 263.013,114.800 262.423 C 114.030 261.833,112.320 260.674,111.000 259.848 C 109.680 259.022,107.250 257.467,105.600 256.392 C 102.922 254.647,89.242 247.600,88.534 247.600 C 88.379 247.600,87.521 247.256,86.626 246.836 C 83.461 245.349,79.260 243.600,78.854 243.600 C 78.627 243.600,77.000 243.145,75.238 242.588 C 60.008 237.777,41.987 239.024,32.551 245.542 C 25.655 250.306,23.846 256.608,25.267 270.920 C 25.635 274.616,26.105 277.856,26.313 278.120 C 26.521 278.384,27.010 279.950,27.400 281.600 C 27.790 283.250,28.245 284.780,28.410 285.000 C 28.576 285.220,28.937 286.480,29.213 287.800 C 29.490 289.120,29.932 290.560,30.196 291.000 C 30.461 291.440,31.001 292.790,31.398 294.000 C 31.794 295.210,32.243 296.290,32.395 296.400 C 32.548 296.510,32.959 297.410,33.309 298.400 C 34.711 302.361,36.287 306.041,39.303 312.400 C 40.399 314.710,42.063 318.220,43.001 320.200 C 45.198 324.836,46.010 326.462,47.598 329.400 C 48.311 330.720,49.174 332.340,49.516 333.000 C 49.858 333.660,50.243 334.290,50.372 334.400 C 50.502 334.510,50.966 335.320,51.404 336.200 C 51.842 337.080,52.304 337.890,52.431 338.000 C 52.559 338.110,52.934 338.740,53.266 339.400 C 53.598 340.060,54.471 341.680,55.207 343.000 C 55.942 344.320,56.833 345.940,57.187 346.600 C 57.541 347.260,58.705 349.150,59.774 350.800 C 60.843 352.450,62.142 354.475,62.659 355.300 C 64.056 357.528,65.191 359.299,68.558 364.507 C 70.231 367.096,71.600 369.363,71.600 369.545 C 71.600 371.281,67.120 371.200,163.231 371.200 C 255.615 371.201,264.570 371.070,272.800 369.600 C 274.010 369.384,277.700 368.847,281.000 368.407 C 286.362 367.693,291.056 366.768,301.400 364.390 C 303.160 363.985,305.860 363.201,307.400 362.647 C 308.940 362.093,311.280 361.266,312.599 360.808 C 316.381 359.496,319.960 358.080,326.592 355.274 C 331.636 353.139,341.696 347.566,344.800 345.186 C 345.570 344.596,347.640 343.057,349.400 341.766 C 353.514 338.748,361.572 330.630,364.400 326.654 C 365.610 324.953,367.075 322.940,367.655 322.182 C 368.236 321.423,368.837 320.127,368.991 319.301 C 369.145 318.476,369.414 317.620,369.589 317.400 C 371.724 314.710,371.728 295.551,369.594 292.600 C 369.435 292.380,369.077 291.231,368.799 290.046 C 368.518 288.847,367.341 286.335,366.147 284.384 C 364.966 282.455,364.000 280.761,364.000 280.621 C 364.000 280.481,363.816 280.149,363.592 279.883 C 363.367 279.617,362.443 278.230,361.538 276.800 C 360.634 275.370,358.372 272.348,356.512 270.086 C 354.653 267.823,352.496 265.123,351.721 264.086 C 350.945 263.048,350.055 261.996,349.744 261.748 C 349.432 261.499,345.987 258.221,342.089 254.464 C 334.611 247.259,320.769 235.572,314.392 231.080 C 312.307 229.611,308.710 227.116,306.400 225.536 C 304.090 223.956,302.110 222.559,302.000 222.432 C 301.705 222.090,299.079 220.312,285.800 211.464 C 279.200 207.066,273.224 203.003,272.520 202.434 C 271.816 201.865,270.826 201.082,270.320 200.694 C 258.462 191.589,255.689 189.324,247.432 182.000 C 244.501 179.400,241.623 176.485,239.794 174.265 C 238.917 173.201,237.514 171.581,236.675 170.665 C 234.245 168.012,230.918 160.342,231.385 158.468 C 231.531 157.880,231.865 156.365,232.128 155.099 C 232.690 152.389,236.345 149.230,240.682 147.706 C 251.139 144.032,254.021 143.723,290.200 142.395 C 296.800 142.152,303.730 141.709,305.600 141.409 C 307.470 141.109,311.160 140.654,313.800 140.396 C 316.440 140.139,319.500 139.676,320.600 139.368 C 321.700 139.060,325.300 138.160,328.600 137.368 C 331.900 136.577,335.590 135.597,336.800 135.191 C 338.010 134.784,340.620 133.966,342.600 133.372 C 346.445 132.220,356.490 127.438,358.784 125.668 C 360.349 124.461,361.151 123.894,363.632 122.241 C 366.967 120.018,373.404 113.320,376.081 109.285 C 379.606 103.972,379.807 103.624,380.391 101.800 C 380.673 100.920,381.144 99.750,381.439 99.200 C 382.610 97.015,383.200 95.015,383.200 93.231 C 383.200 92.202,383.381 91.179,383.603 90.957 C 384.129 90.431,384.190 84.303,383.678 83.343 C 383.459 82.934,383.148 81.520,382.986 80.200 C 381.978 72.007,371.423 58.645,360.720 52.014 C 356.405 49.341,350.075 45.600,349.865 45.600 C 349.755 45.600,346.995 44.316,343.732 42.746 C 338.532 40.245,333.725 38.238,326.600 35.595 C 325.500 35.187,323.160 34.297,321.400 33.617 C 319.640 32.937,314.150 31.019,309.200 29.355 C 300.875 26.557,297.467 25.633,287.800 23.559 C 285.820 23.135,283.643 22.605,282.962 22.383 C 282.281 22.161,279.401 21.620,276.562 21.180 C 273.723 20.741,269.690 20.117,267.600 19.794 C 257.830 18.281,243.176 17.567,231.000 18.010 " stroke="none" fill="#040404" fill-rule="evenodd"></path><path id="path2" d="M229.100 17.889 C 229.815 17.978,230.985 17.978,231.700 17.889 C 232.415 17.801,231.830 17.728,230.400 17.728 C 228.970 17.728,228.385 17.801,229.100 17.889 M247.700 17.876 C 248.085 17.976,248.715 17.976,249.100 17.876 C 249.485 17.775,249.170 17.693,248.400 17.693 C 247.630 17.693,247.315 17.775,247.700 17.876 M256.100 18.276 C 256.485 18.376,257.115 18.376,257.500 18.276 C 257.885 18.175,257.570 18.093,256.800 18.093 C 256.030 18.093,255.715 18.175,256.100 18.276 M213.300 19.076 C 213.685 19.176,214.315 19.176,214.700 19.076 C 215.085 18.975,214.770 18.893,214.000 18.893 C 213.230 18.893,212.915 18.975,213.300 19.076 M105.134 135.718 C 105.207 137.083,105.387 138.327,105.534 138.482 C 105.680 138.636,105.740 137.646,105.666 136.282 C 105.593 134.917,105.413 133.673,105.266 133.518 C 105.120 133.364,105.060 134.354,105.134 135.718 M299.505 142.283 C 300.002 142.379,300.722 142.375,301.105 142.275 C 301.487 142.175,301.080 142.096,300.200 142.101 C 299.320 142.105,299.007 142.187,299.505 142.283 M292.307 142.690 C 293.026 142.779,294.106 142.777,294.707 142.686 C 295.308 142.595,294.720 142.522,293.400 142.524 C 292.080 142.526,291.588 142.601,292.307 142.690 M285.907 143.090 C 286.626 143.179,287.706 143.177,288.307 143.086 C 288.908 142.995,288.320 142.922,287.000 142.924 C 285.680 142.926,285.188 143.001,285.907 143.090 M273.312 143.495 C 274.364 143.577,275.984 143.576,276.912 143.492 C 277.840 143.408,276.980 143.341,275.000 143.342 C 273.020 143.343,272.260 143.412,273.312 143.495 M254.100 144.676 C 254.485 144.776,255.115 144.776,255.500 144.676 C 255.885 144.575,255.570 144.493,254.800 144.493 C 254.030 144.493,253.715 144.575,254.100 144.676 M250.305 145.083 C 250.802 145.179,251.522 145.175,251.905 145.075 C 252.287 144.975,251.880 144.896,251.000 144.901 C 250.120 144.905,249.807 144.987,250.305 145.083 M232.880 152.880 C 232.616 153.144,232.425 153.819,232.454 154.380 L 232.509 155.400 232.693 154.400 C 232.794 153.850,233.061 153.175,233.287 152.900 C 233.811 152.262,233.513 152.247,232.880 152.880 M54.500 239.496 C 55.765 239.575,57.835 239.575,59.100 239.496 C 60.365 239.416,59.330 239.351,56.800 239.351 C 54.270 239.351,53.235 239.416,54.500 239.496 M340.600 252.800 C 341.906 254.120,343.065 255.200,343.175 255.200 C 343.285 255.200,342.306 254.120,341.000 252.800 C 339.694 251.480,338.535 250.400,338.425 250.400 C 338.315 250.400,339.294 251.480,340.600 252.800 M25.246 274.276 C 25.221 275.418,25.338 276.438,25.507 276.543 C 25.676 276.647,25.757 275.983,25.686 275.066 C 25.479 272.375,25.296 272.047,25.246 274.276 M152.000 281.000 C 151.028 281.990,150.323 282.800,150.433 282.800 C 150.543 282.800,151.428 281.990,152.400 281.000 C 153.372 280.010,154.077 279.200,153.967 279.200 C 153.857 279.200,152.972 280.010,152.000 281.000 M29.106 289.418 C 29.210 289.965,29.428 290.494,29.590 290.594 C 29.752 290.694,29.799 290.329,29.694 289.782 C 29.590 289.235,29.372 288.706,29.210 288.606 C 29.048 288.506,29.001 288.871,29.106 289.418 M264.700 370.682 C 265.195 370.778,266.005 370.778,266.500 370.682 C 266.995 370.587,266.590 370.509,265.600 370.509 C 264.610 370.509,264.205 370.587,264.700 370.682 M260.300 371.082 C 260.795 371.178,261.605 371.178,262.100 371.082 C 262.595 370.987,262.190 370.909,261.200 370.909 C 260.210 370.909,259.805 370.987,260.300 371.082 " stroke="none" fill="#848484" fill-rule="evenodd"></path><path id="path3" d="M235.507 17.890 C 236.226 17.979,237.306 17.977,237.907 17.886 C 238.508 17.795,237.920 17.722,236.600 17.724 C 235.280 17.726,234.788 17.801,235.507 17.890 M244.500 17.876 C 244.885 17.976,245.515 17.976,245.900 17.876 C 246.285 17.775,245.970 17.693,245.200 17.693 C 244.430 17.693,244.115 17.775,244.500 17.876 M252.500 18.276 C 252.885 18.376,253.515 18.376,253.900 18.276 C 254.285 18.175,253.970 18.093,253.200 18.093 C 252.430 18.093,252.115 18.175,252.500 18.276 M219.700 18.676 C 220.085 18.776,220.715 18.776,221.100 18.676 C 221.485 18.575,221.170 18.493,220.400 18.493 C 219.630 18.493,219.315 18.575,219.700 18.676 M257.907 18.690 C 258.626 18.779,259.706 18.777,260.307 18.686 C 260.908 18.595,260.320 18.522,259.000 18.524 C 257.680 18.526,257.188 18.601,257.907 18.690 M383.168 81.500 C 383.359 82.881,383.387 82.909,383.519 81.851 C 383.598 81.219,383.505 80.545,383.312 80.352 C 383.110 80.150,383.049 80.640,383.168 81.500 M383.320 93.200 C 383.320 94.410,383.395 94.905,383.487 94.300 C 383.578 93.695,383.578 92.705,383.487 92.100 C 383.395 91.495,383.320 91.990,383.320 93.200 M104.551 105.200 C 104.551 107.730,104.616 108.765,104.696 107.500 C 104.775 106.235,104.775 104.165,104.696 102.900 C 104.616 101.635,104.551 102.670,104.551 105.200 M104.394 126.118 L 104.589 128.600 104.717 126.443 C 104.788 125.256,104.700 124.140,104.523 123.961 C 104.345 123.783,104.287 124.754,104.394 126.118 M296.100 142.276 C 296.485 142.376,297.115 142.376,297.500 142.276 C 297.885 142.175,297.570 142.093,296.800 142.093 C 296.030 142.093,295.715 142.175,296.100 142.276 M287.905 142.683 C 288.402 142.779,289.122 142.775,289.505 142.675 C 289.887 142.575,289.480 142.496,288.600 142.501 C 287.720 142.505,287.407 142.587,287.905 142.683 M274.500 143.096 C 275.765 143.175,277.835 143.175,279.100 143.096 C 280.365 143.016,279.330 142.951,276.800 142.951 C 274.270 142.951,273.235 143.016,274.500 143.096 M265.300 143.491 C 266.125 143.578,267.475 143.578,268.300 143.491 C 269.125 143.405,268.450 143.334,266.800 143.334 C 265.150 143.334,264.475 143.405,265.300 143.491 M231.293 159.200 C 231.293 159.970,231.375 160.285,231.476 159.900 C 231.576 159.515,231.576 158.885,231.476 158.500 C 231.375 158.115,231.293 158.430,231.293 159.200 M347.200 259.400 C 348.395 260.610,349.463 261.600,349.573 261.600 C 349.683 261.600,348.795 260.610,347.600 259.400 C 346.405 258.190,345.337 257.200,345.227 257.200 C 345.117 257.200,346.005 258.190,347.200 259.400 M24.634 259.455 C 24.256 260.441,24.297 268.057,24.684 268.444 C 24.861 268.621,24.915 267.739,24.803 266.483 C 24.692 265.228,24.705 263.030,24.834 261.600 C 25.086 258.798,25.047 258.379,24.634 259.455 M152.406 263.433 C 152.409 264.075,152.584 264.870,152.795 265.200 C 153.055 265.609,153.099 265.290,152.932 264.200 C 152.629 262.223,152.398 261.886,152.406 263.433 M136.400 278.179 C 136.400 278.289,136.940 278.659,137.600 279.000 C 138.260 279.341,138.800 279.531,138.800 279.421 C 138.800 279.311,138.260 278.941,137.600 278.600 C 136.940 278.259,136.400 278.069,136.400 278.179 M28.306 285.818 C 28.410 286.365,28.628 286.894,28.790 286.994 C 28.952 287.094,28.999 286.729,28.894 286.182 C 28.790 285.635,28.572 285.106,28.410 285.006 C 28.248 284.906,28.201 285.271,28.306 285.818 M371.000 304.800 C 371.000 308.938,371.135 312.240,371.300 312.138 C 371.465 312.036,371.600 308.734,371.600 304.800 C 371.600 300.866,371.465 297.564,371.300 297.462 C 371.135 297.360,371.000 300.662,371.000 304.800 M72.741 371.301 C 72.906 371.466,114.072 371.556,164.221 371.501 L 255.400 371.400 163.920 371.200 C 113.606 371.090,72.575 371.135,72.741 371.301 M256.705 371.083 C 257.202 371.179,257.922 371.175,258.305 371.075 C 258.687 370.975,258.280 370.896,257.400 370.901 C 256.520 370.905,256.207 370.987,256.705 371.083 " stroke="none" fill="#565656" fill-rule="evenodd"></path><path id="path4" d="M382.893 78.800 C 382.893 79.570,382.975 79.885,383.076 79.500 C 383.176 79.115,383.176 78.485,383.076 78.100 C 382.975 77.715,382.893 78.030,382.893 78.800 M104.920 131.200 C 104.920 132.410,104.995 132.905,105.087 132.300 C 105.178 131.695,105.178 130.705,105.087 130.100 C 104.995 129.495,104.920 129.990,104.920 131.200 M282.105 143.087 C 282.714 143.179,283.614 143.177,284.105 143.082 C 284.597 142.987,284.100 142.911,283.000 142.914 C 281.900 142.917,281.497 142.995,282.105 143.087 M24.920 256.800 C 24.920 258.010,24.995 258.505,25.087 257.900 C 25.178 257.295,25.178 256.305,25.087 255.700 C 24.995 255.095,24.920 255.590,24.920 256.800 M24.914 270.600 C 24.917 271.700,24.995 272.103,25.087 271.495 C 25.179 270.886,25.177 269.986,25.082 269.495 C 24.987 269.003,24.911 269.500,24.914 270.600 " stroke="none" fill="#7c7c7c" fill-rule="evenodd"></path></g></svg>