<svg id="svg" version="1.1" xmlns="http://www.w3.org/2000/svg" xmlns:xlink="http://www.w3.org/1999/xlink" width="400" height="400" viewBox="0, 0, 400,400"><g id="svgg"><path id="path0" d="M161.038 0.338 C 160.923 0.524,154.118 0.795,145.915 0.940 C 129.938 1.223,112.327 1.983,112.000 2.404 C 111.890 2.546,109.190 2.976,106.000 3.360 C 102.810 3.744,99.840 4.219,99.400 4.416 C 98.960 4.612,97.430 5.055,96.000 5.400 C 94.570 5.745,93.040 6.195,92.600 6.400 C 92.160 6.605,90.630 7.065,89.200 7.422 C 87.770 7.779,86.420 8.218,86.200 8.398 C 85.980 8.577,84.720 9.035,83.400 9.414 C 82.080 9.793,80.522 10.440,79.938 10.852 C 79.354 11.263,78.757 11.600,78.610 11.600 C 78.464 11.600,77.559 12.140,76.600 12.800 C 75.641 13.460,74.708 14.012,74.528 14.027 C 73.768 14.089,69.481 19.754,68.434 22.078 C 63.874 32.209,69.562 45.086,82.200 53.240 C 84.989 55.039,86.175 55.773,87.085 56.261 C 87.571 56.523,88.471 57.012,89.085 57.348 C 91.710 58.787,98.774 61.955,100.800 62.603 C 102.010 62.990,103.180 63.431,103.400 63.583 C 103.620 63.735,104.599 64.089,105.576 64.369 C 106.553 64.649,107.813 65.068,108.376 65.301 C 110.673 66.249,122.544 69.380,128.400 70.582 C 134.403 71.813,137.825 72.686,139.359 73.378 C 140.041 73.685,141.680 74.238,143.000 74.606 C 144.320 74.974,145.580 75.418,145.800 75.592 C 146.020 75.765,146.801 76.036,147.535 76.193 C 150.069 76.735,161.252 82.711,164.553 85.286 C 166.326 86.669,168.270 88.109,168.875 88.486 C 171.212 89.945,178.308 97.685,181.212 101.944 C 184.581 106.884,187.083 111.039,188.126 113.425 C 191.320 120.728,192.822 124.632,193.740 128.018 C 194.304 130.098,195.234 133.510,195.806 135.600 C 196.378 137.690,197.191 141.830,197.613 144.800 C 198.035 147.770,198.597 151.100,198.861 152.200 C 199.225 153.718,199.376 176.875,199.485 248.300 L 199.628 342.400 226.714 342.397 C 256.711 342.394,254.070 342.620,257.243 339.790 C 258.651 338.534,260.800 335.523,260.800 334.807 C 260.800 334.582,261.154 333.738,261.586 332.931 C 262.018 332.125,262.577 330.461,262.829 329.233 C 263.081 328.005,263.455 326.792,263.661 326.538 C 263.867 326.284,264.312 323.674,264.650 320.738 C 264.988 317.802,265.475 315.040,265.732 314.600 C 266.083 314.001,266.265 293.843,266.459 234.200 C 266.702 159.481,266.814 151.216,267.592 150.200 C 267.761 149.980,268.021 148.270,268.171 146.400 C 268.505 142.220,269.191 137.936,269.613 137.400 C 269.787 137.180,270.045 136.280,270.188 135.400 C 270.646 132.581,271.248 129.823,271.585 129.000 C 271.765 128.560,272.130 127.390,272.397 126.400 C 272.840 124.758,273.495 123.149,275.574 118.600 C 277.030 115.413,280.883 107.737,282.400 105.000 C 283.253 103.460,284.086 101.930,284.250 101.600 C 284.414 101.270,285.415 100.181,286.474 99.180 C 287.533 98.178,288.400 97.184,288.400 96.970 C 288.400 96.408,294.526 90.400,295.100 90.400 C 295.365 90.400,295.876 89.950,296.237 89.400 C 296.597 88.850,297.062 88.400,297.269 88.400 C 297.476 88.400,298.941 87.301,300.523 85.957 C 302.105 84.614,304.120 83.163,305.000 82.733 C 305.880 82.303,307.500 81.427,308.600 80.786 C 311.909 78.858,316.078 76.953,318.200 76.398 C 319.300 76.111,320.380 75.746,320.600 75.586 C 320.820 75.427,322.080 74.995,323.400 74.626 C 324.720 74.257,326.340 73.717,327.000 73.426 C 327.660 73.134,329.460 72.671,331.000 72.395 C 332.540 72.120,333.980 71.755,334.200 71.585 C 334.420 71.415,336.220 70.962,338.200 70.579 C 340.180 70.195,341.993 69.733,342.230 69.550 C 342.466 69.368,343.983 68.940,345.600 68.600 C 347.217 68.260,348.734 67.825,348.970 67.635 C 349.207 67.444,350.824 66.996,352.564 66.639 C 354.305 66.283,355.925 65.830,356.164 65.633 C 356.404 65.437,357.632 64.977,358.893 64.612 C 360.154 64.246,361.278 63.797,361.391 63.614 C 361.505 63.430,362.543 63.062,363.699 62.795 C 364.854 62.528,366.160 62.088,366.600 61.816 C 367.040 61.544,368.120 61.092,369.000 60.811 C 369.880 60.530,371.550 59.873,372.712 59.350 C 373.873 58.828,375.066 58.400,375.363 58.400 C 375.659 58.400,376.110 58.149,376.364 57.843 C 376.619 57.537,377.406 57.058,378.113 56.778 C 378.821 56.499,379.760 55.969,380.200 55.600 C 380.640 55.231,381.630 54.680,382.400 54.375 C 383.685 53.866,384.954 52.869,388.097 49.900 C 388.738 49.295,389.428 48.800,389.631 48.800 C 389.834 48.800,390.000 48.640,390.000 48.445 C 390.000 48.250,390.987 47.125,392.193 45.945 C 393.453 44.713,394.942 42.694,395.693 41.200 C 396.412 39.770,397.201 38.420,397.447 38.200 C 399.600 36.274,399.583 25.879,397.418 21.071 C 396.735 19.553,391.406 14.158,389.957 13.517 C 389.321 13.235,388.800 12.874,388.800 12.714 C 388.800 12.359,383.566 9.841,381.500 9.202 C 380.675 8.947,380.000 8.596,380.000 8.423 C 380.000 8.250,378.695 7.792,377.100 7.406 C 375.505 7.020,374.110 6.583,374.000 6.436 C 373.745 6.093,368.094 4.788,366.895 4.795 C 366.397 4.798,365.677 4.627,365.295 4.415 C 364.487 3.968,355.919 2.800,353.445 2.800 C 352.518 2.800,351.589 2.645,351.380 2.457 C 350.668 1.813,339.825 1.218,323.900 0.950 C 315.155 0.802,308.000 0.528,308.000 0.341 C 308.000 -0.103,161.313 -0.106,161.038 0.338 " stroke="none" fill="#040404" fill-rule="evenodd"></path><path id="path1" d="M0.000 200.000 L 0.000 400.000 200.000 400.000 L 400.000 400.000 400.000 200.000 L 400.000 0.000 353.900 0.086 C 328.545 0.134,310.050 0.222,312.800 0.282 C 334.411 0.751,346.508 1.189,346.918 1.516 C 347.183 1.727,349.110 2.016,351.200 2.158 C 356.311 2.506,362.108 3.245,362.600 3.612 C 362.820 3.776,364.170 4.028,365.600 4.170 C 368.360 4.445,371.667 5.177,372.000 5.587 C 372.110 5.722,373.554 6.146,375.210 6.529 C 376.865 6.912,379.115 7.664,380.210 8.200 C 381.304 8.736,382.515 9.181,382.900 9.187 C 383.285 9.194,383.600 9.360,383.600 9.556 C 383.600 9.752,384.433 10.157,385.450 10.456 C 386.468 10.755,387.387 11.225,387.493 11.500 C 387.599 11.775,387.867 12.000,388.089 12.000 C 388.311 12.000,389.351 12.630,390.400 13.400 C 391.449 14.170,392.508 14.800,392.754 14.800 C 392.999 14.800,393.200 15.031,393.200 15.314 C 393.200 15.596,394.183 16.798,395.384 17.984 C 396.585 19.170,397.677 20.641,397.812 21.253 C 397.946 21.865,398.403 23.085,398.828 23.964 C 399.981 26.349,399.775 32.802,398.438 36.200 C 396.189 41.912,388.726 51.600,386.573 51.600 C 386.309 51.600,385.822 52.013,385.491 52.517 C 385.160 53.022,383.700 54.039,382.245 54.777 C 380.790 55.516,379.600 56.273,379.600 56.460 C 379.600 56.647,379.355 56.800,379.056 56.800 C 378.757 56.800,377.902 57.210,377.156 57.710 C 376.410 58.211,374.990 58.878,374.000 59.193 C 373.010 59.508,371.364 60.178,370.342 60.683 C 369.320 61.187,368.235 61.600,367.931 61.600 C 367.627 61.600,367.023 61.840,366.589 62.134 C 366.155 62.427,364.900 62.902,363.800 63.188 C 362.700 63.474,361.412 63.947,360.937 64.239 C 360.463 64.531,359.203 64.979,358.137 65.235 C 357.072 65.491,355.830 65.928,355.379 66.208 C 354.927 66.487,353.037 67.024,351.179 67.402 C 349.320 67.780,347.710 68.214,347.600 68.367 C 347.490 68.519,345.870 68.966,344.000 69.360 C 342.130 69.754,340.420 70.213,340.200 70.379 C 339.980 70.546,338.200 70.993,336.244 71.372 C 334.288 71.752,332.398 72.216,332.044 72.402 C 331.690 72.588,330.050 73.044,328.400 73.414 C 326.750 73.785,325.220 74.229,325.000 74.401 C 324.780 74.573,323.430 75.031,322.000 75.420 C 320.570 75.808,319.220 76.255,319.000 76.414 C 318.780 76.573,317.520 77.013,316.200 77.391 C 314.880 77.770,313.710 78.197,313.600 78.340 C 313.490 78.483,312.770 78.926,312.000 79.324 C 311.230 79.722,309.700 80.569,308.600 81.207 C 307.500 81.846,305.880 82.726,305.000 83.164 C 303.654 83.834,300.594 86.179,296.066 90.010 C 295.552 90.444,295.008 90.800,294.856 90.800 C 294.469 90.800,288.800 96.548,288.800 96.941 C 288.800 97.118,288.113 97.924,287.274 98.731 C 285.523 100.416,282.800 104.239,282.800 105.012 C 282.800 105.299,282.665 105.593,282.500 105.667 C 281.867 105.948,276.820 115.909,276.808 116.900 C 276.804 117.285,276.649 117.600,276.464 117.600 C 276.279 117.600,275.889 118.365,275.597 119.300 C 275.305 120.235,274.736 121.561,274.333 122.247 C 273.930 122.933,273.600 123.707,273.600 123.967 C 273.600 124.226,273.261 125.141,272.846 125.999 C 272.432 126.857,271.766 129.323,271.366 131.479 C 270.967 133.636,270.521 135.490,270.375 135.600 C 270.025 135.865,268.798 142.641,268.799 144.305 C 268.800 145.023,268.626 145.923,268.414 146.305 C 266.972 148.901,266.800 158.386,266.800 235.482 C 266.800 277.032,266.646 310.848,266.456 310.965 C 266.267 311.082,265.991 312.578,265.844 314.289 C 265.401 319.422,264.752 324.150,264.373 325.000 C 264.178 325.440,263.729 327.105,263.377 328.700 C 263.024 330.295,262.610 331.600,262.455 331.600 C 262.301 331.600,261.924 332.448,261.618 333.484 C 261.313 334.520,260.643 335.985,260.131 336.740 C 259.619 337.494,259.200 338.357,259.200 338.656 C 259.200 338.955,258.958 339.200,258.662 339.200 C 258.366 339.200,257.781 339.583,257.362 340.052 C 256.943 340.520,255.927 341.332,255.104 341.855 L 253.607 342.806 226.504 342.703 L 199.400 342.600 199.169 249.000 C 198.964 165.819,198.867 154.977,198.299 151.600 C 197.948 149.510,197.294 145.484,196.847 142.654 C 196.400 139.824,195.769 136.674,195.446 135.654 C 195.123 134.634,194.194 131.370,193.381 128.400 C 192.569 125.430,191.749 122.804,191.558 122.565 C 191.367 122.326,190.936 121.336,190.600 120.365 C 190.264 119.394,189.734 118.060,189.420 117.400 C 189.107 116.740,188.290 114.940,187.605 113.400 C 186.919 111.860,185.949 109.970,185.448 109.200 C 184.948 108.430,184.084 107.080,183.529 106.200 C 182.974 105.320,181.951 103.700,181.256 102.600 C 179.986 100.589,177.813 97.970,174.308 94.223 C 173.267 93.110,172.412 92.082,172.408 91.937 C 172.401 91.702,168.162 88.389,162.600 84.270 C 161.500 83.456,160.415 82.642,160.188 82.462 C 159.962 82.281,158.927 81.809,157.888 81.413 C 156.850 81.016,156.000 80.571,156.000 80.425 C 156.000 80.278,155.100 79.834,154.000 79.439 C 152.900 79.043,152.000 78.593,152.000 78.439 C 152.000 78.284,151.055 77.826,149.900 77.420 C 148.745 77.014,147.620 76.544,147.400 76.377 C 147.180 76.209,145.830 75.769,144.400 75.400 C 142.970 75.031,141.620 74.581,141.400 74.400 C 141.180 74.219,139.857 73.776,138.461 73.415 C 137.064 73.053,135.624 72.596,135.261 72.399 C 134.897 72.201,132.890 71.754,130.800 71.405 C 128.710 71.056,126.640 70.614,126.200 70.424 C 125.760 70.234,123.786 69.781,121.814 69.417 C 119.842 69.053,118.042 68.608,117.814 68.429 C 117.586 68.250,115.960 67.790,114.200 67.408 C 112.440 67.026,110.820 66.581,110.600 66.419 C 110.380 66.257,109.030 65.808,107.600 65.420 C 106.170 65.031,104.820 64.577,104.600 64.409 C 104.380 64.241,103.480 63.878,102.600 63.601 C 98.860 62.425,88.578 57.632,85.000 55.395 C 84.120 54.845,82.770 54.052,82.000 53.631 C 81.230 53.211,79.887 52.208,79.016 51.403 C 78.145 50.597,77.108 49.765,76.711 49.552 C 75.186 48.736,70.010 41.942,68.329 38.550 L 66.600 35.060 66.616 29.830 C 66.631 24.933,66.701 24.469,67.716 22.542 C 68.312 21.410,68.800 20.351,68.800 20.190 C 68.800 18.913,76.199 12.000,77.566 12.000 C 77.805 12.000,78.000 11.849,78.000 11.665 C 78.000 11.230,82.880 9.017,85.200 8.400 C 86.190 8.137,87.192 7.764,87.428 7.572 C 87.663 7.379,89.103 6.942,90.628 6.600 C 92.152 6.258,93.760 5.809,94.200 5.603 C 95.463 5.010,99.799 4.000,101.078 4.000 C 101.717 4.000,102.411 3.841,102.620 3.646 C 102.829 3.451,105.520 3.003,108.600 2.649 C 119.837 1.360,128.623 0.845,146.000 0.461 C 156.484 0.229,136.763 0.109,80.500 0.064 L 0.000 0.000 0.000 200.000 " stroke="none" fill="#fcfcfc" fill-rule="evenodd"></path><path id="path2" d="M130.700 1.098 C 132.955 1.170,136.645 1.170,138.900 1.098 C 141.155 1.027,139.310 0.969,134.800 0.969 C 130.290 0.969,128.445 1.027,130.700 1.098 M329.000 1.076 C 335.870 1.362,342.710 1.375,342.539 1.100 C 342.437 0.935,338.718 0.836,334.276 0.879 C 329.834 0.923,327.460 1.012,329.000 1.076 M106.500 3.076 C 106.885 3.176,107.515 3.176,107.900 3.076 C 108.285 2.975,107.970 2.893,107.200 2.893 C 106.430 2.893,106.115 2.975,106.500 3.076 M357.300 3.076 C 357.685 3.176,358.315 3.176,358.700 3.076 C 359.085 2.975,358.770 2.893,358.000 2.893 C 357.230 2.893,356.915 2.975,357.300 3.076 M198.909 156.800 C 198.909 157.790,198.987 158.195,199.082 157.700 C 199.178 157.205,199.178 156.395,199.082 155.900 C 198.987 155.405,198.909 155.810,198.909 156.800 M199.293 168.000 C 199.293 168.770,199.375 169.085,199.476 168.700 C 199.576 168.315,199.576 167.685,199.476 167.300 C 199.375 166.915,199.293 167.230,199.293 168.000 " stroke="none" fill="#848484" fill-rule="evenodd"></path><path id="path3" d="M143.061 0.700 C 142.959 0.865,145.603 0.954,148.937 0.897 C 159.985 0.709,161.111 0.562,152.124 0.480 C 147.242 0.436,143.163 0.535,143.061 0.700 M311.000 0.678 C 318.922 0.964,326.309 0.974,326.139 0.700 C 326.037 0.535,321.868 0.437,316.876 0.481 C 311.884 0.526,309.240 0.615,311.000 0.678 M351.518 2.466 C 351.673 2.613,352.917 2.793,354.282 2.866 C 355.646 2.940,356.636 2.880,356.482 2.734 C 356.327 2.587,355.083 2.407,353.718 2.334 C 352.354 2.260,351.364 2.320,351.518 2.466 M109.905 2.683 C 110.402 2.779,111.122 2.775,111.505 2.675 C 111.887 2.575,111.480 2.496,110.600 2.501 C 109.720 2.505,109.407 2.587,109.905 2.683 M365.510 4.449 C 365.670 4.597,366.560 4.786,367.490 4.869 C 368.419 4.951,369.049 4.898,368.890 4.751 C 368.730 4.603,367.840 4.414,366.910 4.331 C 365.981 4.249,365.351 4.302,365.510 4.449 M91.800 6.285 C 90.575 6.580,90.198 7.128,91.376 6.903 C 91.946 6.794,92.510 6.546,92.630 6.352 C 92.749 6.159,92.792 6.021,92.724 6.046 C 92.656 6.072,92.240 6.179,91.800 6.285 M66.909 26.400 C 66.909 27.390,66.987 27.795,67.082 27.300 C 67.178 26.805,67.178 25.995,67.082 25.500 C 66.987 25.005,66.909 25.410,66.909 26.400 M399.000 28.800 C 399.000 30.738,399.135 32.240,399.300 32.138 C 399.465 32.036,399.600 30.534,399.600 28.800 C 399.600 27.066,399.465 25.564,399.300 25.462 C 399.135 25.360,399.000 26.862,399.000 28.800 M66.493 30.400 C 66.493 31.170,66.575 31.485,66.676 31.100 C 66.776 30.715,66.776 30.085,66.676 29.700 C 66.575 29.315,66.493 29.630,66.493 30.400 M291.391 93.700 L 288.200 97.000 291.500 93.809 C 293.315 92.055,294.800 90.570,294.800 90.509 C 294.800 90.218,294.354 90.635,291.391 93.700 M274.867 119.980 C 274.633 120.651,274.527 121.200,274.631 121.200 C 274.901 121.200,275.656 119.122,275.457 118.924 C 275.367 118.833,275.101 119.308,274.867 119.980 M269.448 137.523 C 269.338 137.701,269.169 138.736,269.073 139.823 C 268.901 141.769,268.938 141.688,269.588 138.700 C 269.905 137.245,269.859 136.858,269.448 137.523 M267.175 151.700 C 267.162 152.415,267.020 154.303,266.860 155.895 C 266.701 157.487,266.692 158.657,266.842 158.495 C 267.187 158.119,267.756 150.400,267.437 150.400 C 267.307 150.400,267.189 150.985,267.175 151.700 M199.337 163.800 C 199.339 165.560,199.409 166.230,199.493 165.289 C 199.578 164.349,199.577 162.909,199.491 162.089 C 199.405 161.270,199.336 162.040,199.337 163.800 M265.035 317.835 C 264.883 319.516,264.841 320.974,264.942 321.076 C 265.043 321.177,265.255 319.888,265.412 318.212 C 265.569 316.536,265.611 315.077,265.505 314.971 C 265.399 314.866,265.188 316.154,265.035 317.835 M262.905 328.828 C 262.684 329.943,262.642 330.708,262.811 330.528 C 263.159 330.156,263.768 326.800,263.488 326.800 C 263.388 326.800,263.126 327.713,262.905 328.828 M256.400 340.474 C 255.410 341.376,254.960 341.924,255.400 341.692 C 256.152 341.294,258.752 338.781,258.375 338.816 C 258.279 338.825,257.390 339.571,256.400 340.474 " stroke="none" fill="#747474" fill-rule="evenodd"></path><path id="path4" d="M123.000 1.200 L 119.400 1.449 122.876 1.524 C 124.849 1.567,126.460 1.427,126.600 1.200 C 126.736 0.980,126.792 0.834,126.724 0.876 C 126.656 0.917,124.980 1.063,123.000 1.200 M343.700 1.487 C 344.305 1.578,345.295 1.578,345.900 1.487 C 346.505 1.395,346.010 1.320,344.800 1.320 C 343.590 1.320,343.095 1.395,343.700 1.487 M104.200 3.200 L 102.600 3.486 104.076 3.543 C 104.888 3.574,105.664 3.420,105.800 3.200 C 105.936 2.980,105.992 2.826,105.924 2.857 C 105.856 2.888,105.080 3.042,104.200 3.200 M359.431 3.250 C 359.521 3.396,360.301 3.583,361.164 3.665 C 362.027 3.747,362.659 3.695,362.569 3.550 C 362.479 3.404,361.699 3.217,360.836 3.135 C 359.973 3.053,359.341 3.105,359.431 3.250 M398.352 35.113 C 398.221 35.907,398.279 36.281,398.501 36.059 C 398.703 35.857,398.801 35.267,398.719 34.746 C 398.593 33.945,398.537 34.002,398.352 35.113 M392.388 45.900 L 389.800 48.600 392.500 46.012 C 395.008 43.607,395.383 43.200,395.088 43.200 C 395.027 43.200,393.812 44.415,392.388 45.900 M387.775 50.500 L 386.600 51.800 387.900 50.625 C 388.615 49.979,389.200 49.394,389.200 49.325 C 389.200 49.016,388.870 49.288,387.775 50.500 M110.606 66.410 C 110.706 66.572,111.235 66.790,111.782 66.894 C 112.329 66.999,112.694 66.952,112.594 66.790 C 112.494 66.628,111.965 66.410,111.418 66.306 C 110.871 66.201,110.506 66.248,110.606 66.410 M117.806 68.410 C 117.906 68.572,118.435 68.790,118.982 68.894 C 119.529 68.999,119.894 68.952,119.794 68.790 C 119.694 68.628,119.165 68.410,118.618 68.306 C 118.071 68.201,117.706 68.248,117.806 68.410 M345.445 68.728 C 345.333 68.908,345.773 68.977,346.421 68.882 C 347.070 68.787,347.600 68.640,347.600 68.555 C 347.600 68.250,345.643 68.407,345.445 68.728 M339.000 70.400 L 337.800 70.705 338.876 70.753 C 339.468 70.779,340.064 70.620,340.200 70.400 C 340.336 70.180,340.392 70.021,340.324 70.047 C 340.256 70.073,339.660 70.232,339.000 70.400 M126.400 70.555 C 126.400 70.640,126.930 70.787,127.579 70.882 C 128.227 70.977,128.667 70.908,128.555 70.728 C 128.357 70.407,126.400 70.250,126.400 70.555 M331.000 72.400 L 329.800 72.705 330.876 72.753 C 331.468 72.779,332.064 72.620,332.200 72.400 C 332.336 72.180,332.392 72.021,332.324 72.047 C 332.256 72.073,331.660 72.232,331.000 72.400 M297.400 88.635 L 296.200 89.666 297.500 88.806 C 298.215 88.333,298.800 87.868,298.800 87.773 C 298.800 87.473,298.631 87.578,297.400 88.635 M284.400 101.600 C 283.930 102.260,283.636 102.800,283.746 102.800 C 283.856 102.800,284.330 102.260,284.800 101.600 C 285.270 100.940,285.564 100.400,285.454 100.400 C 285.344 100.400,284.870 100.940,284.400 101.600 M270.556 133.371 C 270.435 133.685,270.404 134.360,270.486 134.871 C 270.595 135.554,270.688 135.404,270.837 134.300 C 271.047 132.747,270.936 132.381,270.556 133.371 M268.394 144.081 C 268.287 145.336,268.346 146.216,268.524 146.037 C 268.703 145.858,268.790 144.831,268.718 143.756 L 268.587 141.800 268.394 144.081 M198.948 162.400 C 198.948 164.710,199.014 165.655,199.095 164.500 C 199.176 163.345,199.176 161.455,199.095 160.300 C 199.014 159.145,198.948 160.090,198.948 162.400 M266.596 234.800 C 266.596 276.710,266.643 293.855,266.700 272.900 C 266.757 251.945,266.757 217.655,266.700 196.700 C 266.643 175.745,266.596 192.890,266.596 234.800 M199.399 255.800 L 199.400 342.600 226.577 342.703 C 241.525 342.759,253.891 342.669,254.057 342.503 C 254.224 342.336,242.040 342.247,226.981 342.305 L 199.602 342.411 199.500 255.705 L 199.397 169.000 199.399 255.800 M264.509 323.200 C 264.509 324.190,264.587 324.595,264.682 324.100 C 264.778 323.605,264.778 322.795,264.682 322.300 C 264.587 321.805,264.509 322.210,264.509 323.200 " stroke="none" fill="#a4a4a4" fill-rule="evenodd"></path></g></svg>