<svg id="svg" version="1.1" xmlns="http://www.w3.org/2000/svg" xmlns:xlink="http://www.w3.org/1999/xlink" width="400" height="400" viewBox="0, 0, 400,400"><g id="svgg"><path id="path0" d="M109.317 1.424 C 106.428 1.657,103.825 2.037,103.533 2.268 C 103.240 2.499,102.100 3.021,101.000 3.428 C 99.900 3.836,98.550 4.400,98.000 4.682 C 97.450 4.964,96.852 5.196,96.671 5.198 C 94.775 5.212,86.554 14.515,84.651 18.800 C 77.221 35.531,77.418 55.941,85.369 93.200 C 87.576 103.541,87.977 105.208,89.404 110.000 C 90.223 112.750,91.062 115.630,91.268 116.400 C 91.475 117.170,92.079 119.240,92.611 121.000 C 93.143 122.760,94.491 127.260,95.607 131.000 C 99.299 143.384,100.056 145.707,104.206 157.400 C 106.471 163.780,108.513 169.450,108.745 170.000 C 108.976 170.550,110.720 174.960,112.620 179.800 C 124.978 211.277,129.361 221.733,136.566 236.920 C 137.798 239.516,141.848 248.336,145.567 256.520 C 152.812 272.463,154.525 276.114,161.203 289.830 C 163.567 294.687,165.626 299.052,165.778 299.530 C 165.930 300.009,166.233 300.400,166.452 300.400 C 166.671 300.400,167.873 300.870,169.125 301.445 C 170.376 302.019,172.120 302.814,173.000 303.210 C 173.880 303.607,175.999 304.577,177.709 305.366 C 179.419 306.155,180.949 306.801,181.109 306.802 C 181.269 306.804,181.878 307.054,182.461 307.359 C 183.045 307.663,184.215 308.135,185.061 308.408 C 185.908 308.680,187.050 309.142,187.600 309.434 C 188.995 310.174,193.435 311.933,195.663 312.628 C 196.688 312.948,198.038 313.476,198.663 313.802 C 199.288 314.128,200.011 314.396,200.270 314.398 C 200.528 314.399,202.058 314.922,203.670 315.560 C 205.281 316.198,207.410 316.848,208.400 317.005 C 209.390 317.162,210.380 317.422,210.600 317.583 C 210.820 317.744,212.530 318.185,214.400 318.562 C 216.270 318.939,218.160 319.405,218.600 319.598 C 219.040 319.790,221.560 320.254,224.200 320.628 C 226.840 321.003,229.202 321.468,229.449 321.662 C 230.051 322.133,248.772 322.120,249.348 321.647 C 249.597 321.444,251.600 321.054,253.800 320.782 C 256.000 320.510,258.160 320.074,258.600 319.813 C 259.040 319.552,260.390 319.029,261.600 318.653 C 264.545 317.735,266.983 316.521,269.409 314.764 C 270.514 313.964,272.134 312.924,273.009 312.453 C 278.847 309.310,293.464 296.324,294.726 293.160 C 294.795 292.986,295.289 292.339,295.823 291.722 C 300.934 285.816,303.456 282.750,304.313 281.400 C 305.239 279.940,307.623 276.821,309.611 274.466 C 310.045 273.952,310.400 273.363,310.400 273.157 C 310.400 272.951,310.869 272.074,311.443 271.207 C 312.690 269.322,313.787 267.401,314.473 265.900 C 314.749 265.295,315.113 264.800,315.281 264.800 C 315.449 264.800,316.048 263.945,316.612 262.900 C 318.439 259.515,318.994 258.603,319.310 258.463 C 319.480 258.388,319.881 257.758,320.201 257.063 C 320.520 256.369,321.497 254.630,322.370 253.200 C 323.244 251.770,324.797 248.980,325.822 247.000 C 328.230 242.346,329.007 240.924,329.480 240.305 C 329.692 240.027,330.113 239.170,330.414 238.400 C 330.716 237.630,331.159 236.820,331.400 236.600 C 331.640 236.380,332.076 235.480,332.368 234.600 C 332.660 233.720,333.117 232.730,333.383 232.400 C 333.650 232.070,334.103 231.170,334.389 230.400 C 334.675 229.630,335.807 227.110,336.904 224.800 C 338.001 222.490,339.660 218.980,340.591 217.000 C 341.522 215.020,343.103 211.690,344.105 209.600 C 345.107 207.510,346.241 204.810,346.625 203.600 C 347.009 202.390,347.548 201.040,347.822 200.600 C 348.097 200.160,348.449 199.170,348.605 198.400 C 348.761 197.630,349.107 196.730,349.373 196.400 C 349.640 196.070,350.098 194.990,350.392 194.000 C 350.686 193.010,351.142 191.840,351.406 191.400 C 351.670 190.960,352.199 189.520,352.581 188.200 C 352.963 186.880,353.415 185.620,353.585 185.400 C 353.755 185.180,354.212 184.010,354.600 182.800 C 354.988 181.590,355.445 180.420,355.615 180.200 C 355.785 179.980,356.223 178.768,356.588 177.507 C 356.954 176.246,357.403 175.122,357.586 175.009 C 357.770 174.895,358.138 173.857,358.405 172.701 C 358.672 171.546,359.133 170.212,359.430 169.737 C 359.727 169.263,360.182 168.003,360.441 166.937 C 360.701 165.872,361.137 164.730,361.412 164.400 C 361.686 164.070,362.037 163.170,362.190 162.400 C 362.344 161.630,362.798 160.280,363.199 159.400 C 363.601 158.520,364.226 156.455,364.590 154.811 C 364.953 153.167,365.408 151.632,365.600 151.400 C 365.792 151.168,366.252 149.633,366.622 147.989 C 366.991 146.345,367.433 144.820,367.603 144.600 C 367.772 144.380,368.218 142.850,368.592 141.200 C 368.967 139.550,369.432 137.840,369.625 137.400 C 369.819 136.960,370.254 135.340,370.592 133.800 C 370.930 132.260,371.372 130.640,371.575 130.200 C 371.778 129.760,372.246 127.960,372.616 126.200 C 372.985 124.440,373.421 122.820,373.584 122.600 C 373.748 122.380,374.195 120.580,374.579 118.600 C 374.962 116.620,375.415 114.820,375.585 114.600 C 375.755 114.380,376.120 112.940,376.395 111.400 C 376.671 109.860,377.129 108.060,377.415 107.400 C 377.700 106.740,378.235 104.490,378.603 102.400 C 378.972 100.310,379.412 98.420,379.581 98.200 C 379.750 97.980,380.192 95.938,380.564 93.663 C 380.936 91.387,381.401 89.227,381.598 88.863 C 381.795 88.498,382.254 86.143,382.619 83.629 C 382.983 81.115,383.438 78.775,383.630 78.429 C 384.100 77.582,385.200 70.164,385.200 67.847 C 385.200 66.825,385.368 65.677,385.573 65.295 C 387.069 62.508,387.071 35.881,385.574 33.105 C 385.368 32.723,385.200 31.849,385.200 31.163 C 385.200 29.614,384.198 25.674,383.426 24.185 C 383.109 23.573,382.727 22.351,382.578 21.468 C 382.429 20.586,381.788 19.148,381.153 18.272 C 380.519 17.396,380.000 16.446,380.000 16.160 C 380.000 15.874,379.775 15.496,379.499 15.320 C 379.224 15.144,378.738 14.495,378.420 13.878 C 377.002 11.128,371.343 6.311,367.048 4.196 C 359.623 0.541,343.302 -0.423,336.600 2.397 C 336.160 2.582,334.907 2.940,333.815 3.194 C 332.723 3.447,330.873 4.092,329.703 4.627 C 328.533 5.162,327.480 5.600,327.363 5.600 C 326.570 5.600,322.164 8.082,320.000 9.748 C 318.570 10.849,316.804 12.211,316.075 12.775 C 313.090 15.083,304.463 25.677,300.304 32.139 C 300.140 32.393,298.682 35.396,297.061 38.814 C 292.343 48.770,287.162 64.972,283.380 81.600 C 281.412 90.256,280.344 95.111,279.596 98.800 C 279.173 100.890,278.461 104.400,278.014 106.600 C 277.566 108.800,276.850 112.040,276.421 113.800 C 275.992 115.560,275.080 119.340,274.396 122.200 C 273.711 125.060,272.815 128.480,272.405 129.800 C 271.995 131.120,271.182 133.820,270.598 135.800 C 266.280 150.450,260.570 166.981,258.717 170.200 C 258.463 170.640,257.534 172.260,256.652 173.800 C 251.227 183.267,244.610 189.498,238.200 191.177 C 235.364 191.919,228.923 191.714,227.254 190.827 C 226.455 190.403,224.886 189.768,223.769 189.418 C 220.681 188.450,211.514 178.975,210.400 175.600 C 210.110 174.720,209.739 174.000,209.576 174.000 C 209.413 174.000,208.957 173.100,208.561 172.000 C 208.166 170.900,207.722 170.000,207.575 170.000 C 207.429 170.000,206.998 169.145,206.618 168.100 C 206.238 167.055,205.601 165.480,205.202 164.600 C 203.259 160.313,202.833 159.274,202.371 157.700 C 202.098 156.765,201.761 156.000,201.624 156.000 C 201.487 156.000,201.130 155.145,200.832 154.100 C 200.533 153.055,199.971 151.480,199.582 150.600 C 199.194 149.720,198.655 147.875,198.386 146.500 C 198.116 145.125,197.773 144.000,197.623 144.000 C 197.473 144.000,197.021 142.515,196.617 140.700 C 196.213 138.885,195.749 137.220,195.585 137.000 C 195.421 136.780,194.988 135.160,194.623 133.400 C 194.257 131.640,193.802 129.910,193.611 129.556 C 193.419 129.202,192.944 127.402,192.553 125.556 C 192.163 123.710,191.734 122.110,191.599 122.000 C 191.464 121.890,191.019 120.270,190.610 118.400 C 190.200 116.530,189.737 114.820,189.580 114.600 C 189.423 114.380,188.976 112.400,188.588 110.200 C 188.199 108.000,187.760 106.110,187.610 106.000 C 187.461 105.890,187.026 103.910,186.643 101.600 C 186.260 99.290,185.789 97.040,185.596 96.600 C 185.404 96.160,184.955 93.910,184.600 91.600 C 184.245 89.290,183.792 87.040,183.595 86.600 C 183.398 86.160,182.948 83.917,182.596 81.615 C 182.244 79.313,181.807 77.243,181.625 77.015 C 181.443 76.787,180.975 75.070,180.585 73.200 C 180.195 71.330,179.741 69.620,179.576 69.400 C 179.411 69.180,178.954 67.470,178.560 65.600 C 178.166 63.730,177.728 62.110,177.586 62.000 C 177.444 61.890,176.995 60.540,176.588 59.000 C 176.182 57.460,175.732 56.110,175.588 56.000 C 175.445 55.890,174.995 54.540,174.588 53.000 C 174.182 51.460,173.739 50.110,173.605 50.000 C 173.471 49.890,173.151 49.080,172.894 48.200 C 172.638 47.320,171.161 44.105,169.614 41.055 C 168.066 38.005,166.800 35.343,166.800 35.139 C 166.800 34.935,166.170 33.833,165.400 32.690 C 164.630 31.546,164.000 30.392,164.000 30.125 C 164.000 29.858,163.771 29.496,163.492 29.320 C 163.212 29.144,162.752 28.550,162.469 28.000 C 159.998 23.199,155.133 17.519,149.275 12.595 C 147.446 11.058,145.586 9.465,145.143 9.055 C 143.680 7.703,135.060 3.693,132.600 3.220 C 131.280 2.966,129.840 2.603,129.400 2.413 C 128.960 2.222,128.150 1.940,127.600 1.785 C 125.626 1.229,114.465 1.008,109.317 1.424 " stroke="none" fill="#040404" fill-rule="evenodd"></path><path id="path1" d="M0.000 200.000 L 0.000 400.000 200.000 400.000 L 400.000 400.000 400.000 200.000 L 400.000 0.000 200.000 0.000 L 0.000 0.000 0.000 200.000 M123.064 0.915 C 125.080 0.985,126.970 1.232,127.264 1.462 C 127.559 1.693,129.379 2.188,131.308 2.563 C 135.051 3.290,143.603 7.169,145.600 9.045 C 147.993 11.294,152.355 14.800,152.759 14.800 C 153.001 14.800,153.200 14.999,153.200 15.242 C 153.200 15.486,155.000 17.644,157.200 20.039 C 159.400 22.434,161.200 24.601,161.200 24.855 C 161.200 25.109,161.830 26.266,162.600 27.426 C 163.370 28.586,164.000 29.730,164.000 29.968 C 164.000 30.206,164.135 30.402,164.300 30.405 C 164.465 30.407,164.959 31.172,165.397 32.105 C 165.836 33.037,166.390 33.980,166.629 34.200 C 166.868 34.420,167.304 35.365,167.596 36.300 C 167.889 37.235,168.261 38.000,168.424 38.000 C 168.587 38.000,169.043 38.900,169.439 40.000 C 169.834 41.100,170.278 42.000,170.425 42.000 C 170.571 42.000,171.014 42.855,171.409 43.900 C 171.804 44.945,172.288 45.907,172.485 46.037 C 172.682 46.167,173.120 47.337,173.458 48.637 C 173.797 49.937,174.221 51.180,174.401 51.400 C 174.581 51.620,175.010 52.888,175.354 54.218 C 175.698 55.548,176.237 57.168,176.553 57.818 C 176.868 58.468,177.356 60.080,177.638 61.400 C 177.920 62.720,178.259 63.890,178.392 64.000 C 178.524 64.110,178.955 65.640,179.348 67.400 C 179.742 69.160,180.298 71.140,180.584 71.800 C 180.870 72.460,181.326 74.215,181.597 75.700 C 181.869 77.185,182.250 78.400,182.445 78.400 C 182.640 78.400,182.800 78.873,182.800 79.450 C 182.800 80.975,183.989 88.061,184.402 89.000 C 184.596 89.440,185.045 91.690,185.400 94.000 C 185.755 96.310,186.205 98.560,186.399 99.000 C 186.593 99.440,187.059 101.600,187.435 103.800 C 187.811 106.000,188.238 107.890,188.384 108.000 C 188.531 108.110,188.984 110.045,189.392 112.300 C 189.800 114.555,190.249 116.400,190.391 116.400 C 190.532 116.400,190.982 118.065,191.390 120.100 C 191.799 122.135,192.249 123.890,192.390 124.000 C 192.531 124.110,192.981 125.730,193.390 127.600 C 193.800 129.470,194.256 131.180,194.403 131.400 C 194.551 131.620,194.988 133.240,195.374 135.000 C 195.761 136.760,196.309 138.740,196.591 139.400 C 196.874 140.060,197.231 141.320,197.386 142.200 C 197.540 143.080,197.904 144.340,198.194 145.000 C 198.484 145.660,199.044 147.460,199.436 149.000 C 199.829 150.540,200.263 151.890,200.400 152.000 C 200.538 152.110,200.970 153.235,201.362 154.499 C 201.754 155.764,202.206 156.880,202.368 156.980 C 202.530 157.080,202.991 158.250,203.394 159.581 C 203.797 160.911,204.278 162.000,204.463 162.000 C 204.648 162.000,204.800 162.264,204.800 162.586 C 204.800 163.659,211.292 177.217,212.469 178.600 C 214.328 180.786,221.796 188.400,222.081 188.400 C 222.261 188.400,223.262 188.775,224.304 189.232 C 225.347 189.690,226.791 190.320,227.514 190.632 C 230.480 191.914,239.563 191.031,241.841 189.239 C 242.428 188.778,243.069 188.400,243.266 188.400 C 244.418 188.400,249.441 183.565,252.618 179.398 C 258.017 172.316,262.881 160.388,269.419 138.200 C 270.002 136.220,270.896 133.250,271.404 131.600 C 273.029 126.332,273.919 123.064,274.399 120.600 C 274.657 119.280,275.106 117.300,275.398 116.200 C 275.690 115.100,276.493 111.500,277.182 108.200 C 277.872 104.900,278.888 100.040,279.441 97.400 C 279.994 94.760,280.901 90.620,281.457 88.200 C 282.013 85.780,282.923 81.820,283.479 79.400 C 284.034 76.980,284.909 73.470,285.421 71.600 C 285.934 69.730,286.924 66.130,287.620 63.600 C 288.317 61.070,289.574 57.020,290.413 54.600 C 291.253 52.180,292.329 49.030,292.803 47.600 C 293.278 46.170,294.217 43.830,294.891 42.400 C 297.861 36.096,300.494 30.999,301.313 29.966 C 301.801 29.351,303.100 27.555,304.200 25.976 C 308.914 19.209,313.530 14.236,318.727 10.327 C 320.857 8.725,322.690 7.301,322.800 7.161 C 322.910 7.022,323.450 6.775,324.000 6.612 C 324.550 6.450,325.720 5.988,326.600 5.586 C 331.248 3.464,332.874 2.878,335.414 2.409 C 336.946 2.126,338.380 1.759,338.600 1.594 C 340.606 0.087,360.000 0.171,360.000 1.687 C 360.000 1.859,360.757 2.000,361.682 2.000 C 366.583 2.000,380.000 12.247,380.000 15.990 C 380.000 16.216,380.180 16.400,380.400 16.400 C 380.620 16.400,380.800 16.608,380.800 16.862 C 380.800 17.116,381.212 17.881,381.716 18.562 C 382.220 19.243,382.970 21.150,383.383 22.800 C 383.795 24.450,384.247 25.890,384.386 26.000 C 384.914 26.417,385.551 29.533,385.818 33.000 C 385.970 34.980,386.299 36.853,386.548 37.162 C 387.182 37.949,387.181 59.653,386.547 60.439 C 386.298 60.747,385.977 62.980,385.834 65.400 C 385.539 70.384,384.924 75.015,384.400 76.200 C 384.205 76.640,383.755 78.890,383.400 81.200 C 383.045 83.510,382.601 85.760,382.414 86.200 C 382.228 86.640,381.763 88.890,381.383 91.200 C 381.002 93.510,380.567 95.490,380.415 95.600 C 380.264 95.710,379.811 97.690,379.411 100.000 C 379.010 102.310,378.547 104.470,378.381 104.800 C 378.216 105.130,377.781 106.840,377.415 108.600 C 377.049 110.360,376.593 112.160,376.403 112.600 C 376.212 113.040,375.764 114.840,375.407 116.600 C 375.050 118.360,374.602 120.160,374.411 120.600 C 374.221 121.040,373.751 122.840,373.368 124.600 C 372.985 126.360,372.541 127.980,372.383 128.200 C 372.224 128.420,371.771 130.130,371.377 132.000 C 370.982 133.870,370.537 135.490,370.388 135.600 C 370.239 135.710,369.889 137.060,369.610 138.600 C 369.332 140.140,368.867 141.940,368.576 142.600 C 368.286 143.260,367.753 145.060,367.392 146.600 C 367.031 148.140,366.495 149.940,366.201 150.600 C 365.907 151.260,365.540 152.520,365.386 153.400 C 365.231 154.280,364.877 155.540,364.599 156.200 C 364.320 156.860,363.777 158.480,363.391 159.800 C 363.006 161.120,362.559 162.380,362.398 162.600 C 362.237 162.820,361.796 163.990,361.418 165.200 C 361.039 166.410,360.493 167.940,360.203 168.600 C 359.913 169.260,359.442 170.610,359.157 171.600 C 358.872 172.590,358.529 173.490,358.394 173.600 C 358.260 173.710,357.818 174.880,357.412 176.200 C 357.006 177.520,356.450 178.960,356.176 179.400 C 355.902 179.840,355.553 180.830,355.400 181.600 C 355.247 182.370,354.898 183.360,354.624 183.800 C 354.350 184.240,353.794 185.680,353.388 187.000 C 352.982 188.320,352.537 189.490,352.400 189.600 C 352.263 189.710,351.830 190.835,351.438 192.099 C 351.046 193.364,350.594 194.480,350.432 194.580 C 350.270 194.680,349.804 195.895,349.395 197.281 C 348.986 198.666,348.415 200.155,348.126 200.589 C 347.837 201.023,347.600 201.610,347.600 201.893 C 347.600 202.177,347.265 203.172,346.855 204.104 C 346.445 205.037,345.775 206.610,345.366 207.600 C 344.957 208.590,344.522 209.490,344.400 209.600 C 344.278 209.710,343.843 210.610,343.433 211.600 C 343.023 212.590,341.879 215.110,340.891 217.200 C 339.903 219.290,338.334 222.620,337.405 224.600 C 333.719 232.456,331.886 236.263,331.145 237.600 C 330.718 238.370,329.923 239.900,329.378 241.000 C 328.834 242.100,327.411 244.800,326.216 247.000 C 325.020 249.200,323.760 251.585,323.416 252.300 C 323.071 253.015,322.651 253.600,322.482 253.600 C 322.314 253.600,321.963 254.095,321.703 254.700 C 321.443 255.305,320.506 256.970,319.620 258.400 C 318.735 259.830,317.735 261.585,317.399 262.300 C 317.064 263.015,316.612 263.600,316.395 263.600 C 316.178 263.600,316.000 263.799,316.000 264.042 C 316.000 264.285,315.460 265.284,314.800 266.262 C 314.140 267.240,313.600 268.147,313.600 268.279 C 313.600 268.410,312.970 269.466,312.200 270.626 C 311.430 271.786,310.800 272.930,310.800 273.168 C 310.800 273.406,310.620 273.600,310.400 273.600 C 310.180 273.600,310.000 273.805,310.000 274.056 C 310.000 274.306,309.010 275.737,307.800 277.234 C 306.590 278.732,305.600 280.145,305.600 280.375 C 305.600 280.605,305.240 281.018,304.800 281.293 C 304.360 281.568,304.000 281.978,304.000 282.206 C 304.000 282.433,302.560 284.265,300.800 286.278 C 299.040 288.290,297.600 290.090,297.600 290.279 C 297.600 290.468,297.105 291.102,296.500 291.689 C 295.895 292.275,293.690 294.700,291.600 297.078 C 287.735 301.474,280.825 308.000,280.035 308.000 C 279.796 308.000,279.600 308.186,279.600 308.413 C 279.600 308.639,279.285 308.938,278.900 309.076 C 278.515 309.214,277.366 309.928,276.346 310.663 C 275.327 311.398,274.292 312.000,274.046 312.000 C 273.801 312.000,273.600 312.184,273.600 312.410 C 273.600 312.635,273.138 312.996,272.573 313.210 C 272.008 313.425,270.956 314.051,270.235 314.600 C 269.514 315.150,268.725 315.600,268.482 315.600 C 268.239 315.600,267.896 315.835,267.720 316.122 C 267.401 316.641,264.800 318.000,264.124 318.000 C 263.929 318.000,263.063 318.360,262.200 318.800 C 261.337 319.240,260.382 319.600,260.077 319.600 C 259.773 319.600,259.046 319.858,258.462 320.174 C 257.003 320.963,248.952 322.000,244.291 322.000 C 241.954 322.000,240.342 322.171,240.178 322.435 C 239.985 322.748,239.788 322.748,239.475 322.435 C 239.214 322.174,237.188 321.992,234.420 321.981 C 231.745 321.970,228.032 321.646,225.600 321.212 C 218.307 319.908,212.607 318.694,212.400 318.400 C 212.290 318.244,210.940 317.891,209.400 317.614 C 207.860 317.337,206.100 316.873,205.489 316.581 C 204.878 316.289,203.348 315.752,202.089 315.387 C 200.830 315.023,199.620 314.583,199.400 314.410 C 199.180 314.238,197.920 313.787,196.600 313.409 C 195.280 313.030,194.110 312.602,194.000 312.457 C 193.890 312.312,192.810 311.846,191.600 311.421 C 190.390 310.996,188.950 310.413,188.400 310.127 C 187.850 309.840,187.270 309.604,187.112 309.602 C 186.953 309.601,185.840 309.150,184.637 308.600 C 183.435 308.050,182.324 307.600,182.168 307.600 C 182.012 307.600,179.477 306.520,176.535 305.200 C 173.594 303.880,171.010 302.800,170.793 302.800 C 170.577 302.800,170.400 302.657,170.400 302.483 C 170.400 302.308,169.408 301.828,168.195 301.416 L 165.990 300.667 164.035 296.633 C 162.959 294.415,160.334 289.000,158.201 284.600 C 152.670 273.190,152.425 272.664,144.481 255.200 C 137.112 238.998,136.058 236.707,132.803 229.800 C 131.078 226.140,127.464 218.028,125.586 213.600 C 125.166 212.610,124.192 210.151,123.422 208.136 C 122.652 206.121,121.752 203.871,121.422 203.136 C 121.093 202.401,120.078 199.910,119.168 197.600 C 118.258 195.290,116.980 192.050,116.330 190.400 C 115.679 188.750,114.811 186.500,114.400 185.400 C 113.990 184.300,113.084 182.050,112.387 180.400 C 111.690 178.750,110.790 176.500,110.386 175.400 C 109.983 174.300,109.088 171.960,108.397 170.200 C 107.174 167.083,105.935 163.674,104.399 159.200 C 103.984 157.990,103.090 155.470,102.412 153.600 C 100.667 148.787,99.151 144.175,97.417 138.400 C 96.592 135.650,95.560 132.230,95.124 130.800 C 93.282 124.750,92.814 123.180,91.607 119.000 C 90.162 113.998,88.602 108.685,87.764 105.914 C 87.196 104.038,85.836 97.745,84.388 90.299 C 83.971 88.153,83.456 85.723,83.242 84.899 C 83.029 84.074,82.655 81.960,82.410 80.200 C 82.166 78.440,81.696 75.759,81.365 74.242 C 79.105 63.872,78.142 42.167,79.588 34.200 C 80.749 27.805,80.925 27.126,82.394 23.400 C 83.088 21.640,83.798 19.748,83.972 19.196 C 84.146 18.644,85.398 16.532,86.753 14.503 C 90.756 8.508,95.106 5.147,102.200 2.568 C 103.080 2.248,104.070 1.862,104.400 1.710 C 105.277 1.304,114.202 0.585,117.000 0.693 C 118.320 0.744,121.049 0.844,123.064 0.915 " stroke="none" fill="#fbfbfb" fill-rule="evenodd"></path><path id="path2" d="M105.907 1.490 C 106.626 1.579,107.706 1.577,108.307 1.486 C 108.908 1.395,108.320 1.322,107.000 1.324 C 105.680 1.326,105.188 1.401,105.907 1.490 M357.500 1.482 C 357.995 1.578,358.805 1.578,359.300 1.482 C 359.795 1.387,359.390 1.309,358.400 1.309 C 357.410 1.309,357.005 1.387,357.500 1.482 M386.446 38.876 C 386.421 39.908,386.542 40.841,386.716 40.948 C 386.890 41.056,386.970 40.482,386.893 39.672 C 386.659 37.198,386.495 36.907,386.446 38.876 M78.893 54.000 C 78.893 54.770,78.975 55.085,79.076 54.700 C 79.176 54.315,79.176 53.685,79.076 53.300 C 78.975 52.915,78.893 53.230,78.893 54.000 M386.608 55.700 C 386.314 56.581,386.190 60.773,386.466 60.481 C 386.721 60.212,387.121 55.198,386.887 55.199 C 386.826 55.200,386.700 55.425,386.608 55.700 M79.293 57.200 C 79.293 57.970,79.375 58.285,79.476 57.900 C 79.576 57.515,79.576 56.885,79.476 56.500 C 79.375 56.115,79.293 56.430,79.293 57.200 M384.620 73.700 C 384.262 74.853,384.137 76.362,384.414 76.192 C 384.577 76.090,384.785 75.376,384.875 74.604 C 385.039 73.202,384.913 72.755,384.620 73.700 M182.501 79.800 C 182.505 80.680,182.587 80.993,182.683 80.495 C 182.779 79.998,182.775 79.278,182.675 78.895 C 182.575 78.513,182.496 78.920,182.501 79.800 M382.620 83.700 C 382.262 84.853,382.137 86.362,382.414 86.192 C 382.577 86.090,382.785 85.376,382.875 84.604 C 383.039 83.202,382.913 82.755,382.620 83.700 M84.856 93.200 C 84.856 93.530,85.011 94.160,85.200 94.600 C 85.417 95.104,85.544 95.178,85.544 94.800 C 85.544 94.470,85.389 93.840,85.200 93.400 C 84.983 92.896,84.856 92.822,84.856 93.200 M380.554 93.777 C 380.432 94.094,380.403 94.679,380.489 95.077 C 380.587 95.528,380.724 95.312,380.854 94.500 C 381.071 93.138,380.930 92.796,380.554 93.777 M188.400 109.176 C 188.400 109.823,188.542 110.441,188.716 110.548 C 188.890 110.656,188.961 110.127,188.873 109.372 C 188.676 107.691,188.400 107.577,188.400 109.176 M190.400 117.376 C 190.400 117.913,190.547 118.444,190.728 118.555 C 190.908 118.667,190.977 118.227,190.882 117.579 C 190.672 116.149,190.400 116.035,190.400 117.376 M372.352 127.113 C 372.221 127.907,372.279 128.281,372.501 128.059 C 372.703 127.857,372.801 127.267,372.719 126.746 C 372.593 125.945,372.537 126.002,372.352 127.113 M370.554 133.777 C 370.432 134.094,370.403 134.679,370.489 135.077 C 370.587 135.528,370.724 135.312,370.854 134.500 C 371.071 133.138,370.930 132.796,370.554 133.777 M366.352 149.113 C 366.221 149.907,366.279 150.281,366.501 150.059 C 366.703 149.857,366.801 149.267,366.719 148.746 C 366.593 147.945,366.537 148.002,366.352 149.113 M232.800 191.200 L 228.600 191.443 232.676 191.522 C 235.051 191.567,236.856 191.433,237.000 191.200 C 237.136 190.980,237.192 190.835,237.124 190.878 C 237.056 190.921,235.110 191.066,232.800 191.200 M309.123 275.100 C 308.418 275.921,307.890 276.800,308.101 276.800 C 308.183 276.800,308.649 276.260,309.137 275.600 C 310.101 274.296,310.092 273.972,309.123 275.100 M303.123 283.100 C 302.418 283.921,301.890 284.800,302.101 284.800 C 302.183 284.800,302.649 284.260,303.137 283.600 C 304.101 282.296,304.092 281.972,303.123 283.100 M293.200 295.000 C 292.228 295.990,291.523 296.800,291.633 296.800 C 291.743 296.800,292.628 295.990,293.600 295.000 C 294.572 294.010,295.277 293.200,295.167 293.200 C 295.057 293.200,294.172 294.010,293.200 295.000 M282.270 306.062 L 280.200 308.125 282.400 306.190 C 283.610 305.125,284.675 304.197,284.767 304.127 C 284.858 304.057,284.800 304.000,284.637 304.000 C 284.474 304.000,283.409 304.928,282.270 306.062 M212.400 318.555 C 212.400 318.640,212.930 318.787,213.579 318.882 C 214.227 318.977,214.667 318.908,214.555 318.728 C 214.357 318.407,212.400 318.250,212.400 318.555 M256.800 320.293 C 254.831 320.524,254.475 321.052,256.413 320.867 C 257.289 320.784,258.105 320.555,258.226 320.358 C 258.348 320.161,258.392 320.029,258.324 320.064 C 258.256 320.099,257.570 320.202,256.800 320.293 M222.100 320.676 C 222.485 320.776,223.115 320.776,223.500 320.676 C 223.885 320.575,223.570 320.493,222.800 320.493 C 222.030 320.493,221.715 320.575,222.100 320.676 " stroke="none" fill="#9f9f9f" fill-rule="evenodd"></path><path id="path3" d="M345.300 0.697 C 346.785 0.774,349.215 0.774,350.700 0.697 C 352.185 0.620,350.970 0.557,348.000 0.557 C 345.030 0.557,343.815 0.620,345.300 0.697 M311.375 17.300 L 310.200 18.600 311.500 17.425 C 312.215 16.779,312.800 16.194,312.800 16.125 C 312.800 15.816,312.470 16.088,311.375 17.300 M385.193 30.919 L 385.385 33.000 385.518 31.246 C 385.591 30.281,385.505 29.344,385.326 29.165 C 385.147 28.985,385.087 29.775,385.193 30.919 M385.407 65.700 C 385.113 66.577,384.989 71.175,385.268 70.882 C 385.523 70.613,385.923 65.197,385.687 65.199 C 385.626 65.200,385.499 65.425,385.407 65.700 M383.152 79.913 C 383.021 80.707,383.079 81.081,383.301 80.859 C 383.503 80.657,383.601 80.067,383.519 79.546 C 383.393 78.745,383.337 78.802,383.152 79.913 M183.128 85.032 C 183.216 85.788,183.411 86.483,183.561 86.576 C 183.710 86.668,183.761 86.125,183.672 85.368 C 183.584 84.612,183.389 83.917,183.239 83.824 C 183.090 83.732,183.039 84.275,183.128 85.032 M185.128 95.032 C 185.216 95.788,185.411 96.483,185.561 96.576 C 185.710 96.668,185.761 96.125,185.672 95.368 C 185.584 94.612,185.389 93.917,185.239 93.824 C 185.090 93.732,185.039 94.275,185.128 95.032 M187.168 104.700 C 187.359 106.081,187.387 106.109,187.519 105.051 C 187.598 104.419,187.505 103.745,187.312 103.552 C 187.110 103.350,187.049 103.840,187.168 104.700 M191.152 120.887 C 191.337 121.998,191.393 122.055,191.519 121.254 C 191.601 120.733,191.503 120.143,191.301 119.941 C 191.079 119.719,191.021 120.093,191.152 120.887 M369.354 137.777 C 369.232 138.094,369.203 138.679,369.289 139.077 C 369.387 139.528,369.524 139.312,369.654 138.500 C 369.871 137.138,369.730 136.796,369.354 137.777 M212.975 179.732 C 213.591 180.539,214.176 181.200,214.275 181.200 C 214.553 181.200,212.821 178.860,212.309 178.544 C 212.059 178.389,212.359 178.924,212.975 179.732 M249.375 183.700 L 248.200 185.000 249.500 183.825 C 250.215 183.179,250.800 182.594,250.800 182.525 C 250.800 182.216,250.470 182.488,249.375 183.700 M154.600 276.800 C 154.941 277.460,155.311 278.000,155.421 278.000 C 155.531 278.000,155.341 277.460,155.000 276.800 C 154.659 276.140,154.289 275.600,154.179 275.600 C 154.069 275.600,154.259 276.140,154.600 276.800 M305.944 279.100 C 304.793 280.489,304.306 281.200,304.504 281.200 C 304.614 281.200,305.186 280.570,305.773 279.800 C 306.863 278.371,306.995 277.832,305.944 279.100 M298.558 288.500 C 297.331 289.829,295.897 291.722,296.663 291.000 C 297.517 290.195,300.088 287.200,299.925 287.200 C 299.833 287.200,299.217 287.785,298.558 288.500 M160.600 289.200 C 160.941 289.860,161.311 290.400,161.421 290.400 C 161.531 290.400,161.341 289.860,161.000 289.200 C 160.659 288.540,160.289 288.000,160.179 288.000 C 160.069 288.000,160.259 288.540,160.600 289.200 M226.752 321.312 C 226.945 321.505,227.619 321.598,228.251 321.519 C 229.309 321.387,229.281 321.359,227.900 321.168 C 227.040 321.049,226.550 321.110,226.752 321.312 M251.000 321.091 C 249.284 321.335,248.920 321.872,250.604 321.675 C 251.376 321.585,252.106 321.351,252.227 321.156 C 252.348 320.960,252.392 320.827,252.324 320.860 C 252.256 320.893,251.660 320.997,251.000 321.091 " stroke="none" fill="#6c6c6c" fill-rule="evenodd"></path><path id="path4" d="M112.200 0.698 C 110.880 0.778,109.673 0.969,109.518 1.122 C 109.364 1.275,110.354 1.340,111.718 1.266 C 113.083 1.193,114.371 0.968,114.580 0.766 C 114.789 0.565,114.879 0.434,114.780 0.476 C 114.681 0.517,113.520 0.617,112.200 0.698 M353.431 0.850 C 353.521 0.996,354.301 1.183,355.164 1.265 C 356.027 1.347,356.659 1.295,356.569 1.150 C 356.479 1.004,355.699 0.817,354.836 0.735 C 353.973 0.653,353.341 0.705,353.431 0.850 M117.717 1.097 C 119.211 1.174,121.551 1.174,122.917 1.096 C 124.282 1.018,123.060 0.955,120.200 0.955 C 117.340 0.956,116.222 1.020,117.717 1.097 M78.966 45.600 C 78.966 49.670,79.025 51.335,79.098 49.300 C 79.171 47.265,79.171 43.935,79.098 41.900 C 79.025 39.865,78.966 41.530,78.966 45.600 M386.965 48.200 C 386.966 52.160,387.026 53.726,387.098 51.680 C 387.171 49.634,387.171 46.394,387.098 44.480 C 387.024 42.566,386.965 44.240,386.965 48.200 M182.752 82.487 C 182.937 83.598,182.993 83.655,183.119 82.854 C 183.201 82.333,183.103 81.743,182.901 81.541 C 182.679 81.319,182.621 81.693,182.752 82.487 M184.752 92.487 C 184.937 93.598,184.993 93.655,185.119 92.854 C 185.201 92.333,185.103 91.743,184.901 91.541 C 184.679 91.319,184.621 91.693,184.752 92.487 M224.500 321.076 C 224.885 321.176,225.515 321.176,225.900 321.076 C 226.285 320.975,225.970 320.893,225.200 320.893 C 224.430 320.893,224.115 320.975,224.500 321.076 M252.900 321.076 C 253.285 321.176,253.915 321.176,254.300 321.076 C 254.685 320.975,254.370 320.893,253.600 320.893 C 252.830 320.893,252.515 320.975,252.900 321.076 " stroke="none" fill="#848484" fill-rule="evenodd"></path></g></svg>