<svg id="svg" version="1.1" xmlns="http://www.w3.org/2000/svg" xmlns:xlink="http://www.w3.org/1999/xlink" width="400" height="400" viewBox="0, 0, 400,400"><g id="svgg"><path id="path0" d="M64.600 13.927 C 63.720 13.996,62.829 14.221,62.620 14.427 C 62.411 14.632,61.548 14.800,60.703 14.800 C 59.586 14.800,58.491 15.238,56.703 16.400 C 55.349 17.280,54.127 18.000,53.987 18.000 C 53.072 18.000,50.402 25.296,49.815 29.400 C 48.904 35.763,50.630 58.260,52.227 60.844 C 52.325 61.003,53.290 64.433,54.372 68.466 C 58.992 85.699,68.749 115.026,76.375 134.600 C 76.803 135.700,77.807 138.310,78.605 140.400 C 79.402 142.490,80.507 145.370,81.060 146.800 C 81.613 148.230,82.515 150.570,83.064 152.000 C 84.667 156.176,87.798 163.909,91.848 173.700 C 92.372 174.965,93.228 177.035,93.751 178.300 C 94.275 179.565,96.005 183.570,97.597 187.200 C 99.189 190.830,100.985 194.970,101.587 196.400 C 102.190 197.830,103.327 200.440,104.115 202.200 C 104.903 203.960,106.468 207.560,107.592 210.200 C 108.717 212.840,110.071 215.990,110.600 217.200 C 113.734 224.365,115.600 228.745,115.600 228.932 C 115.600 229.050,117.850 233.771,120.600 239.424 C 123.350 245.076,125.600 249.756,125.600 249.822 C 125.600 249.889,127.331 253.511,129.446 257.872 C 131.561 262.232,134.151 267.600,135.200 269.800 C 145.894 292.220,153.876 308.031,156.099 311.200 C 171.007 332.451,185.290 349.625,192.796 355.325 C 194.008 356.245,195.090 357.091,195.200 357.205 C 196.140 358.180,202.622 362.800,203.050 362.800 C 203.353 362.800,203.601 362.935,203.601 363.100 C 203.602 363.265,204.457 363.747,205.501 364.171 C 206.546 364.594,207.490 365.049,207.600 365.182 C 207.710 365.314,208.610 365.772,209.600 366.200 C 210.590 366.628,211.490 367.084,211.600 367.213 C 213.412 369.344,228.520 368.960,231.793 366.700 C 232.669 366.095,233.614 365.600,233.893 365.600 C 234.172 365.600,234.400 365.428,234.400 365.219 C 234.400 365.009,234.985 364.553,235.700 364.205 C 237.714 363.226,246.000 354.662,246.000 353.559 C 246.000 353.310,246.630 352.249,247.400 351.200 C 248.170 350.151,248.800 349.092,248.800 348.846 C 248.800 348.601,248.984 348.400,249.210 348.400 C 249.435 348.400,249.780 347.995,249.975 347.500 C 250.171 347.005,250.796 345.980,251.365 345.222 C 251.934 344.465,252.400 343.604,252.400 343.310 C 252.400 343.016,252.670 342.671,253.000 342.545 C 253.330 342.418,253.600 342.152,253.600 341.953 C 253.600 341.586,254.337 340.403,258.230 334.520 C 259.423 332.716,260.400 331.139,260.400 331.017 C 260.400 330.894,260.940 330.048,261.600 329.137 C 262.260 328.225,262.800 327.256,262.800 326.983 C 262.800 326.709,263.070 326.382,263.400 326.255 C 263.730 326.129,264.000 325.822,264.000 325.574 C 264.000 325.326,264.405 324.563,264.900 323.878 C 265.395 323.194,266.172 321.906,266.627 321.017 C 268.138 318.063,268.997 316.601,269.300 316.467 C 269.465 316.393,269.600 316.171,269.600 315.973 C 269.600 315.774,270.184 314.664,270.898 313.506 C 272.561 310.808,273.403 309.320,274.184 307.700 C 274.529 306.985,274.988 306.400,275.205 306.400 C 275.422 306.400,275.600 306.191,275.600 305.935 C 275.600 305.679,276.185 304.561,276.900 303.451 C 278.722 300.622,278.792 300.493,282.214 293.800 C 285.741 286.901,286.918 284.682,287.200 284.400 C 287.430 284.170,287.935 283.283,289.657 280.082 C 290.333 278.827,291.039 277.610,291.227 277.378 C 291.415 277.146,293.205 273.730,295.206 269.788 C 297.207 265.846,298.974 262.526,299.133 262.410 C 299.292 262.295,299.772 261.390,300.200 260.400 C 300.628 259.410,301.078 258.510,301.200 258.400 C 301.322 258.290,301.772 257.390,302.200 256.400 C 302.628 255.410,303.078 254.510,303.200 254.400 C 303.322 254.290,303.772 253.390,304.200 252.400 C 304.628 251.410,305.082 250.510,305.210 250.400 C 305.568 250.091,306.800 247.333,306.800 246.840 C 306.800 246.598,306.935 246.399,307.100 246.399 C 307.265 246.398,307.747 245.543,308.171 244.499 C 308.594 243.454,309.049 242.510,309.182 242.400 C 309.314 242.290,309.772 241.390,310.200 240.400 C 310.628 239.410,311.078 238.510,311.200 238.400 C 311.322 238.290,311.760 237.390,312.173 236.400 C 312.585 235.410,314.605 231.180,316.662 226.999 C 318.718 222.819,320.400 219.216,320.400 218.994 C 320.400 218.771,320.734 217.961,321.141 217.194 C 321.549 216.427,322.115 215.080,322.399 214.200 C 322.683 213.320,323.026 212.510,323.160 212.400 C 323.294 212.290,323.647 211.480,323.944 210.600 C 324.464 209.061,325.734 206.148,327.170 203.200 C 327.546 202.430,328.095 201.035,328.390 200.100 C 328.686 199.165,329.060 198.400,329.221 198.400 C 329.382 198.400,329.633 197.905,329.780 197.300 C 329.927 196.695,330.381 195.480,330.790 194.600 C 332.827 190.211,333.912 187.635,334.410 186.000 C 334.712 185.010,335.173 183.840,335.435 183.400 C 335.697 182.960,336.134 181.880,336.408 181.000 C 336.681 180.120,337.049 179.216,337.226 178.990 C 337.403 178.765,337.837 177.685,338.189 176.590 C 338.542 175.496,339.070 174.150,339.363 173.600 C 339.657 173.050,340.123 171.880,340.401 171.000 C 340.678 170.120,341.049 169.216,341.226 168.990 C 341.403 168.765,341.837 167.685,342.189 166.590 C 342.542 165.496,343.070 164.150,343.363 163.600 C 343.657 163.050,344.127 161.880,344.409 161.000 C 344.691 160.120,345.136 159.040,345.397 158.600 C 345.659 158.160,346.115 156.990,346.409 156.000 C 346.703 155.010,347.070 154.020,347.224 153.800 C 347.378 153.580,347.805 152.320,348.174 151.000 C 348.543 149.680,349.181 147.867,349.591 146.971 C 350.001 146.076,350.461 144.681,350.613 143.871 C 350.765 143.062,351.015 142.400,351.169 142.400 C 351.323 142.400,351.683 141.455,351.969 140.300 C 352.254 139.145,352.707 137.840,352.974 137.400 C 353.242 136.960,353.696 135.700,353.984 134.600 C 354.272 133.500,354.725 132.240,354.991 131.800 C 355.256 131.360,355.801 129.920,356.202 128.600 C 356.603 127.280,357.057 126.020,357.211 125.800 C 357.364 125.580,357.818 124.320,358.220 123.000 C 358.622 121.680,359.063 120.510,359.200 120.400 C 359.337 120.290,359.778 119.120,360.180 117.800 C 360.582 116.480,361.037 115.220,361.192 115.000 C 361.348 114.780,361.792 113.430,362.180 112.000 C 362.569 110.570,363.019 109.220,363.180 109.000 C 363.342 108.780,363.792 107.430,364.180 106.000 C 364.569 104.570,365.019 103.220,365.180 103.000 C 365.342 102.780,365.792 101.430,366.180 100.000 C 366.569 98.570,367.019 97.220,367.180 97.000 C 367.342 96.780,367.792 95.430,368.180 94.000 C 368.569 92.570,369.019 91.220,369.180 91.000 C 369.342 90.780,369.792 89.430,370.180 88.000 C 370.569 86.570,371.019 85.220,371.180 85.000 C 371.342 84.780,371.792 83.430,372.180 82.000 C 372.569 80.570,373.020 79.220,373.184 79.000 C 373.348 78.780,373.795 76.980,374.179 75.000 C 374.562 73.020,375.019 71.220,375.194 71.000 C 375.370 70.780,375.818 69.160,376.191 67.400 C 376.564 65.640,377.099 63.660,377.379 63.000 C 377.660 62.340,378.116 59.910,378.394 57.600 C 378.671 55.290,379.031 53.220,379.194 53.000 C 380.281 51.530,381.154 36.150,380.464 30.636 C 379.450 22.538,374.928 15.638,370.225 15.015 C 369.120 14.868,368.099 14.560,367.956 14.329 C 367.628 13.799,361.577 13.863,361.037 14.403 C 360.819 14.621,359.808 14.800,358.791 14.800 C 357.062 14.800,353.500 15.731,352.600 16.419 C 352.380 16.587,351.120 17.033,349.800 17.410 C 348.480 17.788,347.220 18.234,347.000 18.401 C 346.532 18.757,342.191 20.572,339.600 21.494 C 338.610 21.847,337.350 22.442,336.800 22.818 C 336.250 23.193,334.180 24.453,332.200 25.617 C 328.907 27.553,321.583 32.818,320.039 34.360 C 319.686 34.712,318.138 36.169,316.599 37.598 C 309.393 44.285,299.648 57.718,297.298 64.200 C 297.059 64.860,296.203 66.930,295.397 68.800 C 294.590 70.670,293.164 74.360,292.226 77.000 C 290.777 81.083,289.022 85.849,284.382 98.300 C 283.952 99.455,283.250 101.345,282.823 102.500 C 279.353 111.879,276.449 118.974,272.796 127.000 C 272.395 127.880,271.497 129.860,270.800 131.400 C 270.103 132.940,269.201 134.920,268.796 135.800 C 268.391 136.680,266.523 140.848,264.645 145.061 C 262.768 149.275,260.255 154.765,259.062 157.261 C 252.752 170.459,251.157 173.741,247.040 182.000 C 242.905 190.295,237.880 199.110,235.841 201.647 C 224.442 215.828,214.682 218.908,204.249 211.616 C 200.971 209.325,192.000 199.535,192.000 198.248 C 192.000 198.134,191.460 197.240,190.800 196.262 C 190.140 195.284,189.600 194.285,189.600 194.042 C 189.600 193.799,189.441 193.600,189.247 193.600 C 189.052 193.600,188.784 193.285,188.651 192.900 C 188.518 192.515,187.615 190.760,186.644 189.000 C 183.327 182.986,176.339 168.702,175.784 166.800 C 175.624 166.250,175.376 165.710,175.235 165.600 C 175.094 165.490,174.628 164.590,174.200 163.600 C 173.772 162.610,173.322 161.710,173.200 161.600 C 173.078 161.490,172.628 160.590,172.200 159.600 C 171.772 158.610,171.322 157.710,171.200 157.600 C 171.078 157.490,170.628 156.590,170.200 155.600 C 169.772 154.610,169.322 153.710,169.200 153.600 C 169.078 153.490,168.628 152.590,168.200 151.600 C 167.772 150.610,167.306 149.710,167.165 149.600 C 167.024 149.490,166.780 148.950,166.623 148.400 C 166.466 147.850,165.788 146.230,165.117 144.800 C 164.446 143.370,163.485 141.300,162.983 140.200 C 162.480 139.100,161.612 137.210,161.053 136.000 C 160.495 134.790,159.920 133.305,159.776 132.700 C 159.631 132.095,159.372 131.600,159.200 131.600 C 159.028 131.600,158.769 131.105,158.624 130.500 C 158.480 129.895,157.935 128.500,157.412 127.400 C 155.738 123.873,154.513 121.042,153.951 119.400 C 153.651 118.520,153.295 117.710,153.161 117.600 C 153.027 117.490,152.594 116.410,152.198 115.200 C 151.801 113.990,151.263 112.640,151.002 112.200 C 150.740 111.760,150.280 110.590,149.980 109.600 C 149.679 108.610,149.325 107.710,149.192 107.600 C 149.059 107.490,148.622 106.320,148.220 105.000 C 147.818 103.680,147.364 102.420,147.211 102.200 C 147.057 101.980,146.607 100.720,146.211 99.400 C 145.814 98.080,145.359 96.820,145.198 96.600 C 145.037 96.380,144.585 95.210,144.194 94.000 C 143.802 92.790,143.369 91.710,143.230 91.600 C 143.092 91.490,142.648 90.320,142.244 89.000 C 141.841 87.680,141.380 86.420,141.221 86.200 C 141.062 85.980,140.607 84.720,140.211 83.400 C 139.814 82.080,139.348 80.818,139.175 80.595 C 139.001 80.372,138.644 79.292,138.381 78.195 C 137.947 76.384,136.920 73.840,135.317 70.600 C 134.990 69.941,134.455 68.591,134.128 67.600 C 133.200 64.792,129.613 57.632,127.916 55.200 C 127.072 53.990,125.732 52.010,124.939 50.800 C 124.145 49.590,123.070 48.140,122.548 47.578 C 122.027 47.016,121.600 46.341,121.600 46.078 C 121.600 45.815,121.422 45.600,121.205 45.600 C 120.988 45.600,120.380 44.925,119.854 44.100 C 118.674 42.250,110.980 34.624,109.201 33.542 C 108.485 33.107,106.464 31.592,104.710 30.175 C 102.955 28.759,101.313 27.595,101.060 27.589 C 100.807 27.583,99.893 27.043,99.029 26.389 C 98.165 25.735,97.228 25.200,96.949 25.200 C 96.669 25.200,96.296 24.965,96.120 24.678 C 95.781 24.126,93.183 22.800,92.440 22.800 C 92.198 22.800,91.999 22.665,91.999 22.500 C 91.998 22.335,91.143 21.853,90.099 21.429 C 89.054 21.006,88.110 20.551,88.000 20.418 C 87.890 20.286,86.990 19.849,86.000 19.448 C 85.010 19.046,83.930 18.585,83.600 18.423 C 83.270 18.261,81.920 17.796,80.600 17.389 C 79.280 16.983,78.110 16.548,78.000 16.423 C 77.575 15.941,74.887 15.251,72.400 14.987 C 70.970 14.835,69.620 14.572,69.400 14.403 C 68.871 13.995,66.590 13.769,64.600 13.927 " stroke="none" fill="#040404" fill-rule="evenodd"></path><path id="path1" d="M0.000 200.000 L 0.000 400.000 200.000 400.000 L 400.000 400.000 400.000 200.000 L 400.000 0.000 200.000 0.000 L 0.000 0.000 0.000 200.000 M71.200 14.393 C 73.510 14.663,75.760 15.106,76.200 15.378 C 76.640 15.651,78.080 16.206,79.400 16.612 C 80.720 17.018,81.890 17.474,82.000 17.625 C 82.110 17.776,82.807 18.031,83.549 18.192 C 84.668 18.435,92.288 21.976,94.400 23.234 C 94.730 23.431,95.691 23.965,96.536 24.422 C 97.381 24.879,98.932 25.871,99.984 26.626 C 101.035 27.382,102.034 28.000,102.204 28.000 C 102.373 28.000,103.737 28.990,105.234 30.200 C 106.732 31.410,108.141 32.400,108.365 32.400 C 108.589 32.400,108.965 32.760,109.200 33.200 C 109.435 33.640,109.847 34.002,110.114 34.003 C 110.503 34.006,113.719 37.013,117.298 40.720 C 117.574 41.005,118.205 41.623,118.700 42.092 C 119.195 42.561,119.600 43.118,119.600 43.330 C 119.600 43.542,119.976 44.095,120.436 44.558 C 121.897 46.029,125.262 50.512,125.628 51.474 C 125.822 51.983,126.165 52.400,126.390 52.400 C 126.616 52.400,126.800 52.629,126.800 52.909 C 126.800 53.189,127.304 54.044,127.920 54.809 C 129.369 56.608,134.390 66.859,135.655 70.600 C 135.952 71.480,136.314 72.290,136.458 72.400 C 136.602 72.510,137.035 73.590,137.421 74.800 C 137.807 76.010,138.259 77.180,138.425 77.400 C 138.592 77.620,139.025 78.948,139.388 80.351 C 139.751 81.754,140.283 83.284,140.570 83.751 C 140.857 84.218,141.320 85.455,141.598 86.500 C 141.876 87.545,142.261 88.400,142.452 88.400 C 142.643 88.400,142.800 88.649,142.800 88.954 C 142.800 89.824,144.122 93.774,144.502 94.037 C 144.689 94.167,145.115 95.317,145.448 96.592 C 145.781 97.867,146.287 99.290,146.573 99.755 C 146.858 100.220,147.328 101.500,147.616 102.600 C 147.904 103.700,148.354 104.960,148.616 105.400 C 148.878 105.840,149.320 107.055,149.598 108.100 C 149.876 109.145,150.221 110.000,150.365 110.000 C 150.508 110.000,150.867 110.855,151.163 111.900 C 151.459 112.945,151.926 114.166,152.202 114.613 C 152.478 115.060,153.029 116.455,153.425 117.713 C 153.822 118.971,154.276 120.000,154.436 120.000 C 154.595 120.000,155.037 120.990,155.418 122.200 C 155.798 123.410,156.265 124.400,156.455 124.400 C 156.645 124.400,156.800 124.678,156.800 125.017 C 156.800 125.356,157.317 126.751,157.949 128.117 C 158.581 129.483,159.346 131.320,159.649 132.200 C 159.952 133.080,160.388 134.001,160.619 134.247 C 160.849 134.493,161.291 135.483,161.602 136.447 C 161.912 137.411,162.269 138.290,162.394 138.400 C 162.520 138.510,162.960 139.410,163.372 140.400 C 164.690 143.562,166.777 147.966,171.446 157.433 C 173.951 162.511,176.000 166.966,176.000 167.333 C 176.000 167.700,176.162 168.000,176.360 168.000 C 176.558 168.000,177.043 168.900,177.439 170.000 C 177.834 171.100,178.286 172.000,178.442 172.000 C 178.598 172.000,179.037 172.990,179.418 174.200 C 179.798 175.410,180.225 176.400,180.367 176.400 C 180.508 176.400,180.973 177.300,181.400 178.400 C 181.827 179.500,182.277 180.400,182.400 180.400 C 182.523 180.400,182.973 181.300,183.400 182.400 C 183.827 183.500,184.276 184.400,184.398 184.400 C 184.521 184.400,184.976 185.208,185.410 186.196 C 185.845 187.184,186.311 187.994,186.446 187.996 C 186.581 187.998,187.014 188.855,187.408 189.900 C 187.802 190.945,188.366 191.944,188.662 192.120 C 188.958 192.296,189.200 192.637,189.200 192.878 C 189.200 193.120,189.830 194.266,190.600 195.426 C 191.370 196.586,192.000 197.730,192.000 197.968 C 192.000 198.206,192.184 198.400,192.410 198.400 C 192.635 198.400,193.001 198.876,193.222 199.458 C 194.300 202.292,204.438 212.400,206.203 212.400 C 206.449 212.400,207.054 212.778,207.550 213.239 C 209.705 215.246,220.520 215.528,222.000 213.615 C 222.110 213.473,223.582 212.488,225.272 211.426 C 228.416 209.451,230.368 207.626,233.859 203.400 C 235.889 200.944,238.400 197.426,238.400 197.040 C 238.400 196.922,239.195 195.596,240.166 194.094 C 241.871 191.459,247.362 180.758,252.324 170.400 C 253.641 167.650,256.357 162.005,258.359 157.856 C 260.362 153.707,262.000 150.231,262.000 150.131 C 262.000 150.032,262.430 149.017,262.955 147.875 C 270.135 132.276,277.039 116.519,279.375 110.400 C 280.172 108.310,281.020 106.150,281.258 105.600 C 281.495 105.050,282.505 102.350,283.502 99.600 C 285.580 93.867,286.313 91.880,289.107 84.400 C 290.217 81.430,291.493 77.908,291.942 76.572 C 292.663 74.433,293.978 71.093,296.185 65.800 C 296.795 64.336,297.660 62.604,300.578 57.000 C 304.640 49.200,315.661 37.046,325.189 29.858 C 330.095 26.158,340.029 20.400,341.508 20.400 C 341.675 20.400,342.439 20.066,343.206 19.659 C 343.973 19.251,345.320 18.688,346.200 18.407 C 347.080 18.126,347.980 17.756,348.200 17.586 C 348.420 17.415,349.630 16.977,350.889 16.613 C 352.148 16.248,353.766 15.656,354.484 15.298 C 355.231 14.926,357.761 14.466,360.395 14.223 C 362.928 13.991,365.225 13.654,365.500 13.476 C 365.775 13.298,366.000 13.322,366.000 13.529 C 366.000 13.736,367.433 14.137,369.183 14.422 C 372.189 14.910,372.473 15.046,374.268 16.869 C 375.314 17.931,376.362 18.800,376.598 18.800 C 376.833 18.800,377.262 19.601,377.551 20.579 C 377.840 21.558,378.194 22.413,378.338 22.479 C 378.938 22.756,380.000 25.737,380.000 27.147 C 380.000 27.983,380.135 28.800,380.300 28.963 C 381.346 29.995,381.430 46.891,380.393 47.600 C 380.233 47.710,379.800 50.140,379.431 53.000 C 379.062 55.860,378.611 58.560,378.428 59.000 C 378.244 59.440,377.773 61.510,377.381 63.600 C 376.988 65.690,376.548 67.490,376.404 67.600 C 376.259 67.710,375.815 69.326,375.417 71.190 C 375.019 73.055,374.551 74.855,374.377 75.190 C 374.202 75.526,373.756 77.150,373.386 78.800 C 373.015 80.450,372.571 81.980,372.399 82.200 C 372.227 82.420,371.769 83.770,371.380 85.200 C 370.992 86.630,370.542 87.980,370.380 88.200 C 370.219 88.420,369.769 89.770,369.380 91.200 C 368.992 92.630,368.542 93.980,368.380 94.200 C 368.219 94.420,367.769 95.770,367.380 97.200 C 366.992 98.630,366.542 99.980,366.380 100.200 C 366.219 100.420,365.769 101.770,365.380 103.200 C 364.992 104.630,364.542 105.980,364.380 106.200 C 364.219 106.420,363.769 107.770,363.380 109.200 C 362.992 110.630,362.542 111.980,362.380 112.200 C 362.219 112.420,361.767 113.770,361.376 115.200 C 360.986 116.630,360.427 118.155,360.133 118.589 C 359.840 119.023,359.600 119.660,359.600 120.004 C 359.600 120.349,359.268 121.282,358.863 122.077 C 358.457 122.872,357.893 124.395,357.609 125.461 C 357.325 126.528,356.875 127.760,356.609 128.200 C 356.344 128.640,355.799 130.080,355.398 131.400 C 354.997 132.720,354.543 133.980,354.389 134.200 C 354.236 134.420,353.782 135.680,353.380 137.000 C 352.978 138.320,352.534 139.490,352.392 139.600 C 352.250 139.710,351.799 141.105,351.390 142.700 C 350.980 144.295,350.524 145.600,350.376 145.600 C 350.227 145.600,349.792 146.725,349.410 148.100 C 349.027 149.475,348.581 150.780,348.419 151.000 C 348.257 151.220,347.892 152.300,347.608 153.400 C 347.324 154.500,346.874 155.760,346.607 156.200 C 346.341 156.640,345.799 157.990,345.402 159.200 C 345.006 160.410,344.566 161.490,344.424 161.600 C 344.282 161.710,343.921 162.610,343.620 163.600 C 343.320 164.590,342.860 165.760,342.598 166.200 C 342.337 166.640,341.799 167.990,341.402 169.200 C 341.006 170.410,340.566 171.490,340.424 171.600 C 340.282 171.710,339.921 172.610,339.620 173.600 C 339.320 174.590,338.860 175.760,338.598 176.200 C 338.337 176.640,337.799 177.990,337.402 179.200 C 337.006 180.410,336.566 181.490,336.424 181.600 C 336.282 181.710,335.921 182.610,335.620 183.600 C 335.320 184.590,334.861 185.760,334.600 186.200 C 334.340 186.640,333.803 188.035,333.409 189.300 C 333.014 190.565,332.555 191.600,332.389 191.600 C 332.223 191.600,331.967 192.095,331.820 192.700 C 331.555 193.791,331.222 194.579,328.901 199.600 C 328.240 201.030,327.453 202.920,327.152 203.800 C 326.851 204.680,326.489 205.490,326.349 205.600 C 326.209 205.710,325.798 206.677,325.435 207.750 C 325.072 208.822,324.511 210.077,324.188 210.539 C 323.865 211.000,323.600 211.607,323.600 211.888 C 323.600 212.168,323.072 213.523,322.426 214.899 C 321.780 216.275,321.131 217.895,320.983 218.500 C 320.834 219.105,320.553 219.600,320.357 219.600 C 320.160 219.600,320.000 219.904,320.000 220.275 C 320.000 220.647,318.491 224.022,316.646 227.775 C 314.801 231.529,311.819 237.660,310.018 241.400 C 308.218 245.140,306.592 248.470,306.406 248.800 C 306.038 249.453,300.431 260.377,295.743 269.577 C 294.124 272.754,292.665 275.454,292.500 275.577 C 292.180 275.815,291.083 277.749,289.424 281.000 C 288.862 282.100,287.841 283.990,287.155 285.200 C 286.101 287.059,280.477 297.805,279.044 300.697 C 278.800 301.190,278.467 301.595,278.305 301.597 C 278.143 301.599,277.729 302.185,277.384 302.900 C 276.514 304.705,275.576 306.344,274.080 308.676 C 273.376 309.773,272.800 310.879,272.800 311.135 C 272.800 311.391,272.628 311.600,272.419 311.600 C 272.209 311.600,271.668 312.365,271.217 313.300 C 270.766 314.235,269.867 315.900,269.220 317.000 C 268.573 318.100,267.749 319.614,267.389 320.365 C 267.029 321.116,265.984 322.869,265.067 324.260 C 261.509 329.658,260.800 330.804,260.800 331.153 C 260.800 331.352,260.530 331.618,260.200 331.745 C 259.870 331.871,259.600 332.216,259.600 332.510 C 259.600 332.804,259.134 333.665,258.565 334.422 C 257.996 335.180,257.371 336.205,257.175 336.700 C 256.980 337.195,256.635 337.600,256.410 337.600 C 256.184 337.600,256.000 337.843,256.000 338.140 C 256.000 338.437,255.460 339.425,254.800 340.337 C 254.140 341.248,253.600 342.094,253.600 342.217 C 253.600 342.456,250.276 347.497,247.583 351.340 C 246.682 352.627,245.833 353.977,245.698 354.340 C 244.910 356.449,235.468 365.600,234.081 365.600 C 233.895 365.600,233.035 366.135,232.171 366.789 C 231.090 367.607,230.132 367.981,229.100 367.989 C 228.275 367.995,227.600 368.148,227.600 368.328 C 227.600 369.396,218.514 369.460,216.200 368.409 C 215.760 368.209,214.590 367.930,213.600 367.789 C 202.264 366.175,179.275 345.273,163.238 322.000 C 161.193 319.033,159.932 317.229,155.543 311.000 C 153.542 308.160,149.745 300.724,139.301 279.200 C 134.866 270.058,126.634 252.959,123.896 247.200 C 122.902 245.110,120.924 240.970,119.500 238.000 C 115.708 230.090,115.115 228.782,112.426 222.400 C 111.082 219.210,109.726 216.060,109.413 215.400 C 109.100 214.740,107.740 211.590,106.390 208.400 C 105.040 205.210,103.607 201.880,103.206 201.000 C 102.804 200.120,101.542 197.240,100.400 194.600 C 99.258 191.960,97.998 189.080,97.600 188.200 C 96.182 185.064,95.098 182.554,93.759 179.300 C 90.488 171.356,88.627 166.859,86.556 161.900 C 85.331 158.966,83.455 154.226,82.400 151.400 C 81.989 150.300,81.089 147.960,80.400 146.200 C 79.711 144.440,78.811 142.100,78.400 141.000 C 77.989 139.900,77.092 137.560,76.407 135.800 C 75.721 134.040,74.825 131.610,74.416 130.400 C 74.006 129.190,73.101 126.760,72.403 125.000 C 71.705 123.240,70.798 120.810,70.387 119.600 C 69.976 118.390,69.088 115.870,68.415 114.000 C 66.515 108.723,60.627 91.073,59.207 86.400 C 57.410 80.487,56.519 77.581,55.621 74.700 C 55.192 73.325,54.585 71.120,54.272 69.800 C 53.959 68.480,53.120 65.330,52.408 62.800 C 50.436 55.792,48.582 40.545,48.931 34.200 C 49.375 26.123,51.768 19.141,54.757 17.201 C 55.551 16.686,56.830 15.860,57.600 15.365 C 58.644 14.694,59.891 14.394,62.500 14.185 C 64.425 14.031,66.000 13.725,66.000 13.504 C 66.000 13.235,66.166 13.235,66.500 13.502 C 66.775 13.723,68.890 14.123,71.200 14.393 " stroke="none" fill="#fbfbfb" fill-rule="evenodd"></path><path id="path2" d="M102.767 28.545 C 103.300 29.201,104.800 30.193,104.800 29.889 C 104.800 29.813,104.215 29.322,103.500 28.799 C 102.696 28.210,102.416 28.113,102.767 28.545 M380.501 30.600 C 380.505 31.480,380.587 31.793,380.683 31.295 C 380.779 30.798,380.775 30.078,380.675 29.695 C 380.575 29.313,380.496 29.720,380.501 30.600 M48.934 37.600 C 48.934 39.250,49.005 39.925,49.091 39.100 C 49.178 38.275,49.178 36.925,49.091 36.100 C 49.005 35.275,48.934 35.950,48.934 37.600 M380.568 41.740 C 380.454 42.037,380.417 43.522,380.485 45.040 L 380.610 47.800 380.805 44.499 C 381.000 41.203,380.958 40.722,380.568 41.740 M49.314 43.800 C 49.317 44.900,49.395 45.303,49.487 44.695 C 49.579 44.086,49.577 43.186,49.482 42.695 C 49.387 42.203,49.311 42.700,49.314 43.800 M378.501 57.400 C 378.505 58.280,378.587 58.593,378.683 58.095 C 378.779 57.598,378.775 56.878,378.675 56.495 C 378.575 56.113,378.496 56.520,378.501 57.400 M376.554 65.777 C 376.432 66.094,376.403 66.679,376.489 67.077 C 376.587 67.528,376.724 67.312,376.854 66.500 C 377.071 65.138,376.930 64.796,376.554 65.777 M194.364 201.933 C 194.580 202.336,195.071 202.921,195.455 203.233 C 195.887 203.584,195.790 203.304,195.201 202.500 C 194.151 201.065,193.757 200.798,194.364 201.933 M213.566 215.326 C 213.747 215.507,214.593 215.593,215.447 215.519 L 217.000 215.383 215.119 215.190 C 214.084 215.084,213.385 215.145,213.566 215.326 M184.200 347.600 C 185.283 348.700,186.260 349.600,186.370 349.600 C 186.480 349.600,185.683 348.700,184.600 347.600 C 183.517 346.500,182.540 345.600,182.430 345.600 C 182.320 345.600,183.117 346.500,184.200 347.600 M243.600 356.600 C 242.628 357.590,241.923 358.400,242.033 358.400 C 242.143 358.400,243.028 357.590,244.000 356.600 C 244.972 355.610,245.677 354.800,245.567 354.800 C 245.457 354.800,244.572 355.610,243.600 356.600 M235.400 364.635 L 234.200 365.666 235.500 364.806 C 236.215 364.333,236.800 363.868,236.800 363.773 C 236.800 363.473,236.631 363.578,235.400 364.635 M216.400 368.555 C 216.400 368.640,216.930 368.787,217.579 368.882 C 218.227 368.977,218.667 368.908,218.555 368.728 C 218.357 368.407,216.400 368.250,216.400 368.555 M225.505 368.683 C 226.002 368.779,226.722 368.775,227.105 368.675 C 227.487 368.575,227.080 368.496,226.200 368.501 C 225.320 368.505,225.007 368.587,225.505 368.683 " stroke="none" fill="#a1a1a1" fill-rule="evenodd"></path><path id="path3" d="" stroke="none" fill="#848484" fill-rule="evenodd"></path><path id="path4" d="M60.800 14.400 L 59.000 14.680 60.676 14.740 C 61.598 14.773,62.464 14.620,62.600 14.400 C 62.736 14.180,62.792 14.027,62.724 14.060 C 62.656 14.093,61.790 14.246,60.800 14.400 M69.477 14.422 C 69.655 14.591,71.060 14.824,72.600 14.939 C 75.460 15.152,75.053 14.996,71.277 14.431 C 70.109 14.257,69.299 14.253,69.477 14.422 M357.700 14.687 C 358.305 14.778,359.295 14.778,359.900 14.687 C 360.505 14.595,360.010 14.520,358.800 14.520 C 357.590 14.520,357.095 14.595,357.700 14.687 M369.000 14.800 C 369.660 14.968,370.740 15.106,371.400 15.107 C 372.409 15.108,372.345 15.055,371.000 14.777 C 368.974 14.358,367.337 14.377,369.000 14.800 M351.400 16.614 C 350.395 17.098,350.363 17.153,351.200 16.951 C 351.750 16.819,352.371 16.550,352.580 16.355 C 353.098 15.871,352.814 15.933,351.400 16.614 M78.033 16.544 C 78.125 16.623,78.740 16.808,79.400 16.956 C 80.276 17.152,80.438 17.115,80.000 16.818 C 79.460 16.453,77.632 16.198,78.033 16.544 M375.700 18.552 C 376.305 19.107,376.800 19.740,376.800 19.957 C 376.800 20.175,376.963 20.454,377.163 20.577 C 378.171 21.200,376.954 19.177,375.867 18.421 L 374.600 17.542 375.700 18.552 M106.800 31.746 C 106.800 31.856,107.340 32.330,108.000 32.800 C 108.660 33.270,109.200 33.564,109.200 33.454 C 109.200 33.344,108.660 32.870,108.000 32.400 C 107.340 31.930,106.800 31.636,106.800 31.746 M380.893 33.600 C 380.893 34.370,380.975 34.685,381.076 34.300 C 381.176 33.915,381.176 33.285,381.076 32.900 C 380.975 32.515,380.893 32.830,380.893 33.600 M380.967 35.742 C 380.852 36.040,380.815 37.435,380.885 38.842 L 381.011 41.400 381.205 38.299 C 381.400 35.196,381.356 34.727,380.967 35.742 M315.578 38.300 L 314.200 39.800 315.700 38.422 C 317.096 37.138,317.384 36.800,317.078 36.800 C 317.012 36.800,316.337 37.475,315.578 38.300 M49.314 39.000 C 49.317 40.100,49.395 40.503,49.487 39.895 C 49.579 39.286,49.577 38.386,49.482 37.895 C 49.387 37.403,49.311 37.900,49.314 39.000 M378.893 54.400 C 378.893 55.170,378.975 55.485,379.076 55.100 C 379.176 54.715,379.176 54.085,379.076 53.700 C 378.975 53.315,378.893 53.630,378.893 54.400 M218.200 214.800 C 217.696 215.017,217.622 215.144,218.000 215.144 C 218.330 215.144,218.960 214.989,219.400 214.800 C 219.904 214.583,219.978 214.456,219.600 214.456 C 219.270 214.456,218.640 214.611,218.200 214.800 M183.600 346.600 C 184.795 347.810,185.863 348.800,185.973 348.800 C 186.083 348.800,185.195 347.810,184.000 346.600 C 182.805 345.390,181.737 344.400,181.627 344.400 C 181.517 344.400,182.405 345.390,183.600 346.600 M223.200 368.693 C 221.231 368.924,220.875 369.452,222.813 369.267 C 223.689 369.184,224.505 368.955,224.626 368.758 C 224.748 368.561,224.792 368.429,224.724 368.464 C 224.656 368.499,223.970 368.602,223.200 368.693 " stroke="none" fill="#7c7c7c" fill-rule="evenodd"></path></g></svg>