<svg id="svg" version="1.1" xmlns="http://www.w3.org/2000/svg" xmlns:xlink="http://www.w3.org/1999/xlink" width="400" height="400" viewBox="0, 0, 400,400"><g id="svgg"><path id="path0" d="M65.459 14.304 C 65.327 14.519,63.676 15.018,61.791 15.413 L 58.364 16.132 55.219 19.278 C 46.315 28.182,43.470 39.043,42.418 68.151 C 42.226 73.482,42.227 79.432,42.422 81.722 C 42.613 83.965,43.049 90.030,43.392 95.200 C 43.735 100.370,44.191 106.040,44.406 107.800 C 44.620 109.560,45.155 114.690,45.593 119.200 C 46.032 123.710,46.937 131.000,47.605 135.400 C 48.273 139.800,49.166 145.740,49.590 148.600 C 50.013 151.460,51.367 158.660,52.597 164.600 C 53.828 170.540,55.178 177.110,55.598 179.200 C 56.017 181.290,56.921 185.520,57.605 188.600 C 58.289 191.680,59.188 195.820,59.602 197.800 C 60.668 202.891,61.947 208.293,62.587 210.400 C 62.888 211.390,63.699 214.270,64.390 216.800 C 65.577 221.147,66.164 223.261,68.634 232.100 C 69.535 235.321,71.655 242.184,75.029 252.800 C 77.132 259.415,78.821 264.475,80.772 270.000 C 81.899 273.190,83.472 277.690,84.268 280.000 C 86.239 285.719,88.993 292.878,92.194 300.600 C 93.014 302.580,94.815 306.990,96.194 310.400 C 97.573 313.810,99.256 317.860,99.932 319.400 C 100.609 320.940,103.082 326.700,105.428 332.200 C 109.901 342.687,110.558 344.118,117.278 358.000 C 119.567 362.730,121.679 367.187,121.971 367.906 L 122.502 369.211 123.470 368.106 C 125.530 365.754,130.800 359.232,130.800 359.035 C 130.800 358.921,131.171 358.417,131.624 357.914 C 133.946 355.340,138.800 349.189,138.800 348.821 C 138.800 348.590,138.978 348.400,139.195 348.400 C 139.412 348.400,140.028 347.706,140.564 346.857 C 141.100 346.009,144.522 342.152,148.169 338.287 C 151.816 334.421,154.800 331.165,154.800 331.049 C 154.800 330.776,166.774 318.800,167.047 318.800 C 167.162 318.800,170.056 316.183,173.478 312.984 C 176.900 309.786,180.262 306.880,180.950 306.526 C 181.637 306.173,183.221 305.100,184.470 304.142 C 185.718 303.184,186.868 302.400,187.025 302.400 C 187.182 302.400,188.603 301.410,190.183 300.200 C 191.763 298.990,193.259 298.000,193.508 298.000 C 193.757 298.000,194.104 297.770,194.280 297.489 C 194.456 297.207,195.410 296.627,196.400 296.200 C 197.390 295.772,198.290 295.322,198.400 295.200 C 198.510 295.078,199.410 294.644,200.400 294.235 C 201.390 293.827,203.785 292.708,205.722 291.748 C 207.659 290.788,209.999 289.887,210.922 289.747 C 211.845 289.606,212.780 289.357,213.000 289.193 C 215.159 287.586,236.263 287.558,237.600 289.160 C 237.710 289.292,238.610 289.813,239.600 290.317 C 240.590 290.821,241.760 291.453,242.200 291.722 C 242.640 291.991,244.260 292.909,245.800 293.762 C 249.500 295.812,257.750 303.914,265.592 313.200 C 271.046 319.659,278.828 327.670,281.204 329.271 C 281.752 329.640,283.370 330.766,284.800 331.772 C 288.156 334.134,290.846 335.483,293.651 336.212 C 294.889 336.533,296.419 337.066,297.051 337.396 C 298.605 338.206,307.721 338.245,309.250 337.447 C 309.827 337.146,311.267 336.661,312.450 336.370 C 313.716 336.058,315.340 335.253,316.400 334.412 C 317.390 333.626,319.100 332.373,320.200 331.626 C 321.300 330.879,323.100 329.218,324.200 327.935 C 325.300 326.652,327.014 324.746,328.008 323.701 C 329.003 322.655,330.042 321.350,330.318 320.800 C 330.594 320.250,331.543 318.630,332.426 317.200 C 333.309 315.770,334.243 314.105,334.503 313.500 C 334.763 312.895,335.098 312.400,335.248 312.400 C 335.538 312.400,339.552 304.346,340.430 302.000 C 340.719 301.230,341.060 300.510,341.188 300.400 C 341.317 300.290,341.772 299.390,342.200 298.400 C 342.628 297.410,343.084 296.510,343.214 296.400 C 343.344 296.290,343.770 295.165,344.162 293.901 C 344.554 292.636,345.021 291.511,345.200 291.400 C 345.379 291.289,345.846 290.164,346.238 288.899 C 346.630 287.635,347.075 286.510,347.228 286.400 C 347.381 286.290,347.797 285.339,348.153 284.286 C 348.509 283.233,349.058 281.973,349.374 281.486 C 349.690 280.999,350.169 279.700,350.439 278.600 C 350.709 277.500,351.044 276.510,351.184 276.400 C 351.324 276.290,351.672 275.390,351.957 274.400 C 352.242 273.410,352.719 272.060,353.016 271.400 C 353.313 270.740,353.861 269.120,354.235 267.800 C 354.608 266.480,355.138 265.040,355.412 264.600 C 355.686 264.160,356.143 262.585,356.429 261.100 C 356.714 259.615,357.067 258.400,357.214 258.400 C 357.360 258.400,357.803 257.005,358.197 255.300 C 358.590 253.595,359.053 252.018,359.225 251.797 C 359.397 251.575,359.827 250.147,360.180 248.624 C 360.533 247.101,360.969 245.663,361.149 245.428 C 361.329 245.192,361.785 243.470,362.162 241.600 C 362.539 239.730,363.008 237.840,363.203 237.400 C 363.398 236.960,363.850 235.160,364.207 233.400 C 364.564 231.640,365.011 229.840,365.199 229.400 C 365.548 228.588,366.140 225.905,366.612 223.000 C 366.755 222.120,367.011 221.220,367.182 221.000 C 367.353 220.780,367.810 218.800,368.198 216.600 C 368.585 214.400,369.023 212.510,369.171 212.400 C 369.319 212.290,369.769 210.400,370.171 208.200 C 370.573 206.000,371.032 204.020,371.191 203.800 C 371.351 203.580,371.813 200.970,372.219 198.000 C 372.625 195.030,373.065 192.510,373.196 192.400 C 373.328 192.290,373.764 189.860,374.165 187.000 C 374.566 184.140,375.029 181.620,375.192 181.400 C 375.356 181.180,375.810 178.660,376.200 175.800 C 376.590 172.940,377.028 170.510,377.172 170.400 C 377.317 170.290,377.764 167.860,378.165 165.000 C 378.566 162.140,379.040 159.618,379.217 159.395 C 379.395 159.172,379.840 156.112,380.206 152.595 C 380.572 149.078,381.026 145.840,381.216 145.400 C 381.405 144.960,381.846 141.720,382.196 138.200 C 382.547 134.680,382.991 131.440,383.183 131.000 C 383.376 130.560,383.832 126.600,384.197 122.200 C 384.562 117.800,385.012 113.840,385.196 113.400 C 385.619 112.390,386.312 104.069,386.645 96.000 C 386.794 92.407,387.090 89.564,387.351 89.239 C 387.987 88.443,387.983 57.551,387.347 56.762 C 387.097 56.453,386.772 54.040,386.624 51.400 C 386.353 46.575,385.691 41.972,385.216 41.600 C 385.075 41.490,384.640 39.600,384.247 37.400 C 383.593 33.728,383.146 32.400,381.221 28.400 C 380.851 27.630,380.305 26.190,380.008 25.200 C 379.421 23.240,373.978 17.200,372.798 17.200 C 372.457 17.200,371.823 16.956,371.389 16.658 C 370.955 16.359,369.610 15.793,368.400 15.399 C 367.190 15.005,366.088 14.509,365.950 14.298 C 365.797 14.063,365.594 14.086,365.426 14.357 C 365.255 14.634,363.617 14.800,361.048 14.800 C 357.242 14.800,353.875 15.445,352.600 16.419 C 352.380 16.587,351.120 17.033,349.800 17.410 C 348.480 17.788,347.220 18.234,347.000 18.401 C 346.532 18.757,342.191 20.572,339.600 21.494 C 338.610 21.847,337.350 22.442,336.800 22.818 C 336.250 23.193,334.180 24.453,332.200 25.617 C 328.907 27.553,321.583 32.818,320.039 34.360 C 319.686 34.712,318.138 36.169,316.599 37.598 C 309.393 44.285,299.648 57.718,297.298 64.200 C 297.059 64.860,296.204 66.930,295.398 68.800 C 294.593 70.670,293.304 74.000,292.536 76.200 C 286.180 94.387,277.444 112.835,270.135 123.500 C 268.741 125.535,266.400 128.955,264.933 131.100 C 260.845 137.079,256.534 142.338,249.488 149.943 C 244.115 155.741,241.605 158.078,236.200 162.317 C 234.909 163.330,228.088 166.835,226.307 167.401 C 225.148 167.769,223.652 168.315,222.983 168.615 C 220.284 169.822,208.525 169.666,207.003 168.403 C 206.776 168.214,205.719 167.840,204.656 167.572 C 202.313 166.982,194.338 162.990,193.885 162.180 C 193.706 161.861,193.371 161.600,193.139 161.600 C 192.454 161.600,186.881 156.748,182.952 152.730 C 179.826 149.534,177.757 147.234,170.964 139.400 C 169.071 137.217,166.316 133.414,165.965 132.500 C 165.775 132.005,165.435 131.600,165.210 131.600 C 164.984 131.600,164.798 131.375,164.796 131.100 C 164.793 130.825,164.075 129.700,163.200 128.600 C 162.325 127.500,161.607 126.394,161.604 126.143 C 161.602 125.891,161.330 125.582,161.000 125.455 C 160.670 125.329,160.400 125.019,160.400 124.766 C 160.400 124.514,159.770 123.449,159.000 122.400 C 158.230 121.351,157.600 120.292,157.600 120.046 C 157.600 119.801,157.420 119.600,157.200 119.600 C 156.980 119.600,156.800 119.401,156.800 119.158 C 156.800 118.915,156.299 117.970,155.686 117.058 C 155.073 116.146,152.984 112.160,151.043 108.200 C 149.103 104.240,147.288 100.550,147.009 100.000 C 146.731 99.450,146.274 98.280,145.994 97.400 C 145.713 96.520,145.374 95.710,145.240 95.600 C 145.106 95.490,144.753 94.680,144.456 93.800 C 144.159 92.920,143.462 91.210,142.908 90.000 C 141.077 86.001,140.841 85.419,140.157 83.200 C 139.783 81.990,139.339 80.818,139.169 80.595 C 138.998 80.372,138.644 79.292,138.381 78.195 C 137.947 76.384,136.920 73.840,135.317 70.600 C 134.990 69.941,134.455 68.591,134.128 67.600 C 133.200 64.792,129.613 57.632,127.916 55.200 C 127.072 53.990,125.732 52.010,124.939 50.800 C 124.145 49.590,123.070 48.140,122.548 47.578 C 122.027 47.016,121.600 46.341,121.600 46.078 C 121.600 45.815,121.422 45.600,121.205 45.600 C 120.988 45.600,120.380 44.925,119.854 44.100 C 118.674 42.250,110.980 34.624,109.201 33.542 C 108.485 33.107,106.464 31.592,104.710 30.175 C 102.955 28.759,101.313 27.595,101.060 27.589 C 100.807 27.583,99.893 27.043,99.029 26.389 C 98.165 25.735,97.228 25.200,96.949 25.200 C 96.669 25.200,96.296 24.965,96.120 24.678 C 95.781 24.126,93.183 22.800,92.440 22.800 C 92.198 22.800,91.999 22.665,91.999 22.500 C 91.998 22.335,91.143 21.853,90.099 21.429 C 89.054 21.006,88.110 20.551,88.000 20.418 C 87.890 20.286,86.990 19.849,86.000 19.448 C 85.010 19.046,83.930 18.585,83.600 18.423 C 83.270 18.261,81.920 17.796,80.600 17.389 C 79.280 16.983,78.110 16.548,78.000 16.423 C 77.451 15.799,74.560 15.240,70.600 14.990 C 68.180 14.837,66.088 14.533,65.950 14.314 C 65.789 14.056,65.614 14.053,65.459 14.304 " stroke="none" fill="#040404" fill-rule="evenodd"></path><path id="path1" d="M0.000 200.000 L 0.000 400.000 200.000 400.000 L 400.000 400.000 400.000 200.000 L 400.000 0.000 200.000 0.000 L 0.000 0.000 0.000 200.000 M71.000 14.614 C 73.420 14.760,75.760 15.104,76.200 15.377 C 76.640 15.650,78.080 16.206,79.400 16.612 C 80.720 17.018,81.890 17.474,82.000 17.625 C 82.110 17.776,82.807 18.031,83.549 18.192 C 84.668 18.435,92.288 21.976,94.400 23.234 C 94.730 23.431,95.691 23.965,96.536 24.422 C 97.381 24.879,98.932 25.871,99.984 26.626 C 101.035 27.382,102.034 28.000,102.204 28.000 C 102.373 28.000,103.737 28.990,105.234 30.200 C 106.732 31.410,108.141 32.400,108.365 32.400 C 108.589 32.400,108.965 32.760,109.200 33.200 C 109.435 33.640,109.847 34.002,110.114 34.003 C 110.503 34.006,113.719 37.013,117.298 40.720 C 117.574 41.005,118.205 41.623,118.700 42.092 C 119.195 42.561,119.600 43.118,119.600 43.330 C 119.600 43.542,119.976 44.095,120.436 44.558 C 121.897 46.029,125.262 50.512,125.628 51.474 C 125.822 51.983,126.165 52.400,126.390 52.400 C 126.616 52.400,126.800 52.629,126.800 52.909 C 126.800 53.189,127.304 54.044,127.920 54.809 C 129.369 56.608,134.390 66.859,135.655 70.600 C 135.952 71.480,136.314 72.290,136.458 72.400 C 136.602 72.510,137.035 73.590,137.421 74.800 C 137.807 76.010,138.259 77.180,138.425 77.400 C 138.592 77.620,139.025 78.948,139.388 80.351 C 139.751 81.754,140.285 83.284,140.574 83.751 C 140.863 84.218,141.341 85.455,141.637 86.500 C 141.933 87.545,142.287 88.400,142.423 88.400 C 142.560 88.400,142.911 89.165,143.203 90.100 C 143.495 91.035,144.039 92.340,144.413 93.000 C 144.786 93.660,145.335 95.055,145.633 96.100 C 145.931 97.145,146.301 98.000,146.455 98.000 C 146.609 98.000,147.047 98.945,147.427 100.100 C 147.807 101.255,148.231 102.290,148.370 102.400 C 148.509 102.510,148.972 103.410,149.400 104.400 C 149.828 105.390,150.278 106.290,150.400 106.400 C 150.522 106.510,150.972 107.410,151.400 108.400 C 151.828 109.390,152.278 110.290,152.400 110.400 C 152.522 110.510,152.972 111.410,153.400 112.400 C 153.828 113.390,154.275 114.290,154.393 114.400 C 154.511 114.510,154.966 115.320,155.404 116.200 C 155.842 117.080,156.425 117.944,156.700 118.120 C 156.975 118.296,157.200 118.656,157.200 118.921 C 157.200 119.186,157.831 120.302,158.602 121.401 C 159.374 122.501,160.179 123.670,160.391 124.000 C 160.603 124.330,161.417 125.500,162.200 126.600 C 162.982 127.700,163.729 128.915,163.858 129.300 C 163.987 129.685,164.258 130.000,164.459 130.000 C 164.660 130.000,164.938 130.315,165.076 130.700 C 165.214 131.085,165.928 132.234,166.663 133.254 C 167.398 134.273,168.000 135.265,168.000 135.457 C 168.000 135.650,168.360 136.032,168.800 136.307 C 169.240 136.582,169.600 137.006,169.600 137.250 C 169.600 137.494,170.320 138.392,171.200 139.246 C 172.080 140.100,172.800 140.905,172.800 141.034 C 172.800 141.697,187.232 157.066,188.919 158.200 C 189.246 158.420,190.575 159.436,191.871 160.457 C 194.347 162.408,200.823 165.958,203.453 166.806 C 204.304 167.080,205.180 167.441,205.400 167.609 C 207.614 169.294,220.022 169.494,224.000 167.909 C 225.430 167.339,227.043 166.742,227.583 166.583 C 228.124 166.423,229.703 165.642,231.091 164.847 C 232.480 164.051,234.107 163.130,234.708 162.800 C 238.880 160.507,251.744 147.900,257.530 140.433 C 261.084 135.846,263.544 132.478,266.430 128.244 C 268.064 125.849,270.075 122.905,270.901 121.703 C 272.888 118.808,276.130 112.996,279.326 106.600 C 284.489 96.264,287.096 90.092,291.574 77.600 C 292.639 74.630,294.082 70.850,294.782 69.200 C 295.481 67.550,296.248 65.660,296.485 65.000 C 296.722 64.340,297.046 63.620,297.205 63.400 C 297.364 63.180,298.422 61.200,299.556 59.000 C 305.785 46.910,319.704 32.455,332.189 25.111 C 335.493 23.168,340.968 20.400,341.508 20.400 C 341.675 20.400,342.439 20.066,343.206 19.659 C 343.973 19.251,345.320 18.688,346.200 18.407 C 347.080 18.126,347.980 17.756,348.200 17.586 C 348.420 17.415,349.680 16.967,351.000 16.590 C 352.320 16.212,353.580 15.769,353.800 15.604 C 355.756 14.139,365.673 13.798,368.449 15.101 C 369.412 15.553,370.920 16.162,371.800 16.454 C 373.563 17.038,379.578 22.564,379.592 23.611 C 379.596 23.947,379.841 24.577,380.136 25.011 C 380.431 25.445,381.015 26.790,381.433 28.000 C 381.851 29.210,382.295 30.290,382.419 30.400 C 382.869 30.798,383.570 33.040,383.828 34.905 C 383.974 35.953,384.236 36.899,384.411 37.007 C 384.587 37.115,384.844 37.968,384.984 38.902 C 385.381 41.566,386.025 44.525,386.398 45.400 C 388.196 49.617,388.186 100.753,386.388 105.000 C 386.201 105.440,385.757 109.310,385.400 113.600 C 385.043 117.890,384.595 121.760,384.405 122.200 C 384.215 122.640,383.953 124.440,383.822 126.200 C 383.407 131.798,382.741 137.374,382.389 138.200 C 382.201 138.640,381.746 142.060,381.378 145.800 C 381.009 149.540,380.548 152.771,380.354 152.980 C 380.159 153.189,380.000 153.962,380.000 154.698 C 380.000 156.470,378.819 163.984,378.381 165.000 C 378.191 165.440,377.747 167.960,377.395 170.600 C 377.043 173.240,376.594 175.760,376.397 176.200 C 376.199 176.640,375.746 179.070,375.390 181.600 C 375.034 184.130,374.582 186.560,374.385 187.000 C 374.189 187.440,373.747 189.960,373.405 192.600 C 373.062 195.240,372.623 197.760,372.430 198.200 C 372.237 198.640,371.775 200.980,371.404 203.400 C 371.034 205.820,370.582 207.980,370.401 208.200 C 370.220 208.420,369.955 209.320,369.812 210.200 C 369.339 213.107,368.748 215.788,368.399 216.600 C 368.210 217.040,367.737 219.200,367.347 221.400 C 366.958 223.600,366.524 225.490,366.382 225.600 C 366.240 225.710,365.798 227.510,365.400 229.600 C 365.002 231.690,364.552 233.490,364.400 233.600 C 364.248 233.710,363.798 235.510,363.400 237.600 C 363.002 239.690,362.553 241.490,362.402 241.600 C 362.252 241.710,361.904 242.970,361.630 244.400 C 361.355 245.830,360.891 247.540,360.597 248.200 C 360.304 248.860,359.736 250.750,359.335 252.400 C 358.934 254.050,358.497 255.490,358.364 255.600 C 358.231 255.710,357.800 257.150,357.406 258.800 C 357.013 260.450,356.567 261.980,356.416 262.200 C 356.264 262.420,355.807 263.770,355.400 265.200 C 354.993 266.630,354.533 267.980,354.378 268.200 C 354.223 268.420,353.787 269.680,353.409 271.000 C 353.030 272.320,352.592 273.490,352.436 273.600 C 352.279 273.710,351.818 275.060,351.412 276.600 C 351.005 278.140,350.565 279.490,350.434 279.600 C 350.303 279.710,349.949 280.520,349.649 281.400 C 349.348 282.280,348.664 283.990,348.130 285.200 C 347.595 286.410,346.920 287.940,346.629 288.600 C 346.339 289.260,345.785 290.610,345.400 291.600 C 344.277 294.485,343.799 295.577,341.898 299.600 C 339.677 304.299,337.385 309.202,337.037 310.000 C 336.892 310.330,336.154 311.590,335.395 312.800 C 334.636 314.010,333.739 315.585,333.402 316.300 C 333.065 317.015,332.612 317.600,332.395 317.600 C 332.178 317.600,332.000 317.809,332.000 318.065 C 332.000 318.900,329.486 322.562,327.724 324.293 C 326.776 325.225,325.998 326.125,325.996 326.293 C 325.990 326.862,321.167 331.600,320.595 331.600 C 320.283 331.600,319.835 331.960,319.600 332.400 C 319.365 332.840,318.983 333.200,318.753 333.200 C 318.523 333.200,317.566 333.830,316.626 334.600 C 315.686 335.370,314.542 336.000,314.082 336.000 C 313.623 336.000,313.154 336.151,313.039 336.336 C 312.925 336.521,311.609 336.997,310.116 337.393 C 308.622 337.790,307.175 338.290,306.900 338.506 C 306.564 338.769,306.400 338.751,306.400 338.449 C 306.400 338.148,305.132 338.000,302.558 338.000 C 298.967 338.000,294.363 337.193,293.395 336.394 C 293.172 336.210,292.092 335.834,290.995 335.559 C 289.898 335.284,288.190 334.493,287.200 333.802 C 286.210 333.111,284.050 331.622,282.400 330.494 C 278.758 328.004,269.936 319.138,264.593 312.600 C 258.030 304.567,249.568 296.263,245.800 294.157 C 244.040 293.173,242.240 292.154,241.800 291.892 C 237.629 289.408,237.303 289.282,234.400 289.011 C 232.750 288.858,231.157 288.530,230.859 288.283 C 230.117 287.667,220.426 287.653,219.161 288.266 C 218.633 288.523,216.346 289.001,214.080 289.330 C 209.746 289.958,209.582 290.024,197.800 295.904 C 195.380 297.112,192.363 298.888,191.096 299.850 C 189.828 300.813,188.607 301.600,188.383 301.600 C 188.159 301.600,187.871 301.870,187.745 302.200 C 187.618 302.530,187.309 302.802,187.057 302.804 C 186.806 302.807,185.700 303.525,184.600 304.400 C 183.500 305.275,182.375 305.993,182.100 305.996 C 181.825 305.998,181.600 306.186,181.600 306.413 C 181.600 306.640,181.197 306.975,180.705 307.157 C 177.718 308.262,141.200 344.653,141.200 346.525 C 141.200 346.740,140.832 347.295,140.381 347.758 C 138.971 349.209,133.200 356.343,133.200 356.637 C 133.200 356.790,132.832 357.295,132.381 357.758 C 130.660 359.528,125.200 366.376,125.200 366.765 C 125.200 366.989,124.852 367.358,124.427 367.586 C 124.002 367.813,123.540 368.359,123.400 368.800 C 122.947 370.227,122.465 369.671,120.368 365.300 C 119.233 362.935,117.088 358.480,115.602 355.400 C 109.176 342.084,108.400 340.444,108.400 340.173 C 108.400 340.016,108.047 339.148,107.616 338.244 C 107.185 337.340,105.741 333.990,104.407 330.800 C 103.074 327.610,101.728 324.460,101.417 323.800 C 101.106 323.140,100.289 321.250,99.602 319.600 C 98.914 317.950,97.931 315.610,97.417 314.400 C 96.903 313.190,96.352 311.750,96.192 311.200 C 96.033 310.650,95.756 310.016,95.577 309.791 C 95.399 309.566,94.813 308.216,94.276 306.791 C 93.739 305.366,92.447 302.130,91.404 299.600 C 87.988 291.309,85.819 285.708,84.433 281.600 C 84.024 280.390,82.667 276.520,81.416 273.000 C 77.831 262.913,77.243 261.207,76.184 257.800 C 75.637 256.040,74.763 253.250,74.242 251.600 C 73.721 249.950,72.815 247.070,72.228 245.200 C 71.641 243.330,70.789 240.630,70.335 239.200 C 69.281 235.878,66.687 226.788,64.400 218.400 C 64.010 216.970,63.107 213.730,62.392 211.200 C 61.678 208.670,60.771 205.070,60.377 203.200 C 59.984 201.330,59.209 197.730,58.656 195.200 C 58.103 192.670,57.209 188.530,56.671 186.000 C 56.132 183.470,55.501 180.680,55.267 179.800 C 55.034 178.920,54.569 176.670,54.235 174.800 C 53.901 172.930,53.075 168.790,52.400 165.600 C 50.737 157.737,48.937 147.769,48.392 143.400 C 48.145 141.420,47.689 138.360,47.379 136.600 C 46.562 131.959,44.928 118.299,44.412 111.800 C 44.168 108.720,43.794 104.850,43.582 103.200 C 40.973 82.951,41.752 51.497,45.213 37.344 C 45.866 34.673,46.400 32.266,46.400 31.995 C 46.400 29.291,56.691 16.000,58.785 16.000 C 59.160 16.000,59.598 15.865,59.759 15.700 C 60.168 15.279,65.272 14.072,66.000 14.223 C 66.330 14.292,68.580 14.468,71.000 14.614 " stroke="none" fill="#fbfbfb" fill-rule="evenodd"></path><path id="path2" d="M61.000 15.085 C 59.775 15.380,59.398 15.928,60.576 15.703 C 61.146 15.594,61.710 15.346,61.830 15.152 C 61.949 14.959,61.992 14.821,61.924 14.846 C 61.856 14.872,61.440 14.979,61.000 15.085 M102.767 28.545 C 103.300 29.201,104.800 30.193,104.800 29.889 C 104.800 29.813,104.215 29.322,103.500 28.799 C 102.696 28.210,102.416 28.113,102.767 28.545 M386.332 47.918 C 386.405 49.393,386.585 50.727,386.732 50.882 C 386.880 51.037,386.940 49.957,386.868 48.482 C 386.795 47.007,386.615 45.673,386.468 45.518 C 386.320 45.363,386.260 46.443,386.332 47.918 M43.293 48.400 C 43.293 49.170,43.375 49.485,43.476 49.100 C 43.576 48.715,43.576 48.085,43.476 47.700 C 43.375 47.315,43.293 47.630,43.293 48.400 M42.893 51.600 C 42.893 52.370,42.975 52.685,43.076 52.300 C 43.176 51.915,43.176 51.285,43.076 50.900 C 42.975 50.515,42.893 50.830,42.893 51.600 M42.128 65.600 C 42.128 67.030,42.201 67.615,42.289 66.900 C 42.378 66.185,42.378 65.015,42.289 64.300 C 42.201 63.585,42.128 64.170,42.128 65.600 M42.501 89.400 C 42.505 90.280,42.587 90.593,42.683 90.095 C 42.779 89.598,42.775 88.878,42.675 88.495 C 42.575 88.113,42.496 88.520,42.501 89.400 M42.909 95.600 C 42.909 96.590,42.987 96.995,43.082 96.500 C 43.178 96.005,43.178 95.195,43.082 94.700 C 42.987 94.205,42.909 94.610,42.909 95.600 M386.571 97.332 C 386.459 97.624,386.421 99.469,386.487 101.432 L 386.607 105.000 386.803 100.899 C 386.998 96.832,386.964 96.307,386.571 97.332 M43.309 100.000 C 43.309 100.990,43.387 101.395,43.482 100.900 C 43.578 100.405,43.578 99.595,43.482 99.100 C 43.387 98.605,43.309 99.010,43.309 100.000 M44.893 117.600 C 44.893 118.370,44.975 118.685,45.076 118.300 C 45.176 117.915,45.176 117.285,45.076 116.900 C 44.975 116.515,44.893 116.830,44.893 117.600 M384.394 120.081 C 384.287 121.336,384.346 122.216,384.524 122.037 C 384.703 121.858,384.790 120.831,384.718 119.756 L 384.587 117.800 384.394 120.081 M45.293 120.800 C 45.293 121.570,45.375 121.885,45.476 121.500 C 45.576 121.115,45.576 120.485,45.476 120.100 C 45.375 119.715,45.293 120.030,45.293 120.800 M382.390 136.481 C 382.284 137.516,382.345 138.215,382.526 138.034 C 382.707 137.853,382.793 137.007,382.719 136.153 L 382.583 134.600 382.390 136.481 M252.181 146.500 L 250.600 148.200 252.300 146.619 C 253.881 145.148,254.184 144.800,253.881 144.800 C 253.816 144.800,253.051 145.565,252.181 146.500 M380.559 149.762 C 380.441 150.071,380.407 150.926,380.483 151.662 C 380.606 152.835,380.647 152.766,380.815 151.100 C 381.011 149.152,380.939 148.774,380.559 149.762 M246.975 152.100 L 245.800 153.400 247.100 152.225 C 247.815 151.579,248.400 150.994,248.400 150.925 C 248.400 150.616,248.070 150.888,246.975 152.100 M242.778 156.700 L 241.400 158.200 242.900 156.822 C 244.296 155.538,244.584 155.200,244.278 155.200 C 244.212 155.200,243.537 155.875,242.778 156.700 M378.501 163.400 C 378.505 164.280,378.587 164.593,378.683 164.095 C 378.779 163.598,378.775 162.878,378.675 162.495 C 378.575 162.113,378.496 162.520,378.501 163.400 M214.100 169.491 C 214.925 169.578,216.275 169.578,217.100 169.491 C 217.925 169.405,217.250 169.334,215.600 169.334 C 213.950 169.334,213.275 169.405,214.100 169.491 M376.617 173.300 C 376.287 174.346,376.157 176.350,376.430 176.181 C 376.587 176.084,376.784 175.284,376.868 174.403 C 377.021 172.806,376.917 172.350,376.617 173.300 M374.501 185.400 C 374.505 186.280,374.587 186.593,374.683 186.095 C 374.779 185.598,374.775 184.878,374.675 184.495 C 374.575 184.113,374.496 184.520,374.501 185.400 M372.620 195.700 C 372.262 196.853,372.137 198.362,372.414 198.192 C 372.577 198.090,372.785 197.376,372.875 196.604 C 373.039 195.202,372.913 194.755,372.620 195.700 M370.352 207.113 C 370.221 207.907,370.279 208.281,370.501 208.059 C 370.703 207.857,370.801 207.267,370.719 206.746 C 370.593 205.945,370.537 206.002,370.352 207.113 M366.556 223.371 C 366.435 223.685,366.404 224.360,366.486 224.871 C 366.595 225.554,366.688 225.404,366.837 224.300 C 367.047 222.747,366.936 222.381,366.556 223.371 M364.554 231.777 C 364.432 232.094,364.403 232.679,364.489 233.077 C 364.587 233.528,364.724 233.312,364.854 232.500 C 365.071 231.138,364.930 230.796,364.554 231.777 M362.554 239.777 C 362.432 240.094,362.403 240.679,362.489 241.077 C 362.587 241.528,362.724 241.312,362.854 240.500 C 363.071 239.138,362.930 238.796,362.554 239.777 M358.554 253.777 C 358.432 254.094,358.403 254.679,358.489 255.077 C 358.587 255.528,358.724 255.312,358.854 254.500 C 359.071 253.138,358.930 252.796,358.554 253.777 M216.705 288.683 C 217.202 288.779,217.922 288.775,218.305 288.675 C 218.687 288.575,218.280 288.496,217.400 288.501 C 216.520 288.505,216.207 288.587,216.705 288.683 M231.233 288.545 C 231.325 288.625,232.201 288.792,233.179 288.918 C 234.330 289.065,234.754 289.016,234.379 288.779 C 233.845 288.440,230.858 288.219,231.233 288.545 M169.789 316.500 L 167.000 319.400 169.900 316.611 C 172.594 314.020,172.983 313.600,172.689 313.600 C 172.628 313.600,171.323 314.905,169.789 316.500 M323.184 329.074 C 321.763 330.544,320.965 331.489,321.412 331.174 C 322.279 330.561,326.225 326.400,325.939 326.400 C 325.845 326.400,324.606 327.603,323.184 329.074 M152.000 334.200 C 150.361 335.850,149.110 337.200,149.220 337.200 C 149.330 337.200,150.761 335.850,152.400 334.200 C 154.039 332.550,155.290 331.200,155.180 331.200 C 155.070 331.200,153.639 332.550,152.000 334.200 " stroke="none" fill="#a0a0a0" fill-rule="evenodd"></path><path id="path3" d="M63.000 14.800 C 61.981 15.238,63.032 15.238,64.400 14.800 C 65.204 14.543,65.243 14.477,64.600 14.468 C 64.160 14.462,63.440 14.611,63.000 14.800 M68.400 14.814 C 69.830 14.975,71.990 15.099,73.200 15.090 C 75.351 15.074,75.338 15.068,72.600 14.787 C 71.060 14.629,68.900 14.504,67.800 14.511 C 65.918 14.521,65.954 14.539,68.400 14.814 M358.915 14.696 C 360.188 14.776,362.168 14.775,363.315 14.694 C 364.462 14.614,363.420 14.549,361.000 14.550 C 358.580 14.551,357.642 14.616,358.915 14.696 M351.400 16.614 C 350.395 17.098,350.363 17.153,351.200 16.951 C 351.750 16.819,352.371 16.550,352.580 16.355 C 353.098 15.871,352.814 15.933,351.400 16.614 M78.033 16.544 C 78.125 16.623,78.740 16.808,79.400 16.956 C 80.276 17.152,80.438 17.115,80.000 16.818 C 79.460 16.453,77.632 16.198,78.033 16.544 M106.800 31.746 C 106.800 31.856,107.340 32.330,108.000 32.800 C 108.660 33.270,109.200 33.564,109.200 33.454 C 109.200 33.344,108.660 32.870,108.000 32.400 C 107.340 31.930,106.800 31.636,106.800 31.746 M315.578 38.300 L 314.200 39.800 315.700 38.422 C 317.096 37.138,317.384 36.800,317.078 36.800 C 317.012 36.800,316.337 37.475,315.578 38.300 M384.768 40.300 C 384.959 41.681,384.987 41.709,385.119 40.651 C 385.198 40.019,385.105 39.345,384.912 39.152 C 384.710 38.950,384.649 39.440,384.768 40.300 M386.732 53.518 C 386.805 54.993,386.985 56.327,387.132 56.482 C 387.280 56.637,387.340 55.557,387.268 54.082 C 387.195 52.607,387.015 51.273,386.868 51.118 C 386.720 50.963,386.660 52.043,386.732 53.518 M42.893 54.800 C 42.893 55.570,42.975 55.885,43.076 55.500 C 43.176 55.115,43.176 54.485,43.076 54.100 C 42.975 53.715,42.893 54.030,42.893 54.800 M42.531 59.800 C 42.533 61.340,42.605 61.921,42.692 61.091 C 42.779 60.261,42.777 59.001,42.689 58.291 C 42.600 57.581,42.529 58.260,42.531 59.800 M42.131 72.200 C 42.133 73.740,42.205 74.321,42.292 73.491 C 42.379 72.661,42.377 71.401,42.289 70.691 C 42.200 69.981,42.129 70.660,42.131 72.200 M42.509 85.600 C 42.509 86.590,42.587 86.995,42.682 86.500 C 42.778 86.005,42.778 85.195,42.682 84.700 C 42.587 84.205,42.509 84.610,42.509 85.600 M42.914 91.000 C 42.917 92.100,42.995 92.503,43.087 91.895 C 43.179 91.286,43.177 90.386,43.082 89.895 C 42.987 89.403,42.911 89.900,42.914 91.000 M387.003 89.700 C 386.706 90.562,386.586 97.178,386.873 96.882 C 387.129 96.617,387.530 89.197,387.287 89.199 C 387.226 89.200,387.097 89.425,387.003 89.700 M43.293 96.400 C 43.293 97.170,43.375 97.485,43.476 97.100 C 43.576 96.715,43.576 96.085,43.476 95.700 C 43.375 95.315,43.293 95.630,43.293 96.400 M44.493 110.800 C 44.493 111.570,44.575 111.885,44.676 111.500 C 44.776 111.115,44.776 110.485,44.676 110.100 C 44.575 109.715,44.493 110.030,44.493 110.800 M44.893 114.400 C 44.893 115.170,44.975 115.485,45.076 115.100 C 45.176 114.715,45.176 114.085,45.076 113.700 C 44.975 113.315,44.893 113.630,44.893 114.400 M384.962 113.754 C 384.845 114.059,384.810 115.094,384.883 116.054 C 385.013 117.744,385.023 117.726,385.209 115.499 C 385.403 113.165,385.345 112.756,384.962 113.754 M382.790 132.881 C 382.684 133.916,382.745 134.615,382.926 134.434 C 383.107 134.253,383.193 133.407,383.119 132.553 L 382.983 131.000 382.790 132.881 M380.961 145.758 C 380.843 146.065,380.808 147.010,380.883 147.858 C 381.010 149.287,381.034 149.246,381.210 147.300 C 381.404 145.156,381.341 144.767,380.961 145.758 M251.381 147.700 L 249.800 149.400 251.500 147.819 C 253.081 146.348,253.384 146.000,253.081 146.000 C 253.016 146.000,252.251 146.765,251.381 147.700 M245.781 153.700 L 244.200 155.400 245.900 153.819 C 247.481 152.348,247.784 152.000,247.481 152.000 C 247.416 152.000,246.651 152.765,245.781 153.700 M378.954 159.777 C 378.832 160.094,378.803 160.679,378.889 161.077 C 378.987 161.528,379.124 161.312,379.254 160.500 C 379.471 159.138,379.330 158.796,378.954 159.777 M201.776 166.578 C 202.204 166.920,202.834 167.186,203.176 167.168 C 203.715 167.141,203.718 167.107,203.200 166.914 C 202.870 166.792,202.240 166.526,201.800 166.324 C 201.013 165.962,201.012 165.966,201.776 166.578 M220.600 168.800 L 219.000 169.086 220.400 169.115 C 221.170 169.131,222.160 168.989,222.600 168.800 C 223.543 168.395,222.862 168.395,220.600 168.800 M209.900 169.082 C 210.395 169.178,211.205 169.178,211.700 169.082 C 212.195 168.987,211.790 168.909,210.800 168.909 C 209.810 168.909,209.405 168.987,209.900 169.082 M376.768 171.700 C 376.649 172.560,376.710 173.050,376.912 172.848 C 377.105 172.655,377.198 171.981,377.119 171.349 C 376.987 170.291,376.959 170.319,376.768 171.700 M374.954 181.777 C 374.832 182.094,374.803 182.679,374.889 183.077 C 374.987 183.528,375.124 183.312,375.254 182.500 C 375.471 181.138,375.330 180.796,374.954 181.777 M372.901 193.800 C 372.905 194.680,372.987 194.993,373.083 194.495 C 373.179 193.998,373.175 193.278,373.075 192.895 C 372.975 192.513,372.896 192.920,372.901 193.800 M368.752 213.513 C 368.621 214.307,368.679 214.681,368.901 214.459 C 369.103 214.257,369.201 213.667,369.119 213.146 C 368.993 212.345,368.937 212.402,368.752 213.513 M356.752 259.513 C 356.621 260.307,356.679 260.681,356.901 260.459 C 357.103 260.257,357.201 259.667,357.119 259.146 C 356.993 258.345,356.937 258.402,356.752 259.513 M213.700 289.076 C 214.085 289.176,214.715 289.176,215.100 289.076 C 215.485 288.975,215.170 288.893,214.400 288.893 C 213.630 288.893,213.315 288.975,213.700 289.076 M235.505 289.083 C 236.002 289.179,236.722 289.175,237.105 289.075 C 237.487 288.975,237.080 288.896,236.200 288.901 C 235.320 288.905,235.007 288.987,235.505 289.083 M179.722 307.429 L 178.600 308.458 179.900 307.554 C 180.615 307.057,181.200 306.593,181.200 306.525 C 181.200 306.209,180.758 306.480,179.722 307.429 M317.722 333.429 L 316.600 334.458 317.900 333.554 C 318.615 333.057,319.200 332.593,319.200 332.525 C 319.200 332.209,318.758 332.480,317.722 333.429 M142.175 344.707 C 140.468 346.786,140.029 347.696,141.551 346.000 C 142.717 344.700,143.778 343.191,143.514 343.207 C 143.451 343.211,142.849 343.886,142.175 344.707 M134.175 354.707 C 132.468 356.786,132.029 357.696,133.551 356.000 C 134.717 354.700,135.778 353.191,135.514 353.207 C 135.451 353.211,134.849 353.886,134.175 354.707 M116.600 357.200 C 116.941 357.860,117.311 358.400,117.421 358.400 C 117.531 358.400,117.341 357.860,117.000 357.200 C 116.659 356.540,116.289 356.000,116.179 356.000 C 116.069 356.000,116.259 356.540,116.600 357.200 M126.175 364.707 C 124.468 366.786,124.029 367.696,125.551 366.000 C 126.717 364.700,127.778 363.191,127.514 363.207 C 127.451 363.211,126.849 363.886,126.175 364.707 " stroke="none" fill="#7c7c7c" fill-rule="evenodd"></path><path id="path4" d="" stroke="none" fill="#848484" fill-rule="evenodd"></path></g></svg>