<svg id="svg" version="1.1" xmlns="http://www.w3.org/2000/svg" xmlns:xlink="http://www.w3.org/1999/xlink" width="400" height="400" viewBox="0, 0, 400,400"><g id="svgg"><path id="path0" d="M369.337 20.788 C 362.961 21.715,357.316 23.388,345.200 27.945 C 338.285 30.546,326.307 35.447,322.739 37.136 C 320.903 38.005,317.330 39.696,314.800 40.893 C 308.747 43.758,306.178 44.871,301.600 46.611 C 299.510 47.405,296.630 48.499,295.200 49.042 C 293.770 49.585,292.030 50.282,291.334 50.591 C 287.808 52.160,270.334 56.461,262.811 57.612 C 259.847 58.065,256.662 58.607,255.735 58.815 C 249.829 60.138,218.538 60.267,211.800 58.996 C 210.040 58.664,206.402 58.046,203.715 57.622 C 196.736 56.523,179.552 52.343,175.600 50.784 C 174.610 50.393,171.100 49.144,167.800 48.008 C 164.500 46.872,159.370 44.800,156.400 43.403 C 153.430 42.006,148.687 39.769,145.860 38.432 C 143.033 37.094,140.653 36.000,140.572 36.000 C 140.399 36.000,130.949 31.875,128.590 30.770 C 127.705 30.355,126.175 29.753,125.190 29.431 C 124.206 29.110,121.870 28.287,120.000 27.604 C 97.163 19.257,83.436 18.598,81.598 25.763 C 80.801 28.867,81.076 34.143,82.184 36.988 C 82.700 38.315,83.343 40.120,83.613 41.000 C 83.883 41.880,84.237 42.780,84.399 43.000 C 84.561 43.220,85.680 45.294,86.887 47.609 C 89.416 52.463,90.112 53.721,90.424 54.000 C 90.547 54.110,91.098 55.010,91.649 56.000 C 93.529 59.381,93.803 59.786,96.514 63.191 C 103.866 72.427,106.794 75.791,110.340 79.073 C 115.834 84.161,122.575 89.584,129.026 94.110 C 137.258 99.883,138.790 100.858,149.070 106.858 C 155.784 110.777,160.744 114.663,164.175 118.692 C 167.316 122.380,167.725 123.117,169.235 127.800 C 169.660 129.120,170.211 130.593,170.458 131.073 C 171.067 132.259,171.148 142.887,170.553 143.636 C 170.307 143.946,169.875 145.449,169.593 146.976 C 169.311 148.503,168.559 150.933,167.922 152.376 C 167.284 153.819,166.603 155.360,166.408 155.800 C 163.515 162.334,158.890 170.094,154.488 175.800 C 150.344 181.172,143.830 188.867,139.740 193.220 C 135.905 197.302,129.459 204.329,125.816 208.400 C 121.015 213.763,118.606 216.664,116.289 219.871 C 114.830 221.891,112.848 224.591,111.885 225.871 C 109.340 229.252,103.607 239.834,102.928 242.400 C 102.608 243.610,101.962 246.220,101.492 248.200 C 101.022 250.180,100.494 251.860,100.319 251.933 C 99.883 252.116,99.913 262.146,100.351 262.620 C 100.544 262.829,101.018 263.990,101.404 265.200 C 101.790 266.410,102.243 267.580,102.412 267.800 C 102.580 268.020,102.953 269.010,103.241 270.000 C 103.669 271.469,107.394 276.592,110.305 279.716 C 110.732 280.174,117.096 285.003,119.149 286.426 C 120.111 287.094,123.694 288.904,127.110 290.450 L 133.322 293.260 145.161 281.522 C 151.672 275.065,158.260 268.690,159.800 267.354 C 161.340 266.018,165.338 262.533,168.684 259.608 C 172.030 256.683,176.620 252.975,178.884 251.367 C 181.148 249.758,184.080 247.655,185.400 246.693 C 190.163 243.220,194.260 240.503,197.400 238.734 C 199.160 237.743,203.030 235.529,206.000 233.813 C 208.970 232.098,212.300 230.385,213.400 230.005 C 214.500 229.626,218.263 228.284,221.762 227.024 C 226.304 225.388,229.507 224.510,232.962 223.955 C 235.623 223.527,239.037 222.978,240.548 222.733 C 242.618 222.399,244.100 222.409,246.548 222.773 C 248.337 223.040,251.569 223.516,253.731 223.832 C 255.893 224.147,258.593 224.824,259.731 225.336 C 260.869 225.848,262.700 226.642,263.800 227.102 C 268.388 229.018,271.070 230.364,272.200 231.319 C 272.860 231.876,275.148 233.773,277.285 235.534 C 279.421 237.295,283.761 241.315,286.927 244.468 C 290.094 247.621,294.286 251.640,296.242 253.400 C 298.198 255.160,300.698 257.421,301.799 258.425 C 303.966 260.402,311.813 266.344,316.000 269.179 C 317.430 270.147,319.468 271.548,320.530 272.293 C 338.024 284.572,363.081 285.809,373.647 274.916 C 377.238 271.214,378.143 262.260,375.483 256.761 C 374.887 255.530,374.400 254.391,374.400 254.230 C 374.400 253.183,368.296 241.992,366.000 238.830 C 365.010 237.467,363.263 235.057,362.118 233.476 C 359.706 230.144,359.525 229.910,355.244 224.600 C 353.470 222.400,351.609 220.066,351.109 219.414 C 350.609 218.762,348.120 216.062,345.579 213.414 C 337.507 205.005,329.037 196.069,326.800 193.601 C 326.470 193.237,325.469 192.143,324.575 191.170 C 323.681 190.196,320.814 186.880,318.205 183.800 C 315.596 180.720,313.357 178.110,313.230 178.000 C 312.788 177.615,310.569 174.580,308.991 172.200 C 308.116 170.880,307.309 169.710,307.197 169.600 C 305.659 168.087,302.114 161.740,299.151 155.200 C 298.503 153.770,297.818 152.317,297.627 151.971 C 297.437 151.625,296.977 149.825,296.605 147.971 C 296.233 146.117,295.662 143.772,295.338 142.761 C 293.795 137.951,296.053 126.047,299.227 122.262 C 299.440 122.008,300.564 120.450,301.725 118.800 C 304.599 114.717,309.686 110.822,318.888 105.658 C 330.219 99.301,332.297 98.012,336.732 94.589 C 339.004 92.835,342.978 89.780,345.564 87.800 C 351.585 83.189,357.553 77.651,361.714 72.817 C 363.520 70.718,365.179 68.793,365.399 68.540 C 365.620 68.288,366.280 67.478,366.867 66.740 C 367.454 66.003,368.725 64.410,369.692 63.200 C 370.660 61.990,372.142 59.920,372.986 58.600 C 373.830 57.280,374.928 55.570,375.425 54.800 C 378.436 50.132,381.543 43.782,382.598 40.139 C 382.971 38.852,383.435 37.606,383.629 37.370 C 384.710 36.053,385.475 29.254,384.834 26.660 C 383.817 22.547,382.000 21.355,375.000 20.212 C 374.560 20.140,372.012 20.399,369.337 20.788 " stroke="none" fill="#040404" fill-rule="evenodd"></path><path id="path1" d="M0.000 200.000 L 0.000 400.000 200.000 400.000 L 400.000 400.000 400.000 200.000 L 400.000 0.000 200.000 0.000 L 0.000 0.000 0.000 200.000 M380.400 20.737 C 385.084 22.578,387.299 30.927,384.451 36.005 C 384.265 36.337,383.819 37.618,383.461 38.850 C 383.103 40.082,382.539 41.610,382.207 42.245 C 381.876 42.880,381.604 43.639,381.602 43.931 C 381.600 44.361,378.310 50.733,376.816 53.200 C 368.235 67.369,357.588 79.119,343.831 89.600 C 340.799 91.910,337.231 94.658,335.901 95.706 C 333.250 97.796,322.505 104.297,316.200 107.625 C 314.000 108.787,311.286 110.471,310.169 111.369 C 309.052 112.266,307.162 113.712,305.969 114.583 C 303.362 116.485,298.561 123.381,297.533 126.699 C 297.167 127.883,296.545 129.515,296.152 130.326 C 294.850 133.013,295.016 143.648,296.388 145.400 C 296.561 145.620,296.914 147.060,297.173 148.600 C 297.512 150.616,298.422 152.991,300.422 157.083 C 301.950 160.208,303.200 162.883,303.200 163.027 C 303.200 163.171,304.061 164.483,305.113 165.944 C 306.165 167.405,308.099 170.220,309.411 172.200 C 310.723 174.180,313.512 177.780,315.607 180.200 C 317.703 182.620,320.309 185.680,321.397 187.000 C 322.486 188.320,324.569 190.660,326.027 192.200 C 327.484 193.740,330.269 196.710,332.215 198.800 C 334.161 200.890,338.897 205.882,342.740 209.893 C 346.583 213.904,350.104 217.663,350.564 218.246 C 351.241 219.105,353.955 222.461,358.128 227.600 C 358.396 227.930,359.782 229.795,361.208 231.745 C 362.633 233.695,364.675 236.474,365.744 237.922 C 367.625 240.469,373.600 250.772,373.600 251.468 C 373.600 251.657,373.935 252.439,374.344 253.206 C 374.753 253.973,375.225 255.050,375.392 255.600 C 375.559 256.150,376.024 257.333,376.425 258.228 C 377.582 260.811,377.530 270.301,376.355 271.028 C 376.160 271.149,376.000 271.647,376.000 272.135 C 376.000 273.503,371.479 277.690,367.974 279.568 C 363.628 281.897,354.935 283.501,349.000 283.068 C 340.250 282.430,327.499 277.493,318.267 271.168 C 315.884 269.536,313.536 267.930,313.051 267.600 C 312.565 267.270,310.767 265.920,309.055 264.600 C 307.344 263.280,305.498 261.910,304.954 261.555 C 303.190 260.404,294.008 251.953,287.827 245.791 C 282.703 240.683,270.501 230.000,269.790 230.000 C 269.666 230.000,267.097 228.938,264.082 227.639 C 255.064 223.755,246.513 222.322,238.930 223.424 C 232.573 224.347,226.396 225.599,224.800 226.288 C 224.030 226.620,222.680 227.133,221.800 227.426 C 213.457 230.210,210.542 231.586,199.600 237.906 C 190.782 242.998,176.406 253.335,168.400 260.339 C 164.990 263.322,160.850 266.929,159.200 268.355 C 157.550 269.780,151.035 276.075,144.722 282.342 L 133.244 293.738 126.722 290.740 C 116.440 286.014,111.754 282.243,103.616 272.142 C 103.413 271.890,102.944 270.630,102.575 269.342 C 102.206 268.054,101.771 266.820,101.608 266.600 C 99.547 263.805,99.529 248.975,101.584 246.200 C 101.747 245.980,102.117 244.630,102.407 243.200 C 102.768 241.422,103.736 239.162,105.467 236.054 C 106.860 233.554,108.000 231.442,108.000 231.360 C 108.000 231.024,110.699 226.834,112.356 224.600 C 113.334 223.280,114.690 221.417,115.367 220.460 C 116.651 218.649,122.238 211.783,123.484 210.487 C 123.878 210.077,125.460 208.324,127.000 206.590 C 131.503 201.523,134.597 198.139,139.794 192.600 C 142.477 189.740,144.962 187.040,145.315 186.600 C 145.669 186.160,147.421 184.000,149.208 181.800 C 150.995 179.600,152.940 177.190,153.529 176.444 C 154.118 175.698,154.915 174.753,155.300 174.344 C 155.685 173.935,156.000 173.508,156.000 173.396 C 156.000 173.284,157.020 171.619,158.266 169.696 C 163.351 161.852,163.896 160.959,164.194 160.000 C 164.364 159.450,164.930 158.191,165.452 157.203 C 165.973 156.215,166.400 155.274,166.400 155.113 C 166.400 154.952,166.917 153.691,167.549 152.310 C 168.181 150.930,168.831 148.990,168.994 148.000 C 169.157 147.010,169.426 146.020,169.593 145.800 C 171.006 143.929,171.017 132.976,169.609 129.800 C 169.219 128.920,168.663 127.255,168.374 126.100 C 168.085 124.945,167.703 124.000,167.524 124.000 C 167.346 124.000,167.200 123.718,167.200 123.373 C 167.200 120.552,156.672 111.604,146.400 105.696 C 126.964 94.517,109.769 80.810,101.315 69.757 C 100.583 68.799,94.902 61.695,93.638 60.156 C 93.438 59.912,92.852 58.952,92.337 58.022 C 91.121 55.827,90.536 54.811,88.461 51.283 C 87.517 49.679,86.485 47.789,86.167 47.083 C 85.848 46.378,85.413 45.530,85.199 45.200 C 84.617 44.301,82.968 40.418,82.396 38.600 C 82.119 37.720,81.654 36.528,81.363 35.951 C 80.534 34.312,80.517 27.250,81.338 25.604 C 81.702 24.874,82.000 24.039,82.000 23.749 C 82.000 23.458,82.585 22.924,83.300 22.562 C 84.015 22.200,84.934 21.610,85.343 21.252 C 86.566 20.178,97.911 20.373,102.400 21.544 C 109.118 23.298,126.468 29.278,131.000 31.403 C 131.660 31.713,133.730 32.622,135.600 33.423 C 137.470 34.225,139.720 35.208,140.600 35.607 C 143.971 37.136,147.936 38.971,151.400 40.607 C 153.380 41.542,156.595 43.059,158.545 43.978 C 160.494 44.898,163.104 45.983,164.345 46.389 C 165.585 46.796,169.480 48.156,173.000 49.412 C 176.520 50.667,180.480 51.943,181.800 52.247 C 183.120 52.551,185.190 53.065,186.400 53.390 C 190.826 54.578,198.652 56.353,200.600 56.610 C 201.700 56.755,203.230 57.032,204.000 57.225 C 215.400 60.091,244.992 60.405,259.200 57.812 C 261.070 57.470,264.760 56.836,267.400 56.401 C 270.040 55.967,274.090 55.069,276.400 54.407 C 278.710 53.744,282.040 52.850,283.800 52.420 C 286.839 51.677,291.426 50.201,293.600 49.266 C 294.150 49.029,295.770 48.390,297.200 47.845 C 307.646 43.867,307.205 44.055,316.600 39.592 C 325.227 35.494,330.430 33.242,337.400 30.586 C 338.720 30.083,340.340 29.387,341.000 29.038 C 341.660 28.690,342.380 28.401,342.600 28.396 C 342.820 28.392,344.890 27.656,347.200 26.761 C 362.337 20.897,374.974 18.604,380.400 20.737 " stroke="none" fill="#fbfbfb" fill-rule="evenodd"></path><path id="path2" d="M88.500 20.676 C 88.885 20.776,89.515 20.776,89.900 20.676 C 90.285 20.575,89.970 20.493,89.200 20.493 C 88.430 20.493,88.115 20.575,88.500 20.676 M98.100 21.076 C 98.485 21.176,99.115 21.176,99.500 21.076 C 99.885 20.975,99.570 20.893,98.800 20.893 C 98.030 20.893,97.715 20.975,98.100 21.076 M384.623 34.100 C 384.208 35.467,384.107 36.381,384.391 36.205 C 384.565 36.098,384.787 35.468,384.885 34.805 C 385.063 33.593,384.906 33.170,384.623 34.100 M248.700 59.089 C 249.415 59.178,250.585 59.178,251.300 59.089 C 252.015 59.001,251.430 58.928,250.000 58.928 C 248.570 58.928,247.985 59.001,248.700 59.089 M216.700 59.489 C 217.415 59.578,218.585 59.578,219.300 59.489 C 220.015 59.401,219.430 59.328,218.000 59.328 C 216.570 59.328,215.985 59.401,216.700 59.489 M243.107 59.490 C 243.826 59.579,244.906 59.577,245.507 59.486 C 246.108 59.395,245.520 59.322,244.200 59.324 C 242.880 59.326,242.388 59.401,243.107 59.490 M228.300 59.889 C 229.015 59.978,230.185 59.978,230.900 59.889 C 231.615 59.801,231.030 59.728,229.600 59.728 C 228.170 59.728,227.585 59.801,228.300 59.889 M236.500 59.876 C 236.885 59.976,237.515 59.976,237.900 59.876 C 238.285 59.775,237.970 59.693,237.200 59.693 C 236.430 59.693,236.115 59.775,236.500 59.876 M109.800 79.200 C 110.659 80.080,111.452 80.800,111.562 80.800 C 111.672 80.800,111.059 80.080,110.200 79.200 C 109.341 78.320,108.548 77.600,108.438 77.600 C 108.328 77.600,108.941 78.320,109.800 79.200 M354.985 80.100 L 353.000 82.200 355.100 80.215 C 357.051 78.371,357.383 78.000,357.085 78.000 C 357.022 78.000,356.077 78.945,354.985 80.100 M296.318 146.426 C 296.414 147.077,296.619 147.688,296.774 147.784 C 296.929 147.879,296.977 147.425,296.882 146.774 C 296.786 146.123,296.581 145.512,296.426 145.416 C 296.271 145.321,296.223 145.775,296.318 146.426 M140.975 191.300 L 139.800 192.600 141.100 191.425 C 141.815 190.779,142.400 190.194,142.400 190.125 C 142.400 189.816,142.070 190.088,140.975 191.300 M327.400 194.000 C 328.259 194.880,329.052 195.600,329.162 195.600 C 329.272 195.600,328.659 194.880,327.800 194.000 C 326.941 193.120,326.148 192.400,326.038 192.400 C 325.928 192.400,326.541 193.120,327.400 194.000 M134.975 197.700 L 133.800 199.000 135.100 197.825 C 136.312 196.730,136.584 196.400,136.275 196.400 C 136.206 196.400,135.621 196.985,134.975 197.700 M333.200 200.200 C 333.946 200.970,334.647 201.600,334.757 201.600 C 334.867 201.600,334.346 200.970,333.600 200.200 C 332.854 199.430,332.153 198.800,332.043 198.800 C 331.933 198.800,332.454 199.430,333.200 200.200 M340.600 208.000 C 342.350 209.760,343.871 211.200,343.981 211.200 C 344.091 211.200,342.750 209.760,341.000 208.000 C 339.250 206.240,337.729 204.800,337.619 204.800 C 337.509 204.800,338.850 206.240,340.600 208.000 M347.600 215.325 C 347.600 215.394,348.185 215.979,348.900 216.625 L 350.200 217.800 349.025 216.500 C 347.930 215.288,347.600 215.016,347.600 215.325 M256.033 224.544 C 256.125 224.623,256.740 224.808,257.400 224.956 C 258.276 225.152,258.438 225.115,258.000 224.818 C 257.460 224.453,255.632 224.198,256.033 224.544 M294.800 252.525 C 294.800 252.594,295.385 253.179,296.100 253.825 L 297.400 255.000 296.225 253.700 C 295.130 252.488,294.800 252.216,294.800 252.525 M300.000 257.400 C 300.746 258.170,301.447 258.800,301.557 258.800 C 301.667 258.800,301.146 258.170,300.400 257.400 C 299.654 256.630,298.953 256.000,298.843 256.000 C 298.733 256.000,299.254 256.630,300.000 257.400 M308.000 263.746 C 308.000 263.856,308.540 264.330,309.200 264.800 C 309.860 265.270,310.400 265.564,310.400 265.454 C 310.400 265.344,309.860 264.870,309.200 264.400 C 308.540 263.930,308.000 263.636,308.000 263.746 M356.305 282.683 C 356.802 282.779,357.522 282.775,357.905 282.675 C 358.287 282.575,357.880 282.496,357.000 282.501 C 356.120 282.505,355.807 282.587,356.305 282.683 M350.900 283.087 C 351.505 283.178,352.495 283.178,353.100 283.087 C 353.705 282.995,353.210 282.920,352.000 282.920 C 350.790 282.920,350.295 282.995,350.900 283.087 " stroke="none" fill="#a0a0a0" fill-rule="evenodd"></path><path id="path3" d="M91.905 20.683 C 92.402 20.779,93.122 20.775,93.505 20.675 C 93.887 20.575,93.480 20.496,92.600 20.501 C 91.720 20.505,91.407 20.587,91.905 20.683 M87.505 21.083 C 88.002 21.179,88.722 21.175,89.105 21.075 C 89.487 20.975,89.080 20.896,88.200 20.901 C 87.320 20.905,87.007 20.987,87.505 21.083 M95.300 21.076 C 95.685 21.176,96.315 21.176,96.700 21.076 C 97.085 20.975,96.770 20.893,96.000 20.893 C 95.230 20.893,94.915 20.975,95.300 21.076 M385.423 29.700 C 385.008 31.067,384.907 31.981,385.191 31.805 C 385.365 31.698,385.587 31.068,385.685 30.405 C 385.863 29.193,385.706 28.770,385.423 29.700 M248.305 59.483 C 248.802 59.579,249.522 59.575,249.905 59.475 C 250.287 59.375,249.880 59.296,249.000 59.301 C 248.120 59.305,247.807 59.387,248.305 59.483 M221.900 59.889 C 222.615 59.978,223.785 59.978,224.500 59.889 C 225.215 59.801,224.630 59.728,223.200 59.728 C 221.770 59.728,221.185 59.801,221.900 59.889 M239.700 59.876 C 240.085 59.976,240.715 59.976,241.100 59.876 C 241.485 59.775,241.170 59.693,240.400 59.693 C 239.630 59.693,239.315 59.775,239.700 59.876 M109.200 78.125 C 109.200 78.194,109.785 78.779,110.500 79.425 L 111.800 80.600 110.625 79.300 C 109.530 78.088,109.200 77.816,109.200 78.125 M353.578 81.100 L 352.200 82.600 353.700 81.222 C 355.096 79.938,355.384 79.600,355.078 79.600 C 355.012 79.600,354.337 80.275,353.578 81.100 M297.178 126.300 C 296.366 128.522,296.346 128.607,296.722 128.200 C 297.160 127.725,298.042 125.200,297.769 125.200 C 297.665 125.200,297.399 125.695,297.178 126.300 M170.520 133.200 C 170.520 134.410,170.595 134.905,170.687 134.300 C 170.778 133.695,170.778 132.705,170.687 132.100 C 170.595 131.495,170.520 131.990,170.520 133.200 M295.043 132.233 C 294.726 133.059,294.803 141.128,295.140 142.328 C 295.283 142.838,295.400 140.633,295.400 137.428 C 295.400 134.223,295.374 131.601,295.343 131.601 C 295.311 131.600,295.176 131.885,295.043 132.233 M170.623 141.700 C 170.208 143.067,170.107 143.981,170.391 143.805 C 170.565 143.698,170.787 143.068,170.885 142.405 C 171.063 141.193,170.906 140.770,170.623 141.700 M296.880 149.000 C 296.880 149.440,297.024 150.250,297.200 150.800 C 297.454 151.592,297.520 151.633,297.520 151.000 C 297.520 150.560,297.376 149.750,297.200 149.200 C 296.946 148.408,296.880 148.367,296.880 149.000 M140.575 192.100 L 139.400 193.400 140.700 192.225 C 141.912 191.130,142.184 190.800,141.875 190.800 C 141.806 190.800,141.221 191.385,140.575 192.100 M328.800 195.800 C 329.546 196.570,330.247 197.200,330.357 197.200 C 330.467 197.200,329.946 196.570,329.200 195.800 C 328.454 195.030,327.753 194.400,327.643 194.400 C 327.533 194.400,328.054 195.030,328.800 195.800 M333.983 201.300 C 334.964 202.345,335.819 203.200,335.883 203.200 C 336.184 203.200,335.866 202.841,334.100 201.183 L 332.200 199.400 333.983 201.300 M341.983 209.700 C 342.964 210.745,343.819 211.600,343.883 211.600 C 344.184 211.600,343.866 211.241,342.100 209.583 L 340.200 207.800 341.983 209.700 M296.400 253.725 C 296.400 253.794,296.985 254.379,297.700 255.025 L 299.000 256.200 297.825 254.900 C 296.730 253.688,296.400 253.416,296.400 253.725 M301.200 258.200 C 301.946 258.970,302.647 259.600,302.757 259.600 C 302.867 259.600,302.346 258.970,301.600 258.200 C 300.854 257.430,300.153 256.800,300.043 256.800 C 299.933 256.800,300.454 257.430,301.200 258.200 M352.705 282.683 C 353.202 282.779,353.922 282.775,354.305 282.675 C 354.687 282.575,354.280 282.496,353.400 282.501 C 352.520 282.505,352.207 282.587,352.705 282.683 " stroke="none" fill="#747474" fill-rule="evenodd"></path><path id="path4" d="M80.937 31.800 C 80.939 33.560,81.009 34.230,81.093 33.289 C 81.178 32.349,81.177 30.909,81.091 30.089 C 81.005 29.270,80.936 30.040,80.937 31.800 M170.796 138.318 L 170.992 141.400 171.116 138.640 C 171.184 137.121,171.095 135.735,170.920 135.558 C 170.744 135.381,170.688 136.623,170.796 138.318 M376.728 262.718 C 376.799 264.633,376.979 266.327,377.128 266.482 C 377.278 266.637,377.342 265.197,377.272 263.282 C 377.201 261.367,377.021 259.673,376.872 259.518 C 376.722 259.363,376.658 260.803,376.728 262.718 " stroke="none" fill="#7c7c7c" fill-rule="evenodd"></path></g></svg>