<svg id="svg" version="1.1" xmlns="http://www.w3.org/2000/svg" xmlns:xlink="http://www.w3.org/1999/xlink" width="400" height="400" viewBox="0, 0, 400,400"><g id="svgg"><path id="path0" d="M369.800 21.010 C 364.619 21.552,362.316 21.964,362.000 22.406 C 361.890 22.560,360.360 23.001,358.600 23.387 C 356.840 23.772,355.220 24.224,355.000 24.391 C 354.780 24.558,353.610 25.012,352.400 25.400 C 351.190 25.788,350.020 26.245,349.800 26.415 C 349.580 26.585,348.320 27.033,347.000 27.410 C 345.680 27.788,344.420 28.231,344.200 28.395 C 343.980 28.560,342.810 29.016,341.600 29.408 C 340.390 29.801,339.040 30.346,338.600 30.620 C 338.160 30.893,337.350 31.245,336.800 31.403 C 336.250 31.560,335.260 31.927,334.600 32.218 C 333.940 32.508,331.780 33.394,329.800 34.186 C 327.820 34.978,325.300 36.057,324.200 36.584 C 319.842 38.671,316.813 40.000,316.417 40.000 C 316.188 40.000,316.000 40.180,316.000 40.400 C 316.000 40.620,315.831 40.800,315.624 40.800 C 315.304 40.800,311.501 42.485,307.000 44.621 C 306.340 44.934,304.090 45.835,302.000 46.623 C 295.824 48.951,293.074 50.023,291.800 50.598 C 291.140 50.896,289.700 51.349,288.600 51.604 C 287.500 51.858,286.240 52.227,285.800 52.422 C 285.360 52.618,283.740 53.054,282.200 53.392 C 280.660 53.730,279.040 54.171,278.600 54.373 C 278.160 54.574,276.450 55.036,274.800 55.400 C 273.150 55.764,271.440 56.219,271.000 56.411 C 270.560 56.603,267.860 57.050,265.000 57.404 C 262.140 57.758,259.440 58.204,259.000 58.395 C 254.163 60.492,210.256 60.493,207.400 58.395 C 207.180 58.234,204.525 57.784,201.500 57.396 C 198.475 57.007,196.000 56.564,196.000 56.412 C 196.000 56.259,194.200 55.804,192.000 55.400 C 189.800 54.996,188.000 54.546,188.000 54.400 C 188.000 54.254,186.200 53.804,184.000 53.400 C 181.800 52.996,180.000 52.552,180.000 52.413 C 180.000 52.274,178.650 51.824,177.000 51.413 C 175.350 51.002,174.000 50.536,174.000 50.378 C 174.000 50.219,173.338 49.965,172.529 49.813 C 171.719 49.661,170.324 49.201,169.429 48.791 C 168.533 48.381,166.720 47.743,165.400 47.374 C 164.080 47.005,162.798 46.542,162.551 46.345 C 162.305 46.149,161.180 45.713,160.051 45.378 C 158.923 45.043,158.000 44.632,158.000 44.464 C 158.000 44.296,157.100 43.834,156.000 43.439 C 154.900 43.043,154.000 42.577,154.000 42.403 C 154.000 42.229,153.505 41.969,152.900 41.825 C 152.295 41.681,149.730 40.561,147.200 39.336 C 144.670 38.111,141.880 36.797,141.000 36.415 C 140.120 36.034,138.410 35.253,137.200 34.681 C 135.990 34.108,134.325 33.437,133.500 33.189 C 132.675 32.941,132.000 32.572,132.000 32.369 C 132.000 32.166,131.722 32.000,131.383 32.000 C 131.044 32.000,129.649 31.486,128.283 30.857 C 126.917 30.228,124.928 29.501,123.863 29.242 C 122.797 28.982,121.537 28.531,121.063 28.239 C 120.588 27.947,119.300 27.472,118.200 27.184 C 117.100 26.895,116.110 26.555,116.000 26.427 C 115.706 26.087,113.224 25.289,111.500 24.980 C 110.675 24.832,110.000 24.574,110.000 24.408 C 110.000 24.241,108.875 23.884,107.500 23.614 C 106.125 23.345,104.280 22.804,103.400 22.413 C 99.377 20.623,87.400 20.681,84.291 22.504 C 77.285 26.614,82.985 46.192,95.965 62.600 C 109.405 79.589,116.989 86.344,138.373 100.372 C 140.588 101.825,143.308 103.434,147.908 106.012 C 156.465 110.808,167.536 118.908,172.176 123.768 C 186.885 139.173,195.824 157.705,198.013 177.331 C 198.244 179.409,198.634 182.074,198.879 183.254 C 199.195 184.775,199.370 208.866,199.479 265.908 L 199.633 346.416 226.516 346.308 L 253.400 346.200 256.006 344.477 C 257.439 343.529,258.946 342.179,259.355 341.477 C 261.654 337.527,262.734 335.213,262.989 333.686 C 263.146 332.744,263.508 331.484,263.793 330.886 C 264.077 330.289,264.539 327.730,264.819 325.200 C 265.099 322.670,265.525 320.347,265.764 320.039 C 266.072 319.642,266.279 299.913,266.469 252.839 C 266.729 188.599,266.838 181.850,267.635 181.020 C 267.836 180.811,268.000 179.933,268.000 179.070 C 268.000 177.138,269.120 170.094,269.602 169.000 C 269.795 168.560,270.156 166.922,270.403 165.361 C 270.650 163.799,271.111 162.022,271.428 161.412 C 271.744 160.801,272.289 159.199,272.638 157.851 C 272.986 156.503,273.412 155.220,273.584 155.000 C 273.755 154.780,274.128 153.880,274.411 153.000 C 275.183 150.602,279.938 141.263,281.464 139.146 C 282.199 138.127,282.800 137.092,282.800 136.846 C 282.800 136.601,282.962 136.400,283.161 136.400 C 283.359 136.400,283.854 135.767,284.261 134.994 C 286.865 130.042,301.862 115.330,307.300 112.394 C 308.125 111.948,308.800 111.407,308.800 111.192 C 308.800 110.976,308.997 110.800,309.238 110.800 C 309.479 110.800,310.193 110.432,310.825 109.982 C 311.973 109.165,316.830 106.486,320.600 104.591 C 323.440 103.163,326.129 101.628,326.383 101.289 C 326.607 100.991,327.682 100.351,330.802 98.662 C 331.793 98.125,333.611 96.857,334.842 95.843 C 336.074 94.829,337.222 94.000,337.395 94.000 C 337.567 94.000,338.118 93.595,338.619 93.100 C 339.120 92.605,339.951 91.889,340.465 91.508 C 340.979 91.128,342.599 89.868,344.064 88.708 C 345.529 87.549,347.689 85.914,348.864 85.076 C 351.209 83.403,360.770 74.113,362.116 72.200 C 362.580 71.540,363.168 70.871,363.421 70.713 C 363.675 70.555,364.671 69.385,365.635 68.113 C 366.599 66.841,368.337 64.663,369.498 63.273 C 370.658 61.883,371.903 60.173,372.263 59.473 C 372.624 58.773,373.342 57.643,373.859 56.962 C 374.377 56.281,374.800 55.581,374.800 55.406 C 374.800 55.231,375.057 54.888,375.371 54.644 C 376.340 53.891,381.974 42.417,382.641 39.837 C 382.988 38.497,383.454 37.179,383.678 36.908 C 385.368 34.863,385.488 24.745,383.830 24.043 C 383.627 23.957,382.878 23.305,382.167 22.594 C 381.059 21.486,380.487 21.260,378.168 21.011 C 376.679 20.852,375.267 20.674,375.030 20.615 C 374.794 20.557,372.440 20.735,369.800 21.010 " stroke="none" fill="#040404" fill-rule="evenodd"></path><path id="path1" d="M0.000 200.000 L 0.000 400.000 200.000 400.000 L 400.000 400.000 400.000 200.000 L 400.000 0.000 200.000 0.000 L 0.000 0.000 0.000 200.000 M378.181 20.613 C 380.643 20.876,381.045 21.051,382.404 22.452 C 383.230 23.303,384.062 24.001,384.253 24.002 C 385.874 24.012,385.789 33.594,384.143 36.600 C 383.901 37.040,383.467 38.345,383.176 39.500 C 382.886 40.655,382.523 41.600,382.369 41.600 C 382.215 41.600,381.964 42.269,381.810 43.086 C 381.657 43.904,381.212 45.029,380.823 45.586 C 380.433 46.144,379.350 48.175,378.415 50.100 C 377.481 52.025,376.555 53.600,376.358 53.600 C 376.161 53.600,376.000 53.801,376.000 54.046 C 376.000 54.292,375.398 55.327,374.663 56.346 C 373.928 57.366,373.214 58.515,373.076 58.900 C 372.938 59.285,372.639 59.600,372.413 59.600 C 372.186 59.600,372.000 59.860,372.000 60.177 C 372.000 60.495,371.010 61.921,369.800 63.348 C 368.590 64.774,367.600 66.130,367.600 66.361 C 367.600 66.592,367.150 67.076,366.600 67.437 C 366.050 67.797,365.600 68.262,365.600 68.469 C 365.600 69.611,349.714 85.600,348.579 85.600 C 348.276 85.600,347.835 85.960,347.600 86.400 C 347.365 86.840,346.983 87.200,346.752 87.200 C 346.522 87.200,345.027 88.280,343.432 89.600 C 341.836 90.920,340.417 92.000,340.279 92.000 C 340.141 92.000,339.617 92.372,339.114 92.827 C 336.832 94.891,332.646 98.000,332.149 98.000 C 331.847 98.000,331.600 98.178,331.600 98.395 C 331.600 98.612,331.015 99.064,330.300 99.399 C 329.585 99.735,327.830 100.729,326.400 101.609 C 324.970 102.489,323.350 103.428,322.800 103.696 C 322.250 103.964,321.710 104.277,321.600 104.392 C 321.490 104.506,320.770 104.924,320.000 105.321 C 319.230 105.717,317.520 106.634,316.200 107.358 C 314.880 108.082,313.170 109.003,312.400 109.406 C 311.630 109.808,310.443 110.557,309.762 111.069 C 309.081 111.581,308.316 112.000,308.062 112.000 C 307.808 112.000,307.600 112.186,307.600 112.413 C 307.600 112.639,307.285 112.938,306.900 113.076 C 306.515 113.214,305.366 113.928,304.346 114.663 C 303.327 115.398,302.391 116.000,302.266 116.000 C 301.976 116.000,290.000 127.967,290.000 128.257 C 290.000 128.376,288.997 129.582,287.772 130.936 C 286.547 132.290,285.022 134.208,284.383 135.199 C 283.744 136.190,282.544 137.990,281.715 139.200 C 279.950 141.777,275.784 149.935,275.128 152.100 C 274.878 152.925,274.558 153.600,274.417 153.600 C 274.276 153.600,273.824 154.950,273.413 156.600 C 273.002 158.250,272.552 159.600,272.413 159.600 C 272.274 159.600,271.834 160.995,271.436 162.700 C 271.038 164.405,270.562 166.160,270.379 166.600 C 270.196 167.040,269.755 169.290,269.400 171.600 C 269.045 173.910,268.599 176.160,268.410 176.600 C 267.037 179.798,266.795 191.405,266.798 254.105 C 266.799 292.747,266.656 316.272,266.417 316.705 C 266.207 317.087,265.740 320.190,265.379 323.600 C 265.018 327.010,264.564 329.994,264.370 330.231 C 264.175 330.468,263.762 331.818,263.450 333.231 C 263.139 334.644,262.330 336.790,261.652 338.000 C 260.974 339.210,260.100 340.873,259.710 341.696 C 259.319 342.519,258.837 343.194,258.638 343.196 C 258.439 343.198,257.719 343.618,257.038 344.128 C 256.357 344.639,254.975 345.450,253.968 345.931 L 252.135 346.806 225.768 346.703 L 199.400 346.600 199.170 267.000 C 198.905 175.067,199.135 180.291,194.619 163.400 C 192.335 154.858,186.689 141.943,183.531 138.038 C 183.019 137.405,181.610 135.500,180.400 133.805 C 179.190 132.111,177.330 129.796,176.268 128.662 C 172.502 124.643,169.637 121.784,168.128 120.539 C 167.288 119.846,165.160 118.075,163.400 116.604 C 161.640 115.133,159.930 113.823,159.600 113.692 C 159.092 113.491,156.263 111.669,152.000 108.797 C 151.450 108.427,150.370 107.801,149.600 107.406 C 148.830 107.011,148.110 106.574,148.000 106.433 C 147.890 106.293,147.035 105.841,146.100 105.428 C 145.165 105.016,144.400 104.538,144.400 104.366 C 144.400 104.194,143.997 103.926,143.505 103.770 C 143.013 103.614,141.888 103.027,141.005 102.466 C 122.487 90.695,110.504 80.969,102.426 71.149 C 92.969 59.655,92.886 59.535,87.484 49.692 C 77.108 30.785,78.000 21.010,90.123 20.767 C 94.476 20.680,102.000 21.189,102.000 21.571 C 102.000 21.719,103.395 22.177,105.100 22.589 C 106.805 23.002,108.392 23.482,108.626 23.657 C 108.860 23.832,110.175 24.237,111.548 24.557 C 112.922 24.877,114.260 25.317,114.523 25.534 C 114.785 25.751,116.148 26.225,117.551 26.588 C 118.954 26.951,120.484 27.488,120.951 27.780 C 121.418 28.072,122.745 28.546,123.900 28.831 C 125.055 29.117,126.000 29.497,126.000 29.676 C 126.000 29.854,126.320 30.000,126.710 30.000 C 127.101 30.000,128.496 30.534,129.810 31.187 C 131.125 31.841,132.334 32.381,132.498 32.387 C 132.662 32.394,134.161 33.030,135.828 33.800 C 137.495 34.570,139.115 35.200,139.429 35.200 C 139.743 35.200,140.000 35.344,140.000 35.520 C 140.000 35.695,140.675 36.067,141.500 36.346 C 142.325 36.625,144.800 37.722,147.000 38.784 C 160.544 45.321,162.415 46.165,164.753 46.791 C 165.717 47.048,166.797 47.416,167.153 47.608 C 167.509 47.800,168.790 48.261,170.000 48.632 C 171.210 49.002,172.380 49.446,172.600 49.617 C 172.820 49.788,174.088 50.210,175.418 50.554 C 176.748 50.898,178.368 51.434,179.018 51.745 C 179.668 52.057,181.460 52.537,183.000 52.814 C 184.540 53.091,185.890 53.443,186.000 53.596 C 186.110 53.750,187.910 54.202,190.000 54.600 C 192.090 54.998,193.891 55.461,194.002 55.628 C 194.114 55.795,196.364 56.229,199.002 56.593 C 201.641 56.957,204.160 57.412,204.600 57.606 C 205.040 57.799,207.830 58.259,210.800 58.628 C 213.770 58.998,216.371 59.457,216.580 59.650 C 217.124 60.151,243.489 60.103,243.800 59.600 C 243.936 59.380,245.692 59.200,247.703 59.200 C 251.524 59.200,261.654 58.052,262.000 57.579 C 262.110 57.429,264.090 57.081,266.400 56.806 C 268.710 56.531,271.590 55.980,272.800 55.580 C 274.010 55.181,276.080 54.643,277.400 54.384 C 278.720 54.125,279.980 53.774,280.200 53.603 C 280.420 53.433,281.590 53.091,282.800 52.843 C 285.406 52.309,292.824 50.019,293.410 49.568 C 293.635 49.394,294.715 48.960,295.810 48.603 C 296.904 48.247,298.340 47.697,299.000 47.382 C 299.660 47.067,301.910 46.161,304.000 45.369 C 307.698 43.967,309.493 43.164,317.800 39.201 C 323.329 36.563,326.750 35.020,328.400 34.422 C 329.170 34.143,330.340 33.669,331.000 33.370 C 333.366 32.296,337.819 30.484,338.800 30.196 C 339.350 30.034,339.980 29.768,340.200 29.604 C 340.420 29.440,341.590 28.988,342.800 28.600 C 344.010 28.212,345.180 27.755,345.400 27.585 C 345.620 27.415,346.880 26.967,348.200 26.590 C 349.520 26.212,350.780 25.770,351.000 25.607 C 351.620 25.149,358.744 22.888,361.200 22.370 C 362.410 22.115,363.622 21.728,363.894 21.509 C 364.368 21.128,374.143 19.991,375.030 20.214 C 375.267 20.273,376.685 20.453,378.181 20.613 " stroke="none" fill="#fcfcfc" fill-rule="evenodd"></path><path id="path2" d="M97.561 21.323 C 97.740 21.500,98.856 21.588,100.043 21.517 L 102.200 21.389 99.718 21.194 C 98.354 21.087,97.383 21.145,97.561 21.323 M384.620 33.700 C 384.262 34.853,384.137 36.362,384.414 36.192 C 384.577 36.090,384.785 35.376,384.875 34.604 C 385.039 33.202,384.913 32.755,384.620 33.700 M201.431 57.250 C 201.521 57.396,202.301 57.583,203.164 57.665 C 204.027 57.747,204.659 57.695,204.569 57.550 C 204.479 57.404,203.699 57.217,202.836 57.135 C 201.973 57.053,201.341 57.105,201.431 57.250 M263.400 57.200 L 261.800 57.486 263.276 57.543 C 264.088 57.574,264.864 57.420,265.000 57.200 C 265.136 56.980,265.192 56.826,265.124 56.857 C 265.056 56.888,264.280 57.042,263.400 57.200 M213.431 59.250 C 213.521 59.396,214.301 59.583,215.164 59.665 C 216.027 59.747,216.659 59.695,216.569 59.550 C 216.479 59.404,215.699 59.217,214.836 59.135 C 213.973 59.053,213.341 59.105,213.431 59.250 M248.400 59.200 L 243.800 59.440 248.276 59.520 C 250.919 59.567,252.854 59.436,253.000 59.200 C 253.136 58.980,253.192 58.836,253.124 58.880 C 253.056 58.924,250.930 59.068,248.400 59.200 M363.600 70.600 C 362.628 71.590,361.923 72.400,362.033 72.400 C 362.143 72.400,363.028 71.590,364.000 70.600 C 364.972 69.610,365.677 68.800,365.567 68.800 C 365.457 68.800,364.572 69.610,363.600 70.600 M109.600 79.000 C 110.346 79.770,111.047 80.400,111.157 80.400 C 111.267 80.400,110.746 79.770,110.000 79.000 C 109.254 78.230,108.553 77.600,108.443 77.600 C 108.333 77.600,108.854 78.230,109.600 79.000 M341.322 91.029 L 340.200 92.058 341.500 91.154 C 342.215 90.657,342.800 90.193,342.800 90.125 C 342.800 89.809,342.358 90.080,341.322 91.029 M171.983 124.100 C 172.964 125.145,173.819 126.000,173.883 126.000 C 174.184 126.000,173.866 125.641,172.100 123.983 L 170.200 122.200 171.983 124.100 M287.855 130.383 C 286.835 131.473,286.000 132.493,286.000 132.650 C 286.000 132.806,286.057 132.858,286.127 132.767 C 286.197 132.675,287.122 131.655,288.182 130.500 C 289.242 129.345,290.019 128.400,289.909 128.400 C 289.799 128.400,288.875 129.292,287.855 130.383 M270.368 165.300 C 270.249 166.160,270.310 166.650,270.512 166.448 C 270.705 166.255,270.798 165.581,270.719 164.949 C 270.587 163.891,270.559 163.919,270.368 165.300 M196.868 172.800 C 196.888 173.839,197.518 175.546,197.532 174.600 C 197.538 174.160,197.389 173.440,197.200 173.000 C 196.989 172.510,196.861 172.432,196.868 172.800 M268.368 175.300 C 268.249 176.160,268.310 176.650,268.512 176.448 C 268.705 176.255,268.798 175.581,268.719 174.949 C 268.587 173.891,268.559 173.919,268.368 175.300 M198.942 192.600 C 198.941 194.580,199.008 195.440,199.092 194.512 C 199.176 193.584,199.177 191.964,199.095 190.912 C 199.012 189.860,198.943 190.620,198.942 192.600 M266.400 253.280 C 266.290 288.194,266.336 316.624,266.501 316.459 C 266.667 316.293,266.757 287.727,266.701 252.979 L 266.600 189.800 266.400 253.280 M199.398 272.400 L 199.400 346.600 226.000 346.604 L 252.600 346.609 226.101 346.501 L 199.602 346.394 199.499 272.297 L 199.397 198.200 199.398 272.400 M264.617 327.300 C 264.287 328.346,264.157 330.350,264.430 330.181 C 264.587 330.084,264.784 329.284,264.868 328.403 C 265.021 326.806,264.917 326.350,264.617 327.300 " stroke="none" fill="#a0a0a0" fill-rule="evenodd"></path><path id="path3" d="M372.400 20.297 C 371.190 20.379,370.073 20.571,369.919 20.723 C 369.764 20.875,370.664 20.939,371.919 20.865 C 373.173 20.790,374.371 20.565,374.580 20.365 C 374.789 20.164,374.879 20.033,374.780 20.074 C 374.681 20.115,373.610 20.215,372.400 20.297 M375.200 20.558 C 375.200 20.645,375.905 20.783,376.766 20.865 C 377.628 20.948,378.247 20.876,378.143 20.707 C 377.953 20.400,375.200 20.260,375.200 20.558 M360.000 22.818 C 359.562 23.115,359.724 23.152,360.600 22.956 C 362.071 22.627,362.390 22.398,361.367 22.406 C 360.945 22.409,360.330 22.595,360.000 22.818 M348.600 26.614 C 347.595 27.098,347.563 27.153,348.400 26.951 C 348.950 26.819,349.571 26.550,349.780 26.355 C 350.298 25.871,350.014 25.933,348.600 26.614 M385.354 29.777 C 385.232 30.094,385.203 30.679,385.289 31.077 C 385.387 31.528,385.524 31.312,385.654 30.500 C 385.871 29.138,385.730 28.796,385.354 29.777 M80.914 33.000 C 80.917 34.100,80.995 34.503,81.087 33.895 C 81.179 33.286,81.177 32.386,81.082 31.895 C 80.987 31.403,80.911 31.900,80.914 33.000 M180.000 52.555 C 180.000 52.640,180.530 52.787,181.179 52.882 C 181.827 52.977,182.267 52.908,182.155 52.728 C 181.957 52.407,180.000 52.250,180.000 52.555 M283.600 52.818 C 283.162 53.115,283.324 53.152,284.200 52.956 C 285.671 52.627,285.990 52.398,284.967 52.406 C 284.545 52.409,283.930 52.595,283.600 52.818 M188.000 54.555 C 188.000 54.640,188.530 54.787,189.179 54.882 C 189.827 54.977,190.267 54.908,190.155 54.728 C 189.957 54.407,188.000 54.250,188.000 54.555 M196.000 56.556 C 196.000 56.642,196.617 56.785,197.372 56.873 C 198.127 56.961,198.656 56.890,198.548 56.716 C 198.355 56.403,196.000 56.255,196.000 56.556 M267.857 56.707 C 267.753 56.876,268.372 56.948,269.234 56.865 C 270.095 56.783,270.800 56.645,270.800 56.558 C 270.800 56.260,268.047 56.400,267.857 56.707 M207.431 58.450 C 207.521 58.596,208.301 58.783,209.164 58.865 C 210.027 58.947,210.659 58.895,210.569 58.750 C 210.479 58.604,209.699 58.417,208.836 58.335 C 207.973 58.253,207.341 58.305,207.431 58.450 M255.857 58.707 C 255.753 58.876,256.372 58.948,257.234 58.865 C 258.095 58.783,258.800 58.645,258.800 58.558 C 258.800 58.260,256.047 58.400,255.857 58.707 M368.400 64.523 C 367.096 66.112,366.320 67.200,366.493 67.200 C 366.739 67.200,369.687 63.553,369.541 63.427 C 369.464 63.360,368.950 63.853,368.400 64.523 M109.200 78.125 C 109.200 78.194,109.785 78.779,110.500 79.425 L 111.800 80.600 110.625 79.300 C 109.530 78.088,109.200 77.816,109.200 78.125 M176.000 128.200 C 176.746 128.970,177.447 129.600,177.557 129.600 C 177.667 129.600,177.146 128.970,176.400 128.200 C 175.654 127.430,174.953 126.800,174.843 126.800 C 174.733 126.800,175.254 127.430,176.000 128.200 M273.000 156.400 C 272.848 157.091,272.807 157.741,272.909 157.842 C 273.011 157.944,273.209 157.453,273.350 156.750 C 273.683 155.083,273.360 154.760,273.000 156.400 M271.000 162.400 C 270.848 163.091,270.807 163.741,270.909 163.842 C 271.011 163.944,271.209 163.453,271.350 162.750 C 271.683 161.083,271.360 160.760,271.000 162.400 M269.015 171.415 C 268.861 172.654,268.817 173.750,268.919 173.852 C 269.020 173.954,269.230 173.023,269.385 171.785 C 269.539 170.546,269.583 169.450,269.481 169.348 C 269.380 169.246,269.170 170.177,269.015 171.415 M267.009 185.409 C 266.850 187.743,266.806 189.739,266.911 189.844 C 267.016 189.949,267.232 188.126,267.391 185.791 C 267.550 183.457,267.594 181.461,267.489 181.356 C 267.384 181.251,267.168 183.074,267.009 185.409 M198.893 186.000 C 198.893 186.770,198.975 187.085,199.076 186.700 C 199.176 186.315,199.176 185.685,199.076 185.300 C 198.975 184.915,198.893 185.230,198.893 186.000 M199.328 194.400 C 199.328 195.830,199.401 196.415,199.489 195.700 C 199.578 194.985,199.578 193.815,199.489 193.100 C 199.401 192.385,199.328 192.970,199.328 194.400 M264.976 323.772 C 264.769 325.616,264.720 327.051,264.866 326.960 C 265.173 326.769,265.785 320.851,265.524 320.591 C 265.429 320.496,265.182 321.927,264.976 323.772 M263.470 331.500 C 263.372 331.665,263.184 332.610,263.051 333.600 C 262.771 335.689,263.012 335.348,263.545 332.900 C 263.895 331.293,263.870 330.824,263.470 331.500 " stroke="none" fill="#747474" fill-rule="evenodd"></path><path id="path4" d="M89.200 20.800 L 85.800 21.051 89.076 21.125 C 90.914 21.167,92.461 21.024,92.600 20.800 C 92.736 20.580,92.792 20.434,92.724 20.475 C 92.656 20.516,91.070 20.662,89.200 20.800 M94.100 21.087 C 94.705 21.178,95.695 21.178,96.300 21.087 C 96.905 20.995,96.410 20.920,95.200 20.920 C 93.990 20.920,93.495 20.995,94.100 21.087 M365.457 21.107 C 365.353 21.276,366.017 21.357,366.934 21.286 C 369.625 21.079,369.953 20.896,367.724 20.846 C 366.582 20.821,365.562 20.938,365.457 21.107 M378.900 21.076 C 379.285 21.176,379.915 21.176,380.300 21.076 C 380.685 20.975,380.370 20.893,379.600 20.893 C 378.830 20.893,378.515 20.975,378.900 21.076 M199.300 57.076 C 199.685 57.176,200.315 57.176,200.700 57.076 C 201.085 56.975,200.770 56.893,200.000 56.893 C 199.230 56.893,198.915 56.975,199.300 57.076 M265.700 57.076 C 266.085 57.176,266.715 57.176,267.100 57.076 C 267.485 56.975,267.170 56.893,266.400 56.893 C 265.630 56.893,265.315 56.975,265.700 57.076 M211.300 59.076 C 211.685 59.176,212.315 59.176,212.700 59.076 C 213.085 58.975,212.770 58.893,212.000 58.893 C 211.230 58.893,210.915 58.975,211.300 59.076 M253.700 59.076 C 254.085 59.176,254.715 59.176,255.100 59.076 C 255.485 58.975,255.170 58.893,254.400 58.893 C 253.630 58.893,253.315 58.975,253.700 59.076 " stroke="none" fill="#848484" fill-rule="evenodd"></path></g></svg>