<svg id="svg" version="1.1" xmlns="http://www.w3.org/2000/svg" xmlns:xlink="http://www.w3.org/1999/xlink" width="400" height="400" viewBox="0, 0, 400,400"><g id="svgg"><path id="path0" d="M236.000 11.438 C 228.630 11.728,221.970 12.146,221.200 12.368 C 220.430 12.590,215.123 13.060,209.407 13.414 C 203.691 13.767,198.831 14.199,198.607 14.374 C 198.383 14.549,194.870 15.012,190.800 15.404 C 186.730 15.796,183.229 16.270,183.020 16.458 C 182.811 16.646,182.063 16.800,181.357 16.800 C 179.287 16.800,170.273 18.000,169.400 18.392 C 168.960 18.589,166.260 19.069,163.400 19.458 C 160.540 19.846,158.110 20.276,158.000 20.413 C 157.890 20.549,155.586 20.971,152.879 21.349 C 150.173 21.727,147.563 22.208,147.079 22.419 C 146.596 22.629,144.400 23.170,142.200 23.621 C 130.231 26.073,123.964 27.625,123.009 28.374 C 122.784 28.550,121.610 29.004,120.400 29.382 C 119.190 29.761,117.660 30.303,117.000 30.588 C 116.340 30.873,115.080 31.330,114.200 31.605 C 113.320 31.880,112.420 32.237,112.200 32.400 C 111.980 32.563,111.080 32.907,110.200 33.165 C 109.320 33.424,107.880 33.978,107.000 34.396 C 105.592 35.067,102.953 36.278,97.400 38.804 C 96.520 39.204,94.903 39.930,93.808 40.418 C 92.009 41.218,89.808 42.647,81.600 48.343 C 78.128 50.753,68.618 59.734,67.495 61.665 C 67.003 62.512,65.499 65.048,64.154 67.302 C 58.280 77.141,56.235 88.176,57.833 101.400 C 58.419 106.243,58.887 108.033,61.168 114.154 C 62.201 116.925,67.278 122.775,69.576 123.842 C 70.359 124.205,72.080 125.007,73.400 125.623 C 75.420 126.566,76.546 126.788,80.506 127.020 C 83.095 127.172,85.316 127.464,85.442 127.668 C 85.583 127.896,85.850 127.895,86.136 127.666 C 86.391 127.462,89.120 127.070,92.200 126.796 C 95.280 126.522,98.340 126.064,99.000 125.777 C 99.660 125.491,101.550 124.946,103.200 124.567 C 104.850 124.188,106.380 123.749,106.600 123.591 C 106.820 123.434,107.990 123.092,109.200 122.832 C 111.153 122.412,112.744 121.774,117.000 119.706 C 117.659 119.385,119.009 118.851,120.000 118.520 C 120.990 118.188,122.084 117.665,122.431 117.358 C 122.779 117.051,123.307 116.800,123.605 116.800 C 124.375 116.800,127.186 115.454,155.200 101.672 C 160.590 99.020,165.540 96.719,166.200 96.558 C 166.860 96.396,168.210 95.864,169.200 95.375 C 170.190 94.886,171.630 94.355,172.400 94.196 C 173.170 94.038,173.980 93.767,174.200 93.594 C 175.397 92.656,181.611 92.695,183.448 93.652 L 185.269 94.600 185.004 97.400 C 184.634 101.303,180.866 108.054,172.392 119.998 C 170.515 122.642,157.807 137.804,154.788 141.000 C 149.486 146.612,139.875 157.267,136.387 161.400 C 134.531 163.600,132.903 165.490,132.771 165.600 C 131.502 166.653,122.144 178.239,118.735 182.979 C 116.353 186.291,112.913 191.070,111.091 193.600 C 107.816 198.148,106.080 200.845,100.405 210.200 C 97.551 214.905,96.127 217.200,94.822 219.200 C 93.532 221.177,82.427 243.861,81.409 246.600 C 80.837 248.140,79.577 251.560,78.609 254.200 C 77.641 256.840,76.286 260.440,75.597 262.200 C 72.430 270.294,66.072 291.846,64.624 299.400 C 63.822 303.580,62.913 308.081,62.603 309.401 C 61.943 312.220,60.363 323.532,59.167 334.000 C 58.390 340.805,58.032 346.822,57.441 363.000 L 57.222 369.000 75.511 368.929 C 111.918 368.787,179.419 367.930,180.200 367.599 C 180.640 367.412,191.980 366.960,205.400 366.594 C 218.820 366.227,230.160 365.776,230.600 365.592 C 231.040 365.408,238.780 364.949,247.800 364.573 C 256.820 364.196,264.371 363.733,264.580 363.544 C 264.789 363.355,266.229 363.202,267.780 363.205 C 271.680 363.213,286.422 362.000,287.400 361.591 C 287.840 361.407,292.430 360.948,297.600 360.572 C 302.770 360.195,307.180 359.752,307.400 359.587 C 307.620 359.422,310.590 358.988,314.000 358.622 C 317.410 358.257,320.560 357.796,321.000 357.598 C 321.440 357.400,324.680 356.936,328.200 356.566 C 331.720 356.196,334.791 355.744,335.026 355.560 C 335.260 355.376,337.150 354.933,339.226 354.576 C 341.301 354.219,343.180 353.787,343.400 353.617 C 343.620 353.446,345.600 352.993,347.800 352.610 C 350.000 352.227,351.971 351.753,352.180 351.557 C 352.389 351.361,352.929 351.201,353.380 351.202 C 356.067 351.210,366.176 345.209,368.454 342.253 L 370.709 339.329 371.003 332.258 C 371.165 328.369,371.456 325.089,371.649 324.970 C 371.842 324.850,372.000 323.392,372.000 321.728 C 372.000 318.457,372.997 310.699,373.584 309.400 C 373.783 308.960,374.234 306.440,374.586 303.800 C 374.938 301.160,375.376 298.640,375.560 298.200 C 375.743 297.760,376.183 295.559,376.538 293.309 C 376.892 291.059,377.357 288.899,377.570 288.509 C 377.783 288.119,378.257 286.360,378.623 284.600 C 378.988 282.840,379.424 281.220,379.591 281.000 C 379.758 280.780,380.120 279.340,380.395 277.800 C 380.671 276.260,381.135 274.460,381.427 273.800 C 381.720 273.140,382.237 271.497,382.578 270.149 C 382.918 268.801,383.456 267.199,383.772 266.588 C 384.089 265.978,384.552 264.201,384.800 262.639 C 385.048 261.078,385.363 259.530,385.499 259.200 C 386.595 256.542,386.595 250.036,385.500 248.961 C 385.335 248.799,385.198 248.112,385.195 247.433 C 385.184 244.465,375.034 236.800,371.115 236.800 C 370.538 236.800,370.007 236.650,369.933 236.466 C 369.860 236.282,367.826 235.830,365.414 235.460 C 363.002 235.091,360.851 234.611,360.634 234.394 C 360.127 233.887,345.832 233.869,344.895 234.374 C 344.513 234.580,339.561 235.022,333.891 235.356 C 328.222 235.690,323.362 236.107,323.091 236.282 C 322.821 236.457,319.900 236.993,316.600 237.474 C 313.300 237.955,309.520 238.536,308.200 238.765 C 306.880 238.994,304.450 239.392,302.800 239.650 C 301.150 239.907,299.620 240.247,299.400 240.405 C 299.180 240.564,297.200 240.998,295.000 241.371 C 292.800 241.744,290.640 242.211,290.200 242.411 C 289.760 242.610,287.510 243.129,285.200 243.565 C 276.947 245.121,272.588 246.046,271.800 246.408 C 271.051 246.752,269.543 247.075,258.800 249.197 C 256.490 249.653,254.312 250.185,253.960 250.379 C 253.608 250.573,251.358 251.027,248.960 251.387 C 246.562 251.748,244.240 252.202,243.800 252.398 C 243.360 252.593,240.840 253.112,238.200 253.551 C 235.560 253.991,232.050 254.611,230.400 254.931 C 228.750 255.250,226.050 255.631,224.400 255.778 C 222.750 255.924,221.040 256.197,220.600 256.384 C 219.532 256.836,208.095 258.001,204.724 258.001 C 203.252 258.000,201.936 258.180,201.800 258.400 C 201.493 258.896,189.737 258.945,189.432 258.452 C 189.314 258.260,187.818 258.015,186.108 257.907 C 179.226 257.472,174.312 253.009,174.992 247.810 C 175.134 246.715,175.395 245.635,175.571 245.410 C 175.746 245.184,176.016 244.474,176.170 243.830 C 176.437 242.714,178.492 239.444,179.457 238.600 C 179.709 238.380,180.159 237.720,180.457 237.134 C 181.048 235.972,186.049 229.956,187.500 228.659 C 187.995 228.217,188.400 227.703,188.400 227.517 C 188.400 227.330,188.933 226.597,189.585 225.889 C 198.591 216.091,200.800 213.648,200.800 213.484 C 200.800 213.377,201.618 212.414,202.617 211.345 C 203.616 210.275,204.884 208.860,205.434 208.200 C 207.508 205.710,213.744 198.543,215.046 197.153 C 215.790 196.358,216.400 195.575,216.400 195.414 C 216.400 195.253,217.210 194.356,218.200 193.420 C 219.190 192.485,220.000 191.583,220.000 191.414 C 220.000 191.143,221.861 188.759,228.810 180.129 C 229.905 178.770,230.800 177.536,230.800 177.387 C 230.800 177.237,231.250 176.761,231.800 176.329 C 232.350 175.896,232.800 175.381,232.800 175.185 C 232.800 174.989,233.170 174.417,233.622 173.914 C 235.227 172.131,238.800 167.656,238.800 167.430 C 238.800 167.303,239.075 166.885,239.412 166.500 C 240.678 165.052,244.800 159.265,244.800 158.936 C 244.800 158.747,245.160 158.368,245.600 158.093 C 246.040 157.818,246.400 157.405,246.400 157.175 C 246.400 156.945,247.390 155.517,248.600 154.000 C 249.810 152.483,250.800 151.096,250.800 150.918 C 250.800 150.739,251.160 150.368,251.600 150.093 C 252.040 149.818,252.400 149.402,252.400 149.168 C 252.400 148.934,253.750 147.064,255.400 145.013 C 257.050 142.961,258.400 141.170,258.400 141.033 C 258.400 140.895,259.300 139.638,260.400 138.238 C 261.500 136.838,262.400 135.498,262.400 135.261 C 262.400 135.023,262.760 134.635,263.200 134.400 C 263.640 134.165,264.000 133.779,264.000 133.543 C 264.000 133.307,264.874 132.008,265.942 130.657 C 267.011 129.306,268.108 127.774,268.382 127.253 C 268.655 126.732,269.671 125.263,270.639 123.990 C 271.608 122.717,272.400 121.485,272.400 121.252 C 272.400 121.019,272.760 120.635,273.200 120.400 C 273.640 120.165,274.002 119.753,274.004 119.486 C 274.006 119.219,274.636 118.210,275.404 117.244 C 276.172 116.278,276.800 115.262,276.800 114.987 C 276.800 114.711,277.070 114.382,277.400 114.255 C 277.730 114.129,278.000 113.776,278.000 113.473 C 278.000 113.169,278.506 112.218,279.124 111.360 C 279.742 110.502,280.357 109.508,280.492 109.151 C 280.626 108.793,281.560 107.297,282.568 105.825 C 283.576 104.354,284.400 103.013,284.400 102.846 C 284.400 102.679,284.935 101.835,285.589 100.971 C 286.243 100.107,286.783 99.237,286.789 99.038 C 286.795 98.838,287.587 97.488,288.549 96.038 C 291.595 91.442,292.800 89.474,292.800 89.092 C 292.800 88.888,293.427 87.703,294.194 86.460 C 295.859 83.759,296.379 82.781,300.870 73.878 C 302.778 70.095,304.559 66.280,304.827 65.400 C 305.095 64.520,305.558 63.445,305.857 63.011 C 306.156 62.577,306.400 61.990,306.400 61.707 C 306.400 61.423,306.748 60.428,307.173 59.496 C 307.597 58.563,308.212 56.990,308.539 56.000 C 308.865 55.010,309.414 53.663,309.757 53.006 C 310.101 52.350,310.586 50.820,310.834 49.606 C 311.083 48.393,311.421 47.220,311.586 47.000 C 312.003 46.443,312.705 42.393,313.026 38.694 C 313.174 36.986,313.454 35.490,313.648 35.371 C 314.217 35.019,314.084 28.093,313.500 27.720 C 313.225 27.544,312.550 26.506,312.000 25.412 C 311.091 23.605,307.966 20.000,307.309 20.000 C 307.160 20.000,306.490 19.489,305.819 18.863 C 305.048 18.145,303.754 17.533,302.300 17.199 C 301.035 16.909,300.000 16.557,300.000 16.416 C 300.000 16.275,298.605 15.834,296.900 15.436 C 295.195 15.038,293.440 14.562,293.000 14.379 C 292.560 14.196,290.316 13.743,288.014 13.373 C 285.712 13.002,283.552 12.556,283.214 12.381 C 280.579 11.012,258.210 10.566,236.000 11.438 " stroke="none" fill="#040404" fill-rule="evenodd"></path><path id="path1" d="M0.000 200.000 L 0.000 400.000 200.000 400.000 L 400.000 400.000 400.000 200.000 L 400.000 0.000 200.000 0.000 L 0.000 0.000 0.000 200.000 M271.700 10.869 C 275.165 11.128,278.000 11.489,278.000 11.670 C 278.000 11.852,279.009 12.000,280.243 12.000 C 282.614 12.000,289.249 13.029,290.600 13.606 C 291.040 13.794,292.650 14.151,294.177 14.399 C 295.705 14.647,297.685 15.176,298.577 15.574 C 299.470 15.973,301.190 16.527,302.400 16.805 C 304.509 17.290,306.112 18.361,309.254 21.386 C 309.834 21.944,310.464 22.404,310.654 22.410 C 311.715 22.440,314.025 28.636,314.005 31.400 C 313.978 35.099,312.926 44.360,312.467 44.942 C 312.268 45.194,311.881 46.660,311.607 48.200 C 311.333 49.740,310.887 51.360,310.615 51.800 C 310.344 52.240,309.891 53.320,309.609 54.200 C 309.327 55.080,308.861 56.250,308.572 56.800 C 308.283 57.350,307.739 58.790,307.362 60.000 C 306.985 61.210,306.457 62.560,306.189 63.000 C 305.920 63.440,305.459 64.655,305.163 65.700 C 304.867 66.745,304.485 67.600,304.313 67.600 C 304.141 67.600,304.000 67.798,304.000 68.040 C 304.000 68.533,302.768 71.291,302.410 71.600 C 302.282 71.710,301.828 72.610,301.400 73.600 C 300.972 74.590,300.522 75.490,300.400 75.600 C 300.278 75.710,299.828 76.610,299.400 77.600 C 298.972 78.590,298.527 79.490,298.411 79.600 C 298.075 79.919,295.236 85.044,293.427 88.600 C 291.627 92.137,290.730 93.600,290.361 93.600 C 290.162 93.600,290.000 93.843,290.000 94.140 C 290.000 94.437,289.460 95.425,288.800 96.337 C 288.140 97.248,287.600 98.130,287.600 98.298 C 287.600 98.465,286.970 99.489,286.200 100.572 C 285.430 101.655,284.800 102.760,284.800 103.028 C 284.800 103.295,284.530 103.618,284.200 103.745 C 283.870 103.871,283.600 104.173,283.600 104.415 C 283.600 104.658,283.060 105.641,282.400 106.600 C 281.740 107.559,281.200 108.492,281.200 108.673 C 281.200 108.854,280.555 109.902,279.767 111.001 C 278.979 112.101,277.971 113.703,277.527 114.562 C 277.083 115.421,276.063 116.985,275.260 118.037 C 273.257 120.661,269.911 125.472,269.278 126.638 C 268.991 127.167,268.599 127.600,268.408 127.600 C 268.216 127.600,268.000 127.870,267.929 128.200 C 267.858 128.531,266.946 129.926,265.903 131.300 C 261.129 137.590,258.800 140.821,258.800 141.154 C 258.800 141.352,258.530 141.618,258.200 141.745 C 257.870 141.871,257.600 142.163,257.600 142.394 C 257.600 142.624,256.520 144.128,255.200 145.737 C 253.880 147.345,252.800 148.782,252.800 148.930 C 252.800 149.079,252.519 149.515,252.176 149.900 C 250.924 151.306,246.800 156.717,246.800 156.955 C 246.800 157.090,246.518 157.515,246.173 157.900 C 244.856 159.371,241.600 163.983,241.600 164.379 C 241.600 164.607,241.240 165.018,240.800 165.293 C 240.360 165.568,240.000 165.986,240.000 166.222 C 240.000 166.458,238.920 167.935,237.600 169.503 C 236.280 171.071,235.200 172.480,235.200 172.635 C 235.200 172.789,234.829 173.295,234.376 173.758 C 232.778 175.392,227.600 181.978,227.600 182.377 C 227.600 182.600,227.150 183.076,226.600 183.437 C 226.050 183.797,225.600 184.256,225.600 184.457 C 225.600 185.076,219.928 191.960,212.222 200.690 C 209.460 203.820,207.200 206.496,207.200 206.637 C 207.200 206.778,206.502 207.571,205.649 208.398 C 204.797 209.226,204.032 210.100,203.949 210.340 C 203.867 210.581,201.055 213.739,197.700 217.359 C 194.345 220.979,191.600 224.070,191.600 224.228 C 191.600 224.385,191.060 225.073,190.400 225.757 C 187.488 228.775,181.497 235.881,181.174 236.700 C 180.979 237.195,180.635 237.600,180.410 237.600 C 180.184 237.600,180.000 237.788,180.000 238.017 C 180.000 238.247,179.280 239.388,178.400 240.554 C 177.520 241.719,176.800 242.881,176.800 243.136 C 176.800 243.391,176.649 243.600,176.464 243.600 C 175.732 243.600,175.077 249.217,175.618 250.854 C 175.899 251.704,176.260 252.400,176.421 252.400 C 176.582 252.400,176.828 252.856,176.968 253.414 C 177.111 253.985,177.697 254.636,178.311 254.905 C 178.910 255.169,179.490 255.477,179.600 255.592 C 179.981 255.988,182.829 257.200,183.380 257.200 C 183.684 257.200,184.008 257.425,184.100 257.700 C 184.320 258.359,208.036 258.390,208.863 257.733 C 209.158 257.498,212.640 256.988,216.600 256.600 C 220.560 256.211,223.971 255.738,224.180 255.547 C 224.389 255.356,225.072 255.200,225.698 255.200 C 227.320 255.200,234.847 253.992,235.800 253.579 C 236.240 253.388,238.580 252.946,241.000 252.595 C 243.420 252.244,245.760 251.798,246.200 251.604 C 246.640 251.409,248.980 250.942,251.400 250.566 C 253.820 250.189,255.890 249.752,256.000 249.595 C 256.110 249.438,258.090 248.987,260.400 248.593 C 262.710 248.199,264.780 247.747,265.000 247.588 C 265.220 247.429,267.290 246.975,269.600 246.580 C 271.910 246.184,273.890 245.739,274.000 245.590 C 274.110 245.440,276.000 245.011,278.200 244.635 C 280.400 244.259,282.560 243.793,283.000 243.600 C 283.440 243.407,285.600 242.944,287.800 242.571 C 290.000 242.198,291.980 241.758,292.200 241.592 C 292.420 241.427,294.490 240.980,296.800 240.599 C 299.110 240.218,301.292 239.753,301.650 239.566 C 302.007 239.379,304.617 238.937,307.450 238.584 C 310.282 238.232,312.874 237.800,313.208 237.625 C 313.543 237.451,316.513 236.983,319.808 236.587 C 323.104 236.190,325.890 235.749,326.000 235.606 C 326.296 235.222,347.751 233.978,354.000 233.983 C 359.063 233.987,367.115 234.961,367.600 235.628 C 367.710 235.779,368.790 236.023,370.000 236.169 C 372.319 236.449,380.754 240.238,380.784 241.013 C 380.793 241.239,381.859 242.473,383.153 243.753 C 385.383 245.961,385.520 246.210,385.784 248.537 C 385.936 249.887,386.238 251.205,386.453 251.464 C 386.979 252.098,386.981 255.700,386.456 256.645 C 386.225 257.060,385.747 259.196,385.394 261.391 C 385.041 263.587,384.616 265.477,384.451 265.591 C 384.286 265.706,383.818 267.060,383.412 268.600 C 383.005 270.140,382.553 271.490,382.406 271.600 C 382.260 271.710,381.815 273.326,381.417 275.190 C 381.019 277.055,380.551 278.855,380.377 279.190 C 380.202 279.526,379.767 281.150,379.408 282.800 C 379.050 284.450,378.598 286.160,378.403 286.600 C 378.208 287.040,377.750 288.930,377.387 290.800 C 377.023 292.670,376.575 294.560,376.392 295.000 C 376.208 295.440,375.766 298.050,375.409 300.800 C 375.052 303.550,374.605 306.160,374.417 306.600 C 374.022 307.522,372.800 315.066,372.800 316.582 C 372.800 317.142,372.651 317.600,372.470 317.600 C 372.288 317.600,371.905 322.499,371.618 328.486 L 371.096 339.371 368.948 342.030 C 367.767 343.492,366.793 344.849,366.785 345.044 C 366.758 345.673,354.275 351.534,352.420 351.790 C 351.441 351.925,350.451 352.183,350.220 352.364 C 349.989 352.545,348.000 353.010,345.800 353.398 C 343.600 353.785,341.710 354.222,341.600 354.368 C 341.335 354.719,334.479 356.000,332.865 356.000 C 332.169 356.000,331.600 356.146,331.600 356.324 C 331.600 356.503,328.495 356.983,324.700 357.391 C 320.905 357.799,317.710 358.247,317.600 358.387 C 317.369 358.679,306.500 360.008,304.380 360.003 C 303.599 360.001,302.789 360.156,302.580 360.347 C 302.371 360.538,297.970 361.000,292.800 361.375 C 287.630 361.750,283.040 362.207,282.600 362.392 C 281.566 362.827,272.447 363.519,263.800 363.820 C 260.060 363.950,256.640 364.207,256.200 364.391 C 255.327 364.756,228.294 366.026,221.733 366.010 C 219.497 366.004,217.607 366.147,217.533 366.327 C 217.359 366.753,175.216 368.027,161.780 368.012 C 155.166 368.004,151.210 368.150,150.949 368.411 C 150.582 368.778,57.358 369.643,56.814 369.284 C 56.177 368.864,58.422 334.560,59.568 327.200 C 59.790 325.770,60.168 322.620,60.406 320.200 C 60.645 317.780,61.028 315.085,61.259 314.211 C 61.490 313.337,61.998 310.817,62.388 308.611 C 64.149 298.658,66.075 289.865,67.207 286.600 C 67.589 285.500,68.480 282.710,69.187 280.400 C 72.373 269.987,74.019 265.108,76.407 259.000 C 77.096 257.240,77.843 255.170,78.069 254.400 C 78.294 253.630,78.813 252.190,79.221 251.200 C 79.629 250.210,80.588 247.780,81.353 245.800 C 83.143 241.163,94.076 219.452,96.460 215.800 C 98.136 213.233,104.201 203.334,106.140 200.000 C 106.588 199.230,107.810 197.430,108.855 196.000 C 109.900 194.570,111.137 192.860,111.605 192.200 C 112.894 190.379,116.742 185.053,117.097 184.600 C 117.269 184.380,118.699 182.400,120.275 180.200 C 122.876 176.568,127.225 171.238,130.555 167.600 C 131.260 166.830,133.346 164.400,135.191 162.200 C 139.804 156.701,140.920 155.427,143.960 152.190 C 145.412 150.644,148.310 147.504,150.400 145.212 C 152.490 142.919,155.195 139.954,156.412 138.622 C 157.628 137.290,160.038 134.490,161.767 132.400 C 163.495 130.310,165.152 128.330,165.449 128.000 C 169.069 123.971,171.272 121.034,176.849 112.800 C 183.063 103.627,186.051 96.313,184.268 94.639 C 182.478 92.959,176.154 92.825,172.600 94.393 C 171.720 94.782,170.280 95.328,169.400 95.608 C 168.520 95.887,167.710 96.226,167.600 96.360 C 167.490 96.494,166.680 96.844,165.800 97.137 C 164.311 97.632,160.448 99.496,136.800 111.128 C 131.850 113.563,127.305 115.675,126.700 115.821 C 126.095 115.967,125.600 116.228,125.600 116.400 C 125.600 116.572,125.105 116.831,124.500 116.976 C 123.895 117.120,122.500 117.664,121.400 118.184 C 120.300 118.704,118.500 119.525,117.400 120.008 C 116.300 120.491,114.500 121.300,113.400 121.807 C 112.300 122.313,110.050 123.041,108.400 123.425 C 106.750 123.809,105.220 124.254,105.000 124.414 C 104.780 124.575,103.262 125.007,101.627 125.374 C 99.992 125.742,98.462 126.168,98.227 126.321 C 95.449 128.133,76.771 127.785,73.000 125.851 C 71.900 125.287,70.775 124.819,70.500 124.813 C 70.225 124.806,70.000 124.620,70.000 124.400 C 70.000 124.180,69.717 124.000,69.370 124.000 C 69.024 124.000,67.658 122.967,66.335 121.705 C 59.447 115.136,56.950 107.039,57.051 91.600 L 57.101 83.800 59.168 77.560 C 60.657 73.066,61.839 70.323,63.392 67.760 C 64.578 65.802,66.079 63.295,66.727 62.189 C 68.580 59.030,76.982 51.028,82.237 47.420 C 90.438 41.788,92.168 40.759,97.400 38.398 C 100.480 37.009,103.360 35.646,103.800 35.370 C 104.240 35.095,105.365 34.645,106.300 34.371 C 107.235 34.097,108.000 33.746,108.000 33.589 C 108.000 33.433,109.125 32.992,110.500 32.610 C 111.875 32.227,113.180 31.779,113.400 31.613 C 113.767 31.337,114.805 30.955,121.200 28.745 C 122.410 28.327,123.976 27.714,124.680 27.383 C 125.385 27.052,127.005 26.589,128.280 26.355 C 129.556 26.121,130.960 25.772,131.400 25.580 C 131.840 25.387,133.910 24.941,136.000 24.588 C 138.090 24.235,140.160 23.785,140.600 23.589 C 141.040 23.393,143.020 22.938,145.000 22.579 C 146.980 22.220,148.870 21.818,149.200 21.686 C 149.793 21.449,155.321 20.482,166.200 18.711 C 169.280 18.210,171.994 17.674,172.231 17.519 C 172.468 17.365,175.528 16.959,179.031 16.618 C 182.534 16.277,185.940 15.829,186.600 15.622 C 187.260 15.414,190.950 14.950,194.800 14.591 C 198.650 14.231,202.160 13.784,202.600 13.598 C 203.040 13.413,208.620 12.960,215.000 12.592 C 221.380 12.225,226.870 11.811,227.200 11.674 C 229.326 10.787,262.558 10.187,271.700 10.869 " stroke="none" fill="#fbfbfb" fill-rule="evenodd"></path><path id="path2" d="M240.900 11.097 C 242.385 11.174,244.815 11.174,246.300 11.097 C 247.785 11.020,246.570 10.957,243.600 10.957 C 240.630 10.957,239.415 11.020,240.900 11.097 M269.507 11.090 C 270.226 11.179,271.306 11.177,271.907 11.086 C 272.508 10.995,271.920 10.922,270.600 10.924 C 269.280 10.926,268.788 11.001,269.507 11.090 M210.500 13.091 C 211.325 13.178,212.675 13.178,213.500 13.091 C 214.325 13.005,213.650 12.934,212.000 12.934 C 210.350 12.934,209.675 13.005,210.500 13.091 M286.100 13.076 C 286.485 13.176,287.115 13.176,287.500 13.076 C 287.885 12.975,287.570 12.893,286.800 12.893 C 286.030 12.893,285.715 12.975,286.100 13.076 M191.900 15.082 C 192.395 15.178,193.205 15.178,193.700 15.082 C 194.195 14.987,193.790 14.909,192.800 14.909 C 191.810 14.909,191.405 14.987,191.900 15.082 M175.900 17.082 C 176.395 17.178,177.205 17.178,177.700 17.082 C 178.195 16.987,177.790 16.909,176.800 16.909 C 175.810 16.909,175.405 16.987,175.900 17.082 M165.200 18.800 L 163.800 19.095 165.076 19.147 C 165.778 19.176,166.464 19.020,166.600 18.800 C 166.736 18.580,166.792 18.424,166.724 18.453 C 166.656 18.482,165.970 18.638,165.200 18.800 M312.914 41.000 C 312.917 42.100,312.995 42.503,313.087 41.895 C 313.179 41.286,313.177 40.386,313.082 39.895 C 312.987 39.403,312.911 39.900,312.914 41.000 M179.305 93.087 C 179.914 93.179,180.814 93.177,181.305 93.082 C 181.797 92.987,181.300 92.911,180.200 92.914 C 179.100 92.917,178.697 92.995,179.305 93.087 M56.901 95.400 C 56.905 96.280,56.987 96.593,57.083 96.095 C 57.179 95.598,57.175 94.878,57.075 94.495 C 56.975 94.113,56.896 94.520,56.901 95.400 M75.560 126.922 C 75.738 127.099,76.945 127.186,78.242 127.117 L 80.600 126.990 77.918 126.795 C 76.443 126.688,75.382 126.745,75.560 126.922 M91.305 127.087 C 91.914 127.179,92.814 127.177,93.305 127.082 C 93.797 126.987,93.300 126.911,92.200 126.914 C 91.100 126.917,90.697 126.995,91.305 127.087 M334.100 235.091 C 334.925 235.178,336.275 235.178,337.100 235.091 C 337.925 235.005,337.250 234.934,335.600 234.934 C 333.950 234.934,333.275 235.005,334.100 235.091 M317.300 237.076 C 317.685 237.176,318.315 237.176,318.700 237.076 C 319.085 236.975,318.770 236.893,318.000 236.893 C 317.230 236.893,316.915 236.975,317.300 237.076 M304.705 239.083 C 305.202 239.179,305.922 239.175,306.305 239.075 C 306.687 238.975,306.280 238.896,305.400 238.901 C 304.520 238.905,304.207 238.987,304.705 239.083 M277.400 244.800 L 276.200 245.105 277.276 245.153 C 277.868 245.179,278.464 245.020,278.600 244.800 C 278.736 244.580,278.792 244.421,278.724 244.447 C 278.656 244.473,278.060 244.632,277.400 244.800 M174.901 249.000 C 174.905 249.880,174.987 250.193,175.083 249.695 C 175.179 249.198,175.175 248.478,175.075 248.095 C 174.975 247.713,174.896 248.120,174.901 249.000 M259.400 248.800 L 258.200 249.105 259.276 249.153 C 259.868 249.179,260.464 249.020,260.600 248.800 C 260.736 248.580,260.792 248.421,260.724 248.447 C 260.656 248.473,260.060 248.632,259.400 248.800 M228.500 255.076 C 228.885 255.176,229.515 255.176,229.900 255.076 C 230.285 254.975,229.970 254.893,229.200 254.893 C 228.430 254.893,228.115 254.975,228.500 255.076 M213.900 257.082 C 214.395 257.178,215.205 257.178,215.700 257.082 C 216.195 256.987,215.790 256.909,214.800 256.909 C 213.810 256.909,213.405 256.987,213.900 257.082 M384.893 262.800 C 384.893 263.570,384.975 263.885,385.076 263.500 C 385.176 263.115,385.176 262.485,385.076 262.100 C 384.975 261.715,384.893 262.030,384.893 262.800 M370.940 336.000 C 370.940 337.870,371.009 338.635,371.093 337.700 C 371.177 336.765,371.177 335.235,371.093 334.300 C 371.009 333.365,370.940 334.130,370.940 336.000 M346.100 353.076 C 346.485 353.176,347.115 353.176,347.500 353.076 C 347.885 352.975,347.570 352.893,346.800 352.893 C 346.030 352.893,345.715 352.975,346.100 353.076 M325.500 357.082 C 325.995 357.178,326.805 357.178,327.300 357.082 C 327.795 356.987,327.390 356.909,326.400 356.909 C 325.410 356.909,325.005 356.987,325.500 357.082 M311.500 359.082 C 311.995 359.178,312.805 359.178,313.300 359.082 C 313.795 358.987,313.390 358.909,312.400 358.909 C 311.410 358.909,311.005 358.987,311.500 359.082 M293.907 361.090 C 294.626 361.179,295.706 361.177,296.307 361.086 C 296.908 360.995,296.320 360.922,295.000 360.924 C 293.680 360.926,293.188 361.001,293.907 361.090 M273.057 363.107 C 272.953 363.276,273.617 363.357,274.534 363.286 C 277.225 363.079,277.553 362.896,275.324 362.846 C 274.182 362.821,273.162 362.938,273.057 363.107 M241.100 365.095 C 242.255 365.176,244.145 365.176,245.300 365.095 C 246.455 365.014,245.510 364.948,243.200 364.948 C 240.890 364.948,239.945 365.014,241.100 365.095 M56.893 368.000 C 56.893 368.770,56.975 369.085,57.076 368.700 C 57.176 368.315,57.176 367.685,57.076 367.300 C 56.975 366.915,56.893 367.230,56.893 368.000 M195.700 367.097 C 197.405 367.172,200.195 367.172,201.900 367.097 C 203.605 367.022,202.210 366.961,198.800 366.961 C 195.390 366.961,193.995 367.022,195.700 367.097 M73.700 369.100 C 82.665 369.160,97.335 369.160,106.300 369.100 C 115.265 369.040,107.930 368.991,90.000 368.991 C 72.070 368.991,64.735 369.040,73.700 369.100 " stroke="none" fill="#848484" fill-rule="evenodd"></path><path id="path3" d="M249.062 10.700 C 248.960 10.865,253.252 11.000,258.600 11.000 C 263.948 11.000,268.240 10.865,268.138 10.700 C 267.896 10.308,249.304 10.308,249.062 10.700 M283.541 12.501 C 283.743 12.703,284.333 12.801,284.854 12.719 C 285.655 12.593,285.598 12.537,284.487 12.352 C 283.693 12.221,283.319 12.279,283.541 12.501 M215.061 12.700 C 214.959 12.865,215.803 12.949,216.938 12.886 C 220.616 12.682,221.063 12.521,218.124 12.460 C 216.542 12.427,215.164 12.535,215.061 12.700 M196.800 14.295 C 195.810 14.381,194.873 14.575,194.719 14.727 C 194.564 14.879,195.284 14.940,196.319 14.863 C 197.353 14.786,198.371 14.560,198.580 14.361 C 198.789 14.163,198.879 14.031,198.780 14.070 C 198.681 14.108,197.790 14.210,196.800 14.295 M293.700 14.676 C 294.085 14.776,294.715 14.776,295.100 14.676 C 295.485 14.575,295.170 14.493,294.400 14.493 C 293.630 14.493,293.315 14.575,293.700 14.676 M181.000 16.400 L 179.000 16.674 180.876 16.737 C 181.908 16.772,182.864 16.620,183.000 16.400 C 183.136 16.180,183.192 16.028,183.124 16.063 C 183.056 16.097,182.100 16.249,181.000 16.400 M167.300 18.676 C 167.685 18.776,168.315 18.776,168.700 18.676 C 169.085 18.575,168.770 18.493,168.000 18.493 C 167.230 18.493,166.915 18.575,167.300 18.676 M156.100 20.676 C 156.485 20.776,157.115 20.776,157.500 20.676 C 157.885 20.575,157.570 20.493,156.800 20.493 C 156.030 20.493,155.715 20.575,156.100 20.676 M135.845 24.728 C 135.733 24.908,136.173 24.977,136.821 24.882 C 137.470 24.787,138.000 24.640,138.000 24.555 C 138.000 24.250,136.043 24.407,135.845 24.728 M313.415 35.700 C 313.103 36.674,312.965 39.195,313.239 38.900 C 313.393 38.735,313.586 37.835,313.670 36.900 C 313.820 35.210,313.721 34.743,313.415 35.700 M74.985 53.700 L 73.000 55.800 75.100 53.815 C 77.051 51.971,77.383 51.600,77.085 51.600 C 77.022 51.600,76.077 52.545,74.985 53.700 M69.375 58.900 L 68.200 60.200 69.500 59.025 C 70.712 57.930,70.984 57.600,70.675 57.600 C 70.606 57.600,70.021 58.185,69.375 58.900 M57.320 90.000 C 57.320 91.210,57.395 91.705,57.487 91.100 C 57.578 90.495,57.578 89.505,57.487 88.900 C 57.395 88.295,57.320 88.790,57.320 90.000 M176.200 93.200 L 174.200 93.474 176.076 93.537 C 177.108 93.572,178.064 93.420,178.200 93.200 C 178.336 92.980,178.392 92.828,178.324 92.863 C 178.256 92.897,177.300 93.049,176.200 93.200 M184.909 96.000 C 184.909 96.990,184.987 97.395,185.082 96.900 C 185.178 96.405,185.178 95.595,185.082 95.100 C 184.987 94.605,184.909 95.010,184.909 96.000 M287.355 97.812 C 286.990 98.369,286.764 98.898,286.853 98.987 C 286.942 99.076,287.318 98.620,287.689 97.974 C 288.514 96.536,288.269 96.417,287.355 97.812 M63.600 118.525 C 63.600 118.594,64.185 119.179,64.900 119.825 L 66.200 121.000 65.025 119.700 C 63.930 118.488,63.600 118.216,63.600 118.525 M269.523 125.500 C 268.818 126.321,268.290 127.200,268.501 127.200 C 268.583 127.200,269.049 126.660,269.537 126.000 C 270.501 124.696,270.492 124.372,269.523 125.500 M99.445 125.528 C 99.333 125.708,99.773 125.777,100.421 125.682 C 101.070 125.587,101.600 125.440,101.600 125.355 C 101.600 125.050,99.643 125.207,99.445 125.528 M88.200 127.200 L 86.200 127.474 88.076 127.537 C 89.108 127.572,90.064 127.420,90.200 127.200 C 90.336 126.980,90.392 126.828,90.324 126.863 C 90.256 126.897,89.300 127.049,88.200 127.200 M81.500 127.489 C 82.215 127.578,83.385 127.578,84.100 127.489 C 84.815 127.401,84.230 127.328,82.800 127.328 C 81.370 127.328,80.785 127.401,81.500 127.489 M155.578 139.900 L 154.200 141.400 155.700 140.022 C 156.525 139.263,157.200 138.588,157.200 138.522 C 157.200 138.216,156.862 138.504,155.578 139.900 M146.175 150.100 L 145.000 151.400 146.300 150.225 C 147.512 149.130,147.784 148.800,147.475 148.800 C 147.406 148.800,146.821 149.385,146.175 150.100 M141.781 154.900 L 140.200 156.600 141.900 155.019 C 143.481 153.548,143.784 153.200,143.481 153.200 C 143.416 153.200,142.651 153.965,141.781 154.900 M241.200 164.000 C 240.730 164.660,240.436 165.200,240.546 165.200 C 240.656 165.200,241.130 164.660,241.600 164.000 C 242.070 163.340,242.364 162.800,242.254 162.800 C 242.144 162.800,241.670 163.340,241.200 164.000 M228.400 180.523 C 227.096 182.112,226.320 183.200,226.493 183.200 C 226.739 183.200,229.687 179.553,229.541 179.427 C 229.464 179.360,228.950 179.853,228.400 180.523 M208.400 204.600 C 207.428 205.590,206.723 206.400,206.833 206.400 C 206.943 206.400,207.828 205.590,208.800 204.600 C 209.772 203.610,210.477 202.800,210.367 202.800 C 210.257 202.800,209.372 203.610,208.400 204.600 M193.564 221.500 C 191.743 223.394,189.277 226.350,190.644 225.000 C 192.139 223.523,196.095 219.200,195.951 219.200 C 195.854 219.200,194.780 220.235,193.564 221.500 M338.661 234.700 C 338.558 234.865,339.493 234.949,340.737 234.887 C 344.644 234.692,345.115 234.522,341.924 234.460 C 340.232 234.427,338.763 234.535,338.661 234.700 M321.400 236.400 L 319.800 236.686 321.276 236.743 C 322.088 236.774,322.864 236.620,323.000 236.400 C 323.136 236.180,323.192 236.026,323.124 236.057 C 323.056 236.088,322.280 236.242,321.400 236.400 M370.000 236.556 C 370.000 236.642,370.617 236.785,371.372 236.873 C 372.127 236.961,372.656 236.890,372.548 236.716 C 372.355 236.403,370.000 236.255,370.000 236.556 M307.057 238.707 C 306.953 238.876,307.572 238.948,308.434 238.865 C 309.295 238.783,310.000 238.645,310.000 238.558 C 310.000 238.260,307.247 238.400,307.057 238.707 M297.045 240.728 C 296.933 240.908,297.373 240.977,298.021 240.882 C 298.670 240.787,299.200 240.640,299.200 240.555 C 299.200 240.250,297.243 240.407,297.045 240.728 M288.880 242.395 C 288.154 242.567,287.447 242.820,287.309 242.958 C 286.924 243.343,289.748 242.742,290.180 242.347 C 290.389 242.156,290.479 242.018,290.380 242.041 C 290.281 242.063,289.606 242.223,288.880 242.395 M175.354 245.777 C 175.232 246.094,175.203 246.679,175.289 247.077 C 175.387 247.528,175.524 247.312,175.654 246.500 C 175.871 245.138,175.730 244.796,175.354 245.777 M385.180 247.310 C 385.375 248.958,385.383 248.967,385.519 247.649 C 385.596 246.906,385.506 246.146,385.320 245.960 C 385.133 245.773,385.071 246.381,385.180 247.310 M269.445 246.728 C 269.333 246.908,269.773 246.977,270.421 246.882 C 271.070 246.787,271.600 246.640,271.600 246.555 C 271.600 246.250,269.643 246.407,269.445 246.728 M251.445 250.728 C 251.333 250.908,251.773 250.977,252.421 250.882 C 253.070 250.787,253.600 250.640,253.600 250.555 C 253.600 250.250,251.643 250.407,251.445 250.728 M242.600 252.291 C 240.884 252.535,240.520 253.072,242.204 252.875 C 242.976 252.785,243.706 252.551,243.827 252.356 C 243.948 252.160,243.992 252.027,243.924 252.060 C 243.856 252.093,243.260 252.197,242.600 252.291 M218.600 256.400 L 216.600 256.674 218.476 256.737 C 219.508 256.772,220.464 256.620,220.600 256.400 C 220.736 256.180,220.792 256.028,220.724 256.063 C 220.656 256.097,219.700 256.249,218.600 256.400 M189.550 258.511 C 189.722 258.682,192.548 258.772,195.831 258.710 L 201.800 258.597 195.519 258.399 C 192.064 258.289,189.378 258.340,189.550 258.511 M385.293 260.400 C 385.293 261.170,385.375 261.485,385.476 261.100 C 385.576 260.715,385.576 260.085,385.476 259.700 C 385.375 259.315,385.293 259.630,385.293 260.400 M375.168 299.700 C 375.049 300.560,375.110 301.050,375.312 300.848 C 375.505 300.655,375.598 299.981,375.519 299.349 C 375.387 298.291,375.359 298.319,375.168 299.700 M373.420 309.700 C 373.062 310.853,372.937 312.362,373.214 312.192 C 373.377 312.090,373.585 311.376,373.675 310.604 C 373.839 309.202,373.713 308.755,373.420 309.700 M60.893 318.000 C 60.893 318.770,60.975 319.085,61.076 318.700 C 61.176 318.315,61.176 317.685,61.076 317.300 C 60.975 316.915,60.893 317.230,60.893 318.000 M371.197 328.882 C 371.089 331.017,371.142 332.620,371.316 332.445 C 371.491 332.270,371.579 330.523,371.514 328.564 L 371.394 325.000 371.197 328.882 M58.493 338.400 C 58.493 339.170,58.575 339.485,58.676 339.100 C 58.776 338.715,58.776 338.085,58.676 337.700 C 58.575 337.315,58.493 337.630,58.493 338.400 M57.714 351.000 C 57.717 352.100,57.795 352.503,57.887 351.895 C 57.979 351.286,57.977 350.386,57.882 349.895 C 57.787 349.403,57.711 349.900,57.714 351.000 M353.400 351.200 L 352.200 351.505 353.276 351.553 C 353.868 351.579,354.464 351.420,354.600 351.200 C 354.736 350.980,354.792 350.821,354.724 350.847 C 354.656 350.873,354.060 351.032,353.400 351.200 M343.445 353.528 C 343.333 353.708,343.773 353.777,344.421 353.682 C 345.070 353.587,345.600 353.440,345.600 353.355 C 345.600 353.050,343.643 353.207,343.445 353.528 M322.800 357.200 L 321.000 357.480 322.676 357.540 C 323.598 357.573,324.464 357.420,324.600 357.200 C 324.736 356.980,324.792 356.827,324.724 356.860 C 324.656 356.893,323.790 357.046,322.800 357.200 M309.200 359.093 C 307.231 359.324,306.875 359.852,308.813 359.667 C 309.689 359.584,310.505 359.355,310.626 359.158 C 310.748 358.961,310.792 358.829,310.724 358.864 C 310.656 358.899,309.970 359.002,309.200 359.093 M57.324 363.000 C 57.326 364.320,57.401 364.812,57.490 364.093 C 57.579 363.374,57.577 362.294,57.486 361.693 C 57.395 361.092,57.322 361.680,57.324 363.000 M290.200 361.098 C 288.880 361.178,287.673 361.369,287.518 361.522 C 287.364 361.675,288.354 361.740,289.718 361.666 C 291.083 361.593,292.371 361.368,292.580 361.166 C 292.789 360.965,292.879 360.834,292.780 360.876 C 292.681 360.917,291.520 361.017,290.200 361.098 M266.700 363.495 C 267.855 363.576,269.745 363.576,270.900 363.495 C 272.055 363.414,271.110 363.348,268.800 363.348 C 266.490 363.348,265.545 363.414,266.700 363.495 M234.800 365.200 L 230.600 365.443 234.676 365.522 C 237.051 365.567,238.856 365.433,239.000 365.200 C 239.136 364.980,239.192 364.835,239.124 364.878 C 239.056 364.921,237.110 365.066,234.800 365.200 M186.400 367.200 L 180.200 367.432 186.276 367.516 C 189.989 367.567,192.449 367.444,192.600 367.200 C 192.736 366.980,192.792 366.838,192.724 366.884 C 192.656 366.930,189.810 367.073,186.400 367.200 " stroke="none" fill="#747474" fill-rule="evenodd"></path><path id="path4" d="M233.007 11.100 C 230.151 11.169,227.685 11.355,227.526 11.513 C 227.367 11.671,229.614 11.745,232.519 11.678 C 235.423 11.610,237.971 11.385,238.180 11.178 C 238.389 10.970,238.479 10.839,238.380 10.887 C 238.281 10.935,235.863 11.030,233.007 11.100 M273.160 11.322 C 273.338 11.499,274.545 11.586,275.842 11.517 L 278.200 11.390 275.518 11.195 C 274.043 11.088,272.982 11.145,273.160 11.322 M204.100 13.491 C 204.925 13.578,206.275 13.578,207.100 13.491 C 207.925 13.405,207.250 13.334,205.600 13.334 C 203.950 13.334,203.275 13.405,204.100 13.491 M288.000 13.356 C 288.000 13.442,288.617 13.585,289.372 13.673 C 290.127 13.761,290.656 13.690,290.548 13.516 C 290.355 13.203,288.000 13.055,288.000 13.356 M188.800 15.200 L 187.000 15.480 188.600 15.534 C 189.480 15.563,190.470 15.413,190.800 15.200 C 191.130 14.987,191.220 14.837,191.000 14.866 C 190.780 14.896,189.790 15.046,188.800 15.200 M173.600 17.200 L 172.200 17.495 173.476 17.547 C 174.178 17.576,174.864 17.420,175.000 17.200 C 175.136 16.980,175.192 16.824,175.124 16.853 C 175.056 16.882,174.370 17.038,173.600 17.200 M162.400 19.200 L 161.000 19.495 162.276 19.547 C 162.978 19.576,163.664 19.420,163.800 19.200 C 163.936 18.980,163.992 18.824,163.924 18.853 C 163.856 18.882,163.170 19.038,162.400 19.200 M149.452 21.516 C 149.344 21.690,149.873 21.761,150.628 21.673 C 151.383 21.585,152.000 21.442,152.000 21.356 C 152.000 21.055,149.645 21.203,149.452 21.516 M132.800 25.088 C 131.333 25.351,130.962 25.896,132.392 25.686 C 133.062 25.588,133.708 25.349,133.829 25.154 C 133.949 24.959,133.992 24.825,133.924 24.854 C 133.856 24.884,133.350 24.990,132.800 25.088 M74.181 54.100 L 72.600 55.800 74.300 54.219 C 75.235 53.349,76.000 52.584,76.000 52.519 C 76.000 52.216,75.652 52.519,74.181 54.100 M57.309 84.400 C 57.309 85.390,57.387 85.795,57.482 85.300 C 57.578 84.805,57.578 83.995,57.482 83.500 C 57.387 83.005,57.309 83.410,57.309 84.400 M56.937 91.000 C 56.939 92.760,57.009 93.430,57.093 92.489 C 57.178 91.549,57.177 90.109,57.091 89.289 C 57.005 88.470,56.936 89.240,56.937 91.000 M64.400 119.800 C 65.146 120.570,65.847 121.200,65.957 121.200 C 66.067 121.200,65.546 120.570,64.800 119.800 C 64.054 119.030,63.353 118.400,63.243 118.400 C 63.133 118.400,63.654 119.030,64.400 119.800 M272.400 121.600 C 271.930 122.260,271.636 122.800,271.746 122.800 C 271.856 122.800,272.330 122.260,272.800 121.600 C 273.270 120.940,273.564 120.400,273.454 120.400 C 273.344 120.400,272.870 120.940,272.400 121.600 M111.000 122.400 L 109.800 122.705 110.876 122.753 C 111.468 122.779,112.064 122.620,112.200 122.400 C 112.336 122.180,112.392 122.021,112.324 122.047 C 112.256 122.073,111.660 122.232,111.000 122.400 M96.000 126.400 L 93.800 126.670 95.876 126.735 C 97.018 126.771,98.064 126.620,98.200 126.400 C 98.336 126.180,98.392 126.029,98.324 126.065 C 98.256 126.101,97.210 126.252,96.000 126.400 M262.400 135.600 C 261.930 136.260,261.636 136.800,261.746 136.800 C 261.856 136.800,262.330 136.260,262.800 135.600 C 263.270 134.940,263.564 134.400,263.454 134.400 C 263.344 134.400,262.870 134.940,262.400 135.600 M156.000 139.000 C 155.028 139.990,154.323 140.800,154.433 140.800 C 154.543 140.800,155.428 139.990,156.400 139.000 C 157.372 138.010,158.077 137.200,157.967 137.200 C 157.857 137.200,156.972 138.010,156.000 139.000 M142.181 154.100 L 140.600 155.800 142.300 154.219 C 143.235 153.349,144.000 152.584,144.000 152.519 C 144.000 152.216,143.652 152.519,142.181 154.100 M215.427 196.705 C 214.246 198.078,213.980 198.518,214.763 197.800 C 215.950 196.713,217.839 194.393,217.527 194.405 C 217.457 194.408,216.512 195.443,215.427 196.705 M202.378 211.900 L 201.000 213.400 202.500 212.022 C 203.896 210.738,204.184 210.400,203.878 210.400 C 203.812 210.400,203.137 211.075,202.378 211.900 M187.427 228.705 C 186.246 230.078,185.980 230.518,186.763 229.800 C 187.950 228.713,189.839 226.393,189.527 226.405 C 189.457 226.408,188.512 227.443,187.427 228.705 M365.152 235.312 C 365.345 235.505,366.019 235.598,366.651 235.519 C 367.709 235.387,367.681 235.359,366.300 235.168 C 365.440 235.049,364.950 235.110,365.152 235.312 M327.511 235.493 C 328.451 235.578,329.891 235.577,330.711 235.491 C 331.530 235.405,330.760 235.336,329.000 235.337 C 327.240 235.339,326.570 235.409,327.511 235.493 M315.200 237.093 C 313.231 237.324,312.875 237.852,314.813 237.667 C 315.689 237.584,316.505 237.355,316.626 237.158 C 316.748 236.961,316.792 236.829,316.724 236.864 C 316.656 236.899,315.970 237.002,315.200 237.093 M179.123 239.100 C 178.418 239.921,177.890 240.800,178.101 240.800 C 178.183 240.800,178.649 240.260,179.137 239.600 C 180.101 238.296,180.092 237.972,179.123 239.100 M293.600 241.088 C 293.050 241.187,292.443 241.419,292.251 241.603 C 292.059 241.787,292.568 241.788,293.383 241.604 C 294.197 241.420,294.969 241.164,295.098 241.035 C 295.343 240.790,295.243 240.794,293.600 241.088 M283.045 243.528 C 282.933 243.708,283.373 243.777,284.021 243.682 C 284.670 243.587,285.200 243.440,285.200 243.355 C 285.200 243.050,283.243 243.207,283.045 243.528 M275.000 245.200 L 273.800 245.505 274.876 245.553 C 275.468 245.579,276.064 245.420,276.200 245.200 C 276.336 244.980,276.392 244.821,276.324 244.847 C 276.256 244.873,275.660 245.032,275.000 245.200 M257.000 249.200 L 255.800 249.505 256.876 249.553 C 257.468 249.579,258.064 249.420,258.200 249.200 C 258.336 248.980,258.392 248.821,258.324 248.847 C 258.256 248.873,257.660 249.032,257.000 249.200 M247.600 251.200 L 246.200 251.495 247.476 251.547 C 248.178 251.576,248.864 251.420,249.000 251.200 C 249.136 250.980,249.192 250.824,249.124 250.853 C 249.056 250.882,248.370 251.038,247.600 251.200 M386.368 252.700 C 386.559 254.081,386.587 254.109,386.719 253.051 C 386.798 252.419,386.705 251.745,386.512 251.552 C 386.310 251.350,386.249 251.840,386.368 252.700 M237.400 253.091 C 235.684 253.335,235.320 253.872,237.004 253.675 C 237.776 253.585,238.506 253.351,238.627 253.156 C 238.748 252.960,238.792 252.827,238.724 252.860 C 238.656 252.893,238.060 252.997,237.400 253.091 M225.305 255.487 C 225.914 255.579,226.814 255.577,227.305 255.482 C 227.797 255.387,227.300 255.311,226.200 255.314 C 225.100 255.317,224.697 255.395,225.305 255.487 M209.900 257.482 C 210.395 257.578,211.205 257.578,211.700 257.482 C 212.195 257.387,211.790 257.309,210.800 257.309 C 209.810 257.309,209.405 257.387,209.900 257.482 M374.617 303.700 C 374.287 304.746,374.157 306.750,374.430 306.581 C 374.587 306.484,374.784 305.684,374.868 304.803 C 375.021 303.206,374.917 302.750,374.617 303.700 M372.501 316.200 C 372.505 317.080,372.587 317.393,372.683 316.895 C 372.779 316.398,372.775 315.678,372.675 315.295 C 372.575 314.913,372.496 315.320,372.501 316.200 M59.293 329.600 C 59.293 330.370,59.375 330.685,59.476 330.300 C 59.576 329.915,59.576 329.285,59.476 328.900 C 59.375 328.515,59.293 328.830,59.293 329.600 M57.709 346.000 C 57.709 346.990,57.787 347.395,57.882 346.900 C 57.978 346.405,57.978 345.595,57.882 345.100 C 57.787 344.605,57.709 345.010,57.709 346.000 M349.000 352.400 L 347.800 352.705 348.876 352.753 C 349.468 352.779,350.064 352.620,350.200 352.400 C 350.336 352.180,350.392 352.021,350.324 352.047 C 350.256 352.073,349.660 352.232,349.000 352.400 M57.340 355.600 C 57.340 357.470,57.409 358.235,57.493 357.300 C 57.577 356.365,57.577 354.835,57.493 353.900 C 57.409 352.965,57.340 353.730,57.340 355.600 M339.052 354.716 C 338.944 354.890,339.473 354.961,340.228 354.873 C 340.983 354.785,341.600 354.642,341.600 354.556 C 341.600 354.255,339.245 354.403,339.052 354.716 M328.905 356.687 C 329.514 356.779,330.414 356.777,330.905 356.682 C 331.397 356.587,330.900 356.511,329.800 356.514 C 328.700 356.517,328.297 356.595,328.905 356.687 M314.905 358.687 C 315.514 358.779,316.414 358.777,316.905 358.682 C 317.397 358.587,316.900 358.511,315.800 358.514 C 314.700 358.517,314.297 358.595,314.905 358.687 M300.200 360.298 C 298.880 360.378,297.673 360.569,297.518 360.722 C 297.364 360.875,298.354 360.940,299.718 360.866 C 301.083 360.793,302.371 360.568,302.580 360.366 C 302.789 360.165,302.879 360.034,302.780 360.076 C 302.681 360.117,301.520 360.217,300.200 360.298 M56.937 363.800 C 56.939 365.560,57.009 366.230,57.093 365.289 C 57.178 364.349,57.177 362.909,57.091 362.089 C 57.005 361.270,56.936 362.040,56.937 363.800 M280.200 362.298 C 278.880 362.378,277.673 362.569,277.518 362.722 C 277.364 362.875,278.354 362.940,279.718 362.866 C 281.083 362.793,282.371 362.568,282.580 362.366 C 282.789 362.165,282.879 362.034,282.780 362.076 C 282.681 362.117,281.520 362.217,280.200 362.298 M252.005 364.299 C 249.698 364.371,247.681 364.558,247.523 364.715 C 247.366 364.872,249.163 364.944,251.518 364.875 C 253.873 364.806,255.971 364.581,256.180 364.375 C 256.389 364.169,256.479 364.038,256.380 364.084 C 256.281 364.131,254.312 364.228,252.005 364.299 M205.061 366.700 C 204.958 366.865,206.792 366.953,209.137 366.895 C 217.002 366.700,217.847 366.552,211.524 366.476 C 208.072 366.434,205.163 366.535,205.061 366.700 M129.700 368.699 C 133.605 368.765,139.995 368.765,143.900 368.699 C 147.805 368.634,144.610 368.580,136.800 368.580 C 128.990 368.580,125.795 368.634,129.700 368.699 " stroke="none" fill="#a6a6a6" fill-rule="evenodd"></path></g></svg>