<svg id="svg" xmlns="http://www.w3.org/2000/svg" xmlns:xlink="http://www.w3.org/1999/xlink" width="400" height="400" viewBox="0, 0, 400,400"><g id="svgg"><path id="path0" d="M350.736 23.824 C 334.407 26.636,309.874 40.967,285.000 62.224 C 267.215 77.423,251.183 91.900,240.500 102.405 L 228.250 114.452 232.077 114.476 C 245.901 114.563,264.370 118.685,275.250 124.112 C 295.724 134.325,307.044 151.192,312.260 179.256 C 315.685 197.686,311.985 253.658,305.722 278.150 C 300.289 299.394,293.880 315.667,287.340 324.822 C 270.099 348.957,272.556 368.233,294.222 378.823 C 330.112 396.364,351.597 383.595,366.968 335.591 C 372.280 319.000,378.748 288.802,380.480 272.500 C 380.787 269.613,381.814 261.063,382.763 253.500 C 388.525 207.581,391.616 126.056,388.810 94.000 C 383.990 38.926,373.656 19.878,350.736 23.824 " stroke="none" fill="#000000" fill-rule="evenodd"></path></g></svg>