<svg id="svg" xmlns="http://www.w3.org/2000/svg" xmlns:xlink="http://www.w3.org/1999/xlink" width="400" height="400" viewBox="0, 0, 400,400"><g id="svgg"><path id="path0" d="M154.500 1.284 C 114.002 3.471,77.515 19.330,53.220 45.303 C 13.855 87.388,11.332 128.456,46.149 160.387 C 71.687 183.808,105.285 179.247,137.250 148.021 C 190.959 95.552,218.974 79.541,241.447 88.470 C 247.474 90.865,250.497 93.530,253.110 98.750 C 262.078 116.665,254.016 132.852,220.505 164.213 C 196.474 186.703,182.579 198.307,154.000 219.753 C 69.052 283.498,30.148 321.557,28.762 342.271 C 27.788 356.822,32.988 365.287,45.750 369.924 L 48.750 371.014 195.324 370.882 L 341.899 370.750 334.964 361.250 C 299.274 312.354,261.226 288.036,217.556 286.209 C 211.074 285.937,207.876 285.533,202.255 284.276 L 195.149 282.686 191.372 279.600 L 187.594 276.513 187.236 271.732 L 186.877 266.950 189.561 260.861 C 197.099 243.760,216.599 222.139,259.750 183.039 C 301.827 144.912,320.978 120.817,329.479 95.312 L 332.500 86.249 332.489 78.750 L 332.477 71.250 329.570 63.607 L 326.662 55.964 320.706 49.924 C 304.311 33.296,270.427 16.048,239.750 8.715 C 209.670 1.525,186.854 -0.464,154.500 1.284 " stroke="none" fill="#000000" fill-rule="evenodd"></path></g></svg>