<svg id="svg" xmlns="http://www.w3.org/2000/svg" xmlns:xlink="http://www.w3.org/1999/xlink" width="400" height="400" viewBox="0, 0, 400,400"><g id="svgg"><path id="path0" d="M57.366 29.625 C 57.634 29.969,62.242 36.100,67.604 43.250 C 86.914 68.996,106.971 85.617,129.750 94.751 L 140.750 99.163 152.459 100.713 L 164.168 102.264 176.959 100.928 C 183.994 100.193,194.475 99.008,200.250 98.295 C 216.340 96.307,221.427 96.449,227.839 99.066 L 232.927 101.143 234.470 104.696 L 236.012 108.250 235.017 113.444 C 233.781 119.890,229.640 127.374,220.599 139.500 C 203.912 161.880,192.300 172.884,172.672 184.919 C 169.309 186.980,166.810 188.950,165.272 190.750 L 162.950 193.468 163.509 196.609 C 164.924 204.560,182.509 215.892,213.000 228.499 C 237.065 238.450,250.783 247.693,255.578 257.186 L 258.071 262.123 257.278 267.129 L 256.485 272.136 252.020 276.978 C 245.184 284.392,236.191 290.162,227.021 293.015 L 220.292 295.108 214.172 294.755 C 197.182 293.775,186.571 284.210,169.649 254.621 C 162.066 241.362,155.926 234.352,147.324 229.133 L 141.399 225.537 135.074 225.491 C 121.358 225.390,110.771 231.400,94.526 248.508 C 66.422 278.103,54.392 301.216,57.990 318.702 C 58.546 321.401,59.000 323.659,59.000 323.718 C 59.000 323.778,60.588 325.947,62.528 328.538 C 78.492 349.859,138.751 375.122,187.500 380.932 L 202.750 382.750 217.750 382.217 C 266.394 380.487,321.980 359.472,351.363 331.704 L 359.779 323.750 364.264 315.250 L 368.750 306.750 369.750 298.000 L 370.750 289.250 367.995 280.000 L 365.241 270.750 358.766 261.250 C 332.823 223.181,301.048 200.810,272.349 200.407 L 265.750 200.315 272.750 199.977 C 301.667 198.582,323.474 180.332,343.226 141.000 C 378.601 70.557,379.767 33.329,346.716 29.522 C 339.580 28.700,56.722 28.801,57.366 29.625 " stroke="none" fill="#000000" fill-rule="evenodd"></path></g></svg>