<svg id="svg" xmlns="http://www.w3.org/2000/svg" xmlns:xlink="http://www.w3.org/1999/xlink" width="400" height="400" viewBox="0, 0, 400,400"><g id="svgg"><path id="path0" d="M269.000 0.390 C 262.217 0.811,240.442 3.279,228.250 5.008 C 220.550 6.101,198.838 9.132,180.000 11.745 L 145.750 16.496 133.000 20.182 L 120.250 23.867 109.639 29.559 C 99.276 35.117,98.835 35.419,90.741 42.500 C 82.068 50.087,82.157 49.982,72.591 64.000 C 59.966 82.503,54.124 121.411,58.270 159.383 C 60.971 184.127,65.372 196.365,73.819 202.625 L 77.699 205.500 83.020 205.500 L 88.342 205.500 94.046 202.863 C 97.183 201.412,102.787 198.618,106.500 196.654 C 127.778 185.398,149.324 187.228,169.968 202.046 C 189.594 216.132,202.765 233.200,205.462 248.043 L 206.500 253.752 205.509 258.953 C 202.726 273.559,187.677 287.508,169.250 292.563 C 144.165 299.444,107.688 289.283,68.846 264.594 C 61.754 260.086,57.046 257.376,57.201 257.889 C 57.343 258.362,59.382 265.612,61.731 273.999 C 76.104 325.318,97.858 361.687,123.250 376.850 C 140.857 387.363,166.032 392.516,199.795 392.516 C 266.158 392.516,312.648 368.926,337.777 322.500 C 357.794 285.519,361.619 254.462,350.399 220.008 C 332.887 166.235,294.805 147.511,224.250 157.983 C 172.739 165.629,147.311 162.062,143.685 146.682 C 139.050 127.020,166.447 111.537,224.500 101.009 C 287.435 89.597,308.823 72.369,298.682 41.257 C 289.724 13.773,279.529 -0.264,269.000 0.390 " stroke="none" fill="#000000" fill-rule="evenodd"></path></g></svg>