<svg id="svg" xmlns="http://www.w3.org/2000/svg" xmlns:xlink="http://www.w3.org/1999/xlink" width="400" height="400" viewBox="0, 0, 400,400"><g id="svgg"><path id="path0" d="M248.500 9.583 C 145.596 64.851,86.142 125.005,57.758 202.571 C 31.953 273.087,49.360 340.930,100.822 370.411 C 134.808 389.881,197.215 397.052,247.750 387.295 C 320.756 373.199,352.116 341.761,357.268 277.500 C 360.197 240.967,348.784 202.671,330.298 187.000 C 312.397 171.825,286.562 165.000,256.750 167.569 C 210.345 171.568,177.922 199.856,157.112 254.500 C 153.276 264.571,152.167 274.133,154.590 276.236 C 158.704 279.806,167.570 276.683,185.397 265.382 C 217.584 244.978,238.878 245.760,249.869 267.750 C 261.687 291.396,252.299 310.412,223.750 320.658 C 205.042 327.372,185.573 326.108,167.505 317.007 C 145.182 305.761,133.511 273.215,133.525 222.250 C 133.542 164.889,168.234 103.761,249.372 18.125 C 258.817 8.156,266.478 0.011,266.397 0.025 C 266.316 0.038,258.262 4.339,248.500 9.583 " stroke="none" fill="#000000" fill-rule="evenodd"></path></g></svg>