<svg id="svg" xmlns="http://www.w3.org/2000/svg" xmlns:xlink="http://www.w3.org/1999/xlink" width="400" height="400" viewBox="0, 0, 400,400"><g id="svgg"><path id="path0" d="M200.000 29.565 C 176.112 30.040,158.833 31.250,135.750 34.062 C 127.682 35.045,118.178 38.227,115.375 40.884 L 114.000 42.187 114.003 56.719 C 114.006 75.985,114.427 77.040,123.894 81.539 C 136.754 87.651,151.947 91.537,192.250 99.022 C 236.574 107.253,252.756 111.908,267.750 120.740 C 282.068 129.174,286.705 137.094,284.454 149.271 C 281.737 163.967,269.935 170.420,243.750 171.525 C 213.924 172.784,201.988 179.623,200.007 196.587 C 197.656 216.719,209.883 227.126,237.500 228.497 C 242.863 228.764,248.600 229.192,250.250 229.450 C 271.164 232.713,278.521 250.288,271.781 280.882 C 262.368 323.612,272.173 354.377,307.637 393.380 L 313.730 400.081 318.601 380.666 C 332.347 325.876,350.211 246.153,356.453 211.750 C 370.922 131.987,373.721 99.193,367.632 80.750 C 356.978 48.479,320.800 31.803,256.500 29.524 C 239.994 28.940,231.107 28.946,200.000 29.565 " stroke="none" fill="#000000" fill-rule="evenodd"></path></g></svg>