<svg id="svg" xmlns="http://www.w3.org/2000/svg" xmlns:xlink="http://www.w3.org/1999/xlink" width="400" height="400" viewBox="0, 0, 400,400"><g id="svgg"><path id="path0" d="M165.500 15.308 C 128.662 16.749,89.042 29.803,68.538 47.253 L 61.543 53.206 58.514 59.978 L 55.484 66.750 56.491 74.000 L 57.498 81.250 62.805 89.069 C 65.724 93.370,71.119 100.563,74.795 105.054 C 81.316 113.023,81.562 113.413,84.989 121.183 L 88.500 129.146 88.506 137.448 L 88.512 145.750 84.739 154.008 L 80.966 162.266 73.358 170.624 C 67.031 177.575,64.192 180.216,56.500 186.304 C 19.627 215.487,2.344 244.569,0.520 280.500 L -0.026 291.250 3.214 301.431 C 5.677 309.171,6.849 312.115,8.102 313.710 C 9.008 314.864,12.225 318.896,15.250 322.671 L 20.750 329.534 32.250 337.706 L 43.750 345.878 59.250 352.861 L 74.750 359.843 94.250 365.487 C 104.975 368.591,113.896 371.213,114.074 371.314 C 114.253 371.414,110.462 362.328,105.651 351.123 L 96.904 330.750 92.702 312.334 L 88.500 293.917 88.500 277.130 L 88.500 260.342 93.517 245.296 L 98.533 230.250 107.392 218.278 C 116.186 206.392,116.333 206.229,127.750 195.528 C 143.952 180.343,153.144 169.156,159.112 157.360 L 163.215 149.250 163.746 141.500 L 164.277 133.750 161.059 127.250 L 157.841 120.750 151.653 115.334 C 142.064 106.941,137.001 100.944,133.715 94.085 L 131.000 88.420 131.000 82.201 L 131.000 75.982 133.556 70.889 C 141.589 54.880,157.511 43.500,171.875 43.500 C 185.372 43.500,204.002 58.261,209.531 73.335 L 211.618 79.024 211.253 84.383 C 210.595 94.029,208.251 97.795,194.167 111.838 L 182.889 123.083 180.178 129.417 L 177.467 135.750 178.761 143.500 L 180.055 151.250 184.711 159.923 C 191.054 171.738,200.876 183.185,218.113 198.853 C 234.215 213.489,245.798 226.698,253.590 239.308 C 260.403 250.336,260.010 249.455,262.762 259.860 L 265.040 268.470 264.272 277.237 L 263.504 286.003 259.282 294.376 C 245.179 322.345,217.321 335.727,183.500 330.778 C 178.412 330.033,169.975 328.526,164.750 327.429 C 156.118 325.615,154.610 325.438,148.252 325.486 L 141.254 325.540 137.671 327.884 L 134.088 330.229 133.759 334.490 L 133.430 338.750 136.369 345.250 C 138.698 350.400,140.437 353.278,144.739 359.103 L 150.170 366.455 157.960 371.630 L 165.750 376.804 174.855 379.402 L 183.959 382.000 197.332 382.000 L 210.704 382.000 223.727 379.700 C 235.783 377.571,237.901 377.030,252.250 372.414 C 308.829 354.213,340.302 329.918,353.456 294.289 L 357.163 284.250 357.956 273.500 L 358.750 262.750 356.496 252.500 L 354.242 242.250 348.895 232.542 L 343.548 222.835 334.899 214.125 C 325.388 204.546,313.867 195.571,291.750 180.509 C 282.130 173.957,280.524 172.642,272.586 164.804 L 263.922 156.250 259.961 148.381 L 256.000 140.512 256.000 132.187 L 256.000 123.862 260.322 115.598 C 264.518 107.575,264.856 107.102,271.926 99.341 L 279.208 91.347 282.638 83.798 L 286.069 76.250 286.014 69.140 L 285.959 62.030 281.362 55.370 L 276.766 48.710 268.008 42.730 C 249.338 29.982,221.830 20.301,193.750 16.597 L 179.750 14.750 165.500 15.308 " stroke="none" fill="#000000" fill-rule="evenodd"></path></g></svg>