<svg id="svg" xmlns="http://www.w3.org/2000/svg" xmlns:xlink="http://www.w3.org/1999/xlink" width="400" height="400" viewBox="0, 0, 400,400"><g id="svgg"><path id="path0" d="M218.500 8.083 C 171.730 9.679,130.458 25.328,112.564 48.250 C 99.966 64.387,91.423 94.101,92.725 117.250 C 95.865 173.068,115.709 196.341,163.000 199.669 C 209.838 202.966,245.036 177.452,264.581 126.036 C 272.792 104.438,267.222 105.400,240.972 130.115 C 218.775 151.015,205.501 157.556,194.889 152.823 C 183.728 147.845,177.523 126.299,182.988 111.500 C 193.229 83.771,224.600 62.459,246.750 68.183 C 272.059 74.724,282.968 98.340,284.775 150.500 C 286.413 197.752,261.311 257.754,210.916 327.049 C 204.996 335.188,199.998 342.099,199.808 342.406 C 199.618 342.713,204.708 339.316,211.118 334.857 C 309.682 266.298,368.260 172.817,358.759 99.250 C 350.598 36.058,303.117 5.195,218.500 8.083 " stroke="none" fill="#000000" fill-rule="evenodd"></path></g></svg>