<svg id="svg" xmlns="http://www.w3.org/2000/svg" xmlns:xlink="http://www.w3.org/1999/xlink" width="400" height="400" viewBox="0, 0, 400,400"><g id="svgg"><path id="path0" d="M185.500 0.490 C 163.891 1.503,150.598 7.870,135.097 24.636 C 118.429 42.662,102.881 73.045,95.014 102.959 L 91.519 116.250 89.990 132.000 L 88.462 147.750 89.003 165.750 C 90.419 212.863,102.841 276.188,123.331 340.750 C 127.608 354.225,131.563 366.712,132.120 368.500 L 133.133 371.750 138.274 336.000 C 154.037 226.367,173.503 148.610,194.232 112.476 L 200.672 101.250 207.711 94.080 L 214.750 86.910 221.624 83.452 C 253.833 67.251,274.601 68.667,283.227 87.653 C 291.858 106.649,272.287 126.936,215.250 158.119 C 201.964 165.383,189.754 174.059,185.750 179.082 C 179.627 186.763,180.096 185.870,179.257 191.451 L 178.482 196.616 181.464 201.441 C 187.758 211.626,202.123 219.393,231.000 228.225 C 260.469 237.237,275.911 245.035,282.977 254.470 L 286.500 259.173 286.500 264.471 L 286.500 269.768 282.769 274.973 C 277.253 282.669,268.500 289.530,253.538 297.889 C 226.925 312.755,214.717 321.701,208.014 331.250 C 206.084 334.000,204.502 336.475,204.498 336.750 C 204.495 337.025,204.266 339.218,203.991 341.624 L 203.490 345.997 205.939 350.874 C 213.925 366.770,247.821 380.634,278.402 380.510 L 287.553 380.473 296.402 378.046 C 324.891 370.232,355.306 343.835,363.236 320.041 L 365.594 312.967 365.527 305.559 L 365.461 298.150 362.024 290.518 L 358.588 282.886 352.169 276.395 C 339.851 263.939,327.382 256.235,291.161 238.699 C 272.559 229.692,263.381 223.351,256.542 214.778 L 251.668 208.668 251.022 202.701 L 250.375 196.733 253.409 190.681 L 256.443 184.630 263.437 178.624 C 272.107 171.180,284.391 164.128,305.035 154.743 C 341.235 138.287,362.083 121.498,370.209 102.257 L 373.168 95.250 373.709 87.500 L 374.250 79.750 372.000 72.000 C 369.295 62.681,364.268 53.427,355.569 41.750 C 338.398 18.701,320.671 6.585,297.250 1.889 L 289.750 0.386 241.500 0.256 C 214.962 0.185,189.762 0.291,185.500 0.490 " stroke="none" fill="#000000" fill-rule="evenodd"></path></g></svg>