<svg id="svg" xmlns="http://www.w3.org/2000/svg" xmlns:xlink="http://www.w3.org/1999/xlink" width="400" height="400" viewBox="0, 0, 400,400"><g id="svgg"><path id="path0" d="M205.500 42.308 C 136.696 45.440,92.555 81.045,67.473 153.642 C 34.619 248.732,47.170 308.210,108.772 349.359 C 149.483 376.553,220.178 393.025,259.750 384.538 C 297.370 376.468,325.518 345.353,339.180 296.736 L 342.275 285.721 328.513 287.860 C 215.131 305.480,158.684 304.051,140.597 283.103 C 124.482 264.438,124.473 239.572,140.571 205.098 C 160.834 161.701,190.474 146.948,233.723 158.730 C 259.930 165.869,300.662 166.176,322.000 159.395 C 339.825 153.730,348.801 148.596,357.953 138.830 C 369.831 126.156,374.586 101.348,367.714 87.910 C 360.128 73.076,333.097 59.233,297.750 52.080 C 257.639 43.962,231.042 41.145,205.500 42.308 " stroke="none" fill="#000000" fill-rule="evenodd"></path></g></svg>