<svg id="svg" xmlns="http://www.w3.org/2000/svg" xmlns:xlink="http://www.w3.org/1999/xlink" width="400" height="400" viewBox="0, 0, 400,400"><g id="svgg"><path id="path0" d="M111.241 0.807 C 92.414 4.340,77.346 38.998,69.529 96.750 C 62.581 148.078,67.821 248.096,82.992 353.710 C 84.371 363.314,85.518 371.301,85.540 371.460 C 85.562 371.620,88.230 357.125,91.469 339.250 C 114.916 209.852,139.226 132.474,166.032 101.908 L 172.314 94.745 179.197 91.525 L 186.079 88.305 192.664 89.223 L 199.250 90.142 206.750 95.268 C 225.230 107.896,247.585 139.297,251.684 158.383 C 256.697 181.725,247.617 200.552,222.596 218.693 C 219.931 220.626,215.050 224.366,211.750 227.006 C 208.450 229.646,203.387 233.580,200.500 235.750 C 192.999 241.386,183.838 248.788,175.750 255.747 C 171.900 259.060,167.063 263.143,165.000 264.819 C 159.969 268.909,142.735 285.501,139.623 289.250 C 124.169 307.869,137.635 328.272,176.500 345.122 C 210.322 359.786,255.018 346.495,305.527 306.752 C 342.307 277.813,362.697 250.856,373.228 217.250 C 390.266 162.879,359.369 91.319,303.542 55.851 C 283.033 42.821,264.494 35.311,226.750 24.742 C 218.225 22.355,206.188 18.984,200.000 17.252 C 173.000 9.692,131.903 1.413,116.241 0.378 C 115.135 0.305,112.885 0.498,111.241 0.807 " stroke="none" fill="#000000" fill-rule="evenodd"></path></g></svg>