<svg id="svg" xmlns="http://www.w3.org/2000/svg" xmlns:xlink="http://www.w3.org/1999/xlink" width="400" height="400" viewBox="0, 0, 400,400"><g id="svgg"><path id="path0" d="M253.000 1.073 C 202.436 2.142,154.580 8.078,127.884 16.590 L 115.018 20.692 106.761 34.481 L 98.505 48.270 94.002 72.737 L 89.500 97.205 89.500 132.227 L 89.499 167.250 93.515 213.131 L 97.530 259.012 105.765 315.103 C 110.294 345.953,114.000 371.266,114.000 371.354 C 114.000 371.442,118.669 367.513,124.375 362.622 C 133.532 354.774,135.949 353.000,144.965 347.519 L 155.179 341.308 165.715 337.948 L 176.250 334.589 186.750 334.258 L 197.250 333.927 207.000 336.135 C 215.903 338.151,217.619 338.726,226.750 342.753 C 242.127 349.534,252.958 352.358,267.749 353.443 L 278.748 354.250 289.249 352.440 C 322.887 346.643,361.165 319.800,374.844 292.415 L 378.673 284.750 379.461 276.750 L 380.250 268.750 378.500 260.991 L 376.750 253.231 372.124 245.941 C 368.249 239.833,366.563 237.727,361.736 232.964 L 355.973 227.278 349.111 224.853 L 342.250 222.427 334.501 222.485 L 326.753 222.542 318.001 225.332 C 307.505 228.679,297.082 234.479,279.460 246.778 C 265.503 256.519,254.037 262.165,241.098 265.666 L 232.471 268.000 222.933 268.000 L 213.395 268.000 205.823 265.956 C 179.907 258.961,150.371 232.311,154.269 219.438 C 158.062 206.908,179.761 204.322,208.250 213.005 C 238.765 222.305,252.448 221.312,264.906 208.894 C 275.452 198.381,280.713 175.624,276.536 158.588 C 268.442 125.582,250.620 121.033,214.495 142.753 C 196.431 153.614,186.634 157.017,173.500 156.991 L 166.750 156.978 160.689 154.568 C 144.526 148.140,130.712 132.309,128.951 118.193 C 126.664 99.870,143.757 79.294,165.850 73.774 C 183.495 69.365,198.669 72.625,233.697 88.349 C 256.230 98.464,269.103 101.212,285.750 99.461 L 293.250 98.672 299.360 95.627 C 328.653 81.028,350.380 38.471,338.758 18.459 L 336.266 14.167 331.008 11.212 C 315.797 2.661,296.494 0.152,253.000 1.073 " stroke="none" fill="#000000" fill-rule="evenodd"></path></g></svg>