<svg id="svg" xmlns="http://www.w3.org/2000/svg" xmlns:xlink="http://www.w3.org/1999/xlink" width="400" height="400" viewBox="0, 0, 400,400"><g id="svgg"><path id="path0" d="M294.500 15.062 C 289.413 15.234,282.100 15.742,278.250 16.192 C 274.400 16.641,266.300 17.583,260.250 18.286 C 239.502 20.695,210.346 26.369,185.250 32.881 C 111.996 51.890,70.220 106.153,66.984 186.500 C 63.241 279.439,85.367 355.323,127.678 394.663 L 133.500 400.076 133.510 387.663 C 133.559 328.673,147.679 282.848,170.766 266.752 C 181.243 259.447,188.080 257.758,210.250 256.999 C 248.513 255.689,276.528 247.219,297.250 230.696 C 313.409 217.811,314.730 208.367,301.000 203.875 C 294.436 201.728,288.327 201.095,266.250 200.273 C 239.273 199.269,231.424 198.277,220.055 194.434 C 204.195 189.073,196.595 177.052,200.990 164.278 C 205.932 149.914,226.816 138.147,262.250 129.762 C 298.327 121.225,308.382 117.844,324.750 108.745 C 355.153 91.845,366.157 60.255,351.397 32.250 C 344.259 18.708,328.402 13.918,294.500 15.062 " stroke="none" fill="#000000" fill-rule="evenodd"></path></g></svg>