<svg id="svg" xmlns="http://www.w3.org/2000/svg" xmlns:xlink="http://www.w3.org/1999/xlink" width="400" height="400" viewBox="0, 0, 400,400"><g id="svgg"><path id="path0" d="M230.500 20.317 C 174.373 22.631,115.898 42.552,78.500 72.098 C 19.422 118.774,2.115 206.636,37.570 279.894 C 71.627 350.265,119.309 386.418,192.341 397.243 L 207.432 399.480 222.756 399.515 C 304.832 399.703,350.186 373.372,371.041 313.423 C 390.412 257.741,400.873 202.101,398.760 166.000 C 397.265 140.447,369.114 129.250,322.750 135.769 C 288.227 140.622,244.639 153.595,220.073 166.329 C 198.052 177.742,186.103 188.683,175.804 206.862 C 169.647 217.729,169.804 240.652,176.121 253.241 C 186.202 273.331,206.114 278.094,248.250 270.494 C 254.857 269.302,258.754 268.902,265.750 268.698 L 274.750 268.436 276.430 269.875 L 278.111 271.315 276.857 273.782 C 273.596 280.199,255.181 293.236,232.250 305.361 C 203.065 320.794,175.052 322.098,153.949 309.007 C 134.758 297.102,121.017 279.221,113.600 256.500 L 111.070 248.750 110.726 240.000 C 109.587 211.013,120.462 184.510,146.025 153.972 C 181.408 111.702,242.603 80.108,324.755 61.697 L 342.260 57.774 334.524 51.012 C 308.650 28.396,275.046 18.480,230.500 20.317 " stroke="none" fill="#000000" fill-rule="evenodd"></path></g></svg>