<svg id="svg" xmlns="http://www.w3.org/2000/svg" xmlns:xlink="http://www.w3.org/1999/xlink" width="400" height="400" viewBox="0, 0, 400,400"><g id="svgg"><path id="path0" d="M282.314 48.000 C 267.788 52.945,259.051 64.958,238.496 108.244 C 211.399 165.304,185.048 163.663,158.333 103.250 C 139.097 59.752,123.464 44.882,105.344 52.849 C 89.096 59.993,70.587 93.112,61.809 130.750 C 48.316 188.602,64.005 267.647,106.403 355.435 L 114.220 371.621 115.374 366.935 C 136.864 279.699,160.218 230.367,185.797 218.177 C 214.410 204.542,246.402 236.691,262.490 295.250 C 266.363 309.345,269.541 322.044,271.009 329.296 C 276.005 353.960,285.861 362.381,295.705 350.393 C 311.878 330.699,329.450 289.266,340.934 243.750 C 356.883 180.538,350.291 123.766,321.166 73.490 C 309.293 52.994,295.064 43.659,282.314 48.000 " stroke="none" fill="#000000" fill-rule="evenodd"></path></g></svg>