<svg id="svg" xmlns="http://www.w3.org/2000/svg" xmlns:xlink="http://www.w3.org/1999/xlink" width="400" height="400" viewBox="0, 0, 400,400"><g id="svgg"><path id="path0" d="M323.500 1.761 C 318.413 2.390,312.563 3.174,310.500 3.504 C 296.038 5.818,287.973 7.365,279.250 9.497 C 273.750 10.842,266.550 12.537,263.250 13.264 C 215.267 23.841,196.235 54.584,200.243 115.039 C 202.646 151.272,215.760 169.744,240.500 171.744 C 250.440 172.547,254.902 175.235,260.844 184.000 C 275.541 205.681,284.846 272.211,285.005 356.750 L 285.034 371.750 291.539 354.250 C 295.118 344.625,300.827 328.762,304.228 319.000 C 307.628 309.238,313.036 293.825,316.245 284.750 C 326.352 256.171,337.695 222.869,344.449 201.945 C 348.034 190.838,352.557 177.025,354.500 171.250 C 356.443 165.475,359.392 156.025,361.053 150.250 C 362.713 144.475,365.724 134.238,367.742 127.500 C 383.167 76.017,389.597 40.952,385.624 30.000 C 384.025 25.593,375.401 13.678,371.657 10.704 C 359.551 1.087,347.326 -1.183,323.500 1.761 " stroke="none" fill="#000000" fill-rule="evenodd"></path></g></svg>