<svg id="svg" xmlns="http://www.w3.org/2000/svg" xmlns:xlink="http://www.w3.org/1999/xlink" width="400" height="400" viewBox="0, 0, 400,400"><g id="svgg"><path id="path0" d="M330.250 10.327 C 259.136 12.565,209.915 23.380,183.730 42.521 C 161.132 59.040,151.772 83.739,156.761 113.682 C 166.176 170.186,189.249 185.413,225.941 159.336 C 243.119 147.127,251.571 144.103,260.916 146.820 C 278.000 151.786,287.394 190.305,284.495 243.500 C 280.839 310.589,251.867 343.500,197.500 342.321 C 144.329 341.168,116.502 306.682,114.572 239.551 L 114.250 228.351 105.431 242.801 C 85.998 274.639,76.337 297.936,73.752 319.200 L 72.481 329.650 73.514 339.128 L 74.547 348.606 78.335 356.170 C 81.975 363.438,82.359 363.984,88.127 370.115 L 94.130 376.495 103.190 381.671 C 121.111 391.908,144.842 397.349,178.500 398.936 C 291.918 404.286,353.573 371.919,362.681 302.250 L 364.250 290.250 363.685 276.500 C 363.029 260.529,360.765 246.264,354.995 221.750 C 340.442 159.927,334.955 122.058,335.649 88.250 C 336.309 56.152,342.846 38.842,358.500 27.744 C 369.503 19.943,370.010 14.688,360.000 12.185 C 353.096 10.459,344.040 9.893,330.250 10.327 " stroke="none" fill="#000000" fill-rule="evenodd"></path></g></svg>