<svg id="svg" xmlns="http://www.w3.org/2000/svg" xmlns:xlink="http://www.w3.org/1999/xlink" width="400" height="400" viewBox="0, 0, 400,400"><g id="svgg"><path id="path0" d="M107.057 2.720 C 90.267 12.608,78.762 50.458,70.040 124.500 C 64.108 174.861,61.614 201.652,59.241 240.500 C 52.487 351.071,60.286 398.979,85.130 399.528 C 102.559 399.913,118.308 382.748,135.607 344.513 C 137.535 340.252,141.330 332.336,144.040 326.920 L 148.968 317.073 155.634 311.648 L 162.301 306.224 171.174 303.778 L 180.048 301.332 190.899 301.954 L 201.750 302.575 216.000 306.603 C 244.970 314.792,278.913 331.398,320.821 357.883 C 332.057 364.984,341.499 370.946,341.803 371.132 C 343.029 371.881,334.068 342.671,329.415 330.750 C 310.651 282.677,282.192 252.833,246.750 244.064 C 222.648 238.101,216.517 235.595,214.135 230.739 L 212.820 228.058 214.618 225.350 C 219.252 218.371,236.649 210.900,277.000 198.562 C 335.377 180.711,366.789 158.952,370.192 134.007 C 374.090 105.437,360.650 40.869,348.346 29.054 C 333.259 14.568,310.848 22.078,270.257 55.223 C 239.708 80.169,215.018 111.710,194.432 152.088 C 192.355 156.162,186.567 161.821,183.541 162.738 C 171.926 166.254,165.460 150.700,156.522 97.750 C 151.976 70.822,149.049 56.737,145.404 44.250 C 135.328 9.742,121.170 -5.592,107.057 2.720 " stroke="none" fill="#000000" fill-rule="evenodd"></path></g></svg>