<svg id="svg" xmlns="http://www.w3.org/2000/svg" xmlns:xlink="http://www.w3.org/1999/xlink" width="400" height="400" viewBox="0, 0, 400,400"><g id="svgg"><path id="path0" d="M102.058 5.117 C 122.043 44.939,120.424 115.218,97.327 210.500 C 83.550 267.338,75.419 326.260,78.024 350.395 C 80.061 369.268,82.688 374.040,95.000 381.228 C 108.182 388.923,143.829 391.855,192.500 389.246 C 279.428 384.587,348.129 367.088,372.918 343.291 C 388.494 328.338,404.986 264.010,397.220 248.500 C 384.038 222.175,282.131 248.144,203.000 297.994 C 180.639 312.081,169.409 313.283,164.125 302.157 L 162.342 298.401 162.122 288.576 L 161.902 278.750 163.995 268.250 C 168.848 243.901,171.534 234.044,179.983 209.577 C 214.677 109.111,193.633 46.833,111.124 5.797 L 99.498 0.015 102.058 5.117 " stroke="none" fill="#000000" fill-rule="evenodd"></path></g></svg>