<svg id="svg" xmlns="http://www.w3.org/2000/svg" xmlns:xlink="http://www.w3.org/1999/xlink" width="400" height="400" viewBox="0, 0, 400,400"><g id="svgg"><path id="path0" d="M146.995 46.480 L 142.240 50.436 138.393 59.843 C 133.777 71.126,131.024 82.856,125.759 113.656 C 116.433 168.215,86.610 250.946,45.608 336.000 C 29.272 369.887,28.414 371.731,29.356 370.924 C 29.848 370.503,39.587 362.331,51.000 352.764 C 96.060 314.992,125.119 285.758,146.917 256.269 L 156.883 242.787 162.602 230.769 L 168.322 218.750 169.526 210.250 C 170.960 200.130,171.420 200.954,171.480 213.750 C 171.637 247.026,181.509 296.890,190.410 309.368 L 193.705 313.986 197.521 315.257 L 201.337 316.528 206.543 314.068 C 216.163 309.524,229.051 294.423,242.232 272.250 C 270.061 225.434,283.754 194.069,285.014 174.250 L 285.332 169.250 285.419 173.500 C 285.730 188.794,294.580 212.613,307.525 233.000 C 325.052 260.602,329.164 270.657,327.518 281.888 C 326.335 289.965,324.119 292.840,313.750 299.758 C 295.140 312.174,291.198 322.010,298.004 339.048 C 306.025 359.126,324.493 370.089,352.250 371.253 L 359.250 371.547 364.721 368.055 L 370.192 364.564 373.424 355.907 L 376.657 347.250 377.204 332.103 L 377.750 316.956 375.925 296.603 C 370.853 240.053,348.914 144.298,330.438 98.072 L 323.314 80.250 316.117 69.435 L 308.920 58.620 301.639 55.309 L 294.358 51.999 287.014 55.992 L 279.670 59.986 272.397 70.898 C 248.249 107.130,229.989 148.596,228.537 170.500 L 228.156 176.250 228.078 170.925 C 227.778 150.462,207.920 105.786,181.662 66.500 C 174.636 55.989,173.748 54.881,168.132 49.635 L 162.122 44.019 157.064 43.260 C 154.282 42.842,151.949 42.505,151.878 42.512 C 151.808 42.519,149.610 44.304,146.995 46.480 " stroke="none" fill="#000000" fill-rule="evenodd"></path></g></svg>