<svg id="svg" xmlns="http://www.w3.org/2000/svg" xmlns:xlink="http://www.w3.org/1999/xlink" width="400" height="400" viewBox="0, 0, 400,400"><g id="svgg"><path id="path0" d="M56.250 51.942 C 39.540 56.504,32.519 65.330,28.165 87.250 C 19.311 131.824,26.950 214.057,52.078 344.674 C 54.919 359.439,57.294 371.347,57.356 371.135 C 57.419 370.923,60.970 358.038,65.249 342.500 C 94.995 234.483,121.956 165.890,137.826 157.850 L 141.577 155.949 144.916 158.681 L 148.255 161.413 150.885 169.582 C 153.695 178.313,154.695 184.176,158.502 214.250 C 169.097 297.955,190.473 349.342,222.500 368.095 C 263.036 391.830,312.462 391.614,348.229 367.547 C 378.772 346.995,382.905 286.603,360.519 188.000 C 345.021 119.740,327.657 74.437,313.642 65.699 L 310.034 63.450 306.892 64.009 C 297.018 65.766,289.624 81.926,277.498 128.250 C 275.626 135.400,273.173 144.738,272.046 149.000 C 263.266 182.205,258.022 208.082,257.200 222.250 L 256.823 228.750 256.196 225.250 C 253.476 210.078,239.724 188.593,214.750 160.500 C 202.183 146.364,173.757 116.747,161.885 105.420 C 117.900 63.456,81.525 45.041,56.250 51.942 " stroke="none" fill="#000000" fill-rule="evenodd"></path></g></svg>