<svg id="svg" xmlns="http://www.w3.org/2000/svg" xmlns:xlink="http://www.w3.org/1999/xlink" width="400" height="400" viewBox="0, 0, 400,400"><g id="svgg"><path id="path0" d="M219.250 51.311 C 164.317 56.176,99.417 102.957,77.480 153.500 C 59.962 193.861,59.788 264.310,77.119 300.000 C 92.954 332.609,126.417 357.009,197.846 388.030 C 199.923 388.932,199.870 388.842,192.071 378.345 C 131.324 296.587,114.251 253.514,129.167 219.653 C 139.602 195.965,189.224 157.453,216.997 151.486 C 247.150 145.009,285.513 168.604,300.023 202.553 C 307.698 220.510,294.414 237.104,256.022 257.518 C 213.820 279.959,196.964 304.356,199.988 338.621 C 203.463 377.988,230.992 397.507,269.615 387.987 C 315.171 376.758,351.490 352.207,371.266 319.271 C 398.614 273.722,399.204 188.598,372.503 140.744 C 360.837 119.836,338.315 97.408,309.999 78.499 C 286.956 63.112,266.521 54.998,242.750 51.797 L 231.250 50.248 219.250 51.311 " stroke="none" fill="#000000" fill-rule="evenodd"></path></g></svg>