<svg id="svg" xmlns="http://www.w3.org/2000/svg" xmlns:xlink="http://www.w3.org/1999/xlink" width="400" height="400" viewBox="0, 0, 400,400"><g id="svgg"><path id="path0" d="M224.750 15.057 C 192.822 16.147,163.940 23.681,148.222 35.020 L 140.994 40.235 135.661 48.492 C 132.728 53.034,130.032 57.213,129.669 57.779 C 129.307 58.345,126.879 64.609,124.273 71.699 C 105.231 123.516,101.161 216.803,111.515 364.108 C 112.882 383.556,114.002 399.643,114.005 399.858 C 114.030 401.629,126.671 361.652,131.036 346.000 C 134.065 335.137,137.638 322.538,138.976 318.000 C 145.069 297.341,152.407 266.355,158.039 237.500 C 159.644 229.279,160.610 225.427,167.303 200.595 C 170.378 189.185,173.205 180.236,177.726 167.595 C 198.743 108.838,213.430 86.473,230.974 86.509 C 255.768 86.558,290.893 132.277,288.763 161.728 C 287.539 178.647,278.485 188.169,247.500 205.121 C 205.820 227.925,196.812 236.135,200.515 247.946 C 203.285 256.783,217.018 267.332,234.547 274.087 L 238.750 275.707 250.250 275.722 C 264.511 275.741,272.198 274.250,288.750 268.251 C 341.056 249.294,362.853 221.579,369.757 165.250 C 376.735 108.320,358.072 62.224,318.555 38.784 C 292.468 23.310,255.668 14.002,224.750 15.057 " stroke="none" fill="#000000" fill-rule="evenodd"></path></g></svg>