<svg id="svg" xmlns="http://www.w3.org/2000/svg" xmlns:xlink="http://www.w3.org/1999/xlink" width="400" height="400" viewBox="0, 0, 400,400"><g id="svgg"><path id="path0" d="M146.750 53.961 L 130.250 57.316 114.000 65.058 L 97.750 72.801 83.298 82.872 C 61.559 98.022,49.336 109.489,36.530 126.750 L 27.627 138.750 22.231 151.000 C 5.764 188.384,2.737 237.815,14.164 282.750 L 17.343 295.250 25.146 308.000 L 32.949 320.750 45.886 332.641 L 58.824 344.531 76.287 355.316 C 85.892 361.247,94.650 366.562,95.750 367.125 C 99.252 368.920,142.680 388.987,142.800 388.866 C 142.864 388.802,137.845 381.887,131.648 373.500 C 89.630 316.633,69.570 277.985,67.494 249.896 L 66.839 241.042 68.258 233.045 L 69.676 225.048 73.714 217.536 C 87.822 191.300,133.588 157.125,161.849 151.724 C 189.348 146.468,223.913 166.484,240.701 197.386 C 249.681 213.915,255.077 228.437,256.276 239.301 C 256.681 242.975,254.785 246.790,252.787 246.320 C 252.217 246.186,249.801 245.718,247.419 245.280 C 238.264 243.598,219.494 234.246,184.891 214.126 C 170.818 205.943,154.474 198.236,150.699 198.003 C 150.671 198.001,149.634 199.294,148.395 200.875 L 146.142 203.750 150.696 213.012 C 155.179 222.129,155.423 222.497,166.281 236.512 C 184.245 259.698,194.565 274.943,199.242 285.203 L 203.095 293.656 201.978 297.578 C 201.364 299.735,200.611 301.498,200.306 301.495 C 195.721 301.452,186.007 300.077,178.961 298.472 L 170.172 296.470 163.497 297.250 L 156.822 298.030 154.286 300.233 C 147.385 306.226,147.775 305.662,145.291 313.251 L 143.000 320.251 143.007 329.001 C 143.033 361.267,156.360 382.727,180.151 388.812 L 186.750 390.500 193.357 389.969 C 205.459 388.995,215.656 383.375,232.750 368.257 C 237.405 364.140,239.134 362.972,244.000 360.654 L 249.750 357.915 254.554 358.256 L 259.358 358.598 263.257 361.975 C 266.551 364.828,267.690 366.266,270.598 371.240 C 275.780 380.103,280.389 384.925,286.715 388.104 L 291.680 390.600 297.644 390.241 C 314.946 389.202,355.292 362.259,373.139 339.826 L 378.250 333.402 379.031 327.464 L 379.811 321.527 376.118 316.888 L 372.425 312.250 364.338 308.195 C 357.172 304.602,354.910 303.754,344.500 300.761 C 334.951 298.015,330.989 296.581,323.348 293.108 L 313.946 288.835 309.723 284.235 L 305.500 279.634 305.500 274.463 L 305.500 269.291 309.916 263.521 C 320.806 249.287,325.045 242.128,328.279 232.500 L 331.219 223.750 331.986 213.000 L 332.753 202.250 331.168 189.750 C 329.594 177.342,329.553 177.158,325.605 164.750 L 321.627 152.250 314.668 140.128 C 307.747 128.072,307.657 127.945,297.980 116.726 L 288.250 105.447 274.500 94.558 C 261.908 84.586,245.930 73.871,230.125 64.800 C 229.781 64.602,222.166 61.874,213.202 58.737 L 196.905 53.033 180.720 51.767 C 161.485 50.261,166.560 49.933,146.750 53.961 " stroke="none" fill="#000000" fill-rule="evenodd"></path></g></svg>