<svg id="svg" xmlns="http://www.w3.org/2000/svg" xmlns:xlink="http://www.w3.org/1999/xlink" width="400" height="400" viewBox="0, 0, 400,400"><g id="svgg"><path id="path0" d="M226.500 15.038 C 196.781 15.874,171.864 21.566,153.622 31.686 L 144.494 36.750 137.622 46.215 C 133.842 51.420,130.553 56.006,130.313 56.405 C 130.073 56.805,127.427 63.905,124.434 72.183 L 118.991 87.233 115.002 107.992 L 111.013 128.750 109.030 154.500 C 104.192 217.330,106.113 314.535,113.815 396.646 L 114.133 400.042 116.100 393.896 C 117.182 390.516,120.399 380.550,123.249 371.750 C 134.179 337.996,148.038 285.604,155.985 248.000 C 167.991 191.186,179.825 154.659,198.024 118.250 C 217.218 79.851,238.537 76.325,264.540 107.250 C 298.317 147.422,296.777 178.210,260.000 198.000 C 215.057 222.184,198.408 234.747,199.797 243.429 C 201.378 253.318,225.038 277.699,271.000 316.803 C 334.901 371.169,370.182 392.986,383.633 386.451 C 396.207 380.342,380.597 347.475,342.809 300.500 C 323.691 276.734,312.170 257.094,310.473 245.378 C 308.863 234.263,314.630 229.483,331.142 228.245 C 359.780 226.098,372.902 192.744,370.232 128.884 C 368.360 84.135,341.954 46.246,301.250 29.907 C 275.622 19.619,249.359 14.395,226.500 15.038 " stroke="none" fill="#000000" fill-rule="evenodd"></path></g></svg>