<svg id="svg" xmlns="http://www.w3.org/2000/svg" xmlns:xlink="http://www.w3.org/1999/xlink" width="400" height="400" viewBox="0, 0, 400,400"><g id="svgg"><path id="path0" d="M251.367 15.834 C 190.662 22.035,126.019 46.031,97.137 73.087 C 79.356 89.744,73.748 100.913,67.056 133.000 C 61.991 157.286,63.571 184.657,70.881 199.250 C 80.718 218.889,111.899 228.384,166.887 228.483 C 181.756 228.510,193.827 230.532,203.686 234.647 L 211.122 237.750 215.300 242.296 L 219.477 246.841 221.003 253.261 L 222.528 259.681 221.002 267.817 C 217.787 284.966,204.874 308.787,189.117 326.636 L 181.250 335.547 173.195 340.524 L 165.141 345.500 157.247 345.500 L 149.353 345.500 141.636 341.178 L 133.919 336.857 125.812 328.053 C 114.138 315.374,105.628 301.278,93.707 274.875 L 85.637 256.999 77.866 269.375 C 47.614 317.551,36.492 347.017,41.169 366.598 C 46.400 388.496,87.426 399.505,163.750 399.493 L 191.750 399.488 207.250 397.533 C 273.539 389.171,311.876 363.458,338.878 309.250 C 357.219 272.430,358.433 245.544,342.493 229.214 C 324.713 210.997,280.194 195.578,220.000 186.787 C 190.974 182.548,175.644 178.266,170.125 172.857 C 166.984 169.779,167.021 170.151,169.500 166.501 C 173.488 160.627,192.225 152.688,217.250 146.267 C 289.082 127.838,322.507 114.412,336.789 98.254 C 348.161 85.390,340.814 59.304,318.750 34.198 C 304.736 18.253,283.731 12.529,251.367 15.834 " stroke="none" fill="#000000" fill-rule="evenodd"></path></g></svg>