<svg id="svg" xmlns="http://www.w3.org/2000/svg" xmlns:xlink="http://www.w3.org/1999/xlink" width="400" height="400" viewBox="0, 0, 400,400"><g id="svgg"><path id="path0" d="M188.992 42.320 C 133.500 46.490,93.817 66.413,64.642 104.750 L 57.413 114.250 85.831 114.583 C 159.351 115.445,193.360 118.037,201.617 123.408 L 203.484 124.622 202.617 126.100 C 202.140 126.913,200.117 128.597,198.120 129.843 C 180.907 140.589,166.473 163.825,150.472 206.547 C 125.067 274.382,121.665 317.730,139.134 351.000 C 156.633 384.326,185.417 391.628,215.590 370.394 C 229.395 360.679,235.372 355.474,243.096 346.443 C 248.963 339.581,250.405 337.266,253.648 329.500 C 261.887 309.768,253.642 283.965,231.760 261.000 C 208.912 237.020,208.388 215.081,229.922 184.066 C 249.128 156.403,274.337 144.343,315.750 143.004 C 362.296 141.499,381.719 130.740,390.264 101.727 C 396.120 81.846,390.149 71.226,369.250 64.353 C 347.822 57.306,323.778 53.265,249.250 44.183 C 226.982 41.470,208.083 40.886,188.992 42.320 " stroke="none" fill="#000000" fill-rule="evenodd"></path></g></svg>