<svg id="svg" xmlns="http://www.w3.org/2000/svg" xmlns:xlink="http://www.w3.org/1999/xlink" width="400" height="400" viewBox="0, 0, 400,400"><g id="svgg"><path id="path0" d="M113.395 2.000 C 86.714 72.175,62.633 154.341,55.290 200.250 C 44.818 265.729,49.345 296.802,74.596 332.750 C 100.454 369.563,133.084 385.482,194.000 391.005 C 260.708 397.054,323.510 385.994,349.000 363.710 C 377.174 339.080,383.910 320.823,394.459 240.500 C 399.222 204.230,400.684 140.514,397.448 110.250 C 387.924 21.187,321.606 -8.915,254.250 45.251 C 218.961 73.629,214.818 94.501,240.750 113.257 C 271.512 135.505,284.589 161.255,284.676 199.750 C 284.764 239.178,271.847 260.498,241.000 271.835 C 206.245 284.609,158.715 258.355,140.369 216.250 C 124.941 180.844,115.585 111.869,114.563 26.000 C 114.259 0.509,114.225 -0.185,113.395 2.000 " stroke="none" fill="#000000" fill-rule="evenodd"></path></g></svg>