<svg id="svg" xmlns="http://www.w3.org/2000/svg" xmlns:xlink="http://www.w3.org/1999/xlink" width="400" height="400" viewBox="0, 0, 400,400"><g id="svgg"><path id="path0" d="M0.184 0.837 C 0.336 1.339,5.207 18.175,11.008 38.250 C 44.788 155.136,83.677 261.037,112.030 313.351 C 132.820 351.711,146.239 369.266,162.500 379.375 L 170.250 384.193 177.750 384.995 L 185.250 385.797 193.500 383.685 C 231.913 373.850,260.102 354.334,286.569 319.250 C 297.035 305.377,302.749 295.997,319.770 264.750 C 328.854 248.075,349.403 202.421,356.230 183.750 C 358.240 178.250,361.011 170.938,362.387 167.500 C 366.735 156.637,374.380 132.398,377.921 118.250 C 387.456 80.157,380.892 47.193,360.786 32.205 C 340.572 17.137,316.583 13.616,294.250 22.440 C 251.530 39.318,219.315 72.026,224.751 93.003 C 226.887 101.247,230.532 105.683,242.750 114.906 C 265.428 132.026,277.668 150.102,282.445 173.526 C 286.416 192.995,285.200 221.357,279.783 235.641 C 269.976 261.497,242.538 278.425,221.692 271.481 C 199.214 263.992,182.420 241.235,153.996 179.750 C 125.360 117.806,80.834 64.528,11.329 9.042 C 5.048 4.028,0.033 0.335,0.184 0.837 " stroke="none" fill="#000000" fill-rule="evenodd"></path></g></svg>