<svg id="svg" xmlns="http://www.w3.org/2000/svg" xmlns:xlink="http://www.w3.org/1999/xlink" width="400" height="400" viewBox="0, 0, 400,400"><g id="svgg"><path id="path0" d="M283.176 13.998 L 275.102 15.250 270.294 18.723 C 266.316 21.597,265.406 22.503,265.022 23.973 C 264.767 24.951,264.101 27.550,263.542 29.750 L 262.526 33.750 264.046 41.887 C 266.074 52.744,271.132 63.511,283.864 84.078 C 316.198 136.308,326.510 161.101,330.002 195.000 L 331.006 204.750 329.991 214.074 C 329.163 221.679,328.569 224.789,326.767 230.941 C 324.268 239.476,324.696 238.543,320.850 243.847 L 317.950 247.847 313.840 248.486 L 309.731 249.125 304.741 246.601 C 294.303 241.322,279.752 223.994,264.734 198.960 C 250.790 175.717,241.025 161.538,232.568 152.253 L 225.250 144.219 218.241 140.484 L 211.232 136.750 204.910 137.500 L 198.589 138.250 192.737 143.500 L 186.886 148.750 181.877 158.750 C 177.055 168.375,176.543 169.733,168.207 195.000 C 152.482 242.659,142.275 262.761,130.110 270.027 L 125.969 272.500 121.171 272.500 L 116.372 272.500 112.905 269.929 C 107.225 265.719,103.883 258.498,101.948 246.254 C 98.027 221.440,101.518 166.490,110.676 108.868 C 112.676 96.284,114.153 86.159,113.958 86.368 C 111.898 88.581,96.160 113.722,90.245 124.250 C 60.922 176.441,44.422 221.571,40.506 260.293 L 39.490 270.336 40.490 279.656 C 43.523 307.938,52.826 326.852,73.195 346.147 C 95.456 367.234,115.318 376.160,136.750 374.708 L 144.750 374.166 151.762 371.208 C 187.521 356.124,225.718 287.772,228.158 234.500 C 228.282 231.813,228.324 232.029,228.404 235.750 C 228.914 259.467,242.199 291.135,262.384 316.750 C 293.391 356.095,326.549 380.648,348.500 380.516 C 384.686 380.298,398.981 325.574,398.985 187.250 L 398.986 158.250 396.524 136.750 L 394.063 115.250 389.831 99.000 L 385.599 82.750 379.668 69.750 L 373.738 56.750 365.744 46.478 L 357.750 36.205 347.754 29.228 L 337.758 22.250 326.254 18.592 L 314.750 14.934 303.000 13.840 L 291.250 12.747 283.176 13.998 " stroke="none" fill="#000000" fill-rule="evenodd"></path></g></svg>