<svg id="svg" xmlns="http://www.w3.org/2000/svg" xmlns:xlink="http://www.w3.org/1999/xlink" width="400" height="400" viewBox="0, 0, 400,400"><g id="svgg"><path id="path0" d="M29.846 30.625 C 86.425 90.253,109.418 122.965,119.553 158.250 L 123.000 170.249 123.000 180.499 L 123.000 190.749 120.186 199.250 L 117.371 207.750 111.205 216.000 C 105.398 223.769,104.623 224.585,97.926 230.000 C 66.152 255.688,38.565 287.412,25.750 312.999 C 11.719 341.015,8.919 361.505,18.395 366.811 L 21.541 368.572 26.115 368.214 C 40.121 367.118,57.082 358.063,100.500 328.499 C 156.974 290.046,195.395 275.241,229.617 278.745 C 258.657 281.719,309.038 312.422,354.027 354.561 C 372.739 372.088,378.315 375.408,383.721 372.241 C 389.171 369.047,390.003 359.230,386.667 337.500 C 379.135 288.443,356.904 242.159,326.508 212.250 C 301.473 187.616,301.059 158.449,325.366 132.000 C 355.463 99.252,357.338 76.909,332.426 47.884 C 302.764 13.324,272.864 26.529,241.031 88.250 C 228.504 112.539,214.840 129.570,206.565 131.207 C 199.498 132.605,199.346 132.602,195.001 131.000 C 186.506 127.868,179.428 118.977,172.114 102.250 C 150.204 52.142,105.043 29.000,29.171 29.000 C 28.486 29.000,28.628 29.342,29.846 30.625 " stroke="none" fill="#000000" fill-rule="evenodd"></path></g></svg>