<svg id="svg" xmlns="http://www.w3.org/2000/svg" xmlns:xlink="http://www.w3.org/1999/xlink" width="400" height="400" viewBox="0, 0, 400,400"><g id="svgg"><path id="path0" d="M171.011 0.068 C 171.005 0.243,169.989 7.777,168.753 16.810 C 157.857 96.459,162.764 140.555,184.770 160.756 C 193.705 168.958,199.897 170.904,221.500 172.305 C 264.545 175.095,281.751 208.632,269.237 265.347 C 257.288 319.496,230.313 337.869,178.250 327.318 C 158.673 323.350,147.309 324.803,150.448 330.872 C 154.479 338.666,187.213 360.124,205.596 367.024 C 255.439 385.730,301.379 359.336,338.790 290.500 C 356.512 257.891,366.684 222.919,369.839 183.750 C 371.201 166.837,371.217 23.942,369.857 19.014 C 366.686 7.525,357.797 1.014,344.500 0.440 C 325.593 -0.376,309.063 24.502,291.303 80.500 C 278.891 119.634,276.027 125.645,267.384 130.696 L 263.268 133.102 258.509 132.762 L 253.750 132.422 248.355 128.880 C 229.623 116.579,207.063 80.421,179.176 18.000 C 174.692 7.962,171.018 -0.107,171.011 0.068 " stroke="none" fill="#000000" fill-rule="evenodd"></path></g></svg>