<svg id="svg" xmlns="http://www.w3.org/2000/svg" xmlns:xlink="http://www.w3.org/1999/xlink" width="400" height="400" viewBox="0, 0, 400,400"><g id="svgg"><path id="path0" d="M57.320 29.614 C 57.536 29.964,61.018 34.750,65.056 40.250 C 100.338 88.296,138.258 112.433,181.250 114.210 C 192.735 114.684,202.702 116.811,206.250 119.544 C 211.791 123.813,211.440 123.266,212.012 128.520 L 212.532 133.290 209.619 139.770 C 201.825 157.106,182.498 178.535,139.750 217.235 C 98.349 254.716,78.335 279.824,70.005 304.734 L 67.000 313.719 67.002 321.734 L 67.004 329.750 69.698 336.868 L 72.391 343.985 78.071 350.063 C 93.548 366.625,129.344 384.751,161.250 392.182 C 187.630 398.326,201.805 399.762,231.960 399.344 L 253.750 399.042 264.250 397.091 C 304.855 389.544,334.424 372.130,356.640 342.680 C 382.121 308.902,384.414 276.233,363.103 250.590 C 341.184 224.215,317.561 218.349,289.750 232.378 C 278.873 237.865,271.657 243.350,256.912 257.339 C 232.139 280.843,220.007 291.207,207.750 299.336 C 190.316 310.899,181.071 314.350,168.816 313.869 C 151.368 313.183,142.345 303.640,143.145 286.716 L 143.433 280.617 146.271 274.933 C 156.354 254.745,191.771 220.953,243.750 181.928 C 318.930 125.483,356.675 90.707,368.087 67.371 L 370.520 62.397 370.533 55.689 C 370.561 42.053,366.276 35.507,354.126 30.629 L 350.750 29.273 203.839 29.126 C 85.103 29.007,57.003 29.101,57.320 29.614 " stroke="none" fill="#000000" fill-rule="evenodd"></path></g></svg>