<?xml version="1.0" standalone="no"?>
<!DOCTYPE svg PUBLIC "-//W3C//DTD SVG 20010904//EN"
 "http://www.w3.org/TR/2001/REC-SVG-20010904/DTD/svg10.dtd">
<svg version="1.0" xmlns="http://www.w3.org/2000/svg"
 width="800.000000pt" height="800.000000pt" viewBox="0 0 800.000000 800.000000"
 preserveAspectRatio="xMidYMid meet">
<metadata>
Created by potrace 1.16, written by Peter Selinger 2001-2019
</metadata>
<g transform="translate(0.000000,800.000000) scale(0.100000,-0.100000)"
fill="#000000" stroke="none">
<path d="M4535 6990 c-394 -22 -762 -83 -1190 -200 -101 -27 -261 -78 -300
-95 -16 -7 -45 -16 -62 -20 -18 -3 -35 -11 -38 -16 -4 -5 -14 -9 -23 -9 -9 0
-30 -7 -46 -15 -15 -8 -33 -15 -38 -15 -6 0 -25 -7 -44 -15 -82 -36 -102 -45
-154 -65 -120 -47 -275 -120 -560 -265 -30 -15 -67 -36 -82 -46 -14 -11 -31
-19 -37 -19 -5 0 -53 -27 -105 -60 -53 -33 -99 -60 -103 -60 -4 0 -39 -19 -77
-42 l-71 -43 85 -8 c238 -22 407 -65 565 -142 117 -58 138 -71 244 -155 111
-88 230 -227 328 -386 19 -31 113 -222 113 -231 1 -4 9 -26 20 -48 11 -22 19
-47 20 -56 0 -8 4 -19 9 -25 22 -24 99 -326 130 -511 50 -302 60 -437 71 -918
14 -618 40 -864 127 -1225 28 -119 93 -318 129 -400 52 -116 131 -265 150
-281 8 -6 14 -15 14 -20 0 -9 44 -69 108 -147 50 -61 194 -186 272 -237 156
-100 330 -163 545 -196 121 -18 410 -16 525 5 227 41 437 140 598 281 51 45
231 252 240 275 3 8 13 26 22 40 41 59 125 220 162 310 6 14 14 32 19 42 22
45 102 300 134 428 112 456 159 925 159 1595 0 670 -47 1139 -159 1595 -32
128 -112 383 -134 428 -5 10 -13 28 -19 42 -38 93 -123 255 -163 312 -11 14
-19 29 -19 33 0 11 -99 131 -177 215 -120 130 -263 222 -455 296 -177 67 -415
92 -733 74z"/>
</g>
</svg>
