<?xml version="1.0" standalone="no"?>
<!DOCTYPE svg PUBLIC "-//W3C//DTD SVG 20010904//EN"
 "http://www.w3.org/TR/2001/REC-SVG-20010904/DTD/svg10.dtd">
<svg version="1.0" xmlns="http://www.w3.org/2000/svg"
 width="800.000000pt" height="800.000000pt" viewBox="0 0 800.000000 800.000000"
 preserveAspectRatio="xMidYMid meet">
<metadata>
Created by potrace 1.16, written by Peter Selinger 2001-2019
</metadata>
<g transform="translate(0.000000,800.000000) scale(0.100000,-0.100000)"
fill="#000000" stroke="none">
<path d="M3706 6989 c-192 -9 -508 -42 -566 -59 -19 -5 -48 -10 -63 -10 -36 0
-414 -94 -484 -120 -29 -11 -79 -30 -110 -42 -82 -30 -290 -132 -343 -168 -25
-16 -48 -30 -52 -30 -16 0 -167 -123 -254 -207 -138 -134 -203 -220 -290 -388
-89 -170 -141 -316 -164 -455 -7 -41 -16 -88 -21 -105 -13 -47 -29 -241 -27
-335 1 -47 3 -65 5 -40 4 60 22 159 33 179 5 9 16 36 25 61 36 97 194 264 316
334 135 78 410 196 456 196 10 0 47 9 82 20 128 40 419 95 616 116 22 3 101
11 175 19 490 54 1171 56 1545 4 221 -30 278 -44 465 -118 128 -51 235 -156
259 -253 43 -180 -39 -383 -268 -659 -78 -94 -334 -353 -410 -414 -36 -29
-100 -83 -142 -121 -99 -89 -201 -173 -266 -221 -29 -21 -90 -67 -135 -102
-128 -99 -313 -241 -388 -296 -165 -121 -206 -152 -244 -186 -23 -19 -57 -46
-76 -59 -19 -13 -51 -38 -70 -55 -19 -18 -75 -62 -125 -99 -49 -37 -133 -102
-185 -145 -52 -44 -124 -103 -160 -133 -36 -30 -110 -88 -165 -130 -55 -42
-116 -93 -135 -113 -19 -20 -51 -47 -70 -60 -19 -12 -74 -58 -121 -101 -48
-44 -117 -105 -155 -138 -126 -107 -534 -508 -595 -585 -34 -42 -72 -89 -85
-106 -69 -86 -109 -147 -142 -215 -32 -65 -37 -85 -37 -147 0 -63 3 -76 30
-114 35 -50 84 -86 175 -130 91 -43 96 -45 180 -69 41 -11 89 -25 105 -30 45
-14 288 -57 395 -70 52 -6 127 -16 165 -21 305 -40 859 -61 1610 -61 751 0
1305 21 1610 61 39 5 113 15 165 21 107 13 350 56 395 70 17 5 64 19 105 30
84 24 89 26 180 69 145 69 201 132 208 230 3 48 0 70 -19 108 -27 57 -100 129
-161 160 -70 36 -156 73 -167 73 -6 0 -19 4 -29 10 -22 13 -201 57 -305 75
-292 51 -602 74 -1147 85 -419 9 -527 16 -665 44 -128 27 -155 36 -248 82
-106 54 -174 118 -215 203 -34 71 -42 213 -18 306 30 115 41 152 52 166 6 8
18 33 27 57 10 23 27 59 40 80 13 20 26 45 30 54 8 21 140 220 178 268 16 19
67 85 115 145 124 157 247 288 673 725 207 212 419 430 471 485 52 55 124 132
160 170 171 180 240 256 304 333 38 45 72 82 77 82 4 0 29 28 56 61 26 34 82
101 123 149 153 179 424 531 470 610 12 19 39 64 61 100 119 194 166 368 123
451 -20 40 -83 109 -99 109 -6 0 -20 9 -30 20 -10 11 -22 20 -27 20 -4 0 -38
14 -74 31 -64 30 -87 38 -244 80 -172 46 -513 96 -805 119 -446 35 -1324 56
-1659 39z"/>
</g>
</svg>
