<?xml version="1.0" standalone="no"?>
<!DOCTYPE svg PUBLIC "-//W3C//DTD SVG 20010904//EN"
 "http://www.w3.org/TR/2001/REC-SVG-20010904/DTD/svg10.dtd">
<svg version="1.0" xmlns="http://www.w3.org/2000/svg"
 width="800.000000pt" height="800.000000pt" viewBox="0 0 800.000000 800.000000"
 preserveAspectRatio="xMidYMid meet">
<metadata>
Created by potrace 1.16, written by Peter Selinger 2001-2019
</metadata>
<g transform="translate(0.000000,800.000000) scale(0.100000,-0.100000)"
fill="#000000" stroke="none">
<path d="M990 6993 c0 -5 5 -48 10 -98 18 -151 66 -288 145 -410 63 -98 78
-115 185 -224 96 -96 105 -104 240 -194 161 -108 186 -123 328 -192 203 -99
229 -111 324 -144 48 -17 104 -39 125 -49 45 -24 425 -142 454 -142 11 0 98
-22 194 -50 96 -27 180 -50 187 -50 16 1 282 -84 363 -115 137 -54 225 -94
268 -124 25 -17 50 -31 55 -31 5 0 32 -25 60 -55 83 -90 81 -163 -5 -246 -48
-46 -170 -129 -190 -129 -6 0 -48 -18 -94 -39 -46 -22 -97 -43 -114 -46 -16
-4 -86 -27 -154 -51 -68 -24 -132 -44 -142 -44 -10 0 -95 -22 -190 -50 -95
-27 -182 -50 -194 -50 -30 0 -503 -148 -545 -171 -19 -10 -69 -30 -110 -45
-119 -41 -356 -156 -485 -234 -44 -27 -93 -56 -109 -66 -30 -17 -98 -68 -170
-127 -53 -44 -184 -176 -221 -223 -113 -145 -187 -329 -206 -507 -17 -165 19
-310 107 -434 45 -63 141 -163 157 -163 4 0 15 -8 25 -18 21 -21 76 -54 177
-108 82 -43 329 -144 353 -144 9 0 51 -11 92 -24 41 -13 102 -29 135 -36 33
-6 78 -16 100 -22 117 -30 530 -85 810 -108 704 -56 1621 -48 2300 20 137 14
331 38 385 49 25 5 70 14 100 20 30 6 87 17 125 25 219 44 379 92 564 173 163
71 273 141 383 245 28 26 96 126 121 176 79 163 68 446 -25 622 -55 105 -70
125 -145 197 -103 100 -325 234 -438 263 -16 5 -57 18 -90 29 -93 33 -111 38
-250 65 -299 59 -495 75 -1045 86 -471 9 -651 20 -782 45 -122 24 -176 53
-162 88 15 41 191 126 379 184 28 8 75 23 105 33 30 10 91 28 135 39 44 12
116 33 161 47 44 13 89 24 101 24 58 0 926 271 980 306 12 7 55 27 95 43 85
34 286 136 309 157 8 8 20 14 26 14 6 0 41 20 78 45 356 239 548 486 605 778
7 32 12 104 13 160 2 85 -2 112 -21 164 -25 64 -88 139 -167 199 -78 58 -223
137 -310 168 -22 7 -90 32 -152 54 -61 22 -174 54 -250 72 -76 17 -164 40
-196 51 -32 10 -90 24 -130 30 -39 6 -173 29 -297 50 -124 22 -238 39 -255 39
-16 0 -91 9 -165 20 -131 19 -206 28 -432 50 -60 5 -154 15 -210 20 -473 48
-1592 96 -2583 110 -875 12 -825 12 -825 3z"/>
</g>
</svg>
