<?xml version="1.0" standalone="no"?>
<!DOCTYPE svg PUBLIC "-//W3C//DTD SVG 20010904//EN"
 "http://www.w3.org/TR/2001/REC-SVG-20010904/DTD/svg10.dtd">
<svg version="1.0" xmlns="http://www.w3.org/2000/svg"
 width="800.000000pt" height="800.000000pt" viewBox="0 0 800.000000 800.000000"
 preserveAspectRatio="xMidYMid meet">
<metadata>
Created by potrace 1.16, written by Peter Selinger 2001-2019
</metadata>
<g transform="translate(0.000000,800.000000) scale(0.100000,-0.100000)"
fill="#000000" stroke="none">
<path d="M1440 6991 c-290 -58 -439 -537 -442 -1416 -1 -232 1 -271 20 -359
32 -146 88 -314 115 -345 8 -9 24 -35 36 -58 36 -73 79 -130 164 -216 79 -81
222 -197 269 -217 13 -6 45 -24 72 -41 28 -17 68 -38 90 -46 23 -9 48 -22 56
-28 20 -17 300 -115 326 -115 12 0 41 -7 65 -16 24 -8 69 -20 99 -26 30 -5 75
-14 100 -19 270 -54 553 -78 1055 -89 474 -11 592 -18 855 -55 167 -23 244
-37 435 -80 145 -32 448 -152 580 -230 22 -13 56 -33 76 -44 91 -51 244 -191
335 -307 62 -80 154 -255 176 -334 50 -186 58 -251 68 -585 5 -181 16 -397 25
-480 60 -569 201 -850 441 -881 59 -7 99 9 134 53 28 36 70 128 90 198 22 75
52 194 60 240 159 823 231 2198 255 4848 5 540 4 657 -7 657 -58 0 -257 -23
-318 -36 -82 -18 -220 -67 -260 -93 -14 -9 -38 -23 -53 -31 -33 -16 -187 -159
-187 -172 0 -5 -11 -24 -24 -41 -51 -68 -112 -226 -136 -353 -6 -32 -15 -140
-20 -239 -10 -188 -28 -288 -71 -381 -31 -69 -145 -219 -191 -250 -21 -15 -38
-30 -38 -35 0 -10 -175 -119 -191 -119 -6 0 -27 -9 -46 -21 -34 -21 -114 -54
-168 -69 -16 -5 -70 -20 -119 -35 -401 -120 -1205 -161 -1836 -94 -103 10
-441 72 -490 88 -14 5 -45 14 -70 21 -133 36 -259 94 -390 178 -183 117 -279
237 -339 422 -28 88 -41 184 -41 315 0 61 -5 160 -10 220 -41 443 -179 675
-427 715 -64 11 -72 11 -123 1z"/>
</g>
</svg>
