<?xml version="1.0" standalone="no"?>
<!DOCTYPE svg PUBLIC "-//W3C//DTD SVG 20010904//EN"
 "http://www.w3.org/TR/2001/REC-SVG-20010904/DTD/svg10.dtd">
<svg version="1.0" xmlns="http://www.w3.org/2000/svg"
 width="800.000000pt" height="800.000000pt" viewBox="0 0 800.000000 800.000000"
 preserveAspectRatio="xMidYMid meet">
<metadata>
Created by potrace 1.16, written by Peter Selinger 2001-2019
</metadata>
<g transform="translate(0.000000,800.000000) scale(0.100000,-0.100000)"
fill="#000000" stroke="none">
<path d="M990 6983 c1 -41 22 -160 36 -202 37 -113 77 -175 179 -276 87 -88
127 -118 240 -180 11 -6 29 -16 40 -23 41 -23 134 -62 147 -62 8 0 18 -4 24
-8 8 -8 71 -28 234 -77 96 -29 213 -51 525 -100 155 -24 535 -47 935 -55 509
-11 716 -27 880 -69 118 -31 195 -57 245 -84 11 -6 37 -19 57 -29 57 -28 155
-129 178 -184 31 -71 36 -156 15 -250 -9 -43 -21 -83 -26 -88 -5 -6 -9 -15 -9
-21 0 -23 -108 -204 -175 -294 -112 -148 -279 -331 -450 -490 -49 -46 -122
-114 -160 -150 -66 -61 -223 -193 -299 -251 -18 -14 -65 -52 -104 -85 -39 -33
-108 -89 -153 -125 -44 -36 -100 -81 -124 -100 -24 -19 -82 -66 -129 -105
-153 -124 -412 -340 -552 -462 -75 -65 -155 -133 -177 -150 -22 -18 -45 -39
-51 -47 -6 -8 -38 -37 -71 -63 -62 -50 -86 -72 -289 -258 -141 -129 -497 -484
-576 -574 -97 -111 -108 -125 -182 -221 -92 -119 -129 -177 -169 -265 -29 -63
-33 -79 -32 -160 1 -105 14 -167 50 -244 49 -103 154 -183 279 -212 71 -16
231 -16 279 0 105 37 205 92 385 213 159 107 160 108 203 145 20 18 40 33 45
33 4 0 23 15 43 33 20 17 89 75 154 127 65 52 159 131 209 176 50 44 123 107
161 139 39 32 84 73 100 89 17 17 62 58 100 90 39 32 129 114 200 181 72 67
240 226 375 352 239 224 1175 1153 1575 1563 110 113 281 293 380 400 99 107
216 233 260 280 44 48 107 117 140 155 33 38 83 94 112 124 65 70 315 362 408
477 59 74 101 127 209 269 64 84 131 181 193 280 93 147 155 322 134 376 -22
59 -100 106 -257 158 -209 69 -508 120 -979 166 -835 83 -1909 126 -3615 145
-1221 13 -1150 14 -1150 -7z"/>
</g>
</svg>
