<?xml version="1.0" standalone="no"?>
<!DOCTYPE svg PUBLIC "-//W3C//DTD SVG 20010904//EN"
 "http://www.w3.org/TR/2001/REC-SVG-20010904/DTD/svg10.dtd">
<svg version="1.0" xmlns="http://www.w3.org/2000/svg"
 width="800.000000pt" height="800.000000pt" viewBox="0 0 800.000000 800.000000"
 preserveAspectRatio="xMidYMid meet">
<metadata>
Created by potrace 1.16, written by Peter Selinger 2001-2019
</metadata>
<g transform="translate(0.000000,800.000000) scale(0.100000,-0.100000)"
fill="#000000" stroke="none">
<path d="M3900 6214 c-115 -22 -262 -93 -369 -177 -70 -55 -271 -255 -271
-270 0 -5 -20 -32 -44 -60 -24 -29 -56 -72 -71 -97 -16 -25 -41 -61 -57 -80
-15 -19 -28 -39 -28 -44 0 -6 -22 -44 -49 -85 -28 -42 -65 -105 -85 -141 -55
-104 -266 -530 -266 -539 0 -5 -20 -52 -45 -105 -25 -54 -45 -103 -45 -109 0
-7 -14 -41 -31 -77 -33 -70 -75 -176 -89 -225 -5 -16 -18 -55 -30 -85 -46
-118 -52 -138 -75 -220 -12 -47 -29 -101 -37 -120 -9 -19 -23 -69 -32 -110 -9
-41 -24 -102 -32 -135 -27 -111 -62 -359 -69 -485 -11 -221 30 -442 114 -608
17 -34 40 -71 51 -82 11 -11 20 -23 20 -28 0 -4 18 -26 40 -50 22 -24 40 -47
40 -51 0 -8 -70 -156 -90 -191 -4 -8 -36 -69 -70 -135 -34 -66 -79 -149 -101
-185 -21 -36 -50 -85 -64 -110 -25 -43 -56 -93 -120 -194 -111 -175 -289 -384
-424 -499 -45 -39 -94 -62 -310 -149 -141 -56 -248 -104 -239 -106 34 -7 186
29 259 61 41 17 99 48 128 67 30 19 75 47 100 61 32 19 3648 1477 3902 1574
13 5 23 -15 54 -102 21 -59 43 -115 50 -123 6 -8 35 -76 64 -150 30 -74 80
-194 112 -267 33 -72 59 -137 59 -143 0 -14 107 -230 198 -400 19 -36 43 -77
53 -92 11 -14 19 -30 19 -34 0 -4 10 -24 23 -43 13 -20 37 -56 53 -81 212
-329 430 -428 490 -222 41 140 -12 503 -137 940 -5 17 -13 47 -18 65 -5 17
-13 46 -19 62 -5 17 -20 64 -32 105 -13 41 -38 118 -56 171 -19 52 -34 102
-34 110 0 20 -71 230 -86 254 -7 11 -27 67 -44 125 -18 58 -36 110 -41 116 -5
6 -18 42 -29 80 -12 38 -27 83 -35 99 -7 17 -25 64 -40 105 -15 41 -33 89 -40
105 -7 17 -22 56 -34 88 -36 102 -62 170 -93 247 -16 41 -36 92 -44 113 -8 20
-21 56 -30 80 -9 23 -23 60 -31 82 -8 22 -26 66 -39 98 -44 106 -72 172 -98
233 -14 34 -26 65 -26 70 0 9 -34 92 -100 244 -18 41 -43 102 -55 135 -42 114
-186 426 -281 610 -101 194 -124 236 -164 295 -22 33 -44 70 -49 83 -5 13 -20
36 -34 53 -13 16 -37 49 -52 74 -15 25 -47 68 -71 97 -24 28 -44 55 -44 60 0
15 -201 215 -271 270 -79 63 -191 124 -279 153 -64 21 -224 35 -280 24z m190
-1098 c25 -7 61 -23 80 -35 19 -11 44 -25 55 -30 54 -24 231 -224 290 -328 9
-15 31 -53 50 -83 19 -30 46 -77 60 -105 14 -27 29 -57 34 -65 17 -26 91 -185
91 -195 0 -4 6 -16 14 -24 7 -9 21 -41 31 -71 10 -30 24 -64 30 -75 7 -11 21
-45 30 -75 10 -30 24 -64 31 -75 7 -11 20 -47 29 -80 10 -33 21 -65 26 -71 5
-7 20 -47 34 -90 40 -130 66 -208 77 -228 6 -11 21 -58 34 -105 14 -47 31 -99
39 -116 8 -16 24 -64 36 -105 12 -41 25 -80 30 -85 4 -6 22 -55 39 -110 17
-55 37 -111 44 -125 7 -14 28 -70 46 -125 18 -55 37 -105 41 -111 5 -6 20 -43
34 -83 27 -80 26 -81 -45 -96 -19 -4 -80 -24 -135 -45 -55 -22 -113 -42 -130
-45 -16 -4 -52 -15 -80 -25 -73 -26 -278 -90 -290 -90 -5 0 -41 -9 -80 -21
-38 -12 -97 -29 -130 -39 -114 -35 -478 -112 -640 -136 -521 -78 -944 -52
-1200 73 -62 30 -135 73 -159 93 -56 48 -56 47 -44 82 6 18 16 40 23 48 6 8
22 44 35 80 13 36 29 72 35 80 7 8 22 45 34 82 13 37 26 70 31 73 5 3 18 36
30 73 12 37 28 76 35 87 6 11 22 52 35 90 12 39 28 79 35 90 7 11 20 47 30 80
9 33 22 69 28 80 13 23 64 168 107 304 16 52 34 99 38 105 5 6 19 49 32 96 13
47 29 96 37 110 7 14 22 52 32 85 33 101 91 258 100 269 5 6 14 29 21 51 12
40 31 82 108 245 23 47 46 97 52 110 6 14 26 50 45 80 19 30 48 80 65 110 29
52 40 69 115 166 38 51 146 155 195 189 100 69 226 93 330 61z"/>
</g>
</svg>
