<?xml version="1.0" standalone="no"?>
<!DOCTYPE svg PUBLIC "-//W3C//DTD SVG 20010904//EN"
 "http://www.w3.org/TR/2001/REC-SVG-20010904/DTD/svg10.dtd">
<svg version="1.0" xmlns="http://www.w3.org/2000/svg"
 width="800.000000pt" height="800.000000pt" viewBox="0 0 800.000000 800.000000"
 preserveAspectRatio="xMidYMid meet">
<metadata>
Created by potrace 1.16, written by Peter Selinger 2001-2019
</metadata>
<g transform="translate(0.000000,800.000000) scale(0.100000,-0.100000)"
fill="#000000" stroke="none">
<path d="M6675 6993 c-583 -10 -1194 -52 -1675 -113 -263 -34 -954 -166 -1003
-192 -10 -5 -73 -23 -140 -39 -67 -16 -138 -36 -157 -44 -19 -8 -57 -20 -85
-26 -27 -7 -59 -18 -70 -24 -11 -7 -33 -16 -50 -19 -30 -7 -110 -36 -172 -63
-18 -7 -48 -20 -68 -29 -192 -82 -237 -103 -317 -148 -26 -14 -68 -38 -93 -51
-26 -14 -63 -36 -83 -50 -20 -14 -41 -25 -47 -25 -5 0 -37 -20 -70 -45 -33
-25 -63 -45 -68 -45 -16 0 -213 -165 -315 -264 -144 -140 -287 -334 -415 -563
-242 -437 -350 -825 -350 -1258 0 -433 109 -823 350 -1257 55 -99 179 -296
219 -348 19 -25 42 -56 52 -70 32 -48 137 -172 232 -276 90 -98 315 -307 370
-342 14 -9 46 -33 72 -53 96 -75 291 -198 368 -233 19 -9 42 -20 50 -26 8 -6
31 -17 50 -26 19 -8 76 -35 125 -58 50 -24 122 -54 160 -66 39 -13 99 -34 135
-47 117 -41 305 -87 500 -122 296 -53 472 -65 905 -64 1022 2 1617 104 1827
314 117 117 112 251 -18 424 -55 73 -151 176 -219 234 -60 52 -137 114 -165
134 -14 9 -45 33 -70 52 -25 19 -58 42 -75 51 -16 9 -37 23 -45 31 -19 18
-210 143 -218 143 -3 0 -22 11 -41 24 -20 13 -67 42 -106 65 -38 23 -77 45
-85 50 -138 82 -291 167 -440 241 -47 24 -107 57 -135 74 -27 17 -70 41 -95
53 -196 92 -432 215 -503 260 -37 24 -71 43 -76 43 -4 0 -28 16 -52 35 -24 19
-48 35 -52 35 -5 0 -23 11 -41 25 -18 14 -36 25 -41 25 -4 0 -26 15 -48 33
-23 17 -49 37 -58 42 -35 21 -137 101 -209 164 -203 179 -338 324 -426 458
-21 32 -43 61 -49 65 -15 10 -86 152 -130 258 -43 104 -54 135 -74 225 -71
310 -46 655 70 959 11 27 19 53 19 59 0 10 91 222 113 264 101 189 199 323
324 442 226 215 464 314 789 328 220 10 459 -32 759 -133 22 -7 74 -23 115
-34 41 -12 86 -26 100 -31 107 -38 444 -89 588 -89 192 0 382 49 462 119 56
49 66 59 85 82 73 86 111 205 130 402 l7 67 -99 -2 c-54 -1 -156 -3 -228 -5z"/>
</g>
</svg>
