<?xml version="1.0" standalone="no"?>
<!DOCTYPE svg PUBLIC "-//W3C//DTD SVG 20010904//EN"
 "http://www.w3.org/TR/2001/REC-SVG-20010904/DTD/svg10.dtd">
<svg version="1.0" xmlns="http://www.w3.org/2000/svg"
 width="800.000000pt" height="800.000000pt" viewBox="0 0 800.000000 800.000000"
 preserveAspectRatio="xMidYMid meet">
<metadata>
Created by potrace 1.16, written by Peter Selinger 2001-2019
</metadata>
<g transform="translate(0.000000,800.000000) scale(0.100000,-0.100000)"
fill="#000000" stroke="none">
<path d="M2525 6534 c-106 -9 -217 -29 -293 -55 -99 -33 -256 -116 -327 -171
-73 -57 -203 -186 -237 -235 -16 -24 -33 -43 -38 -43 -5 0 -17 -13 -27 -30
-10 -18 -23 -28 -33 -26 -8 3 -29 7 -46 11 l-31 6 -13 -93 c-7 -51 -14 -99
-17 -108 -8 -26 40 35 82 104 47 78 40 77 210 42 137 -28 265 -53 345 -67 98
-18 331 -69 501 -109 91 -22 174 -40 185 -40 10 0 107 -25 214 -55 107 -30
204 -55 214 -55 71 0 954 -302 1086 -371 30 -16 111 -56 180 -89 132 -64 266
-136 291 -158 7 -7 33 -25 56 -40 121 -79 348 -290 408 -379 14 -21 41 -60 60
-86 66 -89 127 -204 168 -317 30 -85 35 -265 9 -352 -45 -151 -162 -297 -347
-432 -49 -36 -108 -79 -131 -96 -23 -16 -44 -30 -48 -30 -4 0 -40 -22 -81 -50
-41 -27 -78 -50 -83 -50 -6 0 -52 -25 -103 -56 -131 -77 -475 -247 -654 -323
-82 -34 -172 -74 -200 -88 -27 -14 -102 -45 -165 -70 -63 -24 -124 -50 -135
-57 -11 -7 -56 -25 -100 -41 -44 -15 -97 -37 -118 -47 -21 -10 -72 -32 -115
-47 -42 -16 -120 -46 -172 -66 -52 -20 -129 -50 -170 -65 -41 -16 -115 -44
-165 -63 -49 -19 -151 -58 -225 -86 -74 -29 -191 -78 -260 -110 -69 -32 -136
-64 -150 -69 -85 -37 -220 -120 -257 -159 -77 -81 -10 -120 222 -130 146 -6
503 15 735 42 69 9 166 20 215 26 330 38 622 88 940 160 22 5 63 13 90 19 28
5 82 19 120 30 39 11 90 25 115 31 25 6 77 22 117 35 39 13 78 24 86 24 8 0
76 23 150 50 75 28 162 58 194 66 31 8 71 23 87 34 17 10 87 41 156 68 153 61
400 186 520 262 30 19 72 44 93 55 70 38 311 211 431 309 43 36 322 312 360
358 8 9 23 29 32 45 10 15 23 33 29 38 33 29 120 189 163 300 47 120 57 183
57 360 0 177 -10 240 -57 360 -43 111 -130 271 -163 300 -6 6 -19 23 -29 38
-9 16 -24 36 -32 45 -37 44 -318 323 -369 367 -117 100 -449 339 -570 410
-258 152 -478 269 -670 354 -38 17 -83 39 -100 47 -16 9 -66 29 -110 46 -43
16 -84 33 -90 38 -6 5 -71 31 -145 59 -74 27 -166 61 -205 76 -98 38 -554 185
-574 185 -9 0 -81 20 -161 43 -80 24 -167 48 -195 54 -27 6 -81 18 -120 28
-259 65 -305 74 -425 85 -58 5 -109 9 -115 8 -5 -1 -28 -3 -50 -4z"/>
<path d="M1428 5717 c-51 -104 -156 -333 -168 -367 -20 -61 -42 -123 -65 -185
-12 -33 -30 -87 -40 -120 -10 -33 -23 -80 -31 -105 -37 -122 -43 -148 -49
-185 -4 -22 -13 -60 -20 -85 -23 -76 -44 -169 -70 -317 -14 -79 -29 -153 -34
-165 -18 -48 -112 -744 -132 -983 -5 -55 -13 -152 -19 -215 -42 -484 -84
-1489 -78 -1848 l3 -154 368 2387 c203 1313 367 2389 365 2391 -2 2 -16 -20
-30 -49z"/>
</g>
</svg>
