<?xml version="1.0" standalone="no"?>
<!DOCTYPE svg PUBLIC "-//W3C//DTD SVG 20010904//EN"
 "http://www.w3.org/TR/2001/REC-SVG-20010904/DTD/svg10.dtd">
<svg version="1.0" xmlns="http://www.w3.org/2000/svg"
 width="800.000000pt" height="800.000000pt" viewBox="0 0 800.000000 800.000000"
 preserveAspectRatio="xMidYMid meet">
<metadata>
Created by potrace 1.16, written by Peter Selinger 2001-2019
</metadata>
<g transform="translate(0.000000,800.000000) scale(0.100000,-0.100000)"
fill="#000000" stroke="none">
<path d="M3845 7100 c-109 -8 -298 -41 -385 -67 -89 -26 -310 -114 -379 -151
-66 -34 -198 -123 -286 -191 -116 -89 -375 -379 -470 -526 -21 -33 -46 -71
-55 -85 -57 -85 -122 -203 -181 -325 -77 -163 -179 -398 -179 -416 0 -6 -15
-50 -34 -98 -18 -47 -48 -133 -65 -191 -18 -58 -43 -136 -56 -175 -48 -146
-199 -837 -230 -1055 -9 -63 -23 -153 -30 -200 -8 -47 -19 -134 -25 -193 -6
-60 -15 -131 -20 -159 -14 -72 -70 -702 -80 -908 -28 -530 -40 -859 -40 -1147
l0 -323 263 0 c144 0 600 5 1013 10 1620 21 2601 69 3314 165 98 13 133 19
278 46 248 47 401 106 447 172 37 53 4 148 -74 208 -48 37 -141 84 -188 95
-16 4 -32 10 -38 14 -12 9 -66 23 -245 61 -210 45 -355 62 -750 89 -205 14
-487 23 -925 30 -804 12 -1055 31 -1450 110 -106 21 -143 30 -184 44 -24 9
-52 16 -63 16 -22 0 -253 90 -304 118 -17 9 -51 28 -75 41 -24 13 -52 31 -61
40 -10 9 -29 25 -44 36 -15 11 -53 47 -85 80 -111 114 -166 275 -155 445 15
212 87 363 242 502 62 56 264 172 329 189 29 7 65 19 135 45 52 19 211 52 330
69 195 27 344 35 780 45 598 13 878 42 1144 120 241 70 366 178 366 316 -1
190 -231 320 -688 389 -216 32 -423 46 -850 55 -243 5 -493 14 -555 20 -124
12 -271 29 -302 35 -177 38 -263 61 -325 85 -25 9 -59 22 -77 28 -69 22 -250
134 -313 195 -81 77 -109 114 -147 197 -39 85 -49 118 -64 215 -51 351 133
602 573 776 123 49 261 88 428 120 30 6 75 15 100 20 288 56 624 78 1345 89
743 11 1026 26 1379 71 167 21 413 69 481 94 22 8 46 14 54 15 26 0 166 72
209 107 74 60 103 154 67 222 -32 62 -141 132 -280 179 -265 89 -769 153
-1430 181 -311 14 -971 21 -1090 11z"/>
</g>
</svg>
