<?xml version="1.0" standalone="no"?>
<!DOCTYPE svg PUBLIC "-//W3C//DTD SVG 20010904//EN"
 "http://www.w3.org/TR/2001/REC-SVG-20010904/DTD/svg10.dtd">
<svg version="1.0" xmlns="http://www.w3.org/2000/svg"
 width="800.000000pt" height="800.000000pt" viewBox="0 0 800.000000 800.000000"
 preserveAspectRatio="xMidYMid meet">
<metadata>
Created by potrace 1.16, written by Peter Selinger 2001-2019
</metadata>
<g transform="translate(0.000000,800.000000) scale(0.100000,-0.100000)"
fill="#000000" stroke="none">
<path d="M3850 7100 c-160 -14 -334 -43 -390 -65 -19 -7 -73 -25 -120 -40 -89
-27 -284 -124 -384 -191 -32 -21 -75 -50 -95 -63 -144 -96 -425 -394 -527
-561 -25 -41 -66 -105 -90 -141 -99 -150 -256 -484 -345 -731 -21 -59 -43
-117 -49 -127 -17 -32 -98 -302 -115 -382 -9 -40 -29 -119 -45 -175 -44 -150
-160 -743 -180 -914 -6 -52 -15 -111 -20 -130 -14 -52 -80 -632 -91 -800 -5
-80 -14 -208 -19 -285 -29 -410 -41 -706 -47 -1132 l-6 -473 29 0 c90 1 236
52 307 109 211 167 337 595 337 1145 0 77 5 192 11 255 10 105 46 286 68 336
5 11 21 49 36 85 64 156 218 343 365 444 178 123 443 219 700 256 175 25 277
31 665 40 428 10 652 26 845 60 239 42 324 66 449 130 127 64 191 145 191 245
0 136 -117 242 -345 315 -262 84 -564 117 -1185 130 -659 14 -898 41 -1180
136 -88 30 -234 99 -276 131 -17 12 -35 23 -40 23 -12 0 -143 128 -174 170
-97 132 -148 354 -120 520 41 243 191 401 523 554 31 14 64 26 72 26 8 0 29 6
47 14 137 57 407 115 718 156 215 28 502 41 1080 50 787 12 1027 25 1420 76
360 47 616 126 725 225 62 56 81 132 52 202 -35 82 -171 158 -387 217 -174 47
-619 108 -945 129 -428 28 -1288 47 -1465 31z"/>
</g>
</svg>
