<?xml version="1.0" standalone="no"?>
<!DOCTYPE svg PUBLIC "-//W3C//DTD SVG 20010904//EN"
 "http://www.w3.org/TR/2001/REC-SVG-20010904/DTD/svg10.dtd">
<svg version="1.0" xmlns="http://www.w3.org/2000/svg"
 width="800.000000pt" height="800.000000pt" viewBox="0 0 800.000000 800.000000"
 preserveAspectRatio="xMidYMid meet">
<metadata>
Created by potrace 1.16, written by Peter Selinger 2001-2019
</metadata>
<g transform="translate(0.000000,800.000000) scale(0.100000,-0.100000)"
fill="#000000" stroke="none">
<path d="M6615 6993 c-274 -3 -830 -22 -1120 -38 -264 -15 -390 -25 -640 -50
-77 -8 -174 -17 -215 -20 -117 -9 -910 -124 -960 -139 -25 -8 -81 -19 -125
-26 -44 -6 -100 -17 -125 -25 -25 -7 -65 -17 -90 -20 -25 -4 -65 -13 -90 -20
-25 -8 -72 -21 -105 -31 -147 -40 -175 -48 -250 -72 -44 -13 -117 -40 -162
-58 -45 -19 -89 -34 -97 -34 -22 0 -328 -143 -441 -207 -302 -169 -508 -368
-638 -615 -52 -98 -71 -150 -132 -368 -43 -150 -53 -192 -65 -245 -6 -27 -15
-66 -21 -85 -5 -19 -18 -85 -29 -145 -84 -462 -87 -868 -9 -1235 34 -161 50
-212 145 -463 18 -48 80 -172 103 -206 10 -14 36 -55 59 -91 124 -196 303
-401 502 -574 53 -46 237 -186 244 -186 3 0 31 -18 63 -39 79 -53 143 -93 173
-108 14 -7 66 -35 115 -63 50 -27 101 -54 115 -60 14 -6 57 -26 95 -44 39 -19
81 -37 95 -41 14 -4 32 -13 40 -20 8 -6 65 -29 125 -50 61 -21 117 -44 125
-50 20 -17 336 -116 535 -168 585 -155 1150 -185 1615 -86 139 30 224 55 355
105 39 14 87 33 108 40 55 20 157 72 192 98 17 12 59 39 95 60 171 99 336 241
476 412 46 57 104 139 104 150 0 4 13 28 28 53 130 213 208 592 183 889 -13
143 -24 200 -58 306 -100 309 -301 476 -663 553 -68 14 -130 18 -310 18 -294
-1 -443 -24 -547 -87 -135 -82 -120 -199 47 -381 90 -97 238 -221 355 -299
104 -69 108 -72 75 -60 -14 5 -47 12 -75 16 -27 4 -72 11 -100 17 -70 14 -139
26 -212 39 -35 5 -91 15 -125 20 -35 6 -108 19 -163 30 -55 10 -154 28 -220
39 -66 11 -199 34 -295 50 -96 16 -209 35 -250 40 -138 19 -699 119 -711 127
-7 4 -37 13 -68 20 -53 11 -73 18 -163 50 -187 68 -275 116 -364 198 -59 54
-85 86 -108 136 -28 59 -30 74 -30 165 1 104 21 183 62 243 10 15 23 39 29 54
54 126 359 444 618 645 44 34 109 85 145 113 36 27 103 77 150 110 47 33 103
73 125 89 22 16 76 52 120 80 44 28 112 73 150 99 39 27 106 71 150 97 44 27
126 78 182 114 151 98 320 198 488 291 83 45 177 99 210 120 33 21 112 64 175
97 63 33 156 83 205 110 260 143 459 250 535 288 47 24 213 108 370 189 l285
145 -105 -2 c-58 -1 -186 -2 -285 -4z m-478 -3873 c299 -62 427 -95 418 -111
-15 -23 -216 -2 -354 37 -90 27 -258 102 -229 103 9 1 84 -13 165 -29z"/>
</g>
</svg>
