<?xml version="1.0" standalone="no"?>
<!DOCTYPE svg PUBLIC "-//W3C//DTD SVG 20010904//EN"
 "http://www.w3.org/TR/2001/REC-SVG-20010904/DTD/svg10.dtd">
<svg version="1.0" xmlns="http://www.w3.org/2000/svg"
 width="800.000000pt" height="800.000000pt" viewBox="0 0 800.000000 800.000000"
 preserveAspectRatio="xMidYMid meet">
<metadata>
Created by potrace 1.16, written by Peter Selinger 2001-2019
</metadata>
<g transform="translate(0.000000,800.000000) scale(0.100000,-0.100000)"
fill="#000000" stroke="none">
<path d="M1140 6383 c0 -885 28 -2158 60 -2738 22 -384 60 -963 70 -1060 12
-107 24 -220 40 -367 32 -283 66 -492 121 -728 50 -214 67 -263 126 -362 69
-120 110 -139 242 -119 249 39 393 221 455 576 20 113 26 174 36 390 9 190 21
265 57 362 43 115 145 249 248 325 27 21 57 45 66 53 19 18 274 140 309 148
14 3 50 13 80 22 80 24 117 32 295 64 221 40 482 56 774 48 360 -10 535 -34
841 -115 44 -12 184 -67 230 -92 157 -83 179 -98 280 -200 58 -59 113 -123
123 -143 15 -34 23 -52 56 -127 30 -72 43 -157 51 -355 16 -343 48 -520 127
-681 87 -181 237 -276 433 -278 126 -1 173 29 257 161 22 33 46 76 53 95 47
125 59 159 73 208 9 30 21 78 27 105 6 28 15 66 20 85 4 19 16 78 24 130 9 52
21 115 26 140 5 25 18 124 29 220 63 563 75 852 76 1825 0 770 -9 1127 -35
1425 -5 58 -14 166 -21 240 -25 293 -60 519 -128 820 -34 149 -128 359 -198
439 -60 69 -112 94 -193 95 -199 1 -347 -145 -445 -440 -77 -234 -110 -499
-125 -1014 -9 -319 -21 -431 -65 -577 -8 -29 -21 -75 -29 -103 -8 -27 -21 -61
-28 -74 -7 -14 -30 -59 -51 -100 -103 -199 -305 -393 -507 -485 -25 -11 -65
-32 -90 -45 -42 -23 -74 -33 -265 -85 -352 -96 -1004 -91 -1385 9 -56 15 -262
90 -275 100 -5 5 -40 24 -76 43 -59 31 -177 115 -251 179 -30 26 -148 164
-148 173 0 3 -10 20 -22 38 -46 68 -55 85 -95 178 -38 88 -74 214 -103 359 -6
30 -15 176 -21 324 -20 559 -86 843 -255 1096 -85 127 -184 216 -327 294 -140
76 -277 113 -489 130 l-78 7 0 -618z"/>
</g>
</svg>
