<?xml version="1.0" standalone="no"?>
<!DOCTYPE svg PUBLIC "-//W3C//DTD SVG 20010904//EN"
 "http://www.w3.org/TR/2001/REC-SVG-20010904/DTD/svg10.dtd">
<svg version="1.0" xmlns="http://www.w3.org/2000/svg"
 width="800.000000pt" height="800.000000pt" viewBox="0 0 800.000000 800.000000"
 preserveAspectRatio="xMidYMid meet">
<metadata>
Created by potrace 1.16, written by Peter Selinger 2001-2019
</metadata>
<g transform="translate(0.000000,800.000000) scale(0.100000,-0.100000)"
fill="#000000" stroke="none">
<path d="M5510 6989 c-171 -29 -332 -178 -438 -409 -110 -237 -185 -560 -232
-990 -30 -277 -40 -470 -50 -960 -6 -245 -12 -456 -14 -470 -3 -14 -10 -68
-16 -120 -26 -219 -93 -507 -150 -645 -4 -11 -16 -42 -25 -70 -34 -98 -146
-333 -186 -392 -16 -23 -29 -47 -29 -53 0 -10 -102 -162 -177 -265 -100 -136
-329 -383 -464 -500 -122 -106 -152 -131 -170 -139 -10 -5 -19 -12 -19 -15 0
-4 -25 -24 -55 -46 -31 -22 -79 -57 -108 -77 -102 -73 -123 -87 -256 -170 -42
-26 -128 -74 -191 -108 -63 -34 -142 -77 -175 -95 -79 -45 -401 -195 -418
-195 -7 0 -60 -21 -117 -46 -58 -26 -134 -56 -170 -69 -91 -31 -184 -64 -258
-92 -34 -13 -70 -23 -80 -24 -9 0 -35 -9 -57 -19 l-40 -19 45 0 c250 -4 902
30 1230 64 267 28 716 97 865 134 22 6 105 26 185 46 258 63 378 100 563 171
48 19 93 34 100 34 15 0 308 130 327 145 8 7 51 32 95 54 139 73 257 147 350
219 17 12 39 29 50 37 151 110 372 331 475 475 21 30 46 63 55 73 21 23 168
280 190 332 10 22 26 56 36 75 37 73 87 228 135 420 83 335 99 715 63 1520
-36 824 -150 1484 -309 1800 -58 116 -61 121 -118 198 -79 106 -176 171 -287
191 -66 12 -78 12 -155 0z"/>
</g>
</svg>
