<?xml version="1.0" standalone="no"?>
<!DOCTYPE svg PUBLIC "-//W3C//DTD SVG 20010904//EN"
 "http://www.w3.org/TR/2001/REC-SVG-20010904/DTD/svg10.dtd">
<svg version="1.0" xmlns="http://www.w3.org/2000/svg"
 width="800.000000pt" height="800.000000pt" viewBox="0 0 800.000000 800.000000"
 preserveAspectRatio="xMidYMid meet">
<metadata>
Created by potrace 1.16, written by Peter Selinger 2001-2019
</metadata>
<g transform="translate(0.000000,800.000000) scale(0.100000,-0.100000)"
fill="#000000" stroke="none">
<path d="M1594 6648 c18 -934 60 -1606 141 -2208 52 -386 61 -444 73 -500 6
-25 18 -90 27 -145 9 -55 27 -145 41 -200 13 -55 24 -110 24 -121 0 -28 114
-442 178 -649 119 -380 235 -637 435 -960 54 -87 251 -327 333 -405 223 -213
475 -352 749 -414 168 -37 224 -41 610 -39 1285 8 2015 140 2163 393 56 95 25
228 -73 318 -198 181 -591 263 -1355 282 -353 9 -439 18 -597 61 -162 45 -321
125 -433 218 -150 126 -238 224 -321 361 -19 31 -40 64 -47 75 -6 11 -16 29
-21 40 -5 11 -25 55 -45 98 -20 42 -36 80 -36 83 0 3 -6 20 -14 37 -63 145
-138 442 -171 682 -36 262 -44 389 -55 860 -14 622 -51 927 -157 1300 -35 121
-112 324 -143 375 -5 8 -25 47 -45 85 -20 39 -43 77 -51 86 -8 8 -14 20 -14
26 0 5 -11 20 -25 33 -14 13 -25 28 -25 32 0 12 -80 107 -140 168 -43 44 -183
153 -225 176 -241 134 -391 176 -699 199 l-88 7 6 -354z"/>
</g>
</svg>
