<?xml version="1.0" standalone="no"?>
<!DOCTYPE svg PUBLIC "-//W3C//DTD SVG 20010904//EN"
 "http://www.w3.org/TR/2001/REC-SVG-20010904/DTD/svg10.dtd">
<svg version="1.0" xmlns="http://www.w3.org/2000/svg"
 width="800.000000pt" height="800.000000pt" viewBox="0 0 800.000000 800.000000"
 preserveAspectRatio="xMidYMid meet">
<metadata>
Created by potrace 1.16, written by Peter Selinger 2001-2019
</metadata>
<g transform="translate(0.000000,800.000000) scale(0.100000,-0.100000)"
fill="#000000" stroke="none">
<path d="M6045 6240 c-96 -17 -191 -49 -305 -102 -94 -45 -118 -59 -290 -170
-66 -43 -136 -86 -157 -98 -21 -11 -67 -39 -103 -61 -150 -95 -514 -264 -680
-317 -146 -46 -225 -57 -400 -56 -172 0 -176 1 -265 33 -49 18 -97 38 -105 45
-8 6 -28 18 -44 26 -45 23 -149 131 -204 212 -83 122 -191 215 -322 280 -127
63 -200 89 -325 117 -215 47 -461 59 -745 37 -197 -15 -424 -43 -540 -66 -151
-31 -331 -69 -472 -100 l-98 -22 6 -606 c8 -894 38 -2008 63 -2352 6 -74 16
-218 22 -320 24 -383 87 -924 138 -1175 13 -65 65 -260 81 -305 48 -130 109
-219 168 -241 45 -17 116 7 174 59 27 26 54 56 59 67 5 11 17 34 27 50 10 17
28 57 41 90 13 33 27 69 31 80 27 63 79 297 104 475 53 363 75 735 86 1490 9
623 19 850 45 1040 7 58 16 121 18 140 9 70 46 256 62 310 9 30 19 69 24 85 4
17 18 49 29 72 12 23 22 49 22 56 0 25 96 161 137 193 54 43 114 64 181 64
144 0 274 -74 473 -266 228 -222 375 -327 599 -426 257 -115 573 -115 830 0
222 99 351 190 595 421 126 119 156 143 254 205 99 63 237 83 323 49 24 -9 62
-33 86 -52 42 -35 122 -146 122 -169 0 -6 11 -35 24 -64 43 -96 54 -133 87
-303 65 -339 77 -513 89 -1305 10 -666 18 -862 50 -1195 31 -318 58 -482 120
-739 18 -74 91 -244 129 -301 46 -70 101 -111 166 -126 51 -11 57 -10 107 14
64 31 99 74 148 177 12 25 26 53 31 63 13 23 35 92 49 147 6 25 18 72 26 105
24 94 70 369 83 495 7 63 17 149 22 190 34 273 60 949 62 1620 2 595 -5 771
-39 1095 -59 570 -206 998 -402 1174 -83 75 -87 78 -133 101 -107 55 -255 79
-364 60z"/>
</g>
</svg>
