<?xml version="1.0" standalone="no"?>
<!DOCTYPE svg PUBLIC "-//W3C//DTD SVG 20010904//EN"
 "http://www.w3.org/TR/2001/REC-SVG-20010904/DTD/svg10.dtd">
<svg version="1.0" xmlns="http://www.w3.org/2000/svg"
 width="800.000000pt" height="800.000000pt" viewBox="0 0 800.000000 800.000000"
 preserveAspectRatio="xMidYMid meet">
<metadata>
Created by potrace 1.16, written by Peter Selinger 2001-2019
</metadata>
<g transform="translate(0.000000,800.000000) scale(0.100000,-0.100000)"
fill="#000000" stroke="none">
<path d="M1450 6979 c-41 -26 -51 -38 -83 -104 -44 -91 -78 -191 -102 -300
-169 -778 -246 -2166 -270 -4894 l-6 -683 68 6 c72 8 191 34 208 46 6 3 26 13
45 20 79 31 182 122 272 240 48 63 188 331 188 360 0 8 11 44 24 80 30 80 50
151 86 300 15 65 69 419 80 530 22 218 31 398 40 810 5 239 14 480 20 535 14
141 30 256 40 285 4 14 13 52 20 85 15 71 105 266 145 313 49 58 145 119 207
132 66 13 122 7 226 -26 138 -43 375 -197 531 -344 14 -13 62 -58 106 -98 83
-77 371 -383 434 -463 21 -25 71 -86 113 -135 74 -85 160 -191 230 -282 18
-23 65 -80 103 -127 39 -46 93 -112 120 -146 28 -34 66 -81 86 -103 19 -23 50
-61 69 -86 19 -25 64 -79 100 -120 36 -41 82 -99 103 -127 21 -29 42 -53 46
-53 4 0 56 -57 114 -127 308 -370 658 -745 962 -1034 159 -151 378 -332 434
-360 14 -7 37 -21 51 -29 40 -26 151 -68 196 -75 23 -4 59 -2 81 4 191 52 252
518 177 1356 -17 195 -70 664 -84 745 -5 30 -14 91 -20 135 -6 44 -17 121 -25
170 -8 50 -21 135 -29 190 -8 55 -19 129 -24 165 -14 94 -67 392 -113 640 -22
118 -40 225 -39 236 0 12 -20 113 -45 225 -25 112 -45 214 -45 227 0 12 -20
103 -45 202 -25 99 -45 189 -45 201 0 11 -20 93 -45 180 -25 88 -45 167 -45
175 0 25 -86 302 -136 440 -24 67 -44 126 -44 131 0 20 -121 276 -150 318 -17
24 -30 48 -30 54 0 18 -111 135 -157 165 -86 56 -187 35 -268 -55 -91 -102
-172 -322 -221 -597 -72 -407 -101 -825 -114 -1652 -9 -578 -19 -736 -55 -930
-42 -216 -89 -335 -164 -410 -92 -92 -196 -92 -346 -2 -72 44 -116 82 -210
182 -38 41 -86 91 -106 110 -55 54 -256 326 -369 499 -14 21 -43 66 -65 99
-22 33 -56 86 -75 118 -19 32 -49 78 -66 103 -16 25 -48 77 -70 114 -21 37
-50 87 -64 111 -14 23 -32 56 -41 72 -10 16 -32 52 -50 81 -19 28 -47 73 -63
100 -41 68 -101 164 -161 258 -21 33 -48 76 -60 95 -27 43 -35 56 -109 167
-33 48 -84 126 -114 173 -31 47 -68 103 -83 125 -16 22 -69 100 -119 173 -86
126 -217 304 -282 382 -16 19 -84 103 -151 185 -217 265 -415 445 -552 502
-81 34 -124 37 -165 12z"/>
</g>
</svg>
