<?xml version="1.0" standalone="no"?>
<!DOCTYPE svg PUBLIC "-//W3C//DTD SVG 20010904//EN"
 "http://www.w3.org/TR/2001/REC-SVG-20010904/DTD/svg10.dtd">
<svg version="1.0" xmlns="http://www.w3.org/2000/svg"
 width="800.000000pt" height="800.000000pt" viewBox="0 0 800.000000 800.000000"
 preserveAspectRatio="xMidYMid meet">
<metadata>
Created by potrace 1.16, written by Peter Selinger 2001-2019
</metadata>
<g transform="translate(0.000000,800.000000) scale(0.100000,-0.100000)"
fill="#000000" stroke="none">
<path d="M6275 6989 c-417 -9 -870 -27 -1000 -40 -55 -5 -172 -14 -260 -19
-204 -12 -816 -75 -915 -94 -41 -8 -104 -18 -140 -21 -36 -3 -96 -12 -135 -20
-38 -7 -113 -20 -165 -29 -165 -29 -252 -46 -356 -71 -56 -14 -111 -25 -123
-25 -24 0 -473 -127 -561 -159 -287 -103 -311 -113 -520 -214 -85 -41 -235
-129 -365 -216 -87 -58 -284 -252 -357 -351 -103 -142 -159 -261 -205 -435
-22 -85 -27 -128 -31 -280 -4 -174 7 -367 29 -490 22 -123 103 -397 143 -488
104 -230 245 -415 445 -584 41 -34 90 -70 110 -79 20 -9 49 -28 64 -41 24 -20
131 -74 252 -127 137 -61 430 -140 600 -163 217 -29 277 -32 785 -42 608 -12
879 -27 1190 -67 163 -20 407 -64 475 -84 124 -38 190 -62 230 -83 11 -6 33
-17 50 -26 60 -30 100 -63 137 -112 60 -80 64 -162 11 -247 -123 -199 -592
-315 -1458 -362 -104 -6 -480 -15 -835 -20 -750 -11 -1111 -32 -1415 -81 -368
-60 -565 -122 -702 -222 -96 -69 -137 -180 -99 -270 14 -34 107 -127 127 -127
6 0 23 -9 38 -19 27 -19 65 -35 161 -66 80 -27 104 -33 180 -50 41 -9 91 -20
110 -25 47 -12 359 -56 495 -69 367 -37 790 -57 1405 -67 639 -10 1118 17
1555 85 122 19 407 82 435 96 14 7 50 18 80 25 30 7 64 19 75 25 11 7 34 16
50 19 17 4 44 13 60 20 17 8 46 21 65 29 93 40 210 103 282 152 29 19 57 35
61 35 13 0 99 73 174 146 57 57 150 171 166 205 4 8 21 39 38 69 50 91 105
257 124 378 30 193 13 448 -44 656 -24 86 -87 226 -132 294 -16 24 -29 45 -29
48 0 3 -30 40 -66 84 -72 88 -198 197 -293 255 -9 6 -30 19 -46 31 -17 11 -37
24 -45 27 -8 4 -22 11 -30 16 -8 5 -36 19 -62 30 -27 12 -67 30 -91 41 -24 11
-81 31 -126 45 -46 14 -89 29 -95 34 -7 6 -32 13 -56 17 -25 4 -85 17 -135 31
-99 27 -145 35 -315 57 -215 29 -345 36 -767 46 -232 5 -484 14 -560 20 -162
13 -439 46 -503 60 -25 6 -88 19 -140 30 -366 76 -624 196 -803 374 -114 113
-170 221 -198 384 -16 92 -6 271 19 349 44 132 146 274 262 364 66 51 125 89
137 89 6 0 22 9 36 20 31 25 212 95 367 143 184 57 220 65 485 102 284 40 504
54 1030 65 270 5 540 14 600 20 137 12 403 46 470 60 28 5 82 16 120 24 177
36 229 51 353 97 73 28 162 67 198 87 36 20 78 44 93 52 93 50 225 183 285
288 60 105 85 185 93 290 l6 82 -124 -2 c-68 0 -272 -5 -454 -9z"/>
</g>
</svg>
