<?xml version="1.0" standalone="no"?>
<!DOCTYPE svg PUBLIC "-//W3C//DTD SVG 20010904//EN"
 "http://www.w3.org/TR/2001/REC-SVG-20010904/DTD/svg10.dtd">
<svg version="1.0" xmlns="http://www.w3.org/2000/svg"
 width="800.000000pt" height="800.000000pt" viewBox="0 0 800.000000 800.000000"
 preserveAspectRatio="xMidYMid meet">
<metadata>
Created by potrace 1.16, written by Peter Selinger 2001-2019
</metadata>
<g transform="translate(0.000000,800.000000) scale(0.100000,-0.100000)"
fill="#000000" stroke="none">
<path d="M3545 6994 c-787 -14 -1435 -59 -1805 -126 -63 -11 -136 -24 -162
-29 -60 -10 -270 -69 -283 -79 -5 -4 -21 -11 -35 -15 -87 -25 -195 -98 -234
-156 -41 -64 -39 -164 6 -253 49 -97 178 -186 343 -240 184 -59 371 -84 740
-96 306 -10 411 -27 517 -81 10 -5 22 -9 28 -9 6 0 59 -32 118 -72 123 -82
181 -138 285 -273 41 -53 207 -379 207 -406 0 -9 7 -34 16 -55 36 -85 87 -293
118 -474 62 -369 75 -548 86 -1235 9 -596 11 -654 36 -1030 14 -217 17 -251
49 -490 51 -385 150 -690 259 -801 48 -49 93 -67 161 -67 137 0 225 100 308
353 129 391 179 908 197 2035 9 550 21 792 49 1010 16 116 59 374 71 418 5 20
14 54 19 75 37 144 111 342 176 472 84 164 131 233 240 345 48 49 253 195 275
195 6 0 18 4 28 9 106 54 211 71 517 81 284 10 407 21 560 51 209 41 364 108
451 195 62 61 89 110 103 190 16 89 -4 145 -78 211 -33 30 -147 93 -167 93 -5
0 -22 7 -39 16 -34 18 -222 71 -298 84 -29 5 -90 17 -137 25 -284 53 -768 95
-1320 115 -289 10 -1134 19 -1405 14z"/>
</g>
</svg>
