<?xml version="1.0" standalone="no"?>
<!DOCTYPE svg PUBLIC "-//W3C//DTD SVG 20010904//EN"
 "http://www.w3.org/TR/2001/REC-SVG-20010904/DTD/svg10.dtd">
<svg version="1.0" xmlns="http://www.w3.org/2000/svg"
 width="800.000000pt" height="800.000000pt" viewBox="0 0 800.000000 800.000000"
 preserveAspectRatio="xMidYMid meet">
<metadata>
Created by potrace 1.16, written by Peter Selinger 2001-2019
</metadata>
<g transform="translate(0.000000,800.000000) scale(0.100000,-0.100000)"
fill="#000000" stroke="none">
<path d="M994 6613 c9 -541 24 -1086 37 -1363 18 -379 68 -1074 88 -1220 5
-41 15 -129 21 -195 18 -195 107 -796 140 -945 11 -47 35 -157 54 -246 19 -89
41 -181 49 -205 8 -24 18 -60 22 -79 16 -85 113 -365 180 -526 93 -220 169
-350 312 -537 57 -75 192 -181 283 -224 154 -72 16 -66 1755 -70 1593 -4 1710
-2 1863 33 112 25 262 84 303 118 17 14 34 26 38 26 8 0 59 37 107 78 142 120
250 254 330 412 10 19 24 42 30 50 7 8 26 50 43 93 17 43 37 88 45 100 24 39
123 356 152 487 69 319 109 625 136 1045 15 232 14 1100 -1 1490 -22 579 -63
1051 -116 1335 -8 47 -20 108 -25 137 -11 67 -69 275 -79 288 -5 5 -12 21 -16
35 -16 56 -68 148 -105 187 -51 54 -94 77 -150 77 -172 0 -303 -232 -386 -679
-26 -140 -33 -187 -48 -325 -43 -389 -55 -612 -67 -1280 -5 -305 -13 -600 -18
-655 -21 -235 -40 -355 -87 -560 -9 -38 -18 -81 -21 -95 -7 -33 -88 -266 -123
-355 -23 -59 -64 -137 -110 -215 -5 -8 -22 -37 -39 -65 -39 -66 -150 -203
-227 -280 -68 -69 -237 -200 -299 -232 -348 -183 -625 -247 -1070 -247 -445 0
-722 64 -1070 247 -57 30 -221 155 -285 218 -88 86 -228 259 -258 319 -7 14
-24 43 -37 65 -14 22 -29 51 -35 65 -6 14 -17 32 -24 40 -13 15 -66 150 -113
285 -26 75 -59 195 -73 260 -40 197 -50 253 -60 340 -24 206 -30 321 -39 750
-9 409 -29 765 -50 895 -5 30 -15 98 -21 150 -17 136 -58 343 -89 450 -5 19
-14 51 -20 70 -14 51 -37 118 -60 178 -12 28 -29 73 -39 100 -22 55 -112 202
-174 284 -117 153 -297 252 -496 273 l-64 6 6 -388z"/>
</g>
</svg>
