<?xml version="1.0" standalone="no"?>
<!DOCTYPE svg PUBLIC "-//W3C//DTD SVG 20010904//EN"
 "http://www.w3.org/TR/2001/REC-SVG-20010904/DTD/svg10.dtd">
<svg version="1.0" xmlns="http://www.w3.org/2000/svg"
 width="800.000000pt" height="800.000000pt" viewBox="0 0 800.000000 800.000000"
 preserveAspectRatio="xMidYMid meet">
<metadata>
Created by potrace 1.16, written by Peter Selinger 2001-2019
</metadata>
<g transform="translate(0.000000,800.000000) scale(0.100000,-0.100000)"
fill="#000000" stroke="none">
<path d="M1919 6990 c-272 -46 -373 -328 -303 -845 27 -197 80 -441 145 -665
6 -19 14 -48 19 -65 14 -49 38 -132 55 -188 9 -28 20 -68 25 -87 5 -19 23 -70
40 -113 16 -43 30 -85 30 -92 0 -8 30 -95 66 -192 36 -98 81 -221 100 -273 19
-52 43 -115 54 -140 11 -25 35 -86 54 -137 20 -50 42 -106 50 -125 9 -18 27
-64 42 -103 14 -38 39 -99 54 -135 16 -36 75 -173 132 -305 260 -608 517
-1058 762 -1339 203 -233 382 -361 576 -413 88 -23 262 -23 350 0 194 52 373
180 576 413 66 76 184 229 184 239 0 4 12 24 28 44 15 20 32 45 39 56 7 11 31
52 54 90 24 39 49 81 57 95 7 14 25 45 39 70 14 25 74 142 133 260 97 192 131
264 174 365 22 53 43 99 69 155 14 31 46 107 72 170 26 63 51 119 56 124 5 6
9 17 9 25 0 8 9 35 21 60 51 112 57 128 69 163 6 21 16 40 21 43 5 4 9 14 9
23 0 10 9 35 20 57 11 21 25 54 31 74 6 20 17 45 24 56 6 11 20 45 30 75 9 30
23 64 30 75 6 11 20 45 30 75 9 30 26 71 36 90 10 19 42 98 69 175 28 77 82
219 119 315 37 96 75 195 84 220 35 99 41 117 60 170 11 30 25 71 32 90 7 19
34 103 60 185 26 83 51 159 55 170 24 58 91 316 131 505 29 137 33 378 8 425
-78 142 -274 66 -478 -185 -29 -36 -59 -73 -67 -83 -33 -40 -84 -115 -84 -122
0 -4 -12 -24 -27 -44 -16 -20 -37 -52 -47 -71 -11 -19 -31 -53 -45 -75 -14
-22 -34 -56 -44 -75 -11 -19 -31 -55 -45 -80 -39 -71 -112 -209 -144 -275 -16
-33 -36 -73 -45 -90 -26 -52 -39 -78 -70 -145 -59 -126 -101 -216 -152 -323
-28 -59 -51 -113 -51 -120 0 -6 -32 -82 -72 -167 -39 -85 -74 -168 -79 -185
-7 -28 -38 -105 -201 -492 -33 -78 -68 -153 -77 -165 -10 -13 -38 -61 -62
-108 -24 -46 -51 -92 -60 -101 -9 -9 -30 -36 -46 -60 -48 -69 -155 -172 -219
-210 -98 -58 -141 -71 -249 -76 -105 -5 -158 6 -275 59 -82 38 -252 165 -330
248 -19 20 -56 59 -81 86 -26 27 -85 99 -132 159 -47 61 -96 123 -109 139 -13
16 -26 37 -31 45 -8 18 -25 43 -82 126 -22 32 -47 71 -57 87 -9 16 -23 37 -31
46 -8 9 -21 31 -29 47 -31 62 -69 127 -93 163 -14 20 -25 40 -25 45 0 5 -13
27 -29 50 -16 24 -36 59 -44 79 -9 20 -27 54 -41 75 -14 21 -26 43 -26 49 0 6
-20 45 -45 86 -25 42 -45 80 -45 85 0 6 -25 55 -55 110 -30 56 -55 106 -55
113 0 7 -29 68 -65 135 -36 68 -65 128 -65 135 0 7 -38 93 -85 192 -47 98 -85
186 -85 194 0 8 -11 36 -24 62 -30 58 -221 505 -267 624 -23 59 -39 88 -49 87
-8 -1 -36 -5 -61 -9z"/>
</g>
</svg>
