<?xml version="1.0" standalone="no"?>
<!DOCTYPE svg PUBLIC "-//W3C//DTD SVG 20010904//EN"
 "http://www.w3.org/TR/2001/REC-SVG-20010904/DTD/svg10.dtd">
<svg version="1.0" xmlns="http://www.w3.org/2000/svg"
 width="800.000000pt" height="800.000000pt" viewBox="0 0 800.000000 800.000000"
 preserveAspectRatio="xMidYMid meet">
<metadata>
Created by potrace 1.16, written by Peter Selinger 2001-2019
</metadata>
<g transform="translate(0.000000,800.000000) scale(0.100000,-0.100000)"
fill="#000000" stroke="none">
<path d="M990 6938 c0 -200 22 -1171 30 -1378 11 -245 43 -760 60 -940 5 -52
13 -149 19 -215 6 -66 15 -144 21 -174 5 -29 10 -73 10 -97 0 -24 18 -152 41
-284 88 -523 166 -813 272 -1015 96 -183 144 -240 257 -303 70 -38 137 -47
215 -29 191 45 364 199 655 583 117 155 330 378 484 507 60 51 118 98 130 106
11 8 46 31 76 51 131 88 319 172 476 211 109 27 342 32 469 10 168 -30 436
-150 580 -261 33 -25 82 -61 108 -79 58 -39 370 -351 442 -440 28 -34 64 -79
81 -99 35 -42 111 -142 135 -178 8 -12 53 -66 100 -120 46 -53 91 -107 100
-121 29 -43 181 -194 284 -281 159 -134 342 -213 455 -197 114 16 223 112 296
260 24 50 44 98 44 107 0 9 8 40 19 70 77 219 123 615 136 1173 7 276 -8 1135
-25 1445 -13 256 -43 623 -60 740 -5 36 -14 103 -20 150 -33 244 -103 526
-163 650 -73 154 -171 226 -270 199 -87 -23 -161 -105 -227 -253 -33 -72 -104
-334 -120 -439 -5 -34 -18 -123 -29 -197 -48 -313 -81 -914 -81 -1460 0 -372
-13 -692 -36 -910 -16 -145 -59 -376 -74 -395 -4 -5 -11 -23 -14 -40 -9 -37
-73 -132 -106 -157 -73 -54 -168 -22 -281 94 -39 40 -77 80 -84 88 -18 23 -85
119 -85 124 0 2 -24 40 -52 84 -68 102 -75 113 -119 199 -20 39 -49 88 -63
109 -14 21 -26 44 -26 51 0 6 -16 39 -35 72 -19 33 -44 80 -55 105 -10 25 -35
69 -54 98 -20 29 -36 58 -36 66 0 7 -15 36 -33 65 -18 28 -37 59 -42 68 -40
65 -126 188 -135 194 -6 4 -21 23 -34 43 -30 45 -174 194 -237 245 -110 87
-286 157 -393 157 -42 0 -155 -23 -191 -39 -11 -5 -33 -14 -49 -20 -69 -28
-178 -113 -283 -220 -62 -63 -113 -119 -113 -124 0 -5 -20 -33 -45 -61 -25
-29 -45 -58 -45 -63 0 -6 -14 -28 -31 -49 -17 -22 -35 -49 -40 -62 -5 -13 -22
-43 -39 -67 -16 -24 -46 -74 -66 -112 -39 -73 -134 -255 -150 -288 -37 -72
-71 -135 -102 -190 -9 -16 -80 -134 -145 -240 -7 -11 -37 -53 -68 -95 -146
-194 -267 -279 -359 -251 -70 21 -140 122 -174 251 -8 30 -17 62 -20 70 -16
41 -48 274 -61 448 -9 107 -20 425 -25 706 -6 281 -12 529 -15 551 -2 22 -9
105 -15 185 -12 157 -72 569 -96 659 -8 31 -19 74 -24 96 -29 130 -98 315
-163 438 -155 296 -351 444 -624 472 l-63 6 0 -63z"/>
</g>
</svg>
