<?xml version="1.0" standalone="no"?>
<!DOCTYPE svg PUBLIC "-//W3C//DTD SVG 20010904//EN"
 "http://www.w3.org/TR/2001/REC-SVG-20010904/DTD/svg10.dtd">
<svg version="1.0" xmlns="http://www.w3.org/2000/svg"
 width="800.000000pt" height="800.000000pt" viewBox="0 0 800.000000 800.000000"
 preserveAspectRatio="xMidYMid meet">
<metadata>
Created by potrace 1.16, written by Peter Selinger 2001-2019
</metadata>
<g transform="translate(0.000000,800.000000) scale(0.100000,-0.100000)"
fill="#000000" stroke="none">
<path d="M1925 6994 c-158 -18 -232 -43 -293 -98 -137 -124 -102 -361 105
-708 80 -134 210 -324 295 -433 82 -104 115 -146 248 -307 71 -87 137 -170
147 -185 9 -16 27 -40 41 -54 13 -15 38 -48 55 -73 18 -25 55 -77 82 -116 138
-194 302 -464 410 -674 77 -150 255 -561 255 -588 0 -7 8 -35 19 -63 28 -74
40 -112 62 -190 21 -75 79 -347 98 -455 21 -126 41 -396 41 -569 1 -592 67
-1030 191 -1257 73 -134 143 -191 263 -215 105 -22 228 25 298 113 90 112 151
267 193 495 39 213 54 401 65 822 8 325 22 503 50 666 13 74 65 317 79 368 28
98 58 197 77 252 33 96 197 490 210 506 8 8 14 18 14 21 0 10 41 93 90 183 27
50 57 104 65 120 9 17 23 42 33 57 9 15 37 59 62 99 25 39 52 82 60 94 8 13
30 47 48 76 18 30 48 74 67 99 19 25 40 54 47 66 23 38 72 104 110 150 21 25
43 54 49 66 6 11 68 89 138 173 69 83 131 158 136 167 6 9 44 55 85 103 41 48
82 98 90 110 13 20 224 299 265 350 9 11 23 32 33 46 9 15 48 73 86 130 224
338 294 544 209 620 -75 66 -256 39 -493 -75 -85 -40 -157 -81 -181 -102 -8
-8 -20 -14 -26 -14 -5 0 -18 -9 -28 -20 -10 -11 -22 -20 -27 -20 -5 0 -29 -16
-52 -35 -24 -19 -46 -35 -50 -35 -8 0 -136 -98 -156 -120 -8 -9 -35 -32 -60
-50 -25 -19 -47 -37 -50 -41 -3 -3 -27 -25 -55 -49 -70 -59 -234 -211 -327
-301 -105 -102 -200 -190 -232 -214 -15 -11 -34 -27 -44 -36 -16 -15 -136 -79
-212 -113 -58 -26 -194 -56 -299 -66 -140 -13 -322 6 -473 49 -21 6 -53 15
-71 20 -46 11 -269 102 -287 116 -8 7 -34 19 -57 28 -34 13 -132 67 -193 107
-8 6 -26 15 -40 21 -14 6 -41 22 -60 37 -19 15 -47 34 -62 42 -36 20 -208 144
-314 225 -65 50 -223 185 -327 280 -54 50 -109 97 -122 105 -12 9 -89 79 -170
158 -81 78 -154 141 -163 141 -10 -1 -30 -4 -47 -5z"/>
</g>
</svg>
