<?xml version="1.0" standalone="no"?>
<!DOCTYPE svg PUBLIC "-//W3C//DTD SVG 20010904//EN"
 "http://www.w3.org/TR/2001/REC-SVG-20010904/DTD/svg10.dtd">
<svg version="1.0" xmlns="http://www.w3.org/2000/svg"
 width="800.000000pt" height="800.000000pt" viewBox="0 0 800.000000 800.000000"
 preserveAspectRatio="xMidYMid meet">
<metadata>
Created by potrace 1.16, written by Peter Selinger 2001-2019
</metadata>
<g transform="translate(0.000000,800.000000) scale(0.100000,-0.100000)"
fill="#000000" stroke="none">
<path d="M995 6933 c9 -95 41 -216 77 -293 33 -69 115 -182 158 -215 14 -11
34 -29 45 -41 83 -86 345 -213 540 -261 350 -86 558 -110 1055 -123 197 -5
399 -16 470 -25 118 -14 147 -20 238 -46 20 -5 51 -14 68 -18 49 -13 192 -101
239 -148 94 -93 124 -226 91 -393 -29 -140 -136 -362 -253 -525 -24 -33 -62
-87 -85 -120 -40 -57 -94 -123 -268 -329 -69 -80 -302 -322 -853 -881 -114
-116 -218 -226 -232 -245 -14 -19 -74 -84 -133 -146 -59 -61 -154 -164 -212
-230 -58 -65 -116 -130 -130 -144 -13 -14 -40 -45 -58 -70 -19 -25 -44 -54
-56 -65 -38 -35 -155 -180 -313 -390 -98 -130 -116 -154 -163 -225 -14 -20
-38 -57 -54 -81 -78 -116 -158 -296 -169 -380 -23 -168 147 -284 547 -373 502
-112 1235 -159 2456 -159 985 1 1556 26 2030 89 63 9 144 19 180 24 93 13 334
65 416 90 258 81 392 197 367 321 -12 62 -82 150 -145 183 -13 7 -32 18 -43
24 -67 38 -173 74 -329 112 -106 26 -161 37 -371 70 -283 45 -910 79 -1445 80
-438 0 -772 27 -950 77 -30 8 -76 21 -101 28 -144 41 -297 162 -334 265 -28
78 -27 204 4 288 39 109 77 183 144 282 96 144 123 175 388 440 283 285 381
372 774 685 251 201 431 347 524 425 63 53 574 488 613 522 275 237 685 637
938 914 89 97 179 218 267 359 23 37 44 90 60 148 17 67 9 98 -34 141 -32 32
-134 82 -218 106 -75 22 -194 52 -240 60 -823 159 -2198 231 -4848 255 l-658
6 6 -68z"/>
</g>
</svg>
