<?xml version="1.0" standalone="no"?>
<!DOCTYPE svg PUBLIC "-//W3C//DTD SVG 20010904//EN"
 "http://www.w3.org/TR/2001/REC-SVG-20010904/DTD/svg10.dtd">
<svg version="1.0" xmlns="http://www.w3.org/2000/svg"
 width="800.000000pt" height="800.000000pt" viewBox="0 0 800.000000 800.000000"
 preserveAspectRatio="xMidYMid meet">
<metadata>
Created by potrace 1.16, written by Peter Selinger 2001-2019
</metadata>
<g transform="translate(0.000000,800.000000) scale(0.100000,-0.100000)"
fill="#000000" stroke="none">
<path d="M3170 7494 c-372 -19 -562 -40 -795 -91 -188 -41 -229 -54 -385 -121
-158 -67 -190 -85 -325 -183 -129 -94 -168 -129 -278 -252 -119 -132 -134
-154 -222 -318 -142 -264 -227 -502 -294 -820 -55 -267 -97 -576 -132 -979
-19 -219 -22 -323 -22 -735 0 -412 3 -516 22 -735 35 -403 77 -712 132 -979
67 -318 152 -556 294 -820 88 -164 103 -186 222 -318 110 -123 149 -158 278
-252 135 -98 167 -116 325 -183 156 -67 198 -80 385 -121 237 -52 517 -87 904
-113 358 -24 1293 -15 1596 15 595 59 666 70 880 131 172 49 224 70 364 140
151 75 174 90 305 203 123 107 155 141 253 273 91 122 130 185 204 335 80 161
99 212 156 404 90 302 135 570 168 995 32 411 32 674 0 1150 -50 743 -141
1408 -283 2060 l-77 355 -165 -16 c-139 -14 -182 -23 -277 -55 -100 -35 -121
-47 -202 -113 -80 -65 -99 -88 -150 -175 -50 -85 -65 -121 -91 -226 -31 -123
-32 -128 -25 -285 6 -138 16 -212 75 -530 98 -529 113 -680 113 -1140 0 -422
-15 -608 -79 -955 -110 -603 -250 -989 -461 -1272 -264 -355 -550 -493 -1166
-563 -206 -24 -751 -16 -972 14 -317 42 -570 123 -722 231 -292 208 -489 507
-641 972 -103 315 -170 702 -208 1198 -26 343 -16 767 25 1070 53 386 90 561
163 761 58 160 74 192 163 329 92 143 107 160 233 274 112 102 164 139 318
232 168 101 204 118 402 191 175 65 268 92 477 141 230 53 291 63 525 87 672
67 1022 124 1211 198 98 38 108 45 137 88 l30 46 -43 43 c-56 55 -206 123
-439 199 -513 168 -1230 248 -1906 215z"/>
</g>
</svg>
