<?xml version="1.0" standalone="no"?>
<!DOCTYPE svg PUBLIC "-//W3C//DTD SVG 20010904//EN"
 "http://www.w3.org/TR/2001/REC-SVG-20010904/DTD/svg10.dtd">
<svg version="1.0" xmlns="http://www.w3.org/2000/svg"
 width="800.000000pt" height="800.000000pt" viewBox="0 0 800.000000 800.000000"
 preserveAspectRatio="xMidYMid meet">
<metadata>
Created by potrace 1.16, written by Peter Selinger 2001-2019
</metadata>
<g transform="translate(0.000000,800.000000) scale(0.100000,-0.100000)"
fill="#000000" stroke="none">
<path d="M6670 7984 c-401 -27 -710 -145 -890 -342 -45 -48 -77 -97 -116 -177
-64 -133 -80 -192 -94 -358 -23 -270 22 -571 141 -942 49 -153 142 -517 159
-625 7 -41 20 -111 30 -155 10 -44 33 -206 50 -360 30 -262 32 -302 32 -630 0
-328 -2 -368 -32 -630 -17 -154 -40 -316 -50 -360 -10 -44 -23 -114 -30 -155
-13 -80 -120 -515 -140 -565 -21 -54 -118 -388 -150 -514 -40 -161 -76 -370
-95 -566 -18 -176 -11 -291 27 -445 35 -141 77 -203 192 -285 69 -48 86 -54
206 -69 82 -11 204 -3 295 19 67 16 288 154 338 210 44 50 167 216 200 271 77
127 160 325 215 514 93 313 124 455 188 840 50 305 84 831 84 1300 -1 719 -77
1807 -189 2705 -42 335 -135 977 -174 1200 l-22 130 -175 -11z"/>
</g>
</svg>
