<?xml version="1.0" standalone="no"?>
<!DOCTYPE svg PUBLIC "-//W3C//DTD SVG 20010904//EN"
 "http://www.w3.org/TR/2001/REC-SVG-20010904/DTD/svg10.dtd">
<svg version="1.0" xmlns="http://www.w3.org/2000/svg"
 width="800.000000pt" height="800.000000pt" viewBox="0 0 800.000000 800.000000"
 preserveAspectRatio="xMidYMid meet">
<metadata>
Created by potrace 1.16, written by Peter Selinger 2001-2019
</metadata>
<g transform="translate(0.000000,800.000000) scale(0.100000,-0.100000)"
fill="#000000" stroke="none">
<path d="M4415 7970 c-662 -34 -1150 -120 -1540 -270 -161 -62 -230 -95 -351
-168 -138 -83 -159 -100 -251 -199 -89 -96 -108 -123 -165 -238 -61 -120 -67
-140 -87 -260 -12 -71 -24 -142 -27 -157 l-6 -28 399 0 c425 0 1202 -27 1703
-60 561 -36 1086 -120 1430 -228 125 -40 177 -62 265 -115 104 -62 112 -69
153 -136 l44 -71 -8 -77 c-10 -116 -53 -203 -135 -274 -231 -202 -637 -306
-1339 -344 -146 -8 -348 -15 -450 -15 -277 0 -615 -44 -850 -108 -158 -44
-190 -57 -333 -134 -126 -67 -184 -106 -283 -189 -110 -91 -137 -121 -227
-244 -88 -122 -111 -162 -173 -307 -62 -145 -78 -195 -118 -370 -40 -179 -48
-230 -61 -428 -16 -225 -16 -225 10 -450 25 -221 27 -229 90 -420 62 -186 70
-203 170 -365 l105 -170 147 -133 c138 -124 161 -141 348 -246 186 -105 217
-120 445 -199 238 -83 253 -87 530 -136 228 -39 343 -54 575 -71 272 -21 331
-22 945 -17 583 5 689 8 965 31 660 55 1216 178 1445 321 81 50 103 70 147
132 51 71 52 73 54 151 5 220 -143 391 -426 488 -391 136 -792 187 -1555 199
-809 13 -1274 71 -1581 198 -290 119 -419 267 -419 479 0 70 4 86 34 146 50
99 156 198 271 255 117 57 308 120 465 152 269 56 840 105 1210 105 497 0 803
40 1125 147 142 47 191 69 296 132 274 165 431 354 522 626 74 225 77 277 76
1405 0 659 -4 971 -12 1030 -11 77 -17 92 -61 155 -67 95 -185 170 -376 239
-383 137 -921 210 -1790 241 -505 18 -917 17 -1345 -5z"/>
</g>
</svg>
