<?xml version="1.0" standalone="no"?>
<!DOCTYPE svg PUBLIC "-//W3C//DTD SVG 20010904//EN"
 "http://www.w3.org/TR/2001/REC-SVG-20010904/DTD/svg10.dtd">
<svg version="1.0" xmlns="http://www.w3.org/2000/svg"
 width="800.000000pt" height="800.000000pt" viewBox="0 0 800.000000 800.000000"
 preserveAspectRatio="xMidYMid meet">
<metadata>
Created by potrace 1.16, written by Peter Selinger 2001-2019
</metadata>
<g transform="translate(0.000000,800.000000) scale(0.100000,-0.100000)"
fill="#000000" stroke="none">
<path d="M4600 7979 c-290 -5 -370 -10 -600 -37 -587 -70 -972 -159 -1265
-292 -324 -146 -522 -326 -646 -587 -51 -108 -60 -136 -74 -235 -9 -62 -18
-125 -21 -140 l-6 -28 369 0 c615 0 1623 -50 2108 -105 561 -63 919 -134 1181
-236 105 -41 146 -63 206 -111 68 -53 79 -68 107 -132 31 -70 32 -74 21 -142
-44 -272 -385 -466 -960 -545 -317 -43 -573 -59 -948 -59 -843 -1 -1360 -71
-1732 -235 -165 -73 -291 -198 -331 -328 -38 -125 11 -296 112 -393 159 -153
418 -253 789 -304 446 -62 552 -70 927 -70 669 -1 1131 -43 1538 -142 218 -53
424 -162 518 -275 120 -146 116 -361 -10 -516 -83 -102 -316 -225 -514 -272
-362 -85 -636 -112 -1259 -125 -621 -13 -891 -31 -1175 -76 -345 -56 -551
-121 -705 -224 -96 -65 -153 -127 -199 -218 -27 -53 -31 -72 -31 -137 0 -66 4
-84 34 -143 68 -132 243 -241 511 -318 294 -84 605 -132 1170 -180 252 -22
369 -26 890 -31 l600 -6 280 28 c276 27 284 29 555 100 l275 72 222 112 c216
107 228 115 415 263 189 150 197 157 353 348 158 192 162 198 280 426 119 229
122 234 208 515 85 277 88 291 128 569 40 270 42 304 53 655 11 361 10 379
-15 720 -26 333 -30 363 -84 630 -54 264 -62 295 -153 545 l-96 264 -137 218
c-131 209 -143 225 -305 395 -168 177 -170 179 -373 313 -194 128 -216 140
-440 233 l-236 99 -270 55 -270 55 -330 17 c-239 11 -422 14 -665 10z"/>
</g>
</svg>
