<?xml version="1.0" standalone="no"?>
<!DOCTYPE svg PUBLIC "-//W3C//DTD SVG 20010904//EN"
 "http://www.w3.org/TR/2001/REC-SVG-20010904/DTD/svg10.dtd">
<svg version="1.0" xmlns="http://www.w3.org/2000/svg"
 width="800.000000pt" height="800.000000pt" viewBox="0 0 800.000000 800.000000"
 preserveAspectRatio="xMidYMid meet">
<metadata>
Created by potrace 1.16, written by Peter Selinger 2001-2019
</metadata>
<g transform="translate(0.000000,800.000000) scale(0.100000,-0.100000)"
fill="#000000" stroke="none">
<path d="M3790 7989 c-508 -33 -803 -92 -1087 -217 -327 -145 -577 -424 -660
-737 -71 -268 -48 -649 53 -892 157 -374 503 -621 1039 -742 208 -47 603 -81
946 -81 547 0 1065 -115 1361 -301 367 -231 547 -568 548 -1028 1 -361 90
-751 214 -936 97 -145 185 -225 332 -297 196 -98 420 -121 639 -66 150 37 284
144 407 326 196 291 293 660 373 1422 24 223 25 263 25 865 -1 801 -20 1080
-111 1560 -114 603 -361 1000 -685 1100 -71 22 -96 25 -254 25 -271 0 -392
-23 -566 -105 -146 -69 -192 -101 -249 -177 -90 -118 -125 -234 -125 -407 0
-121 -24 -203 -89 -301 -65 -99 -118 -148 -222 -207 -73 -41 -109 -54 -225
-81 -324 -73 -676 -60 -880 33 -269 123 -448 361 -525 700 -26 111 -49 328
-49 458 l0 97 -42 -1 c-24 -1 -99 -6 -168 -10z"/>
</g>
</svg>
