<?xml version="1.0" standalone="no"?>
<!DOCTYPE svg PUBLIC "-//W3C//DTD SVG 20010904//EN"
 "http://www.w3.org/TR/2001/REC-SVG-20010904/DTD/svg10.dtd">
<svg version="1.0" xmlns="http://www.w3.org/2000/svg"
 width="800.000000pt" height="800.000000pt" viewBox="0 0 800.000000 800.000000"
 preserveAspectRatio="xMidYMid meet">
<metadata>
Created by potrace 1.16, written by Peter Selinger 2001-2019
</metadata>
<g transform="translate(0.000000,800.000000) scale(0.100000,-0.100000)"
fill="#000000" stroke="none">
<path d="M7260 7980 c-1046 -25 -1649 -61 -2370 -141 -500 -55 -583 -68 -1005
-145 -448 -83 -470 -88 -835 -196 l-375 -111 -285 -135 -285 -134 -212 -156
-212 -155 -123 -170 c-68 -94 -127 -176 -131 -184 -4 -7 -28 -104 -53 -215
l-45 -203 11 -215 c11 -203 14 -225 57 -400 42 -170 53 -199 128 -350 71 -142
98 -183 189 -295 83 -102 135 -154 243 -243 118 -96 164 -126 311 -203 161
-84 189 -95 395 -154 136 -39 315 -81 462 -108 221 -41 264 -46 545 -61 168
-9 399 -16 514 -16 431 0 977 -62 1376 -157 358 -85 647 -228 838 -416 82 -80
100 -106 147 -197 42 -84 58 -130 80 -233 24 -116 26 -140 20 -250 -5 -108
-11 -135 -46 -232 -36 -101 -46 -117 -117 -198 -166 -189 -387 -295 -737 -356
-235 -41 -469 -55 -745 -47 -274 9 -749 53 -1080 101 -443 64 -739 96 -1025
110 -377 19 -535 18 -760 -5 -339 -34 -539 -100 -675 -221 -60 -53 -72 -71
-100 -140 -30 -74 -32 -83 -25 -161 6 -69 14 -97 49 -165 36 -73 50 -88 121
-143 245 -190 591 -293 1265 -380 469 -61 828 -80 1580 -87 627 -5 695 -4 965
16 203 15 380 35 590 67 263 41 332 56 560 120 234 65 280 82 460 166 178 83
219 107 365 213 146 106 181 137 297 266 127 142 134 152 213 310 78 156 85
173 131 367 l48 203 1 225 c1 174 -4 265 -20 402 -21 169 -25 185 -88 357 -55
147 -84 208 -159 335 -84 140 -105 167 -210 272 -246 244 -604 431 -1033 539
-171 43 -251 57 -485 84 -270 32 -299 33 -785 40 -415 5 -552 11 -770 30 -356
33 -576 66 -746 114 -283 80 -430 175 -470 304 -17 54 -17 60 0 131 13 57 30
93 68 148 117 169 366 377 576 482 300 150 767 283 1147 327 273 32 648 59
815 59 293 1 650 26 835 59 335 59 632 185 838 354 300 246 443 544 486 1015
9 100 16 181 16 181 0 -1 -331 -10 -735 -19z"/>
</g>
</svg>
