<?xml version="1.0" standalone="no"?>
<!DOCTYPE svg PUBLIC "-//W3C//DTD SVG 20010904//EN"
 "http://www.w3.org/TR/2001/REC-SVG-20010904/DTD/svg10.dtd">
<svg version="1.0" xmlns="http://www.w3.org/2000/svg"
 width="800.000000pt" height="800.000000pt" viewBox="0 0 800.000000 800.000000"
 preserveAspectRatio="xMidYMid meet">
<metadata>
Created by potrace 1.16, written by Peter Selinger 2001-2019
</metadata>
<g transform="translate(0.000000,800.000000) scale(0.100000,-0.100000)"
fill="#000000" stroke="none">
<path d="M6250 7880 c-1498 -297 -2640 -639 -3460 -1035 -264 -127 -339 -169
-560 -311 -239 -153 -267 -174 -438 -331 -170 -157 -190 -179 -307 -343 -363
-506 -612 -1222 -685 -1970 -25 -253 -22 -502 11 -889 47 -556 129 -912 293
-1275 113 -250 225 -424 375 -585 99 -106 137 -138 262 -222 203 -135 388
-218 604 -270 608 -147 1835 -193 2650 -100 693 79 988 150 1319 317 300 153
529 331 756 588 187 213 392 588 462 846 56 208 77 399 62 585 -10 122 -16
156 -54 263 -117 340 -395 659 -794 912 -294 185 -578 288 -886 319 -143 15
-167 15 -310 0 -319 -34 -629 -148 -902 -330 -186 -125 -340 -236 -473 -343
-219 -176 -314 -275 -355 -371 -18 -43 -18 -48 -3 -79 12 -27 25 -37 57 -45
26 -7 274 -12 696 -14 621 -4 659 -5 727 -24 39 -11 96 -34 125 -51 126 -72
233 -263 257 -457 34 -283 21 -408 -51 -527 -39 -63 -50 -73 -123 -113 -149
-80 -364 -96 -678 -49 -194 28 -423 90 -792 211 -424 140 -748 327 -986 570
-104 107 -122 131 -189 252 -62 114 -78 154 -106 265 -31 121 -34 143 -34 291
l0 160 49 185 c76 285 169 488 337 740 560 836 1625 1812 3319 3040 215 155
394 286 400 291 16 15 -17 10 -575 -101z"/>
</g>
</svg>
