<?xml version="1.0" standalone="no"?>
<!DOCTYPE svg PUBLIC "-//W3C//DTD SVG 20010904//EN"
 "http://www.w3.org/TR/2001/REC-SVG-20010904/DTD/svg10.dtd">
<svg version="1.0" xmlns="http://www.w3.org/2000/svg"
 width="800.000000pt" height="800.000000pt" viewBox="0 0 800.000000 800.000000"
 preserveAspectRatio="xMidYMid meet">
<metadata>
Created by potrace 1.16, written by Peter Selinger 2001-2019
</metadata>
<g transform="translate(0.000000,800.000000) scale(0.100000,-0.100000)"
fill="#000000" stroke="none">
<path d="M5900 7909 c-1282 -117 -1668 -163 -2725 -325 -399 -61 -1028 -208
-1285 -301 -181 -65 -337 -153 -417 -235 -91 -93 -103 -214 -31 -314 44 -61
146 -125 258 -162 376 -123 666 -157 1475 -172 1064 -19 1358 -47 1760 -167
213 -63 400 -180 460 -288 78 -138 66 -272 -40 -490 -107 -218 -243 -379 -445
-524 -197 -142 -362 -213 -670 -289 -113 -28 -245 -58 -295 -67 -194 -35 -551
-143 -670 -202 -238 -120 -350 -242 -362 -397 -6 -67 5 -98 55 -164 64 -83
266 -187 497 -253 156 -45 489 -117 647 -140 385 -55 567 -102 783 -204 366
-172 565 -393 711 -788 67 -182 80 -285 99 -741 16 -397 28 -517 71 -686 42
-169 76 -240 163 -333 91 -98 254 -116 389 -44 309 168 515 594 711 1472 83
370 140 763 165 1140 75 1100 -34 2666 -307 4425 l-52 335 -945 -86z"/>
</g>
</svg>
