<?xml version="1.0" standalone="no"?>
<!DOCTYPE svg PUBLIC "-//W3C//DTD SVG 20010904//EN"
 "http://www.w3.org/TR/2001/REC-SVG-20010904/DTD/svg10.dtd">
<svg version="1.0" xmlns="http://www.w3.org/2000/svg"
 width="800.000000pt" height="800.000000pt" viewBox="0 0 800.000000 800.000000"
 preserveAspectRatio="xMidYMid meet">
<metadata>
Created by potrace 1.16, written by Peter Selinger 2001-2019
</metadata>
<g transform="translate(0.000000,800.000000) scale(0.100000,-0.100000)"
fill="#000000" stroke="none">
<path d="M3765 7318 c-286 -23 -492 -62 -738 -140 -354 -111 -559 -232 -730
-431 -227 -264 -365 -539 -476 -949 -162 -598 -221 -1144 -221 -2033 0 -299 3
-357 30 -602 26 -243 36 -296 90 -514 53 -211 71 -268 137 -419 102 -236 101
-233 224 -410 98 -139 124 -168 252 -283 139 -125 146 -130 322 -219 167 -85
193 -95 370 -140 183 -47 200 -50 440 -66 246 -17 255 -17 520 5 528 42 850
105 1302 254 218 72 413 174 599 314 258 194 394 392 468 679 31 121 36 156
36 254 0 296 -54 506 -156 612 -48 49 -61 56 -131 75 -71 18 -87 19 -183 9
-264 -29 -553 -193 -1085 -614 -408 -322 -446 -351 -587 -443 -305 -199 -526
-298 -698 -313 -167 -14 -268 61 -321 243 -25 83 -29 112 -29 222 0 196 18
288 78 407 168 330 453 480 1012 534 252 25 427 25 680 0 139 -14 276 -20 425
-20 l220 0 155 61 155 62 105 103 105 104 65 163 65 162 20 210 20 210 -26
270 c-23 229 -36 315 -89 565 -89 420 -238 911 -443 1458 l-154 413 -92 -368
c-181 -725 -363 -1257 -577 -1686 -90 -179 -125 -237 -225 -372 -105 -142
-130 -170 -229 -250 -104 -84 -119 -93 -223 -128 l-112 -38 -125 6 -125 7
-134 70 c-237 125 -485 357 -588 549 -42 77 -53 109 -63 181 -28 190 18 305
194 486 149 153 306 245 792 465 417 189 580 280 749 417 158 127 220 230 216
353 -4 115 -98 213 -307 320 -281 145 -662 220 -979 195z"/>
</g>
</svg>
