<?xml version="1.0" standalone="no"?>
<!DOCTYPE svg PUBLIC "-//W3C//DTD SVG 20010904//EN"
 "http://www.w3.org/TR/2001/REC-SVG-20010904/DTD/svg10.dtd">
<svg version="1.0" xmlns="http://www.w3.org/2000/svg"
 width="800.000000pt" height="800.000000pt" viewBox="0 0 800.000000 800.000000"
 preserveAspectRatio="xMidYMid meet">
<metadata>
Created by potrace 1.16, written by Peter Selinger 2001-2019
</metadata>
<g transform="translate(0.000000,800.000000) scale(0.100000,-0.100000)"
fill="#000000" stroke="none">
<path d="M7495 7985 c-1256 -31 -2248 -138 -2995 -326 -602 -150 -1039 -331
-1420 -586 -183 -122 -203 -139 -326 -269 -105 -112 -149 -168 -223 -286 -86
-137 -96 -159 -147 -315 -47 -147 -56 -190 -73 -343 -45 -393 -35 -665 35
-945 115 -464 359 -789 809 -1080 334 -216 877 -381 1585 -480 350 -50 722
-26 990 62 228 76 442 249 535 433 57 113 125 376 125 484 0 73 -23 184 -49
234 -73 142 -284 226 -562 223 -134 -2 -344 -25 -534 -58 -143 -25 -183 -28
-380 -27 -271 0 -377 18 -507 86 -138 72 -267 221 -309 360 -44 146 -52 214
-46 398 6 204 28 303 98 442 97 193 188 295 379 424 218 148 446 235 832 319
159 34 259 33 403 -4 131 -33 234 -92 361 -207 150 -136 299 -419 384 -727
137 -503 184 -975 194 -1932 6 -541 14 -775 41 -1155 48 -666 149 -1186 276
-1418 99 -179 191 -266 304 -286 59 -11 61 -11 121 24 58 33 64 40 112 135
104 206 181 529 251 1050 93 689 178 1960 196 2940 3 171 10 540 16 820 6 281
14 851 17 1268 4 416 7 756 7 755 0 0 -225 -7 -500 -13z"/>
</g>
</svg>
