<?xml version="1.0" standalone="no"?>
<!DOCTYPE svg PUBLIC "-//W3C//DTD SVG 20010904//EN"
 "http://www.w3.org/TR/2001/REC-SVG-20010904/DTD/svg10.dtd">
<svg version="1.0" xmlns="http://www.w3.org/2000/svg"
 width="800.000000pt" height="800.000000pt" viewBox="0 0 800.000000 800.000000"
 preserveAspectRatio="xMidYMid meet">
<metadata>
Created by potrace 1.16, written by Peter Selinger 2001-2019
</metadata>
<g transform="translate(0.000000,800.000000) scale(0.100000,-0.100000)"
fill="#000000" stroke="none">
<path d="M4480 7646 c-256 -42 -492 -268 -852 -816 -161 -244 -369 -628 -550
-1014 -162 -345 -558 -1250 -728 -1661 -59 -143 -163 -384 -230 -535 -67 -151
-182 -417 -255 -590 -73 -173 -188 -441 -256 -595 -136 -308 -468 -1098 -464
-1103 1 -2 71 2 154 8 293 22 569 127 829 315 143 104 274 249 426 470 140
203 245 404 434 830 88 198 199 443 247 545 48 102 118 255 157 340 152 336
472 941 636 1205 103 166 209 286 315 359 70 48 94 58 161 71 77 15 81 15 160
-9 68 -21 94 -36 163 -93 153 -126 340 -408 433 -654 88 -231 78 -394 -34
-522 -103 -120 -298 -179 -641 -192 -690 -28 -1005 -160 -1123 -473 -27 -72
-31 -95 -32 -185 -2 -250 105 -409 360 -537 174 -87 424 -131 825 -145 293
-10 525 -26 676 -45 380 -49 713 -182 940 -376 63 -54 107 -106 202 -239 270
-378 352 -457 595 -579 165 -82 299 -109 437 -86 100 16 156 55 200 142 32 61
34 73 36 165 1 118 -24 263 -79 454 -78 270 -155 461 -642 1589 -103 239 -215
501 -249 581 -107 257 -545 1267 -631 1454 -117 257 -345 692 -463 885 -414
675 -705 984 -973 1035 -90 17 -84 17 -184 1z"/>
</g>
</svg>
