<?xml version="1.0" standalone="no"?>
<!DOCTYPE svg PUBLIC "-//W3C//DTD SVG 20010904//EN"
 "http://www.w3.org/TR/2001/REC-SVG-20010904/DTD/svg10.dtd">
<svg version="1.0" xmlns="http://www.w3.org/2000/svg"
 width="800.000000pt" height="800.000000pt" viewBox="0 0 800.000000 800.000000"
 preserveAspectRatio="xMidYMid meet">
<metadata>
Created by potrace 1.16, written by Peter Selinger 2001-2019
</metadata>
<g transform="translate(0.000000,800.000000) scale(0.100000,-0.100000)"
fill="#000000" stroke="none">
<path d="M7725 7744 c-314 -298 -747 -664 -1095 -924 -305 -229 -631 -427
-1000 -608 -470 -229 -830 -336 -1485 -442 -536 -87 -717 -132 -1011 -253
-214 -88 -393 -242 -440 -377 l-19 -55 -3 150 c-2 101 4 223 18 370 21 205 26
234 82 435 57 204 65 224 152 387 85 161 98 179 214 306 122 134 125 136 275
223 84 48 155 89 160 91 4 2 90 29 192 58 181 53 188 54 402 69 120 8 317 18
438 21 525 14 808 39 1070 96 290 62 467 135 586 240 56 50 68 67 81 112 l14
54 -40 46 c-35 40 -55 51 -137 81 -209 75 -614 127 -1124 145 -652 23 -919 24
-1300 2 l-360 -21 -299 -85 -299 -84 -252 -151 -252 -151 -199 -210 -199 -210
-144 -267 -144 -267 -95 -330 -95 -330 -41 -410 -41 -410 16 -445 17 -445 79
-360 80 -360 144 -307 144 -307 210 -245 209 -245 276 -186 275 -185 339 -120
338 -119 407 -61 406 -60 451 0 c642 0 1107 30 1571 100 276 42 370 61 595
121 263 69 272 72 470 168 200 97 205 101 332 212 l128 114 71 145 71 145 10
165 11 165 -36 160 c-36 159 -36 161 -117 295 -233 389 -603 644 -1229 845
-147 48 -326 97 -481 131 -616 137 -963 237 -1051 303 -29 22 -56 42 -58 45
-2 2 1 22 8 44 11 40 14 41 108 76 129 48 381 98 696 136 206 25 310 44 506
90 l247 59 218 110 219 110 174 164 173 164 135 209 135 209 100 260 99 260
60 310 61 310 21 388 c12 213 22 387 22 387 0 0 -121 -115 -270 -256z m-4853
-3135 c291 -267 956 -570 1818 -829 338 -101 644 -212 786 -283 97 -49 115
-61 142 -104 l32 -48 -33 -32 c-28 -28 -48 -36 -147 -57 -185 -40 -478 -59
-785 -51 -222 5 -295 11 -503 41 -241 35 -243 35 -444 110 -110 40 -213 82
-228 91 -14 10 -90 62 -167 117 -138 96 -144 102 -266 255 -119 148 -130 166
-214 346 l-90 190 -46 246 c-26 136 -47 253 -47 260 0 8 23 -27 50 -77 41 -75
65 -105 142 -175z"/>
</g>
</svg>
