<?xml version="1.0" standalone="no"?>
<!DOCTYPE svg PUBLIC "-//W3C//DTD SVG 20010904//EN"
 "http://www.w3.org/TR/2001/REC-SVG-20010904/DTD/svg10.dtd">
<svg version="1.0" xmlns="http://www.w3.org/2000/svg"
 width="800.000000pt" height="800.000000pt" viewBox="0 0 800.000000 800.000000"
 preserveAspectRatio="xMidYMid meet">
<metadata>
Created by potrace 1.16, written by Peter Selinger 2001-2019
</metadata>
<g transform="translate(0.000000,800.000000) scale(0.100000,-0.100000)"
fill="#000000" stroke="none">
<path d="M6875 7983 c-1107 -29 -2015 -132 -2745 -312 -439 -108 -751 -209
-1020 -329 -615 -274 -1036 -596 -1355 -1037 -219 -302 -343 -641 -400 -1091
-64 -507 -13 -1049 149 -1591 135 -449 387 -873 687 -1154 490 -458 1183 -757
2014 -868 473 -63 1549 -114 2095 -99 533 14 776 42 1095 124 108 28 239 113
274 179 43 81 19 170 -77 294 -126 162 -265 265 -467 346 -237 94 -274 104
-640 164 -158 26 -231 32 -595 46 -570 22 -685 36 -915 112 -225 74 -380 166
-525 312 -196 197 -304 400 -384 726 -48 198 -61 334 -61 660 1 284 2 307 28
440 64 336 182 574 390 791 120 125 227 204 384 283 235 117 397 162 752 207
242 30 300 34 510 34 420 0 687 54 955 192 198 102 346 270 415 469 25 72 51
250 51 350 0 139 -64 472 -127 654 l-38 110 -450 -12z"/>
</g>
</svg>
