<?xml version="1.0" standalone="no"?>
<!DOCTYPE svg PUBLIC "-//W3C//DTD SVG 20010904//EN"
 "http://www.w3.org/TR/2001/REC-SVG-20010904/DTD/svg10.dtd">
<svg version="1.0" xmlns="http://www.w3.org/2000/svg"
 width="800.000000pt" height="800.000000pt" viewBox="0 0 800.000000 800.000000"
 preserveAspectRatio="xMidYMid meet">
<metadata>
Created by potrace 1.16, written by Peter Selinger 2001-2019
</metadata>
<g transform="translate(0.000000,800.000000) scale(0.100000,-0.100000)"
fill="#000000" stroke="none">
<path d="M2898 7975 c-85 -18 -105 -27 -182 -79 -285 -196 -484 -698 -601
-1514 -97 -682 -144 -1773 -110 -2547 15 -336 20 -398 61 -675 40 -276 52
-331 120 -578 72 -261 80 -282 183 -500 100 -211 116 -240 239 -407 130 -177
135 -182 295 -314 156 -129 169 -137 357 -228 l195 -95 239 -54 238 -54 272 0
c251 0 291 2 541 34 233 30 308 44 551 105 789 197 1334 427 1779 752 440 322
728 737 849 1224 72 293 76 382 76 1776 l0 1167 -25 53 c-60 131 -297 297
-810 565 -410 214 -843 409 -2040 921 -493 211 -1137 472 -1132 459 3 -6 52
-119 110 -252 445 -1019 930 -1715 1387 -1988 161 -97 273 -131 495 -151 212
-20 324 -48 440 -110 354 -192 529 -607 560 -1335 34 -773 -250 -1354 -843
-1724 -363 -226 -899 -407 -1342 -452 -153 -15 -195 -16 -330 -5 -145 11 -164
15 -304 63 -143 49 -153 55 -260 137 -98 77 -120 100 -197 208 -75 105 -95
144 -151 285 -60 149 -68 180 -101 368 -90 515 -70 1022 83 2070 74 512 121
1076 121 1455 -1 326 -24 586 -68 768 -100 416 -240 596 -504 652 l-95 21 -96
-21z"/>
</g>
</svg>
