<?xml version="1.0" standalone="no"?>
<!DOCTYPE svg PUBLIC "-//W3C//DTD SVG 20010904//EN"
 "http://www.w3.org/TR/2001/REC-SVG-20010904/DTD/svg10.dtd">
<svg version="1.0" xmlns="http://www.w3.org/2000/svg"
 width="800.000000pt" height="800.000000pt" viewBox="0 0 800.000000 800.000000"
 preserveAspectRatio="xMidYMid meet">
<metadata>
Created by potrace 1.16, written by Peter Selinger 2001-2019
</metadata>
<g transform="translate(0.000000,800.000000) scale(0.100000,-0.100000)"
fill="#000000" stroke="none">
<path d="M3615 7585 c-130 -11 -130 -11 -240 -67 -102 -51 -117 -63 -201 -154
-186 -203 -317 -526 -394 -972 -96 -555 -131 -1097 -110 -1719 9 -289 15 -362
50 -619 38 -276 44 -302 114 -540 69 -235 79 -261 181 -464 100 -199 118 -228
247 -395 128 -166 152 -192 311 -328 171 -147 173 -149 382 -256 209 -108 211
-109 450 -174 222 -60 259 -67 485 -92 245 -28 246 -28 770 -22 727 8 1042 27
1565 92 144 18 381 71 502 113 43 15 108 45 144 67 53 32 71 50 93 90 32 63
33 107 1 177 -50 109 -194 204 -380 248 -303 72 -451 88 -910 95 -484 8 -635
19 -945 71 -297 49 -425 81 -615 149 -171 61 -286 118 -420 205 -188 123 -245
195 -245 309 0 111 46 174 215 293 143 100 333 186 774 349 319 117 475 216
534 337 21 42 22 52 13 93 -29 127 -266 279 -603 390 -463 152 -826 333 -996
497 -27 26 -62 72 -80 102 -28 49 -32 63 -32 135 0 67 4 86 25 120 41 68 132
156 191 186 227 114 620 117 1214 9 154 -28 358 -71 453 -96 95 -25 261 -63
368 -84 178 -36 209 -40 357 -40 314 -1 495 53 693 205 77 60 101 86 161 175
140 211 209 450 241 838 l17 202 -375 0 c-418 0 -630 8 -1244 45 -886 54
-1608 164 -2199 336 -78 23 -207 56 -287 73 -142 30 -148 31 -275 21z"/>
</g>
</svg>
