<?xml version="1.0" standalone="no"?>
<!DOCTYPE svg PUBLIC "-//W3C//DTD SVG 20010904//EN"
 "http://www.w3.org/TR/2001/REC-SVG-20010904/DTD/svg10.dtd">
<svg version="1.0" xmlns="http://www.w3.org/2000/svg"
 width="800.000000pt" height="800.000000pt" viewBox="0 0 800.000000 800.000000"
 preserveAspectRatio="xMidYMid meet">
<metadata>
Created by potrace 1.16, written by Peter Selinger 2001-2019
</metadata>
<g transform="translate(0.000000,800.000000) scale(0.100000,-0.100000)"
fill="#000000" stroke="none">
<path d="M7505 7979 c-442 -16 -529 -22 -895 -63 -329 -36 -476 -58 -780 -115
-362 -67 -386 -73 -705 -174 -247 -78 -404 -135 -625 -227 -292 -121 -297
-124 -555 -286 -235 -148 -280 -181 -473 -346 -202 -174 -221 -194 -392 -403
-172 -210 -186 -231 -315 -460 -132 -235 -137 -247 -230 -514 -94 -270 -95
-276 -150 -580 -44 -249 -59 -361 -79 -606 -52 -624 -74 -1243 -57 -1595 26
-513 56 -752 135 -1066 144 -571 500 -783 976 -582 75 32 199 126 281 214 80
86 187 304 238 484 76 271 107 513 116 900 9 383 28 553 82 727 91 298 198
487 370 654 174 171 356 276 633 367 274 90 579 127 1150 137 504 9 762 27
1175 85 125 18 337 89 431 145 138 82 178 163 137 275 -21 57 -54 93 -123 133
-183 106 -380 151 -920 211 -134 15 -625 30 -1289 41 -383 6 -614 22 -896 60
-198 27 -273 44 -439 102 -182 63 -239 101 -282 185 -69 136 18 301 197 376
42 17 139 49 215 71 179 52 414 77 834 91 442 14 584 42 920 182 437 183 991
617 1419 1113 112 130 403 492 388 484 -1 -1 -222 -10 -492 -20z"/>
</g>
</svg>
