<?xml version="1.0" standalone="no"?>
<!DOCTYPE svg PUBLIC "-//W3C//DTD SVG 20010904//EN"
 "http://www.w3.org/TR/2001/REC-SVG-20010904/DTD/svg10.dtd">
<svg version="1.0" xmlns="http://www.w3.org/2000/svg"
 width="800.000000pt" height="800.000000pt" viewBox="0 0 800.000000 800.000000"
 preserveAspectRatio="xMidYMid meet">
<metadata>
Created by potrace 1.16, written by Peter Selinger 2001-2019
</metadata>
<g transform="translate(0.000000,800.000000) scale(0.100000,-0.100000)"
fill="#000000" stroke="none">
<path d="M4106 7960 c-286 -28 -331 -34 -607 -95 l-298 -66 -258 -112 c-252
-110 -263 -116 -473 -259 -214 -146 -216 -147 -385 -328 l-170 -181 -129 -222
c-121 -209 -134 -237 -223 -477 -93 -252 -95 -259 -150 -550 l-56 -295 -11
-355 c-11 -346 -10 -364 15 -690 l27 -335 67 -275 c64 -259 74 -290 173 -525
l104 -250 149 -210 149 -210 193 -173 192 -172 232 -131 c219 -123 245 -135
494 -224 l263 -95 311 -55 c309 -54 311 -55 660 -70 l350 -15 342 30 342 30
308 77 308 77 260 126 260 127 219 170 218 171 183 228 182 229 140 270 140
270 101 320 100 320 61 380 c57 362 61 398 81 755 11 206 22 388 24 404 l3 28
-421 -6 c-1114 -18 -1906 -78 -2550 -196 -418 -76 -727 -196 -891 -345 -75
-69 -82 -78 -109 -156 -53 -153 -30 -308 70 -458 53 -79 115 -131 218 -183
156 -79 312 -108 569 -108 119 0 367 23 537 51 126 20 356 39 485 39 380 0
595 -78 702 -254 34 -56 37 -66 41 -160 4 -100 4 -103 -31 -171 -116 -231
-493 -363 -1232 -432 -134 -12 -283 -16 -585 -16 l-405 0 -195 32 c-272 44
-461 102 -660 202 -134 67 -172 91 -277 181 -238 200 -411 479 -499 803 -65
237 -94 469 -94 750 0 214 1 227 40 435 35 191 47 234 104 382 56 145 77 185
164 315 86 129 116 164 228 269 114 106 147 131 289 212 351 201 749 318 1255
366 210 21 354 27 815 36 780 14 1309 38 1570 71 436 54 736 141 812 236 44
56 47 115 8 167 -103 136 -567 231 -1365 281 -447 28 -728 35 -1455 40 l-720
4 -309 -29z"/>
</g>
</svg>
