<?xml version="1.0" standalone="no"?>
<!DOCTYPE svg PUBLIC "-//W3C//DTD SVG 20010904//EN"
 "http://www.w3.org/TR/2001/REC-SVG-20010904/DTD/svg10.dtd">
<svg version="1.0" xmlns="http://www.w3.org/2000/svg"
 width="800.000000pt" height="800.000000pt" viewBox="0 0 800.000000 800.000000"
 preserveAspectRatio="xMidYMid meet">
<metadata>
Created by potrace 1.16, written by Peter Selinger 2001-2019
</metadata>
<g transform="translate(0.000000,800.000000) scale(0.100000,-0.100000)"
fill="#000000" stroke="none">
<path d="M7825 7989 c-278 -22 -454 -69 -650 -174 -188 -102 -310 -235 -409
-449 -63 -136 -91 -274 -111 -551 -22 -304 -49 -412 -141 -566 -51 -84 -81
-121 -151 -186 -259 -236 -540 -350 -1034 -417 -626 -86 -1441 -36 -1852 113
-212 77 -356 155 -464 253 -141 127 -220 234 -270 371 -48 128 -83 323 -83
465 0 106 -24 365 -44 487 -42 250 -132 426 -274 538 -116 91 -228 125 -367
112 -61 -6 -78 -12 -137 -52 -161 -109 -270 -385 -374 -943 -36 -195 -57 -395
-98 -970 -57 -798 -39 -2190 40 -2960 70 -688 173 -1097 326 -1290 33 -42 88
-96 125 -122 66 -47 68 -48 143 -48 155 0 248 32 351 122 147 127 208 256 275
581 21 101 26 158 30 337 9 396 60 587 209 780 192 250 460 390 940 494 385
83 1095 97 1560 30 198 -28 424 -90 615 -168 328 -135 535 -356 633 -676 34
-113 35 -119 42 -345 15 -532 104 -843 288 -1011 82 -76 220 -140 317 -148
l75 -7 68 48 c66 46 70 52 131 173 56 111 69 148 115 335 102 416 195 1127
236 1810 56 916 94 2123 104 3258 l6 787 -30 -1 c-16 -1 -79 -6 -140 -10z"/>
</g>
</svg>
