<?xml version="1.0" standalone="no"?>
<!DOCTYPE svg PUBLIC "-//W3C//DTD SVG 20010904//EN"
 "http://www.w3.org/TR/2001/REC-SVG-20010904/DTD/svg10.dtd">
<svg version="1.0" xmlns="http://www.w3.org/2000/svg"
 width="800.000000pt" height="800.000000pt" viewBox="0 0 800.000000 800.000000"
 preserveAspectRatio="xMidYMid meet">
<metadata>
Created by potrace 1.16, written by Peter Selinger 2001-2019
</metadata>
<g transform="translate(0.000000,800.000000) scale(0.100000,-0.100000)"
fill="#000000" stroke="none">
<path d="M7025 7993 c-1421 -10 -2900 -88 -3775 -198 -774 -98 -1159 -190
-1425 -341 l-130 -73 -49 -85 -49 -84 2 -87 c4 -179 124 -407 266 -509 192
-138 420 -204 760 -221 386 -19 543 -46 710 -125 218 -102 359 -238 451 -436
90 -194 133 -321 165 -489 27 -145 31 -186 36 -436 5 -220 2 -313 -11 -460
-40 -424 -182 -774 -389 -961 -218 -197 -486 -288 -853 -288 -291 0 -579 -29
-763 -77 -192 -49 -335 -150 -359 -253 -22 -94 -18 -114 36 -158 202 -169 728
-253 1887 -304 390 -17 2067 -17 2465 0 765 33 1180 74 1603 158 147 29 266
79 335 141 l43 38 0 78 c0 81 -8 102 -69 185 -45 60 -212 139 -357 168 -38 8
-146 16 -240 20 -94 3 -201 12 -240 21 -150 33 -316 167 -406 326 -104 184
-193 501 -228 807 -45 400 -53 554 -46 915 13 722 62 1057 207 1423 84 213
215 375 363 450 62 31 138 44 325 57 175 12 322 58 420 132 181 135 262 300
279 571 l6 102 -325 -2 c-179 -2 -469 -4 -645 -5z"/>
</g>
</svg>
