<?xml version="1.0" standalone="no"?>
<!DOCTYPE svg PUBLIC "-//W3C//DTD SVG 20010904//EN"
 "http://www.w3.org/TR/2001/REC-SVG-20010904/DTD/svg10.dtd">
<svg version="1.0" xmlns="http://www.w3.org/2000/svg"
 width="800.000000pt" height="800.000000pt" viewBox="0 0 800.000000 800.000000"
 preserveAspectRatio="xMidYMid meet">
<metadata>
Created by potrace 1.16, written by Peter Selinger 2001-2019
</metadata>
<g transform="translate(0.000000,800.000000) scale(0.100000,-0.100000)"
fill="#000000" stroke="none">
<path d="M7910 7993 c-659 -20 -1137 -137 -1545 -378 -266 -158 -522 -414
-668 -670 -132 -232 -206 -421 -276 -706 -63 -260 -88 -492 -97 -899 -10 -484
-55 -904 -130 -1193 -103 -400 -272 -727 -500 -967 -118 -124 -199 -187 -352
-274 -163 -94 -243 -126 -447 -177 -175 -44 -148 -42 -825 -69 -462 -19 -894
-85 -1135 -175 -188 -70 -294 -134 -413 -249 -128 -123 -192 -279 -192 -466 0
-86 3 -98 38 -174 54 -114 127 -190 261 -270 282 -170 631 -270 1211 -345 279
-37 926 -81 1196 -82 137 -1 335 -4 439 -8 230 -7 497 9 690 42 376 65 749
240 1090 513 249 199 438 417 642 739 366 578 683 1502 847 2465 84 487 162
1187 195 1750 36 588 43 766 50 1188 3 226 6 411 6 410 0 -1 -38 -3 -85 -5z"/>
</g>
</svg>
