<?xml version="1.0" standalone="no"?>
<!DOCTYPE svg PUBLIC "-//W3C//DTD SVG 20010904//EN"
 "http://www.w3.org/TR/2001/REC-SVG-20010904/DTD/svg10.dtd">
<svg version="1.0" xmlns="http://www.w3.org/2000/svg"
 width="800.000000pt" height="800.000000pt" viewBox="0 0 800.000000 800.000000"
 preserveAspectRatio="xMidYMid meet">
<metadata>
Created by potrace 1.16, written by Peter Selinger 2001-2019
</metadata>
<g transform="translate(0.000000,800.000000) scale(0.100000,-0.100000)"
fill="#000000" stroke="none">
<path d="M2535 7975 c-361 -57 -589 -240 -802 -643 -185 -353 -317 -938 -374
-1657 -19 -246 -22 -353 -22 -880 0 -527 3 -634 22 -880 41 -520 133 -1036
241 -1346 166 -474 390 -761 700 -896 99 -43 130 -52 225 -62 394 -45 819 47
1065 229 152 113 243 237 322 440 55 142 76 270 83 510 10 318 43 428 161 540
47 44 56 49 117 55 140 15 224 -11 459 -141 154 -85 316 -209 583 -445 243
-216 625 -526 835 -679 198 -145 469 -309 620 -375 219 -96 391 -145 511 -145
103 0 142 8 196 40 70 42 83 132 39 285 -29 99 -75 192 -179 360 -173 280
-295 447 -552 755 -409 490 -626 871 -732 1285 l-46 180 0 290 0 290 46 180
c81 316 248 653 474 957 l125 168 -1 137 c-3 257 -61 486 -160 633 -34 51 -58
73 -108 102 -57 33 -72 37 -141 39 -101 2 -204 -27 -346 -98 -202 -101 -387
-239 -716 -532 -201 -178 -463 -355 -627 -422 -102 -42 -188 -55 -283 -44 -80
9 -144 58 -193 147 -54 97 -74 208 -82 443 -4 134 -13 236 -27 310 -52 280
-197 523 -388 647 -238 156 -384 199 -775 231 -127 11 -152 10 -270 -8z"/>
</g>
</svg>
