<?xml version="1.0" standalone="no"?>
<!DOCTYPE svg PUBLIC "-//W3C//DTD SVG 20010904//EN"
 "http://www.w3.org/TR/2001/REC-SVG-20010904/DTD/svg10.dtd">
<svg version="1.0" xmlns="http://www.w3.org/2000/svg"
 width="800.000000pt" height="800.000000pt" viewBox="0 0 800.000000 800.000000"
 preserveAspectRatio="xMidYMid meet">
<metadata>
Created by potrace 1.16, written by Peter Selinger 2001-2019
</metadata>
<g transform="translate(0.000000,800.000000) scale(0.100000,-0.100000)"
fill="#000000" stroke="none">
<path d="M2585 7988 c-161 -14 -322 -80 -460 -189 -328 -260 -548 -772 -674
-1569 -84 -534 -121 -1078 -121 -1795 0 -411 7 -529 50 -880 33 -262 121 -651
187 -825 145 -384 200 -496 356 -730 188 -282 375 -465 718 -703 271 -188 849
-392 1264 -446 408 -53 690 -63 1235 -41 295 11 425 21 720 55 235 26 270 32
565 96 486 105 805 241 1110 476 143 110 233 219 315 383 85 169 126 314 139
488 l6 92 -155 0 c-174 0 -595 23 -830 44 -476 45 -1111 195 -1446 344 -410
182 -677 361 -934 629 -289 301 -479 676 -569 1124 -44 218 -59 406 -65 789
-6 348 -37 802 -71 1021 -19 127 -89 453 -119 559 -34 120 -110 319 -163 425
-228 452 -615 691 -1058 653z"/>
</g>
</svg>
