<?xml version="1.0" standalone="no"?>
<!DOCTYPE svg PUBLIC "-//W3C//DTD SVG 20010904//EN"
 "http://www.w3.org/TR/2001/REC-SVG-20010904/DTD/svg10.dtd">
<svg version="1.0" xmlns="http://www.w3.org/2000/svg"
 width="800.000000pt" height="800.000000pt" viewBox="0 0 800.000000 800.000000"
 preserveAspectRatio="xMidYMid meet">
<metadata>
Created by potrace 1.16, written by Peter Selinger 2001-2019
</metadata>
<g transform="translate(0.000000,800.000000) scale(0.100000,-0.100000)"
fill="#000000" stroke="none">
<path d="M7690 7774 c-816 -604 -1514 -1009 -2192 -1273 -516 -200 -890 -280
-1314 -281 -204 0 -219 1 -420 39 -191 36 -223 45 -380 109 -200 81 -408 201
-640 370 -184 132 -340 207 -539 256 l-130 32 -110 -16 c-102 -15 -117 -21
-204 -71 -79 -47 -105 -69 -168 -145 -161 -193 -268 -471 -353 -919 -77 -407
-106 -1000 -97 -1935 9 -776 29 -1227 78 -1705 76 -750 223 -1239 397 -1317
45 -20 160 -23 218 -5 96 28 226 197 286 367 54 155 77 261 106 485 39 295 51
472 62 940 10 408 25 549 86 788 44 174 149 357 255 447 215 179 428 186 878
26 425 -151 647 -192 987 -183 201 5 202 5 423 87 38 15 130 65 250 139 136
83 206 90 281 31 70 -56 148 -225 184 -400 41 -202 66 -524 66 -865 0 -313 31
-661 76 -875 49 -229 148 -484 229 -591 135 -177 245 -269 405 -339 103 -45
256 -78 373 -81 86 -1 106 2 186 31 86 31 95 37 181 124 85 84 97 102 167 241
211 417 363 1093 487 2170 51 435 91 993 130 1810 35 705 48 1202 55 2028 3
389 6 707 6 707 0 -1 -137 -102 -305 -226z"/>
</g>
</svg>
