<?xml version="1.0" standalone="no"?>
<!DOCTYPE svg PUBLIC "-//W3C//DTD SVG 20010904//EN"
 "http://www.w3.org/TR/2001/REC-SVG-20010904/DTD/svg10.dtd">
<svg version="1.0" xmlns="http://www.w3.org/2000/svg"
 width="800.000000pt" height="800.000000pt" viewBox="0 0 800.000000 800.000000"
 preserveAspectRatio="xMidYMid meet">
<metadata>
Created by potrace 1.16, written by Peter Selinger 2001-2019
</metadata>
<g transform="translate(0.000000,800.000000) scale(0.100000,-0.100000)"
fill="#000000" stroke="none">
<path d="M7840 7190 c-41 -4 -140 -20 -220 -35 -126 -23 -159 -33 -256 -81
-250 -122 -400 -275 -528 -537 -82 -169 -108 -257 -145 -497 -23 -148 -31
-246 -36 -405 -7 -220 -17 -293 -62 -430 -31 -96 -84 -168 -168 -231 -176
-131 -455 -110 -883 67 -418 173 -833 428 -1527 938 -387 284 -771 513 -1005
600 -196 72 -388 118 -535 126 -108 6 -131 4 -228 -19 -308 -74 -532 -282
-668 -623 -175 -437 -239 -892 -239 -1718 0 -605 31 -1199 84 -1580 89 -648
206 -1062 397 -1406 133 -241 365 -456 554 -513 132 -41 257 -58 359 -51 327
23 535 86 741 225 179 121 344 368 418 625 72 251 97 418 97 650 0 371 50 597
162 742 69 91 206 153 333 153 307 0 718 -205 1321 -657 370 -277 490 -351
654 -402 97 -30 149 -41 232 -46 105 -7 109 -6 215 29 99 33 116 43 200 114
193 161 351 431 465 797 265 852 395 2001 417 3663 l6 512 -40 -1 c-22 -1 -74
-5 -115 -9z"/>
</g>
</svg>
