<?xml version="1.0" standalone="no"?>
<!DOCTYPE svg PUBLIC "-//W3C//DTD SVG 20010904//EN"
 "http://www.w3.org/TR/2001/REC-SVG-20010904/DTD/svg10.dtd">
<svg version="1.0" xmlns="http://www.w3.org/2000/svg"
 width="800.000000pt" height="800.000000pt" viewBox="0 0 800.000000 800.000000"
 preserveAspectRatio="xMidYMid meet">
<metadata>
Created by potrace 1.16, written by Peter Selinger 2001-2019
</metadata>
<g transform="translate(0.000000,800.000000) scale(0.100000,-0.100000)"
fill="#000000" stroke="none">
<path d="M2681 7986 c2 -2 165 -81 362 -175 751 -359 1426 -764 1877 -1125
129 -103 326 -274 438 -379 180 -170 223 -217 371 -407 133 -171 192 -257 285
-416 105 -182 124 -223 191 -409 73 -203 75 -211 105 -427 31 -220 31 -222 20
-437 -9 -180 -17 -252 -51 -431 -85 -453 -172 -727 -317 -1002 -141 -266 -293
-427 -502 -532 -209 -106 -411 -124 -666 -62 -355 88 -639 267 -900 568 -213
246 -411 723 -483 1163 -55 337 -71 544 -81 1065 -13 623 -19 708 -86 1250
-51 416 -226 936 -372 1105 -102 119 -200 208 -267 243 -221 116 -408 44 -572
-219 -105 -168 -168 -327 -262 -665 -93 -333 -202 -964 -236 -1369 -53 -640
-53 -1152 1 -1780 29 -341 102 -798 168 -1045 37 -142 55 -188 125 -328 213
-425 510 -694 1012 -917 508 -226 1041 -329 1844 -359 633 -23 1162 31 1630
168 198 57 240 73 414 160 275 137 463 274 652 476 121 130 146 163 240 320
91 153 115 201 181 380 68 183 82 230 121 435 53 268 68 477 68 887 -2 806
-74 1611 -198 2203 -88 425 -247 844 -416 1100 -171 260 -441 429 -947 593
-210 69 -487 129 -880 191 -585 93 -905 122 -1775 161 -385 17 -1107 28 -1094
16z"/>
</g>
</svg>
