<?xml version="1.0" standalone="no"?>
<!DOCTYPE svg PUBLIC "-//W3C//DTD SVG 20010904//EN"
 "http://www.w3.org/TR/2001/REC-SVG-20010904/DTD/svg10.dtd">
<svg version="1.0" xmlns="http://www.w3.org/2000/svg"
 width="800.000000pt" height="800.000000pt" viewBox="0 0 800.000000 800.000000"
 preserveAspectRatio="xMidYMid meet">
<metadata>
Created by potrace 1.16, written by Peter Selinger 2001-2019
</metadata>
<g transform="translate(0.000000,800.000000) scale(0.100000,-0.100000)"
fill="#000000" stroke="none">
<path d="M3715 7974 c-259 -20 -297 -25 -510 -73 -213 -47 -246 -58 -450 -142
-206 -86 -231 -99 -410 -219 -182 -122 -196 -134 -346 -291 -137 -144 -170
-187 -279 -354 -112 -171 -135 -214 -227 -430 -96 -222 -109 -260 -173 -511
-57 -222 -78 -325 -114 -570 -42 -282 -45 -319 -56 -649 -13 -388 -7 -851 16
-1330 37 -758 162 -1487 321 -1875 130 -316 291 -533 475 -639 82 -48 106 -56
208 -75 102 -19 127 -20 225 -10 430 41 732 326 890 837 69 227 134 681 135
947 1 80 7 251 15 380 12 193 20 263 49 395 75 352 205 613 410 823 225 231
475 375 826 477 220 64 509 111 745 119 83 4 267 13 410 23 258 16 261 16 460
69 168 44 227 65 370 131 147 68 189 93 315 188 125 94 163 130 270 254 98
113 148 184 230 321 92 153 116 202 187 390 158 417 239 873 272 1518 9 177
15 322 14 322 -1 0 -54 -101 -117 -224 -411 -795 -801 -1295 -1319 -1690 -289
-220 -582 -358 -932 -437 l-180 -41 -407 -6 c-599 -7 -871 17 -1242 109 -155
39 -233 75 -295 137 -72 72 -88 141 -50 219 76 157 380 252 949 298 96 7 375
18 620 24 506 13 654 22 860 56 304 50 419 85 621 190 132 68 262 211 312 340
23 61 27 85 26 175 0 153 -8 186 -58 260 -128 188 -405 332 -816 423 -360 80
-1023 142 -1650 155 -275 6 -360 4 -600 -14z"/>
</g>
</svg>
