<?xml version="1.0" standalone="no"?>
<!DOCTYPE svg PUBLIC "-//W3C//DTD SVG 20010904//EN"
 "http://www.w3.org/TR/2001/REC-SVG-20010904/DTD/svg10.dtd">
<svg version="1.0" xmlns="http://www.w3.org/2000/svg"
 width="800.000000pt" height="800.000000pt" viewBox="0 0 800.000000 800.000000"
 preserveAspectRatio="xMidYMid meet">
<metadata>
Created by potrace 1.16, written by Peter Selinger 2001-2019
</metadata>
<g transform="translate(0.000000,800.000000) scale(0.100000,-0.100000)"
fill="#000000" stroke="none">
<path d="M7715 7789 c-567 -426 -1033 -869 -1336 -1269 -87 -115 -208 -291
-274 -400 -101 -164 -133 -229 -207 -408 -78 -191 -92 -233 -132 -420 -41
-187 -46 -227 -56 -422 -16 -312 -50 -540 -106 -725 -54 -174 -45 -155 -142
-313 -65 -106 -91 -137 -187 -227 -90 -84 -139 -120 -246 -181 -117 -68 -155
-84 -299 -127 -224 -66 -403 -87 -770 -87 -245 0 -278 3 -440 29 -238 39 -439
112 -623 225 -113 69 -140 91 -235 195 -93 100 -118 136 -184 256 -69 126 -81
157 -121 310 -39 148 -47 193 -57 345 -8 112 -10 246 -6 370 7 179 11 210 48
370 38 164 45 184 115 319 59 111 97 169 173 261 87 104 113 128 227 206 111
77 150 97 288 150 138 53 187 67 355 97 180 33 224 37 570 51 500 22 718 46
920 102 390 108 606 266 685 503 23 72 27 98 26 187 -2 98 -4 107 -46 200 -36
81 -55 109 -117 171 -61 63 -92 84 -193 136 -258 131 -549 201 -1059 257 -233
26 -309 30 -560 30 -160 1 -399 -4 -531 -11 l-240 -11 -245 -75 -245 -76 -215
-128 -215 -128 -164 -181 -165 -181 -128 -233 -129 -234 -89 -287 c-88 -285
-90 -292 -144 -634 l-56 -346 -10 -391 c-9 -322 -8 -459 5 -775 15 -372 17
-394 65 -709 45 -288 59 -355 124 -590 73 -265 74 -265 189 -495 112 -225 118
-234 248 -392 l134 -163 160 -108 160 -108 185 -54 185 -53 250 -13 c138 -7
322 -13 410 -13 379 -2 1138 -80 1530 -157 387 -77 640 -145 1070 -289 697
-233 1199 -345 1555 -346 126 0 190 14 190 43 0 25 -42 62 -113 99 -74 38
-416 175 -617 246 -419 149 -590 240 -590 312 0 23 8 31 48 49 54 24 190 42
313 42 48 0 149 11 237 27 l153 27 126 127 126 128 104 238 c102 231 107 248
195 578 87 333 91 349 154 780 144 985 216 2091 237 3653 7 468 12 852 12 852
0 0 -126 -95 -280 -211z"/>
</g>
</svg>
