<?xml version="1.0" standalone="no"?>
<!DOCTYPE svg PUBLIC "-//W3C//DTD SVG 20010904//EN"
 "http://www.w3.org/TR/2001/REC-SVG-20010904/DTD/svg10.dtd">
<svg version="1.0" xmlns="http://www.w3.org/2000/svg"
 width="800.000000pt" height="800.000000pt" viewBox="0 0 800.000000 800.000000"
 preserveAspectRatio="xMidYMid meet">
<metadata>
Created by potrace 1.16, written by Peter Selinger 2001-2019
</metadata>
<g transform="translate(0.000000,800.000000) scale(0.100000,-0.100000)"
fill="#000000" stroke="none">
<path d="M6745 7919 c-493 -396 -567 -465 -888 -823 -253 -282 -538 -719 -769
-1180 -159 -317 -360 -571 -608 -769 -294 -234 -645 -346 -1085 -347 -159 0
-180 2 -315 34 -374 88 -587 268 -707 598 -60 164 -82 313 -83 549 0 170 1
180 38 330 35 143 44 165 106 273 61 104 80 128 176 216 97 88 124 107 247
169 108 54 179 81 314 120 260 74 485 98 1004 106 438 6 734 24 1000 61 613
84 1070 248 1172 420 l31 52 -38 37 c-80 79 -332 134 -795 176 -280 25 -909
48 -1315 48 l-315 1 -390 -49 -390 -50 -302 -113 -303 -113 -250 -185 -250
-184 -183 -241 c-101 -132 -191 -251 -200 -265 -9 -14 -77 -169 -151 -345
l-136 -320 -85 -395 -85 -395 -25 -470 c-25 -453 -25 -487 -15 -945 15 -642
53 -1092 136 -1585 50 -301 64 -366 130 -588 l73 -249 106 -188 106 -189 122
-114 122 -114 145 -44 145 -44 165 11 c149 11 176 16 280 51 91 31 138 54 225
113 96 64 121 87 195 179 69 86 96 130 143 236 112 248 175 606 192 1100 6
157 10 182 48 325 l41 155 77 85 76 85 94 23 c52 12 103 22 114 22 11 0 81
-18 155 -39 125 -35 147 -46 305 -141 229 -138 443 -310 1008 -813 827 -734
1225 -1042 1620 -1251 70 -37 174 -83 230 -102 87 -29 114 -34 195 -34 85 0
99 3 137 27 37 23 43 33 56 87 32 132 -25 305 -211 646 -92 170 -152 263 -589
920 -333 500 -467 731 -566 978 -92 230 -125 367 -125 526 0 116 2 130 31 205
28 70 42 90 106 152 40 39 104 110 141 158 181 230 312 748 393 1551 39 387
59 811 67 1433 4 279 7 507 7 507 0 -1 -45 -37 -100 -81z"/>
</g>
</svg>
