<?xml version="1.0" standalone="no"?>
<!DOCTYPE svg PUBLIC "-//W3C//DTD SVG 20010904//EN"
 "http://www.w3.org/TR/2001/REC-SVG-20010904/DTD/svg10.dtd">
<svg version="1.0" xmlns="http://www.w3.org/2000/svg"
 width="800.000000pt" height="800.000000pt" viewBox="0 0 800.000000 800.000000"
 preserveAspectRatio="xMidYMid meet">
<metadata>
Created by potrace 1.16, written by Peter Selinger 2001-2019
</metadata>
<g transform="translate(0.000000,800.000000) scale(0.100000,-0.100000)"
fill="#000000" stroke="none">
<path d="M3550 7534 c-238 -10 -856 -67 -1025 -95 -641 -107 -1057 -377 -1340
-871 -188 -327 -298 -682 -339 -1098 l-21 -215 35 -180 36 -180 82 -155 c80
-153 83 -156 209 -281 118 -117 141 -134 298 -227 154 -92 191 -109 392 -181
201 -72 250 -85 500 -135 236 -47 327 -60 598 -86 842 -79 1257 -146 1656
-265 285 -86 483 -181 684 -329 114 -85 140 -110 216 -208 83 -107 88 -116
123 -232 34 -115 36 -128 36 -267 0 -139 -2 -152 -36 -265 -33 -107 -45 -131
-119 -239 -66 -95 -107 -141 -197 -223 -118 -105 -126 -111 -313 -225 -333
-202 -893 -363 -1759 -507 -486 -81 -917 -180 -1109 -254 -81 -32 -95 -41
-114 -75 l-23 -40 39 -31 c114 -89 567 -159 1311 -201 534 -30 1172 -20 1625
26 573 59 808 114 1052 249 114 62 158 94 251 178 225 207 380 496 473 888 36
152 44 205 58 400 14 191 14 261 4 465 -11 238 -12 241 -60 430 -47 179 -55
201 -134 352 -78 150 -93 171 -204 293 -90 99 -140 145 -200 184 -240 155
-259 165 -462 240 -185 68 -224 79 -445 120 l-243 45 -555 21 c-485 18 -583
24 -780 50 -299 40 -535 102 -740 195 -131 59 -155 74 -240 150 -82 73 -101
96 -151 187 -57 102 -57 103 -69 228 -12 123 -12 127 15 250 79 351 291 671
590 890 386 282 999 445 1600 425 489 -16 885 -76 1320 -200 615 -176 1064
-340 1639 -599 154 -69 281 -125 282 -123 5 5 -287 330 -450 501 -584 611
-1336 1022 -2051 1120 -554 76 -838 97 -1380 100 -258 2 -513 2 -565 0z"/>
</g>
</svg>
