<?xml version="1.0" standalone="no"?>
<!DOCTYPE svg PUBLIC "-//W3C//DTD SVG 20010904//EN"
 "http://www.w3.org/TR/2001/REC-SVG-20010904/DTD/svg10.dtd">
<svg version="1.0" xmlns="http://www.w3.org/2000/svg"
 width="800.000000pt" height="800.000000pt" viewBox="0 0 800.000000 800.000000"
 preserveAspectRatio="xMidYMid meet">
<metadata>
Created by potrace 1.16, written by Peter Selinger 2001-2019
</metadata>
<g transform="translate(0.000000,800.000000) scale(0.100000,-0.100000)"
fill="#000000" stroke="none">
<path d="M7290 7989 c-1234 -13 -1738 -27 -2955 -79 -798 -35 -2025 -174
-2425 -275 -455 -114 -670 -219 -742 -360 -30 -58 -31 -62 -25 -160 15 -252
124 -430 337 -555 163 -95 353 -143 630 -159 348 -21 458 -44 588 -127 154
-99 252 -220 380 -471 150 -296 239 -653 287 -1153 43 -446 46 -495 55 -1010
14 -807 24 -975 76 -1285 82 -491 148 -743 252 -950 59 -118 80 -153 178 -285
224 -304 652 -410 979 -243 273 140 465 420 605 883 40 132 41 137 96 435 62
335 89 697 99 1305 11 686 46 1194 104 1505 43 230 122 533 170 653 88 221
163 345 285 470 187 193 326 252 626 267 262 12 467 74 600 182 162 132 235
224 334 420 84 167 158 573 169 926 1 42 2 76 2 75 0 -1 -317 -5 -705 -9z"/>
</g>
</svg>
