<?xml version="1.0" standalone="no"?>
<!DOCTYPE svg PUBLIC "-//W3C//DTD SVG 20010904//EN"
 "http://www.w3.org/TR/2001/REC-SVG-20010904/DTD/svg10.dtd">
<svg version="1.0" xmlns="http://www.w3.org/2000/svg"
 width="800.000000pt" height="800.000000pt" viewBox="0 0 800.000000 800.000000"
 preserveAspectRatio="xMidYMid meet">
<metadata>
Created by potrace 1.16, written by Peter Selinger 2001-2019
</metadata>
<g transform="translate(0.000000,800.000000) scale(0.100000,-0.100000)"
fill="#000000" stroke="none">
<path d="M2580 7986 c-58 -13 -164 -64 -240 -115 -121 -82 -298 -362 -399
-629 -120 -318 -222 -715 -300 -1162 -75 -432 -97 -619 -126 -1054 -51 -761
31 -1607 199 -2063 150 -405 539 -724 1120 -919 600 -201 1522 -301 2446 -264
259 10 325 16 545 51 373 59 644 133 902 247 274 122 454 241 641 426 114 111
151 156 244 295 97 144 120 187 187 350 71 170 81 205 124 406 38 183 48 252
57 408 28 464 -8 1305 -74 1752 -69 468 -164 803 -294 1045 -105 195 -208 306
-377 403 -89 51 -434 189 -650 260 -423 139 -1124 307 -1815 437 -339 64 -773
140 -777 137 -2 -2 108 -82 244 -178 289 -203 655 -492 938 -741 208 -183 435
-418 680 -703 354 -413 631 -941 741 -1415 l45 -195 6 -300 c5 -272 4 -316
-17 -475 -38 -302 -128 -587 -246 -781 -154 -255 -400 -430 -690 -493 -389
-83 -702 -44 -963 120 -374 236 -633 651 -839 1344 -98 332 -153 608 -231
1180 -148 1070 -268 1609 -467 2092 -124 301 -285 487 -460 532 -71 18 -80 19
-154 2z"/>
</g>
</svg>
