<?xml version="1.0" standalone="no"?>
<!DOCTYPE svg PUBLIC "-//W3C//DTD SVG 20010904//EN"
 "http://www.w3.org/TR/2001/REC-SVG-20010904/DTD/svg10.dtd">
<svg version="1.0" xmlns="http://www.w3.org/2000/svg"
 width="800.000000pt" height="800.000000pt" viewBox="0 0 800.000000 800.000000"
 preserveAspectRatio="xMidYMid meet">
<metadata>
Created by potrace 1.16, written by Peter Selinger 2001-2019
</metadata>
<g transform="translate(0.000000,800.000000) scale(0.100000,-0.100000)"
fill="#000000" stroke="none">
<path d="M2187 7990 c-60 -10 -148 -52 -194 -93 -245 -216 -215 -752 98 -1689
77 -232 130 -368 342 -888 217 -531 511 -1135 670 -1374 218 -328 409 -522
622 -628 153 -77 282 -115 421 -123 98 -6 124 -4 232 20 330 72 622 248 995
599 272 257 489 516 840 1006 359 500 852 1329 1267 2130 148 285 520 1042
515 1048 -8 10 -249 -24 -345 -48 -487 -123 -994 -545 -1495 -1245 -141 -197
-215 -314 -471 -745 -233 -391 -436 -658 -606 -795 -147 -117 -296 -175 -415
-160 -122 15 -261 118 -360 265 -125 188 -180 321 -338 825 -54 171 -118 364
-142 430 -73 194 -209 480 -295 620 -238 384 -434 583 -713 722 -141 70 -270
108 -414 123 -116 11 -145 11 -214 0z"/>
</g>
</svg>
