<?xml version="1.0" standalone="no"?>
<!DOCTYPE svg PUBLIC "-//W3C//DTD SVG 20010904//EN"
 "http://www.w3.org/TR/2001/REC-SVG-20010904/DTD/svg10.dtd">
<svg version="1.0" xmlns="http://www.w3.org/2000/svg"
 width="800.000000pt" height="800.000000pt" viewBox="0 0 800.000000 800.000000"
 preserveAspectRatio="xMidYMid meet">
<metadata>
Created by potrace 1.16, written by Peter Selinger 2001-2019
</metadata>
<g transform="translate(0.000000,800.000000) scale(0.100000,-0.100000)"
fill="#000000" stroke="none">
<path d="M7710 7989 c-606 -28 -1134 -118 -1500 -257 -746 -284 -1143 -698
-1345 -1404 -135 -474 -291 -817 -416 -919 -64 -52 -102 -69 -156 -69 -104 1
-168 56 -293 254 -148 234 -228 324 -326 371 -182 86 -347 -16 -544 -334 -140
-226 -213 -295 -315 -295 -65 0 -106 23 -180 99 -139 143 -264 437 -434 1022
-271 928 -492 1372 -744 1497 -98 48 -151 49 -193 4 -78 -83 -96 -141 -134
-422 -52 -388 -1 -1422 120 -2436 22 -179 53 -451 70 -605 36 -327 91 -697
161 -1090 124 -687 268 -1124 443 -1348 51 -65 73 -84 130 -114 64 -32 73 -34
130 -28 46 5 79 18 136 51 99 57 193 171 310 372 306 527 521 750 799 832 145
42 314 3 477 -112 139 -98 328 -324 466 -558 44 -74 105 -164 137 -199 136
-153 117 -139 231 -171 l105 -30 115 45 c109 43 122 51 248 158 359 304 753
930 1288 2044 310 645 831 1894 1264 3028 122 319 226 590 231 603 10 26 24
25 -281 11z"/>
</g>
</svg>
