<?xml version="1.0" standalone="no"?>
<!DOCTYPE svg PUBLIC "-//W3C//DTD SVG 20010904//EN"
 "http://www.w3.org/TR/2001/REC-SVG-20010904/DTD/svg10.dtd">
<svg version="1.0" xmlns="http://www.w3.org/2000/svg"
 width="800.000000pt" height="800.000000pt" viewBox="0 0 800.000000 800.000000"
 preserveAspectRatio="xMidYMid meet">
<metadata>
Created by potrace 1.16, written by Peter Selinger 2001-2019
</metadata>
<g transform="translate(0.000000,800.000000) scale(0.100000,-0.100000)"
fill="#000000" stroke="none">
<path d="M7785 7985 c-306 -18 -488 -41 -685 -86 -604 -139 -998 -338 -1427
-722 -82 -73 -175 -174 -328 -358 -122 -145 -254 -292 -307 -340 -212 -194
-391 -279 -591 -279 -138 0 -234 26 -377 103 -109 59 -123 70 -285 232 -115
115 -205 217 -280 315 -201 267 -372 453 -570 624 -249 213 -414 320 -627 404
-193 77 -341 104 -545 103 -101 -1 -119 -4 -185 -32 -204 -86 -277 -283 -233
-630 46 -361 177 -768 450 -1389 107 -244 214 -553 299 -860 93 -339 130 -712
107 -1075 -28 -426 -169 -818 -431 -1195 -48 -69 -127 -186 -177 -260 -318
-479 -460 -879 -397 -1124 58 -224 279 -353 524 -305 328 64 746 328 1349 848
253 218 420 343 567 424 374 205 684 254 996 158 106 -32 139 -48 238 -113
154 -101 300 -236 402 -373 217 -291 593 -698 769 -830 371 -281 717 -424
1027 -425 137 0 213 16 284 60 76 47 101 98 99 194 -3 96 -48 251 -110 375
-91 181 -365 579 -571 831 -96 117 -170 222 -255 360 l-119 194 -72 225 -72
226 -18 253 -18 253 23 272 24 272 78 315 c69 282 91 353 203 657 110 297 149
389 309 719 263 545 553 1063 880 1577 146 229 265 416 264 416 -1 -1 -96 -7
-212 -14z"/>
</g>
</svg>
