<?xml version="1.0" standalone="no"?>
<!DOCTYPE svg PUBLIC "-//W3C//DTD SVG 20010904//EN"
 "http://www.w3.org/TR/2001/REC-SVG-20010904/DTD/svg10.dtd">
<svg version="1.0" xmlns="http://www.w3.org/2000/svg"
 width="800.000000pt" height="800.000000pt" viewBox="0 0 800.000000 800.000000"
 preserveAspectRatio="xMidYMid meet">
<metadata>
Created by potrace 1.16, written by Peter Selinger 2001-2019
</metadata>
<g transform="translate(0.000000,800.000000) scale(0.100000,-0.100000)"
fill="#000000" stroke="none">
<path d="M7865 7993 c-337 -7 -840 -44 -1130 -84 -326 -46 -465 -77 -765 -174
-232 -75 -321 -119 -535 -261 -147 -97 -211 -158 -307 -294 -52 -73 -241 -262
-303 -303 -79 -52 -167 -77 -269 -77 -92 0 -94 0 -202 54 -93 46 -120 65 -185
132 -42 44 -124 142 -181 219 -85 113 -134 167 -259 280 -85 77 -188 161 -229
187 -324 199 -649 290 -1121 313 -354 18 -593 -76 -644 -253 -43 -150 -22
-310 72 -542 71 -174 237 -463 388 -675 93 -130 215 -316 335 -510 436 -706
725 -1519 824 -2314 48 -380 66 -624 66 -888 0 -260 35 -706 66 -851 116 -541
262 -812 539 -999 115 -78 257 -124 450 -147 210 -25 466 37 639 156 266 183
417 468 525 993 41 194 59 386 66 685 18 743 107 1215 371 1952 121 338 383
912 588 1288 397 725 742 1282 1164 1878 94 133 170 241 169 240 -1 -1 -60 -3
-132 -5z"/>
</g>
</svg>
