<?xml version="1.0" standalone="no"?>
<!DOCTYPE svg PUBLIC "-//W3C//DTD SVG 20010904//EN"
 "http://www.w3.org/TR/2001/REC-SVG-20010904/DTD/svg10.dtd">
<svg version="1.0" xmlns="http://www.w3.org/2000/svg"
 width="800.000000pt" height="800.000000pt" viewBox="0 0 800.000000 800.000000"
 preserveAspectRatio="xMidYMid meet">
<metadata>
Created by potrace 1.16, written by Peter Selinger 2001-2019
</metadata>
<g transform="translate(0.000000,800.000000) scale(0.100000,-0.100000)"
fill="#000000" stroke="none">
<path d="M6795 7989 c-660 -4 -1438 -15 -1728 -23 -290 -9 -623 -16 -740 -16
-117 0 -383 -9 -592 -19 -209 -11 -461 -23 -560 -26 -358 -12 -975 -55 -1230
-86 -542 -65 -805 -142 -805 -236 0 -28 22 -74 57 -120 53 -69 284 -191 533
-281 141 -51 466 -138 815 -217 427 -97 400 -91 545 -115 680 -112 1001 -231
1233 -458 64 -62 88 -95 126 -172 134 -264 142 -501 31 -865 -146 -478 -435
-967 -975 -1650 -380 -481 -574 -759 -733 -1050 -147 -271 -244 -584 -257
-830 -6 -109 -4 -130 20 -225 86 -343 407 -580 940 -696 338 -73 663 -104
1105 -104 545 0 1501 41 1760 75 63 8 187 24 275 36 492 63 939 187 1115 309
166 114 207 162 242 285 29 102 18 205 -32 296 -97 178 -290 266 -685 314
-305 38 -835 0 -1487 -105 -88 -14 -175 -20 -279 -20 -140 0 -159 2 -248 30
-91 28 -99 33 -162 97 -59 60 -70 78 -93 148 -24 73 -26 95 -26 237 0 137 4
176 30 300 114 537 496 1334 1186 2473 402 664 804 1271 1505 2273 175 248
317 451 316 450 -1 -1 -542 -5 -1202 -9z"/>
</g>
</svg>
