<?xml version="1.0" standalone="no"?>
<!DOCTYPE svg PUBLIC "-//W3C//DTD SVG 20010904//EN"
 "http://www.w3.org/TR/2001/REC-SVG-20010904/DTD/svg10.dtd">
<svg version="1.0" xmlns="http://www.w3.org/2000/svg"
 width="800.000000pt" height="800.000000pt" viewBox="0 0 800.000000 800.000000"
 preserveAspectRatio="xMidYMid meet">
<metadata>
Created by potrace 1.16, written by Peter Selinger 2001-2019
</metadata>
<g transform="translate(0.000000,800.000000) scale(0.100000,-0.100000)"
fill="#000000" stroke="none">
<path d="M4980 7988 c-812 -37 -1296 -120 -1871 -322 -290 -101 -656 -285
-874 -437 -118 -82 -158 -117 -253 -222 -261 -289 -428 -594 -553 -1010 -195
-654 -289 -1383 -289 -2255 0 -939 86 -1700 245 -2155 36 -105 94 -246 135
-328 66 -131 82 -153 173 -252 87 -93 118 -118 212 -174 109 -66 111 -66 245
-87 131 -20 139 -20 270 -5 506 60 821 418 941 1069 37 202 68 563 69 800 0
172 1 178 44 345 42 167 44 172 112 274 l69 104 109 54 109 53 126 0 c124 0
129 -1 302 -54 151 -46 204 -68 375 -156 241 -125 537 -321 934 -621 248 -187
298 -220 515 -340 l240 -133 220 -35 220 -36 180 65 180 65 149 158 150 159
114 261 114 262 79 350 c78 345 80 356 130 800 49 435 51 470 72 1040 l22 590
-290 -12 c-848 -35 -1402 -186 -1729 -472 -81 -71 -104 -99 -155 -185 -53 -89
-63 -115 -85 -216 -13 -63 -29 -173 -36 -245 -17 -201 -37 -299 -75 -374 -28
-55 -41 -71 -83 -93 -69 -39 -174 -39 -285 -2 -192 64 -540 347 -1008 821
-440 445 -621 666 -745 911 -87 170 -95 268 -26 334 163 157 633 235 1527 253
630 12 853 33 1180 110 160 38 288 92 410 175 168 113 244 248 245 435 2 234
-109 392 -366 523 -228 116 -556 176 -1119 206 -126 6 -286 8 -375 4z"/>
</g>
</svg>
