<?xml version="1.0" standalone="no"?>
<!DOCTYPE svg PUBLIC "-//W3C//DTD SVG 20010904//EN"
 "http://www.w3.org/TR/2001/REC-SVG-20010904/DTD/svg10.dtd">
<svg version="1.0" xmlns="http://www.w3.org/2000/svg"
 width="800.000000pt" height="800.000000pt" viewBox="0 0 800.000000 800.000000"
 preserveAspectRatio="xMidYMid meet">

<g transform="translate(0.000000,800.000000) scale(0.100000,-0.100000)"
fill="#000000" stroke="none">
<path d="M4533 6798 c-255 -58 -433 -143 -698 -334 -309 -221 -649 -563 -1056
-1059 -192 -233 -458 -595 -781 -1060 -227 -327 -651 -1055 -877 -1505 -168
-333 -471 -1003 -576 -1270 -287 -731 -310 -797 -540 -1551 -4 -12 1 -15 22
-12 16 2 186 19 378 38 740 75 1280 177 1705 323 394 135 634 277 766 453 91
122 116 198 130 394 5 86 13 116 52 215 45 114 47 116 146 216 83 83 117 108
191 146 190 97 382 149 655 177 291 30 392 33 650 21 326 -16 593 -65 782
-145 270 -114 435 -295 483 -530 9 -44 20 -152 25 -240 10 -174 20 -223 49
-249 19 -17 21 -16 60 23 110 110 372 807 475 1261 85 378 100 643 65 1155
-29 431 -140 973 -304 1475 -236 724 -437 1184 -649 1490 -270 388 -551 569
-913 588 -110 6 -133 4 -240 -20z"/>
</g>
</svg>
