<?xml version="1.0" standalone="no"?>
<!DOCTYPE svg PUBLIC "-//W3C//DTD SVG 20010904//EN"
 "http://www.w3.org/TR/2001/REC-SVG-20010904/DTD/svg10.dtd">
<svg version="1.0" xmlns="http://www.w3.org/2000/svg"
 width="800.000000pt" height="800.000000pt" viewBox="0 0 800.000000 800.000000"
 preserveAspectRatio="xMidYMid meet">
<metadata>
Created by potrace 1.16, written by Peter Selinger 2001-2019
</metadata>
<g transform="translate(0.000000,800.000000) scale(0.100000,-0.100000)"
fill="#000000" stroke="none">
<path d="M3615 7354 c-701 -16 -1528 -88 -1850 -161 -425 -96 -684 -264 -872
-567 -83 -133 -135 -288 -164 -486 -17 -120 -21 -216 -26 -550 -9 -629 13
-1156 132 -3170 33 -556 113 -1721 118 -1726 1 -1 502 -155 1112 -343 l1110
-341 1321 0 c865 0 1341 4 1380 10 247 43 395 125 461 255 68 132 68 261 1
390 -131 251 -505 407 -1428 594 -466 95 -679 160 -906 275 -283 143 -404 304
-404 536 0 80 3 92 40 169 75 155 189 255 379 333 200 82 427 115 886 128 796
22 1113 133 1160 405 28 157 -98 313 -325 403 -212 84 -510 150 -775 172 -381
32 -669 97 -864 195 -90 45 -119 66 -188 137 -159 161 -211 334 -184 605 18
170 84 370 173 522 226 385 684 618 1338 680 118 11 285 23 370 26 338 14 707
87 885 177 138 69 209 139 244 240 25 70 26 78 15 168 -8 80 -17 108 -53 179
-89 175 -295 364 -501 459 -441 206 -939 274 -2075 285 -203 2 -433 3 -510 1z"/>
</g>
</svg>
