<?xml version="1.0" standalone="no"?>
<!DOCTYPE svg PUBLIC "-//W3C//DTD SVG 20010904//EN"
 "http://www.w3.org/TR/2001/REC-SVG-20010904/DTD/svg10.dtd">
<svg version="1.0" xmlns="http://www.w3.org/2000/svg"
 width="800.000000pt" height="800.000000pt" viewBox="0 0 800.000000 800.000000"
 preserveAspectRatio="xMidYMid meet">

<g transform="translate(0.000000,800.000000) scale(0.100000,-0.100000)"
fill="#000000" stroke="none">
<path d="M2710 7990 c-574 -17 -989 -85 -1225 -203 -265 -132 -368 -303 -334
-555 35 -264 234 -442 584 -522 109 -25 368 -49 524 -50 106 0 126 -3 250 -41
130 -40 141 -45 252 -126 111 -81 121 -92 205 -212 71 -101 104 -161 167 -306
66 -151 87 -214 132 -395 113 -451 166 -1071 145 -1710 -10 -321 -12 -347 -56
-629 l-46 -295 -86 -250 -87 -251 -122 -195 c-120 -190 -126 -199 -285 -357
l-163 -161 -200 -110 -200 -109 -245 -71 -245 -70 -267 -18 -268 -18 0 -663 0
-663 3058 2 3057 3 125 32 c307 77 475 192 556 378 35 80 46 157 45 291 -1 80
-6 102 -34 166 -111 254 -321 373 -762 429 -82 10 -199 19 -260 19 -87 0 -142
7 -259 32 l-149 32 -116 81 c-105 73 -124 91 -204 195 -65 84 -111 160 -174
285 -81 160 -89 182 -139 380 -79 308 -132 648 -149 955 -21 376 -19 1094 4
1425 25 348 79 688 155 976 50 188 62 221 136 370 70 138 97 181 175 275 84
101 103 117 211 184 115 72 122 75 264 107 117 26 167 33 260 33 141 0 394 32
515 64 175 46 344 149 426 261 67 91 98 188 99 310 0 138 -15 196 -74 280
-123 174 -386 291 -816 361 -319 52 -473 55 -2380 58 -965 2 -1865 0 -2000 -4z"/>
</g>
</svg>
