<?xml version="1.0" standalone="no"?>
<!DOCTYPE svg PUBLIC "-//W3C//DTD SVG 20010904//EN"
 "http://www.w3.org/TR/2001/REC-SVG-20010904/DTD/svg10.dtd">
<svg version="1.0" xmlns="http://www.w3.org/2000/svg"
 width="800.000000pt" height="800.000000pt" viewBox="0 0 800.000000 800.000000"
 preserveAspectRatio="xMidYMid meet">

<g transform="translate(0.000000,800.000000) scale(0.100000,-0.100000)"
fill="#000000" stroke="none">
<path d="M3480 7505 c-451 -22 -612 -33 -1165 -84 -115 -11 -271 -23 -345 -26
-74 -4 -196 -13 -270 -21 -123 -14 -270 -24 -589 -42 -63 -4 -116 -11 -118
-17 -9 -28 205 -133 372 -183 69 -21 260 -57 465 -87 58 -9 233 -27 390 -40
345 -29 452 -55 615 -149 365 -211 566 -609 654 -1296 86 -668 128 -1252 151
-2091 11 -375 10 -406 -10 -591 -18 -172 -26 -213 -69 -351 -44 -142 -57 -170
-134 -294 -81 -131 -93 -144 -212 -248 -105 -92 -151 -124 -283 -196 -138 -76
-181 -94 -352 -147 -107 -33 -213 -63 -235 -66 -22 -3 -193 -31 -380 -61 -513
-83 -737 -141 -750 -193 -3 -14 -5 -25 -3 -27 27 -19 168 -51 348 -80 904
-144 1503 -329 2329 -720 195 -92 203 -95 272 -95 l70 0 137 113 c127 103 146
123 242 257 81 112 123 183 184 310 72 153 82 179 123 360 41 174 47 220 62
430 15 218 15 255 -1 510 -13 230 -24 326 -66 585 -131 805 -166 1164 -166
1720 0 308 3 390 23 570 47 435 177 858 401 1305 128 256 191 351 311 464 77
74 110 97 184 132 266 124 466 161 934 173 152 4 248 8 215 9 -34 1 -124 8
-200 16 -77 8 -182 17 -234 21 -52 3 -178 17 -280 30 -102 13 -223 27 -270 30
-47 4 -218 19 -380 35 -611 59 -1240 71 -1970 35z"/>
</g>
</svg>
