<?xml version="1.0" standalone="no"?>
<!DOCTYPE svg PUBLIC "-//W3C//DTD SVG 20010904//EN"
 "http://www.w3.org/TR/2001/REC-SVG-20010904/DTD/svg10.dtd">
<svg version="1.0" xmlns="http://www.w3.org/2000/svg"
 width="800.000000pt" height="800.000000pt" viewBox="0 0 800.000000 800.000000"
 preserveAspectRatio="xMidYMid meet">

<g transform="translate(0.000000,800.000000) scale(0.100000,-0.100000)"
fill="#000000" stroke="none">
<path d="M7572 7293 c-108 -14 -119 -17 -285 -97 -147 -71 -202 -104 -382
-233 -131 -94 -302 -231 -455 -363 -217 -189 -277 -234 -525 -399 l-280 -186
-260 -102 -260 -102 -263 -31 -262 -30 -268 45 -267 44 -270 126 -271 126
-274 212 c-151 117 -381 299 -510 405 -185 151 -277 218 -436 317 l-203 126
-159 45 -160 44 -118 -25 c-66 -15 -122 -29 -125 -33 -3 -4 -38 -52 -76 -107
l-70 -100 -32 -200 -31 -200 0 -2792 c0 -1536 3 -2793 8 -2793 4 0 92 7 196
15 254 21 465 72 645 157 107 50 136 69 217 144 84 78 99 97 155 202 60 111
64 124 91 272 21 118 28 185 28 285 0 178 31 396 82 565 112 372 307 661 578
854 235 168 389 237 556 251 81 6 95 4 159 -19 101 -38 196 -107 246 -178 162
-232 297 -320 435 -284 71 19 127 68 266 233 135 160 206 212 328 238 193 41
442 -57 720 -281 203 -164 332 -336 460 -614 45 -99 64 -155 88 -270 43 -200
72 -422 72 -558 0 -63 7 -171 17 -241 14 -109 21 -134 51 -187 34 -60 37 -62
84 -68 46 -6 54 -4 122 38 125 79 289 286 545 690 207 326 413 759 478 1006
l28 105 0 1785 -1 1785 -45 138 -44 137 -85 60 c-47 33 -94 59 -105 59 -11 -1
-71 -8 -133 -16z"/>
</g>
</svg>
