<?xml version="1.0" standalone="no"?>
<!DOCTYPE svg PUBLIC "-//W3C//DTD SVG 20010904//EN"
 "http://www.w3.org/TR/2001/REC-SVG-20010904/DTD/svg10.dtd">
<svg version="1.0" xmlns="http://www.w3.org/2000/svg"
 width="800.000000pt" height="800.000000pt" viewBox="0 0 800.000000 800.000000"
 preserveAspectRatio="xMidYMid meet">

<g transform="translate(0.000000,800.000000) scale(0.100000,-0.100000)"
fill="#000000" stroke="none">
<path d="M7064 6903 c-40 -8 -133 -144 -196 -287 -59 -135 -114 -274 -169
-431 -40 -113 -239 -785 -375 -1265 -42 -149 -159 -431 -231 -559 -40 -70 -94
-147 -137 -195 -61 -69 -82 -84 -156 -119 -84 -39 -85 -39 -170 -32 -75 6 -95
12 -170 53 -109 58 -224 163 -393 357 -155 178 -644 669 -877 880 -179 163
-328 289 -690 584 -214 175 -247 198 -372 261 -104 53 -165 77 -258 100 l-121
31 -114 -15 c-105 -14 -123 -20 -232 -75 -111 -55 -123 -64 -210 -158 -193
-209 -376 -564 -511 -994 -154 -488 -223 -770 -333 -1367 -93 -510 -132 -859
-175 -1570 -14 -236 -34 -962 -26 -962 2 0 64 7 138 16 127 14 140 18 250 70
99 46 130 67 211 142 139 126 240 283 332 516 62 156 72 191 110 391 68 363
88 616 96 1175 11 850 77 1299 223 1527 39 59 55 75 100 97 l53 26 67 -19 c59
-18 88 -37 235 -156 414 -333 608 -516 1652 -1555 468 -465 922 -911 1010
-990 87 -80 218 -199 290 -265 71 -66 159 -145 195 -175 36 -30 126 -109 200
-175 294 -262 443 -377 575 -442 214 -107 327 -90 385 59 l25 63 0 2075 c0
2127 -3 2305 -41 2730 -24 280 -45 422 -71 505 -27 84 -68 156 -87 154 -6 -1
-21 -4 -32 -6z"/>
</g>
</svg>
