<?xml version="1.0" standalone="no"?>
<!DOCTYPE svg PUBLIC "-//W3C//DTD SVG 20010904//EN"
 "http://www.w3.org/TR/2001/REC-SVG-20010904/DTD/svg10.dtd">
<svg version="1.0" xmlns="http://www.w3.org/2000/svg"
 width="800.000000pt" height="800.000000pt" viewBox="0 0 800.000000 800.000000"
 preserveAspectRatio="xMidYMid meet">

<g transform="translate(0.000000,800.000000) scale(0.100000,-0.100000)"
fill="#000000" stroke="none">
<path d="M3965 7653 c-605 -28 -1159 -205 -1620 -517 -143 -97 -377 -332 -496
-498 -203 -284 -349 -635 -429 -1032 -57 -287 -67 -371 -81 -646 -32 -666 36
-1330 211 -2040 51 -208 203 -751 237 -850 73 -210 207 -569 253 -680 29 -69
79 -195 112 -280 77 -200 239 -562 386 -863 l116 -237 295 0 c267 0 329 4 626
35 443 46 507 56 815 126 568 130 826 219 1200 411 215 111 248 130 460 262
226 141 389 274 648 530 356 351 720 886 907 1331 145 345 219 587 286 940 83
434 105 683 95 1085 l-6 296 -45 234 c-24 129 -58 278 -74 330 -24 78 -98 262
-172 425 -18 39 -137 221 -197 299 -115 152 -287 335 -400 429 -126 104 -407
285 -557 359 -172 85 -545 225 -805 302 -342 100 -417 119 -675 165 -334 60
-341 61 -625 76 -251 14 -325 15 -465 8z"/>
</g>
</svg>
