<?xml version="1.0" standalone="no"?>
<!DOCTYPE svg PUBLIC "-//W3C//DTD SVG 20010904//EN"
 "http://www.w3.org/TR/2001/REC-SVG-20010904/DTD/svg10.dtd">
<svg version="1.0" xmlns="http://www.w3.org/2000/svg"
 width="800.000000pt" height="800.000000pt" viewBox="0 0 800.000000 800.000000"
 preserveAspectRatio="xMidYMid meet">

<g transform="translate(0.000000,800.000000) scale(0.100000,-0.100000)"
fill="#000000" stroke="none">
<path d="M4210 7614 c-250 -8 -570 -23 -710 -34 -140 -11 -307 -22 -370 -25
-257 -13 -683 -54 -1045 -101 -193 -24 -206 -28 -380 -91 -175 -64 -184 -69
-335 -174 -150 -106 -160 -115 -298 -277 -123 -144 -159 -196 -267 -378 -342
-578 -582 -1377 -745 -2488 l-60 -408 0 -1817 0 -1816 232 6 c279 8 441 22
648 56 413 68 670 189 806 378 79 111 91 176 99 515 3 151 10 318 15 370 5 52
14 156 21 230 6 74 17 171 25 215 8 44 21 133 29 198 20 170 77 379 121 445
87 132 220 154 399 64 129 -64 187 -111 482 -387 228 -214 479 -444 568 -520
44 -38 134 -119 200 -180 66 -61 156 -140 200 -175 44 -35 136 -114 205 -175
259 -231 614 -502 845 -645 238 -148 543 -274 855 -352 l125 -32 290 0 290 1
75 29 c117 45 183 91 216 149 128 223 42 523 -328 1145 -233 392 -533 777
-1020 1312 -142 156 -206 234 -256 316 -63 101 -70 117 -87 211 -16 90 -17
112 -6 198 11 84 20 111 66 203 48 94 64 116 162 212 210 206 492 380 878 540
427 178 729 363 938 575 89 91 120 131 181 235 69 118 74 131 97 249 23 117
23 132 13 259 -10 122 -15 148 -59 269 -127 352 -458 799 -805 1089 -439 365
-857 547 -1385 603 -205 21 -291 21 -925 3z"/>
</g>
</svg>
