<?xml version="1.0" standalone="no"?>
<!DOCTYPE svg PUBLIC "-//W3C//DTD SVG 20010904//EN"
 "http://www.w3.org/TR/2001/REC-SVG-20010904/DTD/svg10.dtd">
<svg version="1.0" xmlns="http://www.w3.org/2000/svg"
 width="800.000000pt" height="800.000000pt" viewBox="0 0 800.000000 800.000000"
 preserveAspectRatio="xMidYMid meet">

<g transform="translate(0.000000,800.000000) scale(0.100000,-0.100000)"
fill="#000000" stroke="none">
<path d="M3679 6730 c-111 -25 -194 -75 -251 -152 -114 -157 -160 -291 -209
-613 -20 -133 -23 -188 -22 -480 0 -310 1 -341 27 -510 61 -395 150 -733 252
-958 194 -424 395 -726 699 -1052 142 -152 232 -281 292 -419 38 -88 43 -107
43 -176 0 -65 -5 -89 -31 -148 -28 -63 -38 -74 -102 -119 -146 -101 -428 -180
-727 -202 -85 -7 -227 -26 -315 -43 -153 -30 -165 -34 -276 -94 -100 -55 -126
-75 -188 -144 -64 -70 -78 -94 -113 -183 l-39 -102 6 -130 c14 -281 136 -628
352 -1003 l111 -193 328 1 c684 1 1419 65 1914 166 616 126 967 245 1286 435
274 163 458 344 667 659 130 195 227 419 227 525 0 92 -28 183 -74 241 -59 74
-136 120 -289 170 -367 123 -659 318 -1051 704 -460 453 -671 773 -707 1071
-11 95 -10 118 6 210 52 301 303 595 727 852 95 57 313 180 483 273 305 166
471 264 786 466 294 189 434 323 419 401 -14 77 -175 174 -365 222 -146 36
-382 84 -475 96 -144 19 -547 39 -770 39 -187 0 -281 -6 -554 -35 -260 -28
-369 -35 -525 -35 -379 0 -775 65 -1105 182 -94 33 -214 68 -266 77 -89 16
-101 16 -171 1z"/>
</g>
</svg>
