<?xml version="1.0" standalone="no"?>
<!DOCTYPE svg PUBLIC "-//W3C//DTD SVG 20010904//EN"
 "http://www.w3.org/TR/2001/REC-SVG-20010904/DTD/svg10.dtd">
<svg version="1.0" xmlns="http://www.w3.org/2000/svg"
 width="800.000000pt" height="800.000000pt" viewBox="0 0 800.000000 800.000000"
 preserveAspectRatio="xMidYMid meet">

<g transform="translate(0.000000,800.000000) scale(0.100000,-0.100000)"
fill="#000000" stroke="none">
<path d="M3310 7494 c-1139 -28 -1625 -101 -1995 -299 -83 -45 -114 -68 -163
-124 -115 -129 -156 -266 -156 -521 0 -204 52 -308 189 -377 142 -73 669 -151
1275 -189 87 -6 125 -14 225 -49 255 -90 405 -204 548 -415 202 -298 308 -806
311 -1485 1 -333 -22 -445 -147 -720 -145 -321 -190 -629 -207 -1415 -14 -661
-29 -860 -71 -942 l-19 -38 40 0 c30 0 78 -19 191 -76 451 -225 710 -304 1007
-304 163 0 248 17 362 72 72 34 94 51 145 111 136 160 193 375 195 733 2 335
-37 657 -141 1174 -77 380 -118 657 -140 940 -43 582 -12 980 111 1385 64 214
259 630 381 812 65 98 236 273 311 319 66 40 281 115 396 138 151 31 405 56
557 56 167 0 282 19 369 61 103 50 176 167 176 280 0 70 -36 207 -82 311 -89
200 -337 360 -703 452 -258 64 -554 92 -1215 111 -580 17 -1053 17 -1750 -1z"/>
</g>
</svg>
