<?xml version="1.0" standalone="no"?>
<!DOCTYPE svg PUBLIC "-//W3C//DTD SVG 20010904//EN"
 "http://www.w3.org/TR/2001/REC-SVG-20010904/DTD/svg10.dtd">
<svg version="1.0" xmlns="http://www.w3.org/2000/svg"
 width="800.000000pt" height="800.000000pt" viewBox="0 0 800.000000 800.000000"
 preserveAspectRatio="xMidYMid meet">
<metadata>
Created by potrace 1.16, written by Peter Selinger 2001-2019
</metadata>
<g transform="translate(0.000000,800.000000) scale(0.100000,-0.100000)"
fill="#000000" stroke="none">
<path d="M4150 6729 c-52 -9 -172 -44 -266 -77 -330 -116 -726 -182 -1105
-182 -156 0 -265 7 -525 35 -382 41 -619 45 -1014 20 -277 -17 -337 -24 -530
-64 -346 -70 -488 -122 -573 -208 -87 -88 -63 -142 135 -305 151 -124 608
-407 1023 -632 171 -93 388 -216 483 -273 424 -257 675 -551 727 -852 16 -92
17 -115 6 -210 -36 -298 -247 -618 -707 -1071 -392 -386 -684 -581 -1051 -704
-153 -50 -230 -96 -289 -170 -46 -58 -74 -149 -74 -241 0 -106 97 -330 227
-525 209 -315 393 -496 667 -659 319 -190 670 -309 1286 -435 495 -101 1230
-165 1914 -166 l328 -1 111 193 c216 375 338 722 352 1003 l6 130 -39 102
c-35 89 -49 113 -113 183 -62 69 -88 89 -188 144 -111 60 -123 64 -276 94 -88
17 -230 36 -315 43 -299 22 -581 101 -727 202 -64 45 -74 56 -102 119 -26 59
-31 83 -31 148 0 69 5 88 43 176 60 138 150 267 292 419 304 326 505 628 699
1052 102 225 191 563 252 958 26 169 27 200 27 510 1 292 -2 347 -22 480 -49
322 -95 456 -209 613 -57 77 -140 127 -251 152 -71 15 -82 15 -171 -1z"/>
</g>
</svg>
